<?xml version="1.0" encoding="utf-8" standalone="no"?>
<!DOCTYPE svg PUBLIC "-//W3C//DTD SVG 1.1//EN"
  "http://www.w3.org/Graphics/SVG/1.1/DTD/svg11.dtd">
<svg xmlns:xlink="http://www.w3.org/1999/xlink" width="432pt" height="288pt" viewBox="0 0 432 288" xmlns="http://www.w3.org/2000/svg" version="1.1">
 <metadata>
  <rdf:RDF xmlns:dc="http://purl.org/dc/elements/1.1/" xmlns:cc="http://creativecommons.org/ns#" xmlns:rdf="http://www.w3.org/1999/02/22-rdf-syntax-ns#">
   <cc:Work>
    <dc:type rdf:resource="http://purl.org/dc/dcmitype/StillImage"/>
    <dc:date>2026-01-08T16:27:14.496574</dc:date>
    <dc:format>image/svg+xml</dc:format>
    <dc:creator>
     <cc:Agent>
      <dc:title>Matplotlib v3.9.0, https://matplotlib.org/</dc:title>
     </cc:Agent>
    </dc:creator>
   </cc:Work>
  </rdf:RDF>
 </metadata>
 <defs>
  <style type="text/css">*{stroke-linejoin: round; stroke-linecap: butt}</style>
 </defs>
 <g id="figure_1">
  <g id="patch_1">
   <path d="M 0 288 
L 432 288 
L 432 0 
L 0 0 
z
" style="fill: #ffffff"/>
  </g>
  <g id="axes_1">
   <g id="patch_2">
    <path d="M 53.795 246.724 
L 421.2 246.724 
L 421.2 14.64 
L 53.795 14.64 
z
" style="fill: #ffffff"/>
   </g>
   <g id="matplotlib.axis_1">
    <g id="xtick_1">
     <g id="line2d_1">
      <path d="M 70.495227 246.724 
L 70.495227 14.64 
" clip-path="url(#p5eaee1219a)" style="fill: none; stroke-dasharray: 0.5,0.825; stroke-dashoffset: 0; stroke: #b0b0b0; stroke-opacity: 0.7; stroke-width: 0.5"/>
     </g>
     <g id="line2d_2">
      <defs>
       <path id="m0728a0ed29" d="M 0 0 
L 0 3.5 
" style="stroke: #000000; stroke-width: 0.8"/>
      </defs>
      <g>
       <use xlink:href="#m0728a0ed29" x="70.495227" y="246.724" style="stroke: #000000; stroke-width: 0.8"/>
      </g>
     </g>
     <g id="text_1">
      <!-- $\mathdefault{10^{0}}$ -->
      <g transform="translate(61.695227 261.322437) scale(0.1 -0.1)">
       <defs>
        <path id="DejaVuSans-31" d="M 794 531 
L 1825 531 
L 1825 4091 
L 703 3866 
L 703 4441 
L 1819 4666 
L 2450 4666 
L 2450 531 
L 3481 531 
L 3481 0 
L 794 0 
L 794 531 
z
" transform="scale(0.015625)"/>
        <path id="DejaVuSans-30" d="M 2034 4250 
Q 1547 4250 1301 3770 
Q 1056 3291 1056 2328 
Q 1056 1369 1301 889 
Q 1547 409 2034 409 
Q 2525 409 2770 889 
Q 3016 1369 3016 2328 
Q 3016 3291 2770 3770 
Q 2525 4250 2034 4250 
z
M 2034 4750 
Q 2819 4750 3233 4129 
Q 3647 3509 3647 2328 
Q 3647 1150 3233 529 
Q 2819 -91 2034 -91 
Q 1250 -91 836 529 
Q 422 1150 422 2328 
Q 422 3509 836 4129 
Q 1250 4750 2034 4750 
z
" transform="scale(0.015625)"/>
       </defs>
       <use xlink:href="#DejaVuSans-31" transform="translate(0 0.765625)"/>
       <use xlink:href="#DejaVuSans-30" transform="translate(63.623047 0.765625)"/>
       <use xlink:href="#DejaVuSans-30" transform="translate(128.203125 39.046875) scale(0.7)"/>
      </g>
     </g>
    </g>
    <g id="xtick_2">
     <g id="line2d_3">
      <path d="M 120.767921 246.724 
L 120.767921 14.64 
" clip-path="url(#p5eaee1219a)" style="fill: none; stroke-dasharray: 0.5,0.825; stroke-dashoffset: 0; stroke: #b0b0b0; stroke-opacity: 0.7; stroke-width: 0.5"/>
     </g>
     <g id="line2d_4">
      <g>
       <use xlink:href="#m0728a0ed29" x="120.767921" y="246.724" style="stroke: #000000; stroke-width: 0.8"/>
      </g>
     </g>
    </g>
    <g id="xtick_3">
     <g id="line2d_5">
      <path d="M 187.224807 246.724 
L 187.224807 14.64 
" clip-path="url(#p5eaee1219a)" style="fill: none; stroke-dasharray: 0.5,0.825; stroke-dashoffset: 0; stroke: #b0b0b0; stroke-opacity: 0.7; stroke-width: 0.5"/>
     </g>
     <g id="line2d_6">
      <g>
       <use xlink:href="#m0728a0ed29" x="187.224807" y="246.724" style="stroke: #000000; stroke-width: 0.8"/>
      </g>
     </g>
    </g>
    <g id="xtick_4">
     <g id="line2d_7">
      <path d="M 237.4975 246.724 
L 237.4975 14.64 
" clip-path="url(#p5eaee1219a)" style="fill: none; stroke-dasharray: 0.5,0.825; stroke-dashoffset: 0; stroke: #b0b0b0; stroke-opacity: 0.7; stroke-width: 0.5"/>
     </g>
     <g id="line2d_8">
      <g>
       <use xlink:href="#m0728a0ed29" x="237.4975" y="246.724" style="stroke: #000000; stroke-width: 0.8"/>
      </g>
     </g>
     <g id="text_2">
      <!-- $\mathdefault{10^{1}}$ -->
      <g transform="translate(228.6975 261.322437) scale(0.1 -0.1)">
       <use xlink:href="#DejaVuSans-31" transform="translate(0 0.684375)"/>
       <use xlink:href="#DejaVuSans-30" transform="translate(63.623047 0.684375)"/>
       <use xlink:href="#DejaVuSans-31" transform="translate(128.203125 38.965625) scale(0.7)"/>
      </g>
     </g>
    </g>
    <g id="xtick_5">
     <g id="line2d_9">
      <path d="M 287.770193 246.724 
L 287.770193 14.64 
" clip-path="url(#p5eaee1219a)" style="fill: none; stroke-dasharray: 0.5,0.825; stroke-dashoffset: 0; stroke: #b0b0b0; stroke-opacity: 0.7; stroke-width: 0.5"/>
     </g>
     <g id="line2d_10">
      <g>
       <use xlink:href="#m0728a0ed29" x="287.770193" y="246.724" style="stroke: #000000; stroke-width: 0.8"/>
      </g>
     </g>
    </g>
    <g id="xtick_6">
     <g id="line2d_11">
      <path d="M 354.227079 246.724 
L 354.227079 14.64 
" clip-path="url(#p5eaee1219a)" style="fill: none; stroke-dasharray: 0.5,0.825; stroke-dashoffset: 0; stroke: #b0b0b0; stroke-opacity: 0.7; stroke-width: 0.5"/>
     </g>
     <g id="line2d_12">
      <g>
       <use xlink:href="#m0728a0ed29" x="354.227079" y="246.724" style="stroke: #000000; stroke-width: 0.8"/>
      </g>
     </g>
    </g>
    <g id="xtick_7">
     <g id="line2d_13">
      <path d="M 404.499773 246.724 
L 404.499773 14.64 
" clip-path="url(#p5eaee1219a)" style="fill: none; stroke-dasharray: 0.5,0.825; stroke-dashoffset: 0; stroke: #b0b0b0; stroke-opacity: 0.7; stroke-width: 0.5"/>
     </g>
     <g id="line2d_14">
      <g>
       <use xlink:href="#m0728a0ed29" x="404.499773" y="246.724" style="stroke: #000000; stroke-width: 0.8"/>
      </g>
     </g>
     <g id="text_3">
      <!-- $\mathdefault{10^{2}}$ -->
      <g transform="translate(395.699773 261.322437) scale(0.1 -0.1)">
       <defs>
        <path id="DejaVuSans-32" d="M 1228 531 
L 3431 531 
L 3431 0 
L 469 0 
L 469 531 
Q 828 903 1448 1529 
Q 2069 2156 2228 2338 
Q 2531 2678 2651 2914 
Q 2772 3150 2772 3378 
Q 2772 3750 2511 3984 
Q 2250 4219 1831 4219 
Q 1534 4219 1204 4116 
Q 875 4013 500 3803 
L 500 4441 
Q 881 4594 1212 4672 
Q 1544 4750 1819 4750 
Q 2544 4750 2975 4387 
Q 3406 4025 3406 3419 
Q 3406 3131 3298 2873 
Q 3191 2616 2906 2266 
Q 2828 2175 2409 1742 
Q 1991 1309 1228 531 
z
" transform="scale(0.015625)"/>
       </defs>
       <use xlink:href="#DejaVuSans-31" transform="translate(0 0.765625)"/>
       <use xlink:href="#DejaVuSans-30" transform="translate(63.623047 0.765625)"/>
       <use xlink:href="#DejaVuSans-32" transform="translate(128.203125 39.046875) scale(0.7)"/>
      </g>
     </g>
    </g>
    <g id="xtick_8">
     <g id="line2d_15">
      <defs>
       <path id="m198a3d312a" d="M 0 0 
L 0 2 
" style="stroke: #000000; stroke-width: 0.6"/>
      </defs>
      <g>
       <use xlink:href="#m198a3d312a" x="54.311035" y="246.724" style="stroke: #000000; stroke-width: 0.6"/>
      </g>
     </g>
    </g>
    <g id="xtick_9">
     <g id="line2d_16">
      <g>
       <use xlink:href="#m198a3d312a" x="62.853622" y="246.724" style="stroke: #000000; stroke-width: 0.6"/>
      </g>
     </g>
    </g>
    <g id="xtick_10">
     <g id="line2d_17">
      <g>
       <use xlink:href="#m198a3d312a" x="150.175561" y="246.724" style="stroke: #000000; stroke-width: 0.6"/>
      </g>
     </g>
    </g>
    <g id="xtick_11">
     <g id="line2d_18">
      <g>
       <use xlink:href="#m198a3d312a" x="171.040614" y="246.724" style="stroke: #000000; stroke-width: 0.6"/>
      </g>
     </g>
    </g>
    <g id="xtick_12">
     <g id="line2d_19">
      <g>
       <use xlink:href="#m198a3d312a" x="200.448255" y="246.724" style="stroke: #000000; stroke-width: 0.6"/>
      </g>
     </g>
    </g>
    <g id="xtick_13">
     <g id="line2d_20">
      <g>
       <use xlink:href="#m198a3d312a" x="211.628521" y="246.724" style="stroke: #000000; stroke-width: 0.6"/>
      </g>
     </g>
    </g>
    <g id="xtick_14">
     <g id="line2d_21">
      <g>
       <use xlink:href="#m198a3d312a" x="221.313308" y="246.724" style="stroke: #000000; stroke-width: 0.6"/>
      </g>
     </g>
    </g>
    <g id="xtick_15">
     <g id="line2d_22">
      <g>
       <use xlink:href="#m198a3d312a" x="229.855895" y="246.724" style="stroke: #000000; stroke-width: 0.6"/>
      </g>
     </g>
    </g>
    <g id="xtick_16">
     <g id="line2d_23">
      <g>
       <use xlink:href="#m198a3d312a" x="317.177834" y="246.724" style="stroke: #000000; stroke-width: 0.6"/>
      </g>
     </g>
    </g>
    <g id="xtick_17">
     <g id="line2d_24">
      <g>
       <use xlink:href="#m198a3d312a" x="338.042887" y="246.724" style="stroke: #000000; stroke-width: 0.6"/>
      </g>
     </g>
    </g>
    <g id="xtick_18">
     <g id="line2d_25">
      <g>
       <use xlink:href="#m198a3d312a" x="367.450527" y="246.724" style="stroke: #000000; stroke-width: 0.6"/>
      </g>
     </g>
    </g>
    <g id="xtick_19">
     <g id="line2d_26">
      <g>
       <use xlink:href="#m198a3d312a" x="378.630793" y="246.724" style="stroke: #000000; stroke-width: 0.6"/>
      </g>
     </g>
    </g>
    <g id="xtick_20">
     <g id="line2d_27">
      <g>
       <use xlink:href="#m198a3d312a" x="388.31558" y="246.724" style="stroke: #000000; stroke-width: 0.6"/>
      </g>
     </g>
    </g>
    <g id="xtick_21">
     <g id="line2d_28">
      <g>
       <use xlink:href="#m198a3d312a" x="396.858168" y="246.724" style="stroke: #000000; stroke-width: 0.6"/>
      </g>
     </g>
    </g>
    <g id="text_4">
     <!-- k -->
     <g transform="translate(234.602187 275.000563) scale(0.1 -0.1)">
      <defs>
       <path id="DejaVuSans-6b" d="M 581 4863 
L 1159 4863 
L 1159 1991 
L 2875 3500 
L 3609 3500 
L 1753 1863 
L 3688 0 
L 2938 0 
L 1159 1709 
L 1159 0 
L 581 0 
L 581 4863 
z
" transform="scale(0.015625)"/>
      </defs>
      <use xlink:href="#DejaVuSans-6b"/>
     </g>
    </g>
   </g>
   <g id="matplotlib.axis_2">
    <g id="ytick_1">
     <g id="line2d_29">
      <path d="M 53.795 246.724 
L 421.2 246.724 
" clip-path="url(#p5eaee1219a)" style="fill: none; stroke-dasharray: 0.5,0.825; stroke-dashoffset: 0; stroke: #b0b0b0; stroke-opacity: 0.7; stroke-width: 0.5"/>
     </g>
     <g id="line2d_30">
      <defs>
       <path id="mfbfa7174ca" d="M 0 0 
L -3.5 0 
" style="stroke: #000000; stroke-width: 0.8"/>
      </defs>
      <g>
       <use xlink:href="#mfbfa7174ca" x="53.795" y="246.724" style="stroke: #000000; stroke-width: 0.8"/>
      </g>
     </g>
     <g id="text_5">
      <!-- 0.60 -->
      <g transform="translate(24.529375 250.523219) scale(0.1 -0.1)">
       <defs>
        <path id="DejaVuSans-2e" d="M 684 794 
L 1344 794 
L 1344 0 
L 684 0 
L 684 794 
z
" transform="scale(0.015625)"/>
        <path id="DejaVuSans-36" d="M 2113 2584 
Q 1688 2584 1439 2293 
Q 1191 2003 1191 1497 
Q 1191 994 1439 701 
Q 1688 409 2113 409 
Q 2538 409 2786 701 
Q 3034 994 3034 1497 
Q 3034 2003 2786 2293 
Q 2538 2584 2113 2584 
z
M 3366 4563 
L 3366 3988 
Q 3128 4100 2886 4159 
Q 2644 4219 2406 4219 
Q 1781 4219 1451 3797 
Q 1122 3375 1075 2522 
Q 1259 2794 1537 2939 
Q 1816 3084 2150 3084 
Q 2853 3084 3261 2657 
Q 3669 2231 3669 1497 
Q 3669 778 3244 343 
Q 2819 -91 2113 -91 
Q 1303 -91 875 529 
Q 447 1150 447 2328 
Q 447 3434 972 4092 
Q 1497 4750 2381 4750 
Q 2619 4750 2861 4703 
Q 3103 4656 3366 4563 
z
" transform="scale(0.015625)"/>
       </defs>
       <use xlink:href="#DejaVuSans-30"/>
       <use xlink:href="#DejaVuSans-2e" x="63.623047"/>
       <use xlink:href="#DejaVuSans-36" x="95.410156"/>
       <use xlink:href="#DejaVuSans-30" x="159.033203"/>
      </g>
     </g>
    </g>
    <g id="ytick_2">
     <g id="line2d_31">
      <path d="M 53.795 217.7135 
L 421.2 217.7135 
" clip-path="url(#p5eaee1219a)" style="fill: none; stroke-dasharray: 0.5,0.825; stroke-dashoffset: 0; stroke: #b0b0b0; stroke-opacity: 0.7; stroke-width: 0.5"/>
     </g>
     <g id="line2d_32">
      <g>
       <use xlink:href="#mfbfa7174ca" x="53.795" y="217.7135" style="stroke: #000000; stroke-width: 0.8"/>
      </g>
     </g>
     <g id="text_6">
      <!-- 0.65 -->
      <g transform="translate(24.529375 221.512719) scale(0.1 -0.1)">
       <defs>
        <path id="DejaVuSans-35" d="M 691 4666 
L 3169 4666 
L 3169 4134 
L 1269 4134 
L 1269 2991 
Q 1406 3038 1543 3061 
Q 1681 3084 1819 3084 
Q 2600 3084 3056 2656 
Q 3513 2228 3513 1497 
Q 3513 744 3044 326 
Q 2575 -91 1722 -91 
Q 1428 -91 1123 -41 
Q 819 9 494 109 
L 494 744 
Q 775 591 1075 516 
Q 1375 441 1709 441 
Q 2250 441 2565 725 
Q 2881 1009 2881 1497 
Q 2881 1984 2565 2268 
Q 2250 2553 1709 2553 
Q 1456 2553 1204 2497 
Q 953 2441 691 2322 
L 691 4666 
z
" transform="scale(0.015625)"/>
       </defs>
       <use xlink:href="#DejaVuSans-30"/>
       <use xlink:href="#DejaVuSans-2e" x="63.623047"/>
       <use xlink:href="#DejaVuSans-36" x="95.410156"/>
       <use xlink:href="#DejaVuSans-35" x="159.033203"/>
      </g>
     </g>
    </g>
    <g id="ytick_3">
     <g id="line2d_33">
      <path d="M 53.795 188.703 
L 421.2 188.703 
" clip-path="url(#p5eaee1219a)" style="fill: none; stroke-dasharray: 0.5,0.825; stroke-dashoffset: 0; stroke: #b0b0b0; stroke-opacity: 0.7; stroke-width: 0.5"/>
     </g>
     <g id="line2d_34">
      <g>
       <use xlink:href="#mfbfa7174ca" x="53.795" y="188.703" style="stroke: #000000; stroke-width: 0.8"/>
      </g>
     </g>
     <g id="text_7">
      <!-- 0.70 -->
      <g transform="translate(24.529375 192.502219) scale(0.1 -0.1)">
       <defs>
        <path id="DejaVuSans-37" d="M 525 4666 
L 3525 4666 
L 3525 4397 
L 1831 0 
L 1172 0 
L 2766 4134 
L 525 4134 
L 525 4666 
z
" transform="scale(0.015625)"/>
       </defs>
       <use xlink:href="#DejaVuSans-30"/>
       <use xlink:href="#DejaVuSans-2e" x="63.623047"/>
       <use xlink:href="#DejaVuSans-37" x="95.410156"/>
       <use xlink:href="#DejaVuSans-30" x="159.033203"/>
      </g>
     </g>
    </g>
    <g id="ytick_4">
     <g id="line2d_35">
      <path d="M 53.795 159.6925 
L 421.2 159.6925 
" clip-path="url(#p5eaee1219a)" style="fill: none; stroke-dasharray: 0.5,0.825; stroke-dashoffset: 0; stroke: #b0b0b0; stroke-opacity: 0.7; stroke-width: 0.5"/>
     </g>
     <g id="line2d_36">
      <g>
       <use xlink:href="#mfbfa7174ca" x="53.795" y="159.6925" style="stroke: #000000; stroke-width: 0.8"/>
      </g>
     </g>
     <g id="text_8">
      <!-- 0.75 -->
      <g transform="translate(24.529375 163.491719) scale(0.1 -0.1)">
       <use xlink:href="#DejaVuSans-30"/>
       <use xlink:href="#DejaVuSans-2e" x="63.623047"/>
       <use xlink:href="#DejaVuSans-37" x="95.410156"/>
       <use xlink:href="#DejaVuSans-35" x="159.033203"/>
      </g>
     </g>
    </g>
    <g id="ytick_5">
     <g id="line2d_37">
      <path d="M 53.795 130.682 
L 421.2 130.682 
" clip-path="url(#p5eaee1219a)" style="fill: none; stroke-dasharray: 0.5,0.825; stroke-dashoffset: 0; stroke: #b0b0b0; stroke-opacity: 0.7; stroke-width: 0.5"/>
     </g>
     <g id="line2d_38">
      <g>
       <use xlink:href="#mfbfa7174ca" x="53.795" y="130.682" style="stroke: #000000; stroke-width: 0.8"/>
      </g>
     </g>
     <g id="text_9">
      <!-- 0.80 -->
      <g transform="translate(24.529375 134.481219) scale(0.1 -0.1)">
       <defs>
        <path id="DejaVuSans-38" d="M 2034 2216 
Q 1584 2216 1326 1975 
Q 1069 1734 1069 1313 
Q 1069 891 1326 650 
Q 1584 409 2034 409 
Q 2484 409 2743 651 
Q 3003 894 3003 1313 
Q 3003 1734 2745 1975 
Q 2488 2216 2034 2216 
z
M 1403 2484 
Q 997 2584 770 2862 
Q 544 3141 544 3541 
Q 544 4100 942 4425 
Q 1341 4750 2034 4750 
Q 2731 4750 3128 4425 
Q 3525 4100 3525 3541 
Q 3525 3141 3298 2862 
Q 3072 2584 2669 2484 
Q 3125 2378 3379 2068 
Q 3634 1759 3634 1313 
Q 3634 634 3220 271 
Q 2806 -91 2034 -91 
Q 1263 -91 848 271 
Q 434 634 434 1313 
Q 434 1759 690 2068 
Q 947 2378 1403 2484 
z
M 1172 3481 
Q 1172 3119 1398 2916 
Q 1625 2713 2034 2713 
Q 2441 2713 2670 2916 
Q 2900 3119 2900 3481 
Q 2900 3844 2670 4047 
Q 2441 4250 2034 4250 
Q 1625 4250 1398 4047 
Q 1172 3844 1172 3481 
z
" transform="scale(0.015625)"/>
       </defs>
       <use xlink:href="#DejaVuSans-30"/>
       <use xlink:href="#DejaVuSans-2e" x="63.623047"/>
       <use xlink:href="#DejaVuSans-38" x="95.410156"/>
       <use xlink:href="#DejaVuSans-30" x="159.033203"/>
      </g>
     </g>
    </g>
    <g id="ytick_6">
     <g id="line2d_39">
      <path d="M 53.795 101.6715 
L 421.2 101.6715 
" clip-path="url(#p5eaee1219a)" style="fill: none; stroke-dasharray: 0.5,0.825; stroke-dashoffset: 0; stroke: #b0b0b0; stroke-opacity: 0.7; stroke-width: 0.5"/>
     </g>
     <g id="line2d_40">
      <g>
       <use xlink:href="#mfbfa7174ca" x="53.795" y="101.6715" style="stroke: #000000; stroke-width: 0.8"/>
      </g>
     </g>
     <g id="text_10">
      <!-- 0.85 -->
      <g transform="translate(24.529375 105.470719) scale(0.1 -0.1)">
       <use xlink:href="#DejaVuSans-30"/>
       <use xlink:href="#DejaVuSans-2e" x="63.623047"/>
       <use xlink:href="#DejaVuSans-38" x="95.410156"/>
       <use xlink:href="#DejaVuSans-35" x="159.033203"/>
      </g>
     </g>
    </g>
    <g id="ytick_7">
     <g id="line2d_41">
      <path d="M 53.795 72.661 
L 421.2 72.661 
" clip-path="url(#p5eaee1219a)" style="fill: none; stroke-dasharray: 0.5,0.825; stroke-dashoffset: 0; stroke: #b0b0b0; stroke-opacity: 0.7; stroke-width: 0.5"/>
     </g>
     <g id="line2d_42">
      <g>
       <use xlink:href="#mfbfa7174ca" x="53.795" y="72.661" style="stroke: #000000; stroke-width: 0.8"/>
      </g>
     </g>
     <g id="text_11">
      <!-- 0.90 -->
      <g transform="translate(24.529375 76.460219) scale(0.1 -0.1)">
       <defs>
        <path id="DejaVuSans-39" d="M 703 97 
L 703 672 
Q 941 559 1184 500 
Q 1428 441 1663 441 
Q 2288 441 2617 861 
Q 2947 1281 2994 2138 
Q 2813 1869 2534 1725 
Q 2256 1581 1919 1581 
Q 1219 1581 811 2004 
Q 403 2428 403 3163 
Q 403 3881 828 4315 
Q 1253 4750 1959 4750 
Q 2769 4750 3195 4129 
Q 3622 3509 3622 2328 
Q 3622 1225 3098 567 
Q 2575 -91 1691 -91 
Q 1453 -91 1209 -44 
Q 966 3 703 97 
z
M 1959 2075 
Q 2384 2075 2632 2365 
Q 2881 2656 2881 3163 
Q 2881 3666 2632 3958 
Q 2384 4250 1959 4250 
Q 1534 4250 1286 3958 
Q 1038 3666 1038 3163 
Q 1038 2656 1286 2365 
Q 1534 2075 1959 2075 
z
" transform="scale(0.015625)"/>
       </defs>
       <use xlink:href="#DejaVuSans-30"/>
       <use xlink:href="#DejaVuSans-2e" x="63.623047"/>
       <use xlink:href="#DejaVuSans-39" x="95.410156"/>
       <use xlink:href="#DejaVuSans-30" x="159.033203"/>
      </g>
     </g>
    </g>
    <g id="ytick_8">
     <g id="line2d_43">
      <path d="M 53.795 43.6505 
L 421.2 43.6505 
" clip-path="url(#p5eaee1219a)" style="fill: none; stroke-dasharray: 0.5,0.825; stroke-dashoffset: 0; stroke: #b0b0b0; stroke-opacity: 0.7; stroke-width: 0.5"/>
     </g>
     <g id="line2d_44">
      <g>
       <use xlink:href="#mfbfa7174ca" x="53.795" y="43.6505" style="stroke: #000000; stroke-width: 0.8"/>
      </g>
     </g>
     <g id="text_12">
      <!-- 0.95 -->
      <g transform="translate(24.529375 47.449719) scale(0.1 -0.1)">
       <use xlink:href="#DejaVuSans-30"/>
       <use xlink:href="#DejaVuSans-2e" x="63.623047"/>
       <use xlink:href="#DejaVuSans-39" x="95.410156"/>
       <use xlink:href="#DejaVuSans-35" x="159.033203"/>
      </g>
     </g>
    </g>
    <g id="ytick_9">
     <g id="line2d_45">
      <path d="M 53.795 14.64 
L 421.2 14.64 
" clip-path="url(#p5eaee1219a)" style="fill: none; stroke-dasharray: 0.5,0.825; stroke-dashoffset: 0; stroke: #b0b0b0; stroke-opacity: 0.7; stroke-width: 0.5"/>
     </g>
     <g id="line2d_46">
      <g>
       <use xlink:href="#mfbfa7174ca" x="53.795" y="14.64" style="stroke: #000000; stroke-width: 0.8"/>
      </g>
     </g>
     <g id="text_13">
      <!-- 1.00 -->
      <g transform="translate(24.529375 18.439219) scale(0.1 -0.1)">
       <use xlink:href="#DejaVuSans-31"/>
       <use xlink:href="#DejaVuSans-2e" x="63.623047"/>
       <use xlink:href="#DejaVuSans-30" x="95.410156"/>
       <use xlink:href="#DejaVuSans-30" x="159.033203"/>
      </g>
     </g>
    </g>
    <g id="text_14">
     <!-- D-pass@k -->
     <g transform="translate(18.449688 155.678875) rotate(-90) scale(0.1 -0.1)">
      <defs>
       <path id="DejaVuSans-44" d="M 1259 4147 
L 1259 519 
L 2022 519 
Q 2988 519 3436 956 
Q 3884 1394 3884 2338 
Q 3884 3275 3436 3711 
Q 2988 4147 2022 4147 
L 1259 4147 
z
M 628 4666 
L 1925 4666 
Q 3281 4666 3915 4102 
Q 4550 3538 4550 2338 
Q 4550 1131 3912 565 
Q 3275 0 1925 0 
L 628 0 
L 628 4666 
z
" transform="scale(0.015625)"/>
       <path id="DejaVuSans-2d" d="M 313 2009 
L 1997 2009 
L 1997 1497 
L 313 1497 
L 313 2009 
z
" transform="scale(0.015625)"/>
       <path id="DejaVuSans-70" d="M 1159 525 
L 1159 -1331 
L 581 -1331 
L 581 3500 
L 1159 3500 
L 1159 2969 
Q 1341 3281 1617 3432 
Q 1894 3584 2278 3584 
Q 2916 3584 3314 3078 
Q 3713 2572 3713 1747 
Q 3713 922 3314 415 
Q 2916 -91 2278 -91 
Q 1894 -91 1617 61 
Q 1341 213 1159 525 
z
M 3116 1747 
Q 3116 2381 2855 2742 
Q 2594 3103 2138 3103 
Q 1681 3103 1420 2742 
Q 1159 2381 1159 1747 
Q 1159 1113 1420 752 
Q 1681 391 2138 391 
Q 2594 391 2855 752 
Q 3116 1113 3116 1747 
z
" transform="scale(0.015625)"/>
       <path id="DejaVuSans-61" d="M 2194 1759 
Q 1497 1759 1228 1600 
Q 959 1441 959 1056 
Q 959 750 1161 570 
Q 1363 391 1709 391 
Q 2188 391 2477 730 
Q 2766 1069 2766 1631 
L 2766 1759 
L 2194 1759 
z
M 3341 1997 
L 3341 0 
L 2766 0 
L 2766 531 
Q 2569 213 2275 61 
Q 1981 -91 1556 -91 
Q 1019 -91 701 211 
Q 384 513 384 1019 
Q 384 1609 779 1909 
Q 1175 2209 1959 2209 
L 2766 2209 
L 2766 2266 
Q 2766 2663 2505 2880 
Q 2244 3097 1772 3097 
Q 1472 3097 1187 3025 
Q 903 2953 641 2809 
L 641 3341 
Q 956 3463 1253 3523 
Q 1550 3584 1831 3584 
Q 2591 3584 2966 3190 
Q 3341 2797 3341 1997 
z
" transform="scale(0.015625)"/>
       <path id="DejaVuSans-73" d="M 2834 3397 
L 2834 2853 
Q 2591 2978 2328 3040 
Q 2066 3103 1784 3103 
Q 1356 3103 1142 2972 
Q 928 2841 928 2578 
Q 928 2378 1081 2264 
Q 1234 2150 1697 2047 
L 1894 2003 
Q 2506 1872 2764 1633 
Q 3022 1394 3022 966 
Q 3022 478 2636 193 
Q 2250 -91 1575 -91 
Q 1294 -91 989 -36 
Q 684 19 347 128 
L 347 722 
Q 666 556 975 473 
Q 1284 391 1588 391 
Q 1994 391 2212 530 
Q 2431 669 2431 922 
Q 2431 1156 2273 1281 
Q 2116 1406 1581 1522 
L 1381 1569 
Q 847 1681 609 1914 
Q 372 2147 372 2553 
Q 372 3047 722 3315 
Q 1072 3584 1716 3584 
Q 2034 3584 2315 3537 
Q 2597 3491 2834 3397 
z
" transform="scale(0.015625)"/>
       <path id="DejaVuSans-40" d="M 2381 1678 
Q 2381 1231 2603 976 
Q 2825 722 3213 722 
Q 3597 722 3817 978 
Q 4038 1234 4038 1678 
Q 4038 2116 3813 2373 
Q 3588 2631 3206 2631 
Q 2828 2631 2604 2375 
Q 2381 2119 2381 1678 
z
M 4084 744 
Q 3897 503 3655 389 
Q 3413 275 3091 275 
Q 2553 275 2217 664 
Q 1881 1053 1881 1678 
Q 1881 2303 2218 2693 
Q 2556 3084 3091 3084 
Q 3413 3084 3656 2967 
Q 3900 2850 4084 2613 
L 4084 3022 
L 4531 3022 
L 4531 722 
Q 4988 791 5245 1139 
Q 5503 1488 5503 2041 
Q 5503 2375 5404 2669 
Q 5306 2963 5106 3213 
Q 4781 3622 4314 3839 
Q 3847 4056 3297 4056 
Q 2913 4056 2559 3954 
Q 2206 3853 1906 3653 
Q 1416 3334 1139 2817 
Q 863 2300 863 1697 
Q 863 1200 1042 765 
Q 1222 331 1563 0 
Q 1891 -325 2322 -495 
Q 2753 -666 3244 -666 
Q 3647 -666 4036 -530 
Q 4425 -394 4750 -141 
L 5031 -488 
Q 4641 -791 4180 -952 
Q 3719 -1113 3244 -1113 
Q 2666 -1113 2153 -908 
Q 1641 -703 1241 -313 
Q 841 78 631 592 
Q 422 1106 422 1697 
Q 422 2266 634 2781 
Q 847 3297 1241 3688 
Q 1644 4084 2172 4295 
Q 2700 4506 3291 4506 
Q 3953 4506 4520 4234 
Q 5088 3963 5472 3463 
Q 5706 3156 5829 2797 
Q 5953 2438 5953 2053 
Q 5953 1231 5456 756 
Q 4959 281 4084 263 
L 4084 744 
z
" transform="scale(0.015625)"/>
      </defs>
      <use xlink:href="#DejaVuSans-44"/>
      <use xlink:href="#DejaVuSans-2d" x="77.001953"/>
      <use xlink:href="#DejaVuSans-70" x="113.085938"/>
      <use xlink:href="#DejaVuSans-61" x="176.5625"/>
      <use xlink:href="#DejaVuSans-73" x="237.841797"/>
      <use xlink:href="#DejaVuSans-73" x="289.941406"/>
      <use xlink:href="#DejaVuSans-40" x="342.041016"/>
      <use xlink:href="#DejaVuSans-6b" x="442.041016"/>
     </g>
    </g>
   </g>
   <g id="line2d_47">
    <path d="M 70.495227 198.691713 
L 120.767921 147.143002 
L 150.175561 126.982902 
L 171.040614 115.879654 
L 187.224807 108.323051 
L 200.448255 102.586523 
L 211.628521 97.981764 
L 221.313308 94.170284 
L 229.855895 90.956619 
L 237.4975 88.21356 
L 244.410172 85.850702 
L 250.720948 83.799713 
L 256.526299 82.006836 
L 261.901214 80.428747 
L 266.90514 79.030044 
L 271.586001 77.781587 
L 275.982994 76.659297 
L 280.128589 75.643241 
L 284.049985 74.716906 
L 287.770193 73.866607 
L 291.308855 73.081001 
L 294.682866 72.350686 
L 297.906871 71.667865 
L 300.993641 71.02607 
L 303.954386 70.41993 
L 306.798992 69.844983 
L 309.536229 69.297512 
L 312.173908 68.774421 
L 314.719017 68.273119 
L 317.177834 67.791434 
L 319.55602 67.327541 
L 321.858694 66.879895 
L 324.090506 66.447185 
L 326.255687 66.028291 
L 328.3581 65.62225 
L 330.401282 65.228229 
L 332.388479 64.8455 
L 334.322678 64.473424 
L 336.206633 64.111431 
L 338.042887 63.759015 
L 339.833797 63.415716 
L 341.581548 63.081115 
L 343.288172 62.754829 
L 344.955559 62.436503 
L 346.585474 62.125804 
L 348.179564 61.822422 
L 349.73937 61.526065 
L 351.266335 61.236454 
L 352.761814 60.953324 
L 354.227079 60.676424 
L 355.663328 60.40551 
L 357.071686 60.140351 
L 358.453216 59.880721 
L 359.808922 59.626406 
L 361.139752 59.377195 
L 362.446601 59.132888 
L 363.730319 58.893289 
L 364.99171 58.65821 
L 366.231538 58.427467 
L 367.450527 58.200883 
L 368.649367 57.978288 
L 369.828713 57.759514 
L 370.989188 57.5444 
L 372.131388 57.332791 
L 373.255878 57.124534 
L 374.3632 56.919483 
L 375.453869 56.717497 
L 376.52838 56.518436 
L 377.587205 56.322167 
L 378.630793 56.128562 
L 379.659579 55.937494 
L 380.673975 55.748841 
L 381.67438 55.562486 
L 382.661173 55.378313 
L 383.63472 55.196213 
L 384.595372 55.016076 
L 385.543466 54.837798 
L 386.479326 54.661277 
L 387.403264 54.486415 
L 388.31558 54.313115 
L 389.216563 54.141284 
L 390.10649 53.97083 
L 390.98563 53.801664 
L 391.854241 53.6337 
L 392.712573 53.466854 
L 393.560865 53.301042 
L 394.39935 53.136184 
L 395.228253 52.9722 
L 396.047789 52.809012 
L 396.858168 52.646544 
L 397.659592 52.48472 
L 398.452258 52.323468 
L 399.236354 52.162712 
L 400.012063 52.002381 
L 400.779564 51.842404 
L 401.539028 51.682708 
L 402.290622 51.523224 
L 403.034507 51.36388 
L 403.77084 51.204607 
L 404.499773 51.045333 
" clip-path="url(#p5eaee1219a)" style="fill: none; stroke: #000000; stroke-width: 2; stroke-linecap: square"/>
    <defs>
     <path id="m9c77ede63d" d="M 0 1.25 
C 0.331504 1.25 0.649475 1.118292 0.883883 0.883883 
C 1.118292 0.649475 1.25 0.331504 1.25 0 
C 1.25 -0.331504 1.118292 -0.649475 0.883883 -0.883883 
C 0.649475 -1.118292 0.331504 -1.25 0 -1.25 
C -0.331504 -1.25 -0.649475 -1.118292 -0.883883 -0.883883 
C -1.118292 -0.649475 -1.25 -0.331504 -1.25 0 
C -1.25 0.331504 -1.118292 0.649475 -0.883883 0.883883 
C -0.649475 1.118292 -0.331504 1.25 0 1.25 
z
" style="stroke: #000000"/>
    </defs>
    <g clip-path="url(#p5eaee1219a)">
     <use xlink:href="#m9c77ede63d" x="70.495227" y="198.691713" style="stroke: #000000"/>
     <use xlink:href="#m9c77ede63d" x="120.767921" y="147.143002" style="stroke: #000000"/>
     <use xlink:href="#m9c77ede63d" x="187.224807" y="108.323051" style="stroke: #000000"/>
     <use xlink:href="#m9c77ede63d" x="237.4975" y="88.21356" style="stroke: #000000"/>
     <use xlink:href="#m9c77ede63d" x="287.770193" y="73.866607" style="stroke: #000000"/>
     <use xlink:href="#m9c77ede63d" x="354.227079" y="60.676424" style="stroke: #000000"/>
     <use xlink:href="#m9c77ede63d" x="404.499773" y="51.045333" style="stroke: #000000"/>
    </g>
   </g>
   <g id="line2d_48">
    <path d="M 70.495227 277.075112 
L 120.767921 226.467802 
L 150.175561 204.604464 
L 171.040614 189.161185 
L 187.224807 179.919081 
L 200.448255 171.35043 
L 211.628521 165.917399 
L 221.313308 162.871775 
L 229.855895 160.072536 
L 237.4975 156.651785 
L 244.410172 153.662648 
L 250.720948 151.784697 
L 256.526299 150.423107 
L 261.901214 149.180242 
L 266.90514 146.804874 
L 271.586001 146.120079 
L 275.982994 145.047412 
L 280.128589 143.495521 
L 284.049985 142.716704 
L 287.770193 142.166333 
L 291.308855 141.00211 
L 294.682866 139.884166 
L 297.906871 138.807372 
L 300.993641 137.748741 
L 303.954386 136.718796 
L 306.798992 135.732038 
L 309.536229 134.964273 
L 312.173908 134.211814 
L 314.719017 133.595823 
L 317.177834 133.014077 
L 319.55602 132.458685 
L 321.858694 131.926652 
L 324.090506 131.224803 
L 326.255687 130.366667 
L 328.3581 130.144476 
L 330.401282 129.58737 
L 332.388479 129.21211 
L 334.322678 128.525433 
L 336.206633 128.045731 
L 338.042887 127.599732 
L 339.833797 127.159052 
L 341.581548 126.713529 
L 343.288172 126.087706 
L 344.955559 125.139489 
L 346.585474 124.819047 
L 348.179564 124.498978 
L 349.73937 124.179211 
L 351.266335 123.859688 
L 352.761814 123.540364 
L 354.227079 123.221206 
L 355.663328 122.902185 
L 357.071686 122.547695 
L 358.453216 122.151485 
L 359.808922 121.939017 
L 361.139752 121.641097 
L 362.446601 121.331849 
L 363.730319 121.022651 
L 364.99171 120.713497 
L 366.231538 120.404384 
L 367.450527 120.095307 
L 368.649367 119.773078 
L 369.828713 119.435518 
L 370.989188 119.009504 
L 372.131388 118.475922 
L 373.255878 118.305451 
L 374.3632 118.135776 
L 375.453869 117.837099 
L 376.52838 117.52422 
L 377.587205 117.211356 
L 378.630793 116.898507 
L 379.659579 116.582092 
L 380.673975 116.25919 
L 381.67438 115.936342 
L 382.661173 115.486136 
L 383.63472 114.932962 
L 384.595372 114.381635 
L 385.543466 114.305612 
L 386.479326 114.264512 
L 387.403264 114.038429 
L 388.31558 113.728114 
L 389.216563 113.407774 
L 390.10649 113.087437 
L 390.98563 112.767102 
L 391.854241 112.321724 
L 392.712573 111.862785 
L 393.560865 111.403893 
L 394.39935 110.945038 
L 395.228253 110.607286 
L 396.047789 110.442849 
L 396.858168 110.278413 
L 397.659592 110.113977 
L 398.452258 109.989157 
L 399.236354 109.987647 
L 400.012063 109.986568 
L 400.779564 109.715446 
L 401.539028 109.403829 
L 402.290622 109.168661 
L 403.034507 109.01214 
L 403.77084 108.855621 
L 404.499773 108.699102 
" clip-path="url(#p5eaee1219a)" style="fill: none; stroke-dasharray: 3.7,1.6; stroke-dashoffset: 0; stroke: #000000"/>
    <g clip-path="url(#p5eaee1219a)">
     <use xlink:href="#m9c77ede63d" x="70.495227" y="277.075112" style="stroke: #000000"/>
     <use xlink:href="#m9c77ede63d" x="120.767921" y="226.467802" style="stroke: #000000"/>
     <use xlink:href="#m9c77ede63d" x="187.224807" y="179.919081" style="stroke: #000000"/>
     <use xlink:href="#m9c77ede63d" x="237.4975" y="156.651785" style="stroke: #000000"/>
     <use xlink:href="#m9c77ede63d" x="287.770193" y="142.166333" style="stroke: #000000"/>
     <use xlink:href="#m9c77ede63d" x="354.227079" y="123.221206" style="stroke: #000000"/>
     <use xlink:href="#m9c77ede63d" x="404.499773" y="108.699102" style="stroke: #000000"/>
    </g>
   </g>
   <g id="line2d_49">
    <path d="M 70.495227 121.967213 
L 120.767921 75.81624 
L 150.175561 60.364585 
L 171.040614 52.721302 
L 187.224807 47.747502 
L 200.448255 45.01083 
L 211.628521 41.97823 
L 221.313308 40.02096 
L 229.855895 38.576928 
L 237.4975 36.593164 
L 244.410172 34.748444 
L 250.720948 32.611277 
L 256.526299 31.475384 
L 261.901214 30.738326 
L 266.90514 29.973862 
L 271.586001 29.419848 
L 275.982994 28.890058 
L 280.128589 28.238359 
L 284.049985 27.513036 
L 287.770193 26.692867 
L 291.308855 25.909453 
L 294.682866 25.195832 
L 297.906871 24.676368 
L 300.993641 24.261487 
L 303.954386 23.705415 
L 306.798992 23.131766 
L 309.536229 22.595971 
L 312.173908 22.101061 
L 314.719017 21.642002 
L 317.177834 21.214622 
L 319.55602 20.815453 
L 321.858694 20.441599 
L 324.090506 20.090632 
L 326.255687 19.760504 
L 328.3581 19.449475 
L 330.401282 19.156061 
L 332.388479 18.878982 
L 334.322678 18.617125 
L 336.206633 18.369517 
L 338.042887 18.135297 
L 339.833797 17.913765 
L 341.581548 17.704505 
L 343.288172 17.521997 
L 344.955559 17.348026 
L 346.585474 17.182263 
L 348.179564 17.024412 
L 349.73937 16.874186 
L 351.266335 16.731307 
L 352.761814 16.595503 
L 354.227079 16.461459 
L 355.663328 16.330636 
L 357.071686 16.207363 
L 358.453216 16.091295 
L 359.808922 15.982099 
L 361.139752 15.879456 
L 362.446601 15.783058 
L 363.730319 15.692609 
L 364.99171 15.607823 
L 366.231538 15.528427 
L 367.450527 15.454157 
L 368.649367 15.384759 
L 369.828713 15.319988 
L 370.989188 15.259612 
L 372.131388 15.203403 
L 373.255878 15.151147 
L 374.3632 15.102634 
L 375.453869 15.057686 
L 376.52838 15.016158 
L 377.587205 14.977781 
L 378.630793 14.942382 
L 379.659579 14.909795 
L 380.673975 14.881335 
L 381.67438 14.855433 
L 382.661173 14.831458 
L 383.63472 14.809335 
L 384.595372 14.788988 
L 385.543466 14.770342 
L 386.479326 14.752939 
L 387.403264 14.736901 
L 388.31558 14.722543 
L 389.216563 14.709749 
L 390.10649 14.698411 
L 390.98563 14.688422 
L 391.854241 14.679684 
L 392.712573 14.672098 
L 393.560865 14.665572 
L 394.39935 14.660016 
L 395.228253 14.655344 
L 396.047789 14.651473 
L 396.858168 14.648322 
L 397.659592 14.645812 
L 398.452258 14.643867 
L 399.236354 14.642413 
L 400.012063 14.641377 
L 400.779564 14.640688 
L 401.539028 14.640275 
L 402.290622 14.640069 
L 403.034507 14.64 
L 403.77084 14.64 
L 404.499773 14.64 
" clip-path="url(#p5eaee1219a)" style="fill: none; stroke-dasharray: 1,1.65; stroke-dashoffset: 0; stroke: #000000"/>
    <g clip-path="url(#p5eaee1219a)">
     <use xlink:href="#m9c77ede63d" x="70.495227" y="121.967213" style="stroke: #000000"/>
     <use xlink:href="#m9c77ede63d" x="120.767921" y="75.81624" style="stroke: #000000"/>
     <use xlink:href="#m9c77ede63d" x="187.224807" y="47.747502" style="stroke: #000000"/>
     <use xlink:href="#m9c77ede63d" x="237.4975" y="36.593164" style="stroke: #000000"/>
     <use xlink:href="#m9c77ede63d" x="287.770193" y="26.692867" style="stroke: #000000"/>
     <use xlink:href="#m9c77ede63d" x="354.227079" y="16.461459" style="stroke: #000000"/>
     <use xlink:href="#m9c77ede63d" x="404.499773" y="14.64" style="stroke: #000000"/>
    </g>
   </g>
   <g id="line2d_50">
    <path d="M 70.495227 193.07164 
L 120.767921 136.447557 
L 150.175561 114.438568 
L 171.040614 102.862128 
L 187.224807 95.428696 
L 200.448255 90.122789 
L 211.628521 86.133255 
L 221.313308 83.046631 
L 229.855895 80.611476 
L 237.4975 78.658629 
L 244.410172 77.068267 
L 250.720948 75.753164 
L 256.526299 74.648783 
L 261.901214 73.706829 
L 266.90514 72.890856 
L 271.586001 72.173164 
L 275.982994 71.532585 
L 280.128589 70.952863 
L 284.049985 70.421468 
L 287.770193 69.928708 
L 291.308855 69.467064 
L 294.682866 69.030696 
L 297.906871 68.615052 
L 300.993641 68.216586 
L 303.954386 67.832525 
L 306.798992 67.460703 
L 309.536229 67.099425 
L 312.173908 66.747359 
L 314.719017 66.403462 
L 317.177834 66.066912 
L 319.55602 65.737058 
L 321.858694 65.413385 
L 324.090506 65.095481 
L 326.255687 64.783016 
L 328.3581 64.475721 
L 330.401282 64.173373 
L 332.388479 63.87579 
L 334.322678 63.582815 
L 336.206633 63.294313 
L 338.042887 63.010165 
L 339.833797 62.730265 
L 341.581548 62.454517 
L 343.288172 62.18283 
L 344.955559 61.91512 
L 346.585474 61.651306 
L 348.179564 61.391309 
L 349.73937 61.135055 
L 351.266335 60.882469 
L 352.761814 60.633477 
L 354.227079 60.388008 
L 355.663328 60.145989 
L 357.071686 59.907349 
L 358.453216 59.672017 
L 359.808922 59.439923 
L 361.139752 59.210996 
L 362.446601 58.985164 
L 363.730319 58.762359 
L 364.99171 58.542508 
L 366.231538 58.325542 
L 367.450527 58.11139 
L 368.649367 57.899983 
L 369.828713 57.691249 
L 370.989188 57.485118 
L 372.131388 57.28152 
L 373.255878 57.080384 
L 374.3632 56.881641 
L 375.453869 56.685219 
L 376.52838 56.491049 
L 377.587205 56.29906 
L 378.630793 56.109181 
L 379.659579 55.921343 
L 380.673975 55.735475 
L 381.67438 55.551506 
L 382.661173 55.369367 
L 383.63472 55.188987 
L 384.595372 55.010295 
L 385.543466 54.833222 
L 386.479326 54.657696 
L 387.403264 54.483648 
L 388.31558 54.311007 
L 389.216563 54.139702 
L 390.10649 53.969664 
L 390.98563 53.800823 
L 391.854241 53.633106 
L 392.712573 53.466446 
L 393.560865 53.30077 
L 394.39935 53.136009 
L 395.228253 52.972092 
L 396.047789 52.808949 
L 396.858168 52.646509 
L 397.659592 52.484703 
L 398.452258 52.32346 
L 399.236354 52.162709 
L 400.012063 52.00238 
L 400.779564 51.842404 
L 401.539028 51.682708 
L 402.290622 51.523224 
L 403.034507 51.36388 
L 403.77084 51.204607 
L 404.499773 51.045333 
" clip-path="url(#p5eaee1219a)" style="fill: none; stroke: #555555; stroke-width: 2; stroke-linecap: square"/>
    <defs>
     <path id="mfa7fb32af4" d="M -1.25 1.25 
L 1.25 1.25 
L 1.25 -1.25 
L -1.25 -1.25 
z
" style="stroke: #555555; stroke-linejoin: miter"/>
    </defs>
    <g clip-path="url(#p5eaee1219a)">
     <use xlink:href="#mfa7fb32af4" x="70.495227" y="193.07164" style="fill: #555555; stroke: #555555; stroke-linejoin: miter"/>
     <use xlink:href="#mfa7fb32af4" x="120.767921" y="136.447557" style="fill: #555555; stroke: #555555; stroke-linejoin: miter"/>
     <use xlink:href="#mfa7fb32af4" x="187.224807" y="95.428696" style="fill: #555555; stroke: #555555; stroke-linejoin: miter"/>
     <use xlink:href="#mfa7fb32af4" x="237.4975" y="78.658629" style="fill: #555555; stroke: #555555; stroke-linejoin: miter"/>
     <use xlink:href="#mfa7fb32af4" x="287.770193" y="69.928708" style="fill: #555555; stroke: #555555; stroke-linejoin: miter"/>
     <use xlink:href="#mfa7fb32af4" x="354.227079" y="60.388008" style="fill: #555555; stroke: #555555; stroke-linejoin: miter"/>
     <use xlink:href="#mfa7fb32af4" x="404.499773" y="51.045333" style="fill: #555555; stroke: #555555; stroke-linejoin: miter"/>
    </g>
   </g>
   <g id="line2d_51">
    <path d="M 70.495227 270.053431 
L 120.767921 213.150762 
L 150.175561 186.918499 
L 171.040614 174.659298 
L 187.224807 166.307435 
L 200.448255 160.037426 
L 211.628521 156.37789 
L 221.313308 151.921673 
L 229.855895 149.634187 
L 237.4975 148.381756 
L 244.410172 146.280057 
L 250.720948 144.396026 
L 256.526299 143.80493 
L 261.901214 143.319892 
L 266.90514 142.914921 
L 271.586001 142.570488 
L 275.982994 142.114047 
L 280.128589 141.340773 
L 284.049985 140.57439 
L 287.770193 140.114506 
L 291.308855 139.442135 
L 294.682866 138.786106 
L 297.906871 138.15864 
L 300.993641 137.310438 
L 303.954386 136.358352 
L 306.798992 135.431443 
L 309.536229 134.716833 
L 312.173908 134.00791 
L 314.719017 133.156342 
L 317.177834 132.312082 
L 319.55602 131.478621 
L 321.858694 130.655619 
L 324.090506 129.916572 
L 326.255687 129.727554 
L 328.3581 129.22127 
L 330.401282 128.820888 
L 332.388479 128.495276 
L 334.322678 128.166684 
L 336.206633 127.768069 
L 338.042887 127.062987 
L 339.833797 126.375668 
L 341.581548 125.987921 
L 343.288172 125.438488 
L 344.955559 125.120444 
L 346.585474 124.802409 
L 348.179564 124.484379 
L 349.73937 124.127642 
L 351.266335 123.758888 
L 352.761814 123.390141 
L 354.227079 123.021399 
L 355.663328 122.652661 
L 357.071686 122.283926 
L 358.453216 121.915191 
L 359.808922 121.760567 
L 361.139752 121.636936 
L 362.446601 121.328169 
L 363.730319 121.019402 
L 364.99171 120.710636 
L 366.231538 120.401869 
L 367.450527 120.088593 
L 368.649367 119.768674 
L 369.828713 119.43168 
L 370.989188 118.879646 
L 372.131388 118.425834 
L 373.255878 118.26232 
L 374.3632 118.098807 
L 375.453869 117.83629 
L 376.52838 117.523534 
L 377.587205 117.210778 
L 378.630793 116.898021 
L 379.659579 116.582092 
L 380.673975 116.25919 
L 381.67438 115.936342 
L 382.661173 115.486136 
L 383.63472 114.932962 
L 384.595372 114.381635 
L 385.543466 114.301079 
L 386.479326 114.260965 
L 387.403264 114.038359 
L 388.31558 113.728063 
L 389.216563 113.407736 
L 390.10649 113.087409 
L 390.98563 112.767082 
L 391.854241 112.321163 
L 392.712573 111.8624 
L 393.560865 111.403636 
L 394.39935 110.944873 
L 395.228253 110.607286 
L 396.047789 110.442849 
L 396.858168 110.278413 
L 397.659592 110.113977 
L 398.452258 109.989157 
L 399.236354 109.987647 
L 400.012063 109.986568 
L 400.779564 109.715446 
L 401.539028 109.403829 
L 402.290622 109.168661 
L 403.034507 109.01214 
L 403.77084 108.855621 
L 404.499773 108.699102 
" clip-path="url(#p5eaee1219a)" style="fill: none; stroke-dasharray: 3.7,1.6; stroke-dashoffset: 0; stroke: #555555"/>
    <g clip-path="url(#p5eaee1219a)">
     <use xlink:href="#mfa7fb32af4" x="70.495227" y="270.053431" style="fill: #555555; stroke: #555555; stroke-linejoin: miter"/>
     <use xlink:href="#mfa7fb32af4" x="120.767921" y="213.150762" style="fill: #555555; stroke: #555555; stroke-linejoin: miter"/>
     <use xlink:href="#mfa7fb32af4" x="187.224807" y="166.307435" style="fill: #555555; stroke: #555555; stroke-linejoin: miter"/>
     <use xlink:href="#mfa7fb32af4" x="237.4975" y="148.381756" style="fill: #555555; stroke: #555555; stroke-linejoin: miter"/>
     <use xlink:href="#mfa7fb32af4" x="287.770193" y="140.114506" style="fill: #555555; stroke: #555555; stroke-linejoin: miter"/>
     <use xlink:href="#mfa7fb32af4" x="354.227079" y="123.021399" style="fill: #555555; stroke: #555555; stroke-linejoin: miter"/>
     <use xlink:href="#mfa7fb32af4" x="404.499773" y="108.699102" style="fill: #555555; stroke: #555555; stroke-linejoin: miter"/>
    </g>
   </g>
   <g id="line2d_52">
    <path d="M 70.495227 124.642027 
L 120.767921 73.22699 
L 150.175561 53.756917 
L 171.040614 45.022796 
L 187.224807 39.295855 
L 200.448255 35.620803 
L 211.628521 32.117118 
L 221.313308 30.167489 
L 229.855895 29.535819 
L 237.4975 28.436911 
L 244.410172 27.855571 
L 250.720948 26.350144 
L 256.526299 25.155833 
L 261.901214 24.150608 
L 266.90514 23.338382 
L 271.586001 22.662141 
L 275.982994 22.073431 
L 280.128589 21.605805 
L 284.049985 21.084409 
L 287.770193 20.711648 
L 291.308855 20.473168 
L 294.682866 20.175778 
L 297.906871 19.902143 
L 300.993641 19.651093 
L 303.954386 19.418282 
L 306.798992 19.200295 
L 309.536229 18.994862 
L 312.173908 18.8002 
L 314.719017 18.614911 
L 317.177834 18.437889 
L 319.55602 18.268263 
L 321.858694 18.105342 
L 324.090506 17.948577 
L 326.255687 17.797528 
L 328.3581 17.651841 
L 330.401282 17.511228 
L 332.388479 17.375455 
L 334.322678 17.244325 
L 336.206633 17.117673 
L 338.042887 16.995358 
L 339.833797 16.877255 
L 341.581548 16.763256 
L 343.288172 16.65326 
L 344.955559 16.547177 
L 346.585474 16.44492 
L 348.179564 16.346409 
L 349.73937 16.251567 
L 351.266335 16.160317 
L 352.761814 16.072586 
L 354.227079 15.988303 
L 355.663328 15.907396 
L 357.071686 15.829794 
L 358.453216 15.755428 
L 359.808922 15.684228 
L 361.139752 15.616124 
L 362.446601 15.551048 
L 363.730319 15.48893 
L 364.99171 15.429702 
L 366.231538 15.373295 
L 367.450527 15.319639 
L 368.649367 15.268666 
L 369.828713 15.220307 
L 370.989188 15.174493 
L 372.131388 15.131156 
L 373.255878 15.090226 
L 374.3632 15.051635 
L 375.453869 15.015315 
L 376.52838 14.981195 
L 377.587205 14.949208 
L 378.630793 14.919285 
L 379.659579 14.891356 
L 380.673975 14.865354 
L 381.67438 14.841209 
L 382.661173 14.818852 
L 383.63472 14.798215 
L 384.595372 14.77923 
L 385.543466 14.761826 
L 386.479326 14.745936 
L 387.403264 14.73149 
L 388.31558 14.71842 
L 389.216563 14.706657 
L 390.10649 14.696132 
L 390.98563 14.686777 
L 391.854241 14.678522 
L 392.712573 14.671299 
L 393.560865 14.665039 
L 394.39935 14.659674 
L 395.228253 14.655134 
L 396.047789 14.65135 
L 396.858168 14.648255 
L 397.659592 14.645778 
L 398.452258 14.643852 
L 399.236354 14.642408 
L 400.012063 14.641376 
L 400.779564 14.640688 
L 401.539028 14.640275 
L 402.290622 14.640069 
L 403.034507 14.64 
L 403.77084 14.64 
L 404.499773 14.64 
" clip-path="url(#p5eaee1219a)" style="fill: none; stroke-dasharray: 1,1.65; stroke-dashoffset: 0; stroke: #555555"/>
    <g clip-path="url(#p5eaee1219a)">
     <use xlink:href="#mfa7fb32af4" x="70.495227" y="124.642027" style="fill: #555555; stroke: #555555; stroke-linejoin: miter"/>
     <use xlink:href="#mfa7fb32af4" x="120.767921" y="73.22699" style="fill: #555555; stroke: #555555; stroke-linejoin: miter"/>
     <use xlink:href="#mfa7fb32af4" x="187.224807" y="39.295855" style="fill: #555555; stroke: #555555; stroke-linejoin: miter"/>
     <use xlink:href="#mfa7fb32af4" x="237.4975" y="28.436911" style="fill: #555555; stroke: #555555; stroke-linejoin: miter"/>
     <use xlink:href="#mfa7fb32af4" x="287.770193" y="20.711648" style="fill: #555555; stroke: #555555; stroke-linejoin: miter"/>
     <use xlink:href="#mfa7fb32af4" x="354.227079" y="15.988303" style="fill: #555555; stroke: #555555; stroke-linejoin: miter"/>
     <use xlink:href="#mfa7fb32af4" x="404.499773" y="14.64" style="fill: #555555; stroke: #555555; stroke-linejoin: miter"/>
    </g>
   </g>
   <g id="line2d_53">
    <path d="M 70.495227 125.790033 
L 120.767921 88.275992 
L 150.175561 74.949265 
L 171.040614 67.742357 
L 187.224807 62.906155 
L 200.448255 59.282754 
L 211.628521 56.389545 
L 221.313308 53.981975 
L 229.855895 51.921856 
L 237.4975 50.125836 
L 244.410172 48.540921 
L 250.720948 47.131534 
L 256.526299 45.87235 
L 261.901214 44.744259 
L 266.90514 43.732061 
L 271.586001 42.823146 
L 275.982994 42.006726 
L 280.128589 41.273377 
L 284.049985 40.614753 
L 287.770193 40.023406 
L 291.308855 39.492651 
L 294.682866 39.016474 
L 297.906871 38.589456 
L 300.993641 38.206708 
L 303.954386 37.863821 
L 306.798992 37.556814 
L 309.536229 37.282096 
L 312.173908 37.036427 
L 314.719017 36.816881 
L 317.177834 36.620822 
L 319.55602 36.445868 
L 321.858694 36.289875 
L 324.090506 36.150905 
L 326.255687 36.027213 
L 328.3581 35.917226 
L 330.401282 35.819525 
L 332.388479 35.73283 
L 334.322678 35.655992 
L 336.206633 35.58797 
L 338.042887 35.527832 
L 339.833797 35.474735 
L 341.581548 35.427922 
L 343.288172 35.386712 
L 344.955559 35.350492 
L 346.585474 35.318711 
L 348.179564 35.290876 
L 349.73937 35.266541 
L 351.266335 35.245309 
L 352.761814 35.226822 
L 354.227079 35.210761 
L 355.663328 35.19684 
L 357.071686 35.184803 
L 358.453216 35.174422 
L 359.808922 35.165493 
L 361.139752 35.157835 
L 362.446601 35.151287 
L 363.730319 35.145705 
L 364.99171 35.140964 
L 366.231538 35.136951 
L 367.450527 35.133567 
L 368.649367 35.130724 
L 369.828713 35.128346 
L 370.989188 35.126367 
L 372.131388 35.124726 
L 373.255878 35.123374 
L 374.3632 35.122265 
L 375.453869 35.12136 
L 376.52838 35.120628 
L 377.587205 35.120038 
L 378.630793 35.119567 
L 379.659579 35.119193 
L 380.673975 35.118899 
L 381.67438 35.11867 
L 382.661173 35.118494 
L 383.63472 35.118359 
L 384.595372 35.118257 
L 385.543466 35.118181 
L 386.479326 35.118125 
L 387.403264 35.118085 
L 388.31558 35.118057 
L 389.216563 35.118037 
L 390.10649 35.118023 
L 390.98563 35.118014 
L 391.854241 35.118008 
L 392.712573 35.118005 
L 393.560865 35.118002 
L 394.39935 35.118001 
L 395.228253 35.118001 
L 396.047789 35.118 
L 396.858168 35.118 
L 397.659592 35.118 
L 398.452258 35.118 
L 399.236354 35.118 
L 400.012063 35.118 
L 400.779564 35.118 
L 401.539028 35.118 
L 402.290622 35.118 
L 403.034507 35.118 
L 403.77084 35.118 
L 404.499773 35.118 
" clip-path="url(#p5eaee1219a)" style="fill: none; stroke: #aaaaaa; stroke-width: 2; stroke-linecap: square"/>
    <defs>
     <path id="m03936639d6" d="M 0 1.767767 
L 1.767767 0 
L 0 -1.767767 
L -1.767767 0 
z
" style="stroke: #aaaaaa; stroke-linejoin: miter"/>
    </defs>
    <g clip-path="url(#p5eaee1219a)">
     <use xlink:href="#m03936639d6" x="70.495227" y="125.790033" style="fill: #aaaaaa; stroke: #aaaaaa; stroke-linejoin: miter"/>
     <use xlink:href="#m03936639d6" x="120.767921" y="88.275992" style="fill: #aaaaaa; stroke: #aaaaaa; stroke-linejoin: miter"/>
     <use xlink:href="#m03936639d6" x="187.224807" y="62.906155" style="fill: #aaaaaa; stroke: #aaaaaa; stroke-linejoin: miter"/>
     <use xlink:href="#m03936639d6" x="237.4975" y="50.125836" style="fill: #aaaaaa; stroke: #aaaaaa; stroke-linejoin: miter"/>
     <use xlink:href="#m03936639d6" x="287.770193" y="40.023406" style="fill: #aaaaaa; stroke: #aaaaaa; stroke-linejoin: miter"/>
     <use xlink:href="#m03936639d6" x="354.227079" y="35.210761" style="fill: #aaaaaa; stroke: #aaaaaa; stroke-linejoin: miter"/>
     <use xlink:href="#m03936639d6" x="404.499773" y="35.118" style="fill: #aaaaaa; stroke: #aaaaaa; stroke-linejoin: miter"/>
    </g>
   </g>
   <g id="line2d_54">
    <path d="M 70.495227 195.109877 
L 120.767921 153.619199 
L 150.175561 135.302873 
L 171.040614 127.036439 
L 187.224807 120.113998 
L 200.448255 114.121999 
L 211.628521 110.382253 
L 221.313308 107.208025 
L 229.855895 103.84114 
L 237.4975 101.348842 
L 244.410172 98.530147 
L 250.720948 96.372029 
L 256.526299 94.840043 
L 261.901214 93.469446 
L 266.90514 92.244223 
L 271.586001 91.149863 
L 275.982994 90.173225 
L 280.128589 89.302417 
L 284.049985 88.494269 
L 287.770193 87.705509 
L 291.308855 87.001068 
L 294.682866 86.126321 
L 297.906871 85.348121 
L 300.993641 85.065914 
L 303.954386 84.617416 
L 306.798992 84.201967 
L 309.536229 84.025029 
L 312.173908 83.771435 
L 314.719017 83.300508 
L 317.177834 82.882966 
L 319.55602 82.710366 
L 321.858694 82.688078 
L 324.090506 82.669436 
L 326.255687 82.628695 
L 328.3581 82.501998 
L 330.401282 82.39017 
L 332.388479 82.343452 
L 334.322678 82.338122 
L 336.206633 82.333823 
L 338.042887 82.33037 
L 339.833797 82.327608 
L 341.581548 82.325407 
L 343.288172 82.323662 
L 344.955559 82.322284 
L 346.585474 82.321201 
L 348.179564 82.320355 
L 349.73937 82.319697 
L 351.266335 82.319187 
L 352.761814 82.318796 
L 354.227079 82.318496 
L 355.663328 82.318268 
L 357.071686 82.318096 
L 358.453216 82.317967 
L 359.808922 82.317871 
L 361.139752 82.3178 
L 362.446601 82.317748 
L 363.730319 82.317711 
L 364.99171 82.317683 
L 366.231538 82.317664 
L 367.450527 82.31765 
L 368.649367 82.31764 
L 369.828713 82.317634 
L 370.989188 82.317629 
L 372.131388 82.317626 
L 373.255878 82.317624 
L 374.3632 82.317623 
L 375.453869 82.317622 
L 376.52838 82.317621 
L 377.587205 82.317621 
L 378.630793 82.317621 
L 379.659579 82.31762 
L 380.673975 82.31762 
L 381.67438 82.31762 
L 382.661173 82.31762 
L 383.63472 82.31762 
L 384.595372 82.31762 
L 385.543466 82.31762 
L 386.479326 82.31762 
L 387.403264 82.31762 
L 388.31558 82.31762 
L 389.216563 82.31762 
L 390.10649 82.31762 
L 390.98563 82.31762 
L 391.854241 82.31762 
L 392.712573 82.31762 
L 393.560865 82.31762 
L 394.39935 82.31762 
L 395.228253 82.31762 
L 396.047789 82.31762 
L 396.858168 82.31762 
L 397.659592 82.31762 
L 398.452258 82.31762 
L 399.236354 82.31762 
L 400.012063 82.31762 
L 400.779564 82.31762 
L 401.539028 82.31762 
L 402.290622 82.31762 
L 403.034507 82.31762 
L 403.77084 82.31762 
L 404.499773 82.31762 
" clip-path="url(#p5eaee1219a)" style="fill: none; stroke-dasharray: 3.7,1.6; stroke-dashoffset: 0; stroke: #aaaaaa"/>
    <g clip-path="url(#p5eaee1219a)">
     <use xlink:href="#m03936639d6" x="70.495227" y="195.109877" style="fill: #aaaaaa; stroke: #aaaaaa; stroke-linejoin: miter"/>
     <use xlink:href="#m03936639d6" x="120.767921" y="153.619199" style="fill: #aaaaaa; stroke: #aaaaaa; stroke-linejoin: miter"/>
     <use xlink:href="#m03936639d6" x="187.224807" y="120.113998" style="fill: #aaaaaa; stroke: #aaaaaa; stroke-linejoin: miter"/>
     <use xlink:href="#m03936639d6" x="237.4975" y="101.348842" style="fill: #aaaaaa; stroke: #aaaaaa; stroke-linejoin: miter"/>
     <use xlink:href="#m03936639d6" x="287.770193" y="87.705509" style="fill: #aaaaaa; stroke: #aaaaaa; stroke-linejoin: miter"/>
     <use xlink:href="#m03936639d6" x="354.227079" y="82.318496" style="fill: #aaaaaa; stroke: #aaaaaa; stroke-linejoin: miter"/>
     <use xlink:href="#m03936639d6" x="404.499773" y="82.31762" style="fill: #aaaaaa; stroke: #aaaaaa; stroke-linejoin: miter"/>
    </g>
   </g>
   <g id="line2d_55">
    <path d="M 70.495227 67.974691 
L 120.767921 39.590177 
L 150.175561 29.345391 
L 171.040614 25.501672 
L 187.224807 23.279785 
L 200.448255 22.1994 
L 211.628521 20.974496 
L 221.313308 19.90982 
L 229.855895 19.024535 
L 237.4975 18.335296 
L 244.410172 17.767896 
L 250.720948 17.293379 
L 256.526299 16.887798 
L 261.901214 16.542957 
L 266.90514 16.250638 
L 271.586001 16.001905 
L 275.982994 15.789911 
L 280.128589 15.609189 
L 284.049985 15.45523 
L 287.770193 15.32424 
L 291.308855 15.212978 
L 294.682866 15.118655 
L 297.906871 15.038863 
L 300.993641 14.971515 
L 303.954386 14.914805 
L 306.798992 14.86717 
L 309.536229 14.827261 
L 312.173908 14.793913 
L 314.719017 14.766123 
L 317.177834 14.74303 
L 319.55602 14.723896 
L 321.858694 14.708089 
L 324.090506 14.695072 
L 326.255687 14.684387 
L 328.3581 14.675644 
L 330.401282 14.668515 
L 332.388479 14.662723 
L 334.322678 14.658034 
L 336.206633 14.654253 
L 338.042887 14.651215 
L 339.833797 14.648785 
L 341.581548 14.64685 
L 343.288172 14.645314 
L 344.955559 14.644102 
L 346.585474 14.64315 
L 348.179564 14.642405 
L 349.73937 14.641826 
L 351.266335 14.641378 
L 352.761814 14.641034 
L 354.227079 14.64077 
L 355.663328 14.64057 
L 357.071686 14.640419 
L 358.453216 14.640305 
L 359.808922 14.640221 
L 361.139752 14.640158 
L 362.446601 14.640113 
L 363.730319 14.640079 
L 364.99171 14.640055 
L 366.231538 14.640038 
L 367.450527 14.640026 
L 368.649367 14.640018 
L 369.828713 14.640012 
L 370.989188 14.640008 
L 372.131388 14.640005 
L 373.255878 14.640003 
L 374.3632 14.640002 
L 375.453869 14.640001 
L 376.52838 14.640001 
L 377.587205 14.64 
L 378.630793 14.64 
L 379.659579 14.64 
L 380.673975 14.64 
L 381.67438 14.64 
L 382.661173 14.64 
L 383.63472 14.64 
L 384.595372 14.64 
L 385.543466 14.64 
L 386.479326 14.64 
L 387.403264 14.64 
L 388.31558 14.64 
L 389.216563 14.64 
L 390.10649 14.64 
L 390.98563 14.64 
L 391.854241 14.64 
L 392.712573 14.64 
L 393.560865 14.64 
L 394.39935 14.64 
L 395.228253 14.64 
L 396.047789 14.64 
L 396.858168 14.64 
L 397.659592 14.64 
L 398.452258 14.64 
L 399.236354 14.64 
L 400.012063 14.64 
L 400.779564 14.64 
L 401.539028 14.64 
L 402.290622 14.64 
L 403.034507 14.64 
L 403.77084 14.64 
L 404.499773 14.64 
" clip-path="url(#p5eaee1219a)" style="fill: none; stroke-dasharray: 1,1.65; stroke-dashoffset: 0; stroke: #aaaaaa"/>
    <g clip-path="url(#p5eaee1219a)">
     <use xlink:href="#m03936639d6" x="70.495227" y="67.974691" style="fill: #aaaaaa; stroke: #aaaaaa; stroke-linejoin: miter"/>
     <use xlink:href="#m03936639d6" x="120.767921" y="39.590177" style="fill: #aaaaaa; stroke: #aaaaaa; stroke-linejoin: miter"/>
     <use xlink:href="#m03936639d6" x="187.224807" y="23.279785" style="fill: #aaaaaa; stroke: #aaaaaa; stroke-linejoin: miter"/>
     <use xlink:href="#m03936639d6" x="237.4975" y="18.335296" style="fill: #aaaaaa; stroke: #aaaaaa; stroke-linejoin: miter"/>
     <use xlink:href="#m03936639d6" x="287.770193" y="15.32424" style="fill: #aaaaaa; stroke: #aaaaaa; stroke-linejoin: miter"/>
     <use xlink:href="#m03936639d6" x="354.227079" y="14.64077" style="fill: #aaaaaa; stroke: #aaaaaa; stroke-linejoin: miter"/>
     <use xlink:href="#m03936639d6" x="404.499773" y="14.64" style="fill: #aaaaaa; stroke: #aaaaaa; stroke-linejoin: miter"/>
    </g>
   </g>
   <g id="patch_3">
    <path d="M 53.795 246.724 
L 53.795 14.64 
" style="fill: none; stroke: #000000; stroke-width: 0.8; stroke-linejoin: miter; stroke-linecap: square"/>
   </g>
   <g id="patch_4">
    <path d="M 421.2 246.724 
L 421.2 14.64 
" style="fill: none; stroke: #000000; stroke-width: 0.8; stroke-linejoin: miter; stroke-linecap: square"/>
   </g>
   <g id="patch_5">
    <path d="M 53.795 246.724 
L 421.2 246.724 
" style="fill: none; stroke: #000000; stroke-width: 0.8; stroke-linejoin: miter; stroke-linecap: square"/>
   </g>
   <g id="patch_6">
    <path d="M 53.795 14.64 
L 421.2 14.64 
" style="fill: none; stroke: #000000; stroke-width: 0.8; stroke-linejoin: miter; stroke-linecap: square"/>
   </g>
   <g id="legend_1">
    <g id="patch_7">
     <path d="M 336.259375 241.724 
L 414.2 241.724 
Q 416.2 241.724 416.2 239.724 
L 416.2 167.333375 
Q 416.2 165.333375 414.2 165.333375 
L 336.259375 165.333375 
Q 334.259375 165.333375 334.259375 167.333375 
L 334.259375 239.724 
Q 334.259375 241.724 336.259375 241.724 
z
" style="fill: #ffffff; opacity: 0.8; stroke: #cccccc; stroke-linejoin: miter"/>
    </g>
    <g id="line2d_56">
     <path d="M 338.259375 173.431813 
L 348.259375 173.431813 
L 358.259375 173.431813 
" style="fill: none; stroke-dasharray: 3.7,1.6; stroke-dashoffset: 0; stroke: #000000"/>
    </g>
    <g id="text_15">
     <!-- CI lower -->
     <g transform="translate(366.259375 176.931813) scale(0.1 -0.1)">
      <defs>
       <path id="DejaVuSans-43" d="M 4122 4306 
L 4122 3641 
Q 3803 3938 3442 4084 
Q 3081 4231 2675 4231 
Q 1875 4231 1450 3742 
Q 1025 3253 1025 2328 
Q 1025 1406 1450 917 
Q 1875 428 2675 428 
Q 3081 428 3442 575 
Q 3803 722 4122 1019 
L 4122 359 
Q 3791 134 3420 21 
Q 3050 -91 2638 -91 
Q 1578 -91 968 557 
Q 359 1206 359 2328 
Q 359 3453 968 4101 
Q 1578 4750 2638 4750 
Q 3056 4750 3426 4639 
Q 3797 4528 4122 4306 
z
" transform="scale(0.015625)"/>
       <path id="DejaVuSans-49" d="M 628 4666 
L 1259 4666 
L 1259 0 
L 628 0 
L 628 4666 
z
" transform="scale(0.015625)"/>
       <path id="DejaVuSans-20" transform="scale(0.015625)"/>
       <path id="DejaVuSans-6c" d="M 603 4863 
L 1178 4863 
L 1178 0 
L 603 0 
L 603 4863 
z
" transform="scale(0.015625)"/>
       <path id="DejaVuSans-6f" d="M 1959 3097 
Q 1497 3097 1228 2736 
Q 959 2375 959 1747 
Q 959 1119 1226 758 
Q 1494 397 1959 397 
Q 2419 397 2687 759 
Q 2956 1122 2956 1747 
Q 2956 2369 2687 2733 
Q 2419 3097 1959 3097 
z
M 1959 3584 
Q 2709 3584 3137 3096 
Q 3566 2609 3566 1747 
Q 3566 888 3137 398 
Q 2709 -91 1959 -91 
Q 1206 -91 779 398 
Q 353 888 353 1747 
Q 353 2609 779 3096 
Q 1206 3584 1959 3584 
z
" transform="scale(0.015625)"/>
       <path id="DejaVuSans-77" d="M 269 3500 
L 844 3500 
L 1563 769 
L 2278 3500 
L 2956 3500 
L 3675 769 
L 4391 3500 
L 4966 3500 
L 4050 0 
L 3372 0 
L 2619 2869 
L 1863 0 
L 1184 0 
L 269 3500 
z
" transform="scale(0.015625)"/>
       <path id="DejaVuSans-65" d="M 3597 1894 
L 3597 1613 
L 953 1613 
Q 991 1019 1311 708 
Q 1631 397 2203 397 
Q 2534 397 2845 478 
Q 3156 559 3463 722 
L 3463 178 
Q 3153 47 2828 -22 
Q 2503 -91 2169 -91 
Q 1331 -91 842 396 
Q 353 884 353 1716 
Q 353 2575 817 3079 
Q 1281 3584 2069 3584 
Q 2775 3584 3186 3129 
Q 3597 2675 3597 1894 
z
M 3022 2063 
Q 3016 2534 2758 2815 
Q 2500 3097 2075 3097 
Q 1594 3097 1305 2825 
Q 1016 2553 972 2059 
L 3022 2063 
z
" transform="scale(0.015625)"/>
       <path id="DejaVuSans-72" d="M 2631 2963 
Q 2534 3019 2420 3045 
Q 2306 3072 2169 3072 
Q 1681 3072 1420 2755 
Q 1159 2438 1159 1844 
L 1159 0 
L 581 0 
L 581 3500 
L 1159 3500 
L 1159 2956 
Q 1341 3275 1631 3429 
Q 1922 3584 2338 3584 
Q 2397 3584 2469 3576 
Q 2541 3569 2628 3553 
L 2631 2963 
z
" transform="scale(0.015625)"/>
      </defs>
      <use xlink:href="#DejaVuSans-43"/>
      <use xlink:href="#DejaVuSans-49" x="69.824219"/>
      <use xlink:href="#DejaVuSans-20" x="99.316406"/>
      <use xlink:href="#DejaVuSans-6c" x="131.103516"/>
      <use xlink:href="#DejaVuSans-6f" x="158.886719"/>
      <use xlink:href="#DejaVuSans-77" x="220.068359"/>
      <use xlink:href="#DejaVuSans-65" x="301.855469"/>
      <use xlink:href="#DejaVuSans-72" x="363.378906"/>
     </g>
    </g>
    <g id="line2d_57">
     <path d="M 338.259375 188.109938 
L 348.259375 188.109938 
L 358.259375 188.109938 
" style="fill: none; stroke-dasharray: 1,1.65; stroke-dashoffset: 0; stroke: #000000"/>
    </g>
    <g id="text_16">
     <!-- CI upper -->
     <g transform="translate(366.259375 191.609938) scale(0.1 -0.1)">
      <defs>
       <path id="DejaVuSans-75" d="M 544 1381 
L 544 3500 
L 1119 3500 
L 1119 1403 
Q 1119 906 1312 657 
Q 1506 409 1894 409 
Q 2359 409 2629 706 
Q 2900 1003 2900 1516 
L 2900 3500 
L 3475 3500 
L 3475 0 
L 2900 0 
L 2900 538 
Q 2691 219 2414 64 
Q 2138 -91 1772 -91 
Q 1169 -91 856 284 
Q 544 659 544 1381 
z
M 1991 3584 
L 1991 3584 
z
" transform="scale(0.015625)"/>
      </defs>
      <use xlink:href="#DejaVuSans-43"/>
      <use xlink:href="#DejaVuSans-49" x="69.824219"/>
      <use xlink:href="#DejaVuSans-20" x="99.316406"/>
      <use xlink:href="#DejaVuSans-75" x="131.103516"/>
      <use xlink:href="#DejaVuSans-70" x="194.482422"/>
      <use xlink:href="#DejaVuSans-70" x="257.958984"/>
      <use xlink:href="#DejaVuSans-65" x="321.435547"/>
      <use xlink:href="#DejaVuSans-72" x="382.958984"/>
     </g>
    </g>
    <g id="line2d_58">
     <path d="M 338.259375 202.788063 
L 348.259375 202.788063 
L 358.259375 202.788063 
" style="fill: none; stroke: #000000; stroke-width: 2; stroke-linecap: square"/>
     <g>
      <use xlink:href="#m9c77ede63d" x="348.259375" y="202.788063" style="stroke: #000000"/>
     </g>
    </g>
    <g id="text_17">
     <!-- baseline -->
     <g transform="translate(366.259375 206.288063) scale(0.1 -0.1)">
      <defs>
       <path id="DejaVuSans-62" d="M 3116 1747 
Q 3116 2381 2855 2742 
Q 2594 3103 2138 3103 
Q 1681 3103 1420 2742 
Q 1159 2381 1159 1747 
Q 1159 1113 1420 752 
Q 1681 391 2138 391 
Q 2594 391 2855 752 
Q 3116 1113 3116 1747 
z
M 1159 2969 
Q 1341 3281 1617 3432 
Q 1894 3584 2278 3584 
Q 2916 3584 3314 3078 
Q 3713 2572 3713 1747 
Q 3713 922 3314 415 
Q 2916 -91 2278 -91 
Q 1894 -91 1617 61 
Q 1341 213 1159 525 
L 1159 0 
L 581 0 
L 581 4863 
L 1159 4863 
L 1159 2969 
z
" transform="scale(0.015625)"/>
       <path id="DejaVuSans-69" d="M 603 3500 
L 1178 3500 
L 1178 0 
L 603 0 
L 603 3500 
z
M 603 4863 
L 1178 4863 
L 1178 4134 
L 603 4134 
L 603 4863 
z
" transform="scale(0.015625)"/>
       <path id="DejaVuSans-6e" d="M 3513 2113 
L 3513 0 
L 2938 0 
L 2938 2094 
Q 2938 2591 2744 2837 
Q 2550 3084 2163 3084 
Q 1697 3084 1428 2787 
Q 1159 2491 1159 1978 
L 1159 0 
L 581 0 
L 581 3500 
L 1159 3500 
L 1159 2956 
Q 1366 3272 1645 3428 
Q 1925 3584 2291 3584 
Q 2894 3584 3203 3211 
Q 3513 2838 3513 2113 
z
" transform="scale(0.015625)"/>
      </defs>
      <use xlink:href="#DejaVuSans-62"/>
      <use xlink:href="#DejaVuSans-61" x="63.476562"/>
      <use xlink:href="#DejaVuSans-73" x="124.755859"/>
      <use xlink:href="#DejaVuSans-65" x="176.855469"/>
      <use xlink:href="#DejaVuSans-6c" x="238.378906"/>
      <use xlink:href="#DejaVuSans-69" x="266.162109"/>
      <use xlink:href="#DejaVuSans-6e" x="293.945312"/>
      <use xlink:href="#DejaVuSans-65" x="357.324219"/>
     </g>
    </g>
    <g id="line2d_59">
     <path d="M 338.259375 217.466188 
L 348.259375 217.466188 
L 358.259375 217.466188 
" style="fill: none; stroke: #555555; stroke-width: 2; stroke-linecap: square"/>
     <g>
      <use xlink:href="#mfa7fb32af4" x="348.259375" y="217.466188" style="fill: #555555; stroke: #555555; stroke-linejoin: miter"/>
     </g>
    </g>
    <g id="text_18">
     <!-- CoT -->
     <g transform="translate(366.259375 220.966188) scale(0.1 -0.1)">
      <defs>
       <path id="DejaVuSans-54" d="M -19 4666 
L 3928 4666 
L 3928 4134 
L 2272 4134 
L 2272 0 
L 1638 0 
L 1638 4134 
L -19 4134 
L -19 4666 
z
" transform="scale(0.015625)"/>
      </defs>
      <use xlink:href="#DejaVuSans-43"/>
      <use xlink:href="#DejaVuSans-6f" x="69.824219"/>
      <use xlink:href="#DejaVuSans-54" x="131.005859"/>
     </g>
    </g>
    <g id="line2d_60">
     <path d="M 338.259375 232.144313 
L 348.259375 232.144313 
L 358.259375 232.144313 
" style="fill: none; stroke: #aaaaaa; stroke-width: 2; stroke-linecap: square"/>
     <g>
      <use xlink:href="#m03936639d6" x="348.259375" y="232.144313" style="fill: #aaaaaa; stroke: #aaaaaa; stroke-linejoin: miter"/>
     </g>
    </g>
    <g id="text_19">
     <!-- feedback -->
     <g transform="translate(366.259375 235.644313) scale(0.1 -0.1)">
      <defs>
       <path id="DejaVuSans-66" d="M 2375 4863 
L 2375 4384 
L 1825 4384 
Q 1516 4384 1395 4259 
Q 1275 4134 1275 3809 
L 1275 3500 
L 2222 3500 
L 2222 3053 
L 1275 3053 
L 1275 0 
L 697 0 
L 697 3053 
L 147 3053 
L 147 3500 
L 697 3500 
L 697 3744 
Q 697 4328 969 4595 
Q 1241 4863 1831 4863 
L 2375 4863 
z
" transform="scale(0.015625)"/>
       <path id="DejaVuSans-64" d="M 2906 2969 
L 2906 4863 
L 3481 4863 
L 3481 0 
L 2906 0 
L 2906 525 
Q 2725 213 2448 61 
Q 2172 -91 1784 -91 
Q 1150 -91 751 415 
Q 353 922 353 1747 
Q 353 2572 751 3078 
Q 1150 3584 1784 3584 
Q 2172 3584 2448 3432 
Q 2725 3281 2906 2969 
z
M 947 1747 
Q 947 1113 1208 752 
Q 1469 391 1925 391 
Q 2381 391 2643 752 
Q 2906 1113 2906 1747 
Q 2906 2381 2643 2742 
Q 2381 3103 1925 3103 
Q 1469 3103 1208 2742 
Q 947 2381 947 1747 
z
" transform="scale(0.015625)"/>
       <path id="DejaVuSans-63" d="M 3122 3366 
L 3122 2828 
Q 2878 2963 2633 3030 
Q 2388 3097 2138 3097 
Q 1578 3097 1268 2742 
Q 959 2388 959 1747 
Q 959 1106 1268 751 
Q 1578 397 2138 397 
Q 2388 397 2633 464 
Q 2878 531 3122 666 
L 3122 134 
Q 2881 22 2623 -34 
Q 2366 -91 2075 -91 
Q 1284 -91 818 406 
Q 353 903 353 1747 
Q 353 2603 823 3093 
Q 1294 3584 2113 3584 
Q 2378 3584 2631 3529 
Q 2884 3475 3122 3366 
z
" transform="scale(0.015625)"/>
      </defs>
      <use xlink:href="#DejaVuSans-66"/>
      <use xlink:href="#DejaVuSans-65" x="35.205078"/>
      <use xlink:href="#DejaVuSans-65" x="96.728516"/>
      <use xlink:href="#DejaVuSans-64" x="158.251953"/>
      <use xlink:href="#DejaVuSans-62" x="221.728516"/>
      <use xlink:href="#DejaVuSans-61" x="285.205078"/>
      <use xlink:href="#DejaVuSans-63" x="346.484375"/>
      <use xlink:href="#DejaVuSans-6b" x="401.464844"/>
     </g>
    </g>
   </g>
  </g>
 </g>
 <defs>
  <clipPath id="p5eaee1219a">
   <rect x="53.795" y="14.64" width="367.405" height="232.084"/>
  </clipPath>
 </defs>
</svg>
