<?xml version="1.0" encoding="utf-8" standalone="no"?>
<!DOCTYPE svg PUBLIC "-//W3C//DTD SVG 1.1//EN"
  "http://www.w3.org/Graphics/SVG/1.1/DTD/svg11.dtd">
<svg xmlns:xlink="http://www.w3.org/1999/xlink" width="432pt" height="288pt" viewBox="0 0 432 288" xmlns="http://www.w3.org/2000/svg" version="1.1">
 <metadata>
  <rdf:RDF xmlns:dc="http://purl.org/dc/elements/1.1/" xmlns:cc="http://creativecommons.org/ns#" xmlns:rdf="http://www.w3.org/1999/02/22-rdf-syntax-ns#">
   <cc:Work>
    <dc:type rdf:resource="http://purl.org/dc/dcmitype/StillImage"/>
    <dc:date>2026-01-08T16:27:13.948006</dc:date>
    <dc:format>image/svg+xml</dc:format>
    <dc:creator>
     <cc:Agent>
      <dc:title>Matplotlib v3.9.0, https://matplotlib.org/</dc:title>
     </cc:Agent>
    </dc:creator>
   </cc:Work>
  </rdf:RDF>
 </metadata>
 <defs>
  <style type="text/css">*{stroke-linejoin: round; stroke-linecap: butt}</style>
 </defs>
 <g id="figure_1">
  <g id="patch_1">
   <path d="M 0 288 
L 432 288 
L 432 0 
L 0 0 
z
" style="fill: #ffffff"/>
  </g>
  <g id="axes_1">
   <g id="patch_2">
    <path d="M 53.795 246.724 
L 421.2 246.724 
L 421.2 14.64 
L 53.795 14.64 
z
" style="fill: #ffffff"/>
   </g>
   <g id="matplotlib.axis_1">
    <g id="xtick_1">
     <g id="line2d_1">
      <path d="M 70.495227 246.724 
L 70.495227 14.64 
" clip-path="url(#pd1482b28cf)" style="fill: none; stroke-dasharray: 0.5,0.825; stroke-dashoffset: 0; stroke: #b0b0b0; stroke-opacity: 0.7; stroke-width: 0.5"/>
     </g>
     <g id="line2d_2">
      <defs>
       <path id="mb950ed1e9b" d="M 0 0 
L 0 3.5 
" style="stroke: #000000; stroke-width: 0.8"/>
      </defs>
      <g>
       <use xlink:href="#mb950ed1e9b" x="70.495227" y="246.724" style="stroke: #000000; stroke-width: 0.8"/>
      </g>
     </g>
     <g id="text_1">
      <!-- $\mathdefault{10^{0}}$ -->
      <g transform="translate(61.695227 261.322437) scale(0.1 -0.1)">
       <defs>
        <path id="DejaVuSans-31" d="M 794 531 
L 1825 531 
L 1825 4091 
L 703 3866 
L 703 4441 
L 1819 4666 
L 2450 4666 
L 2450 531 
L 3481 531 
L 3481 0 
L 794 0 
L 794 531 
z
" transform="scale(0.015625)"/>
        <path id="DejaVuSans-30" d="M 2034 4250 
Q 1547 4250 1301 3770 
Q 1056 3291 1056 2328 
Q 1056 1369 1301 889 
Q 1547 409 2034 409 
Q 2525 409 2770 889 
Q 3016 1369 3016 2328 
Q 3016 3291 2770 3770 
Q 2525 4250 2034 4250 
z
M 2034 4750 
Q 2819 4750 3233 4129 
Q 3647 3509 3647 2328 
Q 3647 1150 3233 529 
Q 2819 -91 2034 -91 
Q 1250 -91 836 529 
Q 422 1150 422 2328 
Q 422 3509 836 4129 
Q 1250 4750 2034 4750 
z
" transform="scale(0.015625)"/>
       </defs>
       <use xlink:href="#DejaVuSans-31" transform="translate(0 0.765625)"/>
       <use xlink:href="#DejaVuSans-30" transform="translate(63.623047 0.765625)"/>
       <use xlink:href="#DejaVuSans-30" transform="translate(128.203125 39.046875) scale(0.7)"/>
      </g>
     </g>
    </g>
    <g id="xtick_2">
     <g id="line2d_3">
      <path d="M 120.767921 246.724 
L 120.767921 14.64 
" clip-path="url(#pd1482b28cf)" style="fill: none; stroke-dasharray: 0.5,0.825; stroke-dashoffset: 0; stroke: #b0b0b0; stroke-opacity: 0.7; stroke-width: 0.5"/>
     </g>
     <g id="line2d_4">
      <g>
       <use xlink:href="#mb950ed1e9b" x="120.767921" y="246.724" style="stroke: #000000; stroke-width: 0.8"/>
      </g>
     </g>
    </g>
    <g id="xtick_3">
     <g id="line2d_5">
      <path d="M 187.224807 246.724 
L 187.224807 14.64 
" clip-path="url(#pd1482b28cf)" style="fill: none; stroke-dasharray: 0.5,0.825; stroke-dashoffset: 0; stroke: #b0b0b0; stroke-opacity: 0.7; stroke-width: 0.5"/>
     </g>
     <g id="line2d_6">
      <g>
       <use xlink:href="#mb950ed1e9b" x="187.224807" y="246.724" style="stroke: #000000; stroke-width: 0.8"/>
      </g>
     </g>
    </g>
    <g id="xtick_4">
     <g id="line2d_7">
      <path d="M 237.4975 246.724 
L 237.4975 14.64 
" clip-path="url(#pd1482b28cf)" style="fill: none; stroke-dasharray: 0.5,0.825; stroke-dashoffset: 0; stroke: #b0b0b0; stroke-opacity: 0.7; stroke-width: 0.5"/>
     </g>
     <g id="line2d_8">
      <g>
       <use xlink:href="#mb950ed1e9b" x="237.4975" y="246.724" style="stroke: #000000; stroke-width: 0.8"/>
      </g>
     </g>
     <g id="text_2">
      <!-- $\mathdefault{10^{1}}$ -->
      <g transform="translate(228.6975 261.322437) scale(0.1 -0.1)">
       <use xlink:href="#DejaVuSans-31" transform="translate(0 0.684375)"/>
       <use xlink:href="#DejaVuSans-30" transform="translate(63.623047 0.684375)"/>
       <use xlink:href="#DejaVuSans-31" transform="translate(128.203125 38.965625) scale(0.7)"/>
      </g>
     </g>
    </g>
    <g id="xtick_5">
     <g id="line2d_9">
      <path d="M 287.770193 246.724 
L 287.770193 14.64 
" clip-path="url(#pd1482b28cf)" style="fill: none; stroke-dasharray: 0.5,0.825; stroke-dashoffset: 0; stroke: #b0b0b0; stroke-opacity: 0.7; stroke-width: 0.5"/>
     </g>
     <g id="line2d_10">
      <g>
       <use xlink:href="#mb950ed1e9b" x="287.770193" y="246.724" style="stroke: #000000; stroke-width: 0.8"/>
      </g>
     </g>
    </g>
    <g id="xtick_6">
     <g id="line2d_11">
      <path d="M 354.227079 246.724 
L 354.227079 14.64 
" clip-path="url(#pd1482b28cf)" style="fill: none; stroke-dasharray: 0.5,0.825; stroke-dashoffset: 0; stroke: #b0b0b0; stroke-opacity: 0.7; stroke-width: 0.5"/>
     </g>
     <g id="line2d_12">
      <g>
       <use xlink:href="#mb950ed1e9b" x="354.227079" y="246.724" style="stroke: #000000; stroke-width: 0.8"/>
      </g>
     </g>
    </g>
    <g id="xtick_7">
     <g id="line2d_13">
      <path d="M 404.499773 246.724 
L 404.499773 14.64 
" clip-path="url(#pd1482b28cf)" style="fill: none; stroke-dasharray: 0.5,0.825; stroke-dashoffset: 0; stroke: #b0b0b0; stroke-opacity: 0.7; stroke-width: 0.5"/>
     </g>
     <g id="line2d_14">
      <g>
       <use xlink:href="#mb950ed1e9b" x="404.499773" y="246.724" style="stroke: #000000; stroke-width: 0.8"/>
      </g>
     </g>
     <g id="text_3">
      <!-- $\mathdefault{10^{2}}$ -->
      <g transform="translate(395.699773 261.322437) scale(0.1 -0.1)">
       <defs>
        <path id="DejaVuSans-32" d="M 1228 531 
L 3431 531 
L 3431 0 
L 469 0 
L 469 531 
Q 828 903 1448 1529 
Q 2069 2156 2228 2338 
Q 2531 2678 2651 2914 
Q 2772 3150 2772 3378 
Q 2772 3750 2511 3984 
Q 2250 4219 1831 4219 
Q 1534 4219 1204 4116 
Q 875 4013 500 3803 
L 500 4441 
Q 881 4594 1212 4672 
Q 1544 4750 1819 4750 
Q 2544 4750 2975 4387 
Q 3406 4025 3406 3419 
Q 3406 3131 3298 2873 
Q 3191 2616 2906 2266 
Q 2828 2175 2409 1742 
Q 1991 1309 1228 531 
z
" transform="scale(0.015625)"/>
       </defs>
       <use xlink:href="#DejaVuSans-31" transform="translate(0 0.765625)"/>
       <use xlink:href="#DejaVuSans-30" transform="translate(63.623047 0.765625)"/>
       <use xlink:href="#DejaVuSans-32" transform="translate(128.203125 39.046875) scale(0.7)"/>
      </g>
     </g>
    </g>
    <g id="xtick_8">
     <g id="line2d_15">
      <defs>
       <path id="me4df0c7a02" d="M 0 0 
L 0 2 
" style="stroke: #000000; stroke-width: 0.6"/>
      </defs>
      <g>
       <use xlink:href="#me4df0c7a02" x="54.311035" y="246.724" style="stroke: #000000; stroke-width: 0.6"/>
      </g>
     </g>
    </g>
    <g id="xtick_9">
     <g id="line2d_16">
      <g>
       <use xlink:href="#me4df0c7a02" x="62.853622" y="246.724" style="stroke: #000000; stroke-width: 0.6"/>
      </g>
     </g>
    </g>
    <g id="xtick_10">
     <g id="line2d_17">
      <g>
       <use xlink:href="#me4df0c7a02" x="150.175561" y="246.724" style="stroke: #000000; stroke-width: 0.6"/>
      </g>
     </g>
    </g>
    <g id="xtick_11">
     <g id="line2d_18">
      <g>
       <use xlink:href="#me4df0c7a02" x="171.040614" y="246.724" style="stroke: #000000; stroke-width: 0.6"/>
      </g>
     </g>
    </g>
    <g id="xtick_12">
     <g id="line2d_19">
      <g>
       <use xlink:href="#me4df0c7a02" x="200.448255" y="246.724" style="stroke: #000000; stroke-width: 0.6"/>
      </g>
     </g>
    </g>
    <g id="xtick_13">
     <g id="line2d_20">
      <g>
       <use xlink:href="#me4df0c7a02" x="211.628521" y="246.724" style="stroke: #000000; stroke-width: 0.6"/>
      </g>
     </g>
    </g>
    <g id="xtick_14">
     <g id="line2d_21">
      <g>
       <use xlink:href="#me4df0c7a02" x="221.313308" y="246.724" style="stroke: #000000; stroke-width: 0.6"/>
      </g>
     </g>
    </g>
    <g id="xtick_15">
     <g id="line2d_22">
      <g>
       <use xlink:href="#me4df0c7a02" x="229.855895" y="246.724" style="stroke: #000000; stroke-width: 0.6"/>
      </g>
     </g>
    </g>
    <g id="xtick_16">
     <g id="line2d_23">
      <g>
       <use xlink:href="#me4df0c7a02" x="317.177834" y="246.724" style="stroke: #000000; stroke-width: 0.6"/>
      </g>
     </g>
    </g>
    <g id="xtick_17">
     <g id="line2d_24">
      <g>
       <use xlink:href="#me4df0c7a02" x="338.042887" y="246.724" style="stroke: #000000; stroke-width: 0.6"/>
      </g>
     </g>
    </g>
    <g id="xtick_18">
     <g id="line2d_25">
      <g>
       <use xlink:href="#me4df0c7a02" x="367.450527" y="246.724" style="stroke: #000000; stroke-width: 0.6"/>
      </g>
     </g>
    </g>
    <g id="xtick_19">
     <g id="line2d_26">
      <g>
       <use xlink:href="#me4df0c7a02" x="378.630793" y="246.724" style="stroke: #000000; stroke-width: 0.6"/>
      </g>
     </g>
    </g>
    <g id="xtick_20">
     <g id="line2d_27">
      <g>
       <use xlink:href="#me4df0c7a02" x="388.31558" y="246.724" style="stroke: #000000; stroke-width: 0.6"/>
      </g>
     </g>
    </g>
    <g id="xtick_21">
     <g id="line2d_28">
      <g>
       <use xlink:href="#me4df0c7a02" x="396.858168" y="246.724" style="stroke: #000000; stroke-width: 0.6"/>
      </g>
     </g>
    </g>
    <g id="text_4">
     <!-- k -->
     <g transform="translate(234.602187 275.000563) scale(0.1 -0.1)">
      <defs>
       <path id="DejaVuSans-6b" d="M 581 4863 
L 1159 4863 
L 1159 1991 
L 2875 3500 
L 3609 3500 
L 1753 1863 
L 3688 0 
L 2938 0 
L 1159 1709 
L 1159 0 
L 581 0 
L 581 4863 
z
" transform="scale(0.015625)"/>
      </defs>
      <use xlink:href="#DejaVuSans-6b"/>
     </g>
    </g>
   </g>
   <g id="matplotlib.axis_2">
    <g id="ytick_1">
     <g id="line2d_29">
      <path d="M 53.795 246.724 
L 421.2 246.724 
" clip-path="url(#pd1482b28cf)" style="fill: none; stroke-dasharray: 0.5,0.825; stroke-dashoffset: 0; stroke: #b0b0b0; stroke-opacity: 0.7; stroke-width: 0.5"/>
     </g>
     <g id="line2d_30">
      <defs>
       <path id="mc84afe32cd" d="M 0 0 
L -3.5 0 
" style="stroke: #000000; stroke-width: 0.8"/>
      </defs>
      <g>
       <use xlink:href="#mc84afe32cd" x="53.795" y="246.724" style="stroke: #000000; stroke-width: 0.8"/>
      </g>
     </g>
     <g id="text_5">
      <!-- 0.60 -->
      <g transform="translate(24.529375 250.523219) scale(0.1 -0.1)">
       <defs>
        <path id="DejaVuSans-2e" d="M 684 794 
L 1344 794 
L 1344 0 
L 684 0 
L 684 794 
z
" transform="scale(0.015625)"/>
        <path id="DejaVuSans-36" d="M 2113 2584 
Q 1688 2584 1439 2293 
Q 1191 2003 1191 1497 
Q 1191 994 1439 701 
Q 1688 409 2113 409 
Q 2538 409 2786 701 
Q 3034 994 3034 1497 
Q 3034 2003 2786 2293 
Q 2538 2584 2113 2584 
z
M 3366 4563 
L 3366 3988 
Q 3128 4100 2886 4159 
Q 2644 4219 2406 4219 
Q 1781 4219 1451 3797 
Q 1122 3375 1075 2522 
Q 1259 2794 1537 2939 
Q 1816 3084 2150 3084 
Q 2853 3084 3261 2657 
Q 3669 2231 3669 1497 
Q 3669 778 3244 343 
Q 2819 -91 2113 -91 
Q 1303 -91 875 529 
Q 447 1150 447 2328 
Q 447 3434 972 4092 
Q 1497 4750 2381 4750 
Q 2619 4750 2861 4703 
Q 3103 4656 3366 4563 
z
" transform="scale(0.015625)"/>
       </defs>
       <use xlink:href="#DejaVuSans-30"/>
       <use xlink:href="#DejaVuSans-2e" x="63.623047"/>
       <use xlink:href="#DejaVuSans-36" x="95.410156"/>
       <use xlink:href="#DejaVuSans-30" x="159.033203"/>
      </g>
     </g>
    </g>
    <g id="ytick_2">
     <g id="line2d_31">
      <path d="M 53.795 217.7135 
L 421.2 217.7135 
" clip-path="url(#pd1482b28cf)" style="fill: none; stroke-dasharray: 0.5,0.825; stroke-dashoffset: 0; stroke: #b0b0b0; stroke-opacity: 0.7; stroke-width: 0.5"/>
     </g>
     <g id="line2d_32">
      <g>
       <use xlink:href="#mc84afe32cd" x="53.795" y="217.7135" style="stroke: #000000; stroke-width: 0.8"/>
      </g>
     </g>
     <g id="text_6">
      <!-- 0.65 -->
      <g transform="translate(24.529375 221.512719) scale(0.1 -0.1)">
       <defs>
        <path id="DejaVuSans-35" d="M 691 4666 
L 3169 4666 
L 3169 4134 
L 1269 4134 
L 1269 2991 
Q 1406 3038 1543 3061 
Q 1681 3084 1819 3084 
Q 2600 3084 3056 2656 
Q 3513 2228 3513 1497 
Q 3513 744 3044 326 
Q 2575 -91 1722 -91 
Q 1428 -91 1123 -41 
Q 819 9 494 109 
L 494 744 
Q 775 591 1075 516 
Q 1375 441 1709 441 
Q 2250 441 2565 725 
Q 2881 1009 2881 1497 
Q 2881 1984 2565 2268 
Q 2250 2553 1709 2553 
Q 1456 2553 1204 2497 
Q 953 2441 691 2322 
L 691 4666 
z
" transform="scale(0.015625)"/>
       </defs>
       <use xlink:href="#DejaVuSans-30"/>
       <use xlink:href="#DejaVuSans-2e" x="63.623047"/>
       <use xlink:href="#DejaVuSans-36" x="95.410156"/>
       <use xlink:href="#DejaVuSans-35" x="159.033203"/>
      </g>
     </g>
    </g>
    <g id="ytick_3">
     <g id="line2d_33">
      <path d="M 53.795 188.703 
L 421.2 188.703 
" clip-path="url(#pd1482b28cf)" style="fill: none; stroke-dasharray: 0.5,0.825; stroke-dashoffset: 0; stroke: #b0b0b0; stroke-opacity: 0.7; stroke-width: 0.5"/>
     </g>
     <g id="line2d_34">
      <g>
       <use xlink:href="#mc84afe32cd" x="53.795" y="188.703" style="stroke: #000000; stroke-width: 0.8"/>
      </g>
     </g>
     <g id="text_7">
      <!-- 0.70 -->
      <g transform="translate(24.529375 192.502219) scale(0.1 -0.1)">
       <defs>
        <path id="DejaVuSans-37" d="M 525 4666 
L 3525 4666 
L 3525 4397 
L 1831 0 
L 1172 0 
L 2766 4134 
L 525 4134 
L 525 4666 
z
" transform="scale(0.015625)"/>
       </defs>
       <use xlink:href="#DejaVuSans-30"/>
       <use xlink:href="#DejaVuSans-2e" x="63.623047"/>
       <use xlink:href="#DejaVuSans-37" x="95.410156"/>
       <use xlink:href="#DejaVuSans-30" x="159.033203"/>
      </g>
     </g>
    </g>
    <g id="ytick_4">
     <g id="line2d_35">
      <path d="M 53.795 159.6925 
L 421.2 159.6925 
" clip-path="url(#pd1482b28cf)" style="fill: none; stroke-dasharray: 0.5,0.825; stroke-dashoffset: 0; stroke: #b0b0b0; stroke-opacity: 0.7; stroke-width: 0.5"/>
     </g>
     <g id="line2d_36">
      <g>
       <use xlink:href="#mc84afe32cd" x="53.795" y="159.6925" style="stroke: #000000; stroke-width: 0.8"/>
      </g>
     </g>
     <g id="text_8">
      <!-- 0.75 -->
      <g transform="translate(24.529375 163.491719) scale(0.1 -0.1)">
       <use xlink:href="#DejaVuSans-30"/>
       <use xlink:href="#DejaVuSans-2e" x="63.623047"/>
       <use xlink:href="#DejaVuSans-37" x="95.410156"/>
       <use xlink:href="#DejaVuSans-35" x="159.033203"/>
      </g>
     </g>
    </g>
    <g id="ytick_5">
     <g id="line2d_37">
      <path d="M 53.795 130.682 
L 421.2 130.682 
" clip-path="url(#pd1482b28cf)" style="fill: none; stroke-dasharray: 0.5,0.825; stroke-dashoffset: 0; stroke: #b0b0b0; stroke-opacity: 0.7; stroke-width: 0.5"/>
     </g>
     <g id="line2d_38">
      <g>
       <use xlink:href="#mc84afe32cd" x="53.795" y="130.682" style="stroke: #000000; stroke-width: 0.8"/>
      </g>
     </g>
     <g id="text_9">
      <!-- 0.80 -->
      <g transform="translate(24.529375 134.481219) scale(0.1 -0.1)">
       <defs>
        <path id="DejaVuSans-38" d="M 2034 2216 
Q 1584 2216 1326 1975 
Q 1069 1734 1069 1313 
Q 1069 891 1326 650 
Q 1584 409 2034 409 
Q 2484 409 2743 651 
Q 3003 894 3003 1313 
Q 3003 1734 2745 1975 
Q 2488 2216 2034 2216 
z
M 1403 2484 
Q 997 2584 770 2862 
Q 544 3141 544 3541 
Q 544 4100 942 4425 
Q 1341 4750 2034 4750 
Q 2731 4750 3128 4425 
Q 3525 4100 3525 3541 
Q 3525 3141 3298 2862 
Q 3072 2584 2669 2484 
Q 3125 2378 3379 2068 
Q 3634 1759 3634 1313 
Q 3634 634 3220 271 
Q 2806 -91 2034 -91 
Q 1263 -91 848 271 
Q 434 634 434 1313 
Q 434 1759 690 2068 
Q 947 2378 1403 2484 
z
M 1172 3481 
Q 1172 3119 1398 2916 
Q 1625 2713 2034 2713 
Q 2441 2713 2670 2916 
Q 2900 3119 2900 3481 
Q 2900 3844 2670 4047 
Q 2441 4250 2034 4250 
Q 1625 4250 1398 4047 
Q 1172 3844 1172 3481 
z
" transform="scale(0.015625)"/>
       </defs>
       <use xlink:href="#DejaVuSans-30"/>
       <use xlink:href="#DejaVuSans-2e" x="63.623047"/>
       <use xlink:href="#DejaVuSans-38" x="95.410156"/>
       <use xlink:href="#DejaVuSans-30" x="159.033203"/>
      </g>
     </g>
    </g>
    <g id="ytick_6">
     <g id="line2d_39">
      <path d="M 53.795 101.6715 
L 421.2 101.6715 
" clip-path="url(#pd1482b28cf)" style="fill: none; stroke-dasharray: 0.5,0.825; stroke-dashoffset: 0; stroke: #b0b0b0; stroke-opacity: 0.7; stroke-width: 0.5"/>
     </g>
     <g id="line2d_40">
      <g>
       <use xlink:href="#mc84afe32cd" x="53.795" y="101.6715" style="stroke: #000000; stroke-width: 0.8"/>
      </g>
     </g>
     <g id="text_10">
      <!-- 0.85 -->
      <g transform="translate(24.529375 105.470719) scale(0.1 -0.1)">
       <use xlink:href="#DejaVuSans-30"/>
       <use xlink:href="#DejaVuSans-2e" x="63.623047"/>
       <use xlink:href="#DejaVuSans-38" x="95.410156"/>
       <use xlink:href="#DejaVuSans-35" x="159.033203"/>
      </g>
     </g>
    </g>
    <g id="ytick_7">
     <g id="line2d_41">
      <path d="M 53.795 72.661 
L 421.2 72.661 
" clip-path="url(#pd1482b28cf)" style="fill: none; stroke-dasharray: 0.5,0.825; stroke-dashoffset: 0; stroke: #b0b0b0; stroke-opacity: 0.7; stroke-width: 0.5"/>
     </g>
     <g id="line2d_42">
      <g>
       <use xlink:href="#mc84afe32cd" x="53.795" y="72.661" style="stroke: #000000; stroke-width: 0.8"/>
      </g>
     </g>
     <g id="text_11">
      <!-- 0.90 -->
      <g transform="translate(24.529375 76.460219) scale(0.1 -0.1)">
       <defs>
        <path id="DejaVuSans-39" d="M 703 97 
L 703 672 
Q 941 559 1184 500 
Q 1428 441 1663 441 
Q 2288 441 2617 861 
Q 2947 1281 2994 2138 
Q 2813 1869 2534 1725 
Q 2256 1581 1919 1581 
Q 1219 1581 811 2004 
Q 403 2428 403 3163 
Q 403 3881 828 4315 
Q 1253 4750 1959 4750 
Q 2769 4750 3195 4129 
Q 3622 3509 3622 2328 
Q 3622 1225 3098 567 
Q 2575 -91 1691 -91 
Q 1453 -91 1209 -44 
Q 966 3 703 97 
z
M 1959 2075 
Q 2384 2075 2632 2365 
Q 2881 2656 2881 3163 
Q 2881 3666 2632 3958 
Q 2384 4250 1959 4250 
Q 1534 4250 1286 3958 
Q 1038 3666 1038 3163 
Q 1038 2656 1286 2365 
Q 1534 2075 1959 2075 
z
" transform="scale(0.015625)"/>
       </defs>
       <use xlink:href="#DejaVuSans-30"/>
       <use xlink:href="#DejaVuSans-2e" x="63.623047"/>
       <use xlink:href="#DejaVuSans-39" x="95.410156"/>
       <use xlink:href="#DejaVuSans-30" x="159.033203"/>
      </g>
     </g>
    </g>
    <g id="ytick_8">
     <g id="line2d_43">
      <path d="M 53.795 43.6505 
L 421.2 43.6505 
" clip-path="url(#pd1482b28cf)" style="fill: none; stroke-dasharray: 0.5,0.825; stroke-dashoffset: 0; stroke: #b0b0b0; stroke-opacity: 0.7; stroke-width: 0.5"/>
     </g>
     <g id="line2d_44">
      <g>
       <use xlink:href="#mc84afe32cd" x="53.795" y="43.6505" style="stroke: #000000; stroke-width: 0.8"/>
      </g>
     </g>
     <g id="text_12">
      <!-- 0.95 -->
      <g transform="translate(24.529375 47.449719) scale(0.1 -0.1)">
       <use xlink:href="#DejaVuSans-30"/>
       <use xlink:href="#DejaVuSans-2e" x="63.623047"/>
       <use xlink:href="#DejaVuSans-39" x="95.410156"/>
       <use xlink:href="#DejaVuSans-35" x="159.033203"/>
      </g>
     </g>
    </g>
    <g id="ytick_9">
     <g id="line2d_45">
      <path d="M 53.795 14.64 
L 421.2 14.64 
" clip-path="url(#pd1482b28cf)" style="fill: none; stroke-dasharray: 0.5,0.825; stroke-dashoffset: 0; stroke: #b0b0b0; stroke-opacity: 0.7; stroke-width: 0.5"/>
     </g>
     <g id="line2d_46">
      <g>
       <use xlink:href="#mc84afe32cd" x="53.795" y="14.64" style="stroke: #000000; stroke-width: 0.8"/>
      </g>
     </g>
     <g id="text_13">
      <!-- 1.00 -->
      <g transform="translate(24.529375 18.439219) scale(0.1 -0.1)">
       <use xlink:href="#DejaVuSans-31"/>
       <use xlink:href="#DejaVuSans-2e" x="63.623047"/>
       <use xlink:href="#DejaVuSans-30" x="95.410156"/>
       <use xlink:href="#DejaVuSans-30" x="159.033203"/>
      </g>
     </g>
    </g>
    <g id="text_14">
     <!-- pass@k -->
     <g transform="translate(18.449688 150.024969) rotate(-90) scale(0.1 -0.1)">
      <defs>
       <path id="DejaVuSans-70" d="M 1159 525 
L 1159 -1331 
L 581 -1331 
L 581 3500 
L 1159 3500 
L 1159 2969 
Q 1341 3281 1617 3432 
Q 1894 3584 2278 3584 
Q 2916 3584 3314 3078 
Q 3713 2572 3713 1747 
Q 3713 922 3314 415 
Q 2916 -91 2278 -91 
Q 1894 -91 1617 61 
Q 1341 213 1159 525 
z
M 3116 1747 
Q 3116 2381 2855 2742 
Q 2594 3103 2138 3103 
Q 1681 3103 1420 2742 
Q 1159 2381 1159 1747 
Q 1159 1113 1420 752 
Q 1681 391 2138 391 
Q 2594 391 2855 752 
Q 3116 1113 3116 1747 
z
" transform="scale(0.015625)"/>
       <path id="DejaVuSans-61" d="M 2194 1759 
Q 1497 1759 1228 1600 
Q 959 1441 959 1056 
Q 959 750 1161 570 
Q 1363 391 1709 391 
Q 2188 391 2477 730 
Q 2766 1069 2766 1631 
L 2766 1759 
L 2194 1759 
z
M 3341 1997 
L 3341 0 
L 2766 0 
L 2766 531 
Q 2569 213 2275 61 
Q 1981 -91 1556 -91 
Q 1019 -91 701 211 
Q 384 513 384 1019 
Q 384 1609 779 1909 
Q 1175 2209 1959 2209 
L 2766 2209 
L 2766 2266 
Q 2766 2663 2505 2880 
Q 2244 3097 1772 3097 
Q 1472 3097 1187 3025 
Q 903 2953 641 2809 
L 641 3341 
Q 956 3463 1253 3523 
Q 1550 3584 1831 3584 
Q 2591 3584 2966 3190 
Q 3341 2797 3341 1997 
z
" transform="scale(0.015625)"/>
       <path id="DejaVuSans-73" d="M 2834 3397 
L 2834 2853 
Q 2591 2978 2328 3040 
Q 2066 3103 1784 3103 
Q 1356 3103 1142 2972 
Q 928 2841 928 2578 
Q 928 2378 1081 2264 
Q 1234 2150 1697 2047 
L 1894 2003 
Q 2506 1872 2764 1633 
Q 3022 1394 3022 966 
Q 3022 478 2636 193 
Q 2250 -91 1575 -91 
Q 1294 -91 989 -36 
Q 684 19 347 128 
L 347 722 
Q 666 556 975 473 
Q 1284 391 1588 391 
Q 1994 391 2212 530 
Q 2431 669 2431 922 
Q 2431 1156 2273 1281 
Q 2116 1406 1581 1522 
L 1381 1569 
Q 847 1681 609 1914 
Q 372 2147 372 2553 
Q 372 3047 722 3315 
Q 1072 3584 1716 3584 
Q 2034 3584 2315 3537 
Q 2597 3491 2834 3397 
z
" transform="scale(0.015625)"/>
       <path id="DejaVuSans-40" d="M 2381 1678 
Q 2381 1231 2603 976 
Q 2825 722 3213 722 
Q 3597 722 3817 978 
Q 4038 1234 4038 1678 
Q 4038 2116 3813 2373 
Q 3588 2631 3206 2631 
Q 2828 2631 2604 2375 
Q 2381 2119 2381 1678 
z
M 4084 744 
Q 3897 503 3655 389 
Q 3413 275 3091 275 
Q 2553 275 2217 664 
Q 1881 1053 1881 1678 
Q 1881 2303 2218 2693 
Q 2556 3084 3091 3084 
Q 3413 3084 3656 2967 
Q 3900 2850 4084 2613 
L 4084 3022 
L 4531 3022 
L 4531 722 
Q 4988 791 5245 1139 
Q 5503 1488 5503 2041 
Q 5503 2375 5404 2669 
Q 5306 2963 5106 3213 
Q 4781 3622 4314 3839 
Q 3847 4056 3297 4056 
Q 2913 4056 2559 3954 
Q 2206 3853 1906 3653 
Q 1416 3334 1139 2817 
Q 863 2300 863 1697 
Q 863 1200 1042 765 
Q 1222 331 1563 0 
Q 1891 -325 2322 -495 
Q 2753 -666 3244 -666 
Q 3647 -666 4036 -530 
Q 4425 -394 4750 -141 
L 5031 -488 
Q 4641 -791 4180 -952 
Q 3719 -1113 3244 -1113 
Q 2666 -1113 2153 -908 
Q 1641 -703 1241 -313 
Q 841 78 631 592 
Q 422 1106 422 1697 
Q 422 2266 634 2781 
Q 847 3297 1241 3688 
Q 1644 4084 2172 4295 
Q 2700 4506 3291 4506 
Q 3953 4506 4520 4234 
Q 5088 3963 5472 3463 
Q 5706 3156 5829 2797 
Q 5953 2438 5953 2053 
Q 5953 1231 5456 756 
Q 4959 281 4084 263 
L 4084 744 
z
" transform="scale(0.015625)"/>
      </defs>
      <use xlink:href="#DejaVuSans-70"/>
      <use xlink:href="#DejaVuSans-61" x="63.476562"/>
      <use xlink:href="#DejaVuSans-73" x="124.755859"/>
      <use xlink:href="#DejaVuSans-73" x="176.855469"/>
      <use xlink:href="#DejaVuSans-40" x="228.955078"/>
      <use xlink:href="#DejaVuSans-6b" x="328.955078"/>
     </g>
    </g>
   </g>
   <g id="line2d_47">
    <path d="M 70.495227 197.599553 
L 120.767921 152.687001 
L 150.175561 135.08064 
L 171.040614 125.498605 
L 187.224807 119.06738 
L 200.448255 114.19714 
L 211.628521 110.243179 
L 221.313308 106.897088 
L 229.855895 103.991601 
L 237.4975 101.42581 
L 244.410172 99.132801 
L 250.720948 97.064572 
L 256.526299 95.184615 
L 261.901214 93.464066 
L 266.90514 91.879555 
L 271.586001 90.411892 
L 275.982994 89.0452 
L 280.128589 87.766276 
L 284.049985 86.56411 
L 287.770193 85.4295 
L 291.308855 84.354738 
L 294.682866 83.333352 
L 297.906871 82.359895 
L 300.993641 81.429768 
L 303.954386 80.539073 
L 306.798992 79.684492 
L 309.536229 78.863191 
L 312.173908 78.07273 
L 314.719017 77.311001 
L 317.177834 76.576166 
L 319.55602 75.866617 
L 321.858694 75.180928 
L 324.090506 74.517835 
L 326.255687 73.876199 
L 328.3581 73.254991 
L 330.401282 72.653274 
L 332.388479 72.070186 
L 334.322678 71.50493 
L 336.206633 70.956764 
L 338.042887 70.424993 
L 339.833797 69.908962 
L 341.581548 69.408052 
L 343.288172 68.921674 
L 344.955559 68.449267 
L 346.585474 67.990293 
L 348.179564 67.544238 
L 349.73937 67.110607 
L 351.266335 66.688922 
L 352.761814 66.278725 
L 354.227079 65.87957 
L 355.663328 65.49103 
L 357.071686 65.112688 
L 358.453216 64.744145 
L 359.808922 64.38501 
L 361.139752 64.034909 
L 362.446601 63.693477 
L 363.730319 63.360361 
L 364.99171 63.035219 
L 366.231538 62.717721 
L 367.450527 62.407546 
L 368.649367 62.104384 
L 369.828713 61.807935 
L 370.989188 61.517907 
L 372.131388 61.23402 
L 373.255878 60.956 
L 374.3632 60.683584 
L 375.453869 60.416517 
L 376.52838 60.154551 
L 377.587205 59.897448 
L 378.630793 59.644976 
L 379.659579 59.396911 
L 380.673975 59.153037 
L 381.67438 58.913143 
L 382.661173 58.677028 
L 383.63472 58.444493 
L 384.595372 58.215348 
L 385.543466 57.98941 
L 386.479326 57.766498 
L 387.403264 57.54644 
L 388.31558 57.329067 
L 389.216563 57.114216 
L 390.10649 56.901726 
L 390.98563 56.691445 
L 391.854241 56.483222 
L 392.712573 56.276909 
L 393.560865 56.072364 
L 394.39935 55.869448 
L 395.228253 55.668023 
L 396.047789 55.467957 
L 396.858168 55.269117 
L 397.659592 55.071376 
L 398.452258 54.874606 
L 399.236354 54.678682 
L 400.012063 54.48348 
L 400.779564 54.28888 
L 401.539028 54.094758 
L 402.290622 53.900996 
L 403.034507 53.707473 
L 403.77084 53.51407 
L 404.499773 53.320667 
" clip-path="url(#pd1482b28cf)" style="fill: none; stroke: #000000; stroke-width: 2; stroke-linecap: square"/>
    <defs>
     <path id="m287990d374" d="M 0 1.25 
C 0.331504 1.25 0.649475 1.118292 0.883883 0.883883 
C 1.118292 0.649475 1.25 0.331504 1.25 0 
C 1.25 -0.331504 1.118292 -0.649475 0.883883 -0.883883 
C 0.649475 -1.118292 0.331504 -1.25 0 -1.25 
C -0.331504 -1.25 -0.649475 -1.118292 -0.883883 -0.883883 
C -1.118292 -0.649475 -1.25 -0.331504 -1.25 0 
C -1.25 0.331504 -1.118292 0.649475 -0.883883 0.883883 
C -0.649475 1.118292 -0.331504 1.25 0 1.25 
z
" style="stroke: #000000"/>
    </defs>
    <g clip-path="url(#pd1482b28cf)">
     <use xlink:href="#m287990d374" x="70.495227" y="197.599553" style="stroke: #000000"/>
     <use xlink:href="#m287990d374" x="120.767921" y="152.687001" style="stroke: #000000"/>
     <use xlink:href="#m287990d374" x="187.224807" y="119.06738" style="stroke: #000000"/>
     <use xlink:href="#m287990d374" x="237.4975" y="101.42581" style="stroke: #000000"/>
     <use xlink:href="#m287990d374" x="287.770193" y="85.4295" style="stroke: #000000"/>
     <use xlink:href="#m287990d374" x="354.227079" y="65.87957" style="stroke: #000000"/>
     <use xlink:href="#m287990d374" x="404.499773" y="53.320667" style="stroke: #000000"/>
    </g>
   </g>
   <g id="line2d_48">
    <path d="M 70.495227 275.178465 
L 120.767921 230.904682 
L 150.175561 212.445738 
L 171.040614 201.150286 
L 187.224807 193.131209 
L 200.448255 189.039747 
L 211.628521 183.722285 
L 221.313308 181.58527 
L 229.855895 178.666047 
L 237.4975 176.099676 
L 244.410172 172.042922 
L 250.720948 169.757736 
L 256.526299 166.406831 
L 261.901214 165.620937 
L 266.90514 163.345539 
L 271.586001 160.8564 
L 275.982994 158.475803 
L 280.128589 157.823299 
L 284.049985 156.861088 
L 287.770193 154.747931 
L 291.308855 152.682309 
L 294.682866 150.660837 
L 297.906871 148.686375 
L 300.993641 146.867553 
L 303.954386 145.434908 
L 306.798992 144.406831 
L 309.536229 143.458132 
L 312.173908 142.801653 
L 314.719017 141.956598 
L 317.177834 140.779604 
L 319.55602 139.86691 
L 321.858694 139.381175 
L 324.090506 138.915897 
L 326.255687 138.470318 
L 328.3581 138.043719 
L 330.401282 137.595607 
L 332.388479 136.075185 
L 334.322678 135.376468 
L 336.206633 134.974268 
L 338.042887 134.569384 
L 339.833797 134.163415 
L 341.581548 133.776569 
L 343.288172 133.155948 
L 344.955559 132.128971 
L 346.585474 131.604331 
L 348.179564 131.51472 
L 349.73937 131.431167 
L 351.266335 131.353292 
L 352.761814 131.068819 
L 354.227079 130.682012 
L 355.663328 130.298008 
L 357.071686 129.908391 
L 358.453216 129.521583 
L 359.808922 128.574602 
L 361.139752 127.243424 
L 362.446601 126.370364 
L 363.730319 125.622568 
L 364.99171 125.022699 
L 366.231538 124.441957 
L 367.450527 123.879875 
L 368.649367 123.335985 
L 369.828713 122.809822 
L 370.989188 122.300917 
L 372.131388 121.808806 
L 373.255878 121.333021 
L 374.3632 120.873096 
L 375.453869 120.428564 
L 376.52838 119.99896 
L 377.587205 119.583815 
L 378.630793 119.182665 
L 379.659579 118.795042 
L 380.673975 118.42048 
L 381.67438 118.058512 
L 382.661173 117.708673 
L 383.63472 117.370495 
L 384.595372 117.043513 
L 385.543466 116.727259 
L 386.479326 116.421267 
L 387.403264 116.125071 
L 388.31558 115.838204 
L 389.216563 115.560201 
L 390.10649 115.290593 
L 390.98563 115.028916 
L 391.854241 114.774701 
L 392.712573 114.527484 
L 393.560865 114.286798 
L 394.39935 114.052175 
L 395.228253 113.82315 
L 396.047789 113.599256 
L 396.858168 113.380027 
L 397.659592 113.164995 
L 398.452258 112.953696 
L 399.236354 112.745662 
L 400.012063 112.540426 
L 400.779564 112.337523 
L 401.539028 112.136486 
L 402.290622 111.936848 
L 403.034507 111.738144 
L 403.77084 111.539905 
L 404.499773 111.341667 
" clip-path="url(#pd1482b28cf)" style="fill: none; stroke-dasharray: 3.7,1.6; stroke-dashoffset: 0; stroke: #000000"/>
    <g clip-path="url(#pd1482b28cf)">
     <use xlink:href="#m287990d374" x="70.495227" y="275.178465" style="stroke: #000000"/>
     <use xlink:href="#m287990d374" x="120.767921" y="230.904682" style="stroke: #000000"/>
     <use xlink:href="#m287990d374" x="187.224807" y="193.131209" style="stroke: #000000"/>
     <use xlink:href="#m287990d374" x="237.4975" y="176.099676" style="stroke: #000000"/>
     <use xlink:href="#m287990d374" x="287.770193" y="154.747931" style="stroke: #000000"/>
     <use xlink:href="#m287990d374" x="354.227079" y="130.682012" style="stroke: #000000"/>
     <use xlink:href="#m287990d374" x="404.499773" y="111.341667" style="stroke: #000000"/>
    </g>
   </g>
   <g id="line2d_49">
    <path d="M 70.495227 125.058798 
L 120.767921 79.726375 
L 150.175561 64.215918 
L 171.040614 57.314228 
L 187.224807 53.648521 
L 200.448255 51.809691 
L 211.628521 48.823413 
L 221.313308 46.649067 
L 229.855895 45.092274 
L 237.4975 42.726037 
L 244.410172 40.540667 
L 250.720948 38.714321 
L 256.526299 37.190454 
L 261.901214 35.858901 
L 266.90514 34.991246 
L 271.586001 34.735658 
L 275.982994 33.994944 
L 280.128589 32.989146 
L 284.049985 32.044362 
L 287.770193 31.275977 
L 291.308855 30.837758 
L 294.682866 30.463824 
L 297.906871 30.118743 
L 300.993641 29.806288 
L 303.954386 29.518001 
L 306.798992 29.248115 
L 309.536229 28.993221 
L 312.173908 28.750514 
L 314.719017 28.259395 
L 317.177834 27.477902 
L 319.55602 26.736381 
L 321.858694 26.032503 
L 324.090506 25.364193 
L 326.255687 24.729584 
L 328.3581 24.12698 
L 330.401282 23.554825 
L 332.388479 23.011685 
L 334.322678 22.496225 
L 336.206633 22.007193 
L 338.042887 21.543413 
L 339.833797 21.10377 
L 341.581548 20.687206 
L 343.288172 20.292714 
L 344.955559 19.919328 
L 346.585474 19.566125 
L 348.179564 19.23222 
L 349.73937 18.916761 
L 351.266335 18.618929 
L 352.761814 18.337935 
L 354.227079 18.073021 
L 355.663328 17.823454 
L 357.071686 17.58853 
L 358.453216 17.36757 
L 359.808922 17.159919 
L 361.139752 16.964946 
L 362.446601 16.782044 
L 363.730319 16.610629 
L 364.99171 16.450137 
L 366.231538 16.300028 
L 367.450527 16.159779 
L 368.649367 16.028892 
L 369.828713 15.906884 
L 370.989188 15.793293 
L 372.131388 15.687677 
L 373.255878 15.58961 
L 374.3632 15.498684 
L 375.453869 15.414509 
L 376.52838 15.336709 
L 377.587205 15.264926 
L 378.630793 15.198817 
L 379.659579 15.138054 
L 380.673975 15.082324 
L 381.67438 15.031325 
L 382.661173 14.984772 
L 383.63472 14.942391 
L 384.595372 14.90392 
L 385.543466 14.869111 
L 386.479326 14.837723 
L 387.403264 14.809531 
L 388.31558 14.784317 
L 389.216563 14.761873 
L 390.10649 14.742001 
L 390.98563 14.724511 
L 391.854241 14.709224 
L 392.712573 14.695964 
L 393.560865 14.684565 
L 394.39935 14.674869 
L 395.228253 14.66672 
L 396.047789 14.659972 
L 396.858168 14.654482 
L 397.659592 14.650112 
L 398.452258 14.646727 
L 399.236354 14.644197 
L 400.012063 14.642395 
L 400.779564 14.641197 
L 401.539028 14.640478 
L 402.290622 14.64012 
L 403.034507 14.64 
L 403.77084 14.64 
L 404.499773 14.64 
" clip-path="url(#pd1482b28cf)" style="fill: none; stroke-dasharray: 1,1.65; stroke-dashoffset: 0; stroke: #000000"/>
    <g clip-path="url(#pd1482b28cf)">
     <use xlink:href="#m287990d374" x="70.495227" y="125.058798" style="stroke: #000000"/>
     <use xlink:href="#m287990d374" x="120.767921" y="79.726375" style="stroke: #000000"/>
     <use xlink:href="#m287990d374" x="187.224807" y="53.648521" style="stroke: #000000"/>
     <use xlink:href="#m287990d374" x="237.4975" y="42.726037" style="stroke: #000000"/>
     <use xlink:href="#m287990d374" x="287.770193" y="31.275977" style="stroke: #000000"/>
     <use xlink:href="#m287990d374" x="354.227079" y="18.073021" style="stroke: #000000"/>
     <use xlink:href="#m287990d374" x="404.499773" y="14.64" style="stroke: #000000"/>
    </g>
   </g>
   <g id="line2d_50">
    <path d="M 70.495227 193.34468 
L 120.767921 143.770912 
L 150.175561 123.899009 
L 171.040614 113.232477 
L 187.224807 106.305315 
L 200.448255 101.293568 
L 211.628521 97.446431 
L 221.313308 94.386673 
L 229.855895 91.892639 
L 237.4975 89.819832 
L 244.410172 88.067843 
L 250.720948 86.564067 
L 256.526299 85.254607 
L 261.901214 84.098711 
L 266.90514 83.065154 
L 271.586001 82.129765 
L 275.982994 81.273688 
L 280.128589 80.482132 
L 284.049985 79.743437 
L 287.770193 79.048381 
L 291.308855 78.389651 
L 294.682866 77.761437 
L 297.906871 77.159112 
L 300.993641 76.578989 
L 303.954386 76.018125 
L 306.798992 75.47417 
L 309.536229 74.94524 
L 312.173908 74.429827 
L 314.719017 73.926719 
L 317.177834 73.434936 
L 319.55602 72.953688 
L 321.858694 72.482329 
L 324.090506 72.020331 
L 326.255687 71.567257 
L 328.3581 71.122742 
L 330.401282 70.686476 
L 332.388479 70.258194 
L 334.322678 69.837666 
L 336.206633 69.424686 
L 338.042887 69.019071 
L 339.833797 68.620651 
L 341.581548 68.229272 
L 343.288172 67.844786 
L 344.955559 67.467052 
L 346.585474 67.095937 
L 348.179564 66.731309 
L 349.73937 66.373041 
L 351.266335 66.021007 
L 352.761814 65.675083 
L 354.227079 65.335147 
L 355.663328 65.001076 
L 357.071686 64.67275 
L 358.453216 64.350047 
L 359.808922 64.032848 
L 361.139752 63.721033 
L 362.446601 63.414481 
L 363.730319 63.113072 
L 364.99171 62.816687 
L 366.231538 62.525207 
L 367.450527 62.23851 
L 368.649367 61.956478 
L 369.828713 61.678992 
L 370.989188 61.405931 
L 372.131388 61.137175 
L 373.255878 60.872606 
L 374.3632 60.612104 
L 375.453869 60.355548 
L 376.52838 60.10282 
L 377.587205 59.8538 
L 378.630793 59.608368 
L 379.659579 59.366405 
L 380.673975 59.12779 
L 381.67438 58.892405 
L 382.661173 58.66013 
L 383.63472 58.430844 
L 384.595372 58.20443 
L 385.543466 57.980766 
L 386.479326 57.759734 
L 387.403264 57.541213 
L 388.31558 57.325084 
L 389.216563 57.111228 
L 390.10649 56.899525 
L 390.98563 56.689856 
L 391.854241 56.4821 
L 392.712573 56.276138 
L 393.560865 56.07185 
L 394.39935 55.869117 
L 395.228253 55.66782 
L 396.047789 55.467838 
L 396.858168 55.269053 
L 397.659592 55.071344 
L 398.452258 54.874591 
L 399.236354 54.678676 
L 400.012063 54.483479 
L 400.779564 54.288879 
L 401.539028 54.094758 
L 402.290622 53.900996 
L 403.034507 53.707473 
L 403.77084 53.51407 
L 404.499773 53.320667 
" clip-path="url(#pd1482b28cf)" style="fill: none; stroke: #555555; stroke-width: 2; stroke-linecap: square"/>
    <defs>
     <path id="m0b209474a0" d="M -1.25 1.25 
L 1.25 1.25 
L 1.25 -1.25 
L -1.25 -1.25 
z
" style="stroke: #555555; stroke-linejoin: miter"/>
    </defs>
    <g clip-path="url(#pd1482b28cf)">
     <use xlink:href="#m0b209474a0" x="70.495227" y="193.34468" style="fill: #555555; stroke: #555555; stroke-linejoin: miter"/>
     <use xlink:href="#m0b209474a0" x="120.767921" y="143.770912" style="fill: #555555; stroke: #555555; stroke-linejoin: miter"/>
     <use xlink:href="#m0b209474a0" x="187.224807" y="106.305315" style="fill: #555555; stroke: #555555; stroke-linejoin: miter"/>
     <use xlink:href="#m0b209474a0" x="237.4975" y="89.819832" style="fill: #555555; stroke: #555555; stroke-linejoin: miter"/>
     <use xlink:href="#m0b209474a0" x="287.770193" y="79.048381" style="fill: #555555; stroke: #555555; stroke-linejoin: miter"/>
     <use xlink:href="#m0b209474a0" x="354.227079" y="65.335147" style="fill: #555555; stroke: #555555; stroke-linejoin: miter"/>
     <use xlink:href="#m0b209474a0" x="404.499773" y="53.320667" style="fill: #555555; stroke: #555555; stroke-linejoin: miter"/>
    </g>
   </g>
   <g id="line2d_51">
    <path d="M 70.495227 265.30039 
L 120.767921 218.210488 
L 150.175561 198.832894 
L 171.040614 186.844924 
L 187.224807 181.445521 
L 200.448255 175.328794 
L 211.628521 170.512605 
L 221.313308 167.41441 
L 229.855895 164.109442 
L 237.4975 162.023052 
L 244.410172 160.166727 
L 250.720948 158.494974 
L 256.526299 156.971679 
L 261.901214 155.555642 
L 266.90514 154.227726 
L 271.586001 152.97728 
L 275.982994 151.789836 
L 280.128589 150.653863 
L 284.049985 150.27575 
L 287.770193 148.565732 
L 291.308855 147.304611 
L 294.682866 146.36266 
L 297.906871 145.430717 
L 300.993641 144.50841 
L 303.954386 143.595448 
L 306.798992 142.691594 
L 309.536229 141.796649 
L 312.173908 140.91044 
L 314.719017 139.974444 
L 317.177834 138.721296 
L 319.55602 138.052847 
L 321.858694 137.644595 
L 324.090506 137.257766 
L 326.255687 136.870944 
L 328.3581 136.484126 
L 330.401282 136.097311 
L 332.388479 135.710499 
L 334.322678 135.323688 
L 336.206633 134.937138 
L 338.042887 134.550246 
L 339.833797 134.014895 
L 341.581548 133.05376 
L 343.288172 132.105983 
L 344.955559 131.171312 
L 346.585474 130.730562 
L 348.179564 130.720826 
L 349.73937 130.711109 
L 351.266335 130.701407 
L 352.761814 130.691715 
L 354.227079 130.682 
L 355.663328 130.295193 
L 357.071686 129.908387 
L 358.453216 129.149707 
L 359.808922 127.887924 
L 361.139752 126.881526 
L 362.446601 126.242012 
L 363.730319 125.622556 
L 364.99171 125.022692 
L 366.231538 124.441953 
L 367.450527 123.879872 
L 368.649367 123.335983 
L 369.828713 122.809821 
L 370.989188 122.300917 
L 372.131388 121.808806 
L 373.255878 121.333021 
L 374.3632 120.873096 
L 375.453869 120.428564 
L 376.52838 119.99896 
L 377.587205 119.583815 
L 378.630793 119.182665 
L 379.659579 118.795042 
L 380.673975 118.42048 
L 381.67438 118.058512 
L 382.661173 117.708673 
L 383.63472 117.370495 
L 384.595372 117.043513 
L 385.543466 116.727259 
L 386.479326 116.421267 
L 387.403264 116.125071 
L 388.31558 115.838204 
L 389.216563 115.560201 
L 390.10649 115.290593 
L 390.98563 115.028916 
L 391.854241 114.774701 
L 392.712573 114.527484 
L 393.560865 114.286798 
L 394.39935 114.052175 
L 395.228253 113.82315 
L 396.047789 113.599256 
L 396.858168 113.380027 
L 397.659592 113.164995 
L 398.452258 112.953696 
L 399.236354 112.745662 
L 400.012063 112.540426 
L 400.779564 112.337523 
L 401.539028 112.136486 
L 402.290622 111.936848 
L 403.034507 111.738144 
L 403.77084 111.539905 
L 404.499773 111.341667 
" clip-path="url(#pd1482b28cf)" style="fill: none; stroke-dasharray: 3.7,1.6; stroke-dashoffset: 0; stroke: #555555"/>
    <g clip-path="url(#pd1482b28cf)">
     <use xlink:href="#m0b209474a0" x="70.495227" y="265.30039" style="fill: #555555; stroke: #555555; stroke-linejoin: miter"/>
     <use xlink:href="#m0b209474a0" x="120.767921" y="218.210488" style="fill: #555555; stroke: #555555; stroke-linejoin: miter"/>
     <use xlink:href="#m0b209474a0" x="187.224807" y="181.445521" style="fill: #555555; stroke: #555555; stroke-linejoin: miter"/>
     <use xlink:href="#m0b209474a0" x="237.4975" y="162.023052" style="fill: #555555; stroke: #555555; stroke-linejoin: miter"/>
     <use xlink:href="#m0b209474a0" x="287.770193" y="148.565732" style="fill: #555555; stroke: #555555; stroke-linejoin: miter"/>
     <use xlink:href="#m0b209474a0" x="354.227079" y="130.682" style="fill: #555555; stroke: #555555; stroke-linejoin: miter"/>
     <use xlink:href="#m0b209474a0" x="404.499773" y="111.341667" style="fill: #555555; stroke: #555555; stroke-linejoin: miter"/>
    </g>
   </g>
   <g id="line2d_52">
    <path d="M 70.495227 127.384473 
L 120.767921 76.484037 
L 150.175561 57.997116 
L 171.040614 48.486906 
L 187.224807 42.765998 
L 200.448255 39.491986 
L 211.628521 37.711997 
L 221.313308 36.412396 
L 229.855895 35.251888 
L 237.4975 34.500166 
L 244.410172 33.563334 
L 250.720948 32.828456 
L 256.526299 31.320782 
L 261.901214 30.030071 
L 266.90514 28.930293 
L 271.586001 27.982474 
L 275.982994 27.156387 
L 280.128589 26.428417 
L 284.049985 25.78 
L 287.770193 25.196476 
L 291.308855 24.666222 
L 294.682866 24.179999 
L 297.906871 23.730446 
L 300.993641 23.311685 
L 303.954386 22.919023 
L 306.798992 22.548703 
L 309.536229 22.19772 
L 312.173908 21.863664 
L 314.719017 21.544602 
L 317.177834 21.238984 
L 319.55602 20.945559 
L 321.858694 20.66332 
L 324.090506 20.391453 
L 326.255687 20.129291 
L 328.3581 19.876293 
L 330.401282 19.632009 
L 332.388479 19.396064 
L 334.322678 19.168144 
L 336.206633 18.947977 
L 338.042887 18.73533 
L 339.833797 18.529995 
L 341.581548 18.331787 
L 343.288172 18.140535 
L 344.955559 17.956084 
L 346.585474 17.778286 
L 348.179564 17.607 
L 349.73937 17.442092 
L 351.266335 17.283431 
L 352.761814 17.130889 
L 354.227079 16.984342 
L 355.663328 16.843665 
L 357.071686 16.708735 
L 358.453216 16.579432 
L 359.808922 16.455634 
L 361.139752 16.337219 
L 362.446601 16.224069 
L 363.730319 16.116063 
L 364.99171 16.013081 
L 366.231538 15.915004 
L 367.450527 15.82171 
L 368.649367 15.733082 
L 369.828713 15.648999 
L 370.989188 15.569341 
L 372.131388 15.493989 
L 373.255878 15.422823 
L 374.3632 15.355724 
L 375.453869 15.292572 
L 376.52838 15.233247 
L 377.587205 15.17763 
L 378.630793 15.125601 
L 379.659579 15.077041 
L 380.673975 15.03183 
L 381.67438 14.989848 
L 382.661173 14.950976 
L 383.63472 14.915094 
L 384.595372 14.882083 
L 385.543466 14.851823 
L 386.479326 14.824194 
L 387.403264 14.799076 
L 388.31558 14.776351 
L 389.216563 14.755898 
L 390.10649 14.737599 
L 390.98563 14.721332 
L 391.854241 14.70698 
L 392.712573 14.694421 
L 393.560865 14.683537 
L 394.39935 14.674207 
L 395.228253 14.666313 
L 396.047789 14.659735 
L 396.858168 14.654353 
L 397.659592 14.650047 
L 398.452258 14.646698 
L 399.236354 14.644186 
L 400.012063 14.642392 
L 400.779564 14.641196 
L 401.539028 14.640478 
L 402.290622 14.64012 
L 403.034507 14.64 
L 403.77084 14.64 
L 404.499773 14.64 
" clip-path="url(#pd1482b28cf)" style="fill: none; stroke-dasharray: 1,1.65; stroke-dashoffset: 0; stroke: #555555"/>
    <g clip-path="url(#pd1482b28cf)">
     <use xlink:href="#m0b209474a0" x="70.495227" y="127.384473" style="fill: #555555; stroke: #555555; stroke-linejoin: miter"/>
     <use xlink:href="#m0b209474a0" x="120.767921" y="76.484037" style="fill: #555555; stroke: #555555; stroke-linejoin: miter"/>
     <use xlink:href="#m0b209474a0" x="187.224807" y="42.765998" style="fill: #555555; stroke: #555555; stroke-linejoin: miter"/>
     <use xlink:href="#m0b209474a0" x="237.4975" y="34.500166" style="fill: #555555; stroke: #555555; stroke-linejoin: miter"/>
     <use xlink:href="#m0b209474a0" x="287.770193" y="25.196476" style="fill: #555555; stroke: #555555; stroke-linejoin: miter"/>
     <use xlink:href="#m0b209474a0" x="354.227079" y="16.984342" style="fill: #555555; stroke: #555555; stroke-linejoin: miter"/>
     <use xlink:href="#m0b209474a0" x="404.499773" y="14.64" style="fill: #555555; stroke: #555555; stroke-linejoin: miter"/>
    </g>
   </g>
   <g id="line2d_53">
    <path d="M 70.495227 134.74347 
L 120.767921 98.330897 
L 150.175561 84.384926 
L 171.040614 76.41022 
L 187.224807 70.805057 
L 200.448255 66.440527 
L 211.628521 62.8448 
L 221.313308 59.778476 
L 229.855895 57.105546 
L 237.4975 54.742828 
L 244.410172 52.636132 
L 250.720948 50.747823 
L 256.526299 49.050033 
L 261.901214 47.520893 
L 266.90514 46.142408 
L 271.586001 44.899242 
L 275.982994 43.778013 
L 280.128589 42.766864 
L 284.049985 41.855188 
L 287.770193 41.033448 
L 291.308855 40.293034 
L 294.682866 39.626168 
L 297.906871 39.025807 
L 300.993641 38.485578 
L 303.954386 37.999706 
L 306.798992 37.562964 
L 309.536229 37.170615 
L 312.173908 36.818369 
L 314.719017 36.502339 
L 317.177834 36.219005 
L 319.55602 35.96518 
L 321.858694 35.737976 
L 324.090506 35.534777 
L 326.255687 35.353216 
L 328.3581 35.191147 
L 330.401282 35.046628 
L 332.388479 34.917902 
L 334.322678 34.803377 
L 336.206633 34.701612 
L 338.042887 34.611305 
L 339.833797 34.531276 
L 341.581548 34.46046 
L 343.288172 34.397892 
L 344.955559 34.342703 
L 346.585474 34.294105 
L 348.179564 34.251389 
L 349.73937 34.213915 
L 351.266335 34.181105 
L 352.761814 34.15244 
L 354.227079 34.127452 
L 355.663328 34.105721 
L 357.071686 34.086868 
L 358.453216 34.070556 
L 359.808922 34.05648 
L 361.139752 34.044369 
L 362.446601 34.033981 
L 363.730319 34.025099 
L 364.99171 34.017531 
L 366.231538 34.011106 
L 367.450527 34.005671 
L 368.649367 34.001093 
L 369.828713 33.997253 
L 370.989188 33.994047 
L 372.131388 33.991382 
L 373.255878 33.98918 
L 374.3632 33.987369 
L 375.453869 33.985888 
L 376.52838 33.984686 
L 377.587205 33.983716 
L 378.630793 33.982939 
L 379.659579 33.982321 
L 380.673975 33.981834 
L 381.67438 33.981454 
L 382.661173 33.98116 
L 383.63472 33.980935 
L 384.595372 33.980765 
L 385.543466 33.980638 
L 386.479326 33.980544 
L 387.403264 33.980477 
L 388.31558 33.980429 
L 389.216563 33.980395 
L 390.10649 33.980372 
L 390.98563 33.980357 
L 391.854241 33.980347 
L 392.712573 33.980341 
L 393.560865 33.980338 
L 394.39935 33.980335 
L 395.228253 33.980334 
L 396.047789 33.980334 
L 396.858168 33.980333 
L 397.659592 33.980333 
L 398.452258 33.980333 
L 399.236354 33.980333 
L 400.012063 33.980333 
L 400.779564 33.980333 
L 401.539028 33.980333 
L 402.290622 33.980333 
L 403.034507 33.980333 
L 403.77084 33.980333 
L 404.499773 33.980333 
" clip-path="url(#pd1482b28cf)" style="fill: none; stroke: #aaaaaa; stroke-width: 2; stroke-linecap: square"/>
    <defs>
     <path id="mb1b08bf720" d="M 0 1.767767 
L 1.767767 0 
L 0 -1.767767 
L -1.767767 0 
z
" style="stroke: #aaaaaa; stroke-linejoin: miter"/>
    </defs>
    <g clip-path="url(#pd1482b28cf)">
     <use xlink:href="#mb1b08bf720" x="70.495227" y="134.74347" style="fill: #aaaaaa; stroke: #aaaaaa; stroke-linejoin: miter"/>
     <use xlink:href="#mb1b08bf720" x="120.767921" y="98.330897" style="fill: #aaaaaa; stroke: #aaaaaa; stroke-linejoin: miter"/>
     <use xlink:href="#mb1b08bf720" x="187.224807" y="70.805057" style="fill: #aaaaaa; stroke: #aaaaaa; stroke-linejoin: miter"/>
     <use xlink:href="#mb1b08bf720" x="237.4975" y="54.742828" style="fill: #aaaaaa; stroke: #aaaaaa; stroke-linejoin: miter"/>
     <use xlink:href="#mb1b08bf720" x="287.770193" y="41.033448" style="fill: #aaaaaa; stroke: #aaaaaa; stroke-linejoin: miter"/>
     <use xlink:href="#mb1b08bf720" x="354.227079" y="34.127452" style="fill: #aaaaaa; stroke: #aaaaaa; stroke-linejoin: miter"/>
     <use xlink:href="#mb1b08bf720" x="404.499773" y="33.980333" style="fill: #aaaaaa; stroke: #aaaaaa; stroke-linejoin: miter"/>
    </g>
   </g>
   <g id="line2d_54">
    <path d="M 70.495227 205.151954 
L 120.767921 166.892476 
L 150.175561 149.20576 
L 171.040614 137.426454 
L 187.224807 128.880755 
L 200.448255 121.506999 
L 211.628521 116.125167 
L 221.313308 110.488355 
L 229.855895 105.742815 
L 237.4975 101.810804 
L 244.410172 98.508439 
L 250.720948 95.19685 
L 256.526299 92.010413 
L 261.901214 90.342819 
L 266.90514 88.779375 
L 271.586001 87.348715 
L 275.982994 86.028856 
L 280.128589 84.585314 
L 284.049985 83.282122 
L 287.770193 82.107172 
L 291.308855 81.04927 
L 294.682866 80.094618 
L 297.906871 79.2374 
L 300.993641 78.469318 
L 303.954386 77.813994 
L 306.798992 77.303109 
L 309.536229 76.838814 
L 312.173908 76.417081 
L 314.719017 76.034231 
L 317.177834 75.686903 
L 319.55602 75.32832 
L 321.858694 75.007101 
L 324.090506 74.764143 
L 326.255687 74.544257 
L 328.3581 74.344391 
L 330.401282 74.163 
L 332.388479 73.998635 
L 334.322678 73.849941 
L 336.206633 73.715651 
L 338.042887 73.594582 
L 339.833797 73.485629 
L 341.581548 73.387763 
L 343.288172 73.300028 
L 344.955559 73.221534 
L 346.585474 73.151453 
L 348.179564 73.089021 
L 349.73937 73.033529 
L 351.266335 72.98432 
L 352.761814 72.940791 
L 354.227079 72.902385 
L 355.663328 72.868588 
L 357.071686 72.83893 
L 358.453216 72.812981 
L 359.808922 72.790344 
L 361.139752 72.77066 
L 362.446601 72.753601 
L 363.730319 72.738869 
L 364.99171 72.726192 
L 366.231538 72.715327 
L 367.450527 72.706051 
L 368.649367 72.698167 
L 369.828713 72.691496 
L 370.989188 72.685878 
L 372.131388 72.681171 
L 373.255878 72.677249 
L 374.3632 72.673999 
L 375.453869 72.671323 
L 376.52838 72.669133 
L 377.587205 72.667354 
L 378.630793 72.665919 
L 379.659579 72.664771 
L 380.673975 72.663861 
L 381.67438 72.663146 
L 382.661173 72.66259 
L 383.63472 72.662162 
L 384.595372 72.661836 
L 385.543466 72.661592 
L 386.479326 72.661412 
L 387.403264 72.661281 
L 388.31558 72.661187 
L 389.216563 72.661122 
L 390.10649 72.661077 
L 390.98563 72.661047 
L 391.854241 72.661028 
L 392.712573 72.661016 
L 393.560865 72.661008 
L 394.39935 72.661004 
L 395.228253 72.661002 
L 396.047789 72.661001 
L 396.858168 72.661 
L 397.659592 72.661 
L 398.452258 72.661 
L 399.236354 72.661 
L 400.012063 72.661 
L 400.779564 72.661 
L 401.539028 72.661 
L 402.290622 72.661 
L 403.034507 72.661 
L 403.77084 72.661 
L 404.499773 72.661 
" clip-path="url(#pd1482b28cf)" style="fill: none; stroke-dasharray: 3.7,1.6; stroke-dashoffset: 0; stroke: #aaaaaa"/>
    <g clip-path="url(#pd1482b28cf)">
     <use xlink:href="#mb1b08bf720" x="70.495227" y="205.151954" style="fill: #aaaaaa; stroke: #aaaaaa; stroke-linejoin: miter"/>
     <use xlink:href="#mb1b08bf720" x="120.767921" y="166.892476" style="fill: #aaaaaa; stroke: #aaaaaa; stroke-linejoin: miter"/>
     <use xlink:href="#mb1b08bf720" x="187.224807" y="128.880755" style="fill: #aaaaaa; stroke: #aaaaaa; stroke-linejoin: miter"/>
     <use xlink:href="#mb1b08bf720" x="237.4975" y="101.810804" style="fill: #aaaaaa; stroke: #aaaaaa; stroke-linejoin: miter"/>
     <use xlink:href="#mb1b08bf720" x="287.770193" y="82.107172" style="fill: #aaaaaa; stroke: #aaaaaa; stroke-linejoin: miter"/>
     <use xlink:href="#mb1b08bf720" x="354.227079" y="72.902385" style="fill: #aaaaaa; stroke: #aaaaaa; stroke-linejoin: miter"/>
     <use xlink:href="#mb1b08bf720" x="404.499773" y="72.661" style="fill: #aaaaaa; stroke: #aaaaaa; stroke-linejoin: miter"/>
    </g>
   </g>
   <g id="line2d_55">
    <path d="M 70.495227 74.362949 
L 120.767921 42.280657 
L 150.175561 33.971169 
L 171.040614 29.413667 
L 187.224807 26.511922 
L 200.448255 24.14697 
L 211.628521 22.423932 
L 221.313308 21.109425 
L 229.855895 20.069978 
L 237.4975 19.221035 
L 244.410172 18.521182 
L 250.720948 17.934564 
L 256.526299 17.437779 
L 261.901214 17.014601 
L 266.90514 16.653076 
L 271.586001 16.343912 
L 275.982994 16.07958 
L 280.128589 15.853795 
L 284.049985 15.661215 
L 287.770193 15.497245 
L 291.308855 15.357909 
L 294.682866 15.239757 
L 297.906871 15.13979 
L 300.993641 15.055406 
L 303.954386 14.984349 
L 306.798992 14.924661 
L 309.536229 14.874653 
L 312.173908 14.832865 
L 314.719017 14.798042 
L 317.177834 14.769105 
L 319.55602 14.745128 
L 321.858694 14.725321 
L 324.090506 14.70901 
L 326.255687 14.69562 
L 328.3581 14.684665 
L 330.401282 14.675732 
L 332.388479 14.668474 
L 334.322678 14.662598 
L 336.206633 14.65786 
L 338.042887 14.654054 
L 339.833797 14.651009 
L 341.581548 14.648583 
L 343.288172 14.646659 
L 344.955559 14.64514 
L 346.585474 14.643947 
L 348.179564 14.643014 
L 349.73937 14.642289 
L 351.266335 14.641727 
L 352.761814 14.641295 
L 354.227079 14.640965 
L 355.663328 14.640714 
L 357.071686 14.640525 
L 358.453216 14.640383 
L 359.808922 14.640277 
L 361.139752 14.640199 
L 362.446601 14.640141 
L 363.730319 14.640099 
L 364.99171 14.640069 
L 366.231538 14.640048 
L 367.450527 14.640033 
L 368.649367 14.640022 
L 369.828713 14.640015 
L 370.989188 14.64001 
L 372.131388 14.640006 
L 373.255878 14.640004 
L 374.3632 14.640003 
L 375.453869 14.640002 
L 376.52838 14.640001 
L 377.587205 14.640001 
L 378.630793 14.64 
L 379.659579 14.64 
L 380.673975 14.64 
L 381.67438 14.64 
L 382.661173 14.64 
L 383.63472 14.64 
L 384.595372 14.64 
L 385.543466 14.64 
L 386.479326 14.64 
L 387.403264 14.64 
L 388.31558 14.64 
L 389.216563 14.64 
L 390.10649 14.64 
L 390.98563 14.64 
L 391.854241 14.64 
L 392.712573 14.64 
L 393.560865 14.64 
L 394.39935 14.64 
L 395.228253 14.64 
L 396.047789 14.64 
L 396.858168 14.64 
L 397.659592 14.64 
L 398.452258 14.64 
L 399.236354 14.64 
L 400.012063 14.64 
L 400.779564 14.64 
L 401.539028 14.64 
L 402.290622 14.64 
L 403.034507 14.64 
L 403.77084 14.64 
L 404.499773 14.64 
" clip-path="url(#pd1482b28cf)" style="fill: none; stroke-dasharray: 1,1.65; stroke-dashoffset: 0; stroke: #aaaaaa"/>
    <g clip-path="url(#pd1482b28cf)">
     <use xlink:href="#mb1b08bf720" x="70.495227" y="74.362949" style="fill: #aaaaaa; stroke: #aaaaaa; stroke-linejoin: miter"/>
     <use xlink:href="#mb1b08bf720" x="120.767921" y="42.280657" style="fill: #aaaaaa; stroke: #aaaaaa; stroke-linejoin: miter"/>
     <use xlink:href="#mb1b08bf720" x="187.224807" y="26.511922" style="fill: #aaaaaa; stroke: #aaaaaa; stroke-linejoin: miter"/>
     <use xlink:href="#mb1b08bf720" x="237.4975" y="19.221035" style="fill: #aaaaaa; stroke: #aaaaaa; stroke-linejoin: miter"/>
     <use xlink:href="#mb1b08bf720" x="287.770193" y="15.497245" style="fill: #aaaaaa; stroke: #aaaaaa; stroke-linejoin: miter"/>
     <use xlink:href="#mb1b08bf720" x="354.227079" y="14.640965" style="fill: #aaaaaa; stroke: #aaaaaa; stroke-linejoin: miter"/>
     <use xlink:href="#mb1b08bf720" x="404.499773" y="14.64" style="fill: #aaaaaa; stroke: #aaaaaa; stroke-linejoin: miter"/>
    </g>
   </g>
   <g id="patch_3">
    <path d="M 53.795 246.724 
L 53.795 14.64 
" style="fill: none; stroke: #000000; stroke-width: 0.8; stroke-linejoin: miter; stroke-linecap: square"/>
   </g>
   <g id="patch_4">
    <path d="M 421.2 246.724 
L 421.2 14.64 
" style="fill: none; stroke: #000000; stroke-width: 0.8; stroke-linejoin: miter; stroke-linecap: square"/>
   </g>
   <g id="patch_5">
    <path d="M 53.795 246.724 
L 421.2 246.724 
" style="fill: none; stroke: #000000; stroke-width: 0.8; stroke-linejoin: miter; stroke-linecap: square"/>
   </g>
   <g id="patch_6">
    <path d="M 53.795 14.64 
L 421.2 14.64 
" style="fill: none; stroke: #000000; stroke-width: 0.8; stroke-linejoin: miter; stroke-linecap: square"/>
   </g>
   <g id="legend_1">
    <g id="patch_7">
     <path d="M 336.259375 241.724 
L 414.2 241.724 
Q 416.2 241.724 416.2 239.724 
L 416.2 167.333375 
Q 416.2 165.333375 414.2 165.333375 
L 336.259375 165.333375 
Q 334.259375 165.333375 334.259375 167.333375 
L 334.259375 239.724 
Q 334.259375 241.724 336.259375 241.724 
z
" style="fill: #ffffff; opacity: 0.8; stroke: #cccccc; stroke-linejoin: miter"/>
    </g>
    <g id="line2d_56">
     <path d="M 338.259375 173.431813 
L 348.259375 173.431813 
L 358.259375 173.431813 
" style="fill: none; stroke-dasharray: 3.7,1.6; stroke-dashoffset: 0; stroke: #000000"/>
    </g>
    <g id="text_15">
     <!-- CI lower -->
     <g transform="translate(366.259375 176.931813) scale(0.1 -0.1)">
      <defs>
       <path id="DejaVuSans-43" d="M 4122 4306 
L 4122 3641 
Q 3803 3938 3442 4084 
Q 3081 4231 2675 4231 
Q 1875 4231 1450 3742 
Q 1025 3253 1025 2328 
Q 1025 1406 1450 917 
Q 1875 428 2675 428 
Q 3081 428 3442 575 
Q 3803 722 4122 1019 
L 4122 359 
Q 3791 134 3420 21 
Q 3050 -91 2638 -91 
Q 1578 -91 968 557 
Q 359 1206 359 2328 
Q 359 3453 968 4101 
Q 1578 4750 2638 4750 
Q 3056 4750 3426 4639 
Q 3797 4528 4122 4306 
z
" transform="scale(0.015625)"/>
       <path id="DejaVuSans-49" d="M 628 4666 
L 1259 4666 
L 1259 0 
L 628 0 
L 628 4666 
z
" transform="scale(0.015625)"/>
       <path id="DejaVuSans-20" transform="scale(0.015625)"/>
       <path id="DejaVuSans-6c" d="M 603 4863 
L 1178 4863 
L 1178 0 
L 603 0 
L 603 4863 
z
" transform="scale(0.015625)"/>
       <path id="DejaVuSans-6f" d="M 1959 3097 
Q 1497 3097 1228 2736 
Q 959 2375 959 1747 
Q 959 1119 1226 758 
Q 1494 397 1959 397 
Q 2419 397 2687 759 
Q 2956 1122 2956 1747 
Q 2956 2369 2687 2733 
Q 2419 3097 1959 3097 
z
M 1959 3584 
Q 2709 3584 3137 3096 
Q 3566 2609 3566 1747 
Q 3566 888 3137 398 
Q 2709 -91 1959 -91 
Q 1206 -91 779 398 
Q 353 888 353 1747 
Q 353 2609 779 3096 
Q 1206 3584 1959 3584 
z
" transform="scale(0.015625)"/>
       <path id="DejaVuSans-77" d="M 269 3500 
L 844 3500 
L 1563 769 
L 2278 3500 
L 2956 3500 
L 3675 769 
L 4391 3500 
L 4966 3500 
L 4050 0 
L 3372 0 
L 2619 2869 
L 1863 0 
L 1184 0 
L 269 3500 
z
" transform="scale(0.015625)"/>
       <path id="DejaVuSans-65" d="M 3597 1894 
L 3597 1613 
L 953 1613 
Q 991 1019 1311 708 
Q 1631 397 2203 397 
Q 2534 397 2845 478 
Q 3156 559 3463 722 
L 3463 178 
Q 3153 47 2828 -22 
Q 2503 -91 2169 -91 
Q 1331 -91 842 396 
Q 353 884 353 1716 
Q 353 2575 817 3079 
Q 1281 3584 2069 3584 
Q 2775 3584 3186 3129 
Q 3597 2675 3597 1894 
z
M 3022 2063 
Q 3016 2534 2758 2815 
Q 2500 3097 2075 3097 
Q 1594 3097 1305 2825 
Q 1016 2553 972 2059 
L 3022 2063 
z
" transform="scale(0.015625)"/>
       <path id="DejaVuSans-72" d="M 2631 2963 
Q 2534 3019 2420 3045 
Q 2306 3072 2169 3072 
Q 1681 3072 1420 2755 
Q 1159 2438 1159 1844 
L 1159 0 
L 581 0 
L 581 3500 
L 1159 3500 
L 1159 2956 
Q 1341 3275 1631 3429 
Q 1922 3584 2338 3584 
Q 2397 3584 2469 3576 
Q 2541 3569 2628 3553 
L 2631 2963 
z
" transform="scale(0.015625)"/>
      </defs>
      <use xlink:href="#DejaVuSans-43"/>
      <use xlink:href="#DejaVuSans-49" x="69.824219"/>
      <use xlink:href="#DejaVuSans-20" x="99.316406"/>
      <use xlink:href="#DejaVuSans-6c" x="131.103516"/>
      <use xlink:href="#DejaVuSans-6f" x="158.886719"/>
      <use xlink:href="#DejaVuSans-77" x="220.068359"/>
      <use xlink:href="#DejaVuSans-65" x="301.855469"/>
      <use xlink:href="#DejaVuSans-72" x="363.378906"/>
     </g>
    </g>
    <g id="line2d_57">
     <path d="M 338.259375 188.109938 
L 348.259375 188.109938 
L 358.259375 188.109938 
" style="fill: none; stroke-dasharray: 1,1.65; stroke-dashoffset: 0; stroke: #000000"/>
    </g>
    <g id="text_16">
     <!-- CI upper -->
     <g transform="translate(366.259375 191.609938) scale(0.1 -0.1)">
      <defs>
       <path id="DejaVuSans-75" d="M 544 1381 
L 544 3500 
L 1119 3500 
L 1119 1403 
Q 1119 906 1312 657 
Q 1506 409 1894 409 
Q 2359 409 2629 706 
Q 2900 1003 2900 1516 
L 2900 3500 
L 3475 3500 
L 3475 0 
L 2900 0 
L 2900 538 
Q 2691 219 2414 64 
Q 2138 -91 1772 -91 
Q 1169 -91 856 284 
Q 544 659 544 1381 
z
M 1991 3584 
L 1991 3584 
z
" transform="scale(0.015625)"/>
      </defs>
      <use xlink:href="#DejaVuSans-43"/>
      <use xlink:href="#DejaVuSans-49" x="69.824219"/>
      <use xlink:href="#DejaVuSans-20" x="99.316406"/>
      <use xlink:href="#DejaVuSans-75" x="131.103516"/>
      <use xlink:href="#DejaVuSans-70" x="194.482422"/>
      <use xlink:href="#DejaVuSans-70" x="257.958984"/>
      <use xlink:href="#DejaVuSans-65" x="321.435547"/>
      <use xlink:href="#DejaVuSans-72" x="382.958984"/>
     </g>
    </g>
    <g id="line2d_58">
     <path d="M 338.259375 202.788063 
L 348.259375 202.788063 
L 358.259375 202.788063 
" style="fill: none; stroke: #000000; stroke-width: 2; stroke-linecap: square"/>
     <g>
      <use xlink:href="#m287990d374" x="348.259375" y="202.788063" style="stroke: #000000"/>
     </g>
    </g>
    <g id="text_17">
     <!-- baseline -->
     <g transform="translate(366.259375 206.288063) scale(0.1 -0.1)">
      <defs>
       <path id="DejaVuSans-62" d="M 3116 1747 
Q 3116 2381 2855 2742 
Q 2594 3103 2138 3103 
Q 1681 3103 1420 2742 
Q 1159 2381 1159 1747 
Q 1159 1113 1420 752 
Q 1681 391 2138 391 
Q 2594 391 2855 752 
Q 3116 1113 3116 1747 
z
M 1159 2969 
Q 1341 3281 1617 3432 
Q 1894 3584 2278 3584 
Q 2916 3584 3314 3078 
Q 3713 2572 3713 1747 
Q 3713 922 3314 415 
Q 2916 -91 2278 -91 
Q 1894 -91 1617 61 
Q 1341 213 1159 525 
L 1159 0 
L 581 0 
L 581 4863 
L 1159 4863 
L 1159 2969 
z
" transform="scale(0.015625)"/>
       <path id="DejaVuSans-69" d="M 603 3500 
L 1178 3500 
L 1178 0 
L 603 0 
L 603 3500 
z
M 603 4863 
L 1178 4863 
L 1178 4134 
L 603 4134 
L 603 4863 
z
" transform="scale(0.015625)"/>
       <path id="DejaVuSans-6e" d="M 3513 2113 
L 3513 0 
L 2938 0 
L 2938 2094 
Q 2938 2591 2744 2837 
Q 2550 3084 2163 3084 
Q 1697 3084 1428 2787 
Q 1159 2491 1159 1978 
L 1159 0 
L 581 0 
L 581 3500 
L 1159 3500 
L 1159 2956 
Q 1366 3272 1645 3428 
Q 1925 3584 2291 3584 
Q 2894 3584 3203 3211 
Q 3513 2838 3513 2113 
z
" transform="scale(0.015625)"/>
      </defs>
      <use xlink:href="#DejaVuSans-62"/>
      <use xlink:href="#DejaVuSans-61" x="63.476562"/>
      <use xlink:href="#DejaVuSans-73" x="124.755859"/>
      <use xlink:href="#DejaVuSans-65" x="176.855469"/>
      <use xlink:href="#DejaVuSans-6c" x="238.378906"/>
      <use xlink:href="#DejaVuSans-69" x="266.162109"/>
      <use xlink:href="#DejaVuSans-6e" x="293.945312"/>
      <use xlink:href="#DejaVuSans-65" x="357.324219"/>
     </g>
    </g>
    <g id="line2d_59">
     <path d="M 338.259375 217.466188 
L 348.259375 217.466188 
L 358.259375 217.466188 
" style="fill: none; stroke: #555555; stroke-width: 2; stroke-linecap: square"/>
     <g>
      <use xlink:href="#m0b209474a0" x="348.259375" y="217.466188" style="fill: #555555; stroke: #555555; stroke-linejoin: miter"/>
     </g>
    </g>
    <g id="text_18">
     <!-- CoT -->
     <g transform="translate(366.259375 220.966188) scale(0.1 -0.1)">
      <defs>
       <path id="DejaVuSans-54" d="M -19 4666 
L 3928 4666 
L 3928 4134 
L 2272 4134 
L 2272 0 
L 1638 0 
L 1638 4134 
L -19 4134 
L -19 4666 
z
" transform="scale(0.015625)"/>
      </defs>
      <use xlink:href="#DejaVuSans-43"/>
      <use xlink:href="#DejaVuSans-6f" x="69.824219"/>
      <use xlink:href="#DejaVuSans-54" x="131.005859"/>
     </g>
    </g>
    <g id="line2d_60">
     <path d="M 338.259375 232.144313 
L 348.259375 232.144313 
L 358.259375 232.144313 
" style="fill: none; stroke: #aaaaaa; stroke-width: 2; stroke-linecap: square"/>
     <g>
      <use xlink:href="#mb1b08bf720" x="348.259375" y="232.144313" style="fill: #aaaaaa; stroke: #aaaaaa; stroke-linejoin: miter"/>
     </g>
    </g>
    <g id="text_19">
     <!-- feedback -->
     <g transform="translate(366.259375 235.644313) scale(0.1 -0.1)">
      <defs>
       <path id="DejaVuSans-66" d="M 2375 4863 
L 2375 4384 
L 1825 4384 
Q 1516 4384 1395 4259 
Q 1275 4134 1275 3809 
L 1275 3500 
L 2222 3500 
L 2222 3053 
L 1275 3053 
L 1275 0 
L 697 0 
L 697 3053 
L 147 3053 
L 147 3500 
L 697 3500 
L 697 3744 
Q 697 4328 969 4595 
Q 1241 4863 1831 4863 
L 2375 4863 
z
" transform="scale(0.015625)"/>
       <path id="DejaVuSans-64" d="M 2906 2969 
L 2906 4863 
L 3481 4863 
L 3481 0 
L 2906 0 
L 2906 525 
Q 2725 213 2448 61 
Q 2172 -91 1784 -91 
Q 1150 -91 751 415 
Q 353 922 353 1747 
Q 353 2572 751 3078 
Q 1150 3584 1784 3584 
Q 2172 3584 2448 3432 
Q 2725 3281 2906 2969 
z
M 947 1747 
Q 947 1113 1208 752 
Q 1469 391 1925 391 
Q 2381 391 2643 752 
Q 2906 1113 2906 1747 
Q 2906 2381 2643 2742 
Q 2381 3103 1925 3103 
Q 1469 3103 1208 2742 
Q 947 2381 947 1747 
z
" transform="scale(0.015625)"/>
       <path id="DejaVuSans-63" d="M 3122 3366 
L 3122 2828 
Q 2878 2963 2633 3030 
Q 2388 3097 2138 3097 
Q 1578 3097 1268 2742 
Q 959 2388 959 1747 
Q 959 1106 1268 751 
Q 1578 397 2138 397 
Q 2388 397 2633 464 
Q 2878 531 3122 666 
L 3122 134 
Q 2881 22 2623 -34 
Q 2366 -91 2075 -91 
Q 1284 -91 818 406 
Q 353 903 353 1747 
Q 353 2603 823 3093 
Q 1294 3584 2113 3584 
Q 2378 3584 2631 3529 
Q 2884 3475 3122 3366 
z
" transform="scale(0.015625)"/>
      </defs>
      <use xlink:href="#DejaVuSans-66"/>
      <use xlink:href="#DejaVuSans-65" x="35.205078"/>
      <use xlink:href="#DejaVuSans-65" x="96.728516"/>
      <use xlink:href="#DejaVuSans-64" x="158.251953"/>
      <use xlink:href="#DejaVuSans-62" x="221.728516"/>
      <use xlink:href="#DejaVuSans-61" x="285.205078"/>
      <use xlink:href="#DejaVuSans-63" x="346.484375"/>
      <use xlink:href="#DejaVuSans-6b" x="401.464844"/>
     </g>
    </g>
   </g>
  </g>
 </g>
 <defs>
  <clipPath id="pd1482b28cf">
   <rect x="53.795" y="14.64" width="367.405" height="232.084"/>
  </clipPath>
 </defs>
</svg>
