<?xml version="1.0" encoding="utf-8" standalone="no"?>
<!DOCTYPE svg PUBLIC "-//W3C//DTD SVG 1.1//EN"
  "http://www.w3.org/Graphics/SVG/1.1/DTD/svg11.dtd">
<svg xmlns:xlink="http://www.w3.org/1999/xlink" width="432pt" height="288pt" viewBox="0 0 432 288" xmlns="http://www.w3.org/2000/svg" version="1.1">
 <metadata>
  <rdf:RDF xmlns:dc="http://purl.org/dc/elements/1.1/" xmlns:cc="http://creativecommons.org/ns#" xmlns:rdf="http://www.w3.org/1999/02/22-rdf-syntax-ns#">
   <cc:Work>
    <dc:type rdf:resource="http://purl.org/dc/dcmitype/StillImage"/>
    <dc:date>2026-01-08T16:27:12.852649</dc:date>
    <dc:format>image/svg+xml</dc:format>
    <dc:creator>
     <cc:Agent>
      <dc:title>Matplotlib v3.9.0, https://matplotlib.org/</dc:title>
     </cc:Agent>
    </dc:creator>
   </cc:Work>
  </rdf:RDF>
 </metadata>
 <defs>
  <style type="text/css">*{stroke-linejoin: round; stroke-linecap: butt}</style>
 </defs>
 <g id="figure_1">
  <g id="patch_1">
   <path d="M 0 288 
L 432 288 
L 432 0 
L 0 0 
z
" style="fill: #ffffff"/>
  </g>
  <g id="axes_1">
   <g id="patch_2">
    <path d="M 53.795 246.724 
L 421.2 246.724 
L 421.2 14.64 
L 53.795 14.64 
z
" style="fill: #ffffff"/>
   </g>
   <g id="matplotlib.axis_1">
    <g id="xtick_1">
     <g id="line2d_1">
      <path d="M 70.495227 246.724 
L 70.495227 14.64 
" clip-path="url(#p7b74cc1e40)" style="fill: none; stroke-dasharray: 0.5,0.825; stroke-dashoffset: 0; stroke: #b0b0b0; stroke-opacity: 0.7; stroke-width: 0.5"/>
     </g>
     <g id="line2d_2">
      <defs>
       <path id="m950dda65f3" d="M 0 0 
L 0 3.5 
" style="stroke: #000000; stroke-width: 0.8"/>
      </defs>
      <g>
       <use xlink:href="#m950dda65f3" x="70.495227" y="246.724" style="stroke: #000000; stroke-width: 0.8"/>
      </g>
     </g>
     <g id="text_1">
      <!-- $\mathdefault{10^{0}}$ -->
      <g transform="translate(61.695227 261.322437) scale(0.1 -0.1)">
       <defs>
        <path id="DejaVuSans-31" d="M 794 531 
L 1825 531 
L 1825 4091 
L 703 3866 
L 703 4441 
L 1819 4666 
L 2450 4666 
L 2450 531 
L 3481 531 
L 3481 0 
L 794 0 
L 794 531 
z
" transform="scale(0.015625)"/>
        <path id="DejaVuSans-30" d="M 2034 4250 
Q 1547 4250 1301 3770 
Q 1056 3291 1056 2328 
Q 1056 1369 1301 889 
Q 1547 409 2034 409 
Q 2525 409 2770 889 
Q 3016 1369 3016 2328 
Q 3016 3291 2770 3770 
Q 2525 4250 2034 4250 
z
M 2034 4750 
Q 2819 4750 3233 4129 
Q 3647 3509 3647 2328 
Q 3647 1150 3233 529 
Q 2819 -91 2034 -91 
Q 1250 -91 836 529 
Q 422 1150 422 2328 
Q 422 3509 836 4129 
Q 1250 4750 2034 4750 
z
" transform="scale(0.015625)"/>
       </defs>
       <use xlink:href="#DejaVuSans-31" transform="translate(0 0.765625)"/>
       <use xlink:href="#DejaVuSans-30" transform="translate(63.623047 0.765625)"/>
       <use xlink:href="#DejaVuSans-30" transform="translate(128.203125 39.046875) scale(0.7)"/>
      </g>
     </g>
    </g>
    <g id="xtick_2">
     <g id="line2d_3">
      <path d="M 120.767921 246.724 
L 120.767921 14.64 
" clip-path="url(#p7b74cc1e40)" style="fill: none; stroke-dasharray: 0.5,0.825; stroke-dashoffset: 0; stroke: #b0b0b0; stroke-opacity: 0.7; stroke-width: 0.5"/>
     </g>
     <g id="line2d_4">
      <g>
       <use xlink:href="#m950dda65f3" x="120.767921" y="246.724" style="stroke: #000000; stroke-width: 0.8"/>
      </g>
     </g>
    </g>
    <g id="xtick_3">
     <g id="line2d_5">
      <path d="M 187.224807 246.724 
L 187.224807 14.64 
" clip-path="url(#p7b74cc1e40)" style="fill: none; stroke-dasharray: 0.5,0.825; stroke-dashoffset: 0; stroke: #b0b0b0; stroke-opacity: 0.7; stroke-width: 0.5"/>
     </g>
     <g id="line2d_6">
      <g>
       <use xlink:href="#m950dda65f3" x="187.224807" y="246.724" style="stroke: #000000; stroke-width: 0.8"/>
      </g>
     </g>
    </g>
    <g id="xtick_4">
     <g id="line2d_7">
      <path d="M 237.4975 246.724 
L 237.4975 14.64 
" clip-path="url(#p7b74cc1e40)" style="fill: none; stroke-dasharray: 0.5,0.825; stroke-dashoffset: 0; stroke: #b0b0b0; stroke-opacity: 0.7; stroke-width: 0.5"/>
     </g>
     <g id="line2d_8">
      <g>
       <use xlink:href="#m950dda65f3" x="237.4975" y="246.724" style="stroke: #000000; stroke-width: 0.8"/>
      </g>
     </g>
     <g id="text_2">
      <!-- $\mathdefault{10^{1}}$ -->
      <g transform="translate(228.6975 261.322437) scale(0.1 -0.1)">
       <use xlink:href="#DejaVuSans-31" transform="translate(0 0.684375)"/>
       <use xlink:href="#DejaVuSans-30" transform="translate(63.623047 0.684375)"/>
       <use xlink:href="#DejaVuSans-31" transform="translate(128.203125 38.965625) scale(0.7)"/>
      </g>
     </g>
    </g>
    <g id="xtick_5">
     <g id="line2d_9">
      <path d="M 287.770193 246.724 
L 287.770193 14.64 
" clip-path="url(#p7b74cc1e40)" style="fill: none; stroke-dasharray: 0.5,0.825; stroke-dashoffset: 0; stroke: #b0b0b0; stroke-opacity: 0.7; stroke-width: 0.5"/>
     </g>
     <g id="line2d_10">
      <g>
       <use xlink:href="#m950dda65f3" x="287.770193" y="246.724" style="stroke: #000000; stroke-width: 0.8"/>
      </g>
     </g>
    </g>
    <g id="xtick_6">
     <g id="line2d_11">
      <path d="M 354.227079 246.724 
L 354.227079 14.64 
" clip-path="url(#p7b74cc1e40)" style="fill: none; stroke-dasharray: 0.5,0.825; stroke-dashoffset: 0; stroke: #b0b0b0; stroke-opacity: 0.7; stroke-width: 0.5"/>
     </g>
     <g id="line2d_12">
      <g>
       <use xlink:href="#m950dda65f3" x="354.227079" y="246.724" style="stroke: #000000; stroke-width: 0.8"/>
      </g>
     </g>
    </g>
    <g id="xtick_7">
     <g id="line2d_13">
      <path d="M 404.499773 246.724 
L 404.499773 14.64 
" clip-path="url(#p7b74cc1e40)" style="fill: none; stroke-dasharray: 0.5,0.825; stroke-dashoffset: 0; stroke: #b0b0b0; stroke-opacity: 0.7; stroke-width: 0.5"/>
     </g>
     <g id="line2d_14">
      <g>
       <use xlink:href="#m950dda65f3" x="404.499773" y="246.724" style="stroke: #000000; stroke-width: 0.8"/>
      </g>
     </g>
     <g id="text_3">
      <!-- $\mathdefault{10^{2}}$ -->
      <g transform="translate(395.699773 261.322437) scale(0.1 -0.1)">
       <defs>
        <path id="DejaVuSans-32" d="M 1228 531 
L 3431 531 
L 3431 0 
L 469 0 
L 469 531 
Q 828 903 1448 1529 
Q 2069 2156 2228 2338 
Q 2531 2678 2651 2914 
Q 2772 3150 2772 3378 
Q 2772 3750 2511 3984 
Q 2250 4219 1831 4219 
Q 1534 4219 1204 4116 
Q 875 4013 500 3803 
L 500 4441 
Q 881 4594 1212 4672 
Q 1544 4750 1819 4750 
Q 2544 4750 2975 4387 
Q 3406 4025 3406 3419 
Q 3406 3131 3298 2873 
Q 3191 2616 2906 2266 
Q 2828 2175 2409 1742 
Q 1991 1309 1228 531 
z
" transform="scale(0.015625)"/>
       </defs>
       <use xlink:href="#DejaVuSans-31" transform="translate(0 0.765625)"/>
       <use xlink:href="#DejaVuSans-30" transform="translate(63.623047 0.765625)"/>
       <use xlink:href="#DejaVuSans-32" transform="translate(128.203125 39.046875) scale(0.7)"/>
      </g>
     </g>
    </g>
    <g id="xtick_8">
     <g id="line2d_15">
      <defs>
       <path id="me3ecf3d194" d="M 0 0 
L 0 2 
" style="stroke: #000000; stroke-width: 0.6"/>
      </defs>
      <g>
       <use xlink:href="#me3ecf3d194" x="54.311035" y="246.724" style="stroke: #000000; stroke-width: 0.6"/>
      </g>
     </g>
    </g>
    <g id="xtick_9">
     <g id="line2d_16">
      <g>
       <use xlink:href="#me3ecf3d194" x="62.853622" y="246.724" style="stroke: #000000; stroke-width: 0.6"/>
      </g>
     </g>
    </g>
    <g id="xtick_10">
     <g id="line2d_17">
      <g>
       <use xlink:href="#me3ecf3d194" x="150.175561" y="246.724" style="stroke: #000000; stroke-width: 0.6"/>
      </g>
     </g>
    </g>
    <g id="xtick_11">
     <g id="line2d_18">
      <g>
       <use xlink:href="#me3ecf3d194" x="171.040614" y="246.724" style="stroke: #000000; stroke-width: 0.6"/>
      </g>
     </g>
    </g>
    <g id="xtick_12">
     <g id="line2d_19">
      <g>
       <use xlink:href="#me3ecf3d194" x="200.448255" y="246.724" style="stroke: #000000; stroke-width: 0.6"/>
      </g>
     </g>
    </g>
    <g id="xtick_13">
     <g id="line2d_20">
      <g>
       <use xlink:href="#me3ecf3d194" x="211.628521" y="246.724" style="stroke: #000000; stroke-width: 0.6"/>
      </g>
     </g>
    </g>
    <g id="xtick_14">
     <g id="line2d_21">
      <g>
       <use xlink:href="#me3ecf3d194" x="221.313308" y="246.724" style="stroke: #000000; stroke-width: 0.6"/>
      </g>
     </g>
    </g>
    <g id="xtick_15">
     <g id="line2d_22">
      <g>
       <use xlink:href="#me3ecf3d194" x="229.855895" y="246.724" style="stroke: #000000; stroke-width: 0.6"/>
      </g>
     </g>
    </g>
    <g id="xtick_16">
     <g id="line2d_23">
      <g>
       <use xlink:href="#me3ecf3d194" x="317.177834" y="246.724" style="stroke: #000000; stroke-width: 0.6"/>
      </g>
     </g>
    </g>
    <g id="xtick_17">
     <g id="line2d_24">
      <g>
       <use xlink:href="#me3ecf3d194" x="338.042887" y="246.724" style="stroke: #000000; stroke-width: 0.6"/>
      </g>
     </g>
    </g>
    <g id="xtick_18">
     <g id="line2d_25">
      <g>
       <use xlink:href="#me3ecf3d194" x="367.450527" y="246.724" style="stroke: #000000; stroke-width: 0.6"/>
      </g>
     </g>
    </g>
    <g id="xtick_19">
     <g id="line2d_26">
      <g>
       <use xlink:href="#me3ecf3d194" x="378.630793" y="246.724" style="stroke: #000000; stroke-width: 0.6"/>
      </g>
     </g>
    </g>
    <g id="xtick_20">
     <g id="line2d_27">
      <g>
       <use xlink:href="#me3ecf3d194" x="388.31558" y="246.724" style="stroke: #000000; stroke-width: 0.6"/>
      </g>
     </g>
    </g>
    <g id="xtick_21">
     <g id="line2d_28">
      <g>
       <use xlink:href="#me3ecf3d194" x="396.858168" y="246.724" style="stroke: #000000; stroke-width: 0.6"/>
      </g>
     </g>
    </g>
    <g id="text_4">
     <!-- k -->
     <g transform="translate(234.602187 275.000563) scale(0.1 -0.1)">
      <defs>
       <path id="DejaVuSans-6b" d="M 581 4863 
L 1159 4863 
L 1159 1991 
L 2875 3500 
L 3609 3500 
L 1753 1863 
L 3688 0 
L 2938 0 
L 1159 1709 
L 1159 0 
L 581 0 
L 581 4863 
z
" transform="scale(0.015625)"/>
      </defs>
      <use xlink:href="#DejaVuSans-6b"/>
     </g>
    </g>
   </g>
   <g id="matplotlib.axis_2">
    <g id="ytick_1">
     <g id="line2d_29">
      <path d="M 53.795 246.724 
L 421.2 246.724 
" clip-path="url(#p7b74cc1e40)" style="fill: none; stroke-dasharray: 0.5,0.825; stroke-dashoffset: 0; stroke: #b0b0b0; stroke-opacity: 0.7; stroke-width: 0.5"/>
     </g>
     <g id="line2d_30">
      <defs>
       <path id="m320542e080" d="M 0 0 
L -3.5 0 
" style="stroke: #000000; stroke-width: 0.8"/>
      </defs>
      <g>
       <use xlink:href="#m320542e080" x="53.795" y="246.724" style="stroke: #000000; stroke-width: 0.8"/>
      </g>
     </g>
     <g id="text_5">
      <!-- 0.60 -->
      <g transform="translate(24.529375 250.523219) scale(0.1 -0.1)">
       <defs>
        <path id="DejaVuSans-2e" d="M 684 794 
L 1344 794 
L 1344 0 
L 684 0 
L 684 794 
z
" transform="scale(0.015625)"/>
        <path id="DejaVuSans-36" d="M 2113 2584 
Q 1688 2584 1439 2293 
Q 1191 2003 1191 1497 
Q 1191 994 1439 701 
Q 1688 409 2113 409 
Q 2538 409 2786 701 
Q 3034 994 3034 1497 
Q 3034 2003 2786 2293 
Q 2538 2584 2113 2584 
z
M 3366 4563 
L 3366 3988 
Q 3128 4100 2886 4159 
Q 2644 4219 2406 4219 
Q 1781 4219 1451 3797 
Q 1122 3375 1075 2522 
Q 1259 2794 1537 2939 
Q 1816 3084 2150 3084 
Q 2853 3084 3261 2657 
Q 3669 2231 3669 1497 
Q 3669 778 3244 343 
Q 2819 -91 2113 -91 
Q 1303 -91 875 529 
Q 447 1150 447 2328 
Q 447 3434 972 4092 
Q 1497 4750 2381 4750 
Q 2619 4750 2861 4703 
Q 3103 4656 3366 4563 
z
" transform="scale(0.015625)"/>
       </defs>
       <use xlink:href="#DejaVuSans-30"/>
       <use xlink:href="#DejaVuSans-2e" x="63.623047"/>
       <use xlink:href="#DejaVuSans-36" x="95.410156"/>
       <use xlink:href="#DejaVuSans-30" x="159.033203"/>
      </g>
     </g>
    </g>
    <g id="ytick_2">
     <g id="line2d_31">
      <path d="M 53.795 217.7135 
L 421.2 217.7135 
" clip-path="url(#p7b74cc1e40)" style="fill: none; stroke-dasharray: 0.5,0.825; stroke-dashoffset: 0; stroke: #b0b0b0; stroke-opacity: 0.7; stroke-width: 0.5"/>
     </g>
     <g id="line2d_32">
      <g>
       <use xlink:href="#m320542e080" x="53.795" y="217.7135" style="stroke: #000000; stroke-width: 0.8"/>
      </g>
     </g>
     <g id="text_6">
      <!-- 0.65 -->
      <g transform="translate(24.529375 221.512719) scale(0.1 -0.1)">
       <defs>
        <path id="DejaVuSans-35" d="M 691 4666 
L 3169 4666 
L 3169 4134 
L 1269 4134 
L 1269 2991 
Q 1406 3038 1543 3061 
Q 1681 3084 1819 3084 
Q 2600 3084 3056 2656 
Q 3513 2228 3513 1497 
Q 3513 744 3044 326 
Q 2575 -91 1722 -91 
Q 1428 -91 1123 -41 
Q 819 9 494 109 
L 494 744 
Q 775 591 1075 516 
Q 1375 441 1709 441 
Q 2250 441 2565 725 
Q 2881 1009 2881 1497 
Q 2881 1984 2565 2268 
Q 2250 2553 1709 2553 
Q 1456 2553 1204 2497 
Q 953 2441 691 2322 
L 691 4666 
z
" transform="scale(0.015625)"/>
       </defs>
       <use xlink:href="#DejaVuSans-30"/>
       <use xlink:href="#DejaVuSans-2e" x="63.623047"/>
       <use xlink:href="#DejaVuSans-36" x="95.410156"/>
       <use xlink:href="#DejaVuSans-35" x="159.033203"/>
      </g>
     </g>
    </g>
    <g id="ytick_3">
     <g id="line2d_33">
      <path d="M 53.795 188.703 
L 421.2 188.703 
" clip-path="url(#p7b74cc1e40)" style="fill: none; stroke-dasharray: 0.5,0.825; stroke-dashoffset: 0; stroke: #b0b0b0; stroke-opacity: 0.7; stroke-width: 0.5"/>
     </g>
     <g id="line2d_34">
      <g>
       <use xlink:href="#m320542e080" x="53.795" y="188.703" style="stroke: #000000; stroke-width: 0.8"/>
      </g>
     </g>
     <g id="text_7">
      <!-- 0.70 -->
      <g transform="translate(24.529375 192.502219) scale(0.1 -0.1)">
       <defs>
        <path id="DejaVuSans-37" d="M 525 4666 
L 3525 4666 
L 3525 4397 
L 1831 0 
L 1172 0 
L 2766 4134 
L 525 4134 
L 525 4666 
z
" transform="scale(0.015625)"/>
       </defs>
       <use xlink:href="#DejaVuSans-30"/>
       <use xlink:href="#DejaVuSans-2e" x="63.623047"/>
       <use xlink:href="#DejaVuSans-37" x="95.410156"/>
       <use xlink:href="#DejaVuSans-30" x="159.033203"/>
      </g>
     </g>
    </g>
    <g id="ytick_4">
     <g id="line2d_35">
      <path d="M 53.795 159.6925 
L 421.2 159.6925 
" clip-path="url(#p7b74cc1e40)" style="fill: none; stroke-dasharray: 0.5,0.825; stroke-dashoffset: 0; stroke: #b0b0b0; stroke-opacity: 0.7; stroke-width: 0.5"/>
     </g>
     <g id="line2d_36">
      <g>
       <use xlink:href="#m320542e080" x="53.795" y="159.6925" style="stroke: #000000; stroke-width: 0.8"/>
      </g>
     </g>
     <g id="text_8">
      <!-- 0.75 -->
      <g transform="translate(24.529375 163.491719) scale(0.1 -0.1)">
       <use xlink:href="#DejaVuSans-30"/>
       <use xlink:href="#DejaVuSans-2e" x="63.623047"/>
       <use xlink:href="#DejaVuSans-37" x="95.410156"/>
       <use xlink:href="#DejaVuSans-35" x="159.033203"/>
      </g>
     </g>
    </g>
    <g id="ytick_5">
     <g id="line2d_37">
      <path d="M 53.795 130.682 
L 421.2 130.682 
" clip-path="url(#p7b74cc1e40)" style="fill: none; stroke-dasharray: 0.5,0.825; stroke-dashoffset: 0; stroke: #b0b0b0; stroke-opacity: 0.7; stroke-width: 0.5"/>
     </g>
     <g id="line2d_38">
      <g>
       <use xlink:href="#m320542e080" x="53.795" y="130.682" style="stroke: #000000; stroke-width: 0.8"/>
      </g>
     </g>
     <g id="text_9">
      <!-- 0.80 -->
      <g transform="translate(24.529375 134.481219) scale(0.1 -0.1)">
       <defs>
        <path id="DejaVuSans-38" d="M 2034 2216 
Q 1584 2216 1326 1975 
Q 1069 1734 1069 1313 
Q 1069 891 1326 650 
Q 1584 409 2034 409 
Q 2484 409 2743 651 
Q 3003 894 3003 1313 
Q 3003 1734 2745 1975 
Q 2488 2216 2034 2216 
z
M 1403 2484 
Q 997 2584 770 2862 
Q 544 3141 544 3541 
Q 544 4100 942 4425 
Q 1341 4750 2034 4750 
Q 2731 4750 3128 4425 
Q 3525 4100 3525 3541 
Q 3525 3141 3298 2862 
Q 3072 2584 2669 2484 
Q 3125 2378 3379 2068 
Q 3634 1759 3634 1313 
Q 3634 634 3220 271 
Q 2806 -91 2034 -91 
Q 1263 -91 848 271 
Q 434 634 434 1313 
Q 434 1759 690 2068 
Q 947 2378 1403 2484 
z
M 1172 3481 
Q 1172 3119 1398 2916 
Q 1625 2713 2034 2713 
Q 2441 2713 2670 2916 
Q 2900 3119 2900 3481 
Q 2900 3844 2670 4047 
Q 2441 4250 2034 4250 
Q 1625 4250 1398 4047 
Q 1172 3844 1172 3481 
z
" transform="scale(0.015625)"/>
       </defs>
       <use xlink:href="#DejaVuSans-30"/>
       <use xlink:href="#DejaVuSans-2e" x="63.623047"/>
       <use xlink:href="#DejaVuSans-38" x="95.410156"/>
       <use xlink:href="#DejaVuSans-30" x="159.033203"/>
      </g>
     </g>
    </g>
    <g id="ytick_6">
     <g id="line2d_39">
      <path d="M 53.795 101.6715 
L 421.2 101.6715 
" clip-path="url(#p7b74cc1e40)" style="fill: none; stroke-dasharray: 0.5,0.825; stroke-dashoffset: 0; stroke: #b0b0b0; stroke-opacity: 0.7; stroke-width: 0.5"/>
     </g>
     <g id="line2d_40">
      <g>
       <use xlink:href="#m320542e080" x="53.795" y="101.6715" style="stroke: #000000; stroke-width: 0.8"/>
      </g>
     </g>
     <g id="text_10">
      <!-- 0.85 -->
      <g transform="translate(24.529375 105.470719) scale(0.1 -0.1)">
       <use xlink:href="#DejaVuSans-30"/>
       <use xlink:href="#DejaVuSans-2e" x="63.623047"/>
       <use xlink:href="#DejaVuSans-38" x="95.410156"/>
       <use xlink:href="#DejaVuSans-35" x="159.033203"/>
      </g>
     </g>
    </g>
    <g id="ytick_7">
     <g id="line2d_41">
      <path d="M 53.795 72.661 
L 421.2 72.661 
" clip-path="url(#p7b74cc1e40)" style="fill: none; stroke-dasharray: 0.5,0.825; stroke-dashoffset: 0; stroke: #b0b0b0; stroke-opacity: 0.7; stroke-width: 0.5"/>
     </g>
     <g id="line2d_42">
      <g>
       <use xlink:href="#m320542e080" x="53.795" y="72.661" style="stroke: #000000; stroke-width: 0.8"/>
      </g>
     </g>
     <g id="text_11">
      <!-- 0.90 -->
      <g transform="translate(24.529375 76.460219) scale(0.1 -0.1)">
       <defs>
        <path id="DejaVuSans-39" d="M 703 97 
L 703 672 
Q 941 559 1184 500 
Q 1428 441 1663 441 
Q 2288 441 2617 861 
Q 2947 1281 2994 2138 
Q 2813 1869 2534 1725 
Q 2256 1581 1919 1581 
Q 1219 1581 811 2004 
Q 403 2428 403 3163 
Q 403 3881 828 4315 
Q 1253 4750 1959 4750 
Q 2769 4750 3195 4129 
Q 3622 3509 3622 2328 
Q 3622 1225 3098 567 
Q 2575 -91 1691 -91 
Q 1453 -91 1209 -44 
Q 966 3 703 97 
z
M 1959 2075 
Q 2384 2075 2632 2365 
Q 2881 2656 2881 3163 
Q 2881 3666 2632 3958 
Q 2384 4250 1959 4250 
Q 1534 4250 1286 3958 
Q 1038 3666 1038 3163 
Q 1038 2656 1286 2365 
Q 1534 2075 1959 2075 
z
" transform="scale(0.015625)"/>
       </defs>
       <use xlink:href="#DejaVuSans-30"/>
       <use xlink:href="#DejaVuSans-2e" x="63.623047"/>
       <use xlink:href="#DejaVuSans-39" x="95.410156"/>
       <use xlink:href="#DejaVuSans-30" x="159.033203"/>
      </g>
     </g>
    </g>
    <g id="ytick_8">
     <g id="line2d_43">
      <path d="M 53.795 43.6505 
L 421.2 43.6505 
" clip-path="url(#p7b74cc1e40)" style="fill: none; stroke-dasharray: 0.5,0.825; stroke-dashoffset: 0; stroke: #b0b0b0; stroke-opacity: 0.7; stroke-width: 0.5"/>
     </g>
     <g id="line2d_44">
      <g>
       <use xlink:href="#m320542e080" x="53.795" y="43.6505" style="stroke: #000000; stroke-width: 0.8"/>
      </g>
     </g>
     <g id="text_12">
      <!-- 0.95 -->
      <g transform="translate(24.529375 47.449719) scale(0.1 -0.1)">
       <use xlink:href="#DejaVuSans-30"/>
       <use xlink:href="#DejaVuSans-2e" x="63.623047"/>
       <use xlink:href="#DejaVuSans-39" x="95.410156"/>
       <use xlink:href="#DejaVuSans-35" x="159.033203"/>
      </g>
     </g>
    </g>
    <g id="ytick_9">
     <g id="line2d_45">
      <path d="M 53.795 14.64 
L 421.2 14.64 
" clip-path="url(#p7b74cc1e40)" style="fill: none; stroke-dasharray: 0.5,0.825; stroke-dashoffset: 0; stroke: #b0b0b0; stroke-opacity: 0.7; stroke-width: 0.5"/>
     </g>
     <g id="line2d_46">
      <g>
       <use xlink:href="#m320542e080" x="53.795" y="14.64" style="stroke: #000000; stroke-width: 0.8"/>
      </g>
     </g>
     <g id="text_13">
      <!-- 1.00 -->
      <g transform="translate(24.529375 18.439219) scale(0.1 -0.1)">
       <use xlink:href="#DejaVuSans-31"/>
       <use xlink:href="#DejaVuSans-2e" x="63.623047"/>
       <use xlink:href="#DejaVuSans-30" x="95.410156"/>
       <use xlink:href="#DejaVuSans-30" x="159.033203"/>
      </g>
     </g>
    </g>
    <g id="text_14">
     <!-- pass@k -->
     <g transform="translate(18.449688 150.024969) rotate(-90) scale(0.1 -0.1)">
      <defs>
       <path id="DejaVuSans-70" d="M 1159 525 
L 1159 -1331 
L 581 -1331 
L 581 3500 
L 1159 3500 
L 1159 2969 
Q 1341 3281 1617 3432 
Q 1894 3584 2278 3584 
Q 2916 3584 3314 3078 
Q 3713 2572 3713 1747 
Q 3713 922 3314 415 
Q 2916 -91 2278 -91 
Q 1894 -91 1617 61 
Q 1341 213 1159 525 
z
M 3116 1747 
Q 3116 2381 2855 2742 
Q 2594 3103 2138 3103 
Q 1681 3103 1420 2742 
Q 1159 2381 1159 1747 
Q 1159 1113 1420 752 
Q 1681 391 2138 391 
Q 2594 391 2855 752 
Q 3116 1113 3116 1747 
z
" transform="scale(0.015625)"/>
       <path id="DejaVuSans-61" d="M 2194 1759 
Q 1497 1759 1228 1600 
Q 959 1441 959 1056 
Q 959 750 1161 570 
Q 1363 391 1709 391 
Q 2188 391 2477 730 
Q 2766 1069 2766 1631 
L 2766 1759 
L 2194 1759 
z
M 3341 1997 
L 3341 0 
L 2766 0 
L 2766 531 
Q 2569 213 2275 61 
Q 1981 -91 1556 -91 
Q 1019 -91 701 211 
Q 384 513 384 1019 
Q 384 1609 779 1909 
Q 1175 2209 1959 2209 
L 2766 2209 
L 2766 2266 
Q 2766 2663 2505 2880 
Q 2244 3097 1772 3097 
Q 1472 3097 1187 3025 
Q 903 2953 641 2809 
L 641 3341 
Q 956 3463 1253 3523 
Q 1550 3584 1831 3584 
Q 2591 3584 2966 3190 
Q 3341 2797 3341 1997 
z
" transform="scale(0.015625)"/>
       <path id="DejaVuSans-73" d="M 2834 3397 
L 2834 2853 
Q 2591 2978 2328 3040 
Q 2066 3103 1784 3103 
Q 1356 3103 1142 2972 
Q 928 2841 928 2578 
Q 928 2378 1081 2264 
Q 1234 2150 1697 2047 
L 1894 2003 
Q 2506 1872 2764 1633 
Q 3022 1394 3022 966 
Q 3022 478 2636 193 
Q 2250 -91 1575 -91 
Q 1294 -91 989 -36 
Q 684 19 347 128 
L 347 722 
Q 666 556 975 473 
Q 1284 391 1588 391 
Q 1994 391 2212 530 
Q 2431 669 2431 922 
Q 2431 1156 2273 1281 
Q 2116 1406 1581 1522 
L 1381 1569 
Q 847 1681 609 1914 
Q 372 2147 372 2553 
Q 372 3047 722 3315 
Q 1072 3584 1716 3584 
Q 2034 3584 2315 3537 
Q 2597 3491 2834 3397 
z
" transform="scale(0.015625)"/>
       <path id="DejaVuSans-40" d="M 2381 1678 
Q 2381 1231 2603 976 
Q 2825 722 3213 722 
Q 3597 722 3817 978 
Q 4038 1234 4038 1678 
Q 4038 2116 3813 2373 
Q 3588 2631 3206 2631 
Q 2828 2631 2604 2375 
Q 2381 2119 2381 1678 
z
M 4084 744 
Q 3897 503 3655 389 
Q 3413 275 3091 275 
Q 2553 275 2217 664 
Q 1881 1053 1881 1678 
Q 1881 2303 2218 2693 
Q 2556 3084 3091 3084 
Q 3413 3084 3656 2967 
Q 3900 2850 4084 2613 
L 4084 3022 
L 4531 3022 
L 4531 722 
Q 4988 791 5245 1139 
Q 5503 1488 5503 2041 
Q 5503 2375 5404 2669 
Q 5306 2963 5106 3213 
Q 4781 3622 4314 3839 
Q 3847 4056 3297 4056 
Q 2913 4056 2559 3954 
Q 2206 3853 1906 3653 
Q 1416 3334 1139 2817 
Q 863 2300 863 1697 
Q 863 1200 1042 765 
Q 1222 331 1563 0 
Q 1891 -325 2322 -495 
Q 2753 -666 3244 -666 
Q 3647 -666 4036 -530 
Q 4425 -394 4750 -141 
L 5031 -488 
Q 4641 -791 4180 -952 
Q 3719 -1113 3244 -1113 
Q 2666 -1113 2153 -908 
Q 1641 -703 1241 -313 
Q 841 78 631 592 
Q 422 1106 422 1697 
Q 422 2266 634 2781 
Q 847 3297 1241 3688 
Q 1644 4084 2172 4295 
Q 2700 4506 3291 4506 
Q 3953 4506 4520 4234 
Q 5088 3963 5472 3463 
Q 5706 3156 5829 2797 
Q 5953 2438 5953 2053 
Q 5953 1231 5456 756 
Q 4959 281 4084 263 
L 4084 744 
z
" transform="scale(0.015625)"/>
      </defs>
      <use xlink:href="#DejaVuSans-70"/>
      <use xlink:href="#DejaVuSans-61" x="63.476562"/>
      <use xlink:href="#DejaVuSans-73" x="124.755859"/>
      <use xlink:href="#DejaVuSans-73" x="176.855469"/>
      <use xlink:href="#DejaVuSans-40" x="228.955078"/>
      <use xlink:href="#DejaVuSans-6b" x="328.955078"/>
     </g>
    </g>
   </g>
   <g id="line2d_47">
    <path d="M 70.495227 230.864927 
L 120.767921 169.343131 
L 150.175561 143.439204 
L 171.040614 129.686264 
L 187.224807 121.189382 
L 200.448255 115.413397 
L 211.628521 111.250527 
L 221.313308 108.134445 
L 229.855895 105.737261 
L 237.4975 103.851852 
L 244.410172 102.33976 
L 250.720948 101.105043 
L 256.526299 100.079658 
L 261.901214 99.21459 
L 266.90514 98.474125 
L 271.586001 97.832 
L 275.982994 97.268745 
L 280.128589 96.769809 
L 284.049985 96.324215 
L 287.770193 95.923599 
L 291.308855 95.561514 
L 294.682866 95.232921 
L 297.906871 94.933816 
L 300.993641 94.660966 
L 303.954386 94.411711 
L 306.798992 94.183821 
L 309.536229 93.97539 
L 312.173908 93.784765 
L 314.719017 93.610484 
L 317.177834 93.451242 
L 319.55602 93.30586 
L 321.858694 93.17326 
L 324.090506 93.052453 
L 326.255687 92.942526 
L 328.3581 92.842634 
L 330.401282 92.751988 
L 332.388479 92.669857 
L 334.322678 92.595559 
L 336.206633 92.528459 
L 338.042887 92.467962 
L 339.833797 92.413518 
L 341.581548 92.364613 
L 343.288172 92.320767 
L 344.955559 92.281537 
L 346.585474 92.246511 
L 348.179564 92.215307 
L 349.73937 92.187569 
L 351.266335 92.162972 
L 352.761814 92.141213 
L 354.227079 92.122014 
L 355.663328 92.105118 
L 357.071686 92.090292 
L 358.453216 92.077319 
L 359.808922 92.066002 
L 361.139752 92.056161 
L 362.446601 92.047632 
L 363.730319 92.040267 
L 364.99171 92.033929 
L 366.231538 92.028496 
L 367.450527 92.023858 
L 368.649367 92.019917 
L 369.828713 92.016581 
L 370.989188 92.013772 
L 372.131388 92.011419 
L 373.255878 92.009458 
L 374.3632 92.007833 
L 375.453869 92.006495 
L 376.52838 92.0054 
L 377.587205 92.00451 
L 378.630793 92.003793 
L 379.659579 92.003219 
L 380.673975 92.002764 
L 381.67438 92.002406 
L 382.661173 92.002128 
L 383.63472 92.001914 
L 384.595372 92.001751 
L 385.543466 92.00163 
L 386.479326 92.001539 
L 387.403264 92.001474 
L 388.31558 92.001427 
L 389.216563 92.001394 
L 390.10649 92.001372 
L 390.98563 92.001357 
L 391.854241 92.001347 
L 392.712573 92.001341 
L 393.560865 92.001337 
L 394.39935 92.001335 
L 395.228253 92.001334 
L 396.047789 92.001334 
L 396.858168 92.001333 
L 397.659592 92.001333 
L 398.452258 92.001333 
L 399.236354 92.001333 
L 400.012063 92.001333 
L 400.779564 92.001333 
L 401.539028 92.001333 
L 402.290622 92.001333 
L 403.034507 92.001333 
L 403.77084 92.001333 
L 404.499773 92.001333 
" clip-path="url(#p7b74cc1e40)" style="fill: none; stroke: #000000; stroke-width: 2; stroke-linecap: square"/>
    <defs>
     <path id="m0de2c21644" d="M 0 1.25 
C 0.331504 1.25 0.649475 1.118292 0.883883 0.883883 
C 1.118292 0.649475 1.25 0.331504 1.25 0 
C 1.25 -0.331504 1.118292 -0.649475 0.883883 -0.883883 
C 0.649475 -1.118292 0.331504 -1.25 0 -1.25 
C -0.331504 -1.25 -0.649475 -1.118292 -0.883883 -0.883883 
C -1.118292 -0.649475 -1.25 -0.331504 -1.25 0 
C -1.25 0.331504 -1.118292 0.649475 -0.883883 0.883883 
C -0.649475 1.118292 -0.331504 1.25 0 1.25 
z
" style="stroke: #000000"/>
    </defs>
    <g clip-path="url(#p7b74cc1e40)">
     <use xlink:href="#m0de2c21644" x="70.495227" y="230.864927" style="stroke: #000000"/>
     <use xlink:href="#m0de2c21644" x="120.767921" y="169.343131" style="stroke: #000000"/>
     <use xlink:href="#m0de2c21644" x="187.224807" y="121.189382" style="stroke: #000000"/>
     <use xlink:href="#m0de2c21644" x="237.4975" y="103.851852" style="stroke: #000000"/>
     <use xlink:href="#m0de2c21644" x="287.770193" y="95.923599" style="stroke: #000000"/>
     <use xlink:href="#m0de2c21644" x="354.227079" y="92.122014" style="stroke: #000000"/>
     <use xlink:href="#m0de2c21644" x="404.499773" y="92.001333" style="stroke: #000000"/>
    </g>
   </g>
   <g id="line2d_48">
    <path d="M 83.98629 289 
L 120.767921 242.342731 
L 150.175561 217.615946 
L 171.040614 202.355306 
L 187.224807 197.044439 
L 200.448255 190.050207 
L 211.628521 186.227758 
L 221.313308 183.931341 
L 229.855895 182.073083 
L 237.4975 180.542271 
L 244.410172 179.26365 
L 250.720948 178.182599 
L 256.526299 177.258169 
L 261.901214 176.279665 
L 266.90514 175.618351 
L 271.586001 175.0376 
L 275.982994 174.518872 
L 280.128589 174.052104 
L 284.049985 173.629648 
L 287.770193 173.245598 
L 291.308855 172.895314 
L 294.682866 172.575086 
L 297.906871 172.281879 
L 300.993641 172.013165 
L 303.954386 171.7668 
L 306.798992 171.540911 
L 309.536229 171.333859 
L 312.173908 171.144176 
L 314.719017 170.970537 
L 317.177834 170.811729 
L 319.55602 170.666637 
L 321.858694 170.534231 
L 324.090506 170.413552 
L 326.255687 170.303709 
L 328.3581 170.203871 
L 330.401282 170.113261 
L 332.388479 170.031153 
L 334.322678 169.95687 
L 336.206633 169.889778 
L 338.042887 169.829287 
L 339.833797 169.774846 
L 341.581548 169.725943 
L 343.288172 169.682099 
L 344.955559 169.64287 
L 346.585474 169.607844 
L 348.179564 169.57664 
L 349.73937 169.548902 
L 351.266335 169.524305 
L 352.761814 169.502546 
L 354.227079 169.483347 
L 355.663328 169.466452 
L 357.071686 169.451625 
L 358.453216 169.438652 
L 359.808922 169.427335 
L 361.139752 169.417494 
L 362.446601 169.408966 
L 363.730319 169.4016 
L 364.99171 169.395262 
L 366.231538 169.389829 
L 367.450527 169.385192 
L 368.649367 169.38125 
L 369.828713 169.377914 
L 370.989188 169.375106 
L 372.131388 169.372752 
L 373.255878 169.370791 
L 374.3632 169.369166 
L 375.453869 169.367828 
L 376.52838 169.366733 
L 377.587205 169.365844 
L 378.630793 169.365126 
L 379.659579 169.364552 
L 380.673975 169.364097 
L 381.67438 169.36374 
L 382.661173 169.363461 
L 383.63472 169.363247 
L 384.595372 169.363085 
L 385.543466 169.362963 
L 386.479326 169.362873 
L 387.403264 169.362807 
L 388.31558 169.36276 
L 389.216563 169.362728 
L 390.10649 169.362705 
L 390.98563 169.36269 
L 391.854241 169.36268 
L 392.712573 169.362674 
L 393.560865 169.362671 
L 394.39935 169.362669 
L 395.228253 169.362668 
L 396.047789 169.362667 
L 396.858168 169.362667 
L 397.659592 169.362667 
L 398.452258 169.362667 
L 399.236354 169.362667 
L 400.012063 169.362667 
L 400.779564 169.362667 
L 401.539028 169.362667 
L 402.290622 169.362667 
L 403.034507 169.362667 
L 403.77084 169.362667 
L 404.499773 169.362667 
" clip-path="url(#p7b74cc1e40)" style="fill: none; stroke-dasharray: 3.7,1.6; stroke-dashoffset: 0; stroke: #000000"/>
    <g clip-path="url(#p7b74cc1e40)">
     <use xlink:href="#m0de2c21644" x="70.495227" y="306.113329" style="stroke: #000000"/>
     <use xlink:href="#m0de2c21644" x="120.767921" y="242.342731" style="stroke: #000000"/>
     <use xlink:href="#m0de2c21644" x="187.224807" y="197.044439" style="stroke: #000000"/>
     <use xlink:href="#m0de2c21644" x="237.4975" y="180.542271" style="stroke: #000000"/>
     <use xlink:href="#m0de2c21644" x="287.770193" y="173.245598" style="stroke: #000000"/>
     <use xlink:href="#m0de2c21644" x="354.227079" y="169.483347" style="stroke: #000000"/>
     <use xlink:href="#m0de2c21644" x="404.499773" y="169.362667" style="stroke: #000000"/>
    </g>
   </g>
   <g id="line2d_49">
    <path d="M 70.495227 153.286015 
L 120.767921 90.529807 
L 150.175561 66.94873 
L 171.040614 54.130469 
L 187.224807 46.251411 
L 200.448255 42.37904 
L 211.628521 39.618157 
L 221.313308 37.941607 
L 229.855895 36.751643 
L 237.4975 35.851284 
L 244.410172 35.210935 
L 250.720948 34.842474 
L 256.526299 34.583196 
L 261.901214 34.400839 
L 266.90514 34.272757 
L 271.586001 34.182984 
L 275.982994 34.120231 
L 280.128589 34.076506 
L 284.049985 34.046149 
L 287.770193 34.025159 
L 291.308855 34.010708 
L 294.682866 34.000804 
L 297.906871 33.994046 
L 300.993641 33.989478 
L 303.954386 33.986402 
L 306.798992 33.984326 
L 309.536229 33.982943 
L 312.173908 33.982028 
L 314.719017 33.981426 
L 317.177834 33.981032 
L 319.55602 33.980777 
L 321.858694 33.980613 
L 324.090506 33.980508 
L 326.255687 33.980442 
L 328.3581 33.9804 
L 330.401282 33.980374 
L 332.388479 33.980358 
L 334.322678 33.980348 
L 336.206633 33.980342 
L 338.042887 33.980338 
L 339.833797 33.980336 
L 341.581548 33.980335 
L 343.288172 33.980334 
L 344.955559 33.980334 
L 346.585474 33.980334 
L 348.179564 33.980333 
L 349.73937 33.980333 
L 351.266335 33.980333 
L 352.761814 33.980333 
L 354.227079 33.980333 
L 355.663328 33.980333 
L 357.071686 33.980333 
L 358.453216 33.980333 
L 359.808922 33.980333 
L 361.139752 33.980333 
L 362.446601 33.980333 
L 363.730319 33.980333 
L 364.99171 33.980333 
L 366.231538 33.980333 
L 367.450527 33.980333 
L 368.649367 33.980333 
L 369.828713 33.980333 
L 370.989188 33.980333 
L 372.131388 33.980333 
L 373.255878 33.980333 
L 374.3632 33.980333 
L 375.453869 33.980333 
L 376.52838 33.980333 
L 377.587205 33.980333 
L 378.630793 33.980333 
L 379.659579 33.980333 
L 380.673975 33.980333 
L 381.67438 33.980333 
L 382.661173 33.980333 
L 383.63472 33.980333 
L 384.595372 33.980333 
L 385.543466 33.980333 
L 386.479326 33.980333 
L 387.403264 33.980333 
L 388.31558 33.980333 
L 389.216563 33.980333 
L 390.10649 33.980333 
L 390.98563 33.980333 
L 391.854241 33.980333 
L 392.712573 33.980333 
L 393.560865 33.980333 
L 394.39935 33.980333 
L 395.228253 33.980333 
L 396.047789 33.980333 
L 396.858168 33.980333 
L 397.659592 33.980333 
L 398.452258 33.980333 
L 399.236354 33.980333 
L 400.012063 33.980333 
L 400.779564 33.980333 
L 401.539028 33.980333 
L 402.290622 33.980333 
L 403.034507 33.980333 
L 403.77084 33.980333 
L 404.499773 33.980333 
" clip-path="url(#p7b74cc1e40)" style="fill: none; stroke-dasharray: 1,1.65; stroke-dashoffset: 0; stroke: #000000"/>
    <g clip-path="url(#p7b74cc1e40)">
     <use xlink:href="#m0de2c21644" x="70.495227" y="153.286015" style="stroke: #000000"/>
     <use xlink:href="#m0de2c21644" x="120.767921" y="90.529807" style="stroke: #000000"/>
     <use xlink:href="#m0de2c21644" x="187.224807" y="46.251411" style="stroke: #000000"/>
     <use xlink:href="#m0de2c21644" x="237.4975" y="35.851284" style="stroke: #000000"/>
     <use xlink:href="#m0de2c21644" x="287.770193" y="34.025159" style="stroke: #000000"/>
     <use xlink:href="#m0de2c21644" x="354.227079" y="33.980333" style="stroke: #000000"/>
     <use xlink:href="#m0de2c21644" x="404.499773" y="33.980333" style="stroke: #000000"/>
    </g>
   </g>
   <g id="line2d_50">
    <path d="M 70.495227 229.3177 
L 120.767921 164.52563 
L 150.175561 134.55521 
L 171.040614 118.237671 
L 187.224807 108.597593 
L 200.448255 102.570097 
L 211.628521 98.636475 
L 221.313308 95.978522 
L 229.855895 94.126852 
L 237.4975 92.799129 
L 244.410172 91.819335 
L 250.720948 91.074657 
L 256.526299 90.491193 
L 261.901214 90.019647 
L 266.90514 89.626629 
L 271.586001 89.289222 
L 275.982994 88.991506 
L 280.128589 88.722309 
L 284.049985 88.473718 
L 287.770193 88.240078 
L 291.308855 88.017326 
L 294.682866 87.80252 
L 297.906871 87.593524 
L 300.993641 87.388778 
L 303.954386 87.18714 
L 306.798992 86.987773 
L 309.536229 86.790065 
L 312.173908 86.593565 
L 314.719017 86.397942 
L 317.177834 86.202955 
L 319.55602 86.008427 
L 321.858694 85.814228 
L 324.090506 85.620265 
L 326.255687 85.426471 
L 328.3581 85.232796 
L 330.401282 85.039205 
L 332.388479 84.845673 
L 334.322678 84.652182 
L 336.206633 84.458719 
L 338.042887 84.265276 
L 339.833797 84.071846 
L 341.581548 83.878425 
L 343.288172 83.68501 
L 344.955559 83.491599 
L 346.585474 83.298191 
L 348.179564 83.104785 
L 349.73937 82.91138 
L 351.266335 82.717975 
L 352.761814 82.524571 
L 354.227079 82.331167 
L 355.663328 82.137764 
L 357.071686 81.94436 
L 358.453216 81.750957 
L 359.808922 81.557553 
L 361.139752 81.36415 
L 362.446601 81.170747 
L 363.730319 80.977343 
L 364.99171 80.78394 
L 366.231538 80.590537 
L 367.450527 80.397133 
L 368.649367 80.20373 
L 369.828713 80.010327 
L 370.989188 79.816923 
L 372.131388 79.62352 
L 373.255878 79.430117 
L 374.3632 79.236713 
L 375.453869 79.04331 
L 376.52838 78.849907 
L 377.587205 78.656503 
L 378.630793 78.4631 
L 379.659579 78.269697 
L 380.673975 78.076293 
L 381.67438 77.88289 
L 382.661173 77.689487 
L 383.63472 77.496083 
L 384.595372 77.30268 
L 385.543466 77.109277 
L 386.479326 76.915873 
L 387.403264 76.72247 
L 388.31558 76.529067 
L 389.216563 76.335663 
L 390.10649 76.14226 
L 390.98563 75.948857 
L 391.854241 75.755453 
L 392.712573 75.56205 
L 393.560865 75.368647 
L 394.39935 75.175243 
L 395.228253 74.98184 
L 396.047789 74.788437 
L 396.858168 74.595033 
L 397.659592 74.40163 
L 398.452258 74.208227 
L 399.236354 74.014823 
L 400.012063 73.82142 
L 400.779564 73.628017 
L 401.539028 73.434613 
L 402.290622 73.24121 
L 403.034507 73.047807 
L 403.77084 72.854403 
L 404.499773 72.661 
" clip-path="url(#p7b74cc1e40)" style="fill: none; stroke: #555555; stroke-width: 2; stroke-linecap: square"/>
    <defs>
     <path id="m2aaf56d031" d="M -1.25 1.25 
L 1.25 1.25 
L 1.25 -1.25 
L -1.25 -1.25 
z
" style="stroke: #555555; stroke-linejoin: miter"/>
    </defs>
    <g clip-path="url(#p7b74cc1e40)">
     <use xlink:href="#m2aaf56d031" x="70.495227" y="229.3177" style="fill: #555555; stroke: #555555; stroke-linejoin: miter"/>
     <use xlink:href="#m2aaf56d031" x="120.767921" y="164.52563" style="fill: #555555; stroke: #555555; stroke-linejoin: miter"/>
     <use xlink:href="#m2aaf56d031" x="187.224807" y="108.597593" style="fill: #555555; stroke: #555555; stroke-linejoin: miter"/>
     <use xlink:href="#m2aaf56d031" x="237.4975" y="92.799129" style="fill: #555555; stroke: #555555; stroke-linejoin: miter"/>
     <use xlink:href="#m2aaf56d031" x="287.770193" y="88.240078" style="fill: #555555; stroke: #555555; stroke-linejoin: miter"/>
     <use xlink:href="#m2aaf56d031" x="354.227079" y="82.331167" style="fill: #555555; stroke: #555555; stroke-linejoin: miter"/>
     <use xlink:href="#m2aaf56d031" x="404.499773" y="72.661" style="fill: #555555; stroke: #555555; stroke-linejoin: miter"/>
    </g>
   </g>
   <g id="line2d_51">
    <path d="M 81.441021 289 
L 120.767921 235.174891 
L 150.175561 205.184753 
L 171.040614 190.054398 
L 187.224807 180.320867 
L 200.448255 175.680617 
L 211.628521 172.84965 
L 221.313308 170.617248 
L 229.855895 168.81666 
L 237.4975 167.599464 
L 244.410172 166.648693 
L 250.720948 165.86181 
L 256.526299 165.171284 
L 261.901214 164.564123 
L 266.90514 164.016128 
L 271.586001 163.510676 
L 275.982994 163.03615 
L 280.128589 162.584306 
L 284.049985 162.149212 
L 287.770193 161.726546 
L 291.308855 161.313132 
L 294.682866 160.906616 
L 297.906871 160.505244 
L 300.993641 160.107706 
L 303.954386 159.71302 
L 306.798992 159.32045 
L 309.536229 158.929446 
L 312.173908 158.539597 
L 314.719017 158.150595 
L 317.177834 157.762213 
L 319.55602 157.374282 
L 321.858694 156.986677 
L 324.090506 156.599307 
L 326.255687 156.212105 
L 328.3581 155.825023 
L 330.401282 155.438026 
L 332.388479 155.051088 
L 334.322678 154.664192 
L 336.206633 154.277325 
L 338.042887 153.890478 
L 339.833797 153.503644 
L 341.581548 153.116819 
L 343.288172 152.730001 
L 344.955559 152.343186 
L 346.585474 151.956375 
L 348.179564 151.569565 
L 349.73937 151.182756 
L 351.266335 150.795949 
L 352.761814 150.409141 
L 354.227079 150.022335 
L 355.663328 150.022334 
L 357.071686 150.022334 
L 358.453216 150.022333 
L 359.808922 150.022333 
L 361.139752 150.022333 
L 362.446601 150.022333 
L 363.730319 150.022333 
L 364.99171 150.022333 
L 366.231538 150.022333 
L 367.450527 150.022333 
L 368.649367 150.022333 
L 369.828713 150.022333 
L 370.989188 150.022333 
L 372.131388 150.022333 
L 373.255878 150.022333 
L 374.3632 150.022333 
L 375.453869 150.022333 
L 376.52838 150.022333 
L 377.587205 150.022333 
L 378.630793 150.022333 
L 379.659579 150.022333 
L 380.673975 150.022333 
L 381.67438 150.022333 
L 382.661173 150.022333 
L 383.63472 150.022333 
L 384.595372 150.022333 
L 385.543466 150.022333 
L 386.479326 150.022333 
L 387.403264 150.022333 
L 388.31558 150.022333 
L 389.216563 149.079492 
L 390.10649 148.136651 
L 390.98563 147.19381 
L 391.854241 146.250968 
L 392.712573 145.308127 
L 393.560865 144.365286 
L 394.39935 143.422445 
L 395.228253 142.479603 
L 396.047789 141.536762 
L 396.858168 140.593921 
L 397.659592 139.65108 
L 398.452258 138.708238 
L 399.236354 137.765397 
L 400.012063 136.822556 
L 400.779564 135.879715 
L 401.539028 134.936873 
L 402.290622 133.994032 
L 403.034507 133.051191 
L 403.77084 132.10835 
L 404.499773 131.165508 
" clip-path="url(#p7b74cc1e40)" style="fill: none; stroke-dasharray: 3.7,1.6; stroke-dashoffset: 0; stroke: #555555"/>
    <g clip-path="url(#p7b74cc1e40)">
     <use xlink:href="#m2aaf56d031" x="70.495227" y="303.981057" style="fill: #555555; stroke: #555555; stroke-linejoin: miter"/>
     <use xlink:href="#m2aaf56d031" x="120.767921" y="235.174891" style="fill: #555555; stroke: #555555; stroke-linejoin: miter"/>
     <use xlink:href="#m2aaf56d031" x="187.224807" y="180.320867" style="fill: #555555; stroke: #555555; stroke-linejoin: miter"/>
     <use xlink:href="#m2aaf56d031" x="237.4975" y="167.599464" style="fill: #555555; stroke: #555555; stroke-linejoin: miter"/>
     <use xlink:href="#m2aaf56d031" x="287.770193" y="161.726546" style="fill: #555555; stroke: #555555; stroke-linejoin: miter"/>
     <use xlink:href="#m2aaf56d031" x="354.227079" y="150.022335" style="fill: #555555; stroke: #555555; stroke-linejoin: miter"/>
     <use xlink:href="#m2aaf56d031" x="404.499773" y="131.165508" style="fill: #555555; stroke: #555555; stroke-linejoin: miter"/>
    </g>
   </g>
   <g id="line2d_52">
    <path d="M 70.495227 156.008167 
L 120.767921 95.622371 
L 150.175561 67.321531 
L 171.040614 53.455899 
L 187.224807 45.360686 
L 200.448255 41.186286 
L 211.628521 38.023806 
L 221.313308 36.369098 
L 229.855895 35.142896 
L 237.4975 34.2426 
L 244.410172 33.44793 
L 250.720948 32.825342 
L 256.526299 32.321022 
L 261.901214 31.897792 
L 266.90514 31.538046 
L 271.586001 31.223314 
L 275.982994 30.940906 
L 280.128589 30.681952 
L 284.049985 30.440156 
L 287.770193 30.210989 
L 291.308855 29.991157 
L 294.682866 29.778244 
L 297.906871 29.570463 
L 300.993641 29.366492 
L 303.954386 29.165344 
L 306.798992 28.966285 
L 309.536229 28.768768 
L 312.173908 28.572386 
L 314.719017 28.376835 
L 317.177834 28.181892 
L 319.55602 27.98739 
L 321.858694 27.793207 
L 324.090506 27.599253 
L 326.255687 27.405464 
L 328.3581 27.211792 
L 330.401282 27.018203 
L 332.388479 26.824672 
L 334.322678 26.631181 
L 336.206633 26.437719 
L 338.042887 26.244276 
L 339.833797 26.050846 
L 341.581548 25.857425 
L 343.288172 25.66401 
L 344.955559 25.470599 
L 346.585474 25.277191 
L 348.179564 25.083785 
L 349.73937 24.89038 
L 351.266335 24.696975 
L 352.761814 24.503571 
L 354.227079 24.310167 
L 355.663328 24.116764 
L 357.071686 23.92336 
L 358.453216 23.729957 
L 359.808922 23.536553 
L 361.139752 23.34315 
L 362.446601 23.149747 
L 363.730319 22.956343 
L 364.99171 22.76294 
L 366.231538 22.569537 
L 367.450527 22.376133 
L 368.649367 22.18273 
L 369.828713 21.989327 
L 370.989188 21.795923 
L 372.131388 21.60252 
L 373.255878 21.409117 
L 374.3632 21.215713 
L 375.453869 21.02231 
L 376.52838 20.828907 
L 377.587205 20.635503 
L 378.630793 20.4421 
L 379.659579 20.248697 
L 380.673975 20.055293 
L 381.67438 19.86189 
L 382.661173 19.668487 
L 383.63472 19.475083 
L 384.595372 19.28168 
L 385.543466 19.088277 
L 386.479326 18.894873 
L 387.403264 18.70147 
L 388.31558 18.508067 
L 389.216563 18.314663 
L 390.10649 18.12126 
L 390.98563 17.927857 
L 391.854241 17.734453 
L 392.712573 17.54105 
L 393.560865 17.347647 
L 394.39935 17.154243 
L 395.228253 16.96084 
L 396.047789 16.767437 
L 396.858168 16.574033 
L 397.659592 16.38063 
L 398.452258 16.187227 
L 399.236354 15.993823 
L 400.012063 15.80042 
L 400.779564 15.607017 
L 401.539028 15.413613 
L 402.290622 15.22021 
L 403.034507 15.026807 
L 403.77084 14.833403 
L 404.499773 14.64 
" clip-path="url(#p7b74cc1e40)" style="fill: none; stroke-dasharray: 1,1.65; stroke-dashoffset: 0; stroke: #555555"/>
    <g clip-path="url(#p7b74cc1e40)">
     <use xlink:href="#m2aaf56d031" x="70.495227" y="156.008167" style="fill: #555555; stroke: #555555; stroke-linejoin: miter"/>
     <use xlink:href="#m2aaf56d031" x="120.767921" y="95.622371" style="fill: #555555; stroke: #555555; stroke-linejoin: miter"/>
     <use xlink:href="#m2aaf56d031" x="187.224807" y="45.360686" style="fill: #555555; stroke: #555555; stroke-linejoin: miter"/>
     <use xlink:href="#m2aaf56d031" x="237.4975" y="34.2426" style="fill: #555555; stroke: #555555; stroke-linejoin: miter"/>
     <use xlink:href="#m2aaf56d031" x="287.770193" y="30.210989" style="fill: #555555; stroke: #555555; stroke-linejoin: miter"/>
     <use xlink:href="#m2aaf56d031" x="354.227079" y="24.310167" style="fill: #555555; stroke: #555555; stroke-linejoin: miter"/>
     <use xlink:href="#m2aaf56d031" x="404.499773" y="14.64" style="fill: #555555; stroke: #555555; stroke-linejoin: miter"/>
    </g>
   </g>
   <g id="line2d_53">
    <path d="M 70.495227 151.182753 
L 120.767921 104.383054 
L 150.175561 86.443948 
L 171.040614 77.112415 
L 187.224807 71.424903 
L 200.448255 67.543648 
L 211.628521 64.661731 
L 221.313308 62.392299 
L 229.855895 60.53483 
L 237.4975 58.976063 
L 244.410172 57.646 
L 250.720948 56.497601 
L 256.526299 55.496998 
L 261.901214 54.618521 
L 266.90514 53.841999 
L 271.586001 53.151192 
L 275.982994 52.532811 
L 280.128589 51.975857 
L 284.049985 51.471159 
L 287.770193 51.01102 
L 291.308855 50.588956 
L 294.682866 50.199484 
L 297.906871 49.837951 
L 300.993641 49.500397 
L 303.954386 49.183446 
L 306.798992 48.884211 
L 309.536229 48.600218 
L 312.173908 48.329343 
L 314.719017 48.069759 
L 317.177834 47.819893 
L 319.55602 47.578387 
L 321.858694 47.344071 
L 324.090506 47.115931 
L 326.255687 46.893092 
L 328.3581 46.674799 
L 330.401282 46.460397 
L 332.388479 46.24932 
L 334.322678 46.041079 
L 336.206633 45.835255 
L 338.042887 45.631482 
L 339.833797 45.429449 
L 341.581548 45.228886 
L 343.288172 45.029563 
L 344.955559 44.831282 
L 346.585474 44.633874 
L 348.179564 44.437196 
L 349.73937 44.241126 
L 351.266335 44.04556 
L 352.761814 43.85041 
L 354.227079 43.655603 
L 355.663328 43.461076 
L 357.071686 43.266779 
L 358.453216 43.072669 
L 359.808922 42.878709 
L 361.139752 42.68487 
L 362.446601 42.491127 
L 363.730319 42.297462 
L 364.99171 42.103858 
L 366.231538 41.910301 
L 367.450527 41.716782 
L 368.649367 41.523292 
L 369.828713 41.329824 
L 370.989188 41.136373 
L 372.131388 40.942935 
L 373.255878 40.749507 
L 374.3632 40.556086 
L 375.453869 40.36267 
L 376.52838 40.169258 
L 377.587205 39.975848 
L 378.630793 39.782441 
L 379.659579 39.589035 
L 380.673975 39.39563 
L 381.67438 39.202225 
L 382.661173 39.008821 
L 383.63472 38.815417 
L 384.595372 38.622014 
L 385.543466 38.42861 
L 386.479326 38.235207 
L 387.403264 38.041803 
L 388.31558 37.8484 
L 389.216563 37.654997 
L 390.10649 37.461593 
L 390.98563 37.26819 
L 391.854241 37.074787 
L 392.712573 36.881383 
L 393.560865 36.68798 
L 394.39935 36.494577 
L 395.228253 36.301173 
L 396.047789 36.10777 
L 396.858168 35.914367 
L 397.659592 35.720963 
L 398.452258 35.52756 
L 399.236354 35.334157 
L 400.012063 35.140753 
L 400.779564 34.94735 
L 401.539028 34.753947 
L 402.290622 34.560543 
L 403.034507 34.36714 
L 403.77084 34.173737 
L 404.499773 33.980333 
" clip-path="url(#p7b74cc1e40)" style="fill: none; stroke: #aaaaaa; stroke-width: 2; stroke-linecap: square"/>
    <defs>
     <path id="m3015e10a75" d="M 0 1.767767 
L 1.767767 0 
L 0 -1.767767 
L -1.767767 0 
z
" style="stroke: #aaaaaa; stroke-linejoin: miter"/>
    </defs>
    <g clip-path="url(#p7b74cc1e40)">
     <use xlink:href="#m3015e10a75" x="70.495227" y="151.182753" style="fill: #aaaaaa; stroke: #aaaaaa; stroke-linejoin: miter"/>
     <use xlink:href="#m3015e10a75" x="120.767921" y="104.383054" style="fill: #aaaaaa; stroke: #aaaaaa; stroke-linejoin: miter"/>
     <use xlink:href="#m3015e10a75" x="187.224807" y="71.424903" style="fill: #aaaaaa; stroke: #aaaaaa; stroke-linejoin: miter"/>
     <use xlink:href="#m3015e10a75" x="237.4975" y="58.976063" style="fill: #aaaaaa; stroke: #aaaaaa; stroke-linejoin: miter"/>
     <use xlink:href="#m3015e10a75" x="287.770193" y="51.01102" style="fill: #aaaaaa; stroke: #aaaaaa; stroke-linejoin: miter"/>
     <use xlink:href="#m3015e10a75" x="354.227079" y="43.655603" style="fill: #aaaaaa; stroke: #aaaaaa; stroke-linejoin: miter"/>
     <use xlink:href="#m3015e10a75" x="404.499773" y="33.980333" style="fill: #aaaaaa; stroke: #aaaaaa; stroke-linejoin: miter"/>
    </g>
   </g>
   <g id="line2d_54">
    <path d="M 70.495227 219.458965 
L 120.767921 168.470862 
L 150.175561 147.815861 
L 171.040614 134.793219 
L 187.224807 128.077285 
L 200.448255 123.632976 
L 211.628521 120.8779 
L 221.313308 117.318791 
L 229.855895 115.101291 
L 237.4975 113.320843 
L 244.410172 112.172316 
L 250.720948 111.131069 
L 256.526299 110.175864 
L 261.901214 109.31467 
L 266.90514 108.949879 
L 271.586001 107.696891 
L 275.982994 106.490413 
L 280.128589 105.198808 
L 284.049985 104.364054 
L 287.770193 103.890063 
L 291.308855 103.436147 
L 294.682866 102.997812 
L 297.906871 102.571533 
L 300.993641 102.154556 
L 303.954386 101.744736 
L 306.798992 101.340406 
L 309.536229 100.940277 
L 312.173908 100.543355 
L 314.719017 100.148872 
L 317.177834 99.756245 
L 319.55602 99.365023 
L 321.858694 98.974865 
L 324.090506 98.585512 
L 326.255687 98.191707 
L 328.3581 97.804456 
L 330.401282 97.417335 
L 332.388479 97.030307 
L 334.322678 96.643346 
L 336.206633 96.256432 
L 338.042887 95.869551 
L 339.833797 95.482694 
L 341.581548 95.095853 
L 343.288172 94.709024 
L 344.955559 94.322202 
L 346.585474 93.935385 
L 348.179564 93.548572 
L 349.73937 93.161761 
L 351.266335 92.774951 
L 352.761814 92.388143 
L 354.227079 92.001466 
L 355.663328 91.618506 
L 357.071686 91.230806 
L 358.453216 90.843292 
L 359.808922 90.455929 
L 361.139752 90.068686 
L 362.446601 89.681541 
L 363.730319 89.294472 
L 364.99171 88.907465 
L 366.231538 88.520505 
L 367.450527 88.133582 
L 368.649367 87.746689 
L 369.828713 87.359818 
L 370.989188 86.972963 
L 372.131388 86.586122 
L 373.255878 86.19929 
L 374.3632 85.812466 
L 375.453869 85.425646 
L 376.52838 85.038831 
L 377.587205 84.652018 
L 378.630793 84.265207 
L 379.659579 83.878398 
L 380.673975 83.49159 
L 381.67438 83.104782 
L 382.661173 82.717974 
L 383.63472 82.331167 
L 384.595372 81.94436 
L 385.543466 81.557554 
L 386.479326 81.170747 
L 387.403264 80.78394 
L 388.31558 80.397133 
L 389.216563 80.010327 
L 390.10649 79.62352 
L 390.98563 79.236713 
L 391.854241 78.849907 
L 392.712573 78.4631 
L 393.560865 78.076293 
L 394.39935 77.689487 
L 395.228253 77.30268 
L 396.047789 76.915873 
L 396.858168 76.529067 
L 397.659592 76.14226 
L 398.452258 75.755453 
L 399.236354 75.368647 
L 400.012063 74.98184 
L 400.779564 74.595033 
L 401.539028 74.208227 
L 402.290622 73.82142 
L 403.034507 73.434613 
L 403.77084 73.047807 
L 404.499773 72.661 
" clip-path="url(#p7b74cc1e40)" style="fill: none; stroke-dasharray: 3.7,1.6; stroke-dashoffset: 0; stroke: #aaaaaa"/>
    <g clip-path="url(#p7b74cc1e40)">
     <use xlink:href="#m3015e10a75" x="70.495227" y="219.458965" style="fill: #aaaaaa; stroke: #aaaaaa; stroke-linejoin: miter"/>
     <use xlink:href="#m3015e10a75" x="120.767921" y="168.470862" style="fill: #aaaaaa; stroke: #aaaaaa; stroke-linejoin: miter"/>
     <use xlink:href="#m3015e10a75" x="187.224807" y="128.077285" style="fill: #aaaaaa; stroke: #aaaaaa; stroke-linejoin: miter"/>
     <use xlink:href="#m3015e10a75" x="237.4975" y="113.320843" style="fill: #aaaaaa; stroke: #aaaaaa; stroke-linejoin: miter"/>
     <use xlink:href="#m3015e10a75" x="287.770193" y="103.890063" style="fill: #aaaaaa; stroke: #aaaaaa; stroke-linejoin: miter"/>
     <use xlink:href="#m3015e10a75" x="354.227079" y="92.001466" style="fill: #aaaaaa; stroke: #aaaaaa; stroke-linejoin: miter"/>
     <use xlink:href="#m3015e10a75" x="404.499773" y="72.661" style="fill: #aaaaaa; stroke: #aaaaaa; stroke-linejoin: miter"/>
    </g>
   </g>
   <g id="line2d_55">
    <path d="M 70.495227 82.713138 
L 120.767921 46.260371 
L 150.175561 33.088235 
L 171.040614 26.249431 
L 187.224807 22.599507 
L 200.448255 20.404913 
L 211.628521 18.929337 
L 221.313308 17.884623 
L 229.855895 17.117995 
L 237.4975 16.542173 
L 244.410172 16.103392 
L 250.720948 15.766204 
L 256.526299 15.505916 
L 261.901214 15.304607 
L 266.90514 15.148885 
L 271.586001 15.028551 
L 275.982994 14.935735 
L 280.128589 14.864321 
L 284.049985 14.809532 
L 287.770193 14.767634 
L 291.308855 14.735707 
L 294.682866 14.711469 
L 297.906871 14.693139 
L 300.993641 14.679335 
L 303.954386 14.668983 
L 306.798992 14.661254 
L 309.536229 14.655509 
L 312.173908 14.65126 
L 314.719017 14.648132 
L 317.177834 14.645841 
L 319.55602 14.644172 
L 321.858694 14.642963 
L 324.090506 14.642092 
L 326.255687 14.641467 
L 328.3581 14.641023 
L 330.401282 14.640708 
L 332.388479 14.640487 
L 334.322678 14.640332 
L 336.206633 14.640225 
L 338.042887 14.640151 
L 339.833797 14.640101 
L 341.581548 14.640067 
L 343.288172 14.640044 
L 344.955559 14.640028 
L 346.585474 14.640018 
L 348.179564 14.640012 
L 349.73937 14.640007 
L 351.266335 14.640005 
L 352.761814 14.640003 
L 354.227079 14.640002 
L 355.663328 14.640001 
L 357.071686 14.640001 
L 358.453216 14.64 
L 359.808922 14.64 
L 361.139752 14.64 
L 362.446601 14.64 
L 363.730319 14.64 
L 364.99171 14.64 
L 366.231538 14.64 
L 367.450527 14.64 
L 368.649367 14.64 
L 369.828713 14.64 
L 370.989188 14.64 
L 372.131388 14.64 
L 373.255878 14.64 
L 374.3632 14.64 
L 375.453869 14.64 
L 376.52838 14.64 
L 377.587205 14.64 
L 378.630793 14.64 
L 379.659579 14.64 
L 380.673975 14.64 
L 381.67438 14.64 
L 382.661173 14.64 
L 383.63472 14.64 
L 384.595372 14.64 
L 385.543466 14.64 
L 386.479326 14.64 
L 387.403264 14.64 
L 388.31558 14.64 
L 389.216563 14.64 
L 390.10649 14.64 
L 390.98563 14.64 
L 391.854241 14.64 
L 392.712573 14.64 
L 393.560865 14.64 
L 394.39935 14.64 
L 395.228253 14.64 
L 396.047789 14.64 
L 396.858168 14.64 
L 397.659592 14.64 
L 398.452258 14.64 
L 399.236354 14.64 
L 400.012063 14.64 
L 400.779564 14.64 
L 401.539028 14.64 
L 402.290622 14.64 
L 403.034507 14.64 
L 403.77084 14.64 
L 404.499773 14.64 
" clip-path="url(#p7b74cc1e40)" style="fill: none; stroke-dasharray: 1,1.65; stroke-dashoffset: 0; stroke: #aaaaaa"/>
    <g clip-path="url(#p7b74cc1e40)">
     <use xlink:href="#m3015e10a75" x="70.495227" y="82.713138" style="fill: #aaaaaa; stroke: #aaaaaa; stroke-linejoin: miter"/>
     <use xlink:href="#m3015e10a75" x="120.767921" y="46.260371" style="fill: #aaaaaa; stroke: #aaaaaa; stroke-linejoin: miter"/>
     <use xlink:href="#m3015e10a75" x="187.224807" y="22.599507" style="fill: #aaaaaa; stroke: #aaaaaa; stroke-linejoin: miter"/>
     <use xlink:href="#m3015e10a75" x="237.4975" y="16.542173" style="fill: #aaaaaa; stroke: #aaaaaa; stroke-linejoin: miter"/>
     <use xlink:href="#m3015e10a75" x="287.770193" y="14.767634" style="fill: #aaaaaa; stroke: #aaaaaa; stroke-linejoin: miter"/>
     <use xlink:href="#m3015e10a75" x="354.227079" y="14.640002" style="fill: #aaaaaa; stroke: #aaaaaa; stroke-linejoin: miter"/>
     <use xlink:href="#m3015e10a75" x="404.499773" y="14.64" style="fill: #aaaaaa; stroke: #aaaaaa; stroke-linejoin: miter"/>
    </g>
   </g>
   <g id="patch_3">
    <path d="M 53.795 246.724 
L 53.795 14.64 
" style="fill: none; stroke: #000000; stroke-width: 0.8; stroke-linejoin: miter; stroke-linecap: square"/>
   </g>
   <g id="patch_4">
    <path d="M 421.2 246.724 
L 421.2 14.64 
" style="fill: none; stroke: #000000; stroke-width: 0.8; stroke-linejoin: miter; stroke-linecap: square"/>
   </g>
   <g id="patch_5">
    <path d="M 53.795 246.724 
L 421.2 246.724 
" style="fill: none; stroke: #000000; stroke-width: 0.8; stroke-linejoin: miter; stroke-linecap: square"/>
   </g>
   <g id="patch_6">
    <path d="M 53.795 14.64 
L 421.2 14.64 
" style="fill: none; stroke: #000000; stroke-width: 0.8; stroke-linejoin: miter; stroke-linecap: square"/>
   </g>
   <g id="legend_1">
    <g id="patch_7">
     <path d="M 336.259375 241.724 
L 414.2 241.724 
Q 416.2 241.724 416.2 239.724 
L 416.2 167.333375 
Q 416.2 165.333375 414.2 165.333375 
L 336.259375 165.333375 
Q 334.259375 165.333375 334.259375 167.333375 
L 334.259375 239.724 
Q 334.259375 241.724 336.259375 241.724 
z
" style="fill: #ffffff; opacity: 0.8; stroke: #cccccc; stroke-linejoin: miter"/>
    </g>
    <g id="line2d_56">
     <path d="M 338.259375 173.431813 
L 348.259375 173.431813 
L 358.259375 173.431813 
" style="fill: none; stroke-dasharray: 3.7,1.6; stroke-dashoffset: 0; stroke: #000000"/>
    </g>
    <g id="text_15">
     <!-- CI lower -->
     <g transform="translate(366.259375 176.931813) scale(0.1 -0.1)">
      <defs>
       <path id="DejaVuSans-43" d="M 4122 4306 
L 4122 3641 
Q 3803 3938 3442 4084 
Q 3081 4231 2675 4231 
Q 1875 4231 1450 3742 
Q 1025 3253 1025 2328 
Q 1025 1406 1450 917 
Q 1875 428 2675 428 
Q 3081 428 3442 575 
Q 3803 722 4122 1019 
L 4122 359 
Q 3791 134 3420 21 
Q 3050 -91 2638 -91 
Q 1578 -91 968 557 
Q 359 1206 359 2328 
Q 359 3453 968 4101 
Q 1578 4750 2638 4750 
Q 3056 4750 3426 4639 
Q 3797 4528 4122 4306 
z
" transform="scale(0.015625)"/>
       <path id="DejaVuSans-49" d="M 628 4666 
L 1259 4666 
L 1259 0 
L 628 0 
L 628 4666 
z
" transform="scale(0.015625)"/>
       <path id="DejaVuSans-20" transform="scale(0.015625)"/>
       <path id="DejaVuSans-6c" d="M 603 4863 
L 1178 4863 
L 1178 0 
L 603 0 
L 603 4863 
z
" transform="scale(0.015625)"/>
       <path id="DejaVuSans-6f" d="M 1959 3097 
Q 1497 3097 1228 2736 
Q 959 2375 959 1747 
Q 959 1119 1226 758 
Q 1494 397 1959 397 
Q 2419 397 2687 759 
Q 2956 1122 2956 1747 
Q 2956 2369 2687 2733 
Q 2419 3097 1959 3097 
z
M 1959 3584 
Q 2709 3584 3137 3096 
Q 3566 2609 3566 1747 
Q 3566 888 3137 398 
Q 2709 -91 1959 -91 
Q 1206 -91 779 398 
Q 353 888 353 1747 
Q 353 2609 779 3096 
Q 1206 3584 1959 3584 
z
" transform="scale(0.015625)"/>
       <path id="DejaVuSans-77" d="M 269 3500 
L 844 3500 
L 1563 769 
L 2278 3500 
L 2956 3500 
L 3675 769 
L 4391 3500 
L 4966 3500 
L 4050 0 
L 3372 0 
L 2619 2869 
L 1863 0 
L 1184 0 
L 269 3500 
z
" transform="scale(0.015625)"/>
       <path id="DejaVuSans-65" d="M 3597 1894 
L 3597 1613 
L 953 1613 
Q 991 1019 1311 708 
Q 1631 397 2203 397 
Q 2534 397 2845 478 
Q 3156 559 3463 722 
L 3463 178 
Q 3153 47 2828 -22 
Q 2503 -91 2169 -91 
Q 1331 -91 842 396 
Q 353 884 353 1716 
Q 353 2575 817 3079 
Q 1281 3584 2069 3584 
Q 2775 3584 3186 3129 
Q 3597 2675 3597 1894 
z
M 3022 2063 
Q 3016 2534 2758 2815 
Q 2500 3097 2075 3097 
Q 1594 3097 1305 2825 
Q 1016 2553 972 2059 
L 3022 2063 
z
" transform="scale(0.015625)"/>
       <path id="DejaVuSans-72" d="M 2631 2963 
Q 2534 3019 2420 3045 
Q 2306 3072 2169 3072 
Q 1681 3072 1420 2755 
Q 1159 2438 1159 1844 
L 1159 0 
L 581 0 
L 581 3500 
L 1159 3500 
L 1159 2956 
Q 1341 3275 1631 3429 
Q 1922 3584 2338 3584 
Q 2397 3584 2469 3576 
Q 2541 3569 2628 3553 
L 2631 2963 
z
" transform="scale(0.015625)"/>
      </defs>
      <use xlink:href="#DejaVuSans-43"/>
      <use xlink:href="#DejaVuSans-49" x="69.824219"/>
      <use xlink:href="#DejaVuSans-20" x="99.316406"/>
      <use xlink:href="#DejaVuSans-6c" x="131.103516"/>
      <use xlink:href="#DejaVuSans-6f" x="158.886719"/>
      <use xlink:href="#DejaVuSans-77" x="220.068359"/>
      <use xlink:href="#DejaVuSans-65" x="301.855469"/>
      <use xlink:href="#DejaVuSans-72" x="363.378906"/>
     </g>
    </g>
    <g id="line2d_57">
     <path d="M 338.259375 188.109938 
L 348.259375 188.109938 
L 358.259375 188.109938 
" style="fill: none; stroke-dasharray: 1,1.65; stroke-dashoffset: 0; stroke: #000000"/>
    </g>
    <g id="text_16">
     <!-- CI upper -->
     <g transform="translate(366.259375 191.609938) scale(0.1 -0.1)">
      <defs>
       <path id="DejaVuSans-75" d="M 544 1381 
L 544 3500 
L 1119 3500 
L 1119 1403 
Q 1119 906 1312 657 
Q 1506 409 1894 409 
Q 2359 409 2629 706 
Q 2900 1003 2900 1516 
L 2900 3500 
L 3475 3500 
L 3475 0 
L 2900 0 
L 2900 538 
Q 2691 219 2414 64 
Q 2138 -91 1772 -91 
Q 1169 -91 856 284 
Q 544 659 544 1381 
z
M 1991 3584 
L 1991 3584 
z
" transform="scale(0.015625)"/>
      </defs>
      <use xlink:href="#DejaVuSans-43"/>
      <use xlink:href="#DejaVuSans-49" x="69.824219"/>
      <use xlink:href="#DejaVuSans-20" x="99.316406"/>
      <use xlink:href="#DejaVuSans-75" x="131.103516"/>
      <use xlink:href="#DejaVuSans-70" x="194.482422"/>
      <use xlink:href="#DejaVuSans-70" x="257.958984"/>
      <use xlink:href="#DejaVuSans-65" x="321.435547"/>
      <use xlink:href="#DejaVuSans-72" x="382.958984"/>
     </g>
    </g>
    <g id="line2d_58">
     <path d="M 338.259375 202.788063 
L 348.259375 202.788063 
L 358.259375 202.788063 
" style="fill: none; stroke: #000000; stroke-width: 2; stroke-linecap: square"/>
     <g>
      <use xlink:href="#m0de2c21644" x="348.259375" y="202.788063" style="stroke: #000000"/>
     </g>
    </g>
    <g id="text_17">
     <!-- baseline -->
     <g transform="translate(366.259375 206.288063) scale(0.1 -0.1)">
      <defs>
       <path id="DejaVuSans-62" d="M 3116 1747 
Q 3116 2381 2855 2742 
Q 2594 3103 2138 3103 
Q 1681 3103 1420 2742 
Q 1159 2381 1159 1747 
Q 1159 1113 1420 752 
Q 1681 391 2138 391 
Q 2594 391 2855 752 
Q 3116 1113 3116 1747 
z
M 1159 2969 
Q 1341 3281 1617 3432 
Q 1894 3584 2278 3584 
Q 2916 3584 3314 3078 
Q 3713 2572 3713 1747 
Q 3713 922 3314 415 
Q 2916 -91 2278 -91 
Q 1894 -91 1617 61 
Q 1341 213 1159 525 
L 1159 0 
L 581 0 
L 581 4863 
L 1159 4863 
L 1159 2969 
z
" transform="scale(0.015625)"/>
       <path id="DejaVuSans-69" d="M 603 3500 
L 1178 3500 
L 1178 0 
L 603 0 
L 603 3500 
z
M 603 4863 
L 1178 4863 
L 1178 4134 
L 603 4134 
L 603 4863 
z
" transform="scale(0.015625)"/>
       <path id="DejaVuSans-6e" d="M 3513 2113 
L 3513 0 
L 2938 0 
L 2938 2094 
Q 2938 2591 2744 2837 
Q 2550 3084 2163 3084 
Q 1697 3084 1428 2787 
Q 1159 2491 1159 1978 
L 1159 0 
L 581 0 
L 581 3500 
L 1159 3500 
L 1159 2956 
Q 1366 3272 1645 3428 
Q 1925 3584 2291 3584 
Q 2894 3584 3203 3211 
Q 3513 2838 3513 2113 
z
" transform="scale(0.015625)"/>
      </defs>
      <use xlink:href="#DejaVuSans-62"/>
      <use xlink:href="#DejaVuSans-61" x="63.476562"/>
      <use xlink:href="#DejaVuSans-73" x="124.755859"/>
      <use xlink:href="#DejaVuSans-65" x="176.855469"/>
      <use xlink:href="#DejaVuSans-6c" x="238.378906"/>
      <use xlink:href="#DejaVuSans-69" x="266.162109"/>
      <use xlink:href="#DejaVuSans-6e" x="293.945312"/>
      <use xlink:href="#DejaVuSans-65" x="357.324219"/>
     </g>
    </g>
    <g id="line2d_59">
     <path d="M 338.259375 217.466188 
L 348.259375 217.466188 
L 358.259375 217.466188 
" style="fill: none; stroke: #555555; stroke-width: 2; stroke-linecap: square"/>
     <g>
      <use xlink:href="#m2aaf56d031" x="348.259375" y="217.466188" style="fill: #555555; stroke: #555555; stroke-linejoin: miter"/>
     </g>
    </g>
    <g id="text_18">
     <!-- CoT -->
     <g transform="translate(366.259375 220.966188) scale(0.1 -0.1)">
      <defs>
       <path id="DejaVuSans-54" d="M -19 4666 
L 3928 4666 
L 3928 4134 
L 2272 4134 
L 2272 0 
L 1638 0 
L 1638 4134 
L -19 4134 
L -19 4666 
z
" transform="scale(0.015625)"/>
      </defs>
      <use xlink:href="#DejaVuSans-43"/>
      <use xlink:href="#DejaVuSans-6f" x="69.824219"/>
      <use xlink:href="#DejaVuSans-54" x="131.005859"/>
     </g>
    </g>
    <g id="line2d_60">
     <path d="M 338.259375 232.144313 
L 348.259375 232.144313 
L 358.259375 232.144313 
" style="fill: none; stroke: #aaaaaa; stroke-width: 2; stroke-linecap: square"/>
     <g>
      <use xlink:href="#m3015e10a75" x="348.259375" y="232.144313" style="fill: #aaaaaa; stroke: #aaaaaa; stroke-linejoin: miter"/>
     </g>
    </g>
    <g id="text_19">
     <!-- feedback -->
     <g transform="translate(366.259375 235.644313) scale(0.1 -0.1)">
      <defs>
       <path id="DejaVuSans-66" d="M 2375 4863 
L 2375 4384 
L 1825 4384 
Q 1516 4384 1395 4259 
Q 1275 4134 1275 3809 
L 1275 3500 
L 2222 3500 
L 2222 3053 
L 1275 3053 
L 1275 0 
L 697 0 
L 697 3053 
L 147 3053 
L 147 3500 
L 697 3500 
L 697 3744 
Q 697 4328 969 4595 
Q 1241 4863 1831 4863 
L 2375 4863 
z
" transform="scale(0.015625)"/>
       <path id="DejaVuSans-64" d="M 2906 2969 
L 2906 4863 
L 3481 4863 
L 3481 0 
L 2906 0 
L 2906 525 
Q 2725 213 2448 61 
Q 2172 -91 1784 -91 
Q 1150 -91 751 415 
Q 353 922 353 1747 
Q 353 2572 751 3078 
Q 1150 3584 1784 3584 
Q 2172 3584 2448 3432 
Q 2725 3281 2906 2969 
z
M 947 1747 
Q 947 1113 1208 752 
Q 1469 391 1925 391 
Q 2381 391 2643 752 
Q 2906 1113 2906 1747 
Q 2906 2381 2643 2742 
Q 2381 3103 1925 3103 
Q 1469 3103 1208 2742 
Q 947 2381 947 1747 
z
" transform="scale(0.015625)"/>
       <path id="DejaVuSans-63" d="M 3122 3366 
L 3122 2828 
Q 2878 2963 2633 3030 
Q 2388 3097 2138 3097 
Q 1578 3097 1268 2742 
Q 959 2388 959 1747 
Q 959 1106 1268 751 
Q 1578 397 2138 397 
Q 2388 397 2633 464 
Q 2878 531 3122 666 
L 3122 134 
Q 2881 22 2623 -34 
Q 2366 -91 2075 -91 
Q 1284 -91 818 406 
Q 353 903 353 1747 
Q 353 2603 823 3093 
Q 1294 3584 2113 3584 
Q 2378 3584 2631 3529 
Q 2884 3475 3122 3366 
z
" transform="scale(0.015625)"/>
      </defs>
      <use xlink:href="#DejaVuSans-66"/>
      <use xlink:href="#DejaVuSans-65" x="35.205078"/>
      <use xlink:href="#DejaVuSans-65" x="96.728516"/>
      <use xlink:href="#DejaVuSans-64" x="158.251953"/>
      <use xlink:href="#DejaVuSans-62" x="221.728516"/>
      <use xlink:href="#DejaVuSans-61" x="285.205078"/>
      <use xlink:href="#DejaVuSans-63" x="346.484375"/>
      <use xlink:href="#DejaVuSans-6b" x="401.464844"/>
     </g>
    </g>
   </g>
  </g>
 </g>
 <defs>
  <clipPath id="p7b74cc1e40">
   <rect x="53.795" y="14.64" width="367.405" height="232.084"/>
  </clipPath>
 </defs>
</svg>
