<?xml version="1.0" encoding="utf-8" standalone="no"?>
<!DOCTYPE svg PUBLIC "-//W3C//DTD SVG 1.1//EN"
  "http://www.w3.org/Graphics/SVG/1.1/DTD/svg11.dtd">
<svg xmlns:xlink="http://www.w3.org/1999/xlink" width="432pt" height="288pt" viewBox="0 0 432 288" xmlns="http://www.w3.org/2000/svg" version="1.1">
 <metadata>
  <rdf:RDF xmlns:dc="http://purl.org/dc/elements/1.1/" xmlns:cc="http://creativecommons.org/ns#" xmlns:rdf="http://www.w3.org/1999/02/22-rdf-syntax-ns#">
   <cc:Work>
    <dc:type rdf:resource="http://purl.org/dc/dcmitype/StillImage"/>
    <dc:date>2026-01-08T16:27:13.403681</dc:date>
    <dc:format>image/svg+xml</dc:format>
    <dc:creator>
     <cc:Agent>
      <dc:title>Matplotlib v3.9.0, https://matplotlib.org/</dc:title>
     </cc:Agent>
    </dc:creator>
   </cc:Work>
  </rdf:RDF>
 </metadata>
 <defs>
  <style type="text/css">*{stroke-linejoin: round; stroke-linecap: butt}</style>
 </defs>
 <g id="figure_1">
  <g id="patch_1">
   <path d="M 0 288 
L 432 288 
L 432 0 
L 0 0 
z
" style="fill: #ffffff"/>
  </g>
  <g id="axes_1">
   <g id="patch_2">
    <path d="M 53.795 246.724 
L 421.2 246.724 
L 421.2 14.64 
L 53.795 14.64 
z
" style="fill: #ffffff"/>
   </g>
   <g id="matplotlib.axis_1">
    <g id="xtick_1">
     <g id="line2d_1">
      <path d="M 70.495227 246.724 
L 70.495227 14.64 
" clip-path="url(#pa5847a4180)" style="fill: none; stroke-dasharray: 0.5,0.825; stroke-dashoffset: 0; stroke: #b0b0b0; stroke-opacity: 0.7; stroke-width: 0.5"/>
     </g>
     <g id="line2d_2">
      <defs>
       <path id="mfca5bafb1a" d="M 0 0 
L 0 3.5 
" style="stroke: #000000; stroke-width: 0.8"/>
      </defs>
      <g>
       <use xlink:href="#mfca5bafb1a" x="70.495227" y="246.724" style="stroke: #000000; stroke-width: 0.8"/>
      </g>
     </g>
     <g id="text_1">
      <!-- $\mathdefault{10^{0}}$ -->
      <g transform="translate(61.695227 261.322437) scale(0.1 -0.1)">
       <defs>
        <path id="DejaVuSans-31" d="M 794 531 
L 1825 531 
L 1825 4091 
L 703 3866 
L 703 4441 
L 1819 4666 
L 2450 4666 
L 2450 531 
L 3481 531 
L 3481 0 
L 794 0 
L 794 531 
z
" transform="scale(0.015625)"/>
        <path id="DejaVuSans-30" d="M 2034 4250 
Q 1547 4250 1301 3770 
Q 1056 3291 1056 2328 
Q 1056 1369 1301 889 
Q 1547 409 2034 409 
Q 2525 409 2770 889 
Q 3016 1369 3016 2328 
Q 3016 3291 2770 3770 
Q 2525 4250 2034 4250 
z
M 2034 4750 
Q 2819 4750 3233 4129 
Q 3647 3509 3647 2328 
Q 3647 1150 3233 529 
Q 2819 -91 2034 -91 
Q 1250 -91 836 529 
Q 422 1150 422 2328 
Q 422 3509 836 4129 
Q 1250 4750 2034 4750 
z
" transform="scale(0.015625)"/>
       </defs>
       <use xlink:href="#DejaVuSans-31" transform="translate(0 0.765625)"/>
       <use xlink:href="#DejaVuSans-30" transform="translate(63.623047 0.765625)"/>
       <use xlink:href="#DejaVuSans-30" transform="translate(128.203125 39.046875) scale(0.7)"/>
      </g>
     </g>
    </g>
    <g id="xtick_2">
     <g id="line2d_3">
      <path d="M 120.767921 246.724 
L 120.767921 14.64 
" clip-path="url(#pa5847a4180)" style="fill: none; stroke-dasharray: 0.5,0.825; stroke-dashoffset: 0; stroke: #b0b0b0; stroke-opacity: 0.7; stroke-width: 0.5"/>
     </g>
     <g id="line2d_4">
      <g>
       <use xlink:href="#mfca5bafb1a" x="120.767921" y="246.724" style="stroke: #000000; stroke-width: 0.8"/>
      </g>
     </g>
    </g>
    <g id="xtick_3">
     <g id="line2d_5">
      <path d="M 187.224807 246.724 
L 187.224807 14.64 
" clip-path="url(#pa5847a4180)" style="fill: none; stroke-dasharray: 0.5,0.825; stroke-dashoffset: 0; stroke: #b0b0b0; stroke-opacity: 0.7; stroke-width: 0.5"/>
     </g>
     <g id="line2d_6">
      <g>
       <use xlink:href="#mfca5bafb1a" x="187.224807" y="246.724" style="stroke: #000000; stroke-width: 0.8"/>
      </g>
     </g>
    </g>
    <g id="xtick_4">
     <g id="line2d_7">
      <path d="M 237.4975 246.724 
L 237.4975 14.64 
" clip-path="url(#pa5847a4180)" style="fill: none; stroke-dasharray: 0.5,0.825; stroke-dashoffset: 0; stroke: #b0b0b0; stroke-opacity: 0.7; stroke-width: 0.5"/>
     </g>
     <g id="line2d_8">
      <g>
       <use xlink:href="#mfca5bafb1a" x="237.4975" y="246.724" style="stroke: #000000; stroke-width: 0.8"/>
      </g>
     </g>
     <g id="text_2">
      <!-- $\mathdefault{10^{1}}$ -->
      <g transform="translate(228.6975 261.322437) scale(0.1 -0.1)">
       <use xlink:href="#DejaVuSans-31" transform="translate(0 0.684375)"/>
       <use xlink:href="#DejaVuSans-30" transform="translate(63.623047 0.684375)"/>
       <use xlink:href="#DejaVuSans-31" transform="translate(128.203125 38.965625) scale(0.7)"/>
      </g>
     </g>
    </g>
    <g id="xtick_5">
     <g id="line2d_9">
      <path d="M 287.770193 246.724 
L 287.770193 14.64 
" clip-path="url(#pa5847a4180)" style="fill: none; stroke-dasharray: 0.5,0.825; stroke-dashoffset: 0; stroke: #b0b0b0; stroke-opacity: 0.7; stroke-width: 0.5"/>
     </g>
     <g id="line2d_10">
      <g>
       <use xlink:href="#mfca5bafb1a" x="287.770193" y="246.724" style="stroke: #000000; stroke-width: 0.8"/>
      </g>
     </g>
    </g>
    <g id="xtick_6">
     <g id="line2d_11">
      <path d="M 354.227079 246.724 
L 354.227079 14.64 
" clip-path="url(#pa5847a4180)" style="fill: none; stroke-dasharray: 0.5,0.825; stroke-dashoffset: 0; stroke: #b0b0b0; stroke-opacity: 0.7; stroke-width: 0.5"/>
     </g>
     <g id="line2d_12">
      <g>
       <use xlink:href="#mfca5bafb1a" x="354.227079" y="246.724" style="stroke: #000000; stroke-width: 0.8"/>
      </g>
     </g>
    </g>
    <g id="xtick_7">
     <g id="line2d_13">
      <path d="M 404.499773 246.724 
L 404.499773 14.64 
" clip-path="url(#pa5847a4180)" style="fill: none; stroke-dasharray: 0.5,0.825; stroke-dashoffset: 0; stroke: #b0b0b0; stroke-opacity: 0.7; stroke-width: 0.5"/>
     </g>
     <g id="line2d_14">
      <g>
       <use xlink:href="#mfca5bafb1a" x="404.499773" y="246.724" style="stroke: #000000; stroke-width: 0.8"/>
      </g>
     </g>
     <g id="text_3">
      <!-- $\mathdefault{10^{2}}$ -->
      <g transform="translate(395.699773 261.322437) scale(0.1 -0.1)">
       <defs>
        <path id="DejaVuSans-32" d="M 1228 531 
L 3431 531 
L 3431 0 
L 469 0 
L 469 531 
Q 828 903 1448 1529 
Q 2069 2156 2228 2338 
Q 2531 2678 2651 2914 
Q 2772 3150 2772 3378 
Q 2772 3750 2511 3984 
Q 2250 4219 1831 4219 
Q 1534 4219 1204 4116 
Q 875 4013 500 3803 
L 500 4441 
Q 881 4594 1212 4672 
Q 1544 4750 1819 4750 
Q 2544 4750 2975 4387 
Q 3406 4025 3406 3419 
Q 3406 3131 3298 2873 
Q 3191 2616 2906 2266 
Q 2828 2175 2409 1742 
Q 1991 1309 1228 531 
z
" transform="scale(0.015625)"/>
       </defs>
       <use xlink:href="#DejaVuSans-31" transform="translate(0 0.765625)"/>
       <use xlink:href="#DejaVuSans-30" transform="translate(63.623047 0.765625)"/>
       <use xlink:href="#DejaVuSans-32" transform="translate(128.203125 39.046875) scale(0.7)"/>
      </g>
     </g>
    </g>
    <g id="xtick_8">
     <g id="line2d_15">
      <defs>
       <path id="m76873fc1e7" d="M 0 0 
L 0 2 
" style="stroke: #000000; stroke-width: 0.6"/>
      </defs>
      <g>
       <use xlink:href="#m76873fc1e7" x="54.311035" y="246.724" style="stroke: #000000; stroke-width: 0.6"/>
      </g>
     </g>
    </g>
    <g id="xtick_9">
     <g id="line2d_16">
      <g>
       <use xlink:href="#m76873fc1e7" x="62.853622" y="246.724" style="stroke: #000000; stroke-width: 0.6"/>
      </g>
     </g>
    </g>
    <g id="xtick_10">
     <g id="line2d_17">
      <g>
       <use xlink:href="#m76873fc1e7" x="150.175561" y="246.724" style="stroke: #000000; stroke-width: 0.6"/>
      </g>
     </g>
    </g>
    <g id="xtick_11">
     <g id="line2d_18">
      <g>
       <use xlink:href="#m76873fc1e7" x="171.040614" y="246.724" style="stroke: #000000; stroke-width: 0.6"/>
      </g>
     </g>
    </g>
    <g id="xtick_12">
     <g id="line2d_19">
      <g>
       <use xlink:href="#m76873fc1e7" x="200.448255" y="246.724" style="stroke: #000000; stroke-width: 0.6"/>
      </g>
     </g>
    </g>
    <g id="xtick_13">
     <g id="line2d_20">
      <g>
       <use xlink:href="#m76873fc1e7" x="211.628521" y="246.724" style="stroke: #000000; stroke-width: 0.6"/>
      </g>
     </g>
    </g>
    <g id="xtick_14">
     <g id="line2d_21">
      <g>
       <use xlink:href="#m76873fc1e7" x="221.313308" y="246.724" style="stroke: #000000; stroke-width: 0.6"/>
      </g>
     </g>
    </g>
    <g id="xtick_15">
     <g id="line2d_22">
      <g>
       <use xlink:href="#m76873fc1e7" x="229.855895" y="246.724" style="stroke: #000000; stroke-width: 0.6"/>
      </g>
     </g>
    </g>
    <g id="xtick_16">
     <g id="line2d_23">
      <g>
       <use xlink:href="#m76873fc1e7" x="317.177834" y="246.724" style="stroke: #000000; stroke-width: 0.6"/>
      </g>
     </g>
    </g>
    <g id="xtick_17">
     <g id="line2d_24">
      <g>
       <use xlink:href="#m76873fc1e7" x="338.042887" y="246.724" style="stroke: #000000; stroke-width: 0.6"/>
      </g>
     </g>
    </g>
    <g id="xtick_18">
     <g id="line2d_25">
      <g>
       <use xlink:href="#m76873fc1e7" x="367.450527" y="246.724" style="stroke: #000000; stroke-width: 0.6"/>
      </g>
     </g>
    </g>
    <g id="xtick_19">
     <g id="line2d_26">
      <g>
       <use xlink:href="#m76873fc1e7" x="378.630793" y="246.724" style="stroke: #000000; stroke-width: 0.6"/>
      </g>
     </g>
    </g>
    <g id="xtick_20">
     <g id="line2d_27">
      <g>
       <use xlink:href="#m76873fc1e7" x="388.31558" y="246.724" style="stroke: #000000; stroke-width: 0.6"/>
      </g>
     </g>
    </g>
    <g id="xtick_21">
     <g id="line2d_28">
      <g>
       <use xlink:href="#m76873fc1e7" x="396.858168" y="246.724" style="stroke: #000000; stroke-width: 0.6"/>
      </g>
     </g>
    </g>
    <g id="text_4">
     <!-- k -->
     <g transform="translate(234.602187 275.000563) scale(0.1 -0.1)">
      <defs>
       <path id="DejaVuSans-6b" d="M 581 4863 
L 1159 4863 
L 1159 1991 
L 2875 3500 
L 3609 3500 
L 1753 1863 
L 3688 0 
L 2938 0 
L 1159 1709 
L 1159 0 
L 581 0 
L 581 4863 
z
" transform="scale(0.015625)"/>
      </defs>
      <use xlink:href="#DejaVuSans-6b"/>
     </g>
    </g>
   </g>
   <g id="matplotlib.axis_2">
    <g id="ytick_1">
     <g id="line2d_29">
      <path d="M 53.795 246.724 
L 421.2 246.724 
" clip-path="url(#pa5847a4180)" style="fill: none; stroke-dasharray: 0.5,0.825; stroke-dashoffset: 0; stroke: #b0b0b0; stroke-opacity: 0.7; stroke-width: 0.5"/>
     </g>
     <g id="line2d_30">
      <defs>
       <path id="me36c824b5a" d="M 0 0 
L -3.5 0 
" style="stroke: #000000; stroke-width: 0.8"/>
      </defs>
      <g>
       <use xlink:href="#me36c824b5a" x="53.795" y="246.724" style="stroke: #000000; stroke-width: 0.8"/>
      </g>
     </g>
     <g id="text_5">
      <!-- 0.60 -->
      <g transform="translate(24.529375 250.523219) scale(0.1 -0.1)">
       <defs>
        <path id="DejaVuSans-2e" d="M 684 794 
L 1344 794 
L 1344 0 
L 684 0 
L 684 794 
z
" transform="scale(0.015625)"/>
        <path id="DejaVuSans-36" d="M 2113 2584 
Q 1688 2584 1439 2293 
Q 1191 2003 1191 1497 
Q 1191 994 1439 701 
Q 1688 409 2113 409 
Q 2538 409 2786 701 
Q 3034 994 3034 1497 
Q 3034 2003 2786 2293 
Q 2538 2584 2113 2584 
z
M 3366 4563 
L 3366 3988 
Q 3128 4100 2886 4159 
Q 2644 4219 2406 4219 
Q 1781 4219 1451 3797 
Q 1122 3375 1075 2522 
Q 1259 2794 1537 2939 
Q 1816 3084 2150 3084 
Q 2853 3084 3261 2657 
Q 3669 2231 3669 1497 
Q 3669 778 3244 343 
Q 2819 -91 2113 -91 
Q 1303 -91 875 529 
Q 447 1150 447 2328 
Q 447 3434 972 4092 
Q 1497 4750 2381 4750 
Q 2619 4750 2861 4703 
Q 3103 4656 3366 4563 
z
" transform="scale(0.015625)"/>
       </defs>
       <use xlink:href="#DejaVuSans-30"/>
       <use xlink:href="#DejaVuSans-2e" x="63.623047"/>
       <use xlink:href="#DejaVuSans-36" x="95.410156"/>
       <use xlink:href="#DejaVuSans-30" x="159.033203"/>
      </g>
     </g>
    </g>
    <g id="ytick_2">
     <g id="line2d_31">
      <path d="M 53.795 217.7135 
L 421.2 217.7135 
" clip-path="url(#pa5847a4180)" style="fill: none; stroke-dasharray: 0.5,0.825; stroke-dashoffset: 0; stroke: #b0b0b0; stroke-opacity: 0.7; stroke-width: 0.5"/>
     </g>
     <g id="line2d_32">
      <g>
       <use xlink:href="#me36c824b5a" x="53.795" y="217.7135" style="stroke: #000000; stroke-width: 0.8"/>
      </g>
     </g>
     <g id="text_6">
      <!-- 0.65 -->
      <g transform="translate(24.529375 221.512719) scale(0.1 -0.1)">
       <defs>
        <path id="DejaVuSans-35" d="M 691 4666 
L 3169 4666 
L 3169 4134 
L 1269 4134 
L 1269 2991 
Q 1406 3038 1543 3061 
Q 1681 3084 1819 3084 
Q 2600 3084 3056 2656 
Q 3513 2228 3513 1497 
Q 3513 744 3044 326 
Q 2575 -91 1722 -91 
Q 1428 -91 1123 -41 
Q 819 9 494 109 
L 494 744 
Q 775 591 1075 516 
Q 1375 441 1709 441 
Q 2250 441 2565 725 
Q 2881 1009 2881 1497 
Q 2881 1984 2565 2268 
Q 2250 2553 1709 2553 
Q 1456 2553 1204 2497 
Q 953 2441 691 2322 
L 691 4666 
z
" transform="scale(0.015625)"/>
       </defs>
       <use xlink:href="#DejaVuSans-30"/>
       <use xlink:href="#DejaVuSans-2e" x="63.623047"/>
       <use xlink:href="#DejaVuSans-36" x="95.410156"/>
       <use xlink:href="#DejaVuSans-35" x="159.033203"/>
      </g>
     </g>
    </g>
    <g id="ytick_3">
     <g id="line2d_33">
      <path d="M 53.795 188.703 
L 421.2 188.703 
" clip-path="url(#pa5847a4180)" style="fill: none; stroke-dasharray: 0.5,0.825; stroke-dashoffset: 0; stroke: #b0b0b0; stroke-opacity: 0.7; stroke-width: 0.5"/>
     </g>
     <g id="line2d_34">
      <g>
       <use xlink:href="#me36c824b5a" x="53.795" y="188.703" style="stroke: #000000; stroke-width: 0.8"/>
      </g>
     </g>
     <g id="text_7">
      <!-- 0.70 -->
      <g transform="translate(24.529375 192.502219) scale(0.1 -0.1)">
       <defs>
        <path id="DejaVuSans-37" d="M 525 4666 
L 3525 4666 
L 3525 4397 
L 1831 0 
L 1172 0 
L 2766 4134 
L 525 4134 
L 525 4666 
z
" transform="scale(0.015625)"/>
       </defs>
       <use xlink:href="#DejaVuSans-30"/>
       <use xlink:href="#DejaVuSans-2e" x="63.623047"/>
       <use xlink:href="#DejaVuSans-37" x="95.410156"/>
       <use xlink:href="#DejaVuSans-30" x="159.033203"/>
      </g>
     </g>
    </g>
    <g id="ytick_4">
     <g id="line2d_35">
      <path d="M 53.795 159.6925 
L 421.2 159.6925 
" clip-path="url(#pa5847a4180)" style="fill: none; stroke-dasharray: 0.5,0.825; stroke-dashoffset: 0; stroke: #b0b0b0; stroke-opacity: 0.7; stroke-width: 0.5"/>
     </g>
     <g id="line2d_36">
      <g>
       <use xlink:href="#me36c824b5a" x="53.795" y="159.6925" style="stroke: #000000; stroke-width: 0.8"/>
      </g>
     </g>
     <g id="text_8">
      <!-- 0.75 -->
      <g transform="translate(24.529375 163.491719) scale(0.1 -0.1)">
       <use xlink:href="#DejaVuSans-30"/>
       <use xlink:href="#DejaVuSans-2e" x="63.623047"/>
       <use xlink:href="#DejaVuSans-37" x="95.410156"/>
       <use xlink:href="#DejaVuSans-35" x="159.033203"/>
      </g>
     </g>
    </g>
    <g id="ytick_5">
     <g id="line2d_37">
      <path d="M 53.795 130.682 
L 421.2 130.682 
" clip-path="url(#pa5847a4180)" style="fill: none; stroke-dasharray: 0.5,0.825; stroke-dashoffset: 0; stroke: #b0b0b0; stroke-opacity: 0.7; stroke-width: 0.5"/>
     </g>
     <g id="line2d_38">
      <g>
       <use xlink:href="#me36c824b5a" x="53.795" y="130.682" style="stroke: #000000; stroke-width: 0.8"/>
      </g>
     </g>
     <g id="text_9">
      <!-- 0.80 -->
      <g transform="translate(24.529375 134.481219) scale(0.1 -0.1)">
       <defs>
        <path id="DejaVuSans-38" d="M 2034 2216 
Q 1584 2216 1326 1975 
Q 1069 1734 1069 1313 
Q 1069 891 1326 650 
Q 1584 409 2034 409 
Q 2484 409 2743 651 
Q 3003 894 3003 1313 
Q 3003 1734 2745 1975 
Q 2488 2216 2034 2216 
z
M 1403 2484 
Q 997 2584 770 2862 
Q 544 3141 544 3541 
Q 544 4100 942 4425 
Q 1341 4750 2034 4750 
Q 2731 4750 3128 4425 
Q 3525 4100 3525 3541 
Q 3525 3141 3298 2862 
Q 3072 2584 2669 2484 
Q 3125 2378 3379 2068 
Q 3634 1759 3634 1313 
Q 3634 634 3220 271 
Q 2806 -91 2034 -91 
Q 1263 -91 848 271 
Q 434 634 434 1313 
Q 434 1759 690 2068 
Q 947 2378 1403 2484 
z
M 1172 3481 
Q 1172 3119 1398 2916 
Q 1625 2713 2034 2713 
Q 2441 2713 2670 2916 
Q 2900 3119 2900 3481 
Q 2900 3844 2670 4047 
Q 2441 4250 2034 4250 
Q 1625 4250 1398 4047 
Q 1172 3844 1172 3481 
z
" transform="scale(0.015625)"/>
       </defs>
       <use xlink:href="#DejaVuSans-30"/>
       <use xlink:href="#DejaVuSans-2e" x="63.623047"/>
       <use xlink:href="#DejaVuSans-38" x="95.410156"/>
       <use xlink:href="#DejaVuSans-30" x="159.033203"/>
      </g>
     </g>
    </g>
    <g id="ytick_6">
     <g id="line2d_39">
      <path d="M 53.795 101.6715 
L 421.2 101.6715 
" clip-path="url(#pa5847a4180)" style="fill: none; stroke-dasharray: 0.5,0.825; stroke-dashoffset: 0; stroke: #b0b0b0; stroke-opacity: 0.7; stroke-width: 0.5"/>
     </g>
     <g id="line2d_40">
      <g>
       <use xlink:href="#me36c824b5a" x="53.795" y="101.6715" style="stroke: #000000; stroke-width: 0.8"/>
      </g>
     </g>
     <g id="text_10">
      <!-- 0.85 -->
      <g transform="translate(24.529375 105.470719) scale(0.1 -0.1)">
       <use xlink:href="#DejaVuSans-30"/>
       <use xlink:href="#DejaVuSans-2e" x="63.623047"/>
       <use xlink:href="#DejaVuSans-38" x="95.410156"/>
       <use xlink:href="#DejaVuSans-35" x="159.033203"/>
      </g>
     </g>
    </g>
    <g id="ytick_7">
     <g id="line2d_41">
      <path d="M 53.795 72.661 
L 421.2 72.661 
" clip-path="url(#pa5847a4180)" style="fill: none; stroke-dasharray: 0.5,0.825; stroke-dashoffset: 0; stroke: #b0b0b0; stroke-opacity: 0.7; stroke-width: 0.5"/>
     </g>
     <g id="line2d_42">
      <g>
       <use xlink:href="#me36c824b5a" x="53.795" y="72.661" style="stroke: #000000; stroke-width: 0.8"/>
      </g>
     </g>
     <g id="text_11">
      <!-- 0.90 -->
      <g transform="translate(24.529375 76.460219) scale(0.1 -0.1)">
       <defs>
        <path id="DejaVuSans-39" d="M 703 97 
L 703 672 
Q 941 559 1184 500 
Q 1428 441 1663 441 
Q 2288 441 2617 861 
Q 2947 1281 2994 2138 
Q 2813 1869 2534 1725 
Q 2256 1581 1919 1581 
Q 1219 1581 811 2004 
Q 403 2428 403 3163 
Q 403 3881 828 4315 
Q 1253 4750 1959 4750 
Q 2769 4750 3195 4129 
Q 3622 3509 3622 2328 
Q 3622 1225 3098 567 
Q 2575 -91 1691 -91 
Q 1453 -91 1209 -44 
Q 966 3 703 97 
z
M 1959 2075 
Q 2384 2075 2632 2365 
Q 2881 2656 2881 3163 
Q 2881 3666 2632 3958 
Q 2384 4250 1959 4250 
Q 1534 4250 1286 3958 
Q 1038 3666 1038 3163 
Q 1038 2656 1286 2365 
Q 1534 2075 1959 2075 
z
" transform="scale(0.015625)"/>
       </defs>
       <use xlink:href="#DejaVuSans-30"/>
       <use xlink:href="#DejaVuSans-2e" x="63.623047"/>
       <use xlink:href="#DejaVuSans-39" x="95.410156"/>
       <use xlink:href="#DejaVuSans-30" x="159.033203"/>
      </g>
     </g>
    </g>
    <g id="ytick_8">
     <g id="line2d_43">
      <path d="M 53.795 43.6505 
L 421.2 43.6505 
" clip-path="url(#pa5847a4180)" style="fill: none; stroke-dasharray: 0.5,0.825; stroke-dashoffset: 0; stroke: #b0b0b0; stroke-opacity: 0.7; stroke-width: 0.5"/>
     </g>
     <g id="line2d_44">
      <g>
       <use xlink:href="#me36c824b5a" x="53.795" y="43.6505" style="stroke: #000000; stroke-width: 0.8"/>
      </g>
     </g>
     <g id="text_12">
      <!-- 0.95 -->
      <g transform="translate(24.529375 47.449719) scale(0.1 -0.1)">
       <use xlink:href="#DejaVuSans-30"/>
       <use xlink:href="#DejaVuSans-2e" x="63.623047"/>
       <use xlink:href="#DejaVuSans-39" x="95.410156"/>
       <use xlink:href="#DejaVuSans-35" x="159.033203"/>
      </g>
     </g>
    </g>
    <g id="ytick_9">
     <g id="line2d_45">
      <path d="M 53.795 14.64 
L 421.2 14.64 
" clip-path="url(#pa5847a4180)" style="fill: none; stroke-dasharray: 0.5,0.825; stroke-dashoffset: 0; stroke: #b0b0b0; stroke-opacity: 0.7; stroke-width: 0.5"/>
     </g>
     <g id="line2d_46">
      <g>
       <use xlink:href="#me36c824b5a" x="53.795" y="14.64" style="stroke: #000000; stroke-width: 0.8"/>
      </g>
     </g>
     <g id="text_13">
      <!-- 1.00 -->
      <g transform="translate(24.529375 18.439219) scale(0.1 -0.1)">
       <use xlink:href="#DejaVuSans-31"/>
       <use xlink:href="#DejaVuSans-2e" x="63.623047"/>
       <use xlink:href="#DejaVuSans-30" x="95.410156"/>
       <use xlink:href="#DejaVuSans-30" x="159.033203"/>
      </g>
     </g>
    </g>
    <g id="text_14">
     <!-- D-pass@k -->
     <g transform="translate(18.449688 155.678875) rotate(-90) scale(0.1 -0.1)">
      <defs>
       <path id="DejaVuSans-44" d="M 1259 4147 
L 1259 519 
L 2022 519 
Q 2988 519 3436 956 
Q 3884 1394 3884 2338 
Q 3884 3275 3436 3711 
Q 2988 4147 2022 4147 
L 1259 4147 
z
M 628 4666 
L 1925 4666 
Q 3281 4666 3915 4102 
Q 4550 3538 4550 2338 
Q 4550 1131 3912 565 
Q 3275 0 1925 0 
L 628 0 
L 628 4666 
z
" transform="scale(0.015625)"/>
       <path id="DejaVuSans-2d" d="M 313 2009 
L 1997 2009 
L 1997 1497 
L 313 1497 
L 313 2009 
z
" transform="scale(0.015625)"/>
       <path id="DejaVuSans-70" d="M 1159 525 
L 1159 -1331 
L 581 -1331 
L 581 3500 
L 1159 3500 
L 1159 2969 
Q 1341 3281 1617 3432 
Q 1894 3584 2278 3584 
Q 2916 3584 3314 3078 
Q 3713 2572 3713 1747 
Q 3713 922 3314 415 
Q 2916 -91 2278 -91 
Q 1894 -91 1617 61 
Q 1341 213 1159 525 
z
M 3116 1747 
Q 3116 2381 2855 2742 
Q 2594 3103 2138 3103 
Q 1681 3103 1420 2742 
Q 1159 2381 1159 1747 
Q 1159 1113 1420 752 
Q 1681 391 2138 391 
Q 2594 391 2855 752 
Q 3116 1113 3116 1747 
z
" transform="scale(0.015625)"/>
       <path id="DejaVuSans-61" d="M 2194 1759 
Q 1497 1759 1228 1600 
Q 959 1441 959 1056 
Q 959 750 1161 570 
Q 1363 391 1709 391 
Q 2188 391 2477 730 
Q 2766 1069 2766 1631 
L 2766 1759 
L 2194 1759 
z
M 3341 1997 
L 3341 0 
L 2766 0 
L 2766 531 
Q 2569 213 2275 61 
Q 1981 -91 1556 -91 
Q 1019 -91 701 211 
Q 384 513 384 1019 
Q 384 1609 779 1909 
Q 1175 2209 1959 2209 
L 2766 2209 
L 2766 2266 
Q 2766 2663 2505 2880 
Q 2244 3097 1772 3097 
Q 1472 3097 1187 3025 
Q 903 2953 641 2809 
L 641 3341 
Q 956 3463 1253 3523 
Q 1550 3584 1831 3584 
Q 2591 3584 2966 3190 
Q 3341 2797 3341 1997 
z
" transform="scale(0.015625)"/>
       <path id="DejaVuSans-73" d="M 2834 3397 
L 2834 2853 
Q 2591 2978 2328 3040 
Q 2066 3103 1784 3103 
Q 1356 3103 1142 2972 
Q 928 2841 928 2578 
Q 928 2378 1081 2264 
Q 1234 2150 1697 2047 
L 1894 2003 
Q 2506 1872 2764 1633 
Q 3022 1394 3022 966 
Q 3022 478 2636 193 
Q 2250 -91 1575 -91 
Q 1294 -91 989 -36 
Q 684 19 347 128 
L 347 722 
Q 666 556 975 473 
Q 1284 391 1588 391 
Q 1994 391 2212 530 
Q 2431 669 2431 922 
Q 2431 1156 2273 1281 
Q 2116 1406 1581 1522 
L 1381 1569 
Q 847 1681 609 1914 
Q 372 2147 372 2553 
Q 372 3047 722 3315 
Q 1072 3584 1716 3584 
Q 2034 3584 2315 3537 
Q 2597 3491 2834 3397 
z
" transform="scale(0.015625)"/>
       <path id="DejaVuSans-40" d="M 2381 1678 
Q 2381 1231 2603 976 
Q 2825 722 3213 722 
Q 3597 722 3817 978 
Q 4038 1234 4038 1678 
Q 4038 2116 3813 2373 
Q 3588 2631 3206 2631 
Q 2828 2631 2604 2375 
Q 2381 2119 2381 1678 
z
M 4084 744 
Q 3897 503 3655 389 
Q 3413 275 3091 275 
Q 2553 275 2217 664 
Q 1881 1053 1881 1678 
Q 1881 2303 2218 2693 
Q 2556 3084 3091 3084 
Q 3413 3084 3656 2967 
Q 3900 2850 4084 2613 
L 4084 3022 
L 4531 3022 
L 4531 722 
Q 4988 791 5245 1139 
Q 5503 1488 5503 2041 
Q 5503 2375 5404 2669 
Q 5306 2963 5106 3213 
Q 4781 3622 4314 3839 
Q 3847 4056 3297 4056 
Q 2913 4056 2559 3954 
Q 2206 3853 1906 3653 
Q 1416 3334 1139 2817 
Q 863 2300 863 1697 
Q 863 1200 1042 765 
Q 1222 331 1563 0 
Q 1891 -325 2322 -495 
Q 2753 -666 3244 -666 
Q 3647 -666 4036 -530 
Q 4425 -394 4750 -141 
L 5031 -488 
Q 4641 -791 4180 -952 
Q 3719 -1113 3244 -1113 
Q 2666 -1113 2153 -908 
Q 1641 -703 1241 -313 
Q 841 78 631 592 
Q 422 1106 422 1697 
Q 422 2266 634 2781 
Q 847 3297 1241 3688 
Q 1644 4084 2172 4295 
Q 2700 4506 3291 4506 
Q 3953 4506 4520 4234 
Q 5088 3963 5472 3463 
Q 5706 3156 5829 2797 
Q 5953 2438 5953 2053 
Q 5953 1231 5456 756 
Q 4959 281 4084 263 
L 4084 744 
z
" transform="scale(0.015625)"/>
      </defs>
      <use xlink:href="#DejaVuSans-44"/>
      <use xlink:href="#DejaVuSans-2d" x="77.001953"/>
      <use xlink:href="#DejaVuSans-70" x="113.085938"/>
      <use xlink:href="#DejaVuSans-61" x="176.5625"/>
      <use xlink:href="#DejaVuSans-73" x="237.841797"/>
      <use xlink:href="#DejaVuSans-73" x="289.941406"/>
      <use xlink:href="#DejaVuSans-40" x="342.041016"/>
      <use xlink:href="#DejaVuSans-6b" x="442.041016"/>
     </g>
    </g>
   </g>
   <g id="line2d_47">
    <path d="M 70.495227 238.83997 
L 120.767921 170.863467 
L 150.175561 140.366083 
L 171.040614 123.67544 
L 187.224807 113.361954 
L 200.448255 106.47926 
L 211.628521 101.65465 
L 221.313308 98.156492 
L 229.855895 95.553647 
L 237.4975 93.573905 
L 244.410172 92.037341 
L 250.720948 90.821366 
L 256.526299 89.840709 
L 261.901214 89.035188 
L 266.90514 88.361862 
L 271.586001 87.789824 
L 275.982994 87.296657 
L 280.128589 86.865979 
L 284.049985 86.485723 
L 287.770193 86.146922 
L 291.308855 85.842837 
L 294.682866 85.568341 
L 297.906871 85.319473 
L 300.993641 85.093121 
L 303.954386 84.886788 
L 306.798992 84.698436 
L 309.536229 84.52636 
L 312.173908 84.369108 
L 314.719017 84.225418 
L 317.177834 84.094179 
L 319.55602 83.974393 
L 321.858694 83.865158 
L 324.090506 83.76565 
L 326.255687 83.675111 
L 328.3581 83.592841 
L 330.401282 83.518188 
L 332.388479 83.45055 
L 334.322678 83.389363 
L 336.206633 83.334103 
L 338.042887 83.284282 
L 339.833797 83.239446 
L 341.581548 83.199171 
L 343.288172 83.163063 
L 344.955559 83.130756 
L 346.585474 83.101911 
L 348.179564 83.076213 
L 349.73937 83.053371 
L 351.266335 83.033114 
L 352.761814 83.015195 
L 354.227079 82.999384 
L 355.663328 82.98547 
L 357.071686 82.97326 
L 358.453216 82.962576 
L 359.808922 82.953256 
L 361.139752 82.945152 
L 362.446601 82.938129 
L 363.730319 82.932063 
L 364.99171 82.926843 
L 366.231538 82.922369 
L 367.450527 82.91855 
L 368.649367 82.915304 
L 369.828713 82.912557 
L 370.989188 82.910244 
L 372.131388 82.908306 
L 373.255878 82.906691 
L 374.3632 82.905353 
L 375.453869 82.904251 
L 376.52838 82.903349 
L 377.587205 82.902616 
L 378.630793 82.902026 
L 379.659579 82.901553 
L 380.673975 82.901178 
L 381.67438 82.900884 
L 382.661173 82.900655 
L 383.63472 82.900478 
L 384.595372 82.900344 
L 385.543466 82.900244 
L 386.479326 82.90017 
L 387.403264 82.900116 
L 388.31558 82.900077 
L 389.216563 82.90005 
L 390.10649 82.900032 
L 390.98563 82.900019 
L 391.854241 82.900011 
L 392.712573 82.900006 
L 393.560865 82.900003 
L 394.39935 82.900002 
L 395.228253 82.900001 
L 396.047789 82.9 
L 396.858168 82.9 
L 397.659592 82.9 
L 398.452258 82.9 
L 399.236354 82.9 
L 400.012063 82.9 
L 400.779564 82.9 
L 401.539028 82.9 
L 402.290622 82.9 
L 403.034507 82.9 
L 403.77084 82.9 
L 404.499773 82.9 
" clip-path="url(#pa5847a4180)" style="fill: none; stroke: #000000; stroke-width: 2; stroke-linecap: square"/>
    <defs>
     <path id="md90ed72954" d="M 0 1.25 
C 0.331504 1.25 0.649475 1.118292 0.883883 0.883883 
C 1.118292 0.649475 1.25 0.331504 1.25 0 
C 1.25 -0.331504 1.118292 -0.649475 0.883883 -0.883883 
C 0.649475 -1.118292 0.331504 -1.25 0 -1.25 
C -0.331504 -1.25 -0.649475 -1.118292 -0.883883 -0.883883 
C -1.118292 -0.649475 -1.25 -0.331504 -1.25 0 
C -1.25 0.331504 -1.118292 0.649475 -0.883883 0.883883 
C -0.649475 1.118292 -0.331504 1.25 0 1.25 
z
" style="stroke: #000000"/>
    </defs>
    <g clip-path="url(#pa5847a4180)">
     <use xlink:href="#md90ed72954" x="70.495227" y="238.83997" style="stroke: #000000"/>
     <use xlink:href="#md90ed72954" x="120.767921" y="170.863467" style="stroke: #000000"/>
     <use xlink:href="#md90ed72954" x="187.224807" y="113.361954" style="stroke: #000000"/>
     <use xlink:href="#md90ed72954" x="237.4975" y="93.573905" style="stroke: #000000"/>
     <use xlink:href="#md90ed72954" x="287.770193" y="86.146922" style="stroke: #000000"/>
     <use xlink:href="#md90ed72954" x="354.227079" y="82.999384" style="stroke: #000000"/>
     <use xlink:href="#md90ed72954" x="404.499773" y="82.9" style="stroke: #000000"/>
    </g>
   </g>
   <g id="line2d_48">
    <path d="M 89.23388 289 
L 120.767921 244.631727 
L 150.175561 212.254852 
L 171.040614 195.132851 
L 187.224807 184.804873 
L 200.448255 180.035432 
L 211.628521 176.471153 
L 221.313308 172.962492 
L 229.855895 170.976178 
L 237.4975 169.232263 
L 244.410172 167.299544 
L 250.720948 165.80815 
L 256.526299 164.214256 
L 261.901214 163.197847 
L 266.90514 162.966303 
L 271.586001 162.006121 
L 275.982994 161.192348 
L 280.128589 161.0743 
L 284.049985 159.616664 
L 287.770193 159.041356 
L 291.308855 158.714612 
L 294.682866 158.4188 
L 297.906871 158.284095 
L 300.993641 158.275585 
L 303.954386 158.268535 
L 306.798992 158.262573 
L 309.536229 158.25744 
L 312.173908 158.252957 
L 314.719017 158.248996 
L 317.177834 158.245465 
L 319.55602 158.242299 
L 321.858694 158.239455 
L 324.090506 158.236883 
L 326.255687 158.234554 
L 328.3581 158.232445 
L 330.401282 158.230537 
L 332.388479 158.228811 
L 334.322678 158.227252 
L 336.206633 158.225845 
L 338.042887 158.224578 
L 339.833797 158.223438 
L 341.581548 158.222414 
L 343.288172 158.221497 
L 344.955559 158.216873 
L 346.585474 158.188749 
L 348.179564 158.163693 
L 349.73937 158.141421 
L 351.266335 158.121671 
L 352.761814 158.1042 
L 354.227079 158.088784 
L 355.663328 158.075218 
L 357.071686 158.063313 
L 358.453216 158.052896 
L 359.808922 158.043809 
L 361.139752 158.035853 
L 362.446601 158.028616 
L 363.730319 158.022366 
L 364.99171 158.016988 
L 366.231538 158.012379 
L 367.450527 158.008444 
L 368.649367 158.005099 
L 369.828713 158.002269 
L 370.989188 157.999886 
L 372.131388 157.997889 
L 373.255878 157.996225 
L 374.3632 157.994846 
L 375.453869 157.993711 
L 376.52838 157.992782 
L 377.587205 157.992027 
L 378.630793 157.991419 
L 379.659579 157.990932 
L 380.673975 157.990545 
L 381.67438 157.990242 
L 382.661173 157.990006 
L 383.63472 157.989824 
L 384.595372 157.989686 
L 385.543466 157.989583 
L 386.479326 157.989506 
L 387.403264 157.989451 
L 388.31558 157.989411 
L 389.216563 157.989383 
L 390.10649 157.989364 
L 390.98563 157.989351 
L 391.854241 157.989343 
L 392.712573 157.989338 
L 393.560865 157.989335 
L 394.39935 157.989333 
L 395.228253 157.989332 
L 396.047789 157.989332 
L 396.858168 157.989332 
L 397.659592 157.989332 
L 398.452258 157.989332 
L 399.236354 157.989332 
L 400.012063 157.989332 
L 400.779564 157.989332 
L 401.539028 157.989332 
L 402.290622 157.989332 
L 403.034507 157.989332 
L 403.77084 157.989332 
L 404.499773 157.989332 
" clip-path="url(#pa5847a4180)" style="fill: none; stroke-dasharray: 3.7,1.6; stroke-dashoffset: 0; stroke: #000000"/>
    <g clip-path="url(#pa5847a4180)">
     <use xlink:href="#md90ed72954" x="70.495227" y="315.365212" style="stroke: #000000"/>
     <use xlink:href="#md90ed72954" x="120.767921" y="244.631727" style="stroke: #000000"/>
     <use xlink:href="#md90ed72954" x="187.224807" y="184.804873" style="stroke: #000000"/>
     <use xlink:href="#md90ed72954" x="237.4975" y="169.232263" style="stroke: #000000"/>
     <use xlink:href="#md90ed72954" x="287.770193" y="159.041356" style="stroke: #000000"/>
     <use xlink:href="#md90ed72954" x="354.227079" y="158.088784" style="stroke: #000000"/>
     <use xlink:href="#md90ed72954" x="404.499773" y="157.989332" style="stroke: #000000"/>
    </g>
   </g>
   <g id="line2d_49">
    <path d="M 70.495227 155.956074 
L 120.767921 93.749317 
L 150.175561 67.038542 
L 171.040614 53.432902 
L 187.224807 46.602284 
L 200.448255 40.906587 
L 211.628521 38.589114 
L 221.313308 36.384478 
L 229.855895 34.919263 
L 237.4975 33.669731 
L 244.410172 32.202292 
L 250.720948 31.575676 
L 256.526299 30.711974 
L 261.901214 29.953444 
L 266.90514 29.327229 
L 271.586001 28.419086 
L 275.982994 28.145166 
L 280.128589 27.966741 
L 284.049985 27.62786 
L 287.770193 27.328042 
L 291.308855 27.06044 
L 294.682866 26.819908 
L 297.906871 26.602532 
L 300.993641 26.405287 
L 303.954386 26.228668 
L 306.798992 26.109781 
L 309.536229 26.108476 
L 312.173908 26.085119 
L 314.719017 26.080757 
L 317.177834 26.077076 
L 319.55602 26.07392 
L 321.858694 25.990623 
L 324.090506 25.898976 
L 326.255687 25.815629 
L 328.3581 25.739918 
L 330.401282 25.671233 
L 332.388479 25.609011 
L 334.322678 25.552826 
L 336.206633 25.503221 
L 338.042887 25.4585 
L 339.833797 25.418255 
L 341.581548 25.382104 
L 343.288172 25.349694 
L 344.955559 25.320697 
L 346.585474 25.294807 
L 348.179564 25.271741 
L 349.73937 25.251238 
L 351.266335 25.233057 
L 352.761814 25.216973 
L 354.227079 25.202781 
L 355.663328 25.190293 
L 357.071686 25.179334 
L 358.453216 25.169744 
L 359.808922 25.161379 
L 361.139752 25.154105 
L 362.446601 25.147801 
L 363.730319 25.142356 
L 364.99171 25.137672 
L 366.231538 25.133656 
L 367.450527 25.130135 
L 368.649367 25.127072 
L 369.828713 25.124481 
L 370.989188 25.122298 
L 372.131388 25.12047 
L 373.255878 25.118946 
L 374.3632 25.117683 
L 375.453869 25.116643 
L 376.52838 25.115793 
L 377.587205 25.115102 
L 378.630793 25.114544 
L 379.659579 25.114098 
L 380.673975 25.113744 
L 381.67438 25.113467 
L 382.661173 25.11325 
L 383.63472 25.113084 
L 384.595372 25.112958 
L 385.543466 25.112863 
L 386.479326 25.112793 
L 387.403264 25.112742 
L 388.31558 25.112706 
L 389.216563 25.11268 
L 390.10649 25.112663 
L 390.98563 25.112651 
L 391.854241 25.112644 
L 392.712573 25.112639 
L 393.560865 25.112636 
L 394.39935 25.112635 
L 395.228253 25.112634 
L 396.047789 25.112633 
L 396.858168 25.112633 
L 397.659592 25.112633 
L 398.452258 25.112633 
L 399.236354 25.112633 
L 400.012063 25.112633 
L 400.779564 25.112633 
L 401.539028 25.112633 
L 402.290622 25.112633 
L 403.034507 25.112633 
L 403.77084 25.112633 
L 404.499773 25.112633 
" clip-path="url(#pa5847a4180)" style="fill: none; stroke-dasharray: 1,1.65; stroke-dashoffset: 0; stroke: #000000"/>
    <g clip-path="url(#pa5847a4180)">
     <use xlink:href="#md90ed72954" x="70.495227" y="155.956074" style="stroke: #000000"/>
     <use xlink:href="#md90ed72954" x="120.767921" y="93.749317" style="stroke: #000000"/>
     <use xlink:href="#md90ed72954" x="187.224807" y="46.602284" style="stroke: #000000"/>
     <use xlink:href="#md90ed72954" x="237.4975" y="33.669731" style="stroke: #000000"/>
     <use xlink:href="#md90ed72954" x="287.770193" y="27.328042" style="stroke: #000000"/>
     <use xlink:href="#md90ed72954" x="354.227079" y="25.202781" style="stroke: #000000"/>
     <use xlink:href="#md90ed72954" x="404.499773" y="25.112633" style="stroke: #000000"/>
    </g>
   </g>
   <g id="line2d_50">
    <path d="M 70.495227 222.707857 
L 120.767921 152.025546 
L 150.175561 118.245854 
L 171.040614 99.310981 
L 187.224807 87.892463 
L 200.448255 80.657243 
L 211.628521 75.895197 
L 221.313308 72.660339 
L 229.855895 70.400495 
L 237.4975 68.779923 
L 244.410172 67.587786 
L 250.720948 66.688143 
L 256.526299 65.991373 
L 261.901214 65.437241 
L 266.90514 64.984563 
L 271.586001 64.604756 
L 275.982994 64.277711 
L 280.128589 63.989116 
L 284.049985 63.728684 
L 287.770193 63.488953 
L 291.308855 63.264478 
L 294.682866 63.051262 
L 297.906871 62.84636 
L 300.993641 62.647593 
L 303.954386 62.453351 
L 306.798992 62.262439 
L 309.536229 62.073973 
L 312.173908 61.887298 
L 314.719017 61.70193 
L 317.177834 61.517513 
L 319.55602 61.333785 
L 321.858694 61.150553 
L 324.090506 60.967678 
L 326.255687 60.785057 
L 328.3581 60.602617 
L 330.401282 60.420304 
L 332.388479 60.238081 
L 334.322678 60.055921 
L 336.206633 59.873803 
L 338.042887 59.691716 
L 339.833797 59.509649 
L 341.581548 59.327595 
L 343.288172 59.145551 
L 344.955559 58.963513 
L 346.585474 58.781479 
L 348.179564 58.599448 
L 349.73937 58.417418 
L 351.266335 58.235389 
L 352.761814 58.053362 
L 354.227079 57.871334 
L 355.663328 57.689307 
L 357.071686 57.50728 
L 358.453216 57.325254 
L 359.808922 57.143227 
L 361.139752 56.9612 
L 362.446601 56.779173 
L 363.730319 56.597147 
L 364.99171 56.41512 
L 366.231538 56.233093 
L 367.450527 56.051067 
L 368.649367 55.86904 
L 369.828713 55.687013 
L 370.989188 55.504987 
L 372.131388 55.32296 
L 373.255878 55.140933 
L 374.3632 54.958907 
L 375.453869 54.77688 
L 376.52838 54.594853 
L 377.587205 54.412827 
L 378.630793 54.2308 
L 379.659579 54.048773 
L 380.673975 53.866747 
L 381.67438 53.68472 
L 382.661173 53.502693 
L 383.63472 53.320667 
L 384.595372 53.13864 
L 385.543466 52.956613 
L 386.479326 52.774587 
L 387.403264 52.59256 
L 388.31558 52.410533 
L 389.216563 52.228507 
L 390.10649 52.04648 
L 390.98563 51.864453 
L 391.854241 51.682427 
L 392.712573 51.5004 
L 393.560865 51.318373 
L 394.39935 51.136347 
L 395.228253 50.95432 
L 396.047789 50.772293 
L 396.858168 50.590267 
L 397.659592 50.40824 
L 398.452258 50.226213 
L 399.236354 50.044187 
L 400.012063 49.86216 
L 400.779564 49.680133 
L 401.539028 49.498107 
L 402.290622 49.31608 
L 403.034507 49.134053 
L 403.77084 48.952027 
L 404.499773 48.77 
" clip-path="url(#pa5847a4180)" style="fill: none; stroke: #555555; stroke-width: 2; stroke-linecap: square"/>
    <defs>
     <path id="m735e9d37f4" d="M -1.25 1.25 
L 1.25 1.25 
L 1.25 -1.25 
L -1.25 -1.25 
z
" style="stroke: #555555; stroke-linejoin: miter"/>
    </defs>
    <g clip-path="url(#pa5847a4180)">
     <use xlink:href="#m735e9d37f4" x="70.495227" y="222.707857" style="fill: #555555; stroke: #555555; stroke-linejoin: miter"/>
     <use xlink:href="#m735e9d37f4" x="120.767921" y="152.025546" style="fill: #555555; stroke: #555555; stroke-linejoin: miter"/>
     <use xlink:href="#m735e9d37f4" x="187.224807" y="87.892463" style="fill: #555555; stroke: #555555; stroke-linejoin: miter"/>
     <use xlink:href="#m735e9d37f4" x="237.4975" y="68.779923" style="fill: #555555; stroke: #555555; stroke-linejoin: miter"/>
     <use xlink:href="#m735e9d37f4" x="287.770193" y="63.488953" style="fill: #555555; stroke: #555555; stroke-linejoin: miter"/>
     <use xlink:href="#m735e9d37f4" x="354.227079" y="57.871334" style="fill: #555555; stroke: #555555; stroke-linejoin: miter"/>
     <use xlink:href="#m735e9d37f4" x="404.499773" y="48.77" style="fill: #555555; stroke: #555555; stroke-linejoin: miter"/>
    </g>
   </g>
   <g id="line2d_51">
    <path d="M 75.690353 289 
L 120.767921 219.319219 
L 150.175561 183.756631 
L 171.040614 163.645238 
L 187.224807 151.794751 
L 200.448255 141.857015 
L 211.628521 137.10866 
L 221.313308 135.067828 
L 229.855895 133.630402 
L 237.4975 132.608788 
L 244.410172 131.111718 
L 250.720948 129.87634 
L 256.526299 129.241549 
L 261.901214 128.765589 
L 266.90514 127.855013 
L 271.586001 127.109371 
L 275.982994 126.491108 
L 280.128589 125.970917 
L 284.049985 125.692615 
L 287.770193 125.619138 
L 291.308855 125.550019 
L 294.682866 125.413496 
L 297.906871 124.476212 
L 300.993641 123.897489 
L 303.954386 123.628302 
L 306.798992 123.287711 
L 309.536229 123.146075 
L 312.173908 122.923517 
L 314.719017 122.698338 
L 317.177834 122.444375 
L 319.55602 121.888129 
L 321.858694 121.331927 
L 324.090506 120.883149 
L 326.255687 120.87711 
L 328.3581 120.871293 
L 330.401282 120.865632 
L 332.388479 120.79361 
L 334.322678 120.389738 
L 336.206633 119.982449 
L 338.042887 119.569184 
L 339.833797 119.155918 
L 341.581548 118.309213 
L 343.288172 117.404463 
L 344.955559 117.189981 
L 346.585474 117.018013 
L 348.179564 116.884859 
L 349.73937 116.676325 
L 351.266335 116.35721 
L 352.761814 116.117476 
L 354.227079 115.785879 
L 355.663328 115.161501 
L 357.071686 114.758049 
L 358.453216 114.354597 
L 359.808922 113.951146 
L 361.139752 113.634503 
L 362.446601 113.434432 
L 363.730319 113.228492 
L 364.99171 112.66344 
L 366.231538 112.029799 
L 367.450527 111.517176 
L 368.649367 111.108539 
L 369.828713 110.597596 
L 370.989188 110.265665 
L 372.131388 109.904583 
L 373.255878 109.511049 
L 374.3632 109.109723 
L 375.453869 108.696765 
L 376.52838 108.280089 
L 377.587205 107.879097 
L 378.630793 107.483625 
L 379.659579 107.273232 
L 380.673975 106.686757 
L 381.67438 106.273858 
L 382.661173 105.865968 
L 383.63472 105.458079 
L 384.595372 104.986941 
L 385.543466 104.416978 
L 386.479326 104.248699 
L 387.403264 103.855165 
L 388.31558 103.461397 
L 389.216563 103.057945 
L 390.10649 102.654493 
L 390.98563 102.251042 
L 391.854241 101.84759 
L 392.712573 101.74747 
L 393.560865 101.737552 
L 394.39935 101.62462 
L 395.228253 101.28398 
L 396.047789 101.28398 
L 396.858168 101.279751 
L 397.659592 101.037745 
L 398.452258 100.52702 
L 399.236354 100.511718 
L 400.012063 100.177517 
L 400.779564 100.177517 
L 401.539028 100.177517 
L 402.290622 100.177517 
L 403.034507 100.177517 
L 403.77084 100.177517 
L 404.499773 100.177517 
" clip-path="url(#pa5847a4180)" style="fill: none; stroke-dasharray: 3.7,1.6; stroke-dashoffset: 0; stroke: #555555"/>
    <g clip-path="url(#pa5847a4180)">
     <use xlink:href="#m735e9d37f4" x="70.495227" y="297.030612" style="fill: #555555; stroke: #555555; stroke-linejoin: miter"/>
     <use xlink:href="#m735e9d37f4" x="120.767921" y="219.319219" style="fill: #555555; stroke: #555555; stroke-linejoin: miter"/>
     <use xlink:href="#m735e9d37f4" x="187.224807" y="151.794751" style="fill: #555555; stroke: #555555; stroke-linejoin: miter"/>
     <use xlink:href="#m735e9d37f4" x="237.4975" y="132.608788" style="fill: #555555; stroke: #555555; stroke-linejoin: miter"/>
     <use xlink:href="#m735e9d37f4" x="287.770193" y="125.619138" style="fill: #555555; stroke: #555555; stroke-linejoin: miter"/>
     <use xlink:href="#m735e9d37f4" x="354.227079" y="115.785879" style="fill: #555555; stroke: #555555; stroke-linejoin: miter"/>
     <use xlink:href="#m735e9d37f4" x="404.499773" y="100.177517" style="fill: #555555; stroke: #555555; stroke-linejoin: miter"/>
    </g>
   </g>
   <g id="line2d_52">
    <path d="M 70.495227 147.374055 
L 120.767921 87.73073 
L 150.175561 61.675659 
L 171.040614 46.752102 
L 187.224807 37.890004 
L 200.448255 31.365999 
L 211.628521 26.844028 
L 221.313308 24.133567 
L 229.855895 22.259387 
L 237.4975 20.779262 
L 244.410172 19.950523 
L 250.720948 18.979708 
L 256.526299 18.07924 
L 261.901214 17.67742 
L 266.90514 17.415786 
L 271.586001 17.264021 
L 275.982994 17.169834 
L 280.128589 17.137166 
L 284.049985 17.000471 
L 287.770193 16.916922 
L 291.308855 16.878082 
L 294.682866 16.849523 
L 297.906871 16.828489 
L 300.993641 16.813041 
L 303.954386 16.801735 
L 306.798992 16.793572 
L 309.536229 16.787725 
L 312.173908 16.783498 
L 314.719017 16.780457 
L 317.177834 16.778278 
L 319.55602 16.776727 
L 321.858694 16.775627 
L 324.090506 16.774852 
L 326.255687 16.77431 
L 328.3581 16.773932 
L 330.401282 16.773671 
L 332.388479 16.773492 
L 334.322678 16.773369 
L 336.206633 16.773286 
L 338.042887 16.773231 
L 339.833797 16.773194 
L 341.581548 16.773169 
L 343.288172 16.773153 
L 344.955559 16.773143 
L 346.585474 16.773136 
L 348.179564 16.773132 
L 349.73937 16.773129 
L 351.266335 16.773128 
L 352.761814 16.773127 
L 354.227079 16.773126 
L 355.663328 16.773126 
L 357.071686 16.773125 
L 358.453216 16.773125 
L 359.808922 16.773125 
L 361.139752 16.773125 
L 362.446601 16.773125 
L 363.730319 16.773125 
L 364.99171 16.773125 
L 366.231538 16.773125 
L 367.450527 16.773125 
L 368.649367 16.773125 
L 369.828713 16.773125 
L 370.989188 16.773125 
L 372.131388 16.773125 
L 373.255878 16.773125 
L 374.3632 16.773125 
L 375.453869 16.773125 
L 376.52838 16.773125 
L 377.587205 16.773125 
L 378.630793 16.773125 
L 379.659579 16.773125 
L 380.673975 16.773125 
L 381.67438 16.773125 
L 382.661173 16.773125 
L 383.63472 16.773125 
L 384.595372 16.773125 
L 385.543466 16.773125 
L 386.479326 16.773125 
L 387.403264 16.773125 
L 388.31558 16.773125 
L 389.216563 16.773125 
L 390.10649 16.773125 
L 390.98563 16.773125 
L 391.854241 16.773125 
L 392.712573 16.773125 
L 393.560865 16.772715 
L 394.39935 16.719272 
L 395.228253 16.604474 
L 396.047789 16.504331 
L 396.858168 16.398732 
L 397.659592 16.222859 
L 398.452258 16.046986 
L 399.236354 15.871113 
L 400.012063 15.695239 
L 400.779564 15.519366 
L 401.539028 15.343493 
L 402.290622 15.16762 
L 403.034507 14.991746 
L 403.77084 14.815873 
L 404.499773 14.64 
" clip-path="url(#pa5847a4180)" style="fill: none; stroke-dasharray: 1,1.65; stroke-dashoffset: 0; stroke: #555555"/>
    <g clip-path="url(#pa5847a4180)">
     <use xlink:href="#m735e9d37f4" x="70.495227" y="147.374055" style="fill: #555555; stroke: #555555; stroke-linejoin: miter"/>
     <use xlink:href="#m735e9d37f4" x="120.767921" y="87.73073" style="fill: #555555; stroke: #555555; stroke-linejoin: miter"/>
     <use xlink:href="#m735e9d37f4" x="187.224807" y="37.890004" style="fill: #555555; stroke: #555555; stroke-linejoin: miter"/>
     <use xlink:href="#m735e9d37f4" x="237.4975" y="20.779262" style="fill: #555555; stroke: #555555; stroke-linejoin: miter"/>
     <use xlink:href="#m735e9d37f4" x="287.770193" y="16.916922" style="fill: #555555; stroke: #555555; stroke-linejoin: miter"/>
     <use xlink:href="#m735e9d37f4" x="354.227079" y="16.773126" style="fill: #555555; stroke: #555555; stroke-linejoin: miter"/>
     <use xlink:href="#m735e9d37f4" x="404.499773" y="14.64" style="fill: #555555; stroke: #555555; stroke-linejoin: miter"/>
    </g>
   </g>
   <g id="line2d_53">
    <path d="M 70.495227 155.42625 
L 120.767921 103.10519 
L 150.175561 82.878576 
L 171.040614 72.789756 
L 187.224807 67.052708 
L 200.448255 63.434956 
L 211.628521 60.940953 
L 221.313308 59.093126 
L 229.855895 57.647838 
L 237.4975 56.472506 
L 244.410172 55.489861 
L 250.720948 54.651637 
L 256.526299 53.925647 
L 261.901214 53.28916 
L 266.90514 52.72536 
L 271.586001 52.22134 
L 275.982994 51.766935 
L 280.128589 51.353973 
L 284.049985 50.975802 
L 287.770193 50.626945 
L 291.308855 50.302867 
L 294.682866 49.999787 
L 297.906871 49.71454 
L 300.993641 49.444467 
L 303.954386 49.187328 
L 306.798992 48.941229 
L 309.536229 48.704562 
L 312.173908 48.475964 
L 314.719017 48.254271 
L 317.177834 48.038492 
L 319.55602 47.827777 
L 321.858694 47.621399 
L 324.090506 47.418734 
L 326.255687 47.219246 
L 328.3581 47.022473 
L 330.401282 46.82802 
L 332.388479 46.635545 
L 334.322678 46.444755 
L 336.206633 46.255396 
L 338.042887 46.067253 
L 339.833797 45.880138 
L 341.581548 45.693891 
L 343.288172 45.508377 
L 344.955559 45.323478 
L 346.585474 45.139093 
L 348.179564 44.955139 
L 349.73937 44.771542 
L 351.266335 44.588242 
L 352.761814 44.405188 
L 354.227079 44.222335 
L 355.663328 44.039648 
L 357.071686 43.857095 
L 358.453216 43.674653 
L 359.808922 43.492298 
L 361.139752 43.310015 
L 362.446601 43.127789 
L 363.730319 42.945609 
L 364.99171 42.763464 
L 366.231538 42.581347 
L 367.450527 42.399252 
L 368.649367 42.217175 
L 369.828713 42.03511 
L 370.989188 41.853055 
L 372.131388 41.671008 
L 373.255878 41.488967 
L 374.3632 41.30693 
L 375.453869 41.124896 
L 376.52838 40.942864 
L 377.587205 40.760833 
L 378.630793 40.578804 
L 379.659579 40.396776 
L 380.673975 40.214748 
L 381.67438 40.032721 
L 382.661173 39.850694 
L 383.63472 39.668667 
L 384.595372 39.48664 
L 385.543466 39.304613 
L 386.479326 39.122587 
L 387.403264 38.94056 
L 388.31558 38.758533 
L 389.216563 38.576507 
L 390.10649 38.39448 
L 390.98563 38.212453 
L 391.854241 38.030427 
L 392.712573 37.8484 
L 393.560865 37.666373 
L 394.39935 37.484347 
L 395.228253 37.30232 
L 396.047789 37.120293 
L 396.858168 36.938267 
L 397.659592 36.75624 
L 398.452258 36.574213 
L 399.236354 36.392187 
L 400.012063 36.21016 
L 400.779564 36.028133 
L 401.539028 35.846107 
L 402.290622 35.66408 
L 403.034507 35.482053 
L 403.77084 35.300027 
L 404.499773 35.118 
" clip-path="url(#pa5847a4180)" style="fill: none; stroke: #aaaaaa; stroke-width: 2; stroke-linecap: square"/>
    <defs>
     <path id="md88ad1492f" d="M 0 1.767767 
L 1.767767 0 
L 0 -1.767767 
L -1.767767 0 
z
" style="stroke: #aaaaaa; stroke-linejoin: miter"/>
    </defs>
    <g clip-path="url(#pa5847a4180)">
     <use xlink:href="#md88ad1492f" x="70.495227" y="155.42625" style="fill: #aaaaaa; stroke: #aaaaaa; stroke-linejoin: miter"/>
     <use xlink:href="#md88ad1492f" x="120.767921" y="103.10519" style="fill: #aaaaaa; stroke: #aaaaaa; stroke-linejoin: miter"/>
     <use xlink:href="#md88ad1492f" x="187.224807" y="67.052708" style="fill: #aaaaaa; stroke: #aaaaaa; stroke-linejoin: miter"/>
     <use xlink:href="#md88ad1492f" x="237.4975" y="56.472506" style="fill: #aaaaaa; stroke: #aaaaaa; stroke-linejoin: miter"/>
     <use xlink:href="#md88ad1492f" x="287.770193" y="50.626945" style="fill: #aaaaaa; stroke: #aaaaaa; stroke-linejoin: miter"/>
     <use xlink:href="#md88ad1492f" x="354.227079" y="44.222335" style="fill: #aaaaaa; stroke: #aaaaaa; stroke-linejoin: miter"/>
     <use xlink:href="#md88ad1492f" x="404.499773" y="35.118" style="fill: #aaaaaa; stroke: #aaaaaa; stroke-linejoin: miter"/>
    </g>
   </g>
   <g id="line2d_54">
    <path d="M 70.495227 221.500159 
L 120.767921 164.316254 
L 150.175561 144.626978 
L 171.040614 134.327112 
L 187.224807 128.157532 
L 200.448255 124.297232 
L 211.628521 121.252137 
L 221.313308 119.681091 
L 229.855895 119.067471 
L 237.4975 118.543026 
L 244.410172 118.078446 
L 250.720948 117.634721 
L 256.526299 116.623668 
L 261.901214 115.712266 
L 266.90514 114.89791 
L 271.586001 113.58746 
L 275.982994 112.09714 
L 280.128589 110.764437 
L 284.049985 110.41161 
L 287.770193 109.967884 
L 291.308855 109.054059 
L 294.682866 108.508314 
L 297.906871 107.71473 
L 300.993641 107.683168 
L 303.954386 107.410352 
L 306.798992 107.029856 
L 309.536229 106.543758 
L 312.173908 105.565053 
L 314.719017 105.509911 
L 317.177834 105.461909 
L 319.55602 105.107503 
L 321.858694 104.734833 
L 324.090506 104.362557 
L 326.255687 103.990582 
L 328.3581 103.618837 
L 330.401282 103.24188 
L 332.388479 102.879259 
L 334.322678 102.701581 
L 336.206633 102.523978 
L 338.042887 102.346432 
L 339.833797 102.168931 
L 341.581548 101.991466 
L 343.288172 101.814028 
L 344.955559 101.636613 
L 346.585474 101.459216 
L 348.179564 101.172776 
L 349.73937 100.788131 
L 351.266335 100.403794 
L 352.761814 100.019712 
L 354.227079 99.635841 
L 355.663328 99.245358 
L 357.071686 98.852835 
L 358.453216 98.46043 
L 359.808922 98.068123 
L 361.139752 97.863376 
L 362.446601 97.512012 
L 363.730319 96.995481 
L 364.99171 96.741556 
L 366.231538 96.741437 
L 367.450527 96.731517 
L 368.649367 96.721597 
L 369.828713 96.664204 
L 370.989188 96.277368 
L 372.131388 95.878034 
L 373.255878 95.477479 
L 374.3632 95.076929 
L 375.453869 94.567647 
L 376.52838 94.02215 
L 377.587205 93.476654 
L 378.630793 93.461687 
L 379.659579 93.101546 
L 380.673975 92.705176 
L 381.67438 92.307352 
L 382.661173 91.909529 
L 383.63472 91.650008 
L 384.595372 91.318828 
L 385.543466 90.883868 
L 386.479326 90.670747 
L 387.403264 90.457605 
L 388.31558 90.2414 
L 389.216563 89.931908 
L 390.10649 89.529653 
L 390.98563 89.005706 
L 391.854241 88.435808 
L 392.712573 87.86591 
L 393.560865 87.289659 
L 394.39935 86.745467 
L 395.228253 86.136857 
L 396.047789 85.597556 
L 396.858168 85.389145 
L 397.659592 85.158418 
L 398.452258 84.766522 
L 399.236354 84.474814 
L 400.012063 83.984685 
L 400.779564 83.810566 
L 401.539028 83.805499 
L 402.290622 83.516903 
L 403.034507 83.119725 
L 403.77084 82.718673 
L 404.499773 82.31762 
" clip-path="url(#pa5847a4180)" style="fill: none; stroke-dasharray: 3.7,1.6; stroke-dashoffset: 0; stroke: #aaaaaa"/>
    <g clip-path="url(#pa5847a4180)">
     <use xlink:href="#md88ad1492f" x="70.495227" y="221.500159" style="fill: #aaaaaa; stroke: #aaaaaa; stroke-linejoin: miter"/>
     <use xlink:href="#md88ad1492f" x="120.767921" y="164.316254" style="fill: #aaaaaa; stroke: #aaaaaa; stroke-linejoin: miter"/>
     <use xlink:href="#md88ad1492f" x="187.224807" y="128.157532" style="fill: #aaaaaa; stroke: #aaaaaa; stroke-linejoin: miter"/>
     <use xlink:href="#md88ad1492f" x="237.4975" y="118.543026" style="fill: #aaaaaa; stroke: #aaaaaa; stroke-linejoin: miter"/>
     <use xlink:href="#md88ad1492f" x="287.770193" y="109.967884" style="fill: #aaaaaa; stroke: #aaaaaa; stroke-linejoin: miter"/>
     <use xlink:href="#md88ad1492f" x="354.227079" y="99.635841" style="fill: #aaaaaa; stroke: #aaaaaa; stroke-linejoin: miter"/>
     <use xlink:href="#md88ad1492f" x="404.499773" y="82.31762" style="fill: #aaaaaa; stroke: #aaaaaa; stroke-linejoin: miter"/>
    </g>
   </g>
   <g id="line2d_55">
    <path d="M 70.495227 87.613271 
L 120.767921 48.624672 
L 150.175561 33.800246 
L 171.040614 26.226188 
L 187.224807 22.147114 
L 200.448255 19.651728 
L 211.628521 18.345046 
L 221.313308 17.37941 
L 229.855895 16.685673 
L 237.4975 16.183714 
L 244.410172 15.804332 
L 250.720948 15.519629 
L 256.526299 15.302444 
L 261.901214 15.146183 
L 266.90514 15.026378 
L 271.586001 14.934405 
L 275.982994 14.863774 
L 280.128589 14.809586 
L 284.049985 14.768091 
L 287.770193 14.736399 
L 291.308855 14.712267 
L 294.682866 14.693957 
L 297.906871 14.680115 
L 300.993641 14.669692 
L 303.954386 14.661877 
L 306.798992 14.656042 
L 309.536229 14.651706 
L 312.173908 14.648499 
L 314.719017 14.646138 
L 317.177834 14.644409 
L 319.55602 14.643149 
L 321.858694 14.642236 
L 324.090506 14.641579 
L 326.255687 14.641107 
L 328.3581 14.640772 
L 330.401282 14.640534 
L 332.388479 14.640367 
L 334.322678 14.640251 
L 336.206633 14.64017 
L 338.042887 14.640114 
L 339.833797 14.640076 
L 341.581548 14.64005 
L 343.288172 14.640033 
L 344.955559 14.640021 
L 346.585474 14.640014 
L 348.179564 14.640009 
L 349.73937 14.640006 
L 351.266335 14.640003 
L 352.761814 14.640002 
L 354.227079 14.640001 
L 355.663328 14.640001 
L 357.071686 14.64 
L 358.453216 14.64 
L 359.808922 14.64 
L 361.139752 14.64 
L 362.446601 14.64 
L 363.730319 14.64 
L 364.99171 14.64 
L 366.231538 14.64 
L 367.450527 14.64 
L 368.649367 14.64 
L 369.828713 14.64 
L 370.989188 14.64 
L 372.131388 14.64 
L 373.255878 14.64 
L 374.3632 14.64 
L 375.453869 14.64 
L 376.52838 14.64 
L 377.587205 14.64 
L 378.630793 14.64 
L 379.659579 14.64 
L 380.673975 14.64 
L 381.67438 14.64 
L 382.661173 14.64 
L 383.63472 14.64 
L 384.595372 14.64 
L 385.543466 14.64 
L 386.479326 14.64 
L 387.403264 14.64 
L 388.31558 14.64 
L 389.216563 14.64 
L 390.10649 14.64 
L 390.98563 14.64 
L 391.854241 14.64 
L 392.712573 14.64 
L 393.560865 14.64 
L 394.39935 14.64 
L 395.228253 14.64 
L 396.047789 14.64 
L 396.858168 14.64 
L 397.659592 14.64 
L 398.452258 14.64 
L 399.236354 14.64 
L 400.012063 14.64 
L 400.779564 14.64 
L 401.539028 14.64 
L 402.290622 14.64 
L 403.034507 14.64 
L 403.77084 14.64 
L 404.499773 14.64 
" clip-path="url(#pa5847a4180)" style="fill: none; stroke-dasharray: 1,1.65; stroke-dashoffset: 0; stroke: #aaaaaa"/>
    <g clip-path="url(#pa5847a4180)">
     <use xlink:href="#md88ad1492f" x="70.495227" y="87.613271" style="fill: #aaaaaa; stroke: #aaaaaa; stroke-linejoin: miter"/>
     <use xlink:href="#md88ad1492f" x="120.767921" y="48.624672" style="fill: #aaaaaa; stroke: #aaaaaa; stroke-linejoin: miter"/>
     <use xlink:href="#md88ad1492f" x="187.224807" y="22.147114" style="fill: #aaaaaa; stroke: #aaaaaa; stroke-linejoin: miter"/>
     <use xlink:href="#md88ad1492f" x="237.4975" y="16.183714" style="fill: #aaaaaa; stroke: #aaaaaa; stroke-linejoin: miter"/>
     <use xlink:href="#md88ad1492f" x="287.770193" y="14.736399" style="fill: #aaaaaa; stroke: #aaaaaa; stroke-linejoin: miter"/>
     <use xlink:href="#md88ad1492f" x="354.227079" y="14.640001" style="fill: #aaaaaa; stroke: #aaaaaa; stroke-linejoin: miter"/>
     <use xlink:href="#md88ad1492f" x="404.499773" y="14.64" style="fill: #aaaaaa; stroke: #aaaaaa; stroke-linejoin: miter"/>
    </g>
   </g>
   <g id="patch_3">
    <path d="M 53.795 246.724 
L 53.795 14.64 
" style="fill: none; stroke: #000000; stroke-width: 0.8; stroke-linejoin: miter; stroke-linecap: square"/>
   </g>
   <g id="patch_4">
    <path d="M 421.2 246.724 
L 421.2 14.64 
" style="fill: none; stroke: #000000; stroke-width: 0.8; stroke-linejoin: miter; stroke-linecap: square"/>
   </g>
   <g id="patch_5">
    <path d="M 53.795 246.724 
L 421.2 246.724 
" style="fill: none; stroke: #000000; stroke-width: 0.8; stroke-linejoin: miter; stroke-linecap: square"/>
   </g>
   <g id="patch_6">
    <path d="M 53.795 14.64 
L 421.2 14.64 
" style="fill: none; stroke: #000000; stroke-width: 0.8; stroke-linejoin: miter; stroke-linecap: square"/>
   </g>
   <g id="legend_1">
    <g id="patch_7">
     <path d="M 336.259375 241.724 
L 414.2 241.724 
Q 416.2 241.724 416.2 239.724 
L 416.2 167.333375 
Q 416.2 165.333375 414.2 165.333375 
L 336.259375 165.333375 
Q 334.259375 165.333375 334.259375 167.333375 
L 334.259375 239.724 
Q 334.259375 241.724 336.259375 241.724 
z
" style="fill: #ffffff; opacity: 0.8; stroke: #cccccc; stroke-linejoin: miter"/>
    </g>
    <g id="line2d_56">
     <path d="M 338.259375 173.431813 
L 348.259375 173.431813 
L 358.259375 173.431813 
" style="fill: none; stroke-dasharray: 3.7,1.6; stroke-dashoffset: 0; stroke: #000000"/>
    </g>
    <g id="text_15">
     <!-- CI lower -->
     <g transform="translate(366.259375 176.931813) scale(0.1 -0.1)">
      <defs>
       <path id="DejaVuSans-43" d="M 4122 4306 
L 4122 3641 
Q 3803 3938 3442 4084 
Q 3081 4231 2675 4231 
Q 1875 4231 1450 3742 
Q 1025 3253 1025 2328 
Q 1025 1406 1450 917 
Q 1875 428 2675 428 
Q 3081 428 3442 575 
Q 3803 722 4122 1019 
L 4122 359 
Q 3791 134 3420 21 
Q 3050 -91 2638 -91 
Q 1578 -91 968 557 
Q 359 1206 359 2328 
Q 359 3453 968 4101 
Q 1578 4750 2638 4750 
Q 3056 4750 3426 4639 
Q 3797 4528 4122 4306 
z
" transform="scale(0.015625)"/>
       <path id="DejaVuSans-49" d="M 628 4666 
L 1259 4666 
L 1259 0 
L 628 0 
L 628 4666 
z
" transform="scale(0.015625)"/>
       <path id="DejaVuSans-20" transform="scale(0.015625)"/>
       <path id="DejaVuSans-6c" d="M 603 4863 
L 1178 4863 
L 1178 0 
L 603 0 
L 603 4863 
z
" transform="scale(0.015625)"/>
       <path id="DejaVuSans-6f" d="M 1959 3097 
Q 1497 3097 1228 2736 
Q 959 2375 959 1747 
Q 959 1119 1226 758 
Q 1494 397 1959 397 
Q 2419 397 2687 759 
Q 2956 1122 2956 1747 
Q 2956 2369 2687 2733 
Q 2419 3097 1959 3097 
z
M 1959 3584 
Q 2709 3584 3137 3096 
Q 3566 2609 3566 1747 
Q 3566 888 3137 398 
Q 2709 -91 1959 -91 
Q 1206 -91 779 398 
Q 353 888 353 1747 
Q 353 2609 779 3096 
Q 1206 3584 1959 3584 
z
" transform="scale(0.015625)"/>
       <path id="DejaVuSans-77" d="M 269 3500 
L 844 3500 
L 1563 769 
L 2278 3500 
L 2956 3500 
L 3675 769 
L 4391 3500 
L 4966 3500 
L 4050 0 
L 3372 0 
L 2619 2869 
L 1863 0 
L 1184 0 
L 269 3500 
z
" transform="scale(0.015625)"/>
       <path id="DejaVuSans-65" d="M 3597 1894 
L 3597 1613 
L 953 1613 
Q 991 1019 1311 708 
Q 1631 397 2203 397 
Q 2534 397 2845 478 
Q 3156 559 3463 722 
L 3463 178 
Q 3153 47 2828 -22 
Q 2503 -91 2169 -91 
Q 1331 -91 842 396 
Q 353 884 353 1716 
Q 353 2575 817 3079 
Q 1281 3584 2069 3584 
Q 2775 3584 3186 3129 
Q 3597 2675 3597 1894 
z
M 3022 2063 
Q 3016 2534 2758 2815 
Q 2500 3097 2075 3097 
Q 1594 3097 1305 2825 
Q 1016 2553 972 2059 
L 3022 2063 
z
" transform="scale(0.015625)"/>
       <path id="DejaVuSans-72" d="M 2631 2963 
Q 2534 3019 2420 3045 
Q 2306 3072 2169 3072 
Q 1681 3072 1420 2755 
Q 1159 2438 1159 1844 
L 1159 0 
L 581 0 
L 581 3500 
L 1159 3500 
L 1159 2956 
Q 1341 3275 1631 3429 
Q 1922 3584 2338 3584 
Q 2397 3584 2469 3576 
Q 2541 3569 2628 3553 
L 2631 2963 
z
" transform="scale(0.015625)"/>
      </defs>
      <use xlink:href="#DejaVuSans-43"/>
      <use xlink:href="#DejaVuSans-49" x="69.824219"/>
      <use xlink:href="#DejaVuSans-20" x="99.316406"/>
      <use xlink:href="#DejaVuSans-6c" x="131.103516"/>
      <use xlink:href="#DejaVuSans-6f" x="158.886719"/>
      <use xlink:href="#DejaVuSans-77" x="220.068359"/>
      <use xlink:href="#DejaVuSans-65" x="301.855469"/>
      <use xlink:href="#DejaVuSans-72" x="363.378906"/>
     </g>
    </g>
    <g id="line2d_57">
     <path d="M 338.259375 188.109938 
L 348.259375 188.109938 
L 358.259375 188.109938 
" style="fill: none; stroke-dasharray: 1,1.65; stroke-dashoffset: 0; stroke: #000000"/>
    </g>
    <g id="text_16">
     <!-- CI upper -->
     <g transform="translate(366.259375 191.609938) scale(0.1 -0.1)">
      <defs>
       <path id="DejaVuSans-75" d="M 544 1381 
L 544 3500 
L 1119 3500 
L 1119 1403 
Q 1119 906 1312 657 
Q 1506 409 1894 409 
Q 2359 409 2629 706 
Q 2900 1003 2900 1516 
L 2900 3500 
L 3475 3500 
L 3475 0 
L 2900 0 
L 2900 538 
Q 2691 219 2414 64 
Q 2138 -91 1772 -91 
Q 1169 -91 856 284 
Q 544 659 544 1381 
z
M 1991 3584 
L 1991 3584 
z
" transform="scale(0.015625)"/>
      </defs>
      <use xlink:href="#DejaVuSans-43"/>
      <use xlink:href="#DejaVuSans-49" x="69.824219"/>
      <use xlink:href="#DejaVuSans-20" x="99.316406"/>
      <use xlink:href="#DejaVuSans-75" x="131.103516"/>
      <use xlink:href="#DejaVuSans-70" x="194.482422"/>
      <use xlink:href="#DejaVuSans-70" x="257.958984"/>
      <use xlink:href="#DejaVuSans-65" x="321.435547"/>
      <use xlink:href="#DejaVuSans-72" x="382.958984"/>
     </g>
    </g>
    <g id="line2d_58">
     <path d="M 338.259375 202.788063 
L 348.259375 202.788063 
L 358.259375 202.788063 
" style="fill: none; stroke: #000000; stroke-width: 2; stroke-linecap: square"/>
     <g>
      <use xlink:href="#md90ed72954" x="348.259375" y="202.788063" style="stroke: #000000"/>
     </g>
    </g>
    <g id="text_17">
     <!-- baseline -->
     <g transform="translate(366.259375 206.288063) scale(0.1 -0.1)">
      <defs>
       <path id="DejaVuSans-62" d="M 3116 1747 
Q 3116 2381 2855 2742 
Q 2594 3103 2138 3103 
Q 1681 3103 1420 2742 
Q 1159 2381 1159 1747 
Q 1159 1113 1420 752 
Q 1681 391 2138 391 
Q 2594 391 2855 752 
Q 3116 1113 3116 1747 
z
M 1159 2969 
Q 1341 3281 1617 3432 
Q 1894 3584 2278 3584 
Q 2916 3584 3314 3078 
Q 3713 2572 3713 1747 
Q 3713 922 3314 415 
Q 2916 -91 2278 -91 
Q 1894 -91 1617 61 
Q 1341 213 1159 525 
L 1159 0 
L 581 0 
L 581 4863 
L 1159 4863 
L 1159 2969 
z
" transform="scale(0.015625)"/>
       <path id="DejaVuSans-69" d="M 603 3500 
L 1178 3500 
L 1178 0 
L 603 0 
L 603 3500 
z
M 603 4863 
L 1178 4863 
L 1178 4134 
L 603 4134 
L 603 4863 
z
" transform="scale(0.015625)"/>
       <path id="DejaVuSans-6e" d="M 3513 2113 
L 3513 0 
L 2938 0 
L 2938 2094 
Q 2938 2591 2744 2837 
Q 2550 3084 2163 3084 
Q 1697 3084 1428 2787 
Q 1159 2491 1159 1978 
L 1159 0 
L 581 0 
L 581 3500 
L 1159 3500 
L 1159 2956 
Q 1366 3272 1645 3428 
Q 1925 3584 2291 3584 
Q 2894 3584 3203 3211 
Q 3513 2838 3513 2113 
z
" transform="scale(0.015625)"/>
      </defs>
      <use xlink:href="#DejaVuSans-62"/>
      <use xlink:href="#DejaVuSans-61" x="63.476562"/>
      <use xlink:href="#DejaVuSans-73" x="124.755859"/>
      <use xlink:href="#DejaVuSans-65" x="176.855469"/>
      <use xlink:href="#DejaVuSans-6c" x="238.378906"/>
      <use xlink:href="#DejaVuSans-69" x="266.162109"/>
      <use xlink:href="#DejaVuSans-6e" x="293.945312"/>
      <use xlink:href="#DejaVuSans-65" x="357.324219"/>
     </g>
    </g>
    <g id="line2d_59">
     <path d="M 338.259375 217.466188 
L 348.259375 217.466188 
L 358.259375 217.466188 
" style="fill: none; stroke: #555555; stroke-width: 2; stroke-linecap: square"/>
     <g>
      <use xlink:href="#m735e9d37f4" x="348.259375" y="217.466188" style="fill: #555555; stroke: #555555; stroke-linejoin: miter"/>
     </g>
    </g>
    <g id="text_18">
     <!-- CoT -->
     <g transform="translate(366.259375 220.966188) scale(0.1 -0.1)">
      <defs>
       <path id="DejaVuSans-54" d="M -19 4666 
L 3928 4666 
L 3928 4134 
L 2272 4134 
L 2272 0 
L 1638 0 
L 1638 4134 
L -19 4134 
L -19 4666 
z
" transform="scale(0.015625)"/>
      </defs>
      <use xlink:href="#DejaVuSans-43"/>
      <use xlink:href="#DejaVuSans-6f" x="69.824219"/>
      <use xlink:href="#DejaVuSans-54" x="131.005859"/>
     </g>
    </g>
    <g id="line2d_60">
     <path d="M 338.259375 232.144313 
L 348.259375 232.144313 
L 358.259375 232.144313 
" style="fill: none; stroke: #aaaaaa; stroke-width: 2; stroke-linecap: square"/>
     <g>
      <use xlink:href="#md88ad1492f" x="348.259375" y="232.144313" style="fill: #aaaaaa; stroke: #aaaaaa; stroke-linejoin: miter"/>
     </g>
    </g>
    <g id="text_19">
     <!-- feedback -->
     <g transform="translate(366.259375 235.644313) scale(0.1 -0.1)">
      <defs>
       <path id="DejaVuSans-66" d="M 2375 4863 
L 2375 4384 
L 1825 4384 
Q 1516 4384 1395 4259 
Q 1275 4134 1275 3809 
L 1275 3500 
L 2222 3500 
L 2222 3053 
L 1275 3053 
L 1275 0 
L 697 0 
L 697 3053 
L 147 3053 
L 147 3500 
L 697 3500 
L 697 3744 
Q 697 4328 969 4595 
Q 1241 4863 1831 4863 
L 2375 4863 
z
" transform="scale(0.015625)"/>
       <path id="DejaVuSans-64" d="M 2906 2969 
L 2906 4863 
L 3481 4863 
L 3481 0 
L 2906 0 
L 2906 525 
Q 2725 213 2448 61 
Q 2172 -91 1784 -91 
Q 1150 -91 751 415 
Q 353 922 353 1747 
Q 353 2572 751 3078 
Q 1150 3584 1784 3584 
Q 2172 3584 2448 3432 
Q 2725 3281 2906 2969 
z
M 947 1747 
Q 947 1113 1208 752 
Q 1469 391 1925 391 
Q 2381 391 2643 752 
Q 2906 1113 2906 1747 
Q 2906 2381 2643 2742 
Q 2381 3103 1925 3103 
Q 1469 3103 1208 2742 
Q 947 2381 947 1747 
z
" transform="scale(0.015625)"/>
       <path id="DejaVuSans-63" d="M 3122 3366 
L 3122 2828 
Q 2878 2963 2633 3030 
Q 2388 3097 2138 3097 
Q 1578 3097 1268 2742 
Q 959 2388 959 1747 
Q 959 1106 1268 751 
Q 1578 397 2138 397 
Q 2388 397 2633 464 
Q 2878 531 3122 666 
L 3122 134 
Q 2881 22 2623 -34 
Q 2366 -91 2075 -91 
Q 1284 -91 818 406 
Q 353 903 353 1747 
Q 353 2603 823 3093 
Q 1294 3584 2113 3584 
Q 2378 3584 2631 3529 
Q 2884 3475 3122 3366 
z
" transform="scale(0.015625)"/>
      </defs>
      <use xlink:href="#DejaVuSans-66"/>
      <use xlink:href="#DejaVuSans-65" x="35.205078"/>
      <use xlink:href="#DejaVuSans-65" x="96.728516"/>
      <use xlink:href="#DejaVuSans-64" x="158.251953"/>
      <use xlink:href="#DejaVuSans-62" x="221.728516"/>
      <use xlink:href="#DejaVuSans-61" x="285.205078"/>
      <use xlink:href="#DejaVuSans-63" x="346.484375"/>
      <use xlink:href="#DejaVuSans-6b" x="401.464844"/>
     </g>
    </g>
   </g>
  </g>
 </g>
 <defs>
  <clipPath id="pa5847a4180">
   <rect x="53.795" y="14.64" width="367.405" height="232.084"/>
  </clipPath>
 </defs>
</svg>
