<?xml version="1.0" encoding="utf-8" standalone="no"?>
<!DOCTYPE svg PUBLIC "-//W3C//DTD SVG 1.1//EN"
  "http://www.w3.org/Graphics/SVG/1.1/DTD/svg11.dtd">
<svg xmlns:xlink="http://www.w3.org/1999/xlink" width="432pt" height="288pt" viewBox="0 0 432 288" xmlns="http://www.w3.org/2000/svg" version="1.1">
 <metadata>
  <rdf:RDF xmlns:dc="http://purl.org/dc/elements/1.1/" xmlns:cc="http://creativecommons.org/ns#" xmlns:rdf="http://www.w3.org/1999/02/22-rdf-syntax-ns#">
   <cc:Work>
    <dc:type rdf:resource="http://purl.org/dc/dcmitype/StillImage"/>
    <dc:date>2025-12-10T14:39:36.184447</dc:date>
    <dc:format>image/svg+xml</dc:format>
    <dc:creator>
     <cc:Agent>
      <dc:title>Matplotlib v3.9.0, https://matplotlib.org/</dc:title>
     </cc:Agent>
    </dc:creator>
   </cc:Work>
  </rdf:RDF>
 </metadata>
 <defs>
  <style type="text/css">*{stroke-linejoin: round; stroke-linecap: butt}</style>
 </defs>
 <g id="figure_1">
  <g id="patch_1">
   <path d="M 0 288 
L 432 288 
L 432 0 
L 0 0 
z
" style="fill: #ffffff"/>
  </g>
  <g id="axes_1">
   <g id="patch_2">
    <path d="M 53.72 244.504 
L 421.2 244.504 
L 421.2 25.92 
L 53.72 25.92 
z
" style="fill: #ffffff"/>
   </g>
   <g id="matplotlib.axis_1">
    <g id="xtick_1">
     <g id="line2d_1">
      <path d="M 70.423636 244.504 
L 70.423636 25.92 
" clip-path="url(#p752b2ac515)" style="fill: none; stroke-dasharray: 0.5,0.825; stroke-dashoffset: 0; stroke: #b0b0b0; stroke-opacity: 0.7; stroke-width: 0.5"/>
     </g>
     <g id="line2d_2">
      <defs>
       <path id="m2e318e2a20" d="M 0 0 
L 0 3.5 
" style="stroke: #000000; stroke-width: 0.8"/>
      </defs>
      <g>
       <use xlink:href="#m2e318e2a20" x="70.423636" y="244.504" style="stroke: #000000; stroke-width: 0.8"/>
      </g>
     </g>
     <g id="text_1">
      <!-- $\mathdefault{10^{0}}$ -->
      <g transform="translate(61.623636 259.102438) scale(0.1 -0.1)">
       <defs>
        <path id="DejaVuSans-31" d="M 794 531 
L 1825 531 
L 1825 4091 
L 703 3866 
L 703 4441 
L 1819 4666 
L 2450 4666 
L 2450 531 
L 3481 531 
L 3481 0 
L 794 0 
L 794 531 
z
" transform="scale(0.015625)"/>
        <path id="DejaVuSans-30" d="M 2034 4250 
Q 1547 4250 1301 3770 
Q 1056 3291 1056 2328 
Q 1056 1369 1301 889 
Q 1547 409 2034 409 
Q 2525 409 2770 889 
Q 3016 1369 3016 2328 
Q 3016 3291 2770 3770 
Q 2525 4250 2034 4250 
z
M 2034 4750 
Q 2819 4750 3233 4129 
Q 3647 3509 3647 2328 
Q 3647 1150 3233 529 
Q 2819 -91 2034 -91 
Q 1250 -91 836 529 
Q 422 1150 422 2328 
Q 422 3509 836 4129 
Q 1250 4750 2034 4750 
z
" transform="scale(0.015625)"/>
       </defs>
       <use xlink:href="#DejaVuSans-31" transform="translate(0 0.765625)"/>
       <use xlink:href="#DejaVuSans-30" transform="translate(63.623047 0.765625)"/>
       <use xlink:href="#DejaVuSans-30" transform="translate(128.203125 39.046875) scale(0.7)"/>
      </g>
     </g>
    </g>
    <g id="xtick_2">
     <g id="line2d_3">
      <path d="M 120.706592 244.504 
L 120.706592 25.92 
" clip-path="url(#p752b2ac515)" style="fill: none; stroke-dasharray: 0.5,0.825; stroke-dashoffset: 0; stroke: #b0b0b0; stroke-opacity: 0.7; stroke-width: 0.5"/>
     </g>
     <g id="line2d_4">
      <g>
       <use xlink:href="#m2e318e2a20" x="120.706592" y="244.504" style="stroke: #000000; stroke-width: 0.8"/>
      </g>
     </g>
    </g>
    <g id="xtick_3">
     <g id="line2d_5">
      <path d="M 187.177044 244.504 
L 187.177044 25.92 
" clip-path="url(#p752b2ac515)" style="fill: none; stroke-dasharray: 0.5,0.825; stroke-dashoffset: 0; stroke: #b0b0b0; stroke-opacity: 0.7; stroke-width: 0.5"/>
     </g>
     <g id="line2d_6">
      <g>
       <use xlink:href="#m2e318e2a20" x="187.177044" y="244.504" style="stroke: #000000; stroke-width: 0.8"/>
      </g>
     </g>
    </g>
    <g id="xtick_4">
     <g id="line2d_7">
      <path d="M 237.46 244.504 
L 237.46 25.92 
" clip-path="url(#p752b2ac515)" style="fill: none; stroke-dasharray: 0.5,0.825; stroke-dashoffset: 0; stroke: #b0b0b0; stroke-opacity: 0.7; stroke-width: 0.5"/>
     </g>
     <g id="line2d_8">
      <g>
       <use xlink:href="#m2e318e2a20" x="237.46" y="244.504" style="stroke: #000000; stroke-width: 0.8"/>
      </g>
     </g>
     <g id="text_2">
      <!-- $\mathdefault{10^{1}}$ -->
      <g transform="translate(228.66 259.102438) scale(0.1 -0.1)">
       <use xlink:href="#DejaVuSans-31" transform="translate(0 0.684375)"/>
       <use xlink:href="#DejaVuSans-30" transform="translate(63.623047 0.684375)"/>
       <use xlink:href="#DejaVuSans-31" transform="translate(128.203125 38.965625) scale(0.7)"/>
      </g>
     </g>
    </g>
    <g id="xtick_5">
     <g id="line2d_9">
      <path d="M 287.742956 244.504 
L 287.742956 25.92 
" clip-path="url(#p752b2ac515)" style="fill: none; stroke-dasharray: 0.5,0.825; stroke-dashoffset: 0; stroke: #b0b0b0; stroke-opacity: 0.7; stroke-width: 0.5"/>
     </g>
     <g id="line2d_10">
      <g>
       <use xlink:href="#m2e318e2a20" x="287.742956" y="244.504" style="stroke: #000000; stroke-width: 0.8"/>
      </g>
     </g>
    </g>
    <g id="xtick_6">
     <g id="line2d_11">
      <path d="M 354.213408 244.504 
L 354.213408 25.92 
" clip-path="url(#p752b2ac515)" style="fill: none; stroke-dasharray: 0.5,0.825; stroke-dashoffset: 0; stroke: #b0b0b0; stroke-opacity: 0.7; stroke-width: 0.5"/>
     </g>
     <g id="line2d_12">
      <g>
       <use xlink:href="#m2e318e2a20" x="354.213408" y="244.504" style="stroke: #000000; stroke-width: 0.8"/>
      </g>
     </g>
    </g>
    <g id="xtick_7">
     <g id="line2d_13">
      <path d="M 404.496364 244.504 
L 404.496364 25.92 
" clip-path="url(#p752b2ac515)" style="fill: none; stroke-dasharray: 0.5,0.825; stroke-dashoffset: 0; stroke: #b0b0b0; stroke-opacity: 0.7; stroke-width: 0.5"/>
     </g>
     <g id="line2d_14">
      <g>
       <use xlink:href="#m2e318e2a20" x="404.496364" y="244.504" style="stroke: #000000; stroke-width: 0.8"/>
      </g>
     </g>
     <g id="text_3">
      <!-- $\mathdefault{10^{2}}$ -->
      <g transform="translate(395.696364 259.102438) scale(0.1 -0.1)">
       <defs>
        <path id="DejaVuSans-32" d="M 1228 531 
L 3431 531 
L 3431 0 
L 469 0 
L 469 531 
Q 828 903 1448 1529 
Q 2069 2156 2228 2338 
Q 2531 2678 2651 2914 
Q 2772 3150 2772 3378 
Q 2772 3750 2511 3984 
Q 2250 4219 1831 4219 
Q 1534 4219 1204 4116 
Q 875 4013 500 3803 
L 500 4441 
Q 881 4594 1212 4672 
Q 1544 4750 1819 4750 
Q 2544 4750 2975 4387 
Q 3406 4025 3406 3419 
Q 3406 3131 3298 2873 
Q 3191 2616 2906 2266 
Q 2828 2175 2409 1742 
Q 1991 1309 1228 531 
z
" transform="scale(0.015625)"/>
       </defs>
       <use xlink:href="#DejaVuSans-31" transform="translate(0 0.765625)"/>
       <use xlink:href="#DejaVuSans-30" transform="translate(63.623047 0.765625)"/>
       <use xlink:href="#DejaVuSans-32" transform="translate(128.203125 39.046875) scale(0.7)"/>
      </g>
     </g>
    </g>
    <g id="xtick_8">
     <g id="line2d_15">
      <defs>
       <path id="md24f9d3873" d="M 0 0 
L 0 2 
" style="stroke: #000000; stroke-width: 0.6"/>
      </defs>
      <g>
       <use xlink:href="#md24f9d3873" x="54.23614" y="244.504" style="stroke: #000000; stroke-width: 0.6"/>
      </g>
     </g>
    </g>
    <g id="xtick_9">
     <g id="line2d_16">
      <g>
       <use xlink:href="#md24f9d3873" x="62.780472" y="244.504" style="stroke: #000000; stroke-width: 0.6"/>
      </g>
     </g>
    </g>
    <g id="xtick_10">
     <g id="line2d_17">
      <g>
       <use xlink:href="#md24f9d3873" x="150.120236" y="244.504" style="stroke: #000000; stroke-width: 0.6"/>
      </g>
     </g>
    </g>
    <g id="xtick_11">
     <g id="line2d_18">
      <g>
       <use xlink:href="#md24f9d3873" x="170.989548" y="244.504" style="stroke: #000000; stroke-width: 0.6"/>
      </g>
     </g>
    </g>
    <g id="xtick_12">
     <g id="line2d_19">
      <g>
       <use xlink:href="#md24f9d3873" x="200.403192" y="244.504" style="stroke: #000000; stroke-width: 0.6"/>
      </g>
     </g>
    </g>
    <g id="xtick_13">
     <g id="line2d_20">
      <g>
       <use xlink:href="#md24f9d3873" x="211.58574" y="244.504" style="stroke: #000000; stroke-width: 0.6"/>
      </g>
     </g>
    </g>
    <g id="xtick_14">
     <g id="line2d_21">
      <g>
       <use xlink:href="#md24f9d3873" x="221.272504" y="244.504" style="stroke: #000000; stroke-width: 0.6"/>
      </g>
     </g>
    </g>
    <g id="xtick_15">
     <g id="line2d_22">
      <g>
       <use xlink:href="#md24f9d3873" x="229.816835" y="244.504" style="stroke: #000000; stroke-width: 0.6"/>
      </g>
     </g>
    </g>
    <g id="xtick_16">
     <g id="line2d_23">
      <g>
       <use xlink:href="#md24f9d3873" x="317.156599" y="244.504" style="stroke: #000000; stroke-width: 0.6"/>
      </g>
     </g>
    </g>
    <g id="xtick_17">
     <g id="line2d_24">
      <g>
       <use xlink:href="#md24f9d3873" x="338.025912" y="244.504" style="stroke: #000000; stroke-width: 0.6"/>
      </g>
     </g>
    </g>
    <g id="xtick_18">
     <g id="line2d_25">
      <g>
       <use xlink:href="#md24f9d3873" x="367.439555" y="244.504" style="stroke: #000000; stroke-width: 0.6"/>
      </g>
     </g>
    </g>
    <g id="xtick_19">
     <g id="line2d_26">
      <g>
       <use xlink:href="#md24f9d3873" x="378.622104" y="244.504" style="stroke: #000000; stroke-width: 0.6"/>
      </g>
     </g>
    </g>
    <g id="xtick_20">
     <g id="line2d_27">
      <g>
       <use xlink:href="#md24f9d3873" x="388.308867" y="244.504" style="stroke: #000000; stroke-width: 0.6"/>
      </g>
     </g>
    </g>
    <g id="xtick_21">
     <g id="line2d_28">
      <g>
       <use xlink:href="#md24f9d3873" x="396.853199" y="244.504" style="stroke: #000000; stroke-width: 0.6"/>
      </g>
     </g>
    </g>
    <g id="text_4">
     <!-- k -->
     <g transform="translate(234.564687 272.780563) scale(0.1 -0.1)">
      <defs>
       <path id="DejaVuSans-6b" d="M 581 4863 
L 1159 4863 
L 1159 1991 
L 2875 3500 
L 3609 3500 
L 1753 1863 
L 3688 0 
L 2938 0 
L 1159 1709 
L 1159 0 
L 581 0 
L 581 4863 
z
" transform="scale(0.015625)"/>
      </defs>
      <use xlink:href="#DejaVuSans-6b"/>
     </g>
    </g>
   </g>
   <g id="matplotlib.axis_2">
    <g id="ytick_1">
     <g id="line2d_29">
      <path d="M 53.72 244.504 
L 421.2 244.504 
" clip-path="url(#p752b2ac515)" style="fill: none; stroke-dasharray: 0.5,0.825; stroke-dashoffset: 0; stroke: #b0b0b0; stroke-opacity: 0.7; stroke-width: 0.5"/>
     </g>
     <g id="line2d_30">
      <defs>
       <path id="m83c8a201a4" d="M 0 0 
L -3.5 0 
" style="stroke: #000000; stroke-width: 0.8"/>
      </defs>
      <g>
       <use xlink:href="#m83c8a201a4" x="53.72" y="244.504" style="stroke: #000000; stroke-width: 0.8"/>
      </g>
     </g>
     <g id="text_5">
      <!-- 0.60 -->
      <g transform="translate(24.454375 248.303219) scale(0.1 -0.1)">
       <defs>
        <path id="DejaVuSans-2e" d="M 684 794 
L 1344 794 
L 1344 0 
L 684 0 
L 684 794 
z
" transform="scale(0.015625)"/>
        <path id="DejaVuSans-36" d="M 2113 2584 
Q 1688 2584 1439 2293 
Q 1191 2003 1191 1497 
Q 1191 994 1439 701 
Q 1688 409 2113 409 
Q 2538 409 2786 701 
Q 3034 994 3034 1497 
Q 3034 2003 2786 2293 
Q 2538 2584 2113 2584 
z
M 3366 4563 
L 3366 3988 
Q 3128 4100 2886 4159 
Q 2644 4219 2406 4219 
Q 1781 4219 1451 3797 
Q 1122 3375 1075 2522 
Q 1259 2794 1537 2939 
Q 1816 3084 2150 3084 
Q 2853 3084 3261 2657 
Q 3669 2231 3669 1497 
Q 3669 778 3244 343 
Q 2819 -91 2113 -91 
Q 1303 -91 875 529 
Q 447 1150 447 2328 
Q 447 3434 972 4092 
Q 1497 4750 2381 4750 
Q 2619 4750 2861 4703 
Q 3103 4656 3366 4563 
z
" transform="scale(0.015625)"/>
       </defs>
       <use xlink:href="#DejaVuSans-30"/>
       <use xlink:href="#DejaVuSans-2e" x="63.623047"/>
       <use xlink:href="#DejaVuSans-36" x="95.410156"/>
       <use xlink:href="#DejaVuSans-30" x="159.033203"/>
      </g>
     </g>
    </g>
    <g id="ytick_2">
     <g id="line2d_31">
      <path d="M 53.72 217.181 
L 421.2 217.181 
" clip-path="url(#p752b2ac515)" style="fill: none; stroke-dasharray: 0.5,0.825; stroke-dashoffset: 0; stroke: #b0b0b0; stroke-opacity: 0.7; stroke-width: 0.5"/>
     </g>
     <g id="line2d_32">
      <g>
       <use xlink:href="#m83c8a201a4" x="53.72" y="217.181" style="stroke: #000000; stroke-width: 0.8"/>
      </g>
     </g>
     <g id="text_6">
      <!-- 0.65 -->
      <g transform="translate(24.454375 220.980219) scale(0.1 -0.1)">
       <defs>
        <path id="DejaVuSans-35" d="M 691 4666 
L 3169 4666 
L 3169 4134 
L 1269 4134 
L 1269 2991 
Q 1406 3038 1543 3061 
Q 1681 3084 1819 3084 
Q 2600 3084 3056 2656 
Q 3513 2228 3513 1497 
Q 3513 744 3044 326 
Q 2575 -91 1722 -91 
Q 1428 -91 1123 -41 
Q 819 9 494 109 
L 494 744 
Q 775 591 1075 516 
Q 1375 441 1709 441 
Q 2250 441 2565 725 
Q 2881 1009 2881 1497 
Q 2881 1984 2565 2268 
Q 2250 2553 1709 2553 
Q 1456 2553 1204 2497 
Q 953 2441 691 2322 
L 691 4666 
z
" transform="scale(0.015625)"/>
       </defs>
       <use xlink:href="#DejaVuSans-30"/>
       <use xlink:href="#DejaVuSans-2e" x="63.623047"/>
       <use xlink:href="#DejaVuSans-36" x="95.410156"/>
       <use xlink:href="#DejaVuSans-35" x="159.033203"/>
      </g>
     </g>
    </g>
    <g id="ytick_3">
     <g id="line2d_33">
      <path d="M 53.72 189.858 
L 421.2 189.858 
" clip-path="url(#p752b2ac515)" style="fill: none; stroke-dasharray: 0.5,0.825; stroke-dashoffset: 0; stroke: #b0b0b0; stroke-opacity: 0.7; stroke-width: 0.5"/>
     </g>
     <g id="line2d_34">
      <g>
       <use xlink:href="#m83c8a201a4" x="53.72" y="189.858" style="stroke: #000000; stroke-width: 0.8"/>
      </g>
     </g>
     <g id="text_7">
      <!-- 0.70 -->
      <g transform="translate(24.454375 193.657219) scale(0.1 -0.1)">
       <defs>
        <path id="DejaVuSans-37" d="M 525 4666 
L 3525 4666 
L 3525 4397 
L 1831 0 
L 1172 0 
L 2766 4134 
L 525 4134 
L 525 4666 
z
" transform="scale(0.015625)"/>
       </defs>
       <use xlink:href="#DejaVuSans-30"/>
       <use xlink:href="#DejaVuSans-2e" x="63.623047"/>
       <use xlink:href="#DejaVuSans-37" x="95.410156"/>
       <use xlink:href="#DejaVuSans-30" x="159.033203"/>
      </g>
     </g>
    </g>
    <g id="ytick_4">
     <g id="line2d_35">
      <path d="M 53.72 162.535 
L 421.2 162.535 
" clip-path="url(#p752b2ac515)" style="fill: none; stroke-dasharray: 0.5,0.825; stroke-dashoffset: 0; stroke: #b0b0b0; stroke-opacity: 0.7; stroke-width: 0.5"/>
     </g>
     <g id="line2d_36">
      <g>
       <use xlink:href="#m83c8a201a4" x="53.72" y="162.535" style="stroke: #000000; stroke-width: 0.8"/>
      </g>
     </g>
     <g id="text_8">
      <!-- 0.75 -->
      <g transform="translate(24.454375 166.334219) scale(0.1 -0.1)">
       <use xlink:href="#DejaVuSans-30"/>
       <use xlink:href="#DejaVuSans-2e" x="63.623047"/>
       <use xlink:href="#DejaVuSans-37" x="95.410156"/>
       <use xlink:href="#DejaVuSans-35" x="159.033203"/>
      </g>
     </g>
    </g>
    <g id="ytick_5">
     <g id="line2d_37">
      <path d="M 53.72 135.212 
L 421.2 135.212 
" clip-path="url(#p752b2ac515)" style="fill: none; stroke-dasharray: 0.5,0.825; stroke-dashoffset: 0; stroke: #b0b0b0; stroke-opacity: 0.7; stroke-width: 0.5"/>
     </g>
     <g id="line2d_38">
      <g>
       <use xlink:href="#m83c8a201a4" x="53.72" y="135.212" style="stroke: #000000; stroke-width: 0.8"/>
      </g>
     </g>
     <g id="text_9">
      <!-- 0.80 -->
      <g transform="translate(24.454375 139.011219) scale(0.1 -0.1)">
       <defs>
        <path id="DejaVuSans-38" d="M 2034 2216 
Q 1584 2216 1326 1975 
Q 1069 1734 1069 1313 
Q 1069 891 1326 650 
Q 1584 409 2034 409 
Q 2484 409 2743 651 
Q 3003 894 3003 1313 
Q 3003 1734 2745 1975 
Q 2488 2216 2034 2216 
z
M 1403 2484 
Q 997 2584 770 2862 
Q 544 3141 544 3541 
Q 544 4100 942 4425 
Q 1341 4750 2034 4750 
Q 2731 4750 3128 4425 
Q 3525 4100 3525 3541 
Q 3525 3141 3298 2862 
Q 3072 2584 2669 2484 
Q 3125 2378 3379 2068 
Q 3634 1759 3634 1313 
Q 3634 634 3220 271 
Q 2806 -91 2034 -91 
Q 1263 -91 848 271 
Q 434 634 434 1313 
Q 434 1759 690 2068 
Q 947 2378 1403 2484 
z
M 1172 3481 
Q 1172 3119 1398 2916 
Q 1625 2713 2034 2713 
Q 2441 2713 2670 2916 
Q 2900 3119 2900 3481 
Q 2900 3844 2670 4047 
Q 2441 4250 2034 4250 
Q 1625 4250 1398 4047 
Q 1172 3844 1172 3481 
z
" transform="scale(0.015625)"/>
       </defs>
       <use xlink:href="#DejaVuSans-30"/>
       <use xlink:href="#DejaVuSans-2e" x="63.623047"/>
       <use xlink:href="#DejaVuSans-38" x="95.410156"/>
       <use xlink:href="#DejaVuSans-30" x="159.033203"/>
      </g>
     </g>
    </g>
    <g id="ytick_6">
     <g id="line2d_39">
      <path d="M 53.72 107.889 
L 421.2 107.889 
" clip-path="url(#p752b2ac515)" style="fill: none; stroke-dasharray: 0.5,0.825; stroke-dashoffset: 0; stroke: #b0b0b0; stroke-opacity: 0.7; stroke-width: 0.5"/>
     </g>
     <g id="line2d_40">
      <g>
       <use xlink:href="#m83c8a201a4" x="53.72" y="107.889" style="stroke: #000000; stroke-width: 0.8"/>
      </g>
     </g>
     <g id="text_10">
      <!-- 0.85 -->
      <g transform="translate(24.454375 111.688219) scale(0.1 -0.1)">
       <use xlink:href="#DejaVuSans-30"/>
       <use xlink:href="#DejaVuSans-2e" x="63.623047"/>
       <use xlink:href="#DejaVuSans-38" x="95.410156"/>
       <use xlink:href="#DejaVuSans-35" x="159.033203"/>
      </g>
     </g>
    </g>
    <g id="ytick_7">
     <g id="line2d_41">
      <path d="M 53.72 80.566 
L 421.2 80.566 
" clip-path="url(#p752b2ac515)" style="fill: none; stroke-dasharray: 0.5,0.825; stroke-dashoffset: 0; stroke: #b0b0b0; stroke-opacity: 0.7; stroke-width: 0.5"/>
     </g>
     <g id="line2d_42">
      <g>
       <use xlink:href="#m83c8a201a4" x="53.72" y="80.566" style="stroke: #000000; stroke-width: 0.8"/>
      </g>
     </g>
     <g id="text_11">
      <!-- 0.90 -->
      <g transform="translate(24.454375 84.365219) scale(0.1 -0.1)">
       <defs>
        <path id="DejaVuSans-39" d="M 703 97 
L 703 672 
Q 941 559 1184 500 
Q 1428 441 1663 441 
Q 2288 441 2617 861 
Q 2947 1281 2994 2138 
Q 2813 1869 2534 1725 
Q 2256 1581 1919 1581 
Q 1219 1581 811 2004 
Q 403 2428 403 3163 
Q 403 3881 828 4315 
Q 1253 4750 1959 4750 
Q 2769 4750 3195 4129 
Q 3622 3509 3622 2328 
Q 3622 1225 3098 567 
Q 2575 -91 1691 -91 
Q 1453 -91 1209 -44 
Q 966 3 703 97 
z
M 1959 2075 
Q 2384 2075 2632 2365 
Q 2881 2656 2881 3163 
Q 2881 3666 2632 3958 
Q 2384 4250 1959 4250 
Q 1534 4250 1286 3958 
Q 1038 3666 1038 3163 
Q 1038 2656 1286 2365 
Q 1534 2075 1959 2075 
z
" transform="scale(0.015625)"/>
       </defs>
       <use xlink:href="#DejaVuSans-30"/>
       <use xlink:href="#DejaVuSans-2e" x="63.623047"/>
       <use xlink:href="#DejaVuSans-39" x="95.410156"/>
       <use xlink:href="#DejaVuSans-30" x="159.033203"/>
      </g>
     </g>
    </g>
    <g id="ytick_8">
     <g id="line2d_43">
      <path d="M 53.72 53.243 
L 421.2 53.243 
" clip-path="url(#p752b2ac515)" style="fill: none; stroke-dasharray: 0.5,0.825; stroke-dashoffset: 0; stroke: #b0b0b0; stroke-opacity: 0.7; stroke-width: 0.5"/>
     </g>
     <g id="line2d_44">
      <g>
       <use xlink:href="#m83c8a201a4" x="53.72" y="53.243" style="stroke: #000000; stroke-width: 0.8"/>
      </g>
     </g>
     <g id="text_12">
      <!-- 0.95 -->
      <g transform="translate(24.454375 57.042219) scale(0.1 -0.1)">
       <use xlink:href="#DejaVuSans-30"/>
       <use xlink:href="#DejaVuSans-2e" x="63.623047"/>
       <use xlink:href="#DejaVuSans-39" x="95.410156"/>
       <use xlink:href="#DejaVuSans-35" x="159.033203"/>
      </g>
     </g>
    </g>
    <g id="ytick_9">
     <g id="line2d_45">
      <path d="M 53.72 25.92 
L 421.2 25.92 
" clip-path="url(#p752b2ac515)" style="fill: none; stroke-dasharray: 0.5,0.825; stroke-dashoffset: 0; stroke: #b0b0b0; stroke-opacity: 0.7; stroke-width: 0.5"/>
     </g>
     <g id="line2d_46">
      <g>
       <use xlink:href="#m83c8a201a4" x="53.72" y="25.92" style="stroke: #000000; stroke-width: 0.8"/>
      </g>
     </g>
     <g id="text_13">
      <!-- 1.00 -->
      <g transform="translate(24.454375 29.719219) scale(0.1 -0.1)">
       <use xlink:href="#DejaVuSans-31"/>
       <use xlink:href="#DejaVuSans-2e" x="63.623047"/>
       <use xlink:href="#DejaVuSans-30" x="95.410156"/>
       <use xlink:href="#DejaVuSans-30" x="159.033203"/>
      </g>
     </g>
    </g>
    <g id="text_14">
     <!-- D-pass@k -->
     <g transform="translate(18.374688 160.208875) rotate(-90) scale(0.1 -0.1)">
      <defs>
       <path id="DejaVuSans-44" d="M 1259 4147 
L 1259 519 
L 2022 519 
Q 2988 519 3436 956 
Q 3884 1394 3884 2338 
Q 3884 3275 3436 3711 
Q 2988 4147 2022 4147 
L 1259 4147 
z
M 628 4666 
L 1925 4666 
Q 3281 4666 3915 4102 
Q 4550 3538 4550 2338 
Q 4550 1131 3912 565 
Q 3275 0 1925 0 
L 628 0 
L 628 4666 
z
" transform="scale(0.015625)"/>
       <path id="DejaVuSans-2d" d="M 313 2009 
L 1997 2009 
L 1997 1497 
L 313 1497 
L 313 2009 
z
" transform="scale(0.015625)"/>
       <path id="DejaVuSans-70" d="M 1159 525 
L 1159 -1331 
L 581 -1331 
L 581 3500 
L 1159 3500 
L 1159 2969 
Q 1341 3281 1617 3432 
Q 1894 3584 2278 3584 
Q 2916 3584 3314 3078 
Q 3713 2572 3713 1747 
Q 3713 922 3314 415 
Q 2916 -91 2278 -91 
Q 1894 -91 1617 61 
Q 1341 213 1159 525 
z
M 3116 1747 
Q 3116 2381 2855 2742 
Q 2594 3103 2138 3103 
Q 1681 3103 1420 2742 
Q 1159 2381 1159 1747 
Q 1159 1113 1420 752 
Q 1681 391 2138 391 
Q 2594 391 2855 752 
Q 3116 1113 3116 1747 
z
" transform="scale(0.015625)"/>
       <path id="DejaVuSans-61" d="M 2194 1759 
Q 1497 1759 1228 1600 
Q 959 1441 959 1056 
Q 959 750 1161 570 
Q 1363 391 1709 391 
Q 2188 391 2477 730 
Q 2766 1069 2766 1631 
L 2766 1759 
L 2194 1759 
z
M 3341 1997 
L 3341 0 
L 2766 0 
L 2766 531 
Q 2569 213 2275 61 
Q 1981 -91 1556 -91 
Q 1019 -91 701 211 
Q 384 513 384 1019 
Q 384 1609 779 1909 
Q 1175 2209 1959 2209 
L 2766 2209 
L 2766 2266 
Q 2766 2663 2505 2880 
Q 2244 3097 1772 3097 
Q 1472 3097 1187 3025 
Q 903 2953 641 2809 
L 641 3341 
Q 956 3463 1253 3523 
Q 1550 3584 1831 3584 
Q 2591 3584 2966 3190 
Q 3341 2797 3341 1997 
z
" transform="scale(0.015625)"/>
       <path id="DejaVuSans-73" d="M 2834 3397 
L 2834 2853 
Q 2591 2978 2328 3040 
Q 2066 3103 1784 3103 
Q 1356 3103 1142 2972 
Q 928 2841 928 2578 
Q 928 2378 1081 2264 
Q 1234 2150 1697 2047 
L 1894 2003 
Q 2506 1872 2764 1633 
Q 3022 1394 3022 966 
Q 3022 478 2636 193 
Q 2250 -91 1575 -91 
Q 1294 -91 989 -36 
Q 684 19 347 128 
L 347 722 
Q 666 556 975 473 
Q 1284 391 1588 391 
Q 1994 391 2212 530 
Q 2431 669 2431 922 
Q 2431 1156 2273 1281 
Q 2116 1406 1581 1522 
L 1381 1569 
Q 847 1681 609 1914 
Q 372 2147 372 2553 
Q 372 3047 722 3315 
Q 1072 3584 1716 3584 
Q 2034 3584 2315 3537 
Q 2597 3491 2834 3397 
z
" transform="scale(0.015625)"/>
       <path id="DejaVuSans-40" d="M 2381 1678 
Q 2381 1231 2603 976 
Q 2825 722 3213 722 
Q 3597 722 3817 978 
Q 4038 1234 4038 1678 
Q 4038 2116 3813 2373 
Q 3588 2631 3206 2631 
Q 2828 2631 2604 2375 
Q 2381 2119 2381 1678 
z
M 4084 744 
Q 3897 503 3655 389 
Q 3413 275 3091 275 
Q 2553 275 2217 664 
Q 1881 1053 1881 1678 
Q 1881 2303 2218 2693 
Q 2556 3084 3091 3084 
Q 3413 3084 3656 2967 
Q 3900 2850 4084 2613 
L 4084 3022 
L 4531 3022 
L 4531 722 
Q 4988 791 5245 1139 
Q 5503 1488 5503 2041 
Q 5503 2375 5404 2669 
Q 5306 2963 5106 3213 
Q 4781 3622 4314 3839 
Q 3847 4056 3297 4056 
Q 2913 4056 2559 3954 
Q 2206 3853 1906 3653 
Q 1416 3334 1139 2817 
Q 863 2300 863 1697 
Q 863 1200 1042 765 
Q 1222 331 1563 0 
Q 1891 -325 2322 -495 
Q 2753 -666 3244 -666 
Q 3647 -666 4036 -530 
Q 4425 -394 4750 -141 
L 5031 -488 
Q 4641 -791 4180 -952 
Q 3719 -1113 3244 -1113 
Q 2666 -1113 2153 -908 
Q 1641 -703 1241 -313 
Q 841 78 631 592 
Q 422 1106 422 1697 
Q 422 2266 634 2781 
Q 847 3297 1241 3688 
Q 1644 4084 2172 4295 
Q 2700 4506 3291 4506 
Q 3953 4506 4520 4234 
Q 5088 3963 5472 3463 
Q 5706 3156 5829 2797 
Q 5953 2438 5953 2053 
Q 5953 1231 5456 756 
Q 4959 281 4084 263 
L 4084 744 
z
" transform="scale(0.015625)"/>
      </defs>
      <use xlink:href="#DejaVuSans-44"/>
      <use xlink:href="#DejaVuSans-2d" x="77.001953"/>
      <use xlink:href="#DejaVuSans-70" x="113.085938"/>
      <use xlink:href="#DejaVuSans-61" x="176.5625"/>
      <use xlink:href="#DejaVuSans-73" x="237.841797"/>
      <use xlink:href="#DejaVuSans-73" x="289.941406"/>
      <use xlink:href="#DejaVuSans-40" x="342.041016"/>
      <use xlink:href="#DejaVuSans-6b" x="442.041016"/>
     </g>
    </g>
   </g>
   <g id="line2d_47">
    <path d="M 70.423636 199.265684 
L 120.706592 150.715489 
L 150.120236 131.728073 
L 170.989548 121.270686 
L 187.177044 114.15364 
L 200.403192 108.750797 
L 211.58574 104.413891 
L 221.272504 100.824119 
L 229.816835 97.797388 
L 237.46 95.21389 
L 244.374084 92.988476 
L 250.686147 91.05679 
L 256.492683 89.368202 
L 261.868696 87.881908 
L 266.873644 86.564565 
L 271.55546 85.38873 
L 275.95335 84.331722 
L 280.099791 83.374768 
L 284.021988 82.502317 
L 287.742956 81.701478 
L 291.282339 80.96157 
L 294.657039 80.273737 
L 297.881702 79.630634 
L 300.969103 79.026172 
L 303.930452 78.45529 
L 306.775639 77.913787 
L 309.513435 77.398162 
L 312.151652 76.905498 
L 314.69728 76.433356 
L 317.156599 75.97969 
L 319.535271 75.542781 
L 321.838415 75.121174 
L 324.070683 74.713634 
L 326.236306 74.319106 
L 328.339148 73.936684 
L 330.382747 73.565583 
L 332.37035 73.205117 
L 334.304944 72.854683 
L 336.189283 72.513748 
L 338.025912 72.181831 
L 339.817187 71.858501 
L 341.565295 71.543364 
L 343.272267 71.236057 
L 344.939995 70.936247 
L 346.570243 70.643621 
L 348.164658 70.357887 
L 349.724782 70.078768 
L 351.252059 69.806003 
L 352.747843 69.539343 
L 354.213408 69.27855 
L 355.649949 69.023395 
L 357.058595 68.77366 
L 358.440408 68.529132 
L 359.79639 68.28961 
L 361.127491 68.054895 
L 362.434607 67.824799 
L 363.718587 67.599137 
L 364.980236 67.377732 
L 366.220317 67.160411 
L 367.439555 66.947008 
L 368.63864 66.737361 
L 369.818226 66.531312 
L 370.978939 66.328712 
L 372.121371 66.129411 
L 373.246091 65.933268 
L 374.353639 65.740145 
L 375.444531 65.549908 
L 376.519261 65.362426 
L 377.578302 65.177574 
L 378.622104 64.995231 
L 379.651099 64.815276 
L 380.665703 64.637597 
L 381.666311 64.462082 
L 382.653306 64.288623 
L 383.627051 64.117115 
L 384.587899 63.947456 
L 385.536187 63.779548 
L 386.472238 63.613296 
L 387.396365 63.448605 
L 388.308867 63.285386 
L 389.210034 63.123549 
L 390.100143 62.963011 
L 390.979462 62.803685 
L 391.848251 62.645492 
L 392.706758 62.48835 
L 393.555223 62.332184 
L 394.39388 62.176915 
L 395.222951 62.022469 
L 396.042654 61.868774 
L 396.853199 61.715757 
L 397.654787 61.563346 
L 398.447614 61.411473 
L 399.23187 61.260069 
L 400.007738 61.109064 
L 400.775396 60.958392 
L 401.535015 60.807986 
L 402.286762 60.657778 
L 403.030799 60.507704 
L 403.767282 60.357695 
L 404.496364 60.207686 
" clip-path="url(#p752b2ac515)" style="fill: none; stroke: #1f77b4; stroke-width: 2; stroke-linecap: square"/>
   </g>
   <g id="line2d_48">
    <path d="M 70.423636 273.089631 
L 120.706592 225.426076 
L 150.120236 204.834498 
L 170.989548 190.289533 
L 187.177044 181.585029 
L 200.403192 173.514805 
L 211.58574 168.397806 
L 221.272504 165.529341 
L 229.816835 162.89293 
L 237.46 159.671159 
L 244.374084 156.855896 
L 250.686147 155.087182 
L 256.492683 153.804794 
L 261.868696 152.634226 
L 266.873644 150.397029 
L 271.55546 149.752067 
L 275.95335 148.741796 
L 280.099791 147.280176 
L 284.021988 146.546662 
L 287.742956 146.028305 
L 291.282339 144.931804 
L 294.657039 143.878889 
L 297.881702 142.864731 
L 300.969103 141.867678 
L 303.930452 140.897644 
L 306.775639 139.968284 
L 309.513435 139.245179 
L 312.151652 138.53649 
L 314.69728 137.95633 
L 317.156599 137.408423 
L 319.535271 136.885338 
L 321.838415 136.384252 
L 324.070683 135.723229 
L 326.236306 134.915009 
L 328.339148 134.705743 
L 330.382747 134.181043 
L 332.37035 133.827612 
L 334.304944 133.180877 
L 336.189283 132.729079 
L 338.025912 132.309023 
L 339.817187 131.893977 
L 341.565295 131.474369 
L 343.272267 130.88495 
L 344.939995 129.991889 
L 346.570243 129.690087 
L 348.164658 129.388636 
L 349.724782 129.087469 
L 351.252059 128.786532 
L 352.747843 128.485783 
L 354.213408 128.18519 
L 355.649949 127.884726 
L 357.058595 127.550856 
L 358.440408 127.177694 
L 359.79639 126.977584 
L 361.127491 126.696994 
L 362.434607 126.405734 
L 363.718587 126.114521 
L 364.980236 125.823351 
L 366.220317 125.532218 
L 367.439555 125.24112 
L 368.63864 124.937635 
L 369.818226 124.61971 
L 370.978939 124.218477 
L 372.121371 123.715932 
L 373.246091 123.555377 
L 374.353639 123.395572 
L 375.444531 123.114269 
L 376.519261 122.81959 
L 377.578302 122.524925 
L 378.622104 122.230273 
L 379.651099 121.932264 
L 380.665703 121.628145 
L 381.666311 121.324076 
L 382.653306 120.900058 
L 383.627051 120.379062 
L 384.587899 119.859804 
L 385.536187 119.788203 
L 386.472238 119.749494 
L 387.396365 119.536562 
L 388.308867 119.244297 
L 389.210034 118.942591 
L 390.100143 118.640888 
L 390.979462 118.339187 
L 391.848251 117.919715 
L 392.706758 117.487472 
L 393.555223 117.055274 
L 394.39388 116.623109 
L 395.222951 116.305004 
L 396.042654 116.150132 
L 396.853199 115.995261 
L 397.654787 115.84039 
L 398.447614 115.722831 
L 399.23187 115.721409 
L 400.007738 115.720393 
L 400.775396 115.465041 
L 401.535015 115.171551 
L 402.286762 114.950061 
L 403.030799 114.802645 
L 403.767282 114.65523 
L 404.496364 114.507816 
" clip-path="url(#p752b2ac515)" style="fill: none; stroke-dasharray: 3.7,1.6; stroke-dashoffset: 0; stroke: #1f77b4"/>
   </g>
   <g id="line2d_49">
    <path d="M 70.423636 127.00414 
L 120.706592 83.537704 
L 150.120236 68.984851 
L 170.989548 61.786166 
L 187.177044 57.101685 
L 200.403192 54.524202 
L 211.58574 51.668003 
L 221.272504 49.824585 
L 229.816835 48.46455 
L 237.46 46.59618 
L 244.374084 44.858764 
L 250.686147 42.845913 
L 256.492683 41.776093 
L 261.868696 41.081909 
L 266.873644 40.361913 
L 271.55546 39.840125 
L 275.95335 39.341152 
L 280.099791 38.727361 
L 284.021988 38.044229 
L 287.742956 37.271768 
L 291.282339 36.533924 
L 294.657039 35.861814 
L 297.881702 35.372567 
L 300.969103 34.981819 
L 303.930452 34.458092 
L 306.775639 33.917811 
L 309.513435 33.413184 
L 312.151652 32.947062 
L 314.69728 32.514706 
L 317.156599 32.112186 
L 319.535271 31.736236 
L 321.838415 31.384128 
L 324.070683 31.053576 
L 326.236306 30.742651 
L 328.339148 30.449715 
L 330.382747 30.173368 
L 332.37035 29.912406 
L 334.304944 29.665781 
L 336.189283 29.432576 
L 338.025912 29.21198 
L 339.817187 29.003335 
L 341.565295 28.806247 
L 343.272267 28.634356 
L 344.939995 28.470504 
L 346.570243 28.314383 
L 348.164658 28.165714 
L 349.724782 28.024227 
L 351.252059 27.889659 
L 352.747843 27.761755 
L 354.213408 27.635507 
L 355.649949 27.512294 
L 357.058595 27.396192 
L 358.440408 27.286875 
L 359.79639 27.184031 
L 361.127491 27.087359 
L 362.434607 26.996568 
L 363.718587 26.91138 
L 364.980236 26.831526 
L 366.220317 26.756749 
L 367.439555 26.686799 
L 368.63864 26.621437 
L 369.818226 26.560434 
L 370.978939 26.50357 
L 372.121371 26.450631 
L 373.246091 26.401414 
L 374.353639 26.355724 
L 375.444531 26.31339 
L 376.519261 26.274278 
L 377.578302 26.238133 
L 378.622104 26.204793 
L 379.651099 26.174102 
L 380.665703 26.147297 
L 381.666311 26.122902 
L 382.653306 26.100321 
L 383.627051 26.079485 
L 384.587899 26.060321 
L 385.536187 26.04276 
L 386.472238 26.026369 
L 387.396365 26.011265 
L 388.308867 25.997742 
L 389.210034 25.985692 
L 390.100143 25.975013 
L 390.979462 25.965606 
L 391.848251 25.957375 
L 392.706758 25.950231 
L 393.555223 25.944084 
L 394.39388 25.938852 
L 395.222951 25.934452 
L 396.042654 25.930806 
L 396.853199 25.927838 
L 397.654787 25.925474 
L 398.447614 25.923642 
L 399.23187 25.922273 
L 400.007738 25.921297 
L 400.775396 25.920648 
L 401.535015 25.920259 
L 402.286762 25.920065 
L 403.030799 25.92 
L 403.767282 25.92 
L 404.496364 25.92 
" clip-path="url(#p752b2ac515)" style="fill: none; stroke-dasharray: 1,1.65; stroke-dashoffset: 0; stroke: #1f77b4"/>
   </g>
   <g id="line2d_50">
    <path d="M 70.423636 193.972522 
L 120.706592 140.642182 
L 150.120236 119.913426 
L 170.989548 109.010371 
L 187.177044 102.009331 
L 200.403192 97.012061 
L 211.58574 93.254593 
L 221.272504 90.347514 
L 229.816835 88.054008 
L 237.46 86.214756 
L 244.374084 84.716902 
L 250.686147 83.478297 
L 256.492683 82.438156 
L 261.868696 81.550995 
L 266.873644 80.782485 
L 271.55546 80.10654 
L 275.95335 79.503223 
L 280.099791 78.957223 
L 284.021988 78.456739 
L 287.742956 77.992641 
L 291.282339 77.557851 
L 294.657039 77.146866 
L 297.881702 76.7554 
L 300.969103 76.380111 
L 303.930452 76.018391 
L 306.775639 75.668197 
L 309.513435 75.327934 
L 312.151652 74.996347 
L 314.69728 74.672455 
L 317.156599 74.355481 
L 319.535271 74.044814 
L 321.838415 73.739968 
L 324.070683 73.440557 
L 326.236306 73.146268 
L 328.339148 72.856847 
L 330.382747 72.572087 
L 332.37035 72.291814 
L 334.304944 72.01588 
L 336.189283 71.74416 
L 338.025912 71.47654 
L 339.817187 71.212922 
L 341.565295 70.953214 
L 343.272267 70.69733 
L 344.939995 70.445193 
L 346.570243 70.196724 
L 348.164658 69.951852 
L 349.724782 69.710503 
L 351.252059 69.472609 
L 352.747843 69.238101 
L 354.213408 69.00691 
L 355.649949 68.778969 
L 357.058595 68.554211 
L 358.440408 68.332568 
L 359.79639 68.113975 
L 361.127491 67.898364 
L 362.434607 67.685668 
L 363.718587 67.475823 
L 364.980236 67.268761 
L 366.220317 67.064415 
L 367.439555 66.862721 
L 368.63864 66.66361 
L 369.818226 66.467018 
L 370.978939 66.272877 
L 372.121371 66.081122 
L 373.246091 65.891687 
L 374.353639 65.704504 
L 375.444531 65.519508 
L 376.519261 65.336632 
L 377.578302 65.155811 
L 378.622104 64.976977 
L 379.651099 64.800065 
L 380.665703 64.625009 
L 381.666311 64.451742 
L 382.653306 64.280197 
L 383.627051 64.110309 
L 384.587899 63.942012 
L 385.536187 63.775238 
L 386.472238 63.609923 
L 387.396365 63.445999 
L 388.308867 63.2834 
L 389.210034 63.12206 
L 390.100143 62.961913 
L 390.979462 62.802893 
L 391.848251 62.644932 
L 392.706758 62.487966 
L 393.555223 62.331927 
L 394.39388 62.17675 
L 395.222951 62.022368 
L 396.042654 61.868715 
L 396.853199 61.715724 
L 397.654787 61.56333 
L 398.447614 61.411466 
L 399.23187 61.260066 
L 400.007738 61.109063 
L 400.775396 60.958392 
L 401.535015 60.807986 
L 402.286762 60.657778 
L 403.030799 60.507704 
L 403.767282 60.357695 
L 404.496364 60.207686 
" clip-path="url(#p752b2ac515)" style="fill: none; stroke: #ff7f0e; stroke-width: 2; stroke-linecap: square"/>
   </g>
   <g id="line2d_51">
    <path d="M 70.423636 266.476391 
L 120.706592 212.88367 
L 150.120236 188.177301 
L 170.989548 176.6312 
L 187.177044 168.765153 
L 200.403192 162.859862 
L 211.58574 159.413196 
L 221.272504 155.216191 
L 229.816835 153.061765 
L 237.46 151.882186 
L 244.374084 149.90274 
L 250.686147 148.1283 
L 256.492683 147.571588 
L 261.868696 147.114764 
L 266.873644 146.73335 
L 271.55546 146.408951 
L 275.95335 145.979061 
L 280.099791 145.250768 
L 284.021988 144.528964 
L 287.742956 144.095831 
L 291.282339 143.46257 
L 294.657039 142.844702 
L 297.881702 142.253734 
L 300.969103 141.454871 
L 303.930452 140.558166 
L 306.775639 139.685175 
L 309.513435 139.012133 
L 312.151652 138.344447 
L 314.69728 137.542413 
L 317.156599 136.747262 
L 319.535271 135.962283 
L 321.838415 135.187154 
L 324.070683 134.491096 
L 326.236306 134.313073 
L 328.339148 133.836238 
L 330.382747 133.459147 
L 332.37035 133.152474 
L 334.304944 132.842996 
L 336.189283 132.467568 
L 338.025912 131.8035 
L 339.817187 131.156161 
L 341.565295 130.790969 
L 343.272267 130.273495 
L 344.939995 129.973952 
L 346.570243 129.674416 
L 348.164658 129.374886 
L 349.724782 129.038899 
L 351.252059 128.691595 
L 352.747843 128.344298 
L 354.213408 127.997006 
L 355.649949 127.649717 
L 357.058595 127.30243 
L 358.440408 126.955144 
L 359.79639 126.809514 
L 361.127491 126.693075 
L 362.434607 126.402268 
L 363.718587 126.111462 
L 364.980236 125.820656 
L 366.220317 125.52985 
L 367.439555 125.234797 
L 368.63864 124.933486 
L 369.818226 124.616095 
L 370.978939 124.096172 
L 372.121371 123.668758 
L 373.246091 123.514756 
L 374.353639 123.360753 
L 375.444531 123.113507 
L 376.519261 122.818943 
L 377.578302 122.52438 
L 378.622104 122.229816 
L 379.651099 121.932264 
L 380.665703 121.628145 
L 381.666311 121.324076 
L 382.653306 120.900058 
L 383.627051 120.379062 
L 384.587899 119.859804 
L 385.536187 119.783934 
L 386.472238 119.746153 
L 387.396365 119.536496 
L 388.308867 119.244249 
L 389.210034 118.942555 
L 390.100143 118.640861 
L 390.979462 118.339167 
L 391.848251 117.919187 
L 392.706758 117.487109 
L 393.555223 117.055032 
L 394.39388 116.622954 
L 395.222951 116.305004 
L 396.042654 116.150132 
L 396.853199 115.995261 
L 397.654787 115.84039 
L 398.447614 115.722831 
L 399.23187 115.721408 
L 400.007738 115.720393 
L 400.775396 115.465041 
L 401.535015 115.171551 
L 402.286762 114.950061 
L 403.030799 114.802645 
L 403.767282 114.65523 
L 404.496364 114.507816 
" clip-path="url(#p752b2ac515)" style="fill: none; stroke-dasharray: 3.7,1.6; stroke-dashoffset: 0; stroke: #ff7f0e"/>
   </g>
   <g id="line2d_52">
    <path d="M 70.423636 129.523364 
L 120.706592 81.099067 
L 150.120236 62.761541 
L 170.989548 54.535471 
L 187.177044 49.141659 
L 200.403192 45.680379 
L 211.58574 42.380498 
L 221.272504 40.544277 
L 229.816835 39.94935 
L 237.46 38.914364 
L 244.374084 38.36684 
L 250.686147 36.948982 
L 256.492683 35.824142 
L 261.868696 34.877389 
L 266.873644 34.11241 
L 271.55546 33.475504 
L 275.95335 32.921039 
L 280.099791 32.480613 
L 284.021988 31.989547 
L 287.742956 31.638469 
L 291.282339 31.413861 
L 294.657039 31.133769 
L 297.881702 30.876051 
L 300.969103 30.639604 
L 303.930452 30.420336 
L 306.775639 30.215029 
L 309.513435 30.021546 
L 312.151652 29.838207 
L 314.69728 29.663696 
L 317.156599 29.496971 
L 319.535271 29.337212 
L 321.838415 29.183768 
L 324.070683 29.036122 
L 326.236306 28.893859 
L 328.339148 28.756646 
L 330.382747 28.624213 
L 332.37035 28.496338 
L 334.304944 28.372835 
L 336.189283 28.25355 
L 338.025912 28.13835 
L 339.817187 28.027117 
L 341.565295 27.919749 
L 343.272267 27.816152 
L 344.939995 27.716239 
L 346.570243 27.619931 
L 348.164658 27.52715 
L 349.724782 27.437824 
L 351.252059 27.351882 
L 352.747843 27.269255 
L 354.213408 27.189874 
L 355.649949 27.113673 
L 357.058595 27.040585 
L 358.440408 26.970545 
L 359.79639 26.903486 
L 361.127491 26.839344 
L 362.434607 26.778054 
L 363.718587 26.719549 
L 364.980236 26.663766 
L 366.220317 26.61064 
L 367.439555 26.560105 
L 368.63864 26.512097 
L 369.818226 26.466551 
L 370.978939 26.423402 
L 372.121371 26.382586 
L 373.246091 26.344037 
L 374.353639 26.307691 
L 375.444531 26.273483 
L 376.519261 26.241348 
L 377.578302 26.211222 
L 378.622104 26.183039 
L 379.651099 26.156735 
L 380.665703 26.132245 
L 381.666311 26.109505 
L 382.653306 26.088449 
L 383.627051 26.069012 
L 384.587899 26.051131 
L 385.536187 26.034739 
L 386.472238 26.019773 
L 387.396365 26.006168 
L 388.308867 25.993858 
L 389.210034 25.98278 
L 390.100143 25.972867 
L 390.979462 25.964056 
L 391.848251 25.956281 
L 392.706758 25.949479 
L 393.555223 25.943583 
L 394.39388 25.938529 
L 395.222951 25.934253 
L 396.042654 25.93069 
L 396.853199 25.927775 
L 397.654787 25.925442 
L 398.447614 25.923628 
L 399.23187 25.922268 
L 400.007738 25.921296 
L 400.775396 25.920648 
L 401.535015 25.920259 
L 402.286762 25.920065 
L 403.030799 25.92 
L 403.767282 25.92 
L 404.496364 25.92 
" clip-path="url(#p752b2ac515)" style="fill: none; stroke-dasharray: 1,1.65; stroke-dashoffset: 0; stroke: #ff7f0e"/>
   </g>
   <g id="line2d_53">
    <path d="M 70.423636 130.604592 
L 120.706592 95.27269 
L 150.120236 82.72116 
L 170.989548 75.933468 
L 187.177044 71.378581 
L 200.403192 67.965947 
L 211.58574 65.241033 
L 221.272504 62.973508 
L 229.816835 61.033223 
L 237.46 59.341675 
L 244.374084 57.848952 
L 250.686147 56.521547 
L 256.492683 55.335608 
L 261.868696 54.273137 
L 266.873644 53.319817 
L 271.55546 52.463772 
L 275.95335 51.694842 
L 280.099791 51.00415 
L 284.021988 50.383839 
L 287.742956 49.826889 
L 291.282339 49.327008 
L 294.657039 48.878529 
L 297.881702 48.47635 
L 300.969103 48.115866 
L 303.930452 47.792924 
L 306.775639 47.503775 
L 309.513435 47.245037 
L 312.151652 47.013658 
L 314.69728 46.806883 
L 317.156599 46.622228 
L 319.535271 46.457452 
L 321.838415 46.310532 
L 324.070683 46.179646 
L 326.236306 46.063149 
L 328.339148 45.95956 
L 330.382747 45.867541 
L 332.37035 45.78589 
L 334.304944 45.713521 
L 336.189283 45.649456 
L 338.025912 45.592816 
L 339.817187 45.542808 
L 341.565295 45.498718 
L 343.272267 45.459905 
L 344.939995 45.425792 
L 346.570243 45.39586 
L 348.164658 45.369643 
L 349.724782 45.346724 
L 351.252059 45.326727 
L 352.747843 45.309316 
L 354.213408 45.294189 
L 355.649949 45.281078 
L 357.058595 45.269741 
L 358.440408 45.259963 
L 359.79639 45.251554 
L 361.127491 45.244341 
L 362.434607 45.238174 
L 363.718587 45.232917 
L 364.980236 45.228452 
L 366.220317 45.224672 
L 367.439555 45.221485 
L 368.63864 45.218807 
L 369.818226 45.216568 
L 370.978939 45.214704 
L 372.121371 45.213158 
L 373.246091 45.211885 
L 374.353639 45.21084 
L 375.444531 45.209988 
L 376.519261 45.209298 
L 377.578302 45.208743 
L 378.622104 45.208299 
L 379.651099 45.207947 
L 380.665703 45.207671 
L 381.666311 45.207455 
L 382.653306 45.207288 
L 383.627051 45.207161 
L 384.587899 45.207066 
L 385.536187 45.206994 
L 386.472238 45.206942 
L 387.396365 45.206904 
L 388.308867 45.206877 
L 389.210034 45.206858 
L 390.100143 45.206845 
L 390.979462 45.206837 
L 391.848251 45.206831 
L 392.706758 45.206828 
L 393.555223 45.206826 
L 394.39388 45.206825 
L 395.222951 45.206824 
L 396.042654 45.206824 
L 396.853199 45.206824 
L 397.654787 45.206824 
L 398.447614 45.206824 
L 399.23187 45.206824 
L 400.007738 45.206824 
L 400.775396 45.206824 
L 401.535015 45.206824 
L 402.286762 45.206824 
L 403.030799 45.206824 
L 403.767282 45.206824 
L 404.496364 45.206824 
" clip-path="url(#p752b2ac515)" style="fill: none; stroke: #2ca02c; stroke-width: 2; stroke-linecap: square"/>
   </g>
   <g id="line2d_54">
    <path d="M 70.423636 195.892198 
L 120.706592 156.814975 
L 150.120236 139.564084 
L 170.989548 131.778496 
L 187.177044 125.258724 
L 200.403192 119.615271 
L 211.58574 116.093061 
L 221.272504 113.103473 
L 229.816835 109.932435 
L 237.46 107.585111 
L 244.374084 104.930375 
L 250.686147 102.897792 
L 256.492683 101.454919 
L 261.868696 100.164048 
L 266.873644 99.010095 
L 271.55546 97.979392 
L 275.95335 97.059564 
L 280.099791 96.239409 
L 284.021988 95.47827 
L 287.742956 94.735391 
L 291.282339 94.071926 
L 294.657039 93.248063 
L 297.881702 92.515129 
L 300.969103 92.249337 
L 303.930452 91.826928 
L 306.775639 91.435645 
L 309.513435 91.268999 
L 312.151652 91.030157 
L 314.69728 90.586623 
L 317.156599 90.193368 
L 319.535271 90.030808 
L 321.838415 90.009817 
L 324.070683 89.99226 
L 326.236306 89.953888 
L 328.339148 89.834561 
L 330.382747 89.729238 
L 332.37035 89.685238 
L 334.304944 89.680217 
L 336.189283 89.676169 
L 338.025912 89.672916 
L 339.817187 89.670315 
L 341.565295 89.668242 
L 343.272267 89.666598 
L 344.939995 89.665301 
L 346.570243 89.664281 
L 348.164658 89.663484 
L 349.724782 89.662864 
L 351.252059 89.662384 
L 352.747843 89.662015 
L 354.213408 89.661733 
L 355.649949 89.661519 
L 357.058595 89.661357 
L 358.440408 89.661235 
L 359.79639 89.661145 
L 361.127491 89.661078 
L 362.434607 89.661029 
L 363.718587 89.660993 
L 364.980236 89.660968 
L 366.220317 89.660949 
L 367.439555 89.660936 
L 368.63864 89.660927 
L 369.818226 89.660921 
L 370.978939 89.660917 
L 372.121371 89.660914 
L 373.246091 89.660912 
L 374.353639 89.66091 
L 375.444531 89.66091 
L 376.519261 89.660909 
L 377.578302 89.660909 
L 378.622104 89.660909 
L 379.651099 89.660908 
L 380.665703 89.660908 
L 381.666311 89.660908 
L 382.653306 89.660908 
L 383.627051 89.660908 
L 384.587899 89.660908 
L 385.536187 89.660908 
L 386.472238 89.660908 
L 387.396365 89.660908 
L 388.308867 89.660908 
L 389.210034 89.660908 
L 390.100143 89.660908 
L 390.979462 89.660908 
L 391.848251 89.660908 
L 392.706758 89.660908 
L 393.555223 89.660908 
L 394.39388 89.660908 
L 395.222951 89.660908 
L 396.042654 89.660908 
L 396.853199 89.660908 
L 397.654787 89.660908 
L 398.447614 89.660908 
L 399.23187 89.660908 
L 400.007738 89.660908 
L 400.775396 89.660908 
L 401.535015 89.660908 
L 402.286762 89.660908 
L 403.030799 89.660908 
L 403.767282 89.660908 
L 404.496364 89.660908 
" clip-path="url(#p752b2ac515)" style="fill: none; stroke-dasharray: 3.7,1.6; stroke-dashoffset: 0; stroke: #2ca02c"/>
   </g>
   <g id="line2d_55">
    <path d="M 70.423636 76.152287 
L 120.706592 49.41886 
L 150.120236 39.769999 
L 170.989548 36.149864 
L 187.177044 34.05722 
L 200.403192 33.039681 
L 211.58574 31.886027 
L 221.272504 30.883282 
L 229.816835 30.049493 
L 237.46 29.400345 
L 244.374084 28.865951 
L 250.686147 28.419036 
L 256.492683 28.037047 
L 261.868696 27.712265 
L 266.873644 27.436949 
L 271.55546 27.202684 
L 275.95335 27.003022 
L 280.099791 26.832812 
L 284.021988 26.68781 
L 287.742956 26.564439 
L 291.282339 26.459649 
L 294.657039 26.370813 
L 297.881702 26.295662 
L 300.969103 26.232231 
L 303.930452 26.17882 
L 306.775639 26.133956 
L 309.513435 26.096369 
L 312.151652 26.06496 
L 314.69728 26.038787 
L 317.156599 26.017037 
L 319.535271 25.999016 
L 321.838415 25.984129 
L 324.070683 25.971869 
L 326.236306 25.961805 
L 328.339148 25.95357 
L 330.382747 25.946856 
L 332.37035 25.941401 
L 334.304944 25.936985 
L 336.189283 25.933424 
L 338.025912 25.930563 
L 339.817187 25.928274 
L 341.565295 25.926451 
L 343.272267 25.925005 
L 344.939995 25.923864 
L 346.570243 25.922967 
L 348.164658 25.922266 
L 349.724782 25.92172 
L 351.252059 25.921298 
L 352.747843 25.920974 
L 354.213408 25.920725 
L 355.649949 25.920537 
L 357.058595 25.920394 
L 358.440408 25.920288 
L 359.79639 25.920208 
L 361.127491 25.920149 
L 362.434607 25.920106 
L 363.718587 25.920075 
L 364.980236 25.920052 
L 366.220317 25.920036 
L 367.439555 25.920025 
L 368.63864 25.920017 
L 369.818226 25.920011 
L 370.978939 25.920007 
L 372.121371 25.920005 
L 373.246091 25.920003 
L 374.353639 25.920002 
L 375.444531 25.920001 
L 376.519261 25.920001 
L 377.578302 25.92 
L 378.622104 25.92 
L 379.651099 25.92 
L 380.665703 25.92 
L 381.666311 25.92 
L 382.653306 25.92 
L 383.627051 25.92 
L 384.587899 25.92 
L 385.536187 25.92 
L 386.472238 25.92 
L 387.396365 25.92 
L 388.308867 25.92 
L 389.210034 25.92 
L 390.100143 25.92 
L 390.979462 25.92 
L 391.848251 25.92 
L 392.706758 25.92 
L 393.555223 25.92 
L 394.39388 25.92 
L 395.222951 25.92 
L 396.042654 25.92 
L 396.853199 25.92 
L 397.654787 25.92 
L 398.447614 25.92 
L 399.23187 25.92 
L 400.007738 25.92 
L 400.775396 25.92 
L 401.535015 25.92 
L 402.286762 25.92 
L 403.030799 25.92 
L 403.767282 25.92 
L 404.496364 25.92 
" clip-path="url(#p752b2ac515)" style="fill: none; stroke-dasharray: 1,1.65; stroke-dashoffset: 0; stroke: #2ca02c"/>
   </g>
   <g id="patch_3">
    <path d="M 53.72 244.504 
L 53.72 25.92 
" style="fill: none; stroke: #000000; stroke-width: 0.8; stroke-linejoin: miter; stroke-linecap: square"/>
   </g>
   <g id="patch_4">
    <path d="M 421.2 244.504 
L 421.2 25.92 
" style="fill: none; stroke: #000000; stroke-width: 0.8; stroke-linejoin: miter; stroke-linecap: square"/>
   </g>
   <g id="patch_5">
    <path d="M 53.72 244.504 
L 421.2 244.504 
" style="fill: none; stroke: #000000; stroke-width: 0.8; stroke-linejoin: miter; stroke-linecap: square"/>
   </g>
   <g id="patch_6">
    <path d="M 53.72 25.92 
L 421.2 25.92 
" style="fill: none; stroke: #000000; stroke-width: 0.8; stroke-linejoin: miter; stroke-linecap: square"/>
   </g>
   <g id="text_15">
    <!-- deepseek-coder-7b-instruct-v1.5 - D-pass@k -->
    <g transform="translate(103.855937 19.92) scale(0.12 -0.12)">
     <defs>
      <path id="DejaVuSans-64" d="M 2906 2969 
L 2906 4863 
L 3481 4863 
L 3481 0 
L 2906 0 
L 2906 525 
Q 2725 213 2448 61 
Q 2172 -91 1784 -91 
Q 1150 -91 751 415 
Q 353 922 353 1747 
Q 353 2572 751 3078 
Q 1150 3584 1784 3584 
Q 2172 3584 2448 3432 
Q 2725 3281 2906 2969 
z
M 947 1747 
Q 947 1113 1208 752 
Q 1469 391 1925 391 
Q 2381 391 2643 752 
Q 2906 1113 2906 1747 
Q 2906 2381 2643 2742 
Q 2381 3103 1925 3103 
Q 1469 3103 1208 2742 
Q 947 2381 947 1747 
z
" transform="scale(0.015625)"/>
      <path id="DejaVuSans-65" d="M 3597 1894 
L 3597 1613 
L 953 1613 
Q 991 1019 1311 708 
Q 1631 397 2203 397 
Q 2534 397 2845 478 
Q 3156 559 3463 722 
L 3463 178 
Q 3153 47 2828 -22 
Q 2503 -91 2169 -91 
Q 1331 -91 842 396 
Q 353 884 353 1716 
Q 353 2575 817 3079 
Q 1281 3584 2069 3584 
Q 2775 3584 3186 3129 
Q 3597 2675 3597 1894 
z
M 3022 2063 
Q 3016 2534 2758 2815 
Q 2500 3097 2075 3097 
Q 1594 3097 1305 2825 
Q 1016 2553 972 2059 
L 3022 2063 
z
" transform="scale(0.015625)"/>
      <path id="DejaVuSans-63" d="M 3122 3366 
L 3122 2828 
Q 2878 2963 2633 3030 
Q 2388 3097 2138 3097 
Q 1578 3097 1268 2742 
Q 959 2388 959 1747 
Q 959 1106 1268 751 
Q 1578 397 2138 397 
Q 2388 397 2633 464 
Q 2878 531 3122 666 
L 3122 134 
Q 2881 22 2623 -34 
Q 2366 -91 2075 -91 
Q 1284 -91 818 406 
Q 353 903 353 1747 
Q 353 2603 823 3093 
Q 1294 3584 2113 3584 
Q 2378 3584 2631 3529 
Q 2884 3475 3122 3366 
z
" transform="scale(0.015625)"/>
      <path id="DejaVuSans-6f" d="M 1959 3097 
Q 1497 3097 1228 2736 
Q 959 2375 959 1747 
Q 959 1119 1226 758 
Q 1494 397 1959 397 
Q 2419 397 2687 759 
Q 2956 1122 2956 1747 
Q 2956 2369 2687 2733 
Q 2419 3097 1959 3097 
z
M 1959 3584 
Q 2709 3584 3137 3096 
Q 3566 2609 3566 1747 
Q 3566 888 3137 398 
Q 2709 -91 1959 -91 
Q 1206 -91 779 398 
Q 353 888 353 1747 
Q 353 2609 779 3096 
Q 1206 3584 1959 3584 
z
" transform="scale(0.015625)"/>
      <path id="DejaVuSans-72" d="M 2631 2963 
Q 2534 3019 2420 3045 
Q 2306 3072 2169 3072 
Q 1681 3072 1420 2755 
Q 1159 2438 1159 1844 
L 1159 0 
L 581 0 
L 581 3500 
L 1159 3500 
L 1159 2956 
Q 1341 3275 1631 3429 
Q 1922 3584 2338 3584 
Q 2397 3584 2469 3576 
Q 2541 3569 2628 3553 
L 2631 2963 
z
" transform="scale(0.015625)"/>
      <path id="DejaVuSans-62" d="M 3116 1747 
Q 3116 2381 2855 2742 
Q 2594 3103 2138 3103 
Q 1681 3103 1420 2742 
Q 1159 2381 1159 1747 
Q 1159 1113 1420 752 
Q 1681 391 2138 391 
Q 2594 391 2855 752 
Q 3116 1113 3116 1747 
z
M 1159 2969 
Q 1341 3281 1617 3432 
Q 1894 3584 2278 3584 
Q 2916 3584 3314 3078 
Q 3713 2572 3713 1747 
Q 3713 922 3314 415 
Q 2916 -91 2278 -91 
Q 1894 -91 1617 61 
Q 1341 213 1159 525 
L 1159 0 
L 581 0 
L 581 4863 
L 1159 4863 
L 1159 2969 
z
" transform="scale(0.015625)"/>
      <path id="DejaVuSans-69" d="M 603 3500 
L 1178 3500 
L 1178 0 
L 603 0 
L 603 3500 
z
M 603 4863 
L 1178 4863 
L 1178 4134 
L 603 4134 
L 603 4863 
z
" transform="scale(0.015625)"/>
      <path id="DejaVuSans-6e" d="M 3513 2113 
L 3513 0 
L 2938 0 
L 2938 2094 
Q 2938 2591 2744 2837 
Q 2550 3084 2163 3084 
Q 1697 3084 1428 2787 
Q 1159 2491 1159 1978 
L 1159 0 
L 581 0 
L 581 3500 
L 1159 3500 
L 1159 2956 
Q 1366 3272 1645 3428 
Q 1925 3584 2291 3584 
Q 2894 3584 3203 3211 
Q 3513 2838 3513 2113 
z
" transform="scale(0.015625)"/>
      <path id="DejaVuSans-74" d="M 1172 4494 
L 1172 3500 
L 2356 3500 
L 2356 3053 
L 1172 3053 
L 1172 1153 
Q 1172 725 1289 603 
Q 1406 481 1766 481 
L 2356 481 
L 2356 0 
L 1766 0 
Q 1100 0 847 248 
Q 594 497 594 1153 
L 594 3053 
L 172 3053 
L 172 3500 
L 594 3500 
L 594 4494 
L 1172 4494 
z
" transform="scale(0.015625)"/>
      <path id="DejaVuSans-75" d="M 544 1381 
L 544 3500 
L 1119 3500 
L 1119 1403 
Q 1119 906 1312 657 
Q 1506 409 1894 409 
Q 2359 409 2629 706 
Q 2900 1003 2900 1516 
L 2900 3500 
L 3475 3500 
L 3475 0 
L 2900 0 
L 2900 538 
Q 2691 219 2414 64 
Q 2138 -91 1772 -91 
Q 1169 -91 856 284 
Q 544 659 544 1381 
z
M 1991 3584 
L 1991 3584 
z
" transform="scale(0.015625)"/>
      <path id="DejaVuSans-76" d="M 191 3500 
L 800 3500 
L 1894 563 
L 2988 3500 
L 3597 3500 
L 2284 0 
L 1503 0 
L 191 3500 
z
" transform="scale(0.015625)"/>
      <path id="DejaVuSans-20" transform="scale(0.015625)"/>
     </defs>
     <use xlink:href="#DejaVuSans-64"/>
     <use xlink:href="#DejaVuSans-65" x="63.476562"/>
     <use xlink:href="#DejaVuSans-65" x="125"/>
     <use xlink:href="#DejaVuSans-70" x="186.523438"/>
     <use xlink:href="#DejaVuSans-73" x="250"/>
     <use xlink:href="#DejaVuSans-65" x="302.099609"/>
     <use xlink:href="#DejaVuSans-65" x="363.623047"/>
     <use xlink:href="#DejaVuSans-6b" x="425.146484"/>
     <use xlink:href="#DejaVuSans-2d" x="483.056641"/>
     <use xlink:href="#DejaVuSans-63" x="519.140625"/>
     <use xlink:href="#DejaVuSans-6f" x="574.121094"/>
     <use xlink:href="#DejaVuSans-64" x="635.302734"/>
     <use xlink:href="#DejaVuSans-65" x="698.779297"/>
     <use xlink:href="#DejaVuSans-72" x="760.302734"/>
     <use xlink:href="#DejaVuSans-2d" x="795.041016"/>
     <use xlink:href="#DejaVuSans-37" x="831.125"/>
     <use xlink:href="#DejaVuSans-62" x="894.748047"/>
     <use xlink:href="#DejaVuSans-2d" x="958.224609"/>
     <use xlink:href="#DejaVuSans-69" x="994.308594"/>
     <use xlink:href="#DejaVuSans-6e" x="1022.091797"/>
     <use xlink:href="#DejaVuSans-73" x="1085.470703"/>
     <use xlink:href="#DejaVuSans-74" x="1137.570312"/>
     <use xlink:href="#DejaVuSans-72" x="1176.779297"/>
     <use xlink:href="#DejaVuSans-75" x="1217.892578"/>
     <use xlink:href="#DejaVuSans-63" x="1281.271484"/>
     <use xlink:href="#DejaVuSans-74" x="1336.251953"/>
     <use xlink:href="#DejaVuSans-2d" x="1375.460938"/>
     <use xlink:href="#DejaVuSans-76" x="1408.919922"/>
     <use xlink:href="#DejaVuSans-31" x="1468.099609"/>
     <use xlink:href="#DejaVuSans-2e" x="1531.722656"/>
     <use xlink:href="#DejaVuSans-35" x="1563.509766"/>
     <use xlink:href="#DejaVuSans-20" x="1627.132812"/>
     <use xlink:href="#DejaVuSans-2d" x="1658.919922"/>
     <use xlink:href="#DejaVuSans-20" x="1695.003906"/>
     <use xlink:href="#DejaVuSans-44" x="1726.791016"/>
     <use xlink:href="#DejaVuSans-2d" x="1803.792969"/>
     <use xlink:href="#DejaVuSans-70" x="1839.876953"/>
     <use xlink:href="#DejaVuSans-61" x="1903.353516"/>
     <use xlink:href="#DejaVuSans-73" x="1964.632812"/>
     <use xlink:href="#DejaVuSans-73" x="2016.732422"/>
     <use xlink:href="#DejaVuSans-40" x="2068.832031"/>
     <use xlink:href="#DejaVuSans-6b" x="2168.832031"/>
    </g>
   </g>
   <g id="legend_1">
    <g id="patch_7">
     <path d="M 336.259375 239.504 
L 414.2 239.504 
Q 416.2 239.504 416.2 237.504 
L 416.2 165.113375 
Q 416.2 163.113375 414.2 163.113375 
L 336.259375 163.113375 
Q 334.259375 163.113375 334.259375 165.113375 
L 334.259375 237.504 
Q 334.259375 239.504 336.259375 239.504 
z
" style="fill: #ffffff; opacity: 0.8; stroke: #cccccc; stroke-linejoin: miter"/>
    </g>
    <g id="line2d_56">
     <path d="M 338.259375 171.211813 
L 348.259375 171.211813 
L 358.259375 171.211813 
" style="fill: none; stroke-dasharray: 3.7,1.6; stroke-dashoffset: 0; stroke: #000000"/>
    </g>
    <g id="text_16">
     <!-- CI lower -->
     <g transform="translate(366.259375 174.711813) scale(0.1 -0.1)">
      <defs>
       <path id="DejaVuSans-43" d="M 4122 4306 
L 4122 3641 
Q 3803 3938 3442 4084 
Q 3081 4231 2675 4231 
Q 1875 4231 1450 3742 
Q 1025 3253 1025 2328 
Q 1025 1406 1450 917 
Q 1875 428 2675 428 
Q 3081 428 3442 575 
Q 3803 722 4122 1019 
L 4122 359 
Q 3791 134 3420 21 
Q 3050 -91 2638 -91 
Q 1578 -91 968 557 
Q 359 1206 359 2328 
Q 359 3453 968 4101 
Q 1578 4750 2638 4750 
Q 3056 4750 3426 4639 
Q 3797 4528 4122 4306 
z
" transform="scale(0.015625)"/>
       <path id="DejaVuSans-49" d="M 628 4666 
L 1259 4666 
L 1259 0 
L 628 0 
L 628 4666 
z
" transform="scale(0.015625)"/>
       <path id="DejaVuSans-6c" d="M 603 4863 
L 1178 4863 
L 1178 0 
L 603 0 
L 603 4863 
z
" transform="scale(0.015625)"/>
       <path id="DejaVuSans-77" d="M 269 3500 
L 844 3500 
L 1563 769 
L 2278 3500 
L 2956 3500 
L 3675 769 
L 4391 3500 
L 4966 3500 
L 4050 0 
L 3372 0 
L 2619 2869 
L 1863 0 
L 1184 0 
L 269 3500 
z
" transform="scale(0.015625)"/>
      </defs>
      <use xlink:href="#DejaVuSans-43"/>
      <use xlink:href="#DejaVuSans-49" x="69.824219"/>
      <use xlink:href="#DejaVuSans-20" x="99.316406"/>
      <use xlink:href="#DejaVuSans-6c" x="131.103516"/>
      <use xlink:href="#DejaVuSans-6f" x="158.886719"/>
      <use xlink:href="#DejaVuSans-77" x="220.068359"/>
      <use xlink:href="#DejaVuSans-65" x="301.855469"/>
      <use xlink:href="#DejaVuSans-72" x="363.378906"/>
     </g>
    </g>
    <g id="line2d_57">
     <path d="M 338.259375 185.889938 
L 348.259375 185.889938 
L 358.259375 185.889938 
" style="fill: none; stroke-dasharray: 1,1.65; stroke-dashoffset: 0; stroke: #000000"/>
    </g>
    <g id="text_17">
     <!-- CI upper -->
     <g transform="translate(366.259375 189.389938) scale(0.1 -0.1)">
      <use xlink:href="#DejaVuSans-43"/>
      <use xlink:href="#DejaVuSans-49" x="69.824219"/>
      <use xlink:href="#DejaVuSans-20" x="99.316406"/>
      <use xlink:href="#DejaVuSans-75" x="131.103516"/>
      <use xlink:href="#DejaVuSans-70" x="194.482422"/>
      <use xlink:href="#DejaVuSans-70" x="257.958984"/>
      <use xlink:href="#DejaVuSans-65" x="321.435547"/>
      <use xlink:href="#DejaVuSans-72" x="382.958984"/>
     </g>
    </g>
    <g id="line2d_58">
     <path d="M 338.259375 200.568062 
L 348.259375 200.568062 
L 358.259375 200.568062 
" style="fill: none; stroke: #1f77b4; stroke-width: 2; stroke-linecap: square"/>
    </g>
    <g id="text_18">
     <!-- baseline -->
     <g transform="translate(366.259375 204.068062) scale(0.1 -0.1)">
      <use xlink:href="#DejaVuSans-62"/>
      <use xlink:href="#DejaVuSans-61" x="63.476562"/>
      <use xlink:href="#DejaVuSans-73" x="124.755859"/>
      <use xlink:href="#DejaVuSans-65" x="176.855469"/>
      <use xlink:href="#DejaVuSans-6c" x="238.378906"/>
      <use xlink:href="#DejaVuSans-69" x="266.162109"/>
      <use xlink:href="#DejaVuSans-6e" x="293.945312"/>
      <use xlink:href="#DejaVuSans-65" x="357.324219"/>
     </g>
    </g>
    <g id="line2d_59">
     <path d="M 338.259375 215.246188 
L 348.259375 215.246188 
L 358.259375 215.246188 
" style="fill: none; stroke: #ff7f0e; stroke-width: 2; stroke-linecap: square"/>
    </g>
    <g id="text_19">
     <!-- CoT -->
     <g transform="translate(366.259375 218.746188) scale(0.1 -0.1)">
      <defs>
       <path id="DejaVuSans-54" d="M -19 4666 
L 3928 4666 
L 3928 4134 
L 2272 4134 
L 2272 0 
L 1638 0 
L 1638 4134 
L -19 4134 
L -19 4666 
z
" transform="scale(0.015625)"/>
      </defs>
      <use xlink:href="#DejaVuSans-43"/>
      <use xlink:href="#DejaVuSans-6f" x="69.824219"/>
      <use xlink:href="#DejaVuSans-54" x="131.005859"/>
     </g>
    </g>
    <g id="line2d_60">
     <path d="M 338.259375 229.924313 
L 348.259375 229.924313 
L 358.259375 229.924313 
" style="fill: none; stroke: #2ca02c; stroke-width: 2; stroke-linecap: square"/>
    </g>
    <g id="text_20">
     <!-- feedback -->
     <g transform="translate(366.259375 233.424313) scale(0.1 -0.1)">
      <defs>
       <path id="DejaVuSans-66" d="M 2375 4863 
L 2375 4384 
L 1825 4384 
Q 1516 4384 1395 4259 
Q 1275 4134 1275 3809 
L 1275 3500 
L 2222 3500 
L 2222 3053 
L 1275 3053 
L 1275 0 
L 697 0 
L 697 3053 
L 147 3053 
L 147 3500 
L 697 3500 
L 697 3744 
Q 697 4328 969 4595 
Q 1241 4863 1831 4863 
L 2375 4863 
z
" transform="scale(0.015625)"/>
      </defs>
      <use xlink:href="#DejaVuSans-66"/>
      <use xlink:href="#DejaVuSans-65" x="35.205078"/>
      <use xlink:href="#DejaVuSans-65" x="96.728516"/>
      <use xlink:href="#DejaVuSans-64" x="158.251953"/>
      <use xlink:href="#DejaVuSans-62" x="221.728516"/>
      <use xlink:href="#DejaVuSans-61" x="285.205078"/>
      <use xlink:href="#DejaVuSans-63" x="346.484375"/>
      <use xlink:href="#DejaVuSans-6b" x="401.464844"/>
     </g>
    </g>
   </g>
  </g>
 </g>
 <defs>
  <clipPath id="p752b2ac515">
   <rect x="53.72" y="25.92" width="367.48" height="218.584"/>
  </clipPath>
 </defs>
</svg>
