<?xml version="1.0" encoding="utf-8" standalone="no"?>
<!DOCTYPE svg PUBLIC "-//W3C//DTD SVG 1.1//EN"
  "http://www.w3.org/Graphics/SVG/1.1/DTD/svg11.dtd">
<svg xmlns:xlink="http://www.w3.org/1999/xlink" width="432pt" height="288pt" viewBox="0 0 432 288" xmlns="http://www.w3.org/2000/svg" version="1.1">
 <metadata>
  <rdf:RDF xmlns:dc="http://purl.org/dc/elements/1.1/" xmlns:cc="http://creativecommons.org/ns#" xmlns:rdf="http://www.w3.org/1999/02/22-rdf-syntax-ns#">
   <cc:Work>
    <dc:type rdf:resource="http://purl.org/dc/dcmitype/StillImage"/>
    <dc:date>2025-12-10T14:39:31.362460</dc:date>
    <dc:format>image/svg+xml</dc:format>
    <dc:creator>
     <cc:Agent>
      <dc:title>Matplotlib v3.9.0, https://matplotlib.org/</dc:title>
     </cc:Agent>
    </dc:creator>
   </cc:Work>
  </rdf:RDF>
 </metadata>
 <defs>
  <style type="text/css">*{stroke-linejoin: round; stroke-linecap: butt}</style>
 </defs>
 <g id="figure_1">
  <g id="patch_1">
   <path d="M 0 288 
L 432 288 
L 432 0 
L 0 0 
z
" style="fill: #ffffff"/>
  </g>
  <g id="axes_1">
   <g id="patch_2">
    <path d="M 53.72 244.504 
L 421.2 244.504 
L 421.2 25.92 
L 53.72 25.92 
z
" style="fill: #ffffff"/>
   </g>
   <g id="matplotlib.axis_1">
    <g id="xtick_1">
     <g id="line2d_1">
      <path d="M 70.423636 244.504 
L 70.423636 25.92 
" clip-path="url(#p9cdbe9deee)" style="fill: none; stroke-dasharray: 0.5,0.825; stroke-dashoffset: 0; stroke: #b0b0b0; stroke-opacity: 0.7; stroke-width: 0.5"/>
     </g>
     <g id="line2d_2">
      <defs>
       <path id="mf90c478b90" d="M 0 0 
L 0 3.5 
" style="stroke: #000000; stroke-width: 0.8"/>
      </defs>
      <g>
       <use xlink:href="#mf90c478b90" x="70.423636" y="244.504" style="stroke: #000000; stroke-width: 0.8"/>
      </g>
     </g>
     <g id="text_1">
      <!-- $\mathdefault{10^{0}}$ -->
      <g transform="translate(61.623636 259.102438) scale(0.1 -0.1)">
       <defs>
        <path id="DejaVuSans-31" d="M 794 531 
L 1825 531 
L 1825 4091 
L 703 3866 
L 703 4441 
L 1819 4666 
L 2450 4666 
L 2450 531 
L 3481 531 
L 3481 0 
L 794 0 
L 794 531 
z
" transform="scale(0.015625)"/>
        <path id="DejaVuSans-30" d="M 2034 4250 
Q 1547 4250 1301 3770 
Q 1056 3291 1056 2328 
Q 1056 1369 1301 889 
Q 1547 409 2034 409 
Q 2525 409 2770 889 
Q 3016 1369 3016 2328 
Q 3016 3291 2770 3770 
Q 2525 4250 2034 4250 
z
M 2034 4750 
Q 2819 4750 3233 4129 
Q 3647 3509 3647 2328 
Q 3647 1150 3233 529 
Q 2819 -91 2034 -91 
Q 1250 -91 836 529 
Q 422 1150 422 2328 
Q 422 3509 836 4129 
Q 1250 4750 2034 4750 
z
" transform="scale(0.015625)"/>
       </defs>
       <use xlink:href="#DejaVuSans-31" transform="translate(0 0.765625)"/>
       <use xlink:href="#DejaVuSans-30" transform="translate(63.623047 0.765625)"/>
       <use xlink:href="#DejaVuSans-30" transform="translate(128.203125 39.046875) scale(0.7)"/>
      </g>
     </g>
    </g>
    <g id="xtick_2">
     <g id="line2d_3">
      <path d="M 120.706592 244.504 
L 120.706592 25.92 
" clip-path="url(#p9cdbe9deee)" style="fill: none; stroke-dasharray: 0.5,0.825; stroke-dashoffset: 0; stroke: #b0b0b0; stroke-opacity: 0.7; stroke-width: 0.5"/>
     </g>
     <g id="line2d_4">
      <g>
       <use xlink:href="#mf90c478b90" x="120.706592" y="244.504" style="stroke: #000000; stroke-width: 0.8"/>
      </g>
     </g>
    </g>
    <g id="xtick_3">
     <g id="line2d_5">
      <path d="M 187.177044 244.504 
L 187.177044 25.92 
" clip-path="url(#p9cdbe9deee)" style="fill: none; stroke-dasharray: 0.5,0.825; stroke-dashoffset: 0; stroke: #b0b0b0; stroke-opacity: 0.7; stroke-width: 0.5"/>
     </g>
     <g id="line2d_6">
      <g>
       <use xlink:href="#mf90c478b90" x="187.177044" y="244.504" style="stroke: #000000; stroke-width: 0.8"/>
      </g>
     </g>
    </g>
    <g id="xtick_4">
     <g id="line2d_7">
      <path d="M 237.46 244.504 
L 237.46 25.92 
" clip-path="url(#p9cdbe9deee)" style="fill: none; stroke-dasharray: 0.5,0.825; stroke-dashoffset: 0; stroke: #b0b0b0; stroke-opacity: 0.7; stroke-width: 0.5"/>
     </g>
     <g id="line2d_8">
      <g>
       <use xlink:href="#mf90c478b90" x="237.46" y="244.504" style="stroke: #000000; stroke-width: 0.8"/>
      </g>
     </g>
     <g id="text_2">
      <!-- $\mathdefault{10^{1}}$ -->
      <g transform="translate(228.66 259.102438) scale(0.1 -0.1)">
       <use xlink:href="#DejaVuSans-31" transform="translate(0 0.684375)"/>
       <use xlink:href="#DejaVuSans-30" transform="translate(63.623047 0.684375)"/>
       <use xlink:href="#DejaVuSans-31" transform="translate(128.203125 38.965625) scale(0.7)"/>
      </g>
     </g>
    </g>
    <g id="xtick_5">
     <g id="line2d_9">
      <path d="M 287.742956 244.504 
L 287.742956 25.92 
" clip-path="url(#p9cdbe9deee)" style="fill: none; stroke-dasharray: 0.5,0.825; stroke-dashoffset: 0; stroke: #b0b0b0; stroke-opacity: 0.7; stroke-width: 0.5"/>
     </g>
     <g id="line2d_10">
      <g>
       <use xlink:href="#mf90c478b90" x="287.742956" y="244.504" style="stroke: #000000; stroke-width: 0.8"/>
      </g>
     </g>
    </g>
    <g id="xtick_6">
     <g id="line2d_11">
      <path d="M 354.213408 244.504 
L 354.213408 25.92 
" clip-path="url(#p9cdbe9deee)" style="fill: none; stroke-dasharray: 0.5,0.825; stroke-dashoffset: 0; stroke: #b0b0b0; stroke-opacity: 0.7; stroke-width: 0.5"/>
     </g>
     <g id="line2d_12">
      <g>
       <use xlink:href="#mf90c478b90" x="354.213408" y="244.504" style="stroke: #000000; stroke-width: 0.8"/>
      </g>
     </g>
    </g>
    <g id="xtick_7">
     <g id="line2d_13">
      <path d="M 404.496364 244.504 
L 404.496364 25.92 
" clip-path="url(#p9cdbe9deee)" style="fill: none; stroke-dasharray: 0.5,0.825; stroke-dashoffset: 0; stroke: #b0b0b0; stroke-opacity: 0.7; stroke-width: 0.5"/>
     </g>
     <g id="line2d_14">
      <g>
       <use xlink:href="#mf90c478b90" x="404.496364" y="244.504" style="stroke: #000000; stroke-width: 0.8"/>
      </g>
     </g>
     <g id="text_3">
      <!-- $\mathdefault{10^{2}}$ -->
      <g transform="translate(395.696364 259.102438) scale(0.1 -0.1)">
       <defs>
        <path id="DejaVuSans-32" d="M 1228 531 
L 3431 531 
L 3431 0 
L 469 0 
L 469 531 
Q 828 903 1448 1529 
Q 2069 2156 2228 2338 
Q 2531 2678 2651 2914 
Q 2772 3150 2772 3378 
Q 2772 3750 2511 3984 
Q 2250 4219 1831 4219 
Q 1534 4219 1204 4116 
Q 875 4013 500 3803 
L 500 4441 
Q 881 4594 1212 4672 
Q 1544 4750 1819 4750 
Q 2544 4750 2975 4387 
Q 3406 4025 3406 3419 
Q 3406 3131 3298 2873 
Q 3191 2616 2906 2266 
Q 2828 2175 2409 1742 
Q 1991 1309 1228 531 
z
" transform="scale(0.015625)"/>
       </defs>
       <use xlink:href="#DejaVuSans-31" transform="translate(0 0.765625)"/>
       <use xlink:href="#DejaVuSans-30" transform="translate(63.623047 0.765625)"/>
       <use xlink:href="#DejaVuSans-32" transform="translate(128.203125 39.046875) scale(0.7)"/>
      </g>
     </g>
    </g>
    <g id="xtick_8">
     <g id="line2d_15">
      <defs>
       <path id="mfb201ccd6b" d="M 0 0 
L 0 2 
" style="stroke: #000000; stroke-width: 0.6"/>
      </defs>
      <g>
       <use xlink:href="#mfb201ccd6b" x="54.23614" y="244.504" style="stroke: #000000; stroke-width: 0.6"/>
      </g>
     </g>
    </g>
    <g id="xtick_9">
     <g id="line2d_16">
      <g>
       <use xlink:href="#mfb201ccd6b" x="62.780472" y="244.504" style="stroke: #000000; stroke-width: 0.6"/>
      </g>
     </g>
    </g>
    <g id="xtick_10">
     <g id="line2d_17">
      <g>
       <use xlink:href="#mfb201ccd6b" x="150.120236" y="244.504" style="stroke: #000000; stroke-width: 0.6"/>
      </g>
     </g>
    </g>
    <g id="xtick_11">
     <g id="line2d_18">
      <g>
       <use xlink:href="#mfb201ccd6b" x="170.989548" y="244.504" style="stroke: #000000; stroke-width: 0.6"/>
      </g>
     </g>
    </g>
    <g id="xtick_12">
     <g id="line2d_19">
      <g>
       <use xlink:href="#mfb201ccd6b" x="200.403192" y="244.504" style="stroke: #000000; stroke-width: 0.6"/>
      </g>
     </g>
    </g>
    <g id="xtick_13">
     <g id="line2d_20">
      <g>
       <use xlink:href="#mfb201ccd6b" x="211.58574" y="244.504" style="stroke: #000000; stroke-width: 0.6"/>
      </g>
     </g>
    </g>
    <g id="xtick_14">
     <g id="line2d_21">
      <g>
       <use xlink:href="#mfb201ccd6b" x="221.272504" y="244.504" style="stroke: #000000; stroke-width: 0.6"/>
      </g>
     </g>
    </g>
    <g id="xtick_15">
     <g id="line2d_22">
      <g>
       <use xlink:href="#mfb201ccd6b" x="229.816835" y="244.504" style="stroke: #000000; stroke-width: 0.6"/>
      </g>
     </g>
    </g>
    <g id="xtick_16">
     <g id="line2d_23">
      <g>
       <use xlink:href="#mfb201ccd6b" x="317.156599" y="244.504" style="stroke: #000000; stroke-width: 0.6"/>
      </g>
     </g>
    </g>
    <g id="xtick_17">
     <g id="line2d_24">
      <g>
       <use xlink:href="#mfb201ccd6b" x="338.025912" y="244.504" style="stroke: #000000; stroke-width: 0.6"/>
      </g>
     </g>
    </g>
    <g id="xtick_18">
     <g id="line2d_25">
      <g>
       <use xlink:href="#mfb201ccd6b" x="367.439555" y="244.504" style="stroke: #000000; stroke-width: 0.6"/>
      </g>
     </g>
    </g>
    <g id="xtick_19">
     <g id="line2d_26">
      <g>
       <use xlink:href="#mfb201ccd6b" x="378.622104" y="244.504" style="stroke: #000000; stroke-width: 0.6"/>
      </g>
     </g>
    </g>
    <g id="xtick_20">
     <g id="line2d_27">
      <g>
       <use xlink:href="#mfb201ccd6b" x="388.308867" y="244.504" style="stroke: #000000; stroke-width: 0.6"/>
      </g>
     </g>
    </g>
    <g id="xtick_21">
     <g id="line2d_28">
      <g>
       <use xlink:href="#mfb201ccd6b" x="396.853199" y="244.504" style="stroke: #000000; stroke-width: 0.6"/>
      </g>
     </g>
    </g>
    <g id="text_4">
     <!-- k -->
     <g transform="translate(234.564687 272.780563) scale(0.1 -0.1)">
      <defs>
       <path id="DejaVuSans-6b" d="M 581 4863 
L 1159 4863 
L 1159 1991 
L 2875 3500 
L 3609 3500 
L 1753 1863 
L 3688 0 
L 2938 0 
L 1159 1709 
L 1159 0 
L 581 0 
L 581 4863 
z
" transform="scale(0.015625)"/>
      </defs>
      <use xlink:href="#DejaVuSans-6b"/>
     </g>
    </g>
   </g>
   <g id="matplotlib.axis_2">
    <g id="ytick_1">
     <g id="line2d_29">
      <path d="M 53.72 244.504 
L 421.2 244.504 
" clip-path="url(#p9cdbe9deee)" style="fill: none; stroke-dasharray: 0.5,0.825; stroke-dashoffset: 0; stroke: #b0b0b0; stroke-opacity: 0.7; stroke-width: 0.5"/>
     </g>
     <g id="line2d_30">
      <defs>
       <path id="m827765f5d5" d="M 0 0 
L -3.5 0 
" style="stroke: #000000; stroke-width: 0.8"/>
      </defs>
      <g>
       <use xlink:href="#m827765f5d5" x="53.72" y="244.504" style="stroke: #000000; stroke-width: 0.8"/>
      </g>
     </g>
     <g id="text_5">
      <!-- 0.60 -->
      <g transform="translate(24.454375 248.303219) scale(0.1 -0.1)">
       <defs>
        <path id="DejaVuSans-2e" d="M 684 794 
L 1344 794 
L 1344 0 
L 684 0 
L 684 794 
z
" transform="scale(0.015625)"/>
        <path id="DejaVuSans-36" d="M 2113 2584 
Q 1688 2584 1439 2293 
Q 1191 2003 1191 1497 
Q 1191 994 1439 701 
Q 1688 409 2113 409 
Q 2538 409 2786 701 
Q 3034 994 3034 1497 
Q 3034 2003 2786 2293 
Q 2538 2584 2113 2584 
z
M 3366 4563 
L 3366 3988 
Q 3128 4100 2886 4159 
Q 2644 4219 2406 4219 
Q 1781 4219 1451 3797 
Q 1122 3375 1075 2522 
Q 1259 2794 1537 2939 
Q 1816 3084 2150 3084 
Q 2853 3084 3261 2657 
Q 3669 2231 3669 1497 
Q 3669 778 3244 343 
Q 2819 -91 2113 -91 
Q 1303 -91 875 529 
Q 447 1150 447 2328 
Q 447 3434 972 4092 
Q 1497 4750 2381 4750 
Q 2619 4750 2861 4703 
Q 3103 4656 3366 4563 
z
" transform="scale(0.015625)"/>
       </defs>
       <use xlink:href="#DejaVuSans-30"/>
       <use xlink:href="#DejaVuSans-2e" x="63.623047"/>
       <use xlink:href="#DejaVuSans-36" x="95.410156"/>
       <use xlink:href="#DejaVuSans-30" x="159.033203"/>
      </g>
     </g>
    </g>
    <g id="ytick_2">
     <g id="line2d_31">
      <path d="M 53.72 217.181 
L 421.2 217.181 
" clip-path="url(#p9cdbe9deee)" style="fill: none; stroke-dasharray: 0.5,0.825; stroke-dashoffset: 0; stroke: #b0b0b0; stroke-opacity: 0.7; stroke-width: 0.5"/>
     </g>
     <g id="line2d_32">
      <g>
       <use xlink:href="#m827765f5d5" x="53.72" y="217.181" style="stroke: #000000; stroke-width: 0.8"/>
      </g>
     </g>
     <g id="text_6">
      <!-- 0.65 -->
      <g transform="translate(24.454375 220.980219) scale(0.1 -0.1)">
       <defs>
        <path id="DejaVuSans-35" d="M 691 4666 
L 3169 4666 
L 3169 4134 
L 1269 4134 
L 1269 2991 
Q 1406 3038 1543 3061 
Q 1681 3084 1819 3084 
Q 2600 3084 3056 2656 
Q 3513 2228 3513 1497 
Q 3513 744 3044 326 
Q 2575 -91 1722 -91 
Q 1428 -91 1123 -41 
Q 819 9 494 109 
L 494 744 
Q 775 591 1075 516 
Q 1375 441 1709 441 
Q 2250 441 2565 725 
Q 2881 1009 2881 1497 
Q 2881 1984 2565 2268 
Q 2250 2553 1709 2553 
Q 1456 2553 1204 2497 
Q 953 2441 691 2322 
L 691 4666 
z
" transform="scale(0.015625)"/>
       </defs>
       <use xlink:href="#DejaVuSans-30"/>
       <use xlink:href="#DejaVuSans-2e" x="63.623047"/>
       <use xlink:href="#DejaVuSans-36" x="95.410156"/>
       <use xlink:href="#DejaVuSans-35" x="159.033203"/>
      </g>
     </g>
    </g>
    <g id="ytick_3">
     <g id="line2d_33">
      <path d="M 53.72 189.858 
L 421.2 189.858 
" clip-path="url(#p9cdbe9deee)" style="fill: none; stroke-dasharray: 0.5,0.825; stroke-dashoffset: 0; stroke: #b0b0b0; stroke-opacity: 0.7; stroke-width: 0.5"/>
     </g>
     <g id="line2d_34">
      <g>
       <use xlink:href="#m827765f5d5" x="53.72" y="189.858" style="stroke: #000000; stroke-width: 0.8"/>
      </g>
     </g>
     <g id="text_7">
      <!-- 0.70 -->
      <g transform="translate(24.454375 193.657219) scale(0.1 -0.1)">
       <defs>
        <path id="DejaVuSans-37" d="M 525 4666 
L 3525 4666 
L 3525 4397 
L 1831 0 
L 1172 0 
L 2766 4134 
L 525 4134 
L 525 4666 
z
" transform="scale(0.015625)"/>
       </defs>
       <use xlink:href="#DejaVuSans-30"/>
       <use xlink:href="#DejaVuSans-2e" x="63.623047"/>
       <use xlink:href="#DejaVuSans-37" x="95.410156"/>
       <use xlink:href="#DejaVuSans-30" x="159.033203"/>
      </g>
     </g>
    </g>
    <g id="ytick_4">
     <g id="line2d_35">
      <path d="M 53.72 162.535 
L 421.2 162.535 
" clip-path="url(#p9cdbe9deee)" style="fill: none; stroke-dasharray: 0.5,0.825; stroke-dashoffset: 0; stroke: #b0b0b0; stroke-opacity: 0.7; stroke-width: 0.5"/>
     </g>
     <g id="line2d_36">
      <g>
       <use xlink:href="#m827765f5d5" x="53.72" y="162.535" style="stroke: #000000; stroke-width: 0.8"/>
      </g>
     </g>
     <g id="text_8">
      <!-- 0.75 -->
      <g transform="translate(24.454375 166.334219) scale(0.1 -0.1)">
       <use xlink:href="#DejaVuSans-30"/>
       <use xlink:href="#DejaVuSans-2e" x="63.623047"/>
       <use xlink:href="#DejaVuSans-37" x="95.410156"/>
       <use xlink:href="#DejaVuSans-35" x="159.033203"/>
      </g>
     </g>
    </g>
    <g id="ytick_5">
     <g id="line2d_37">
      <path d="M 53.72 135.212 
L 421.2 135.212 
" clip-path="url(#p9cdbe9deee)" style="fill: none; stroke-dasharray: 0.5,0.825; stroke-dashoffset: 0; stroke: #b0b0b0; stroke-opacity: 0.7; stroke-width: 0.5"/>
     </g>
     <g id="line2d_38">
      <g>
       <use xlink:href="#m827765f5d5" x="53.72" y="135.212" style="stroke: #000000; stroke-width: 0.8"/>
      </g>
     </g>
     <g id="text_9">
      <!-- 0.80 -->
      <g transform="translate(24.454375 139.011219) scale(0.1 -0.1)">
       <defs>
        <path id="DejaVuSans-38" d="M 2034 2216 
Q 1584 2216 1326 1975 
Q 1069 1734 1069 1313 
Q 1069 891 1326 650 
Q 1584 409 2034 409 
Q 2484 409 2743 651 
Q 3003 894 3003 1313 
Q 3003 1734 2745 1975 
Q 2488 2216 2034 2216 
z
M 1403 2484 
Q 997 2584 770 2862 
Q 544 3141 544 3541 
Q 544 4100 942 4425 
Q 1341 4750 2034 4750 
Q 2731 4750 3128 4425 
Q 3525 4100 3525 3541 
Q 3525 3141 3298 2862 
Q 3072 2584 2669 2484 
Q 3125 2378 3379 2068 
Q 3634 1759 3634 1313 
Q 3634 634 3220 271 
Q 2806 -91 2034 -91 
Q 1263 -91 848 271 
Q 434 634 434 1313 
Q 434 1759 690 2068 
Q 947 2378 1403 2484 
z
M 1172 3481 
Q 1172 3119 1398 2916 
Q 1625 2713 2034 2713 
Q 2441 2713 2670 2916 
Q 2900 3119 2900 3481 
Q 2900 3844 2670 4047 
Q 2441 4250 2034 4250 
Q 1625 4250 1398 4047 
Q 1172 3844 1172 3481 
z
" transform="scale(0.015625)"/>
       </defs>
       <use xlink:href="#DejaVuSans-30"/>
       <use xlink:href="#DejaVuSans-2e" x="63.623047"/>
       <use xlink:href="#DejaVuSans-38" x="95.410156"/>
       <use xlink:href="#DejaVuSans-30" x="159.033203"/>
      </g>
     </g>
    </g>
    <g id="ytick_6">
     <g id="line2d_39">
      <path d="M 53.72 107.889 
L 421.2 107.889 
" clip-path="url(#p9cdbe9deee)" style="fill: none; stroke-dasharray: 0.5,0.825; stroke-dashoffset: 0; stroke: #b0b0b0; stroke-opacity: 0.7; stroke-width: 0.5"/>
     </g>
     <g id="line2d_40">
      <g>
       <use xlink:href="#m827765f5d5" x="53.72" y="107.889" style="stroke: #000000; stroke-width: 0.8"/>
      </g>
     </g>
     <g id="text_10">
      <!-- 0.85 -->
      <g transform="translate(24.454375 111.688219) scale(0.1 -0.1)">
       <use xlink:href="#DejaVuSans-30"/>
       <use xlink:href="#DejaVuSans-2e" x="63.623047"/>
       <use xlink:href="#DejaVuSans-38" x="95.410156"/>
       <use xlink:href="#DejaVuSans-35" x="159.033203"/>
      </g>
     </g>
    </g>
    <g id="ytick_7">
     <g id="line2d_41">
      <path d="M 53.72 80.566 
L 421.2 80.566 
" clip-path="url(#p9cdbe9deee)" style="fill: none; stroke-dasharray: 0.5,0.825; stroke-dashoffset: 0; stroke: #b0b0b0; stroke-opacity: 0.7; stroke-width: 0.5"/>
     </g>
     <g id="line2d_42">
      <g>
       <use xlink:href="#m827765f5d5" x="53.72" y="80.566" style="stroke: #000000; stroke-width: 0.8"/>
      </g>
     </g>
     <g id="text_11">
      <!-- 0.90 -->
      <g transform="translate(24.454375 84.365219) scale(0.1 -0.1)">
       <defs>
        <path id="DejaVuSans-39" d="M 703 97 
L 703 672 
Q 941 559 1184 500 
Q 1428 441 1663 441 
Q 2288 441 2617 861 
Q 2947 1281 2994 2138 
Q 2813 1869 2534 1725 
Q 2256 1581 1919 1581 
Q 1219 1581 811 2004 
Q 403 2428 403 3163 
Q 403 3881 828 4315 
Q 1253 4750 1959 4750 
Q 2769 4750 3195 4129 
Q 3622 3509 3622 2328 
Q 3622 1225 3098 567 
Q 2575 -91 1691 -91 
Q 1453 -91 1209 -44 
Q 966 3 703 97 
z
M 1959 2075 
Q 2384 2075 2632 2365 
Q 2881 2656 2881 3163 
Q 2881 3666 2632 3958 
Q 2384 4250 1959 4250 
Q 1534 4250 1286 3958 
Q 1038 3666 1038 3163 
Q 1038 2656 1286 2365 
Q 1534 2075 1959 2075 
z
" transform="scale(0.015625)"/>
       </defs>
       <use xlink:href="#DejaVuSans-30"/>
       <use xlink:href="#DejaVuSans-2e" x="63.623047"/>
       <use xlink:href="#DejaVuSans-39" x="95.410156"/>
       <use xlink:href="#DejaVuSans-30" x="159.033203"/>
      </g>
     </g>
    </g>
    <g id="ytick_8">
     <g id="line2d_43">
      <path d="M 53.72 53.243 
L 421.2 53.243 
" clip-path="url(#p9cdbe9deee)" style="fill: none; stroke-dasharray: 0.5,0.825; stroke-dashoffset: 0; stroke: #b0b0b0; stroke-opacity: 0.7; stroke-width: 0.5"/>
     </g>
     <g id="line2d_44">
      <g>
       <use xlink:href="#m827765f5d5" x="53.72" y="53.243" style="stroke: #000000; stroke-width: 0.8"/>
      </g>
     </g>
     <g id="text_12">
      <!-- 0.95 -->
      <g transform="translate(24.454375 57.042219) scale(0.1 -0.1)">
       <use xlink:href="#DejaVuSans-30"/>
       <use xlink:href="#DejaVuSans-2e" x="63.623047"/>
       <use xlink:href="#DejaVuSans-39" x="95.410156"/>
       <use xlink:href="#DejaVuSans-35" x="159.033203"/>
      </g>
     </g>
    </g>
    <g id="ytick_9">
     <g id="line2d_45">
      <path d="M 53.72 25.92 
L 421.2 25.92 
" clip-path="url(#p9cdbe9deee)" style="fill: none; stroke-dasharray: 0.5,0.825; stroke-dashoffset: 0; stroke: #b0b0b0; stroke-opacity: 0.7; stroke-width: 0.5"/>
     </g>
     <g id="line2d_46">
      <g>
       <use xlink:href="#m827765f5d5" x="53.72" y="25.92" style="stroke: #000000; stroke-width: 0.8"/>
      </g>
     </g>
     <g id="text_13">
      <!-- 1.00 -->
      <g transform="translate(24.454375 29.719219) scale(0.1 -0.1)">
       <use xlink:href="#DejaVuSans-31"/>
       <use xlink:href="#DejaVuSans-2e" x="63.623047"/>
       <use xlink:href="#DejaVuSans-30" x="95.410156"/>
       <use xlink:href="#DejaVuSans-30" x="159.033203"/>
      </g>
     </g>
    </g>
    <g id="text_14">
     <!-- pass@k -->
     <g transform="translate(18.374688 154.554969) rotate(-90) scale(0.1 -0.1)">
      <defs>
       <path id="DejaVuSans-70" d="M 1159 525 
L 1159 -1331 
L 581 -1331 
L 581 3500 
L 1159 3500 
L 1159 2969 
Q 1341 3281 1617 3432 
Q 1894 3584 2278 3584 
Q 2916 3584 3314 3078 
Q 3713 2572 3713 1747 
Q 3713 922 3314 415 
Q 2916 -91 2278 -91 
Q 1894 -91 1617 61 
Q 1341 213 1159 525 
z
M 3116 1747 
Q 3116 2381 2855 2742 
Q 2594 3103 2138 3103 
Q 1681 3103 1420 2742 
Q 1159 2381 1159 1747 
Q 1159 1113 1420 752 
Q 1681 391 2138 391 
Q 2594 391 2855 752 
Q 3116 1113 3116 1747 
z
" transform="scale(0.015625)"/>
       <path id="DejaVuSans-61" d="M 2194 1759 
Q 1497 1759 1228 1600 
Q 959 1441 959 1056 
Q 959 750 1161 570 
Q 1363 391 1709 391 
Q 2188 391 2477 730 
Q 2766 1069 2766 1631 
L 2766 1759 
L 2194 1759 
z
M 3341 1997 
L 3341 0 
L 2766 0 
L 2766 531 
Q 2569 213 2275 61 
Q 1981 -91 1556 -91 
Q 1019 -91 701 211 
Q 384 513 384 1019 
Q 384 1609 779 1909 
Q 1175 2209 1959 2209 
L 2766 2209 
L 2766 2266 
Q 2766 2663 2505 2880 
Q 2244 3097 1772 3097 
Q 1472 3097 1187 3025 
Q 903 2953 641 2809 
L 641 3341 
Q 956 3463 1253 3523 
Q 1550 3584 1831 3584 
Q 2591 3584 2966 3190 
Q 3341 2797 3341 1997 
z
" transform="scale(0.015625)"/>
       <path id="DejaVuSans-73" d="M 2834 3397 
L 2834 2853 
Q 2591 2978 2328 3040 
Q 2066 3103 1784 3103 
Q 1356 3103 1142 2972 
Q 928 2841 928 2578 
Q 928 2378 1081 2264 
Q 1234 2150 1697 2047 
L 1894 2003 
Q 2506 1872 2764 1633 
Q 3022 1394 3022 966 
Q 3022 478 2636 193 
Q 2250 -91 1575 -91 
Q 1294 -91 989 -36 
Q 684 19 347 128 
L 347 722 
Q 666 556 975 473 
Q 1284 391 1588 391 
Q 1994 391 2212 530 
Q 2431 669 2431 922 
Q 2431 1156 2273 1281 
Q 2116 1406 1581 1522 
L 1381 1569 
Q 847 1681 609 1914 
Q 372 2147 372 2553 
Q 372 3047 722 3315 
Q 1072 3584 1716 3584 
Q 2034 3584 2315 3537 
Q 2597 3491 2834 3397 
z
" transform="scale(0.015625)"/>
       <path id="DejaVuSans-40" d="M 2381 1678 
Q 2381 1231 2603 976 
Q 2825 722 3213 722 
Q 3597 722 3817 978 
Q 4038 1234 4038 1678 
Q 4038 2116 3813 2373 
Q 3588 2631 3206 2631 
Q 2828 2631 2604 2375 
Q 2381 2119 2381 1678 
z
M 4084 744 
Q 3897 503 3655 389 
Q 3413 275 3091 275 
Q 2553 275 2217 664 
Q 1881 1053 1881 1678 
Q 1881 2303 2218 2693 
Q 2556 3084 3091 3084 
Q 3413 3084 3656 2967 
Q 3900 2850 4084 2613 
L 4084 3022 
L 4531 3022 
L 4531 722 
Q 4988 791 5245 1139 
Q 5503 1488 5503 2041 
Q 5503 2375 5404 2669 
Q 5306 2963 5106 3213 
Q 4781 3622 4314 3839 
Q 3847 4056 3297 4056 
Q 2913 4056 2559 3954 
Q 2206 3853 1906 3653 
Q 1416 3334 1139 2817 
Q 863 2300 863 1697 
Q 863 1200 1042 765 
Q 1222 331 1563 0 
Q 1891 -325 2322 -495 
Q 2753 -666 3244 -666 
Q 3647 -666 4036 -530 
Q 4425 -394 4750 -141 
L 5031 -488 
Q 4641 -791 4180 -952 
Q 3719 -1113 3244 -1113 
Q 2666 -1113 2153 -908 
Q 1641 -703 1241 -313 
Q 841 78 631 592 
Q 422 1106 422 1697 
Q 422 2266 634 2781 
Q 847 3297 1241 3688 
Q 1644 4084 2172 4295 
Q 2700 4506 3291 4506 
Q 3953 4506 4520 4234 
Q 5088 3963 5472 3463 
Q 5706 3156 5829 2797 
Q 5953 2438 5953 2053 
Q 5953 1231 5456 756 
Q 4959 281 4084 263 
L 4084 744 
z
" transform="scale(0.015625)"/>
      </defs>
      <use xlink:href="#DejaVuSans-70"/>
      <use xlink:href="#DejaVuSans-61" x="63.476562"/>
      <use xlink:href="#DejaVuSans-73" x="124.755859"/>
      <use xlink:href="#DejaVuSans-73" x="176.855469"/>
      <use xlink:href="#DejaVuSans-40" x="228.955078"/>
      <use xlink:href="#DejaVuSans-6b" x="328.955078"/>
     </g>
    </g>
   </g>
   <g id="line2d_47">
    <path d="M 70.423636 198.237053 
L 120.706592 155.937001 
L 150.120236 139.354777 
L 170.989548 130.330116 
L 187.177044 124.272986 
L 200.403192 119.686041 
L 211.58574 115.962077 
L 221.272504 112.810623 
L 229.816835 110.074144 
L 237.46 107.657601 
L 244.374084 105.497974 
L 250.686147 103.550051 
L 256.492683 101.779448 
L 261.868696 100.158981 
L 266.873644 98.666638 
L 271.55546 97.284348 
L 275.95335 95.997154 
L 280.099791 94.792623 
L 284.021988 93.660385 
L 287.742956 92.591774 
L 291.282339 91.57953 
L 294.657039 90.617556 
L 297.881702 89.700724 
L 300.969103 88.824701 
L 303.930452 87.985816 
L 306.775639 87.180946 
L 309.513435 86.407418 
L 312.151652 85.662937 
L 314.69728 84.945517 
L 317.156599 84.253427 
L 319.535271 83.58515 
L 321.838415 82.939348 
L 324.070683 82.314825 
L 326.236306 81.710512 
L 328.339148 81.12544 
L 330.382747 80.558724 
L 332.37035 80.009553 
L 334.304944 79.477177 
L 336.189283 78.960897 
L 338.025912 78.460058 
L 339.817187 77.974044 
L 341.565295 77.502271 
L 343.272267 77.044185 
L 344.939995 76.599257 
L 346.570243 76.166982 
L 348.164658 75.746873 
L 349.724782 75.338466 
L 351.252059 74.94131 
L 352.747843 74.554973 
L 354.213408 74.179036 
L 355.649949 73.813097 
L 357.058595 73.456763 
L 358.440408 73.109657 
L 359.79639 72.771413 
L 361.127491 72.441677 
L 362.434607 72.120105 
L 363.718587 71.806366 
L 364.980236 71.500137 
L 366.220317 71.201108 
L 367.439555 70.908975 
L 368.63864 70.623448 
L 369.818226 70.344243 
L 370.978939 70.071085 
L 372.121371 69.803711 
L 373.246091 69.541864 
L 374.353639 69.285294 
L 375.444531 69.033761 
L 376.519261 68.787034 
L 377.578302 68.544886 
L 378.622104 68.3071 
L 379.651099 68.073465 
L 380.665703 67.843776 
L 381.666311 67.617837 
L 382.653306 67.395456 
L 383.627051 67.176447 
L 384.587899 66.960632 
L 385.536187 66.747836 
L 386.472238 66.537891 
L 387.396365 66.330633 
L 388.308867 66.125904 
L 389.210034 65.92355 
L 390.100143 65.723421 
L 390.979462 65.525372 
L 391.848251 65.32926 
L 392.706758 65.134948 
L 393.555223 64.942302 
L 394.39388 64.751189 
L 395.222951 64.561481 
L 396.042654 64.373052 
L 396.853199 64.185779 
L 397.654787 63.99954 
L 398.447614 63.814215 
L 399.23187 63.629688 
L 400.007738 63.445841 
L 400.775396 63.26256 
L 401.535015 63.079731 
L 402.286762 62.897239 
L 403.030799 62.714973 
L 403.767282 62.53282 
L 404.496364 62.350667 
" clip-path="url(#p9cdbe9deee)" style="fill: none; stroke: #1f77b4; stroke-width: 2; stroke-linecap: square"/>
   </g>
   <g id="line2d_48">
    <path d="M 70.423636 271.303309 
L 120.706592 229.604869 
L 150.120236 212.219656 
L 170.989548 201.581245 
L 187.177044 194.028626 
L 200.403192 190.175159 
L 211.58574 185.167007 
L 221.272504 183.154298 
L 229.816835 180.404882 
L 237.46 177.987793 
L 244.374084 174.167015 
L 250.686147 172.014755 
L 256.492683 168.858768 
L 261.868696 168.118588 
L 266.873644 165.975547 
L 271.55546 163.631197 
L 275.95335 161.389077 
L 280.099791 160.774527 
L 284.021988 159.868287 
L 287.742956 157.87805 
L 291.282339 155.932582 
L 294.657039 154.028696 
L 297.881702 152.169086 
L 300.969103 150.456062 
L 303.930452 149.106752 
L 306.775639 148.138477 
L 309.513435 147.244962 
L 312.151652 146.62667 
L 314.69728 145.83077 
L 317.156599 144.722241 
L 319.535271 143.862637 
L 321.838415 143.405156 
L 324.070683 142.966943 
L 326.236306 142.547282 
L 328.339148 142.145498 
L 330.382747 141.723452 
L 332.37035 140.291471 
L 334.304944 139.633398 
L 336.189283 139.254593 
L 338.025912 138.87326 
L 339.817187 138.490906 
L 341.565295 138.126562 
L 343.272267 137.542042 
L 344.939995 136.574803 
L 346.570243 136.08068 
L 348.164658 135.996282 
L 349.724782 135.917589 
L 351.252059 135.844244 
L 352.747843 135.576318 
L 354.213408 135.212011 
L 355.649949 134.850344 
L 357.058595 134.483391 
L 358.440408 134.119083 
L 359.79639 133.227186 
L 361.127491 131.973441 
L 362.434607 131.151166 
L 363.718587 130.446868 
L 364.980236 129.881893 
L 366.220317 129.334932 
L 367.439555 128.805545 
L 368.63864 128.293293 
L 369.818226 127.797735 
L 370.978939 127.318433 
L 372.121371 126.854947 
L 373.246091 126.406838 
L 374.353639 125.973666 
L 375.444531 125.554992 
L 376.519261 125.150377 
L 377.578302 124.759381 
L 378.622104 124.381565 
L 379.651099 124.016489 
L 380.665703 123.663715 
L 381.666311 123.322803 
L 382.653306 122.993313 
L 383.627051 122.674807 
L 384.587899 122.366844 
L 385.536187 122.068986 
L 386.472238 121.780794 
L 387.396365 121.501827 
L 388.308867 121.231647 
L 389.210034 120.969814 
L 390.100143 120.71589 
L 390.979462 120.469433 
L 391.848251 120.230007 
L 392.706758 119.99717 
L 393.555223 119.770483 
L 394.39388 119.549508 
L 395.222951 119.333805 
L 396.042654 119.122935 
L 396.853199 118.916458 
L 397.654787 118.713935 
L 398.447614 118.514927 
L 399.23187 118.318993 
L 400.007738 118.125696 
L 400.775396 117.934596 
L 401.535015 117.745253 
L 402.286762 117.557227 
L 403.030799 117.370081 
L 403.767282 117.183374 
L 404.496364 116.996667 
" clip-path="url(#p9cdbe9deee)" style="fill: none; stroke-dasharray: 3.7,1.6; stroke-dashoffset: 0; stroke: #1f77b4"/>
   </g>
   <g id="line2d_49">
    <path d="M 70.423636 129.915892 
L 120.706592 87.220392 
L 150.120236 72.612157 
L 170.989548 66.111928 
L 187.177044 62.65945 
L 200.403192 60.927582 
L 211.58574 58.115012 
L 221.272504 56.067145 
L 229.816835 54.600908 
L 237.46 52.372312 
L 244.374084 50.314061 
L 250.686147 48.593951 
L 256.492683 47.158725 
L 261.868696 45.904627 
L 266.873644 45.087443 
L 271.55546 44.846721 
L 275.95335 44.149094 
L 280.099791 43.201802 
L 284.021988 42.311975 
L 287.742956 41.588285 
L 291.282339 41.175557 
L 294.657039 40.823375 
L 297.881702 40.498366 
L 300.969103 40.204086 
L 303.930452 39.932568 
L 306.775639 39.678382 
L 309.513435 39.438315 
L 312.151652 39.209725 
L 314.69728 38.747174 
L 317.156599 38.011139 
L 319.535271 37.312751 
L 321.838415 36.649817 
L 324.070683 36.020382 
L 326.236306 35.422687 
L 328.339148 34.855135 
L 330.382747 34.316262 
L 332.37035 33.804716 
L 334.304944 33.319239 
L 336.189283 32.858654 
L 338.025912 32.421851 
L 339.817187 32.007781 
L 341.565295 31.615449 
L 343.272267 31.243903 
L 344.939995 30.892237 
L 346.570243 30.559579 
L 348.164658 30.245097 
L 349.724782 29.947988 
L 351.252059 29.66748 
L 352.747843 29.402831 
L 354.213408 29.153327 
L 355.649949 28.918277 
L 357.058595 28.697018 
L 358.440408 28.488911 
L 359.79639 28.293339 
L 361.127491 28.109707 
L 362.434607 27.937445 
L 363.718587 27.776 
L 364.980236 27.624844 
L 366.220317 27.483466 
L 367.439555 27.351376 
L 368.63864 27.228102 
L 369.818226 27.113191 
L 370.978939 27.006208 
L 372.121371 26.906735 
L 373.246091 26.814373 
L 374.353639 26.728736 
L 375.444531 26.649457 
L 376.519261 26.576182 
L 377.578302 26.508575 
L 378.622104 26.446312 
L 379.651099 26.389083 
L 380.665703 26.336594 
L 381.666311 26.288562 
L 382.653306 26.244717 
L 383.627051 26.204801 
L 384.587899 26.168569 
L 385.536187 26.135784 
L 386.472238 26.106222 
L 387.396365 26.07967 
L 388.308867 26.055922 
L 389.210034 26.034783 
L 390.100143 26.016067 
L 390.979462 25.999596 
L 391.848251 25.985197 
L 392.706758 25.972708 
L 393.555223 25.961973 
L 394.39388 25.95284 
L 395.222951 25.945166 
L 396.042654 25.938811 
L 396.853199 25.93364 
L 397.654787 25.929523 
L 398.447614 25.926335 
L 399.23187 25.923953 
L 400.007738 25.922256 
L 400.775396 25.921127 
L 401.535015 25.920451 
L 402.286762 25.920113 
L 403.030799 25.92 
L 403.767282 25.92 
L 404.496364 25.92 
" clip-path="url(#p9cdbe9deee)" style="fill: none; stroke-dasharray: 1,1.65; stroke-dashoffset: 0; stroke: #1f77b4"/>
   </g>
   <g id="line2d_50">
    <path d="M 70.423636 194.22968 
L 120.706592 147.539549 
L 150.120236 128.823566 
L 170.989548 118.777491 
L 187.177044 112.253272 
L 200.403192 107.533051 
L 211.58574 103.909697 
L 221.272504 101.027921 
L 229.816835 98.678961 
L 237.46 96.726727 
L 244.374084 95.076649 
L 250.686147 93.660345 
L 256.492683 92.427054 
L 261.868696 91.338396 
L 266.873644 90.364959 
L 271.55546 89.48398 
L 275.95335 88.6777 
L 280.099791 87.932188 
L 284.021988 87.236461 
L 287.742956 86.581836 
L 291.282339 85.961423 
L 294.657039 85.369751 
L 297.881702 84.802463 
L 300.969103 84.256085 
L 303.930452 83.727846 
L 306.775639 83.215532 
L 309.513435 82.717369 
L 312.151652 82.231937 
L 314.69728 81.758094 
L 317.156599 81.294917 
L 319.535271 80.841662 
L 321.838415 80.397722 
L 324.070683 79.962598 
L 326.236306 79.535879 
L 328.339148 79.11722 
L 330.382747 78.706331 
L 332.37035 78.302962 
L 334.304944 77.906895 
L 336.189283 77.517938 
L 338.025912 77.135917 
L 339.817187 76.760673 
L 341.565295 76.39206 
L 343.272267 76.029938 
L 344.939995 75.674177 
L 346.570243 75.324649 
L 348.164658 74.981231 
L 349.724782 74.643803 
L 351.252059 74.312246 
L 352.747843 73.986444 
L 354.213408 73.666281 
L 355.649949 73.351643 
L 357.058595 73.042415 
L 358.440408 72.738484 
L 359.79639 72.439736 
L 361.127491 72.146058 
L 362.434607 71.857338 
L 363.718587 71.573462 
L 364.980236 71.294317 
L 366.220317 71.019791 
L 367.439555 70.749772 
L 368.63864 70.484145 
L 369.818226 70.2228 
L 370.978939 69.965622 
L 372.121371 69.7125 
L 373.246091 69.463321 
L 374.353639 69.217971 
L 375.444531 68.976339 
L 376.519261 68.738312 
L 377.578302 68.503777 
L 378.622104 68.272621 
L 379.651099 68.044733 
L 380.665703 67.819998 
L 381.666311 67.598305 
L 382.653306 67.379541 
L 383.627051 67.163593 
L 384.587899 66.950348 
L 385.536187 66.739695 
L 386.472238 66.531519 
L 387.396365 66.32571 
L 388.308867 66.122153 
L 389.210034 65.920737 
L 390.100143 65.721348 
L 390.979462 65.523875 
L 391.848251 65.328203 
L 392.706758 65.134222 
L 393.555223 64.941818 
L 394.39388 64.750878 
L 395.222951 64.561289 
L 396.042654 64.37294 
L 396.853199 64.185718 
L 397.654787 63.999509 
L 398.447614 63.814202 
L 399.23187 63.629683 
L 400.007738 63.44584 
L 400.775396 63.26256 
L 401.535015 63.079731 
L 402.286762 62.897239 
L 403.030799 62.714973 
L 403.767282 62.53282 
L 404.496364 62.350667 
" clip-path="url(#p9cdbe9deee)" style="fill: none; stroke: #ff7f0e; stroke-width: 2; stroke-linecap: square"/>
   </g>
   <g id="line2d_51">
    <path d="M 70.423636 261.999828 
L 120.706592 217.649079 
L 150.120236 199.398653 
L 170.989548 188.108006 
L 187.177044 183.022678 
L 200.403192 177.261753 
L 211.58574 172.725714 
L 221.272504 169.807737 
L 229.816835 166.695015 
L 237.46 164.729987 
L 244.374084 162.981642 
L 250.686147 161.407132 
L 256.492683 159.972445 
L 261.868696 158.638777 
L 266.873644 157.388104 
L 271.55546 156.210395 
L 275.95335 155.092023 
L 280.099791 154.022128 
L 284.021988 153.666009 
L 287.742956 152.05546 
L 291.282339 150.867697 
L 294.657039 149.980538 
L 297.881702 149.102805 
L 300.969103 148.234147 
L 303.930452 147.37429 
L 306.775639 146.523013 
L 309.513435 145.680126 
L 312.151652 144.845466 
L 314.69728 143.963916 
L 317.156599 142.783661 
L 319.535271 142.154095 
L 321.838415 141.76959 
L 324.070683 141.405263 
L 326.236306 141.040941 
L 328.339148 140.676624 
L 330.382747 140.31231 
L 332.37035 139.947998 
L 334.304944 139.583688 
L 336.189283 139.219622 
L 338.025912 138.855236 
L 339.817187 138.351025 
L 341.565295 137.445798 
L 343.272267 136.553152 
L 344.939995 135.672849 
L 346.570243 135.257737 
L 348.164658 135.248567 
L 349.724782 135.239416 
L 351.252059 135.230278 
L 352.747843 135.22115 
L 354.213408 135.212 
L 355.649949 134.847693 
L 357.058595 134.483387 
L 358.440408 133.768838 
L 359.79639 132.580451 
L 361.127491 131.632594 
L 362.434607 131.03028 
L 363.718587 130.446857 
L 364.980236 129.881886 
L 366.220317 129.334927 
L 367.439555 128.805542 
L 368.63864 128.293291 
L 369.818226 127.797734 
L 370.978939 127.318433 
L 372.121371 126.854947 
L 373.246091 126.406838 
L 374.353639 125.973666 
L 375.444531 125.554992 
L 376.519261 125.150377 
L 377.578302 124.759381 
L 378.622104 124.381565 
L 379.651099 124.016489 
L 380.665703 123.663715 
L 381.666311 123.322803 
L 382.653306 122.993313 
L 383.627051 122.674807 
L 384.587899 122.366844 
L 385.536187 122.068986 
L 386.472238 121.780794 
L 387.396365 121.501827 
L 388.308867 121.231647 
L 389.210034 120.969814 
L 390.100143 120.71589 
L 390.979462 120.469433 
L 391.848251 120.230007 
L 392.706758 119.99717 
L 393.555223 119.770483 
L 394.39388 119.549508 
L 395.222951 119.333805 
L 396.042654 119.122935 
L 396.853199 118.916458 
L 397.654787 118.713935 
L 398.447614 118.514927 
L 399.23187 118.318993 
L 400.007738 118.125696 
L 400.775396 117.934596 
L 401.535015 117.745253 
L 402.286762 117.557227 
L 403.030799 117.370081 
L 403.767282 117.183374 
L 404.496364 116.996667 
" clip-path="url(#p9cdbe9deee)" style="fill: none; stroke-dasharray: 3.7,1.6; stroke-dashoffset: 0; stroke: #ff7f0e"/>
   </g>
   <g id="line2d_52">
    <path d="M 70.423636 132.106286 
L 120.706592 84.166656 
L 150.120236 66.755094 
L 170.989548 57.798079 
L 187.177044 52.409949 
L 200.403192 49.326381 
L 211.58574 47.649931 
L 221.272504 46.425926 
L 229.816835 45.332923 
L 237.46 44.624928 
L 244.374084 43.74259 
L 250.686147 43.050459 
L 256.492683 41.630484 
L 261.868696 40.414853 
L 266.873644 39.379047 
L 271.55546 38.486361 
L 275.95335 37.708326 
L 280.099791 37.022701 
L 284.021988 36.412002 
L 287.742956 35.86242 
L 291.282339 35.363011 
L 294.657039 34.905071 
L 297.881702 34.481667 
L 300.969103 34.087265 
L 303.930452 33.717444 
L 306.775639 33.368665 
L 309.513435 33.038098 
L 312.151652 32.723473 
L 314.69728 32.422971 
L 317.156599 32.13513 
L 319.535271 31.858773 
L 321.838415 31.592952 
L 324.070683 31.336899 
L 326.236306 31.089987 
L 328.339148 30.851705 
L 330.382747 30.621631 
L 332.37035 30.399411 
L 334.304944 30.184748 
L 336.189283 29.977388 
L 338.025912 29.777111 
L 339.817187 29.58372 
L 341.565295 29.397041 
L 343.272267 29.216914 
L 344.939995 29.043192 
L 346.570243 28.875736 
L 348.164658 28.714414 
L 349.724782 28.559098 
L 351.252059 28.409666 
L 352.747843 28.265998 
L 354.213408 28.127975 
L 355.649949 27.995481 
L 357.058595 27.8684 
L 358.440408 27.746618 
L 359.79639 27.630021 
L 361.127491 27.518495 
L 362.434607 27.411926 
L 363.718587 27.310203 
L 364.980236 27.213211 
L 366.220317 27.120839 
L 367.439555 27.032972 
L 368.63864 26.949499 
L 369.818226 26.870307 
L 370.978939 26.795282 
L 372.121371 26.724313 
L 373.246091 26.657287 
L 374.353639 26.594091 
L 375.444531 26.534613 
L 376.519261 26.478739 
L 377.578302 26.426357 
L 378.622104 26.377355 
L 379.651099 26.331619 
L 380.665703 26.289038 
L 381.666311 26.249498 
L 382.653306 26.212887 
L 383.627051 26.179093 
L 384.587899 26.148001 
L 385.536187 26.119501 
L 386.472238 26.093479 
L 387.396365 26.069823 
L 388.308867 26.04842 
L 389.210034 26.029157 
L 390.100143 26.011922 
L 390.979462 25.996601 
L 391.848251 25.983083 
L 392.706758 25.971255 
L 393.555223 25.961004 
L 394.39388 25.952218 
L 395.222951 25.944783 
L 396.042654 25.938587 
L 396.853199 25.933518 
L 397.654787 25.929463 
L 398.447614 25.926308 
L 399.23187 25.923943 
L 400.007738 25.922253 
L 400.775396 25.921126 
L 401.535015 25.920451 
L 402.286762 25.920113 
L 403.030799 25.92 
L 403.767282 25.92 
L 404.496364 25.92 
" clip-path="url(#p9cdbe9deee)" style="fill: none; stroke-dasharray: 1,1.65; stroke-dashoffset: 0; stroke: #ff7f0e"/>
   </g>
   <g id="line2d_53">
    <path d="M 70.423636 139.03722 
L 120.706592 104.742715 
L 150.120236 91.607962 
L 170.989548 84.097133 
L 187.177044 78.818015 
L 200.403192 74.707364 
L 211.58574 71.320794 
L 221.272504 68.432835 
L 229.816835 65.915384 
L 237.46 63.690103 
L 244.374084 61.705951 
L 250.686147 59.927481 
L 256.492683 58.328449 
L 261.868696 56.888258 
L 266.873644 55.589957 
L 271.55546 54.419105 
L 275.95335 53.363096 
L 280.099791 52.410764 
L 284.021988 51.552119 
L 287.742956 50.778178 
L 291.282339 50.080833 
L 294.657039 49.452758 
L 297.881702 48.887319 
L 300.969103 48.378514 
L 303.930452 47.920905 
L 306.775639 47.509568 
L 309.513435 47.140041 
L 312.151652 46.808284 
L 314.69728 46.510637 
L 317.156599 46.243785 
L 319.535271 46.004725 
L 321.838415 45.790736 
L 324.070683 45.599358 
L 326.236306 45.428357 
L 328.339148 45.275716 
L 330.382747 45.139603 
L 332.37035 45.018365 
L 334.304944 44.910502 
L 336.189283 44.814657 
L 338.025912 44.729602 
L 339.817187 44.654229 
L 341.565295 44.587532 
L 343.272267 44.528603 
L 344.939995 44.476624 
L 346.570243 44.430853 
L 348.164658 44.390622 
L 349.724782 44.355327 
L 351.252059 44.324426 
L 352.747843 44.297429 
L 354.213408 44.273894 
L 355.649949 44.253427 
L 357.058595 44.235671 
L 358.440408 44.220308 
L 359.79639 44.207051 
L 361.127491 44.195644 
L 362.434607 44.185861 
L 363.718587 44.177496 
L 364.980236 44.170368 
L 366.220317 44.164316 
L 367.439555 44.159197 
L 368.63864 44.154886 
L 369.818226 44.151269 
L 370.978939 44.148249 
L 372.121371 44.14574 
L 373.246091 44.143665 
L 374.353639 44.14196 
L 375.444531 44.140565 
L 376.519261 44.139433 
L 377.578302 44.138519 
L 378.622104 44.137787 
L 379.651099 44.137205 
L 380.665703 44.136747 
L 381.666311 44.136389 
L 382.653306 44.136112 
L 383.627051 44.1359 
L 384.587899 44.13574 
L 385.536187 44.13562 
L 386.472238 44.135532 
L 387.396365 44.135468 
L 388.308867 44.135423 
L 389.210034 44.135392 
L 390.100143 44.13537 
L 390.979462 44.135356 
L 391.848251 44.135346 
L 392.706758 44.135341 
L 393.555223 44.135337 
L 394.39388 44.135335 
L 395.222951 44.135334 
L 396.042654 44.135334 
L 396.853199 44.135333 
L 397.654787 44.135333 
L 398.447614 44.135333 
L 399.23187 44.135333 
L 400.007738 44.135333 
L 400.775396 44.135333 
L 401.535015 44.135333 
L 402.286762 44.135333 
L 403.030799 44.135333 
L 403.767282 44.135333 
L 404.496364 44.135333 
" clip-path="url(#p9cdbe9deee)" style="fill: none; stroke: #2ca02c; stroke-width: 2; stroke-linecap: square"/>
   </g>
   <g id="line2d_54">
    <path d="M 70.423636 205.350141 
L 120.706592 169.316164 
L 150.120236 152.658259 
L 170.989548 141.564138 
L 187.177044 133.515531 
L 200.403192 126.570696 
L 211.58574 121.501918 
L 221.272504 116.192991 
L 229.816835 111.723492 
L 237.46 108.020201 
L 244.374084 104.90993 
L 250.686147 101.790971 
L 256.492683 98.789885 
L 261.868696 97.219293 
L 266.873644 95.746792 
L 271.55546 94.399352 
L 275.95335 93.156267 
L 280.099791 91.796693 
L 284.021988 90.569306 
L 287.742956 89.462702 
L 291.282339 88.466336 
L 294.657039 87.567215 
L 297.881702 86.75986 
L 300.969103 86.036456 
L 303.930452 85.419252 
L 306.775639 84.938084 
L 309.513435 84.500797 
L 312.151652 84.103595 
L 314.69728 83.743015 
L 317.156599 83.41589 
L 319.535271 83.078166 
L 321.838415 82.775631 
L 324.070683 82.546806 
L 326.236306 82.339711 
L 328.339148 82.151471 
L 330.382747 81.980631 
L 332.37035 81.825827 
L 334.304944 81.685782 
L 336.189283 81.559304 
L 338.025912 81.445277 
L 339.817187 81.342661 
L 341.565295 81.250489 
L 343.272267 81.167857 
L 344.939995 81.093928 
L 346.570243 81.027924 
L 348.164658 80.969124 
L 349.724782 80.916859 
L 351.252059 80.870513 
L 352.747843 80.829516 
L 354.213408 80.793344 
L 355.649949 80.761513 
L 357.058595 80.73358 
L 358.440408 80.70914 
L 359.79639 80.68782 
L 361.127491 80.669281 
L 362.434607 80.653215 
L 363.718587 80.639339 
L 364.980236 80.6274 
L 366.220317 80.617166 
L 367.439555 80.608431 
L 368.63864 80.601005 
L 369.818226 80.594722 
L 370.978939 80.589431 
L 372.121371 80.584998 
L 373.246091 80.581304 
L 374.353639 80.578243 
L 375.444531 80.575723 
L 376.519261 80.57366 
L 377.578302 80.571985 
L 378.622104 80.570633 
L 379.651099 80.569552 
L 380.665703 80.568695 
L 381.666311 80.568021 
L 382.653306 80.567497 
L 383.627051 80.567094 
L 384.587899 80.566788 
L 385.536187 80.566558 
L 386.472238 80.566388 
L 387.396365 80.566265 
L 388.308867 80.566176 
L 389.210034 80.566115 
L 390.100143 80.566072 
L 390.979462 80.566044 
L 391.848251 80.566026 
L 392.706758 80.566015 
L 393.555223 80.566008 
L 394.39388 80.566004 
L 395.222951 80.566002 
L 396.042654 80.566001 
L 396.853199 80.566 
L 397.654787 80.566 
L 398.447614 80.566 
L 399.23187 80.566 
L 400.007738 80.566 
L 400.775396 80.566 
L 401.535015 80.566 
L 402.286762 80.566 
L 403.030799 80.566 
L 403.767282 80.566 
L 404.496364 80.566 
" clip-path="url(#p9cdbe9deee)" style="fill: none; stroke-dasharray: 3.7,1.6; stroke-dashoffset: 0; stroke: #2ca02c"/>
   </g>
   <g id="line2d_55">
    <path d="M 70.423636 82.168949 
L 120.706592 51.952839 
L 150.120236 44.126702 
L 170.989548 39.834304 
L 187.177044 37.101349 
L 200.403192 34.873963 
L 211.58574 33.251151 
L 221.272504 32.013108 
L 229.816835 31.034124 
L 237.46 30.234562 
L 244.374084 29.575419 
L 250.686147 29.022924 
L 256.492683 28.555036 
L 261.868696 28.156473 
L 266.873644 27.815978 
L 271.55546 27.524798 
L 275.95335 27.275841 
L 280.099791 27.06319 
L 284.021988 26.881812 
L 287.742956 26.72738 
L 291.282339 26.596149 
L 294.657039 26.48487 
L 297.881702 26.390718 
L 300.969103 26.311243 
L 303.930452 26.244318 
L 306.775639 26.188103 
L 309.513435 26.141003 
L 312.151652 26.101646 
L 314.69728 26.068849 
L 317.156599 26.041595 
L 319.535271 26.019013 
L 321.838415 26.000358 
L 324.070683 25.984996 
L 326.236306 25.972385 
L 328.339148 25.962066 
L 330.382747 25.953653 
L 332.37035 25.946817 
L 334.304944 25.941284 
L 336.189283 25.936821 
L 338.025912 25.933236 
L 339.817187 25.930368 
L 341.565295 25.928084 
L 343.272267 25.926272 
L 344.939995 25.924841 
L 346.570243 25.923718 
L 348.164658 25.922839 
L 349.724782 25.922155 
L 351.252059 25.921627 
L 352.747843 25.92122 
L 354.213408 25.920909 
L 355.649949 25.920673 
L 357.058595 25.920494 
L 358.440408 25.92036 
L 359.79639 25.920261 
L 361.127491 25.920187 
L 362.434607 25.920133 
L 363.718587 25.920094 
L 364.980236 25.920065 
L 366.220317 25.920045 
L 367.439555 25.920031 
L 368.63864 25.920021 
L 369.818226 25.920014 
L 370.978939 25.920009 
L 372.121371 25.920006 
L 373.246091 25.920004 
L 374.353639 25.920002 
L 375.444531 25.920001 
L 376.519261 25.920001 
L 377.578302 25.920001 
L 378.622104 25.92 
L 379.651099 25.92 
L 380.665703 25.92 
L 381.666311 25.92 
L 382.653306 25.92 
L 383.627051 25.92 
L 384.587899 25.92 
L 385.536187 25.92 
L 386.472238 25.92 
L 387.396365 25.92 
L 388.308867 25.92 
L 389.210034 25.92 
L 390.100143 25.92 
L 390.979462 25.92 
L 391.848251 25.92 
L 392.706758 25.92 
L 393.555223 25.92 
L 394.39388 25.92 
L 395.222951 25.92 
L 396.042654 25.92 
L 396.853199 25.92 
L 397.654787 25.92 
L 398.447614 25.92 
L 399.23187 25.92 
L 400.007738 25.92 
L 400.775396 25.92 
L 401.535015 25.92 
L 402.286762 25.92 
L 403.030799 25.92 
L 403.767282 25.92 
L 404.496364 25.92 
" clip-path="url(#p9cdbe9deee)" style="fill: none; stroke-dasharray: 1,1.65; stroke-dashoffset: 0; stroke: #2ca02c"/>
   </g>
   <g id="patch_3">
    <path d="M 53.72 244.504 
L 53.72 25.92 
" style="fill: none; stroke: #000000; stroke-width: 0.8; stroke-linejoin: miter; stroke-linecap: square"/>
   </g>
   <g id="patch_4">
    <path d="M 421.2 244.504 
L 421.2 25.92 
" style="fill: none; stroke: #000000; stroke-width: 0.8; stroke-linejoin: miter; stroke-linecap: square"/>
   </g>
   <g id="patch_5">
    <path d="M 53.72 244.504 
L 421.2 244.504 
" style="fill: none; stroke: #000000; stroke-width: 0.8; stroke-linejoin: miter; stroke-linecap: square"/>
   </g>
   <g id="patch_6">
    <path d="M 53.72 25.92 
L 421.2 25.92 
" style="fill: none; stroke: #000000; stroke-width: 0.8; stroke-linejoin: miter; stroke-linecap: square"/>
   </g>
   <g id="text_15">
    <!-- deepseek-coder-7b-instruct-v1.5 - pass@k -->
    <g transform="translate(110.640625 19.92) scale(0.12 -0.12)">
     <defs>
      <path id="DejaVuSans-64" d="M 2906 2969 
L 2906 4863 
L 3481 4863 
L 3481 0 
L 2906 0 
L 2906 525 
Q 2725 213 2448 61 
Q 2172 -91 1784 -91 
Q 1150 -91 751 415 
Q 353 922 353 1747 
Q 353 2572 751 3078 
Q 1150 3584 1784 3584 
Q 2172 3584 2448 3432 
Q 2725 3281 2906 2969 
z
M 947 1747 
Q 947 1113 1208 752 
Q 1469 391 1925 391 
Q 2381 391 2643 752 
Q 2906 1113 2906 1747 
Q 2906 2381 2643 2742 
Q 2381 3103 1925 3103 
Q 1469 3103 1208 2742 
Q 947 2381 947 1747 
z
" transform="scale(0.015625)"/>
      <path id="DejaVuSans-65" d="M 3597 1894 
L 3597 1613 
L 953 1613 
Q 991 1019 1311 708 
Q 1631 397 2203 397 
Q 2534 397 2845 478 
Q 3156 559 3463 722 
L 3463 178 
Q 3153 47 2828 -22 
Q 2503 -91 2169 -91 
Q 1331 -91 842 396 
Q 353 884 353 1716 
Q 353 2575 817 3079 
Q 1281 3584 2069 3584 
Q 2775 3584 3186 3129 
Q 3597 2675 3597 1894 
z
M 3022 2063 
Q 3016 2534 2758 2815 
Q 2500 3097 2075 3097 
Q 1594 3097 1305 2825 
Q 1016 2553 972 2059 
L 3022 2063 
z
" transform="scale(0.015625)"/>
      <path id="DejaVuSans-2d" d="M 313 2009 
L 1997 2009 
L 1997 1497 
L 313 1497 
L 313 2009 
z
" transform="scale(0.015625)"/>
      <path id="DejaVuSans-63" d="M 3122 3366 
L 3122 2828 
Q 2878 2963 2633 3030 
Q 2388 3097 2138 3097 
Q 1578 3097 1268 2742 
Q 959 2388 959 1747 
Q 959 1106 1268 751 
Q 1578 397 2138 397 
Q 2388 397 2633 464 
Q 2878 531 3122 666 
L 3122 134 
Q 2881 22 2623 -34 
Q 2366 -91 2075 -91 
Q 1284 -91 818 406 
Q 353 903 353 1747 
Q 353 2603 823 3093 
Q 1294 3584 2113 3584 
Q 2378 3584 2631 3529 
Q 2884 3475 3122 3366 
z
" transform="scale(0.015625)"/>
      <path id="DejaVuSans-6f" d="M 1959 3097 
Q 1497 3097 1228 2736 
Q 959 2375 959 1747 
Q 959 1119 1226 758 
Q 1494 397 1959 397 
Q 2419 397 2687 759 
Q 2956 1122 2956 1747 
Q 2956 2369 2687 2733 
Q 2419 3097 1959 3097 
z
M 1959 3584 
Q 2709 3584 3137 3096 
Q 3566 2609 3566 1747 
Q 3566 888 3137 398 
Q 2709 -91 1959 -91 
Q 1206 -91 779 398 
Q 353 888 353 1747 
Q 353 2609 779 3096 
Q 1206 3584 1959 3584 
z
" transform="scale(0.015625)"/>
      <path id="DejaVuSans-72" d="M 2631 2963 
Q 2534 3019 2420 3045 
Q 2306 3072 2169 3072 
Q 1681 3072 1420 2755 
Q 1159 2438 1159 1844 
L 1159 0 
L 581 0 
L 581 3500 
L 1159 3500 
L 1159 2956 
Q 1341 3275 1631 3429 
Q 1922 3584 2338 3584 
Q 2397 3584 2469 3576 
Q 2541 3569 2628 3553 
L 2631 2963 
z
" transform="scale(0.015625)"/>
      <path id="DejaVuSans-62" d="M 3116 1747 
Q 3116 2381 2855 2742 
Q 2594 3103 2138 3103 
Q 1681 3103 1420 2742 
Q 1159 2381 1159 1747 
Q 1159 1113 1420 752 
Q 1681 391 2138 391 
Q 2594 391 2855 752 
Q 3116 1113 3116 1747 
z
M 1159 2969 
Q 1341 3281 1617 3432 
Q 1894 3584 2278 3584 
Q 2916 3584 3314 3078 
Q 3713 2572 3713 1747 
Q 3713 922 3314 415 
Q 2916 -91 2278 -91 
Q 1894 -91 1617 61 
Q 1341 213 1159 525 
L 1159 0 
L 581 0 
L 581 4863 
L 1159 4863 
L 1159 2969 
z
" transform="scale(0.015625)"/>
      <path id="DejaVuSans-69" d="M 603 3500 
L 1178 3500 
L 1178 0 
L 603 0 
L 603 3500 
z
M 603 4863 
L 1178 4863 
L 1178 4134 
L 603 4134 
L 603 4863 
z
" transform="scale(0.015625)"/>
      <path id="DejaVuSans-6e" d="M 3513 2113 
L 3513 0 
L 2938 0 
L 2938 2094 
Q 2938 2591 2744 2837 
Q 2550 3084 2163 3084 
Q 1697 3084 1428 2787 
Q 1159 2491 1159 1978 
L 1159 0 
L 581 0 
L 581 3500 
L 1159 3500 
L 1159 2956 
Q 1366 3272 1645 3428 
Q 1925 3584 2291 3584 
Q 2894 3584 3203 3211 
Q 3513 2838 3513 2113 
z
" transform="scale(0.015625)"/>
      <path id="DejaVuSans-74" d="M 1172 4494 
L 1172 3500 
L 2356 3500 
L 2356 3053 
L 1172 3053 
L 1172 1153 
Q 1172 725 1289 603 
Q 1406 481 1766 481 
L 2356 481 
L 2356 0 
L 1766 0 
Q 1100 0 847 248 
Q 594 497 594 1153 
L 594 3053 
L 172 3053 
L 172 3500 
L 594 3500 
L 594 4494 
L 1172 4494 
z
" transform="scale(0.015625)"/>
      <path id="DejaVuSans-75" d="M 544 1381 
L 544 3500 
L 1119 3500 
L 1119 1403 
Q 1119 906 1312 657 
Q 1506 409 1894 409 
Q 2359 409 2629 706 
Q 2900 1003 2900 1516 
L 2900 3500 
L 3475 3500 
L 3475 0 
L 2900 0 
L 2900 538 
Q 2691 219 2414 64 
Q 2138 -91 1772 -91 
Q 1169 -91 856 284 
Q 544 659 544 1381 
z
M 1991 3584 
L 1991 3584 
z
" transform="scale(0.015625)"/>
      <path id="DejaVuSans-76" d="M 191 3500 
L 800 3500 
L 1894 563 
L 2988 3500 
L 3597 3500 
L 2284 0 
L 1503 0 
L 191 3500 
z
" transform="scale(0.015625)"/>
      <path id="DejaVuSans-20" transform="scale(0.015625)"/>
     </defs>
     <use xlink:href="#DejaVuSans-64"/>
     <use xlink:href="#DejaVuSans-65" x="63.476562"/>
     <use xlink:href="#DejaVuSans-65" x="125"/>
     <use xlink:href="#DejaVuSans-70" x="186.523438"/>
     <use xlink:href="#DejaVuSans-73" x="250"/>
     <use xlink:href="#DejaVuSans-65" x="302.099609"/>
     <use xlink:href="#DejaVuSans-65" x="363.623047"/>
     <use xlink:href="#DejaVuSans-6b" x="425.146484"/>
     <use xlink:href="#DejaVuSans-2d" x="483.056641"/>
     <use xlink:href="#DejaVuSans-63" x="519.140625"/>
     <use xlink:href="#DejaVuSans-6f" x="574.121094"/>
     <use xlink:href="#DejaVuSans-64" x="635.302734"/>
     <use xlink:href="#DejaVuSans-65" x="698.779297"/>
     <use xlink:href="#DejaVuSans-72" x="760.302734"/>
     <use xlink:href="#DejaVuSans-2d" x="795.041016"/>
     <use xlink:href="#DejaVuSans-37" x="831.125"/>
     <use xlink:href="#DejaVuSans-62" x="894.748047"/>
     <use xlink:href="#DejaVuSans-2d" x="958.224609"/>
     <use xlink:href="#DejaVuSans-69" x="994.308594"/>
     <use xlink:href="#DejaVuSans-6e" x="1022.091797"/>
     <use xlink:href="#DejaVuSans-73" x="1085.470703"/>
     <use xlink:href="#DejaVuSans-74" x="1137.570312"/>
     <use xlink:href="#DejaVuSans-72" x="1176.779297"/>
     <use xlink:href="#DejaVuSans-75" x="1217.892578"/>
     <use xlink:href="#DejaVuSans-63" x="1281.271484"/>
     <use xlink:href="#DejaVuSans-74" x="1336.251953"/>
     <use xlink:href="#DejaVuSans-2d" x="1375.460938"/>
     <use xlink:href="#DejaVuSans-76" x="1408.919922"/>
     <use xlink:href="#DejaVuSans-31" x="1468.099609"/>
     <use xlink:href="#DejaVuSans-2e" x="1531.722656"/>
     <use xlink:href="#DejaVuSans-35" x="1563.509766"/>
     <use xlink:href="#DejaVuSans-20" x="1627.132812"/>
     <use xlink:href="#DejaVuSans-2d" x="1658.919922"/>
     <use xlink:href="#DejaVuSans-20" x="1695.003906"/>
     <use xlink:href="#DejaVuSans-70" x="1726.791016"/>
     <use xlink:href="#DejaVuSans-61" x="1790.267578"/>
     <use xlink:href="#DejaVuSans-73" x="1851.546875"/>
     <use xlink:href="#DejaVuSans-73" x="1903.646484"/>
     <use xlink:href="#DejaVuSans-40" x="1955.746094"/>
     <use xlink:href="#DejaVuSans-6b" x="2055.746094"/>
    </g>
   </g>
   <g id="legend_1">
    <g id="patch_7">
     <path d="M 336.259375 239.504 
L 414.2 239.504 
Q 416.2 239.504 416.2 237.504 
L 416.2 165.113375 
Q 416.2 163.113375 414.2 163.113375 
L 336.259375 163.113375 
Q 334.259375 163.113375 334.259375 165.113375 
L 334.259375 237.504 
Q 334.259375 239.504 336.259375 239.504 
z
" style="fill: #ffffff; opacity: 0.8; stroke: #cccccc; stroke-linejoin: miter"/>
    </g>
    <g id="line2d_56">
     <path d="M 338.259375 171.211813 
L 348.259375 171.211813 
L 358.259375 171.211813 
" style="fill: none; stroke-dasharray: 3.7,1.6; stroke-dashoffset: 0; stroke: #000000"/>
    </g>
    <g id="text_16">
     <!-- CI lower -->
     <g transform="translate(366.259375 174.711813) scale(0.1 -0.1)">
      <defs>
       <path id="DejaVuSans-43" d="M 4122 4306 
L 4122 3641 
Q 3803 3938 3442 4084 
Q 3081 4231 2675 4231 
Q 1875 4231 1450 3742 
Q 1025 3253 1025 2328 
Q 1025 1406 1450 917 
Q 1875 428 2675 428 
Q 3081 428 3442 575 
Q 3803 722 4122 1019 
L 4122 359 
Q 3791 134 3420 21 
Q 3050 -91 2638 -91 
Q 1578 -91 968 557 
Q 359 1206 359 2328 
Q 359 3453 968 4101 
Q 1578 4750 2638 4750 
Q 3056 4750 3426 4639 
Q 3797 4528 4122 4306 
z
" transform="scale(0.015625)"/>
       <path id="DejaVuSans-49" d="M 628 4666 
L 1259 4666 
L 1259 0 
L 628 0 
L 628 4666 
z
" transform="scale(0.015625)"/>
       <path id="DejaVuSans-6c" d="M 603 4863 
L 1178 4863 
L 1178 0 
L 603 0 
L 603 4863 
z
" transform="scale(0.015625)"/>
       <path id="DejaVuSans-77" d="M 269 3500 
L 844 3500 
L 1563 769 
L 2278 3500 
L 2956 3500 
L 3675 769 
L 4391 3500 
L 4966 3500 
L 4050 0 
L 3372 0 
L 2619 2869 
L 1863 0 
L 1184 0 
L 269 3500 
z
" transform="scale(0.015625)"/>
      </defs>
      <use xlink:href="#DejaVuSans-43"/>
      <use xlink:href="#DejaVuSans-49" x="69.824219"/>
      <use xlink:href="#DejaVuSans-20" x="99.316406"/>
      <use xlink:href="#DejaVuSans-6c" x="131.103516"/>
      <use xlink:href="#DejaVuSans-6f" x="158.886719"/>
      <use xlink:href="#DejaVuSans-77" x="220.068359"/>
      <use xlink:href="#DejaVuSans-65" x="301.855469"/>
      <use xlink:href="#DejaVuSans-72" x="363.378906"/>
     </g>
    </g>
    <g id="line2d_57">
     <path d="M 338.259375 185.889938 
L 348.259375 185.889938 
L 358.259375 185.889938 
" style="fill: none; stroke-dasharray: 1,1.65; stroke-dashoffset: 0; stroke: #000000"/>
    </g>
    <g id="text_17">
     <!-- CI upper -->
     <g transform="translate(366.259375 189.389938) scale(0.1 -0.1)">
      <use xlink:href="#DejaVuSans-43"/>
      <use xlink:href="#DejaVuSans-49" x="69.824219"/>
      <use xlink:href="#DejaVuSans-20" x="99.316406"/>
      <use xlink:href="#DejaVuSans-75" x="131.103516"/>
      <use xlink:href="#DejaVuSans-70" x="194.482422"/>
      <use xlink:href="#DejaVuSans-70" x="257.958984"/>
      <use xlink:href="#DejaVuSans-65" x="321.435547"/>
      <use xlink:href="#DejaVuSans-72" x="382.958984"/>
     </g>
    </g>
    <g id="line2d_58">
     <path d="M 338.259375 200.568062 
L 348.259375 200.568062 
L 358.259375 200.568062 
" style="fill: none; stroke: #1f77b4; stroke-width: 2; stroke-linecap: square"/>
    </g>
    <g id="text_18">
     <!-- baseline -->
     <g transform="translate(366.259375 204.068062) scale(0.1 -0.1)">
      <use xlink:href="#DejaVuSans-62"/>
      <use xlink:href="#DejaVuSans-61" x="63.476562"/>
      <use xlink:href="#DejaVuSans-73" x="124.755859"/>
      <use xlink:href="#DejaVuSans-65" x="176.855469"/>
      <use xlink:href="#DejaVuSans-6c" x="238.378906"/>
      <use xlink:href="#DejaVuSans-69" x="266.162109"/>
      <use xlink:href="#DejaVuSans-6e" x="293.945312"/>
      <use xlink:href="#DejaVuSans-65" x="357.324219"/>
     </g>
    </g>
    <g id="line2d_59">
     <path d="M 338.259375 215.246188 
L 348.259375 215.246188 
L 358.259375 215.246188 
" style="fill: none; stroke: #ff7f0e; stroke-width: 2; stroke-linecap: square"/>
    </g>
    <g id="text_19">
     <!-- CoT -->
     <g transform="translate(366.259375 218.746188) scale(0.1 -0.1)">
      <defs>
       <path id="DejaVuSans-54" d="M -19 4666 
L 3928 4666 
L 3928 4134 
L 2272 4134 
L 2272 0 
L 1638 0 
L 1638 4134 
L -19 4134 
L -19 4666 
z
" transform="scale(0.015625)"/>
      </defs>
      <use xlink:href="#DejaVuSans-43"/>
      <use xlink:href="#DejaVuSans-6f" x="69.824219"/>
      <use xlink:href="#DejaVuSans-54" x="131.005859"/>
     </g>
    </g>
    <g id="line2d_60">
     <path d="M 338.259375 229.924313 
L 348.259375 229.924313 
L 358.259375 229.924313 
" style="fill: none; stroke: #2ca02c; stroke-width: 2; stroke-linecap: square"/>
    </g>
    <g id="text_20">
     <!-- feedback -->
     <g transform="translate(366.259375 233.424313) scale(0.1 -0.1)">
      <defs>
       <path id="DejaVuSans-66" d="M 2375 4863 
L 2375 4384 
L 1825 4384 
Q 1516 4384 1395 4259 
Q 1275 4134 1275 3809 
L 1275 3500 
L 2222 3500 
L 2222 3053 
L 1275 3053 
L 1275 0 
L 697 0 
L 697 3053 
L 147 3053 
L 147 3500 
L 697 3500 
L 697 3744 
Q 697 4328 969 4595 
Q 1241 4863 1831 4863 
L 2375 4863 
z
" transform="scale(0.015625)"/>
      </defs>
      <use xlink:href="#DejaVuSans-66"/>
      <use xlink:href="#DejaVuSans-65" x="35.205078"/>
      <use xlink:href="#DejaVuSans-65" x="96.728516"/>
      <use xlink:href="#DejaVuSans-64" x="158.251953"/>
      <use xlink:href="#DejaVuSans-62" x="221.728516"/>
      <use xlink:href="#DejaVuSans-61" x="285.205078"/>
      <use xlink:href="#DejaVuSans-63" x="346.484375"/>
      <use xlink:href="#DejaVuSans-6b" x="401.464844"/>
     </g>
    </g>
   </g>
  </g>
 </g>
 <defs>
  <clipPath id="p9cdbe9deee">
   <rect x="53.72" y="25.92" width="367.48" height="218.584"/>
  </clipPath>
 </defs>
</svg>
