<?xml version="1.0" encoding="utf-8" standalone="no"?>
<!DOCTYPE svg PUBLIC "-//W3C//DTD SVG 1.1//EN"
  "http://www.w3.org/Graphics/SVG/1.1/DTD/svg11.dtd">
<svg xmlns:xlink="http://www.w3.org/1999/xlink" width="432pt" height="288pt" viewBox="0 0 432 288" xmlns="http://www.w3.org/2000/svg" version="1.1">
 <metadata>
  <rdf:RDF xmlns:dc="http://purl.org/dc/elements/1.1/" xmlns:cc="http://creativecommons.org/ns#" xmlns:rdf="http://www.w3.org/1999/02/22-rdf-syntax-ns#">
   <cc:Work>
    <dc:type rdf:resource="http://purl.org/dc/dcmitype/StillImage"/>
    <dc:date>2025-12-10T14:39:26.004550</dc:date>
    <dc:format>image/svg+xml</dc:format>
    <dc:creator>
     <cc:Agent>
      <dc:title>Matplotlib v3.9.0, https://matplotlib.org/</dc:title>
     </cc:Agent>
    </dc:creator>
   </cc:Work>
  </rdf:RDF>
 </metadata>
 <defs>
  <style type="text/css">*{stroke-linejoin: round; stroke-linecap: butt}</style>
 </defs>
 <g id="figure_1">
  <g id="patch_1">
   <path d="M 0 288 
L 432 288 
L 432 0 
L 0 0 
z
" style="fill: #ffffff"/>
  </g>
  <g id="axes_1">
   <g id="patch_2">
    <path d="M 53.72 244.504 
L 421.2 244.504 
L 421.2 25.92 
L 53.72 25.92 
z
" style="fill: #ffffff"/>
   </g>
   <g id="matplotlib.axis_1">
    <g id="xtick_1">
     <g id="line2d_1">
      <path d="M 70.423636 244.504 
L 70.423636 25.92 
" clip-path="url(#p588c089f8a)" style="fill: none; stroke-dasharray: 0.5,0.825; stroke-dashoffset: 0; stroke: #b0b0b0; stroke-opacity: 0.7; stroke-width: 0.5"/>
     </g>
     <g id="line2d_2">
      <defs>
       <path id="m8c6273f533" d="M 0 0 
L 0 3.5 
" style="stroke: #000000; stroke-width: 0.8"/>
      </defs>
      <g>
       <use xlink:href="#m8c6273f533" x="70.423636" y="244.504" style="stroke: #000000; stroke-width: 0.8"/>
      </g>
     </g>
     <g id="text_1">
      <!-- $\mathdefault{10^{0}}$ -->
      <g transform="translate(61.623636 259.102438) scale(0.1 -0.1)">
       <defs>
        <path id="DejaVuSans-31" d="M 794 531 
L 1825 531 
L 1825 4091 
L 703 3866 
L 703 4441 
L 1819 4666 
L 2450 4666 
L 2450 531 
L 3481 531 
L 3481 0 
L 794 0 
L 794 531 
z
" transform="scale(0.015625)"/>
        <path id="DejaVuSans-30" d="M 2034 4250 
Q 1547 4250 1301 3770 
Q 1056 3291 1056 2328 
Q 1056 1369 1301 889 
Q 1547 409 2034 409 
Q 2525 409 2770 889 
Q 3016 1369 3016 2328 
Q 3016 3291 2770 3770 
Q 2525 4250 2034 4250 
z
M 2034 4750 
Q 2819 4750 3233 4129 
Q 3647 3509 3647 2328 
Q 3647 1150 3233 529 
Q 2819 -91 2034 -91 
Q 1250 -91 836 529 
Q 422 1150 422 2328 
Q 422 3509 836 4129 
Q 1250 4750 2034 4750 
z
" transform="scale(0.015625)"/>
       </defs>
       <use xlink:href="#DejaVuSans-31" transform="translate(0 0.765625)"/>
       <use xlink:href="#DejaVuSans-30" transform="translate(63.623047 0.765625)"/>
       <use xlink:href="#DejaVuSans-30" transform="translate(128.203125 39.046875) scale(0.7)"/>
      </g>
     </g>
    </g>
    <g id="xtick_2">
     <g id="line2d_3">
      <path d="M 120.706592 244.504 
L 120.706592 25.92 
" clip-path="url(#p588c089f8a)" style="fill: none; stroke-dasharray: 0.5,0.825; stroke-dashoffset: 0; stroke: #b0b0b0; stroke-opacity: 0.7; stroke-width: 0.5"/>
     </g>
     <g id="line2d_4">
      <g>
       <use xlink:href="#m8c6273f533" x="120.706592" y="244.504" style="stroke: #000000; stroke-width: 0.8"/>
      </g>
     </g>
    </g>
    <g id="xtick_3">
     <g id="line2d_5">
      <path d="M 187.177044 244.504 
L 187.177044 25.92 
" clip-path="url(#p588c089f8a)" style="fill: none; stroke-dasharray: 0.5,0.825; stroke-dashoffset: 0; stroke: #b0b0b0; stroke-opacity: 0.7; stroke-width: 0.5"/>
     </g>
     <g id="line2d_6">
      <g>
       <use xlink:href="#m8c6273f533" x="187.177044" y="244.504" style="stroke: #000000; stroke-width: 0.8"/>
      </g>
     </g>
    </g>
    <g id="xtick_4">
     <g id="line2d_7">
      <path d="M 237.46 244.504 
L 237.46 25.92 
" clip-path="url(#p588c089f8a)" style="fill: none; stroke-dasharray: 0.5,0.825; stroke-dashoffset: 0; stroke: #b0b0b0; stroke-opacity: 0.7; stroke-width: 0.5"/>
     </g>
     <g id="line2d_8">
      <g>
       <use xlink:href="#m8c6273f533" x="237.46" y="244.504" style="stroke: #000000; stroke-width: 0.8"/>
      </g>
     </g>
     <g id="text_2">
      <!-- $\mathdefault{10^{1}}$ -->
      <g transform="translate(228.66 259.102438) scale(0.1 -0.1)">
       <use xlink:href="#DejaVuSans-31" transform="translate(0 0.684375)"/>
       <use xlink:href="#DejaVuSans-30" transform="translate(63.623047 0.684375)"/>
       <use xlink:href="#DejaVuSans-31" transform="translate(128.203125 38.965625) scale(0.7)"/>
      </g>
     </g>
    </g>
    <g id="xtick_5">
     <g id="line2d_9">
      <path d="M 287.742956 244.504 
L 287.742956 25.92 
" clip-path="url(#p588c089f8a)" style="fill: none; stroke-dasharray: 0.5,0.825; stroke-dashoffset: 0; stroke: #b0b0b0; stroke-opacity: 0.7; stroke-width: 0.5"/>
     </g>
     <g id="line2d_10">
      <g>
       <use xlink:href="#m8c6273f533" x="287.742956" y="244.504" style="stroke: #000000; stroke-width: 0.8"/>
      </g>
     </g>
    </g>
    <g id="xtick_6">
     <g id="line2d_11">
      <path d="M 354.213408 244.504 
L 354.213408 25.92 
" clip-path="url(#p588c089f8a)" style="fill: none; stroke-dasharray: 0.5,0.825; stroke-dashoffset: 0; stroke: #b0b0b0; stroke-opacity: 0.7; stroke-width: 0.5"/>
     </g>
     <g id="line2d_12">
      <g>
       <use xlink:href="#m8c6273f533" x="354.213408" y="244.504" style="stroke: #000000; stroke-width: 0.8"/>
      </g>
     </g>
    </g>
    <g id="xtick_7">
     <g id="line2d_13">
      <path d="M 404.496364 244.504 
L 404.496364 25.92 
" clip-path="url(#p588c089f8a)" style="fill: none; stroke-dasharray: 0.5,0.825; stroke-dashoffset: 0; stroke: #b0b0b0; stroke-opacity: 0.7; stroke-width: 0.5"/>
     </g>
     <g id="line2d_14">
      <g>
       <use xlink:href="#m8c6273f533" x="404.496364" y="244.504" style="stroke: #000000; stroke-width: 0.8"/>
      </g>
     </g>
     <g id="text_3">
      <!-- $\mathdefault{10^{2}}$ -->
      <g transform="translate(395.696364 259.102438) scale(0.1 -0.1)">
       <defs>
        <path id="DejaVuSans-32" d="M 1228 531 
L 3431 531 
L 3431 0 
L 469 0 
L 469 531 
Q 828 903 1448 1529 
Q 2069 2156 2228 2338 
Q 2531 2678 2651 2914 
Q 2772 3150 2772 3378 
Q 2772 3750 2511 3984 
Q 2250 4219 1831 4219 
Q 1534 4219 1204 4116 
Q 875 4013 500 3803 
L 500 4441 
Q 881 4594 1212 4672 
Q 1544 4750 1819 4750 
Q 2544 4750 2975 4387 
Q 3406 4025 3406 3419 
Q 3406 3131 3298 2873 
Q 3191 2616 2906 2266 
Q 2828 2175 2409 1742 
Q 1991 1309 1228 531 
z
" transform="scale(0.015625)"/>
       </defs>
       <use xlink:href="#DejaVuSans-31" transform="translate(0 0.765625)"/>
       <use xlink:href="#DejaVuSans-30" transform="translate(63.623047 0.765625)"/>
       <use xlink:href="#DejaVuSans-32" transform="translate(128.203125 39.046875) scale(0.7)"/>
      </g>
     </g>
    </g>
    <g id="xtick_8">
     <g id="line2d_15">
      <defs>
       <path id="m6a84a51103" d="M 0 0 
L 0 2 
" style="stroke: #000000; stroke-width: 0.6"/>
      </defs>
      <g>
       <use xlink:href="#m6a84a51103" x="54.23614" y="244.504" style="stroke: #000000; stroke-width: 0.6"/>
      </g>
     </g>
    </g>
    <g id="xtick_9">
     <g id="line2d_16">
      <g>
       <use xlink:href="#m6a84a51103" x="62.780472" y="244.504" style="stroke: #000000; stroke-width: 0.6"/>
      </g>
     </g>
    </g>
    <g id="xtick_10">
     <g id="line2d_17">
      <g>
       <use xlink:href="#m6a84a51103" x="150.120236" y="244.504" style="stroke: #000000; stroke-width: 0.6"/>
      </g>
     </g>
    </g>
    <g id="xtick_11">
     <g id="line2d_18">
      <g>
       <use xlink:href="#m6a84a51103" x="170.989548" y="244.504" style="stroke: #000000; stroke-width: 0.6"/>
      </g>
     </g>
    </g>
    <g id="xtick_12">
     <g id="line2d_19">
      <g>
       <use xlink:href="#m6a84a51103" x="200.403192" y="244.504" style="stroke: #000000; stroke-width: 0.6"/>
      </g>
     </g>
    </g>
    <g id="xtick_13">
     <g id="line2d_20">
      <g>
       <use xlink:href="#m6a84a51103" x="211.58574" y="244.504" style="stroke: #000000; stroke-width: 0.6"/>
      </g>
     </g>
    </g>
    <g id="xtick_14">
     <g id="line2d_21">
      <g>
       <use xlink:href="#m6a84a51103" x="221.272504" y="244.504" style="stroke: #000000; stroke-width: 0.6"/>
      </g>
     </g>
    </g>
    <g id="xtick_15">
     <g id="line2d_22">
      <g>
       <use xlink:href="#m6a84a51103" x="229.816835" y="244.504" style="stroke: #000000; stroke-width: 0.6"/>
      </g>
     </g>
    </g>
    <g id="xtick_16">
     <g id="line2d_23">
      <g>
       <use xlink:href="#m6a84a51103" x="317.156599" y="244.504" style="stroke: #000000; stroke-width: 0.6"/>
      </g>
     </g>
    </g>
    <g id="xtick_17">
     <g id="line2d_24">
      <g>
       <use xlink:href="#m6a84a51103" x="338.025912" y="244.504" style="stroke: #000000; stroke-width: 0.6"/>
      </g>
     </g>
    </g>
    <g id="xtick_18">
     <g id="line2d_25">
      <g>
       <use xlink:href="#m6a84a51103" x="367.439555" y="244.504" style="stroke: #000000; stroke-width: 0.6"/>
      </g>
     </g>
    </g>
    <g id="xtick_19">
     <g id="line2d_26">
      <g>
       <use xlink:href="#m6a84a51103" x="378.622104" y="244.504" style="stroke: #000000; stroke-width: 0.6"/>
      </g>
     </g>
    </g>
    <g id="xtick_20">
     <g id="line2d_27">
      <g>
       <use xlink:href="#m6a84a51103" x="388.308867" y="244.504" style="stroke: #000000; stroke-width: 0.6"/>
      </g>
     </g>
    </g>
    <g id="xtick_21">
     <g id="line2d_28">
      <g>
       <use xlink:href="#m6a84a51103" x="396.853199" y="244.504" style="stroke: #000000; stroke-width: 0.6"/>
      </g>
     </g>
    </g>
    <g id="text_4">
     <!-- k -->
     <g transform="translate(234.564687 272.780563) scale(0.1 -0.1)">
      <defs>
       <path id="DejaVuSans-6b" d="M 581 4863 
L 1159 4863 
L 1159 1991 
L 2875 3500 
L 3609 3500 
L 1753 1863 
L 3688 0 
L 2938 0 
L 1159 1709 
L 1159 0 
L 581 0 
L 581 4863 
z
" transform="scale(0.015625)"/>
      </defs>
      <use xlink:href="#DejaVuSans-6b"/>
     </g>
    </g>
   </g>
   <g id="matplotlib.axis_2">
    <g id="ytick_1">
     <g id="line2d_29">
      <path d="M 53.72 244.504 
L 421.2 244.504 
" clip-path="url(#p588c089f8a)" style="fill: none; stroke-dasharray: 0.5,0.825; stroke-dashoffset: 0; stroke: #b0b0b0; stroke-opacity: 0.7; stroke-width: 0.5"/>
     </g>
     <g id="line2d_30">
      <defs>
       <path id="m987fa12e6d" d="M 0 0 
L -3.5 0 
" style="stroke: #000000; stroke-width: 0.8"/>
      </defs>
      <g>
       <use xlink:href="#m987fa12e6d" x="53.72" y="244.504" style="stroke: #000000; stroke-width: 0.8"/>
      </g>
     </g>
     <g id="text_5">
      <!-- 0.60 -->
      <g transform="translate(24.454375 248.303219) scale(0.1 -0.1)">
       <defs>
        <path id="DejaVuSans-2e" d="M 684 794 
L 1344 794 
L 1344 0 
L 684 0 
L 684 794 
z
" transform="scale(0.015625)"/>
        <path id="DejaVuSans-36" d="M 2113 2584 
Q 1688 2584 1439 2293 
Q 1191 2003 1191 1497 
Q 1191 994 1439 701 
Q 1688 409 2113 409 
Q 2538 409 2786 701 
Q 3034 994 3034 1497 
Q 3034 2003 2786 2293 
Q 2538 2584 2113 2584 
z
M 3366 4563 
L 3366 3988 
Q 3128 4100 2886 4159 
Q 2644 4219 2406 4219 
Q 1781 4219 1451 3797 
Q 1122 3375 1075 2522 
Q 1259 2794 1537 2939 
Q 1816 3084 2150 3084 
Q 2853 3084 3261 2657 
Q 3669 2231 3669 1497 
Q 3669 778 3244 343 
Q 2819 -91 2113 -91 
Q 1303 -91 875 529 
Q 447 1150 447 2328 
Q 447 3434 972 4092 
Q 1497 4750 2381 4750 
Q 2619 4750 2861 4703 
Q 3103 4656 3366 4563 
z
" transform="scale(0.015625)"/>
       </defs>
       <use xlink:href="#DejaVuSans-30"/>
       <use xlink:href="#DejaVuSans-2e" x="63.623047"/>
       <use xlink:href="#DejaVuSans-36" x="95.410156"/>
       <use xlink:href="#DejaVuSans-30" x="159.033203"/>
      </g>
     </g>
    </g>
    <g id="ytick_2">
     <g id="line2d_31">
      <path d="M 53.72 217.181 
L 421.2 217.181 
" clip-path="url(#p588c089f8a)" style="fill: none; stroke-dasharray: 0.5,0.825; stroke-dashoffset: 0; stroke: #b0b0b0; stroke-opacity: 0.7; stroke-width: 0.5"/>
     </g>
     <g id="line2d_32">
      <g>
       <use xlink:href="#m987fa12e6d" x="53.72" y="217.181" style="stroke: #000000; stroke-width: 0.8"/>
      </g>
     </g>
     <g id="text_6">
      <!-- 0.65 -->
      <g transform="translate(24.454375 220.980219) scale(0.1 -0.1)">
       <defs>
        <path id="DejaVuSans-35" d="M 691 4666 
L 3169 4666 
L 3169 4134 
L 1269 4134 
L 1269 2991 
Q 1406 3038 1543 3061 
Q 1681 3084 1819 3084 
Q 2600 3084 3056 2656 
Q 3513 2228 3513 1497 
Q 3513 744 3044 326 
Q 2575 -91 1722 -91 
Q 1428 -91 1123 -41 
Q 819 9 494 109 
L 494 744 
Q 775 591 1075 516 
Q 1375 441 1709 441 
Q 2250 441 2565 725 
Q 2881 1009 2881 1497 
Q 2881 1984 2565 2268 
Q 2250 2553 1709 2553 
Q 1456 2553 1204 2497 
Q 953 2441 691 2322 
L 691 4666 
z
" transform="scale(0.015625)"/>
       </defs>
       <use xlink:href="#DejaVuSans-30"/>
       <use xlink:href="#DejaVuSans-2e" x="63.623047"/>
       <use xlink:href="#DejaVuSans-36" x="95.410156"/>
       <use xlink:href="#DejaVuSans-35" x="159.033203"/>
      </g>
     </g>
    </g>
    <g id="ytick_3">
     <g id="line2d_33">
      <path d="M 53.72 189.858 
L 421.2 189.858 
" clip-path="url(#p588c089f8a)" style="fill: none; stroke-dasharray: 0.5,0.825; stroke-dashoffset: 0; stroke: #b0b0b0; stroke-opacity: 0.7; stroke-width: 0.5"/>
     </g>
     <g id="line2d_34">
      <g>
       <use xlink:href="#m987fa12e6d" x="53.72" y="189.858" style="stroke: #000000; stroke-width: 0.8"/>
      </g>
     </g>
     <g id="text_7">
      <!-- 0.70 -->
      <g transform="translate(24.454375 193.657219) scale(0.1 -0.1)">
       <defs>
        <path id="DejaVuSans-37" d="M 525 4666 
L 3525 4666 
L 3525 4397 
L 1831 0 
L 1172 0 
L 2766 4134 
L 525 4134 
L 525 4666 
z
" transform="scale(0.015625)"/>
       </defs>
       <use xlink:href="#DejaVuSans-30"/>
       <use xlink:href="#DejaVuSans-2e" x="63.623047"/>
       <use xlink:href="#DejaVuSans-37" x="95.410156"/>
       <use xlink:href="#DejaVuSans-30" x="159.033203"/>
      </g>
     </g>
    </g>
    <g id="ytick_4">
     <g id="line2d_35">
      <path d="M 53.72 162.535 
L 421.2 162.535 
" clip-path="url(#p588c089f8a)" style="fill: none; stroke-dasharray: 0.5,0.825; stroke-dashoffset: 0; stroke: #b0b0b0; stroke-opacity: 0.7; stroke-width: 0.5"/>
     </g>
     <g id="line2d_36">
      <g>
       <use xlink:href="#m987fa12e6d" x="53.72" y="162.535" style="stroke: #000000; stroke-width: 0.8"/>
      </g>
     </g>
     <g id="text_8">
      <!-- 0.75 -->
      <g transform="translate(24.454375 166.334219) scale(0.1 -0.1)">
       <use xlink:href="#DejaVuSans-30"/>
       <use xlink:href="#DejaVuSans-2e" x="63.623047"/>
       <use xlink:href="#DejaVuSans-37" x="95.410156"/>
       <use xlink:href="#DejaVuSans-35" x="159.033203"/>
      </g>
     </g>
    </g>
    <g id="ytick_5">
     <g id="line2d_37">
      <path d="M 53.72 135.212 
L 421.2 135.212 
" clip-path="url(#p588c089f8a)" style="fill: none; stroke-dasharray: 0.5,0.825; stroke-dashoffset: 0; stroke: #b0b0b0; stroke-opacity: 0.7; stroke-width: 0.5"/>
     </g>
     <g id="line2d_38">
      <g>
       <use xlink:href="#m987fa12e6d" x="53.72" y="135.212" style="stroke: #000000; stroke-width: 0.8"/>
      </g>
     </g>
     <g id="text_9">
      <!-- 0.80 -->
      <g transform="translate(24.454375 139.011219) scale(0.1 -0.1)">
       <defs>
        <path id="DejaVuSans-38" d="M 2034 2216 
Q 1584 2216 1326 1975 
Q 1069 1734 1069 1313 
Q 1069 891 1326 650 
Q 1584 409 2034 409 
Q 2484 409 2743 651 
Q 3003 894 3003 1313 
Q 3003 1734 2745 1975 
Q 2488 2216 2034 2216 
z
M 1403 2484 
Q 997 2584 770 2862 
Q 544 3141 544 3541 
Q 544 4100 942 4425 
Q 1341 4750 2034 4750 
Q 2731 4750 3128 4425 
Q 3525 4100 3525 3541 
Q 3525 3141 3298 2862 
Q 3072 2584 2669 2484 
Q 3125 2378 3379 2068 
Q 3634 1759 3634 1313 
Q 3634 634 3220 271 
Q 2806 -91 2034 -91 
Q 1263 -91 848 271 
Q 434 634 434 1313 
Q 434 1759 690 2068 
Q 947 2378 1403 2484 
z
M 1172 3481 
Q 1172 3119 1398 2916 
Q 1625 2713 2034 2713 
Q 2441 2713 2670 2916 
Q 2900 3119 2900 3481 
Q 2900 3844 2670 4047 
Q 2441 4250 2034 4250 
Q 1625 4250 1398 4047 
Q 1172 3844 1172 3481 
z
" transform="scale(0.015625)"/>
       </defs>
       <use xlink:href="#DejaVuSans-30"/>
       <use xlink:href="#DejaVuSans-2e" x="63.623047"/>
       <use xlink:href="#DejaVuSans-38" x="95.410156"/>
       <use xlink:href="#DejaVuSans-30" x="159.033203"/>
      </g>
     </g>
    </g>
    <g id="ytick_6">
     <g id="line2d_39">
      <path d="M 53.72 107.889 
L 421.2 107.889 
" clip-path="url(#p588c089f8a)" style="fill: none; stroke-dasharray: 0.5,0.825; stroke-dashoffset: 0; stroke: #b0b0b0; stroke-opacity: 0.7; stroke-width: 0.5"/>
     </g>
     <g id="line2d_40">
      <g>
       <use xlink:href="#m987fa12e6d" x="53.72" y="107.889" style="stroke: #000000; stroke-width: 0.8"/>
      </g>
     </g>
     <g id="text_10">
      <!-- 0.85 -->
      <g transform="translate(24.454375 111.688219) scale(0.1 -0.1)">
       <use xlink:href="#DejaVuSans-30"/>
       <use xlink:href="#DejaVuSans-2e" x="63.623047"/>
       <use xlink:href="#DejaVuSans-38" x="95.410156"/>
       <use xlink:href="#DejaVuSans-35" x="159.033203"/>
      </g>
     </g>
    </g>
    <g id="ytick_7">
     <g id="line2d_41">
      <path d="M 53.72 80.566 
L 421.2 80.566 
" clip-path="url(#p588c089f8a)" style="fill: none; stroke-dasharray: 0.5,0.825; stroke-dashoffset: 0; stroke: #b0b0b0; stroke-opacity: 0.7; stroke-width: 0.5"/>
     </g>
     <g id="line2d_42">
      <g>
       <use xlink:href="#m987fa12e6d" x="53.72" y="80.566" style="stroke: #000000; stroke-width: 0.8"/>
      </g>
     </g>
     <g id="text_11">
      <!-- 0.90 -->
      <g transform="translate(24.454375 84.365219) scale(0.1 -0.1)">
       <defs>
        <path id="DejaVuSans-39" d="M 703 97 
L 703 672 
Q 941 559 1184 500 
Q 1428 441 1663 441 
Q 2288 441 2617 861 
Q 2947 1281 2994 2138 
Q 2813 1869 2534 1725 
Q 2256 1581 1919 1581 
Q 1219 1581 811 2004 
Q 403 2428 403 3163 
Q 403 3881 828 4315 
Q 1253 4750 1959 4750 
Q 2769 4750 3195 4129 
Q 3622 3509 3622 2328 
Q 3622 1225 3098 567 
Q 2575 -91 1691 -91 
Q 1453 -91 1209 -44 
Q 966 3 703 97 
z
M 1959 2075 
Q 2384 2075 2632 2365 
Q 2881 2656 2881 3163 
Q 2881 3666 2632 3958 
Q 2384 4250 1959 4250 
Q 1534 4250 1286 3958 
Q 1038 3666 1038 3163 
Q 1038 2656 1286 2365 
Q 1534 2075 1959 2075 
z
" transform="scale(0.015625)"/>
       </defs>
       <use xlink:href="#DejaVuSans-30"/>
       <use xlink:href="#DejaVuSans-2e" x="63.623047"/>
       <use xlink:href="#DejaVuSans-39" x="95.410156"/>
       <use xlink:href="#DejaVuSans-30" x="159.033203"/>
      </g>
     </g>
    </g>
    <g id="ytick_8">
     <g id="line2d_43">
      <path d="M 53.72 53.243 
L 421.2 53.243 
" clip-path="url(#p588c089f8a)" style="fill: none; stroke-dasharray: 0.5,0.825; stroke-dashoffset: 0; stroke: #b0b0b0; stroke-opacity: 0.7; stroke-width: 0.5"/>
     </g>
     <g id="line2d_44">
      <g>
       <use xlink:href="#m987fa12e6d" x="53.72" y="53.243" style="stroke: #000000; stroke-width: 0.8"/>
      </g>
     </g>
     <g id="text_12">
      <!-- 0.95 -->
      <g transform="translate(24.454375 57.042219) scale(0.1 -0.1)">
       <use xlink:href="#DejaVuSans-30"/>
       <use xlink:href="#DejaVuSans-2e" x="63.623047"/>
       <use xlink:href="#DejaVuSans-39" x="95.410156"/>
       <use xlink:href="#DejaVuSans-35" x="159.033203"/>
      </g>
     </g>
    </g>
    <g id="ytick_9">
     <g id="line2d_45">
      <path d="M 53.72 25.92 
L 421.2 25.92 
" clip-path="url(#p588c089f8a)" style="fill: none; stroke-dasharray: 0.5,0.825; stroke-dashoffset: 0; stroke: #b0b0b0; stroke-opacity: 0.7; stroke-width: 0.5"/>
     </g>
     <g id="line2d_46">
      <g>
       <use xlink:href="#m987fa12e6d" x="53.72" y="25.92" style="stroke: #000000; stroke-width: 0.8"/>
      </g>
     </g>
     <g id="text_13">
      <!-- 1.00 -->
      <g transform="translate(24.454375 29.719219) scale(0.1 -0.1)">
       <use xlink:href="#DejaVuSans-31"/>
       <use xlink:href="#DejaVuSans-2e" x="63.623047"/>
       <use xlink:href="#DejaVuSans-30" x="95.410156"/>
       <use xlink:href="#DejaVuSans-30" x="159.033203"/>
      </g>
     </g>
    </g>
    <g id="text_14">
     <!-- pass@k -->
     <g transform="translate(18.374688 154.554969) rotate(-90) scale(0.1 -0.1)">
      <defs>
       <path id="DejaVuSans-70" d="M 1159 525 
L 1159 -1331 
L 581 -1331 
L 581 3500 
L 1159 3500 
L 1159 2969 
Q 1341 3281 1617 3432 
Q 1894 3584 2278 3584 
Q 2916 3584 3314 3078 
Q 3713 2572 3713 1747 
Q 3713 922 3314 415 
Q 2916 -91 2278 -91 
Q 1894 -91 1617 61 
Q 1341 213 1159 525 
z
M 3116 1747 
Q 3116 2381 2855 2742 
Q 2594 3103 2138 3103 
Q 1681 3103 1420 2742 
Q 1159 2381 1159 1747 
Q 1159 1113 1420 752 
Q 1681 391 2138 391 
Q 2594 391 2855 752 
Q 3116 1113 3116 1747 
z
" transform="scale(0.015625)"/>
       <path id="DejaVuSans-61" d="M 2194 1759 
Q 1497 1759 1228 1600 
Q 959 1441 959 1056 
Q 959 750 1161 570 
Q 1363 391 1709 391 
Q 2188 391 2477 730 
Q 2766 1069 2766 1631 
L 2766 1759 
L 2194 1759 
z
M 3341 1997 
L 3341 0 
L 2766 0 
L 2766 531 
Q 2569 213 2275 61 
Q 1981 -91 1556 -91 
Q 1019 -91 701 211 
Q 384 513 384 1019 
Q 384 1609 779 1909 
Q 1175 2209 1959 2209 
L 2766 2209 
L 2766 2266 
Q 2766 2663 2505 2880 
Q 2244 3097 1772 3097 
Q 1472 3097 1187 3025 
Q 903 2953 641 2809 
L 641 3341 
Q 956 3463 1253 3523 
Q 1550 3584 1831 3584 
Q 2591 3584 2966 3190 
Q 3341 2797 3341 1997 
z
" transform="scale(0.015625)"/>
       <path id="DejaVuSans-73" d="M 2834 3397 
L 2834 2853 
Q 2591 2978 2328 3040 
Q 2066 3103 1784 3103 
Q 1356 3103 1142 2972 
Q 928 2841 928 2578 
Q 928 2378 1081 2264 
Q 1234 2150 1697 2047 
L 1894 2003 
Q 2506 1872 2764 1633 
Q 3022 1394 3022 966 
Q 3022 478 2636 193 
Q 2250 -91 1575 -91 
Q 1294 -91 989 -36 
Q 684 19 347 128 
L 347 722 
Q 666 556 975 473 
Q 1284 391 1588 391 
Q 1994 391 2212 530 
Q 2431 669 2431 922 
Q 2431 1156 2273 1281 
Q 2116 1406 1581 1522 
L 1381 1569 
Q 847 1681 609 1914 
Q 372 2147 372 2553 
Q 372 3047 722 3315 
Q 1072 3584 1716 3584 
Q 2034 3584 2315 3537 
Q 2597 3491 2834 3397 
z
" transform="scale(0.015625)"/>
       <path id="DejaVuSans-40" d="M 2381 1678 
Q 2381 1231 2603 976 
Q 2825 722 3213 722 
Q 3597 722 3817 978 
Q 4038 1234 4038 1678 
Q 4038 2116 3813 2373 
Q 3588 2631 3206 2631 
Q 2828 2631 2604 2375 
Q 2381 2119 2381 1678 
z
M 4084 744 
Q 3897 503 3655 389 
Q 3413 275 3091 275 
Q 2553 275 2217 664 
Q 1881 1053 1881 1678 
Q 1881 2303 2218 2693 
Q 2556 3084 3091 3084 
Q 3413 3084 3656 2967 
Q 3900 2850 4084 2613 
L 4084 3022 
L 4531 3022 
L 4531 722 
Q 4988 791 5245 1139 
Q 5503 1488 5503 2041 
Q 5503 2375 5404 2669 
Q 5306 2963 5106 3213 
Q 4781 3622 4314 3839 
Q 3847 4056 3297 4056 
Q 2913 4056 2559 3954 
Q 2206 3853 1906 3653 
Q 1416 3334 1139 2817 
Q 863 2300 863 1697 
Q 863 1200 1042 765 
Q 1222 331 1563 0 
Q 1891 -325 2322 -495 
Q 2753 -666 3244 -666 
Q 3647 -666 4036 -530 
Q 4425 -394 4750 -141 
L 5031 -488 
Q 4641 -791 4180 -952 
Q 3719 -1113 3244 -1113 
Q 2666 -1113 2153 -908 
Q 1641 -703 1241 -313 
Q 841 78 631 592 
Q 422 1106 422 1697 
Q 422 2266 634 2781 
Q 847 3297 1241 3688 
Q 1644 4084 2172 4295 
Q 2700 4506 3291 4506 
Q 3953 4506 4520 4234 
Q 5088 3963 5472 3463 
Q 5706 3156 5829 2797 
Q 5953 2438 5953 2053 
Q 5953 1231 5456 756 
Q 4959 281 4084 263 
L 4084 744 
z
" transform="scale(0.015625)"/>
      </defs>
      <use xlink:href="#DejaVuSans-70"/>
      <use xlink:href="#DejaVuSans-61" x="63.476562"/>
      <use xlink:href="#DejaVuSans-73" x="124.755859"/>
      <use xlink:href="#DejaVuSans-73" x="176.855469"/>
      <use xlink:href="#DejaVuSans-40" x="228.955078"/>
      <use xlink:href="#DejaVuSans-6b" x="328.955078"/>
     </g>
    </g>
   </g>
   <g id="line2d_47">
    <path d="M 70.423636 229.567427 
L 120.706592 171.624267 
L 150.120236 147.227136 
L 170.989548 134.274185 
L 187.177044 126.271554 
L 200.403192 120.83155 
L 211.58574 116.910828 
L 221.272504 113.976005 
L 229.816835 111.718261 
L 237.46 109.942524 
L 244.374084 108.518388 
L 250.686147 107.355493 
L 256.492683 106.389753 
L 261.868696 105.575005 
L 266.873644 104.877611 
L 271.55546 104.272838 
L 275.95335 103.742348 
L 280.099791 103.272434 
L 284.021988 102.852759 
L 287.742956 102.475446 
L 291.282339 102.134424 
L 294.657039 101.824944 
L 297.881702 101.543237 
L 300.969103 101.286259 
L 303.930452 101.051503 
L 306.775639 100.836869 
L 309.513435 100.640562 
L 312.151652 100.461025 
L 314.69728 100.296882 
L 317.156599 100.146903 
L 319.535271 100.009977 
L 321.838415 99.88509 
L 324.070683 99.771311 
L 326.236306 99.667779 
L 328.339148 99.573696 
L 330.382747 99.488323 
L 332.37035 99.41097 
L 334.304944 99.340994 
L 336.189283 99.277797 
L 338.025912 99.220819 
L 339.817187 99.169542 
L 341.565295 99.123481 
L 343.272267 99.082186 
L 344.939995 99.045238 
L 346.570243 99.01225 
L 348.164658 98.98286 
L 349.724782 98.956736 
L 351.252059 98.93357 
L 352.747843 98.913076 
L 354.213408 98.894994 
L 355.649949 98.879081 
L 357.058595 98.865117 
L 358.440408 98.852899 
L 359.79639 98.84224 
L 361.127491 98.832972 
L 362.434607 98.824939 
L 363.718587 98.818002 
L 364.980236 98.812033 
L 366.220317 98.806916 
L 367.439555 98.802548 
L 368.63864 98.798836 
L 369.818226 98.795694 
L 370.978939 98.793049 
L 372.121371 98.790832 
L 373.246091 98.788985 
L 374.353639 98.787455 
L 375.444531 98.786195 
L 376.519261 98.785163 
L 377.578302 98.784326 
L 378.622104 98.78365 
L 379.651099 98.783109 
L 380.665703 98.782681 
L 381.666311 98.782344 
L 382.653306 98.782082 
L 383.627051 98.78188 
L 384.587899 98.781727 
L 385.536187 98.781612 
L 386.472238 98.781527 
L 387.396365 98.781466 
L 388.308867 98.781422 
L 389.210034 98.781391 
L 390.100143 98.78137 
L 390.979462 98.781355 
L 391.848251 98.781346 
L 392.706758 98.781341 
L 393.555223 98.781337 
L 394.39388 98.781335 
L 395.222951 98.781334 
L 396.042654 98.781334 
L 396.853199 98.781333 
L 397.654787 98.781333 
L 398.447614 98.781333 
L 399.23187 98.781333 
L 400.007738 98.781333 
L 400.775396 98.781333 
L 401.535015 98.781333 
L 402.286762 98.781333 
L 403.030799 98.781333 
L 403.767282 98.781333 
L 404.496364 98.781333 
" clip-path="url(#p588c089f8a)" style="fill: none; stroke: #1f77b4; stroke-width: 2; stroke-linecap: square"/>
   </g>
   <g id="line2d_48">
    <path d="M 80.000099 289 
L 120.706592 240.377583 
L 150.120236 217.089121 
L 170.989548 202.71617 
L 187.177044 197.71423 
L 200.403192 191.126842 
L 211.58574 187.526739 
L 221.272504 185.363902 
L 229.816835 183.613736 
L 237.46 182.171969 
L 244.374084 180.967724 
L 250.686147 179.949556 
L 256.492683 179.078899 
L 261.868696 178.157313 
L 266.873644 177.534467 
L 271.55546 176.987497 
L 275.95335 176.498942 
L 280.099791 176.059326 
L 284.021988 175.661444 
L 287.742956 175.299733 
L 291.282339 174.969825 
L 294.657039 174.668224 
L 297.881702 174.392072 
L 300.969103 174.13899 
L 303.930452 173.906955 
L 306.775639 173.694206 
L 309.513435 173.499197 
L 312.151652 173.320549 
L 314.69728 173.157009 
L 317.156599 173.007439 
L 319.535271 172.870787 
L 321.838415 172.746082 
L 324.070683 172.632423 
L 326.236306 172.52897 
L 328.339148 172.43494 
L 330.382747 172.3496 
L 332.37035 172.272268 
L 334.304944 172.202306 
L 336.189283 172.139116 
L 338.025912 172.082144 
L 339.817187 172.03087 
L 341.565295 171.984812 
L 343.272267 171.943518 
L 344.939995 171.906571 
L 346.570243 171.873583 
L 348.164658 171.844193 
L 349.724782 171.818069 
L 351.252059 171.794903 
L 352.747843 171.77441 
L 354.213408 171.756327 
L 355.649949 171.740415 
L 357.058595 171.726451 
L 358.440408 171.714232 
L 359.79639 171.703574 
L 361.127491 171.694305 
L 362.434607 171.686272 
L 363.718587 171.679335 
L 364.980236 171.673366 
L 366.220317 171.668249 
L 367.439555 171.663882 
L 368.63864 171.660169 
L 369.818226 171.657028 
L 370.978939 171.654382 
L 372.121371 171.652166 
L 373.246091 171.650319 
L 374.353639 171.648788 
L 375.444531 171.647528 
L 376.519261 171.646497 
L 377.578302 171.645659 
L 378.622104 171.644983 
L 379.651099 171.644443 
L 380.665703 171.644014 
L 381.666311 171.643677 
L 382.653306 171.643415 
L 383.627051 171.643214 
L 384.587899 171.643061 
L 385.536187 171.642946 
L 386.472238 171.642861 
L 387.396365 171.642799 
L 388.308867 171.642755 
L 389.210034 171.642724 
L 390.100143 171.642703 
L 390.979462 171.642689 
L 391.848251 171.64268 
L 392.706758 171.642674 
L 393.555223 171.642671 
L 394.39388 171.642669 
L 395.222951 171.642668 
L 396.042654 171.642667 
L 396.853199 171.642667 
L 397.654787 171.642667 
L 398.447614 171.642667 
L 399.23187 171.642667 
L 400.007738 171.642667 
L 400.775396 171.642667 
L 401.535015 171.642667 
L 402.286762 171.642667 
L 403.030799 171.642667 
L 403.767282 171.642667 
L 404.496364 171.642667 
" clip-path="url(#p588c089f8a)" style="fill: none; stroke-dasharray: 3.7,1.6; stroke-dashoffset: 0; stroke: #1f77b4"/>
   </g>
   <g id="line2d_49">
    <path d="M 70.423636 156.501171 
L 120.706592 97.395404 
L 150.120236 75.186005 
L 170.989548 63.113364 
L 187.177044 55.692619 
L 200.403192 52.045499 
L 211.58574 49.445213 
L 221.272504 47.866186 
L 229.816835 46.74544 
L 237.46 45.897453 
L 244.374084 45.294353 
L 250.686147 44.947324 
L 256.492683 44.703129 
L 261.868696 44.531379 
L 266.873644 44.410748 
L 271.55546 44.326197 
L 275.95335 44.267094 
L 280.099791 44.225911 
L 284.021988 44.197321 
L 287.742956 44.177551 
L 291.282339 44.163941 
L 294.657039 44.154613 
L 297.881702 44.148248 
L 300.969103 44.143946 
L 303.930452 44.141049 
L 306.775639 44.139093 
L 309.513435 44.137791 
L 312.151652 44.136929 
L 314.69728 44.136362 
L 317.156599 44.135992 
L 319.535271 44.135752 
L 321.838415 44.135597 
L 324.070683 44.135498 
L 326.236306 44.135435 
L 328.339148 44.135396 
L 330.382747 44.135372 
L 332.37035 44.135356 
L 334.304944 44.135347 
L 336.189283 44.135341 
L 338.025912 44.135338 
L 339.817187 44.135336 
L 341.565295 44.135335 
L 343.272267 44.135334 
L 344.939995 44.135334 
L 346.570243 44.135334 
L 348.164658 44.135333 
L 349.724782 44.135333 
L 351.252059 44.135333 
L 352.747843 44.135333 
L 354.213408 44.135333 
L 355.649949 44.135333 
L 357.058595 44.135333 
L 358.440408 44.135333 
L 359.79639 44.135333 
L 361.127491 44.135333 
L 362.434607 44.135333 
L 363.718587 44.135333 
L 364.980236 44.135333 
L 366.220317 44.135333 
L 367.439555 44.135333 
L 368.63864 44.135333 
L 369.818226 44.135333 
L 370.978939 44.135333 
L 372.121371 44.135333 
L 373.246091 44.135333 
L 374.353639 44.135333 
L 375.444531 44.135333 
L 376.519261 44.135333 
L 377.578302 44.135333 
L 378.622104 44.135333 
L 379.651099 44.135333 
L 380.665703 44.135333 
L 381.666311 44.135333 
L 382.653306 44.135333 
L 383.627051 44.135333 
L 384.587899 44.135333 
L 385.536187 44.135333 
L 386.472238 44.135333 
L 387.396365 44.135333 
L 388.308867 44.135333 
L 389.210034 44.135333 
L 390.100143 44.135333 
L 390.979462 44.135333 
L 391.848251 44.135333 
L 392.706758 44.135333 
L 393.555223 44.135333 
L 394.39388 44.135333 
L 395.222951 44.135333 
L 396.042654 44.135333 
L 396.853199 44.135333 
L 397.654787 44.135333 
L 398.447614 44.135333 
L 399.23187 44.135333 
L 400.007738 44.135333 
L 400.775396 44.135333 
L 401.535015 44.135333 
L 402.286762 44.135333 
L 403.030799 44.135333 
L 403.767282 44.135333 
L 404.496364 44.135333 
" clip-path="url(#p588c089f8a)" style="fill: none; stroke-dasharray: 1,1.65; stroke-dashoffset: 0; stroke: #1f77b4"/>
   </g>
   <g id="line2d_50">
    <path d="M 70.423636 228.1102 
L 120.706592 167.086993 
L 150.120236 138.859911 
L 170.989548 123.49154 
L 187.177044 114.412212 
L 200.403192 108.735327 
L 211.58574 105.030518 
L 221.272504 102.527174 
L 229.816835 100.783213 
L 237.46 99.532723 
L 244.374084 98.609922 
L 250.686147 97.908561 
L 256.492683 97.359036 
L 261.868696 96.914918 
L 266.873644 96.544762 
L 271.55546 96.226981 
L 275.95335 95.946583 
L 280.099791 95.693046 
L 284.021988 95.458914 
L 287.742956 95.238865 
L 291.282339 95.02907 
L 294.657039 94.826759 
L 297.881702 94.62992 
L 300.969103 94.437084 
L 303.930452 94.247174 
L 306.775639 94.059405 
L 309.513435 93.873197 
L 312.151652 93.688127 
L 314.69728 93.503884 
L 317.156599 93.320239 
L 319.535271 93.137026 
L 321.838415 92.954123 
L 324.070683 92.771443 
L 326.236306 92.588922 
L 328.339148 92.406512 
L 330.382747 92.224182 
L 332.37035 92.041908 
L 334.304944 91.859672 
L 336.189283 91.677462 
L 338.025912 91.495271 
L 339.817187 91.313093 
L 341.565295 91.130923 
L 343.272267 90.948759 
L 344.939995 90.766599 
L 346.570243 90.584441 
L 348.164658 90.402285 
L 349.724782 90.22013 
L 351.252059 90.037975 
L 352.747843 89.855821 
L 354.213408 89.673667 
L 355.649949 89.491514 
L 357.058595 89.30936 
L 358.440408 89.127207 
L 359.79639 88.945053 
L 361.127491 88.7629 
L 362.434607 88.580747 
L 363.718587 88.398593 
L 364.980236 88.21644 
L 366.220317 88.034287 
L 367.439555 87.852133 
L 368.63864 87.66998 
L 369.818226 87.487827 
L 370.978939 87.305673 
L 372.121371 87.12352 
L 373.246091 86.941367 
L 374.353639 86.759213 
L 375.444531 86.57706 
L 376.519261 86.394907 
L 377.578302 86.212753 
L 378.622104 86.0306 
L 379.651099 85.848447 
L 380.665703 85.666293 
L 381.666311 85.48414 
L 382.653306 85.301987 
L 383.627051 85.119833 
L 384.587899 84.93768 
L 385.536187 84.755527 
L 386.472238 84.573373 
L 387.396365 84.39122 
L 388.308867 84.209067 
L 389.210034 84.026913 
L 390.100143 83.84476 
L 390.979462 83.662607 
L 391.848251 83.480453 
L 392.706758 83.2983 
L 393.555223 83.116147 
L 394.39388 82.933993 
L 395.222951 82.75184 
L 396.042654 82.569687 
L 396.853199 82.387533 
L 397.654787 82.20538 
L 398.447614 82.023227 
L 399.23187 81.841073 
L 400.007738 81.65892 
L 400.775396 81.476767 
L 401.535015 81.294613 
L 402.286762 81.11246 
L 403.030799 80.930307 
L 403.767282 80.748153 
L 404.496364 80.566 
" clip-path="url(#p588c089f8a)" style="fill: none; stroke: #ff7f0e; stroke-width: 2; stroke-linecap: square"/>
   </g>
   <g id="line2d_51">
    <path d="M 77.741002 289 
L 120.706592 233.626686 
L 150.120236 205.381032 
L 170.989548 191.130789 
L 187.177044 181.963444 
L 200.403192 177.593111 
L 211.58574 174.926817 
L 221.272504 172.824271 
L 229.816835 171.12842 
L 237.46 169.982027 
L 244.374084 169.086561 
L 250.686147 168.34545 
L 256.492683 167.695091 
L 261.868696 167.123247 
L 266.873644 166.607129 
L 271.55546 166.131078 
L 275.95335 165.684154 
L 280.099791 165.258594 
L 284.021988 164.848808 
L 287.742956 164.450728 
L 291.282339 164.061362 
L 294.657039 163.678493 
L 297.881702 163.300468 
L 300.969103 162.926054 
L 303.930452 162.554326 
L 306.775639 162.184592 
L 309.513435 161.816332 
L 312.151652 161.44916 
L 314.69728 161.082786 
L 317.156599 160.716995 
L 319.535271 160.351629 
L 321.838415 159.986571 
L 324.070683 159.621733 
L 326.236306 159.257055 
L 328.339148 158.892489 
L 330.382747 158.528003 
L 332.37035 158.163573 
L 334.304944 157.799182 
L 336.189283 157.434818 
L 338.025912 157.070473 
L 339.817187 156.706141 
L 341.565295 156.341817 
L 343.272267 155.977499 
L 344.939995 155.613186 
L 346.570243 155.248874 
L 348.164658 154.884565 
L 349.724782 154.520256 
L 351.252059 154.155948 
L 352.747843 153.791641 
L 354.213408 153.427335 
L 355.649949 153.427334 
L 357.058595 153.427334 
L 358.440408 153.427333 
L 359.79639 153.427333 
L 361.127491 153.427333 
L 362.434607 153.427333 
L 363.718587 153.427333 
L 364.980236 153.427333 
L 366.220317 153.427333 
L 367.439555 153.427333 
L 368.63864 153.427333 
L 369.818226 153.427333 
L 370.978939 153.427333 
L 372.121371 153.427333 
L 373.246091 153.427333 
L 374.353639 153.427333 
L 375.444531 153.427333 
L 376.519261 153.427333 
L 377.578302 153.427333 
L 378.622104 153.427333 
L 379.651099 153.427333 
L 380.665703 153.427333 
L 381.666311 153.427333 
L 382.653306 153.427333 
L 383.627051 153.427333 
L 384.587899 153.427333 
L 385.536187 153.427333 
L 386.472238 153.427333 
L 387.396365 153.427333 
L 388.308867 153.427333 
L 389.210034 152.539336 
L 390.100143 151.651338 
L 390.979462 150.763341 
L 391.848251 149.875343 
L 392.706758 148.987346 
L 393.555223 148.099348 
L 394.39388 147.211351 
L 395.222951 146.323353 
L 396.042654 145.435356 
L 396.853199 144.547358 
L 397.654787 143.659361 
L 398.447614 142.771363 
L 399.23187 141.883366 
L 400.007738 140.995368 
L 400.775396 140.107371 
L 401.535015 139.219373 
L 402.286762 138.331376 
L 403.030799 137.443378 
L 403.767282 136.555381 
L 404.496364 135.667383 
" clip-path="url(#p588c089f8a)" style="fill: none; stroke-dasharray: 3.7,1.6; stroke-dashoffset: 0; stroke: #ff7f0e"/>
   </g>
   <g id="line2d_52">
    <path d="M 70.423636 159.064979 
L 120.706592 102.191741 
L 150.120236 75.53712 
L 170.989548 62.478033 
L 187.177044 54.853707 
L 200.403192 50.922126 
L 211.58574 47.943603 
L 221.272504 46.385147 
L 229.816835 45.230271 
L 237.46 44.382344 
L 244.374084 43.6339 
L 250.686147 43.047526 
L 256.492683 42.572542 
L 261.868696 42.17393 
L 266.873644 41.835111 
L 271.55546 41.538686 
L 275.95335 41.272705 
L 280.099791 41.028814 
L 284.021988 40.801083 
L 287.742956 40.585247 
L 291.282339 40.378202 
L 294.657039 40.177673 
L 297.881702 39.981979 
L 300.969103 39.789873 
L 303.930452 39.600425 
L 306.775639 39.412945 
L 309.513435 39.226918 
L 312.151652 39.041959 
L 314.69728 38.857783 
L 317.156599 38.674179 
L 319.535271 38.490991 
L 321.838415 38.308103 
L 324.070683 38.125432 
L 326.236306 37.942915 
L 328.339148 37.760509 
L 330.382747 37.57818 
L 332.37035 37.395906 
L 334.304944 37.213671 
L 336.189283 37.031462 
L 338.025912 36.849271 
L 339.817187 36.667093 
L 341.565295 36.484923 
L 343.272267 36.302759 
L 344.939995 36.120599 
L 346.570243 35.938441 
L 348.164658 35.756285 
L 349.724782 35.57413 
L 351.252059 35.391975 
L 352.747843 35.209821 
L 354.213408 35.027667 
L 355.649949 34.845514 
L 357.058595 34.66336 
L 358.440408 34.481207 
L 359.79639 34.299053 
L 361.127491 34.1169 
L 362.434607 33.934747 
L 363.718587 33.752593 
L 364.980236 33.57044 
L 366.220317 33.388287 
L 367.439555 33.206133 
L 368.63864 33.02398 
L 369.818226 32.841827 
L 370.978939 32.659673 
L 372.121371 32.47752 
L 373.246091 32.295367 
L 374.353639 32.113213 
L 375.444531 31.93106 
L 376.519261 31.748907 
L 377.578302 31.566753 
L 378.622104 31.3846 
L 379.651099 31.202447 
L 380.665703 31.020293 
L 381.666311 30.83814 
L 382.653306 30.655987 
L 383.627051 30.473833 
L 384.587899 30.29168 
L 385.536187 30.109527 
L 386.472238 29.927373 
L 387.396365 29.74522 
L 388.308867 29.563067 
L 389.210034 29.380913 
L 390.100143 29.19876 
L 390.979462 29.016607 
L 391.848251 28.834453 
L 392.706758 28.6523 
L 393.555223 28.470147 
L 394.39388 28.287993 
L 395.222951 28.10584 
L 396.042654 27.923687 
L 396.853199 27.741533 
L 397.654787 27.55938 
L 398.447614 27.377227 
L 399.23187 27.195073 
L 400.007738 27.01292 
L 400.775396 26.830767 
L 401.535015 26.648613 
L 402.286762 26.46646 
L 403.030799 26.284307 
L 403.767282 26.102153 
L 404.496364 25.92 
" clip-path="url(#p588c089f8a)" style="fill: none; stroke-dasharray: 1,1.65; stroke-dashoffset: 0; stroke: #ff7f0e"/>
   </g>
   <g id="line2d_53">
    <path d="M 70.423636 154.520253 
L 120.706592 110.442827 
L 150.120236 93.547213 
L 170.989548 84.758482 
L 187.177044 79.401805 
L 200.403192 75.746317 
L 211.58574 73.032037 
L 221.272504 70.894615 
L 229.816835 69.145192 
L 237.46 67.677096 
L 244.374084 66.424401 
L 250.686147 65.342803 
L 256.492683 64.400404 
L 261.868696 63.573027 
L 266.873644 62.841674 
L 271.55546 62.19105 
L 275.95335 61.60864 
L 280.099791 61.084083 
L 284.021988 60.608742 
L 287.742956 60.175368 
L 291.282339 59.777856 
L 294.657039 59.411039 
L 297.881702 59.070535 
L 300.969103 58.752617 
L 303.930452 58.454103 
L 306.775639 58.172274 
L 309.513435 57.9048 
L 312.151652 57.649681 
L 314.69728 57.405197 
L 317.156599 57.169865 
L 319.535271 56.942408 
L 321.838415 56.721721 
L 324.070683 56.506851 
L 326.236306 56.296975 
L 328.339148 56.09138 
L 330.382747 55.889449 
L 332.37035 55.69065 
L 334.304944 55.494523 
L 336.189283 55.300671 
L 338.025912 55.108751 
L 339.817187 54.91847 
L 341.565295 54.729573 
L 343.272267 54.541845 
L 344.939995 54.355097 
L 346.570243 54.169173 
L 348.164658 53.983935 
L 349.724782 53.79927 
L 351.252059 53.61508 
L 352.747843 53.431281 
L 354.213408 53.247806 
L 355.649949 53.064595 
L 357.058595 52.8816 
L 358.440408 52.69878 
L 359.79639 52.516103 
L 361.127491 52.333539 
L 362.434607 52.151066 
L 363.718587 51.968666 
L 364.980236 51.786324 
L 366.220317 51.604026 
L 367.439555 51.421764 
L 368.63864 51.239529 
L 369.818226 51.057315 
L 370.978939 50.875117 
L 372.121371 50.692931 
L 373.246091 50.510754 
L 374.353639 50.328583 
L 375.444531 50.146418 
L 376.519261 49.964257 
L 377.578302 49.782098 
L 378.622104 49.59994 
L 379.651099 49.417784 
L 380.665703 49.235629 
L 381.666311 49.053475 
L 382.653306 48.871321 
L 383.627051 48.689167 
L 384.587899 48.507014 
L 385.536187 48.32486 
L 386.472238 48.142707 
L 387.396365 47.960553 
L 388.308867 47.7784 
L 389.210034 47.596247 
L 390.100143 47.414093 
L 390.979462 47.23194 
L 391.848251 47.049787 
L 392.706758 46.867633 
L 393.555223 46.68548 
L 394.39388 46.503327 
L 395.222951 46.321173 
L 396.042654 46.13902 
L 396.853199 45.956867 
L 397.654787 45.774713 
L 398.447614 45.59256 
L 399.23187 45.410407 
L 400.007738 45.228253 
L 400.775396 45.0461 
L 401.535015 44.863947 
L 402.286762 44.681793 
L 403.030799 44.49964 
L 403.767282 44.317487 
L 404.496364 44.135333 
" clip-path="url(#p588c089f8a)" style="fill: none; stroke: #2ca02c; stroke-width: 2; stroke-linecap: square"/>
   </g>
   <g id="line2d_54">
    <path d="M 70.423636 218.824934 
L 120.706592 170.802737 
L 150.120236 151.349208 
L 170.989548 139.084075 
L 187.177044 132.758797 
L 200.403192 128.573008 
L 211.58574 125.978191 
L 221.272504 122.62611 
L 229.816835 120.537599 
L 237.46 118.860717 
L 244.374084 117.778999 
L 250.686147 116.798319 
L 256.492683 115.898677 
L 261.868696 115.087577 
L 266.873644 114.744006 
L 271.55546 113.563902 
L 275.95335 112.427603 
L 280.099791 111.21113 
L 284.021988 110.424932 
L 287.742956 109.978513 
L 291.282339 109.551 
L 294.657039 109.138162 
L 297.881702 108.736679 
L 300.969103 108.343957 
L 303.930452 107.957976 
L 306.775639 107.577165 
L 309.513435 107.200312 
L 312.151652 106.826477 
L 314.69728 106.454942 
L 317.156599 106.085152 
L 319.535271 105.716687 
L 321.838415 105.349224 
L 324.070683 104.98252 
L 326.236306 104.611622 
L 328.339148 104.246896 
L 330.382747 103.882293 
L 332.37035 103.517778 
L 334.304944 103.153326 
L 336.189283 102.788919 
L 338.025912 102.424542 
L 339.817187 102.060188 
L 341.565295 101.695849 
L 343.272267 101.331521 
L 344.939995 100.9672 
L 346.570243 100.602884 
L 348.164658 100.238571 
L 349.724782 99.87426 
L 351.252059 99.509951 
L 352.747843 99.145643 
L 354.213408 98.781458 
L 355.649949 98.420775 
L 357.058595 98.055627 
L 358.440408 97.690654 
L 359.79639 97.325823 
L 361.127491 96.961106 
L 362.434607 96.59648 
L 363.718587 96.231926 
L 364.980236 95.867431 
L 366.220317 95.50298 
L 367.439555 95.138564 
L 368.63864 94.774176 
L 369.818226 94.409808 
L 370.978939 94.045457 
L 372.121371 93.681117 
L 373.246091 93.316787 
L 374.353639 92.952463 
L 375.444531 92.588145 
L 376.519261 92.22383 
L 377.578302 91.859518 
L 378.622104 91.495207 
L 379.651099 91.130898 
L 380.665703 90.766589 
L 381.666311 90.402282 
L 382.653306 90.037974 
L 383.627051 89.673667 
L 384.587899 89.30936 
L 385.536187 88.945054 
L 386.472238 88.580747 
L 387.396365 88.21644 
L 388.308867 87.852133 
L 389.210034 87.487827 
L 390.100143 87.12352 
L 390.979462 86.759213 
L 391.848251 86.394907 
L 392.706758 86.0306 
L 393.555223 85.666293 
L 394.39388 85.301987 
L 395.222951 84.93768 
L 396.042654 84.573373 
L 396.853199 84.209067 
L 397.654787 83.84476 
L 398.447614 83.480453 
L 399.23187 83.116147 
L 400.007738 82.75184 
L 400.775396 82.387533 
L 401.535015 82.023227 
L 402.286762 81.65892 
L 403.030799 81.294613 
L 403.767282 80.930307 
L 404.496364 80.566 
" clip-path="url(#p588c089f8a)" style="fill: none; stroke-dasharray: 3.7,1.6; stroke-dashoffset: 0; stroke: #2ca02c"/>
   </g>
   <g id="line2d_55">
    <path d="M 70.423636 90.03342 
L 120.706592 55.701058 
L 150.120236 43.295127 
L 170.989548 36.854126 
L 187.177044 33.416513 
L 200.403192 31.349576 
L 211.58574 29.959832 
L 221.272504 28.975888 
L 229.816835 28.253853 
L 237.46 27.711526 
L 244.374084 27.298268 
L 250.686147 26.980694 
L 256.492683 26.735547 
L 261.868696 26.545948 
L 266.873644 26.399284 
L 271.55546 26.28595 
L 275.95335 26.198533 
L 280.099791 26.131272 
L 284.021988 26.07967 
L 287.742956 26.04021 
L 291.282339 26.01014 
L 294.657039 25.987312 
L 297.881702 25.970048 
L 300.969103 25.957047 
L 303.930452 25.947297 
L 306.775639 25.940017 
L 309.513435 25.934607 
L 312.151652 25.930605 
L 314.69728 25.927659 
L 317.156599 25.925502 
L 319.535271 25.92393 
L 321.838415 25.922791 
L 324.070683 25.92197 
L 326.236306 25.921382 
L 328.339148 25.920963 
L 330.382747 25.920667 
L 332.37035 25.920458 
L 334.304944 25.920313 
L 336.189283 25.920212 
L 338.025912 25.920142 
L 339.817187 25.920095 
L 341.565295 25.920063 
L 343.272267 25.920041 
L 344.939995 25.920027 
L 346.570243 25.920017 
L 348.164658 25.920011 
L 349.724782 25.920007 
L 351.252059 25.920004 
L 352.747843 25.920003 
L 354.213408 25.920002 
L 355.649949 25.920001 
L 357.058595 25.920001 
L 358.440408 25.92 
L 359.79639 25.92 
L 361.127491 25.92 
L 362.434607 25.92 
L 363.718587 25.92 
L 364.980236 25.92 
L 366.220317 25.92 
L 367.439555 25.92 
L 368.63864 25.92 
L 369.818226 25.92 
L 370.978939 25.92 
L 372.121371 25.92 
L 373.246091 25.92 
L 374.353639 25.92 
L 375.444531 25.92 
L 376.519261 25.92 
L 377.578302 25.92 
L 378.622104 25.92 
L 379.651099 25.92 
L 380.665703 25.92 
L 381.666311 25.92 
L 382.653306 25.92 
L 383.627051 25.92 
L 384.587899 25.92 
L 385.536187 25.92 
L 386.472238 25.92 
L 387.396365 25.92 
L 388.308867 25.92 
L 389.210034 25.92 
L 390.100143 25.92 
L 390.979462 25.92 
L 391.848251 25.92 
L 392.706758 25.92 
L 393.555223 25.92 
L 394.39388 25.92 
L 395.222951 25.92 
L 396.042654 25.92 
L 396.853199 25.92 
L 397.654787 25.92 
L 398.447614 25.92 
L 399.23187 25.92 
L 400.007738 25.92 
L 400.775396 25.92 
L 401.535015 25.92 
L 402.286762 25.92 
L 403.030799 25.92 
L 403.767282 25.92 
L 404.496364 25.92 
" clip-path="url(#p588c089f8a)" style="fill: none; stroke-dasharray: 1,1.65; stroke-dashoffset: 0; stroke: #2ca02c"/>
   </g>
   <g id="patch_3">
    <path d="M 53.72 244.504 
L 53.72 25.92 
" style="fill: none; stroke: #000000; stroke-width: 0.8; stroke-linejoin: miter; stroke-linecap: square"/>
   </g>
   <g id="patch_4">
    <path d="M 421.2 244.504 
L 421.2 25.92 
" style="fill: none; stroke: #000000; stroke-width: 0.8; stroke-linejoin: miter; stroke-linecap: square"/>
   </g>
   <g id="patch_5">
    <path d="M 53.72 244.504 
L 421.2 244.504 
" style="fill: none; stroke: #000000; stroke-width: 0.8; stroke-linejoin: miter; stroke-linecap: square"/>
   </g>
   <g id="patch_6">
    <path d="M 53.72 25.92 
L 421.2 25.92 
" style="fill: none; stroke: #000000; stroke-width: 0.8; stroke-linejoin: miter; stroke-linecap: square"/>
   </g>
   <g id="text_15">
    <!-- Llama-3.1-8B-Instruct - pass@k -->
    <g transform="translate(143.12125 19.92) scale(0.12 -0.12)">
     <defs>
      <path id="DejaVuSans-4c" d="M 628 4666 
L 1259 4666 
L 1259 531 
L 3531 531 
L 3531 0 
L 628 0 
L 628 4666 
z
" transform="scale(0.015625)"/>
      <path id="DejaVuSans-6c" d="M 603 4863 
L 1178 4863 
L 1178 0 
L 603 0 
L 603 4863 
z
" transform="scale(0.015625)"/>
      <path id="DejaVuSans-6d" d="M 3328 2828 
Q 3544 3216 3844 3400 
Q 4144 3584 4550 3584 
Q 5097 3584 5394 3201 
Q 5691 2819 5691 2113 
L 5691 0 
L 5113 0 
L 5113 2094 
Q 5113 2597 4934 2840 
Q 4756 3084 4391 3084 
Q 3944 3084 3684 2787 
Q 3425 2491 3425 1978 
L 3425 0 
L 2847 0 
L 2847 2094 
Q 2847 2600 2669 2842 
Q 2491 3084 2119 3084 
Q 1678 3084 1418 2786 
Q 1159 2488 1159 1978 
L 1159 0 
L 581 0 
L 581 3500 
L 1159 3500 
L 1159 2956 
Q 1356 3278 1631 3431 
Q 1906 3584 2284 3584 
Q 2666 3584 2933 3390 
Q 3200 3197 3328 2828 
z
" transform="scale(0.015625)"/>
      <path id="DejaVuSans-2d" d="M 313 2009 
L 1997 2009 
L 1997 1497 
L 313 1497 
L 313 2009 
z
" transform="scale(0.015625)"/>
      <path id="DejaVuSans-33" d="M 2597 2516 
Q 3050 2419 3304 2112 
Q 3559 1806 3559 1356 
Q 3559 666 3084 287 
Q 2609 -91 1734 -91 
Q 1441 -91 1130 -33 
Q 819 25 488 141 
L 488 750 
Q 750 597 1062 519 
Q 1375 441 1716 441 
Q 2309 441 2620 675 
Q 2931 909 2931 1356 
Q 2931 1769 2642 2001 
Q 2353 2234 1838 2234 
L 1294 2234 
L 1294 2753 
L 1863 2753 
Q 2328 2753 2575 2939 
Q 2822 3125 2822 3475 
Q 2822 3834 2567 4026 
Q 2313 4219 1838 4219 
Q 1578 4219 1281 4162 
Q 984 4106 628 3988 
L 628 4550 
Q 988 4650 1302 4700 
Q 1616 4750 1894 4750 
Q 2613 4750 3031 4423 
Q 3450 4097 3450 3541 
Q 3450 3153 3228 2886 
Q 3006 2619 2597 2516 
z
" transform="scale(0.015625)"/>
      <path id="DejaVuSans-42" d="M 1259 2228 
L 1259 519 
L 2272 519 
Q 2781 519 3026 730 
Q 3272 941 3272 1375 
Q 3272 1813 3026 2020 
Q 2781 2228 2272 2228 
L 1259 2228 
z
M 1259 4147 
L 1259 2741 
L 2194 2741 
Q 2656 2741 2882 2914 
Q 3109 3088 3109 3444 
Q 3109 3797 2882 3972 
Q 2656 4147 2194 4147 
L 1259 4147 
z
M 628 4666 
L 2241 4666 
Q 2963 4666 3353 4366 
Q 3744 4066 3744 3513 
Q 3744 3084 3544 2831 
Q 3344 2578 2956 2516 
Q 3422 2416 3680 2098 
Q 3938 1781 3938 1306 
Q 3938 681 3513 340 
Q 3088 0 2303 0 
L 628 0 
L 628 4666 
z
" transform="scale(0.015625)"/>
      <path id="DejaVuSans-49" d="M 628 4666 
L 1259 4666 
L 1259 0 
L 628 0 
L 628 4666 
z
" transform="scale(0.015625)"/>
      <path id="DejaVuSans-6e" d="M 3513 2113 
L 3513 0 
L 2938 0 
L 2938 2094 
Q 2938 2591 2744 2837 
Q 2550 3084 2163 3084 
Q 1697 3084 1428 2787 
Q 1159 2491 1159 1978 
L 1159 0 
L 581 0 
L 581 3500 
L 1159 3500 
L 1159 2956 
Q 1366 3272 1645 3428 
Q 1925 3584 2291 3584 
Q 2894 3584 3203 3211 
Q 3513 2838 3513 2113 
z
" transform="scale(0.015625)"/>
      <path id="DejaVuSans-74" d="M 1172 4494 
L 1172 3500 
L 2356 3500 
L 2356 3053 
L 1172 3053 
L 1172 1153 
Q 1172 725 1289 603 
Q 1406 481 1766 481 
L 2356 481 
L 2356 0 
L 1766 0 
Q 1100 0 847 248 
Q 594 497 594 1153 
L 594 3053 
L 172 3053 
L 172 3500 
L 594 3500 
L 594 4494 
L 1172 4494 
z
" transform="scale(0.015625)"/>
      <path id="DejaVuSans-72" d="M 2631 2963 
Q 2534 3019 2420 3045 
Q 2306 3072 2169 3072 
Q 1681 3072 1420 2755 
Q 1159 2438 1159 1844 
L 1159 0 
L 581 0 
L 581 3500 
L 1159 3500 
L 1159 2956 
Q 1341 3275 1631 3429 
Q 1922 3584 2338 3584 
Q 2397 3584 2469 3576 
Q 2541 3569 2628 3553 
L 2631 2963 
z
" transform="scale(0.015625)"/>
      <path id="DejaVuSans-75" d="M 544 1381 
L 544 3500 
L 1119 3500 
L 1119 1403 
Q 1119 906 1312 657 
Q 1506 409 1894 409 
Q 2359 409 2629 706 
Q 2900 1003 2900 1516 
L 2900 3500 
L 3475 3500 
L 3475 0 
L 2900 0 
L 2900 538 
Q 2691 219 2414 64 
Q 2138 -91 1772 -91 
Q 1169 -91 856 284 
Q 544 659 544 1381 
z
M 1991 3584 
L 1991 3584 
z
" transform="scale(0.015625)"/>
      <path id="DejaVuSans-63" d="M 3122 3366 
L 3122 2828 
Q 2878 2963 2633 3030 
Q 2388 3097 2138 3097 
Q 1578 3097 1268 2742 
Q 959 2388 959 1747 
Q 959 1106 1268 751 
Q 1578 397 2138 397 
Q 2388 397 2633 464 
Q 2878 531 3122 666 
L 3122 134 
Q 2881 22 2623 -34 
Q 2366 -91 2075 -91 
Q 1284 -91 818 406 
Q 353 903 353 1747 
Q 353 2603 823 3093 
Q 1294 3584 2113 3584 
Q 2378 3584 2631 3529 
Q 2884 3475 3122 3366 
z
" transform="scale(0.015625)"/>
      <path id="DejaVuSans-20" transform="scale(0.015625)"/>
     </defs>
     <use xlink:href="#DejaVuSans-4c"/>
     <use xlink:href="#DejaVuSans-6c" x="55.712891"/>
     <use xlink:href="#DejaVuSans-61" x="83.496094"/>
     <use xlink:href="#DejaVuSans-6d" x="144.775391"/>
     <use xlink:href="#DejaVuSans-61" x="242.1875"/>
     <use xlink:href="#DejaVuSans-2d" x="303.466797"/>
     <use xlink:href="#DejaVuSans-33" x="339.550781"/>
     <use xlink:href="#DejaVuSans-2e" x="403.173828"/>
     <use xlink:href="#DejaVuSans-31" x="434.960938"/>
     <use xlink:href="#DejaVuSans-2d" x="498.583984"/>
     <use xlink:href="#DejaVuSans-38" x="534.667969"/>
     <use xlink:href="#DejaVuSans-42" x="598.291016"/>
     <use xlink:href="#DejaVuSans-2d" x="666.894531"/>
     <use xlink:href="#DejaVuSans-49" x="702.978516"/>
     <use xlink:href="#DejaVuSans-6e" x="732.470703"/>
     <use xlink:href="#DejaVuSans-73" x="795.849609"/>
     <use xlink:href="#DejaVuSans-74" x="847.949219"/>
     <use xlink:href="#DejaVuSans-72" x="887.158203"/>
     <use xlink:href="#DejaVuSans-75" x="928.271484"/>
     <use xlink:href="#DejaVuSans-63" x="991.650391"/>
     <use xlink:href="#DejaVuSans-74" x="1046.630859"/>
     <use xlink:href="#DejaVuSans-20" x="1085.839844"/>
     <use xlink:href="#DejaVuSans-2d" x="1117.626953"/>
     <use xlink:href="#DejaVuSans-20" x="1153.710938"/>
     <use xlink:href="#DejaVuSans-70" x="1185.498047"/>
     <use xlink:href="#DejaVuSans-61" x="1248.974609"/>
     <use xlink:href="#DejaVuSans-73" x="1310.253906"/>
     <use xlink:href="#DejaVuSans-73" x="1362.353516"/>
     <use xlink:href="#DejaVuSans-40" x="1414.453125"/>
     <use xlink:href="#DejaVuSans-6b" x="1514.453125"/>
    </g>
   </g>
   <g id="legend_1">
    <g id="patch_7">
     <path d="M 336.259375 239.504 
L 414.2 239.504 
Q 416.2 239.504 416.2 237.504 
L 416.2 165.113375 
Q 416.2 163.113375 414.2 163.113375 
L 336.259375 163.113375 
Q 334.259375 163.113375 334.259375 165.113375 
L 334.259375 237.504 
Q 334.259375 239.504 336.259375 239.504 
z
" style="fill: #ffffff; opacity: 0.8; stroke: #cccccc; stroke-linejoin: miter"/>
    </g>
    <g id="line2d_56">
     <path d="M 338.259375 171.211813 
L 348.259375 171.211813 
L 358.259375 171.211813 
" style="fill: none; stroke-dasharray: 3.7,1.6; stroke-dashoffset: 0; stroke: #000000"/>
    </g>
    <g id="text_16">
     <!-- CI lower -->
     <g transform="translate(366.259375 174.711813) scale(0.1 -0.1)">
      <defs>
       <path id="DejaVuSans-43" d="M 4122 4306 
L 4122 3641 
Q 3803 3938 3442 4084 
Q 3081 4231 2675 4231 
Q 1875 4231 1450 3742 
Q 1025 3253 1025 2328 
Q 1025 1406 1450 917 
Q 1875 428 2675 428 
Q 3081 428 3442 575 
Q 3803 722 4122 1019 
L 4122 359 
Q 3791 134 3420 21 
Q 3050 -91 2638 -91 
Q 1578 -91 968 557 
Q 359 1206 359 2328 
Q 359 3453 968 4101 
Q 1578 4750 2638 4750 
Q 3056 4750 3426 4639 
Q 3797 4528 4122 4306 
z
" transform="scale(0.015625)"/>
       <path id="DejaVuSans-6f" d="M 1959 3097 
Q 1497 3097 1228 2736 
Q 959 2375 959 1747 
Q 959 1119 1226 758 
Q 1494 397 1959 397 
Q 2419 397 2687 759 
Q 2956 1122 2956 1747 
Q 2956 2369 2687 2733 
Q 2419 3097 1959 3097 
z
M 1959 3584 
Q 2709 3584 3137 3096 
Q 3566 2609 3566 1747 
Q 3566 888 3137 398 
Q 2709 -91 1959 -91 
Q 1206 -91 779 398 
Q 353 888 353 1747 
Q 353 2609 779 3096 
Q 1206 3584 1959 3584 
z
" transform="scale(0.015625)"/>
       <path id="DejaVuSans-77" d="M 269 3500 
L 844 3500 
L 1563 769 
L 2278 3500 
L 2956 3500 
L 3675 769 
L 4391 3500 
L 4966 3500 
L 4050 0 
L 3372 0 
L 2619 2869 
L 1863 0 
L 1184 0 
L 269 3500 
z
" transform="scale(0.015625)"/>
       <path id="DejaVuSans-65" d="M 3597 1894 
L 3597 1613 
L 953 1613 
Q 991 1019 1311 708 
Q 1631 397 2203 397 
Q 2534 397 2845 478 
Q 3156 559 3463 722 
L 3463 178 
Q 3153 47 2828 -22 
Q 2503 -91 2169 -91 
Q 1331 -91 842 396 
Q 353 884 353 1716 
Q 353 2575 817 3079 
Q 1281 3584 2069 3584 
Q 2775 3584 3186 3129 
Q 3597 2675 3597 1894 
z
M 3022 2063 
Q 3016 2534 2758 2815 
Q 2500 3097 2075 3097 
Q 1594 3097 1305 2825 
Q 1016 2553 972 2059 
L 3022 2063 
z
" transform="scale(0.015625)"/>
      </defs>
      <use xlink:href="#DejaVuSans-43"/>
      <use xlink:href="#DejaVuSans-49" x="69.824219"/>
      <use xlink:href="#DejaVuSans-20" x="99.316406"/>
      <use xlink:href="#DejaVuSans-6c" x="131.103516"/>
      <use xlink:href="#DejaVuSans-6f" x="158.886719"/>
      <use xlink:href="#DejaVuSans-77" x="220.068359"/>
      <use xlink:href="#DejaVuSans-65" x="301.855469"/>
      <use xlink:href="#DejaVuSans-72" x="363.378906"/>
     </g>
    </g>
    <g id="line2d_57">
     <path d="M 338.259375 185.889938 
L 348.259375 185.889938 
L 358.259375 185.889938 
" style="fill: none; stroke-dasharray: 1,1.65; stroke-dashoffset: 0; stroke: #000000"/>
    </g>
    <g id="text_17">
     <!-- CI upper -->
     <g transform="translate(366.259375 189.389938) scale(0.1 -0.1)">
      <use xlink:href="#DejaVuSans-43"/>
      <use xlink:href="#DejaVuSans-49" x="69.824219"/>
      <use xlink:href="#DejaVuSans-20" x="99.316406"/>
      <use xlink:href="#DejaVuSans-75" x="131.103516"/>
      <use xlink:href="#DejaVuSans-70" x="194.482422"/>
      <use xlink:href="#DejaVuSans-70" x="257.958984"/>
      <use xlink:href="#DejaVuSans-65" x="321.435547"/>
      <use xlink:href="#DejaVuSans-72" x="382.958984"/>
     </g>
    </g>
    <g id="line2d_58">
     <path d="M 338.259375 200.568062 
L 348.259375 200.568062 
L 358.259375 200.568062 
" style="fill: none; stroke: #1f77b4; stroke-width: 2; stroke-linecap: square"/>
    </g>
    <g id="text_18">
     <!-- baseline -->
     <g transform="translate(366.259375 204.068062) scale(0.1 -0.1)">
      <defs>
       <path id="DejaVuSans-62" d="M 3116 1747 
Q 3116 2381 2855 2742 
Q 2594 3103 2138 3103 
Q 1681 3103 1420 2742 
Q 1159 2381 1159 1747 
Q 1159 1113 1420 752 
Q 1681 391 2138 391 
Q 2594 391 2855 752 
Q 3116 1113 3116 1747 
z
M 1159 2969 
Q 1341 3281 1617 3432 
Q 1894 3584 2278 3584 
Q 2916 3584 3314 3078 
Q 3713 2572 3713 1747 
Q 3713 922 3314 415 
Q 2916 -91 2278 -91 
Q 1894 -91 1617 61 
Q 1341 213 1159 525 
L 1159 0 
L 581 0 
L 581 4863 
L 1159 4863 
L 1159 2969 
z
" transform="scale(0.015625)"/>
       <path id="DejaVuSans-69" d="M 603 3500 
L 1178 3500 
L 1178 0 
L 603 0 
L 603 3500 
z
M 603 4863 
L 1178 4863 
L 1178 4134 
L 603 4134 
L 603 4863 
z
" transform="scale(0.015625)"/>
      </defs>
      <use xlink:href="#DejaVuSans-62"/>
      <use xlink:href="#DejaVuSans-61" x="63.476562"/>
      <use xlink:href="#DejaVuSans-73" x="124.755859"/>
      <use xlink:href="#DejaVuSans-65" x="176.855469"/>
      <use xlink:href="#DejaVuSans-6c" x="238.378906"/>
      <use xlink:href="#DejaVuSans-69" x="266.162109"/>
      <use xlink:href="#DejaVuSans-6e" x="293.945312"/>
      <use xlink:href="#DejaVuSans-65" x="357.324219"/>
     </g>
    </g>
    <g id="line2d_59">
     <path d="M 338.259375 215.246188 
L 348.259375 215.246188 
L 358.259375 215.246188 
" style="fill: none; stroke: #ff7f0e; stroke-width: 2; stroke-linecap: square"/>
    </g>
    <g id="text_19">
     <!-- CoT -->
     <g transform="translate(366.259375 218.746188) scale(0.1 -0.1)">
      <defs>
       <path id="DejaVuSans-54" d="M -19 4666 
L 3928 4666 
L 3928 4134 
L 2272 4134 
L 2272 0 
L 1638 0 
L 1638 4134 
L -19 4134 
L -19 4666 
z
" transform="scale(0.015625)"/>
      </defs>
      <use xlink:href="#DejaVuSans-43"/>
      <use xlink:href="#DejaVuSans-6f" x="69.824219"/>
      <use xlink:href="#DejaVuSans-54" x="131.005859"/>
     </g>
    </g>
    <g id="line2d_60">
     <path d="M 338.259375 229.924313 
L 348.259375 229.924313 
L 358.259375 229.924313 
" style="fill: none; stroke: #2ca02c; stroke-width: 2; stroke-linecap: square"/>
    </g>
    <g id="text_20">
     <!-- feedback -->
     <g transform="translate(366.259375 233.424313) scale(0.1 -0.1)">
      <defs>
       <path id="DejaVuSans-66" d="M 2375 4863 
L 2375 4384 
L 1825 4384 
Q 1516 4384 1395 4259 
Q 1275 4134 1275 3809 
L 1275 3500 
L 2222 3500 
L 2222 3053 
L 1275 3053 
L 1275 0 
L 697 0 
L 697 3053 
L 147 3053 
L 147 3500 
L 697 3500 
L 697 3744 
Q 697 4328 969 4595 
Q 1241 4863 1831 4863 
L 2375 4863 
z
" transform="scale(0.015625)"/>
       <path id="DejaVuSans-64" d="M 2906 2969 
L 2906 4863 
L 3481 4863 
L 3481 0 
L 2906 0 
L 2906 525 
Q 2725 213 2448 61 
Q 2172 -91 1784 -91 
Q 1150 -91 751 415 
Q 353 922 353 1747 
Q 353 2572 751 3078 
Q 1150 3584 1784 3584 
Q 2172 3584 2448 3432 
Q 2725 3281 2906 2969 
z
M 947 1747 
Q 947 1113 1208 752 
Q 1469 391 1925 391 
Q 2381 391 2643 752 
Q 2906 1113 2906 1747 
Q 2906 2381 2643 2742 
Q 2381 3103 1925 3103 
Q 1469 3103 1208 2742 
Q 947 2381 947 1747 
z
" transform="scale(0.015625)"/>
      </defs>
      <use xlink:href="#DejaVuSans-66"/>
      <use xlink:href="#DejaVuSans-65" x="35.205078"/>
      <use xlink:href="#DejaVuSans-65" x="96.728516"/>
      <use xlink:href="#DejaVuSans-64" x="158.251953"/>
      <use xlink:href="#DejaVuSans-62" x="221.728516"/>
      <use xlink:href="#DejaVuSans-61" x="285.205078"/>
      <use xlink:href="#DejaVuSans-63" x="346.484375"/>
      <use xlink:href="#DejaVuSans-6b" x="401.464844"/>
     </g>
    </g>
   </g>
  </g>
 </g>
 <defs>
  <clipPath id="p588c089f8a">
   <rect x="53.72" y="25.92" width="367.48" height="218.584"/>
  </clipPath>
 </defs>
</svg>
