<?xml version="1.0" encoding="utf-8" standalone="no"?>
<!DOCTYPE svg PUBLIC "-//W3C//DTD SVG 1.1//EN"
  "http://www.w3.org/Graphics/SVG/1.1/DTD/svg11.dtd">
<svg xmlns:xlink="http://www.w3.org/1999/xlink" width="432pt" height="288pt" viewBox="0 0 432 288" xmlns="http://www.w3.org/2000/svg" version="1.1">
 <metadata>
  <rdf:RDF xmlns:dc="http://purl.org/dc/elements/1.1/" xmlns:cc="http://creativecommons.org/ns#" xmlns:rdf="http://www.w3.org/1999/02/22-rdf-syntax-ns#">
   <cc:Work>
    <dc:type rdf:resource="http://purl.org/dc/dcmitype/StillImage"/>
    <dc:date>2025-12-10T14:39:28.957638</dc:date>
    <dc:format>image/svg+xml</dc:format>
    <dc:creator>
     <cc:Agent>
      <dc:title>Matplotlib v3.9.0, https://matplotlib.org/</dc:title>
     </cc:Agent>
    </dc:creator>
   </cc:Work>
  </rdf:RDF>
 </metadata>
 <defs>
  <style type="text/css">*{stroke-linejoin: round; stroke-linecap: butt}</style>
 </defs>
 <g id="figure_1">
  <g id="patch_1">
   <path d="M 0 288 
L 432 288 
L 432 0 
L 0 0 
z
" style="fill: #ffffff"/>
  </g>
  <g id="axes_1">
   <g id="patch_2">
    <path d="M 53.72 244.504 
L 421.2 244.504 
L 421.2 25.92 
L 53.72 25.92 
z
" style="fill: #ffffff"/>
   </g>
   <g id="matplotlib.axis_1">
    <g id="xtick_1">
     <g id="line2d_1">
      <path d="M 70.423636 244.504 
L 70.423636 25.92 
" clip-path="url(#pd51db1a0e0)" style="fill: none; stroke-dasharray: 0.5,0.825; stroke-dashoffset: 0; stroke: #b0b0b0; stroke-opacity: 0.7; stroke-width: 0.5"/>
     </g>
     <g id="line2d_2">
      <defs>
       <path id="me6aa72d130" d="M 0 0 
L 0 3.5 
" style="stroke: #000000; stroke-width: 0.8"/>
      </defs>
      <g>
       <use xlink:href="#me6aa72d130" x="70.423636" y="244.504" style="stroke: #000000; stroke-width: 0.8"/>
      </g>
     </g>
     <g id="text_1">
      <!-- $\mathdefault{10^{0}}$ -->
      <g transform="translate(61.623636 259.102438) scale(0.1 -0.1)">
       <defs>
        <path id="DejaVuSans-31" d="M 794 531 
L 1825 531 
L 1825 4091 
L 703 3866 
L 703 4441 
L 1819 4666 
L 2450 4666 
L 2450 531 
L 3481 531 
L 3481 0 
L 794 0 
L 794 531 
z
" transform="scale(0.015625)"/>
        <path id="DejaVuSans-30" d="M 2034 4250 
Q 1547 4250 1301 3770 
Q 1056 3291 1056 2328 
Q 1056 1369 1301 889 
Q 1547 409 2034 409 
Q 2525 409 2770 889 
Q 3016 1369 3016 2328 
Q 3016 3291 2770 3770 
Q 2525 4250 2034 4250 
z
M 2034 4750 
Q 2819 4750 3233 4129 
Q 3647 3509 3647 2328 
Q 3647 1150 3233 529 
Q 2819 -91 2034 -91 
Q 1250 -91 836 529 
Q 422 1150 422 2328 
Q 422 3509 836 4129 
Q 1250 4750 2034 4750 
z
" transform="scale(0.015625)"/>
       </defs>
       <use xlink:href="#DejaVuSans-31" transform="translate(0 0.765625)"/>
       <use xlink:href="#DejaVuSans-30" transform="translate(63.623047 0.765625)"/>
       <use xlink:href="#DejaVuSans-30" transform="translate(128.203125 39.046875) scale(0.7)"/>
      </g>
     </g>
    </g>
    <g id="xtick_2">
     <g id="line2d_3">
      <path d="M 120.706592 244.504 
L 120.706592 25.92 
" clip-path="url(#pd51db1a0e0)" style="fill: none; stroke-dasharray: 0.5,0.825; stroke-dashoffset: 0; stroke: #b0b0b0; stroke-opacity: 0.7; stroke-width: 0.5"/>
     </g>
     <g id="line2d_4">
      <g>
       <use xlink:href="#me6aa72d130" x="120.706592" y="244.504" style="stroke: #000000; stroke-width: 0.8"/>
      </g>
     </g>
    </g>
    <g id="xtick_3">
     <g id="line2d_5">
      <path d="M 187.177044 244.504 
L 187.177044 25.92 
" clip-path="url(#pd51db1a0e0)" style="fill: none; stroke-dasharray: 0.5,0.825; stroke-dashoffset: 0; stroke: #b0b0b0; stroke-opacity: 0.7; stroke-width: 0.5"/>
     </g>
     <g id="line2d_6">
      <g>
       <use xlink:href="#me6aa72d130" x="187.177044" y="244.504" style="stroke: #000000; stroke-width: 0.8"/>
      </g>
     </g>
    </g>
    <g id="xtick_4">
     <g id="line2d_7">
      <path d="M 237.46 244.504 
L 237.46 25.92 
" clip-path="url(#pd51db1a0e0)" style="fill: none; stroke-dasharray: 0.5,0.825; stroke-dashoffset: 0; stroke: #b0b0b0; stroke-opacity: 0.7; stroke-width: 0.5"/>
     </g>
     <g id="line2d_8">
      <g>
       <use xlink:href="#me6aa72d130" x="237.46" y="244.504" style="stroke: #000000; stroke-width: 0.8"/>
      </g>
     </g>
     <g id="text_2">
      <!-- $\mathdefault{10^{1}}$ -->
      <g transform="translate(228.66 259.102438) scale(0.1 -0.1)">
       <use xlink:href="#DejaVuSans-31" transform="translate(0 0.684375)"/>
       <use xlink:href="#DejaVuSans-30" transform="translate(63.623047 0.684375)"/>
       <use xlink:href="#DejaVuSans-31" transform="translate(128.203125 38.965625) scale(0.7)"/>
      </g>
     </g>
    </g>
    <g id="xtick_5">
     <g id="line2d_9">
      <path d="M 287.742956 244.504 
L 287.742956 25.92 
" clip-path="url(#pd51db1a0e0)" style="fill: none; stroke-dasharray: 0.5,0.825; stroke-dashoffset: 0; stroke: #b0b0b0; stroke-opacity: 0.7; stroke-width: 0.5"/>
     </g>
     <g id="line2d_10">
      <g>
       <use xlink:href="#me6aa72d130" x="287.742956" y="244.504" style="stroke: #000000; stroke-width: 0.8"/>
      </g>
     </g>
    </g>
    <g id="xtick_6">
     <g id="line2d_11">
      <path d="M 354.213408 244.504 
L 354.213408 25.92 
" clip-path="url(#pd51db1a0e0)" style="fill: none; stroke-dasharray: 0.5,0.825; stroke-dashoffset: 0; stroke: #b0b0b0; stroke-opacity: 0.7; stroke-width: 0.5"/>
     </g>
     <g id="line2d_12">
      <g>
       <use xlink:href="#me6aa72d130" x="354.213408" y="244.504" style="stroke: #000000; stroke-width: 0.8"/>
      </g>
     </g>
    </g>
    <g id="xtick_7">
     <g id="line2d_13">
      <path d="M 404.496364 244.504 
L 404.496364 25.92 
" clip-path="url(#pd51db1a0e0)" style="fill: none; stroke-dasharray: 0.5,0.825; stroke-dashoffset: 0; stroke: #b0b0b0; stroke-opacity: 0.7; stroke-width: 0.5"/>
     </g>
     <g id="line2d_14">
      <g>
       <use xlink:href="#me6aa72d130" x="404.496364" y="244.504" style="stroke: #000000; stroke-width: 0.8"/>
      </g>
     </g>
     <g id="text_3">
      <!-- $\mathdefault{10^{2}}$ -->
      <g transform="translate(395.696364 259.102438) scale(0.1 -0.1)">
       <defs>
        <path id="DejaVuSans-32" d="M 1228 531 
L 3431 531 
L 3431 0 
L 469 0 
L 469 531 
Q 828 903 1448 1529 
Q 2069 2156 2228 2338 
Q 2531 2678 2651 2914 
Q 2772 3150 2772 3378 
Q 2772 3750 2511 3984 
Q 2250 4219 1831 4219 
Q 1534 4219 1204 4116 
Q 875 4013 500 3803 
L 500 4441 
Q 881 4594 1212 4672 
Q 1544 4750 1819 4750 
Q 2544 4750 2975 4387 
Q 3406 4025 3406 3419 
Q 3406 3131 3298 2873 
Q 3191 2616 2906 2266 
Q 2828 2175 2409 1742 
Q 1991 1309 1228 531 
z
" transform="scale(0.015625)"/>
       </defs>
       <use xlink:href="#DejaVuSans-31" transform="translate(0 0.765625)"/>
       <use xlink:href="#DejaVuSans-30" transform="translate(63.623047 0.765625)"/>
       <use xlink:href="#DejaVuSans-32" transform="translate(128.203125 39.046875) scale(0.7)"/>
      </g>
     </g>
    </g>
    <g id="xtick_8">
     <g id="line2d_15">
      <defs>
       <path id="md6ad90d9f5" d="M 0 0 
L 0 2 
" style="stroke: #000000; stroke-width: 0.6"/>
      </defs>
      <g>
       <use xlink:href="#md6ad90d9f5" x="54.23614" y="244.504" style="stroke: #000000; stroke-width: 0.6"/>
      </g>
     </g>
    </g>
    <g id="xtick_9">
     <g id="line2d_16">
      <g>
       <use xlink:href="#md6ad90d9f5" x="62.780472" y="244.504" style="stroke: #000000; stroke-width: 0.6"/>
      </g>
     </g>
    </g>
    <g id="xtick_10">
     <g id="line2d_17">
      <g>
       <use xlink:href="#md6ad90d9f5" x="150.120236" y="244.504" style="stroke: #000000; stroke-width: 0.6"/>
      </g>
     </g>
    </g>
    <g id="xtick_11">
     <g id="line2d_18">
      <g>
       <use xlink:href="#md6ad90d9f5" x="170.989548" y="244.504" style="stroke: #000000; stroke-width: 0.6"/>
      </g>
     </g>
    </g>
    <g id="xtick_12">
     <g id="line2d_19">
      <g>
       <use xlink:href="#md6ad90d9f5" x="200.403192" y="244.504" style="stroke: #000000; stroke-width: 0.6"/>
      </g>
     </g>
    </g>
    <g id="xtick_13">
     <g id="line2d_20">
      <g>
       <use xlink:href="#md6ad90d9f5" x="211.58574" y="244.504" style="stroke: #000000; stroke-width: 0.6"/>
      </g>
     </g>
    </g>
    <g id="xtick_14">
     <g id="line2d_21">
      <g>
       <use xlink:href="#md6ad90d9f5" x="221.272504" y="244.504" style="stroke: #000000; stroke-width: 0.6"/>
      </g>
     </g>
    </g>
    <g id="xtick_15">
     <g id="line2d_22">
      <g>
       <use xlink:href="#md6ad90d9f5" x="229.816835" y="244.504" style="stroke: #000000; stroke-width: 0.6"/>
      </g>
     </g>
    </g>
    <g id="xtick_16">
     <g id="line2d_23">
      <g>
       <use xlink:href="#md6ad90d9f5" x="317.156599" y="244.504" style="stroke: #000000; stroke-width: 0.6"/>
      </g>
     </g>
    </g>
    <g id="xtick_17">
     <g id="line2d_24">
      <g>
       <use xlink:href="#md6ad90d9f5" x="338.025912" y="244.504" style="stroke: #000000; stroke-width: 0.6"/>
      </g>
     </g>
    </g>
    <g id="xtick_18">
     <g id="line2d_25">
      <g>
       <use xlink:href="#md6ad90d9f5" x="367.439555" y="244.504" style="stroke: #000000; stroke-width: 0.6"/>
      </g>
     </g>
    </g>
    <g id="xtick_19">
     <g id="line2d_26">
      <g>
       <use xlink:href="#md6ad90d9f5" x="378.622104" y="244.504" style="stroke: #000000; stroke-width: 0.6"/>
      </g>
     </g>
    </g>
    <g id="xtick_20">
     <g id="line2d_27">
      <g>
       <use xlink:href="#md6ad90d9f5" x="388.308867" y="244.504" style="stroke: #000000; stroke-width: 0.6"/>
      </g>
     </g>
    </g>
    <g id="xtick_21">
     <g id="line2d_28">
      <g>
       <use xlink:href="#md6ad90d9f5" x="396.853199" y="244.504" style="stroke: #000000; stroke-width: 0.6"/>
      </g>
     </g>
    </g>
    <g id="text_4">
     <!-- k -->
     <g transform="translate(234.564687 272.780563) scale(0.1 -0.1)">
      <defs>
       <path id="DejaVuSans-6b" d="M 581 4863 
L 1159 4863 
L 1159 1991 
L 2875 3500 
L 3609 3500 
L 1753 1863 
L 3688 0 
L 2938 0 
L 1159 1709 
L 1159 0 
L 581 0 
L 581 4863 
z
" transform="scale(0.015625)"/>
      </defs>
      <use xlink:href="#DejaVuSans-6b"/>
     </g>
    </g>
   </g>
   <g id="matplotlib.axis_2">
    <g id="ytick_1">
     <g id="line2d_29">
      <path d="M 53.72 244.504 
L 421.2 244.504 
" clip-path="url(#pd51db1a0e0)" style="fill: none; stroke-dasharray: 0.5,0.825; stroke-dashoffset: 0; stroke: #b0b0b0; stroke-opacity: 0.7; stroke-width: 0.5"/>
     </g>
     <g id="line2d_30">
      <defs>
       <path id="m0f8d9560e8" d="M 0 0 
L -3.5 0 
" style="stroke: #000000; stroke-width: 0.8"/>
      </defs>
      <g>
       <use xlink:href="#m0f8d9560e8" x="53.72" y="244.504" style="stroke: #000000; stroke-width: 0.8"/>
      </g>
     </g>
     <g id="text_5">
      <!-- 0.60 -->
      <g transform="translate(24.454375 248.303219) scale(0.1 -0.1)">
       <defs>
        <path id="DejaVuSans-2e" d="M 684 794 
L 1344 794 
L 1344 0 
L 684 0 
L 684 794 
z
" transform="scale(0.015625)"/>
        <path id="DejaVuSans-36" d="M 2113 2584 
Q 1688 2584 1439 2293 
Q 1191 2003 1191 1497 
Q 1191 994 1439 701 
Q 1688 409 2113 409 
Q 2538 409 2786 701 
Q 3034 994 3034 1497 
Q 3034 2003 2786 2293 
Q 2538 2584 2113 2584 
z
M 3366 4563 
L 3366 3988 
Q 3128 4100 2886 4159 
Q 2644 4219 2406 4219 
Q 1781 4219 1451 3797 
Q 1122 3375 1075 2522 
Q 1259 2794 1537 2939 
Q 1816 3084 2150 3084 
Q 2853 3084 3261 2657 
Q 3669 2231 3669 1497 
Q 3669 778 3244 343 
Q 2819 -91 2113 -91 
Q 1303 -91 875 529 
Q 447 1150 447 2328 
Q 447 3434 972 4092 
Q 1497 4750 2381 4750 
Q 2619 4750 2861 4703 
Q 3103 4656 3366 4563 
z
" transform="scale(0.015625)"/>
       </defs>
       <use xlink:href="#DejaVuSans-30"/>
       <use xlink:href="#DejaVuSans-2e" x="63.623047"/>
       <use xlink:href="#DejaVuSans-36" x="95.410156"/>
       <use xlink:href="#DejaVuSans-30" x="159.033203"/>
      </g>
     </g>
    </g>
    <g id="ytick_2">
     <g id="line2d_31">
      <path d="M 53.72 217.181 
L 421.2 217.181 
" clip-path="url(#pd51db1a0e0)" style="fill: none; stroke-dasharray: 0.5,0.825; stroke-dashoffset: 0; stroke: #b0b0b0; stroke-opacity: 0.7; stroke-width: 0.5"/>
     </g>
     <g id="line2d_32">
      <g>
       <use xlink:href="#m0f8d9560e8" x="53.72" y="217.181" style="stroke: #000000; stroke-width: 0.8"/>
      </g>
     </g>
     <g id="text_6">
      <!-- 0.65 -->
      <g transform="translate(24.454375 220.980219) scale(0.1 -0.1)">
       <defs>
        <path id="DejaVuSans-35" d="M 691 4666 
L 3169 4666 
L 3169 4134 
L 1269 4134 
L 1269 2991 
Q 1406 3038 1543 3061 
Q 1681 3084 1819 3084 
Q 2600 3084 3056 2656 
Q 3513 2228 3513 1497 
Q 3513 744 3044 326 
Q 2575 -91 1722 -91 
Q 1428 -91 1123 -41 
Q 819 9 494 109 
L 494 744 
Q 775 591 1075 516 
Q 1375 441 1709 441 
Q 2250 441 2565 725 
Q 2881 1009 2881 1497 
Q 2881 1984 2565 2268 
Q 2250 2553 1709 2553 
Q 1456 2553 1204 2497 
Q 953 2441 691 2322 
L 691 4666 
z
" transform="scale(0.015625)"/>
       </defs>
       <use xlink:href="#DejaVuSans-30"/>
       <use xlink:href="#DejaVuSans-2e" x="63.623047"/>
       <use xlink:href="#DejaVuSans-36" x="95.410156"/>
       <use xlink:href="#DejaVuSans-35" x="159.033203"/>
      </g>
     </g>
    </g>
    <g id="ytick_3">
     <g id="line2d_33">
      <path d="M 53.72 189.858 
L 421.2 189.858 
" clip-path="url(#pd51db1a0e0)" style="fill: none; stroke-dasharray: 0.5,0.825; stroke-dashoffset: 0; stroke: #b0b0b0; stroke-opacity: 0.7; stroke-width: 0.5"/>
     </g>
     <g id="line2d_34">
      <g>
       <use xlink:href="#m0f8d9560e8" x="53.72" y="189.858" style="stroke: #000000; stroke-width: 0.8"/>
      </g>
     </g>
     <g id="text_7">
      <!-- 0.70 -->
      <g transform="translate(24.454375 193.657219) scale(0.1 -0.1)">
       <defs>
        <path id="DejaVuSans-37" d="M 525 4666 
L 3525 4666 
L 3525 4397 
L 1831 0 
L 1172 0 
L 2766 4134 
L 525 4134 
L 525 4666 
z
" transform="scale(0.015625)"/>
       </defs>
       <use xlink:href="#DejaVuSans-30"/>
       <use xlink:href="#DejaVuSans-2e" x="63.623047"/>
       <use xlink:href="#DejaVuSans-37" x="95.410156"/>
       <use xlink:href="#DejaVuSans-30" x="159.033203"/>
      </g>
     </g>
    </g>
    <g id="ytick_4">
     <g id="line2d_35">
      <path d="M 53.72 162.535 
L 421.2 162.535 
" clip-path="url(#pd51db1a0e0)" style="fill: none; stroke-dasharray: 0.5,0.825; stroke-dashoffset: 0; stroke: #b0b0b0; stroke-opacity: 0.7; stroke-width: 0.5"/>
     </g>
     <g id="line2d_36">
      <g>
       <use xlink:href="#m0f8d9560e8" x="53.72" y="162.535" style="stroke: #000000; stroke-width: 0.8"/>
      </g>
     </g>
     <g id="text_8">
      <!-- 0.75 -->
      <g transform="translate(24.454375 166.334219) scale(0.1 -0.1)">
       <use xlink:href="#DejaVuSans-30"/>
       <use xlink:href="#DejaVuSans-2e" x="63.623047"/>
       <use xlink:href="#DejaVuSans-37" x="95.410156"/>
       <use xlink:href="#DejaVuSans-35" x="159.033203"/>
      </g>
     </g>
    </g>
    <g id="ytick_5">
     <g id="line2d_37">
      <path d="M 53.72 135.212 
L 421.2 135.212 
" clip-path="url(#pd51db1a0e0)" style="fill: none; stroke-dasharray: 0.5,0.825; stroke-dashoffset: 0; stroke: #b0b0b0; stroke-opacity: 0.7; stroke-width: 0.5"/>
     </g>
     <g id="line2d_38">
      <g>
       <use xlink:href="#m0f8d9560e8" x="53.72" y="135.212" style="stroke: #000000; stroke-width: 0.8"/>
      </g>
     </g>
     <g id="text_9">
      <!-- 0.80 -->
      <g transform="translate(24.454375 139.011219) scale(0.1 -0.1)">
       <defs>
        <path id="DejaVuSans-38" d="M 2034 2216 
Q 1584 2216 1326 1975 
Q 1069 1734 1069 1313 
Q 1069 891 1326 650 
Q 1584 409 2034 409 
Q 2484 409 2743 651 
Q 3003 894 3003 1313 
Q 3003 1734 2745 1975 
Q 2488 2216 2034 2216 
z
M 1403 2484 
Q 997 2584 770 2862 
Q 544 3141 544 3541 
Q 544 4100 942 4425 
Q 1341 4750 2034 4750 
Q 2731 4750 3128 4425 
Q 3525 4100 3525 3541 
Q 3525 3141 3298 2862 
Q 3072 2584 2669 2484 
Q 3125 2378 3379 2068 
Q 3634 1759 3634 1313 
Q 3634 634 3220 271 
Q 2806 -91 2034 -91 
Q 1263 -91 848 271 
Q 434 634 434 1313 
Q 434 1759 690 2068 
Q 947 2378 1403 2484 
z
M 1172 3481 
Q 1172 3119 1398 2916 
Q 1625 2713 2034 2713 
Q 2441 2713 2670 2916 
Q 2900 3119 2900 3481 
Q 2900 3844 2670 4047 
Q 2441 4250 2034 4250 
Q 1625 4250 1398 4047 
Q 1172 3844 1172 3481 
z
" transform="scale(0.015625)"/>
       </defs>
       <use xlink:href="#DejaVuSans-30"/>
       <use xlink:href="#DejaVuSans-2e" x="63.623047"/>
       <use xlink:href="#DejaVuSans-38" x="95.410156"/>
       <use xlink:href="#DejaVuSans-30" x="159.033203"/>
      </g>
     </g>
    </g>
    <g id="ytick_6">
     <g id="line2d_39">
      <path d="M 53.72 107.889 
L 421.2 107.889 
" clip-path="url(#pd51db1a0e0)" style="fill: none; stroke-dasharray: 0.5,0.825; stroke-dashoffset: 0; stroke: #b0b0b0; stroke-opacity: 0.7; stroke-width: 0.5"/>
     </g>
     <g id="line2d_40">
      <g>
       <use xlink:href="#m0f8d9560e8" x="53.72" y="107.889" style="stroke: #000000; stroke-width: 0.8"/>
      </g>
     </g>
     <g id="text_10">
      <!-- 0.85 -->
      <g transform="translate(24.454375 111.688219) scale(0.1 -0.1)">
       <use xlink:href="#DejaVuSans-30"/>
       <use xlink:href="#DejaVuSans-2e" x="63.623047"/>
       <use xlink:href="#DejaVuSans-38" x="95.410156"/>
       <use xlink:href="#DejaVuSans-35" x="159.033203"/>
      </g>
     </g>
    </g>
    <g id="ytick_7">
     <g id="line2d_41">
      <path d="M 53.72 80.566 
L 421.2 80.566 
" clip-path="url(#pd51db1a0e0)" style="fill: none; stroke-dasharray: 0.5,0.825; stroke-dashoffset: 0; stroke: #b0b0b0; stroke-opacity: 0.7; stroke-width: 0.5"/>
     </g>
     <g id="line2d_42">
      <g>
       <use xlink:href="#m0f8d9560e8" x="53.72" y="80.566" style="stroke: #000000; stroke-width: 0.8"/>
      </g>
     </g>
     <g id="text_11">
      <!-- 0.90 -->
      <g transform="translate(24.454375 84.365219) scale(0.1 -0.1)">
       <defs>
        <path id="DejaVuSans-39" d="M 703 97 
L 703 672 
Q 941 559 1184 500 
Q 1428 441 1663 441 
Q 2288 441 2617 861 
Q 2947 1281 2994 2138 
Q 2813 1869 2534 1725 
Q 2256 1581 1919 1581 
Q 1219 1581 811 2004 
Q 403 2428 403 3163 
Q 403 3881 828 4315 
Q 1253 4750 1959 4750 
Q 2769 4750 3195 4129 
Q 3622 3509 3622 2328 
Q 3622 1225 3098 567 
Q 2575 -91 1691 -91 
Q 1453 -91 1209 -44 
Q 966 3 703 97 
z
M 1959 2075 
Q 2384 2075 2632 2365 
Q 2881 2656 2881 3163 
Q 2881 3666 2632 3958 
Q 2384 4250 1959 4250 
Q 1534 4250 1286 3958 
Q 1038 3666 1038 3163 
Q 1038 2656 1286 2365 
Q 1534 2075 1959 2075 
z
" transform="scale(0.015625)"/>
       </defs>
       <use xlink:href="#DejaVuSans-30"/>
       <use xlink:href="#DejaVuSans-2e" x="63.623047"/>
       <use xlink:href="#DejaVuSans-39" x="95.410156"/>
       <use xlink:href="#DejaVuSans-30" x="159.033203"/>
      </g>
     </g>
    </g>
    <g id="ytick_8">
     <g id="line2d_43">
      <path d="M 53.72 53.243 
L 421.2 53.243 
" clip-path="url(#pd51db1a0e0)" style="fill: none; stroke-dasharray: 0.5,0.825; stroke-dashoffset: 0; stroke: #b0b0b0; stroke-opacity: 0.7; stroke-width: 0.5"/>
     </g>
     <g id="line2d_44">
      <g>
       <use xlink:href="#m0f8d9560e8" x="53.72" y="53.243" style="stroke: #000000; stroke-width: 0.8"/>
      </g>
     </g>
     <g id="text_12">
      <!-- 0.95 -->
      <g transform="translate(24.454375 57.042219) scale(0.1 -0.1)">
       <use xlink:href="#DejaVuSans-30"/>
       <use xlink:href="#DejaVuSans-2e" x="63.623047"/>
       <use xlink:href="#DejaVuSans-39" x="95.410156"/>
       <use xlink:href="#DejaVuSans-35" x="159.033203"/>
      </g>
     </g>
    </g>
    <g id="ytick_9">
     <g id="line2d_45">
      <path d="M 53.72 25.92 
L 421.2 25.92 
" clip-path="url(#pd51db1a0e0)" style="fill: none; stroke-dasharray: 0.5,0.825; stroke-dashoffset: 0; stroke: #b0b0b0; stroke-opacity: 0.7; stroke-width: 0.5"/>
     </g>
     <g id="line2d_46">
      <g>
       <use xlink:href="#m0f8d9560e8" x="53.72" y="25.92" style="stroke: #000000; stroke-width: 0.8"/>
      </g>
     </g>
     <g id="text_13">
      <!-- 1.00 -->
      <g transform="translate(24.454375 29.719219) scale(0.1 -0.1)">
       <use xlink:href="#DejaVuSans-31"/>
       <use xlink:href="#DejaVuSans-2e" x="63.623047"/>
       <use xlink:href="#DejaVuSans-30" x="95.410156"/>
       <use xlink:href="#DejaVuSans-30" x="159.033203"/>
      </g>
     </g>
    </g>
    <g id="text_14">
     <!-- D-pass@k -->
     <g transform="translate(18.374688 160.208875) rotate(-90) scale(0.1 -0.1)">
      <defs>
       <path id="DejaVuSans-44" d="M 1259 4147 
L 1259 519 
L 2022 519 
Q 2988 519 3436 956 
Q 3884 1394 3884 2338 
Q 3884 3275 3436 3711 
Q 2988 4147 2022 4147 
L 1259 4147 
z
M 628 4666 
L 1925 4666 
Q 3281 4666 3915 4102 
Q 4550 3538 4550 2338 
Q 4550 1131 3912 565 
Q 3275 0 1925 0 
L 628 0 
L 628 4666 
z
" transform="scale(0.015625)"/>
       <path id="DejaVuSans-2d" d="M 313 2009 
L 1997 2009 
L 1997 1497 
L 313 1497 
L 313 2009 
z
" transform="scale(0.015625)"/>
       <path id="DejaVuSans-70" d="M 1159 525 
L 1159 -1331 
L 581 -1331 
L 581 3500 
L 1159 3500 
L 1159 2969 
Q 1341 3281 1617 3432 
Q 1894 3584 2278 3584 
Q 2916 3584 3314 3078 
Q 3713 2572 3713 1747 
Q 3713 922 3314 415 
Q 2916 -91 2278 -91 
Q 1894 -91 1617 61 
Q 1341 213 1159 525 
z
M 3116 1747 
Q 3116 2381 2855 2742 
Q 2594 3103 2138 3103 
Q 1681 3103 1420 2742 
Q 1159 2381 1159 1747 
Q 1159 1113 1420 752 
Q 1681 391 2138 391 
Q 2594 391 2855 752 
Q 3116 1113 3116 1747 
z
" transform="scale(0.015625)"/>
       <path id="DejaVuSans-61" d="M 2194 1759 
Q 1497 1759 1228 1600 
Q 959 1441 959 1056 
Q 959 750 1161 570 
Q 1363 391 1709 391 
Q 2188 391 2477 730 
Q 2766 1069 2766 1631 
L 2766 1759 
L 2194 1759 
z
M 3341 1997 
L 3341 0 
L 2766 0 
L 2766 531 
Q 2569 213 2275 61 
Q 1981 -91 1556 -91 
Q 1019 -91 701 211 
Q 384 513 384 1019 
Q 384 1609 779 1909 
Q 1175 2209 1959 2209 
L 2766 2209 
L 2766 2266 
Q 2766 2663 2505 2880 
Q 2244 3097 1772 3097 
Q 1472 3097 1187 3025 
Q 903 2953 641 2809 
L 641 3341 
Q 956 3463 1253 3523 
Q 1550 3584 1831 3584 
Q 2591 3584 2966 3190 
Q 3341 2797 3341 1997 
z
" transform="scale(0.015625)"/>
       <path id="DejaVuSans-73" d="M 2834 3397 
L 2834 2853 
Q 2591 2978 2328 3040 
Q 2066 3103 1784 3103 
Q 1356 3103 1142 2972 
Q 928 2841 928 2578 
Q 928 2378 1081 2264 
Q 1234 2150 1697 2047 
L 1894 2003 
Q 2506 1872 2764 1633 
Q 3022 1394 3022 966 
Q 3022 478 2636 193 
Q 2250 -91 1575 -91 
Q 1294 -91 989 -36 
Q 684 19 347 128 
L 347 722 
Q 666 556 975 473 
Q 1284 391 1588 391 
Q 1994 391 2212 530 
Q 2431 669 2431 922 
Q 2431 1156 2273 1281 
Q 2116 1406 1581 1522 
L 1381 1569 
Q 847 1681 609 1914 
Q 372 2147 372 2553 
Q 372 3047 722 3315 
Q 1072 3584 1716 3584 
Q 2034 3584 2315 3537 
Q 2597 3491 2834 3397 
z
" transform="scale(0.015625)"/>
       <path id="DejaVuSans-40" d="M 2381 1678 
Q 2381 1231 2603 976 
Q 2825 722 3213 722 
Q 3597 722 3817 978 
Q 4038 1234 4038 1678 
Q 4038 2116 3813 2373 
Q 3588 2631 3206 2631 
Q 2828 2631 2604 2375 
Q 2381 2119 2381 1678 
z
M 4084 744 
Q 3897 503 3655 389 
Q 3413 275 3091 275 
Q 2553 275 2217 664 
Q 1881 1053 1881 1678 
Q 1881 2303 2218 2693 
Q 2556 3084 3091 3084 
Q 3413 3084 3656 2967 
Q 3900 2850 4084 2613 
L 4084 3022 
L 4531 3022 
L 4531 722 
Q 4988 791 5245 1139 
Q 5503 1488 5503 2041 
Q 5503 2375 5404 2669 
Q 5306 2963 5106 3213 
Q 4781 3622 4314 3839 
Q 3847 4056 3297 4056 
Q 2913 4056 2559 3954 
Q 2206 3853 1906 3653 
Q 1416 3334 1139 2817 
Q 863 2300 863 1697 
Q 863 1200 1042 765 
Q 1222 331 1563 0 
Q 1891 -325 2322 -495 
Q 2753 -666 3244 -666 
Q 3647 -666 4036 -530 
Q 4425 -394 4750 -141 
L 5031 -488 
Q 4641 -791 4180 -952 
Q 3719 -1113 3244 -1113 
Q 2666 -1113 2153 -908 
Q 1641 -703 1241 -313 
Q 841 78 631 592 
Q 422 1106 422 1697 
Q 422 2266 634 2781 
Q 847 3297 1241 3688 
Q 1644 4084 2172 4295 
Q 2700 4506 3291 4506 
Q 3953 4506 4520 4234 
Q 5088 3963 5472 3463 
Q 5706 3156 5829 2797 
Q 5953 2438 5953 2053 
Q 5953 1231 5456 756 
Q 4959 281 4084 263 
L 4084 744 
z
" transform="scale(0.015625)"/>
      </defs>
      <use xlink:href="#DejaVuSans-44"/>
      <use xlink:href="#DejaVuSans-2d" x="77.001953"/>
      <use xlink:href="#DejaVuSans-70" x="113.085938"/>
      <use xlink:href="#DejaVuSans-61" x="176.5625"/>
      <use xlink:href="#DejaVuSans-73" x="237.841797"/>
      <use xlink:href="#DejaVuSans-73" x="289.941406"/>
      <use xlink:href="#DejaVuSans-40" x="342.041016"/>
      <use xlink:href="#DejaVuSans-6b" x="442.041016"/>
     </g>
    </g>
   </g>
   <g id="line2d_47">
    <path d="M 70.423636 237.078573 
L 120.706592 173.056168 
L 150.120236 144.332774 
L 170.989548 128.613001 
L 187.177044 118.899437 
L 200.403192 112.417099 
L 211.58574 107.87313 
L 221.272504 104.578455 
L 229.816835 102.127014 
L 237.46 100.262431 
L 244.374084 98.815247 
L 250.686147 97.670003 
L 256.492683 96.746389 
L 261.868696 95.987724 
L 266.873644 95.353565 
L 271.55546 94.814802 
L 275.95335 94.350321 
L 280.099791 93.944695 
L 284.021988 93.586558 
L 287.742956 93.267465 
L 291.282339 92.981068 
L 294.657039 92.722539 
L 297.881702 92.488148 
L 300.969103 92.274962 
L 303.930452 92.080631 
L 306.775639 91.903236 
L 309.513435 91.741169 
L 312.151652 91.593064 
L 314.69728 91.457732 
L 317.156599 91.334127 
L 319.535271 91.221309 
L 321.838415 91.118428 
L 324.070683 91.024708 
L 326.236306 90.939436 
L 328.339148 90.861951 
L 330.382747 90.791641 
L 332.37035 90.727937 
L 334.304944 90.670309 
L 336.189283 90.618263 
L 338.025912 90.571341 
L 339.817187 90.529113 
L 341.565295 90.49118 
L 343.272267 90.457173 
L 344.939995 90.426745 
L 346.570243 90.399578 
L 348.164658 90.375375 
L 349.724782 90.353861 
L 351.252059 90.334783 
L 352.747843 90.317906 
L 354.213408 90.303015 
L 355.649949 90.28991 
L 357.058595 90.27841 
L 358.440408 90.268348 
L 359.79639 90.25957 
L 361.127491 90.251938 
L 362.434607 90.245322 
L 363.718587 90.239609 
L 364.980236 90.234693 
L 366.220317 90.23048 
L 367.439555 90.226883 
L 368.63864 90.223825 
L 369.818226 90.221238 
L 370.978939 90.21906 
L 372.121371 90.217234 
L 373.246091 90.215713 
L 374.353639 90.214453 
L 375.444531 90.213415 
L 376.519261 90.212566 
L 377.578302 90.211876 
L 378.622104 90.21132 
L 379.651099 90.210874 
L 380.665703 90.210521 
L 381.666311 90.210244 
L 382.653306 90.210028 
L 383.627051 90.209862 
L 384.587899 90.209736 
L 385.536187 90.209642 
L 386.472238 90.209572 
L 387.396365 90.209521 
L 388.308867 90.209484 
L 389.210034 90.209459 
L 390.100143 90.209442 
L 390.979462 90.20943 
L 391.848251 90.209422 
L 392.706758 90.209418 
L 393.555223 90.209415 
L 394.39388 90.209413 
L 395.222951 90.209413 
L 396.042654 90.209412 
L 396.853199 90.209412 
L 397.654787 90.209412 
L 398.447614 90.209412 
L 399.23187 90.209412 
L 400.007738 90.209412 
L 400.775396 90.209412 
L 401.535015 90.209412 
L 402.286762 90.209412 
L 403.030799 90.209412 
L 403.767282 90.209412 
L 404.496364 90.209412 
" clip-path="url(#pd51db1a0e0)" style="fill: none; stroke: #1f77b4; stroke-width: 2; stroke-linecap: square"/>
   </g>
   <g id="line2d_48">
    <path d="M 85.634378 289 
L 120.706592 242.533431 
L 150.120236 212.039874 
L 170.989548 195.913836 
L 187.177044 186.186622 
L 200.403192 181.694612 
L 211.58574 178.337663 
L 221.272504 175.033096 
L 229.816835 173.162322 
L 237.46 171.519849 
L 244.374084 169.699553 
L 250.686147 168.294911 
L 256.492683 166.793732 
L 261.868696 165.836446 
L 266.873644 165.61837 
L 271.55546 164.714041 
L 275.95335 163.947604 
L 280.099791 163.836423 
L 284.021988 162.463575 
L 287.742956 161.921732 
L 291.282339 161.613994 
L 294.657039 161.335389 
L 297.881702 161.20852 
L 300.969103 161.200505 
L 303.930452 161.193865 
L 306.775639 161.18825 
L 309.513435 161.183416 
L 312.151652 161.179193 
L 314.69728 161.175462 
L 317.156599 161.172137 
L 319.535271 161.169155 
L 321.838415 161.166477 
L 324.070683 161.164054 
L 326.236306 161.161861 
L 328.339148 161.159875 
L 330.382747 161.158077 
L 332.37035 161.156452 
L 334.304944 161.154984 
L 336.189283 161.153659 
L 338.025912 161.152465 
L 339.817187 161.151391 
L 341.565295 161.150427 
L 343.272267 161.149563 
L 344.939995 161.145208 
L 346.570243 161.11872 
L 348.164658 161.095121 
L 349.724782 161.074145 
L 351.252059 161.055544 
L 352.747843 161.039089 
L 354.213408 161.02457 
L 355.649949 161.011793 
L 357.058595 161.000581 
L 358.440408 160.99077 
L 359.79639 160.982212 
L 361.127491 160.974717 
L 362.434607 160.967902 
L 363.718587 160.962015 
L 364.980236 160.956951 
L 366.220317 160.952609 
L 367.439555 160.948903 
L 368.63864 160.945753 
L 369.818226 160.943088 
L 370.978939 160.940843 
L 372.121371 160.938962 
L 373.246091 160.937395 
L 374.353639 160.936097 
L 375.444531 160.935027 
L 376.519261 160.934152 
L 377.578302 160.933441 
L 378.622104 160.932868 
L 379.651099 160.932409 
L 380.665703 160.932046 
L 381.666311 160.93176 
L 382.653306 160.931538 
L 383.627051 160.931367 
L 384.587899 160.931237 
L 385.536187 160.931139 
L 386.472238 160.931067 
L 387.396365 160.931015 
L 388.308867 160.930977 
L 389.210034 160.930951 
L 390.100143 160.930933 
L 390.979462 160.930921 
L 391.848251 160.930914 
L 392.706758 160.930909 
L 393.555223 160.930906 
L 394.39388 160.930904 
L 395.222951 160.930903 
L 396.042654 160.930903 
L 396.853199 160.930903 
L 397.654787 160.930903 
L 398.447614 160.930902 
L 399.23187 160.930902 
L 400.007738 160.930902 
L 400.775396 160.930902 
L 401.535015 160.930902 
L 402.286762 160.930902 
L 403.030799 160.930902 
L 403.767282 160.930902 
L 404.496364 160.930902 
" clip-path="url(#pd51db1a0e0)" style="fill: none; stroke-dasharray: 3.7,1.6; stroke-dashoffset: 0; stroke: #1f77b4"/>
   </g>
   <g id="line2d_49">
    <path d="M 70.423636 159.015916 
L 120.706592 100.427639 
L 150.120236 75.270592 
L 170.989548 62.456374 
L 187.177044 56.023083 
L 200.403192 50.658697 
L 211.58574 48.476027 
L 221.272504 46.399633 
L 229.816835 45.019647 
L 237.46 43.842798 
L 244.374084 42.460718 
L 250.686147 41.870551 
L 256.492683 41.057089 
L 261.868696 40.342682 
L 266.873644 39.752893 
L 271.55546 38.897576 
L 275.95335 38.63959 
L 280.099791 38.471543 
L 284.021988 38.152374 
L 287.742956 37.869996 
L 291.282339 37.61796 
L 294.657039 37.39142 
L 297.881702 37.186689 
L 300.969103 37.000917 
L 303.930452 36.834572 
L 306.775639 36.7226 
L 309.513435 36.72137 
L 312.151652 36.699373 
L 314.69728 36.695264 
L 317.156599 36.691797 
L 319.535271 36.688825 
L 321.838415 36.610373 
L 324.070683 36.524057 
L 326.236306 36.445558 
L 328.339148 36.374251 
L 330.382747 36.309562 
L 332.37035 36.250959 
L 334.304944 36.198042 
L 336.189283 36.151322 
L 338.025912 36.109203 
L 339.817187 36.071299 
L 341.565295 36.037251 
L 343.272267 36.006727 
L 344.939995 35.979416 
L 346.570243 35.955031 
L 348.164658 35.933307 
L 349.724782 35.913997 
L 351.252059 35.896873 
L 352.747843 35.881725 
L 354.213408 35.868359 
L 355.649949 35.856597 
L 357.058595 35.846275 
L 358.440408 35.837244 
L 359.79639 35.829365 
L 361.127491 35.822514 
L 362.434607 35.816577 
L 363.718587 35.811449 
L 364.980236 35.807037 
L 366.220317 35.803255 
L 367.439555 35.799939 
L 368.63864 35.797054 
L 369.818226 35.794613 
L 370.978939 35.792558 
L 372.121371 35.790835 
L 373.246091 35.7894 
L 374.353639 35.788211 
L 375.444531 35.787232 
L 376.519261 35.786431 
L 377.578302 35.78578 
L 378.622104 35.785255 
L 379.651099 35.784835 
L 380.665703 35.784501 
L 381.666311 35.78424 
L 382.653306 35.784036 
L 383.627051 35.78388 
L 384.587899 35.783761 
L 385.536187 35.783671 
L 386.472238 35.783605 
L 387.396365 35.783557 
L 388.308867 35.783523 
L 389.210034 35.783499 
L 390.100143 35.783483 
L 390.979462 35.783472 
L 391.848251 35.783465 
L 392.706758 35.78346 
L 393.555223 35.783458 
L 394.39388 35.783456 
L 395.222951 35.783455 
L 396.042654 35.783455 
L 396.853199 35.783455 
L 397.654787 35.783455 
L 398.447614 35.783455 
L 399.23187 35.783455 
L 400.007738 35.783455 
L 400.775396 35.783455 
L 401.535015 35.783455 
L 402.286762 35.783455 
L 403.030799 35.783455 
L 403.767282 35.783455 
L 404.496364 35.783455 
" clip-path="url(#pd51db1a0e0)" style="fill: none; stroke-dasharray: 1,1.65; stroke-dashoffset: 0; stroke: #1f77b4"/>
   </g>
   <g id="line2d_50">
    <path d="M 70.423636 221.884842 
L 120.706592 155.314022 
L 150.120236 123.499247 
L 170.989548 105.665789 
L 187.177044 94.91147 
L 200.403192 88.097112 
L 211.58574 83.612068 
L 221.272504 80.565378 
L 229.816835 78.436985 
L 237.46 76.91068 
L 244.374084 75.787887 
L 250.686147 74.940575 
L 256.492683 74.284336 
L 261.868696 73.762437 
L 266.873644 73.336091 
L 271.55546 72.978376 
L 275.95335 72.670355 
L 280.099791 72.398548 
L 284.021988 72.153264 
L 287.742956 71.927478 
L 291.282339 71.71606 
L 294.657039 71.515247 
L 297.881702 71.322263 
L 300.969103 71.135059 
L 303.930452 70.952116 
L 306.775639 70.772309 
L 309.513435 70.594805 
L 312.151652 70.418989 
L 314.69728 70.244404 
L 317.156599 70.070714 
L 319.535271 69.897673 
L 321.838415 69.725099 
L 324.070683 69.552862 
L 326.236306 69.380864 
L 328.339148 69.209036 
L 330.382747 69.037328 
L 332.37035 68.865705 
L 334.304944 68.69414 
L 336.189283 68.522617 
L 338.025912 68.351121 
L 339.817187 68.179644 
L 341.565295 68.008181 
L 343.272267 67.836726 
L 344.939995 67.665276 
L 346.570243 67.493831 
L 348.164658 67.322388 
L 349.724782 67.150947 
L 351.252059 66.979507 
L 352.747843 66.808067 
L 354.213408 66.636628 
L 355.649949 66.46519 
L 357.058595 66.293751 
L 358.440408 66.122312 
L 359.79639 65.950874 
L 361.127491 65.779435 
L 362.434607 65.607997 
L 363.718587 65.436558 
L 364.980236 65.26512 
L 366.220317 65.093682 
L 367.439555 64.922243 
L 368.63864 64.750805 
L 369.818226 64.579366 
L 370.978939 64.407928 
L 372.121371 64.236489 
L 373.246091 64.065051 
L 374.353639 63.893613 
L 375.444531 63.722174 
L 376.519261 63.550736 
L 377.578302 63.379297 
L 378.622104 63.207859 
L 379.651099 63.03642 
L 380.665703 62.864982 
L 381.666311 62.693544 
L 382.653306 62.522105 
L 383.627051 62.350667 
L 384.587899 62.179228 
L 385.536187 62.00779 
L 386.472238 61.836351 
L 387.396365 61.664913 
L 388.308867 61.493475 
L 389.210034 61.322036 
L 390.100143 61.150598 
L 390.979462 60.979159 
L 391.848251 60.807721 
L 392.706758 60.636282 
L 393.555223 60.464844 
L 394.39388 60.293405 
L 395.222951 60.121967 
L 396.042654 59.950529 
L 396.853199 59.77909 
L 397.654787 59.607652 
L 398.447614 59.436213 
L 399.23187 59.264775 
L 400.007738 59.093336 
L 400.775396 58.921898 
L 401.535015 58.75046 
L 402.286762 58.579021 
L 403.030799 58.407583 
L 403.767282 58.236144 
L 404.496364 58.064706 
" clip-path="url(#pd51db1a0e0)" style="fill: none; stroke: #ff7f0e; stroke-width: 2; stroke-linecap: square"/>
   </g>
   <g id="line2d_51">
    <path d="M 72.405211 289 
L 120.706592 218.693317 
L 150.120236 185.199354 
L 170.989548 166.257813 
L 187.177044 155.096652 
L 200.403192 145.73698 
L 211.58574 141.264831 
L 221.272504 139.342711 
L 229.816835 137.988898 
L 237.46 137.02671 
L 244.374084 135.616722 
L 250.686147 134.453204 
L 256.492683 133.855338 
L 261.868696 133.407064 
L 266.873644 132.549454 
L 271.55546 131.847186 
L 275.95335 131.264887 
L 280.099791 130.774954 
L 284.021988 130.51284 
L 287.742956 130.443637 
L 291.282339 130.378539 
L 294.657039 130.249958 
L 297.881702 129.367194 
L 300.969103 128.822134 
L 303.930452 128.568605 
L 306.775639 128.247826 
L 309.513435 128.114429 
L 312.151652 127.904817 
L 314.69728 127.692736 
L 317.156599 127.453546 
L 319.535271 126.929657 
L 321.838415 126.405807 
L 324.070683 125.983134 
L 326.236306 125.977447 
L 328.339148 125.971968 
L 330.382747 125.966636 
L 332.37035 125.898804 
L 334.304944 125.518424 
L 336.189283 125.134827 
L 338.025912 124.745601 
L 339.817187 124.356374 
L 341.565295 123.55892 
L 343.272267 122.706798 
L 344.939995 122.504793 
L 346.570243 122.342828 
L 348.164658 122.217419 
L 349.724782 122.021015 
L 351.252059 121.720463 
L 352.747843 121.494674 
L 354.213408 121.182365 
L 355.649949 120.594307 
L 357.058595 120.214323 
L 358.440408 119.834339 
L 359.79639 119.454356 
L 361.127491 119.156132 
L 362.434607 118.967698 
L 363.718587 118.773738 
L 364.980236 118.241555 
L 366.220317 117.644771 
L 367.439555 117.161967 
L 368.63864 116.7771 
L 369.818226 116.295877 
L 370.978939 115.983254 
L 372.121371 115.643176 
L 373.246091 115.272533 
L 374.353639 114.894552 
L 375.444531 114.505615 
L 376.519261 114.113177 
L 377.578302 113.73551 
L 378.622104 113.363042 
L 379.651099 113.164887 
L 380.665703 112.612526 
L 381.666311 112.223645 
L 382.653306 111.839482 
L 383.627051 111.455319 
L 384.587899 111.011587 
L 385.536187 110.474777 
L 386.472238 110.316287 
L 387.396365 109.945644 
L 388.308867 109.574781 
L 389.210034 109.194798 
L 390.100143 108.814814 
L 390.979462 108.43483 
L 391.848251 108.054847 
L 392.706758 107.960551 
L 393.555223 107.95121 
L 394.39388 107.844847 
L 395.222951 107.524021 
L 396.042654 107.524021 
L 396.853199 107.520038 
L 397.654787 107.29211 
L 398.447614 106.811093 
L 399.23187 106.796681 
L 400.007738 106.48192 
L 400.775396 106.48192 
L 401.535015 106.48192 
L 402.286762 106.48192 
L 403.030799 106.48192 
L 403.767282 106.48192 
L 404.496364 106.48192 
" clip-path="url(#pd51db1a0e0)" style="fill: none; stroke-dasharray: 3.7,1.6; stroke-dashoffset: 0; stroke: #ff7f0e"/>
   </g>
   <g id="line2d_52">
    <path d="M 70.423636 150.933101 
L 120.706592 94.759145 
L 150.120236 70.219661 
L 170.989548 56.164186 
L 187.177044 47.817584 
L 200.403192 41.673071 
L 211.58574 37.414137 
L 221.272504 34.86134 
L 229.816835 33.096178 
L 237.46 31.70215 
L 244.374084 30.921617 
L 250.686147 30.007274 
L 256.492683 29.159184 
L 261.868696 28.780737 
L 266.873644 28.534323 
L 271.55546 28.391386 
L 275.95335 28.302677 
L 280.099791 28.27191 
L 284.021988 28.143166 
L 287.742956 28.064477 
L 291.282339 28.027896 
L 294.657039 28.000999 
L 297.881702 27.981187 
L 300.969103 27.966638 
L 303.930452 27.95599 
L 306.775639 27.948302 
L 309.513435 27.942795 
L 312.151652 27.938814 
L 314.69728 27.935949 
L 317.156599 27.933898 
L 319.535271 27.932436 
L 321.838415 27.931401 
L 324.070683 27.930671 
L 326.236306 27.93016 
L 328.339148 27.929804 
L 330.382747 27.929558 
L 332.37035 27.929389 
L 334.304944 27.929274 
L 336.189283 27.929196 
L 338.025912 27.929144 
L 339.817187 27.929109 
L 341.565295 27.929086 
L 343.272267 27.929071 
L 344.939995 27.929061 
L 346.570243 27.929055 
L 348.164658 27.929051 
L 349.724782 27.929048 
L 351.252059 27.929047 
L 352.747843 27.929046 
L 354.213408 27.929045 
L 355.649949 27.929045 
L 357.058595 27.929044 
L 358.440408 27.929044 
L 359.79639 27.929044 
L 361.127491 27.929044 
L 362.434607 27.929044 
L 363.718587 27.929044 
L 364.980236 27.929044 
L 366.220317 27.929044 
L 367.439555 27.929044 
L 368.63864 27.929044 
L 369.818226 27.929044 
L 370.978939 27.929044 
L 372.121371 27.929044 
L 373.246091 27.929044 
L 374.353639 27.929044 
L 375.444531 27.929044 
L 376.519261 27.929044 
L 377.578302 27.929044 
L 378.622104 27.929044 
L 379.651099 27.929044 
L 380.665703 27.929044 
L 381.666311 27.929044 
L 382.653306 27.929044 
L 383.627051 27.929044 
L 384.587899 27.929044 
L 385.536187 27.929044 
L 386.472238 27.929044 
L 387.396365 27.929044 
L 388.308867 27.929044 
L 389.210034 27.929044 
L 390.100143 27.929044 
L 390.979462 27.929044 
L 391.848251 27.929044 
L 392.706758 27.929044 
L 393.555223 27.928658 
L 394.39388 27.878324 
L 395.222951 27.770203 
L 396.042654 27.675886 
L 396.853199 27.576429 
L 397.654787 27.410786 
L 398.447614 27.245144 
L 399.23187 27.079501 
L 400.007738 26.913858 
L 400.775396 26.748215 
L 401.535015 26.582572 
L 402.286762 26.416929 
L 403.030799 26.251286 
L 403.767282 26.085643 
L 404.496364 25.92 
" clip-path="url(#pd51db1a0e0)" style="fill: none; stroke-dasharray: 1,1.65; stroke-dashoffset: 0; stroke: #ff7f0e"/>
   </g>
   <g id="line2d_53">
    <path d="M 70.423636 158.516912 
L 120.706592 109.239294 
L 150.120236 90.189234 
L 170.989548 80.687266 
L 187.177044 75.283934 
L 200.403192 71.876622 
L 211.58574 69.527691 
L 221.272504 67.78735 
L 229.816835 66.426132 
L 237.46 65.319168 
L 244.374084 64.393682 
L 250.686147 63.604217 
L 256.492683 62.920456 
L 261.868696 62.320993 
L 266.873644 61.789988 
L 271.55546 61.315287 
L 275.95335 60.887313 
L 280.099791 60.498373 
L 284.021988 60.142199 
L 287.742956 59.813635 
L 291.282339 59.508409 
L 294.657039 59.222958 
L 297.881702 58.954303 
L 300.969103 58.699941 
L 303.930452 58.457759 
L 306.775639 58.225974 
L 309.513435 58.003074 
L 312.151652 57.787773 
L 314.69728 57.578976 
L 317.156599 57.375749 
L 319.535271 57.177291 
L 321.838415 56.982917 
L 324.070683 56.792041 
L 326.236306 56.604157 
L 328.339148 56.418831 
L 330.382747 56.235688 
L 332.37035 56.054409 
L 334.304944 55.874717 
L 336.189283 55.696373 
L 338.025912 55.519173 
L 339.817187 55.342943 
L 341.565295 55.16753 
L 343.272267 54.992807 
L 344.939995 54.818663 
L 346.570243 54.645004 
L 348.164658 54.47175 
L 349.724782 54.298833 
L 351.252059 54.126195 
L 352.747843 53.953789 
L 354.213408 53.781572 
L 355.649949 53.609512 
L 357.058595 53.437578 
L 358.440408 53.265748 
L 359.79639 53.094001 
L 361.127491 52.922321 
L 362.434607 52.750695 
L 363.718587 52.579111 
L 364.980236 52.407562 
L 366.220317 52.236038 
L 367.439555 52.064536 
L 368.63864 51.893049 
L 369.818226 51.721575 
L 370.978939 51.55011 
L 372.121371 51.378653 
L 373.246091 51.2072 
L 374.353639 51.035752 
L 375.444531 50.864306 
L 376.519261 50.692863 
L 377.578302 50.521421 
L 378.622104 50.349981 
L 379.651099 50.178541 
L 380.665703 50.007101 
L 381.666311 49.835662 
L 382.653306 49.664223 
L 383.627051 49.492785 
L 384.587899 49.321346 
L 385.536187 49.149908 
L 386.472238 48.978469 
L 387.396365 48.807031 
L 388.308867 48.635592 
L 389.210034 48.464154 
L 390.100143 48.292715 
L 390.979462 48.121277 
L 391.848251 47.949838 
L 392.706758 47.7784 
L 393.555223 47.606962 
L 394.39388 47.435523 
L 395.222951 47.264085 
L 396.042654 47.092646 
L 396.853199 46.921208 
L 397.654787 46.749769 
L 398.447614 46.578331 
L 399.23187 46.406893 
L 400.007738 46.235454 
L 400.775396 46.064016 
L 401.535015 45.892577 
L 402.286762 45.721139 
L 403.030799 45.5497 
L 403.767282 45.378262 
L 404.496364 45.206824 
" clip-path="url(#pd51db1a0e0)" style="fill: none; stroke: #2ca02c; stroke-width: 2; stroke-linecap: square"/>
   </g>
   <g id="line2d_54">
    <path d="M 70.423636 220.747395 
L 120.706592 166.889797 
L 150.120236 148.345818 
L 170.989548 138.645081 
L 187.177044 132.834377 
L 200.403192 129.198625 
L 211.58574 126.330659 
L 221.272504 124.850998 
L 229.816835 124.273072 
L 237.46 123.779133 
L 244.374084 123.341577 
L 250.686147 122.923662 
L 256.492683 121.971421 
L 261.868696 121.113035 
L 266.873644 120.346048 
L 271.55546 119.111825 
L 275.95335 117.708195 
L 280.099791 116.453014 
L 284.021988 116.12071 
L 287.742956 115.702795 
L 291.282339 114.842126 
L 294.657039 114.328126 
L 297.881702 113.580704 
L 300.969103 113.550977 
L 303.930452 113.294031 
L 306.775639 112.935668 
L 309.513435 112.477846 
L 312.151652 111.556071 
L 314.69728 111.504136 
L 317.156599 111.458926 
L 319.535271 111.125136 
L 321.838415 110.774143 
L 324.070683 110.423522 
L 326.236306 110.073185 
L 328.339148 109.723064 
L 330.382747 109.368033 
L 332.37035 109.026505 
L 334.304944 108.859163 
L 336.189283 108.69189 
L 338.025912 108.524672 
L 339.817187 108.357496 
L 341.565295 108.190354 
L 343.272267 108.023238 
L 344.939995 107.856142 
L 346.570243 107.689064 
L 348.164658 107.419286 
L 349.724782 107.057015 
L 351.252059 106.695035 
L 352.747843 106.333294 
L 354.213408 105.971752 
L 355.649949 105.603984 
L 357.058595 105.234292 
L 358.440408 104.864714 
L 359.79639 104.495226 
L 361.127491 104.302389 
L 362.434607 103.971464 
L 363.718587 103.484978 
L 364.980236 103.245824 
L 366.220317 103.245712 
L 367.439555 103.236369 
L 368.63864 103.227026 
L 369.818226 103.172972 
L 370.978939 102.808637 
L 372.121371 102.432532 
L 373.246091 102.055277 
L 374.353639 101.678025 
L 375.444531 101.198368 
L 376.519261 100.684602 
L 377.578302 100.170836 
L 378.622104 100.15674 
L 379.651099 99.817548 
L 380.665703 99.444235 
L 381.666311 99.069552 
L 382.653306 98.694869 
L 383.627051 98.450444 
L 384.587899 98.138528 
L 385.536187 97.728869 
L 386.472238 97.528145 
L 387.396365 97.327401 
L 388.308867 97.123773 
L 389.210034 96.832284 
L 390.100143 96.453427 
L 390.979462 95.959957 
L 391.848251 95.42321 
L 392.706758 94.886462 
L 393.555223 94.343731 
L 394.39388 93.831193 
L 395.222951 93.257985 
L 396.042654 92.750055 
L 396.853199 92.553767 
L 397.654787 92.336461 
L 398.447614 91.967361 
L 399.23187 91.692621 
L 400.007738 91.231002 
L 400.775396 91.067011 
L 401.535015 91.062239 
L 402.286762 90.790431 
L 403.030799 90.416356 
L 403.767282 90.038632 
L 404.496364 89.660908 
" clip-path="url(#pd51db1a0e0)" style="fill: none; stroke-dasharray: 3.7,1.6; stroke-dashoffset: 0; stroke: #2ca02c"/>
   </g>
   <g id="line2d_55">
    <path d="M 70.423636 94.648518 
L 120.706592 57.927832 
L 150.120236 43.965722 
L 170.989548 36.832236 
L 187.177044 32.990436 
L 200.403192 30.640202 
L 211.58574 29.409529 
L 221.272504 28.500063 
L 229.816835 27.846679 
L 237.46 27.373918 
L 244.374084 27.016604 
L 250.686147 26.748462 
L 256.492683 26.543911 
L 261.868696 26.396739 
L 266.873644 26.283903 
L 271.55546 26.19728 
L 275.95335 26.130758 
L 280.099791 26.079721 
L 284.021988 26.04064 
L 287.742956 26.010791 
L 291.282339 25.988064 
L 294.657039 25.970818 
L 297.881702 25.957781 
L 300.969103 25.947965 
L 303.930452 25.940604 
L 306.775639 25.935109 
L 309.513435 25.931025 
L 312.151652 25.928004 
L 314.69728 25.925781 
L 317.156599 25.924153 
L 319.535271 25.922966 
L 321.838415 25.922106 
L 324.070683 25.921487 
L 326.236306 25.921043 
L 328.339148 25.920727 
L 330.382747 25.920503 
L 332.37035 25.920346 
L 334.304944 25.920236 
L 336.189283 25.92016 
L 338.025912 25.920108 
L 339.817187 25.920072 
L 341.565295 25.920047 
L 343.272267 25.920031 
L 344.939995 25.92002 
L 346.570243 25.920013 
L 348.164658 25.920008 
L 349.724782 25.920005 
L 351.252059 25.920003 
L 352.747843 25.920002 
L 354.213408 25.920001 
L 355.649949 25.920001 
L 357.058595 25.92 
L 358.440408 25.92 
L 359.79639 25.92 
L 361.127491 25.92 
L 362.434607 25.92 
L 363.718587 25.92 
L 364.980236 25.92 
L 366.220317 25.92 
L 367.439555 25.92 
L 368.63864 25.92 
L 369.818226 25.92 
L 370.978939 25.92 
L 372.121371 25.92 
L 373.246091 25.92 
L 374.353639 25.92 
L 375.444531 25.92 
L 376.519261 25.92 
L 377.578302 25.92 
L 378.622104 25.92 
L 379.651099 25.92 
L 380.665703 25.92 
L 381.666311 25.92 
L 382.653306 25.92 
L 383.627051 25.92 
L 384.587899 25.92 
L 385.536187 25.92 
L 386.472238 25.92 
L 387.396365 25.92 
L 388.308867 25.92 
L 389.210034 25.92 
L 390.100143 25.92 
L 390.979462 25.92 
L 391.848251 25.92 
L 392.706758 25.92 
L 393.555223 25.92 
L 394.39388 25.92 
L 395.222951 25.92 
L 396.042654 25.92 
L 396.853199 25.92 
L 397.654787 25.92 
L 398.447614 25.92 
L 399.23187 25.92 
L 400.007738 25.92 
L 400.775396 25.92 
L 401.535015 25.92 
L 402.286762 25.92 
L 403.030799 25.92 
L 403.767282 25.92 
L 404.496364 25.92 
" clip-path="url(#pd51db1a0e0)" style="fill: none; stroke-dasharray: 1,1.65; stroke-dashoffset: 0; stroke: #2ca02c"/>
   </g>
   <g id="patch_3">
    <path d="M 53.72 244.504 
L 53.72 25.92 
" style="fill: none; stroke: #000000; stroke-width: 0.8; stroke-linejoin: miter; stroke-linecap: square"/>
   </g>
   <g id="patch_4">
    <path d="M 421.2 244.504 
L 421.2 25.92 
" style="fill: none; stroke: #000000; stroke-width: 0.8; stroke-linejoin: miter; stroke-linecap: square"/>
   </g>
   <g id="patch_5">
    <path d="M 53.72 244.504 
L 421.2 244.504 
" style="fill: none; stroke: #000000; stroke-width: 0.8; stroke-linejoin: miter; stroke-linecap: square"/>
   </g>
   <g id="patch_6">
    <path d="M 53.72 25.92 
L 421.2 25.92 
" style="fill: none; stroke: #000000; stroke-width: 0.8; stroke-linejoin: miter; stroke-linecap: square"/>
   </g>
   <g id="text_15">
    <!-- Llama-3.1-8B-Instruct - D-pass@k -->
    <g transform="translate(136.336562 19.92) scale(0.12 -0.12)">
     <defs>
      <path id="DejaVuSans-4c" d="M 628 4666 
L 1259 4666 
L 1259 531 
L 3531 531 
L 3531 0 
L 628 0 
L 628 4666 
z
" transform="scale(0.015625)"/>
      <path id="DejaVuSans-6c" d="M 603 4863 
L 1178 4863 
L 1178 0 
L 603 0 
L 603 4863 
z
" transform="scale(0.015625)"/>
      <path id="DejaVuSans-6d" d="M 3328 2828 
Q 3544 3216 3844 3400 
Q 4144 3584 4550 3584 
Q 5097 3584 5394 3201 
Q 5691 2819 5691 2113 
L 5691 0 
L 5113 0 
L 5113 2094 
Q 5113 2597 4934 2840 
Q 4756 3084 4391 3084 
Q 3944 3084 3684 2787 
Q 3425 2491 3425 1978 
L 3425 0 
L 2847 0 
L 2847 2094 
Q 2847 2600 2669 2842 
Q 2491 3084 2119 3084 
Q 1678 3084 1418 2786 
Q 1159 2488 1159 1978 
L 1159 0 
L 581 0 
L 581 3500 
L 1159 3500 
L 1159 2956 
Q 1356 3278 1631 3431 
Q 1906 3584 2284 3584 
Q 2666 3584 2933 3390 
Q 3200 3197 3328 2828 
z
" transform="scale(0.015625)"/>
      <path id="DejaVuSans-33" d="M 2597 2516 
Q 3050 2419 3304 2112 
Q 3559 1806 3559 1356 
Q 3559 666 3084 287 
Q 2609 -91 1734 -91 
Q 1441 -91 1130 -33 
Q 819 25 488 141 
L 488 750 
Q 750 597 1062 519 
Q 1375 441 1716 441 
Q 2309 441 2620 675 
Q 2931 909 2931 1356 
Q 2931 1769 2642 2001 
Q 2353 2234 1838 2234 
L 1294 2234 
L 1294 2753 
L 1863 2753 
Q 2328 2753 2575 2939 
Q 2822 3125 2822 3475 
Q 2822 3834 2567 4026 
Q 2313 4219 1838 4219 
Q 1578 4219 1281 4162 
Q 984 4106 628 3988 
L 628 4550 
Q 988 4650 1302 4700 
Q 1616 4750 1894 4750 
Q 2613 4750 3031 4423 
Q 3450 4097 3450 3541 
Q 3450 3153 3228 2886 
Q 3006 2619 2597 2516 
z
" transform="scale(0.015625)"/>
      <path id="DejaVuSans-42" d="M 1259 2228 
L 1259 519 
L 2272 519 
Q 2781 519 3026 730 
Q 3272 941 3272 1375 
Q 3272 1813 3026 2020 
Q 2781 2228 2272 2228 
L 1259 2228 
z
M 1259 4147 
L 1259 2741 
L 2194 2741 
Q 2656 2741 2882 2914 
Q 3109 3088 3109 3444 
Q 3109 3797 2882 3972 
Q 2656 4147 2194 4147 
L 1259 4147 
z
M 628 4666 
L 2241 4666 
Q 2963 4666 3353 4366 
Q 3744 4066 3744 3513 
Q 3744 3084 3544 2831 
Q 3344 2578 2956 2516 
Q 3422 2416 3680 2098 
Q 3938 1781 3938 1306 
Q 3938 681 3513 340 
Q 3088 0 2303 0 
L 628 0 
L 628 4666 
z
" transform="scale(0.015625)"/>
      <path id="DejaVuSans-49" d="M 628 4666 
L 1259 4666 
L 1259 0 
L 628 0 
L 628 4666 
z
" transform="scale(0.015625)"/>
      <path id="DejaVuSans-6e" d="M 3513 2113 
L 3513 0 
L 2938 0 
L 2938 2094 
Q 2938 2591 2744 2837 
Q 2550 3084 2163 3084 
Q 1697 3084 1428 2787 
Q 1159 2491 1159 1978 
L 1159 0 
L 581 0 
L 581 3500 
L 1159 3500 
L 1159 2956 
Q 1366 3272 1645 3428 
Q 1925 3584 2291 3584 
Q 2894 3584 3203 3211 
Q 3513 2838 3513 2113 
z
" transform="scale(0.015625)"/>
      <path id="DejaVuSans-74" d="M 1172 4494 
L 1172 3500 
L 2356 3500 
L 2356 3053 
L 1172 3053 
L 1172 1153 
Q 1172 725 1289 603 
Q 1406 481 1766 481 
L 2356 481 
L 2356 0 
L 1766 0 
Q 1100 0 847 248 
Q 594 497 594 1153 
L 594 3053 
L 172 3053 
L 172 3500 
L 594 3500 
L 594 4494 
L 1172 4494 
z
" transform="scale(0.015625)"/>
      <path id="DejaVuSans-72" d="M 2631 2963 
Q 2534 3019 2420 3045 
Q 2306 3072 2169 3072 
Q 1681 3072 1420 2755 
Q 1159 2438 1159 1844 
L 1159 0 
L 581 0 
L 581 3500 
L 1159 3500 
L 1159 2956 
Q 1341 3275 1631 3429 
Q 1922 3584 2338 3584 
Q 2397 3584 2469 3576 
Q 2541 3569 2628 3553 
L 2631 2963 
z
" transform="scale(0.015625)"/>
      <path id="DejaVuSans-75" d="M 544 1381 
L 544 3500 
L 1119 3500 
L 1119 1403 
Q 1119 906 1312 657 
Q 1506 409 1894 409 
Q 2359 409 2629 706 
Q 2900 1003 2900 1516 
L 2900 3500 
L 3475 3500 
L 3475 0 
L 2900 0 
L 2900 538 
Q 2691 219 2414 64 
Q 2138 -91 1772 -91 
Q 1169 -91 856 284 
Q 544 659 544 1381 
z
M 1991 3584 
L 1991 3584 
z
" transform="scale(0.015625)"/>
      <path id="DejaVuSans-63" d="M 3122 3366 
L 3122 2828 
Q 2878 2963 2633 3030 
Q 2388 3097 2138 3097 
Q 1578 3097 1268 2742 
Q 959 2388 959 1747 
Q 959 1106 1268 751 
Q 1578 397 2138 397 
Q 2388 397 2633 464 
Q 2878 531 3122 666 
L 3122 134 
Q 2881 22 2623 -34 
Q 2366 -91 2075 -91 
Q 1284 -91 818 406 
Q 353 903 353 1747 
Q 353 2603 823 3093 
Q 1294 3584 2113 3584 
Q 2378 3584 2631 3529 
Q 2884 3475 3122 3366 
z
" transform="scale(0.015625)"/>
      <path id="DejaVuSans-20" transform="scale(0.015625)"/>
     </defs>
     <use xlink:href="#DejaVuSans-4c"/>
     <use xlink:href="#DejaVuSans-6c" x="55.712891"/>
     <use xlink:href="#DejaVuSans-61" x="83.496094"/>
     <use xlink:href="#DejaVuSans-6d" x="144.775391"/>
     <use xlink:href="#DejaVuSans-61" x="242.1875"/>
     <use xlink:href="#DejaVuSans-2d" x="303.466797"/>
     <use xlink:href="#DejaVuSans-33" x="339.550781"/>
     <use xlink:href="#DejaVuSans-2e" x="403.173828"/>
     <use xlink:href="#DejaVuSans-31" x="434.960938"/>
     <use xlink:href="#DejaVuSans-2d" x="498.583984"/>
     <use xlink:href="#DejaVuSans-38" x="534.667969"/>
     <use xlink:href="#DejaVuSans-42" x="598.291016"/>
     <use xlink:href="#DejaVuSans-2d" x="666.894531"/>
     <use xlink:href="#DejaVuSans-49" x="702.978516"/>
     <use xlink:href="#DejaVuSans-6e" x="732.470703"/>
     <use xlink:href="#DejaVuSans-73" x="795.849609"/>
     <use xlink:href="#DejaVuSans-74" x="847.949219"/>
     <use xlink:href="#DejaVuSans-72" x="887.158203"/>
     <use xlink:href="#DejaVuSans-75" x="928.271484"/>
     <use xlink:href="#DejaVuSans-63" x="991.650391"/>
     <use xlink:href="#DejaVuSans-74" x="1046.630859"/>
     <use xlink:href="#DejaVuSans-20" x="1085.839844"/>
     <use xlink:href="#DejaVuSans-2d" x="1117.626953"/>
     <use xlink:href="#DejaVuSans-20" x="1153.710938"/>
     <use xlink:href="#DejaVuSans-44" x="1185.498047"/>
     <use xlink:href="#DejaVuSans-2d" x="1262.5"/>
     <use xlink:href="#DejaVuSans-70" x="1298.583984"/>
     <use xlink:href="#DejaVuSans-61" x="1362.060547"/>
     <use xlink:href="#DejaVuSans-73" x="1423.339844"/>
     <use xlink:href="#DejaVuSans-73" x="1475.439453"/>
     <use xlink:href="#DejaVuSans-40" x="1527.539062"/>
     <use xlink:href="#DejaVuSans-6b" x="1627.539062"/>
    </g>
   </g>
   <g id="legend_1">
    <g id="patch_7">
     <path d="M 336.259375 239.504 
L 414.2 239.504 
Q 416.2 239.504 416.2 237.504 
L 416.2 165.113375 
Q 416.2 163.113375 414.2 163.113375 
L 336.259375 163.113375 
Q 334.259375 163.113375 334.259375 165.113375 
L 334.259375 237.504 
Q 334.259375 239.504 336.259375 239.504 
z
" style="fill: #ffffff; opacity: 0.8; stroke: #cccccc; stroke-linejoin: miter"/>
    </g>
    <g id="line2d_56">
     <path d="M 338.259375 171.211813 
L 348.259375 171.211813 
L 358.259375 171.211813 
" style="fill: none; stroke-dasharray: 3.7,1.6; stroke-dashoffset: 0; stroke: #000000"/>
    </g>
    <g id="text_16">
     <!-- CI lower -->
     <g transform="translate(366.259375 174.711813) scale(0.1 -0.1)">
      <defs>
       <path id="DejaVuSans-43" d="M 4122 4306 
L 4122 3641 
Q 3803 3938 3442 4084 
Q 3081 4231 2675 4231 
Q 1875 4231 1450 3742 
Q 1025 3253 1025 2328 
Q 1025 1406 1450 917 
Q 1875 428 2675 428 
Q 3081 428 3442 575 
Q 3803 722 4122 1019 
L 4122 359 
Q 3791 134 3420 21 
Q 3050 -91 2638 -91 
Q 1578 -91 968 557 
Q 359 1206 359 2328 
Q 359 3453 968 4101 
Q 1578 4750 2638 4750 
Q 3056 4750 3426 4639 
Q 3797 4528 4122 4306 
z
" transform="scale(0.015625)"/>
       <path id="DejaVuSans-6f" d="M 1959 3097 
Q 1497 3097 1228 2736 
Q 959 2375 959 1747 
Q 959 1119 1226 758 
Q 1494 397 1959 397 
Q 2419 397 2687 759 
Q 2956 1122 2956 1747 
Q 2956 2369 2687 2733 
Q 2419 3097 1959 3097 
z
M 1959 3584 
Q 2709 3584 3137 3096 
Q 3566 2609 3566 1747 
Q 3566 888 3137 398 
Q 2709 -91 1959 -91 
Q 1206 -91 779 398 
Q 353 888 353 1747 
Q 353 2609 779 3096 
Q 1206 3584 1959 3584 
z
" transform="scale(0.015625)"/>
       <path id="DejaVuSans-77" d="M 269 3500 
L 844 3500 
L 1563 769 
L 2278 3500 
L 2956 3500 
L 3675 769 
L 4391 3500 
L 4966 3500 
L 4050 0 
L 3372 0 
L 2619 2869 
L 1863 0 
L 1184 0 
L 269 3500 
z
" transform="scale(0.015625)"/>
       <path id="DejaVuSans-65" d="M 3597 1894 
L 3597 1613 
L 953 1613 
Q 991 1019 1311 708 
Q 1631 397 2203 397 
Q 2534 397 2845 478 
Q 3156 559 3463 722 
L 3463 178 
Q 3153 47 2828 -22 
Q 2503 -91 2169 -91 
Q 1331 -91 842 396 
Q 353 884 353 1716 
Q 353 2575 817 3079 
Q 1281 3584 2069 3584 
Q 2775 3584 3186 3129 
Q 3597 2675 3597 1894 
z
M 3022 2063 
Q 3016 2534 2758 2815 
Q 2500 3097 2075 3097 
Q 1594 3097 1305 2825 
Q 1016 2553 972 2059 
L 3022 2063 
z
" transform="scale(0.015625)"/>
      </defs>
      <use xlink:href="#DejaVuSans-43"/>
      <use xlink:href="#DejaVuSans-49" x="69.824219"/>
      <use xlink:href="#DejaVuSans-20" x="99.316406"/>
      <use xlink:href="#DejaVuSans-6c" x="131.103516"/>
      <use xlink:href="#DejaVuSans-6f" x="158.886719"/>
      <use xlink:href="#DejaVuSans-77" x="220.068359"/>
      <use xlink:href="#DejaVuSans-65" x="301.855469"/>
      <use xlink:href="#DejaVuSans-72" x="363.378906"/>
     </g>
    </g>
    <g id="line2d_57">
     <path d="M 338.259375 185.889938 
L 348.259375 185.889938 
L 358.259375 185.889938 
" style="fill: none; stroke-dasharray: 1,1.65; stroke-dashoffset: 0; stroke: #000000"/>
    </g>
    <g id="text_17">
     <!-- CI upper -->
     <g transform="translate(366.259375 189.389938) scale(0.1 -0.1)">
      <use xlink:href="#DejaVuSans-43"/>
      <use xlink:href="#DejaVuSans-49" x="69.824219"/>
      <use xlink:href="#DejaVuSans-20" x="99.316406"/>
      <use xlink:href="#DejaVuSans-75" x="131.103516"/>
      <use xlink:href="#DejaVuSans-70" x="194.482422"/>
      <use xlink:href="#DejaVuSans-70" x="257.958984"/>
      <use xlink:href="#DejaVuSans-65" x="321.435547"/>
      <use xlink:href="#DejaVuSans-72" x="382.958984"/>
     </g>
    </g>
    <g id="line2d_58">
     <path d="M 338.259375 200.568062 
L 348.259375 200.568062 
L 358.259375 200.568062 
" style="fill: none; stroke: #1f77b4; stroke-width: 2; stroke-linecap: square"/>
    </g>
    <g id="text_18">
     <!-- baseline -->
     <g transform="translate(366.259375 204.068062) scale(0.1 -0.1)">
      <defs>
       <path id="DejaVuSans-62" d="M 3116 1747 
Q 3116 2381 2855 2742 
Q 2594 3103 2138 3103 
Q 1681 3103 1420 2742 
Q 1159 2381 1159 1747 
Q 1159 1113 1420 752 
Q 1681 391 2138 391 
Q 2594 391 2855 752 
Q 3116 1113 3116 1747 
z
M 1159 2969 
Q 1341 3281 1617 3432 
Q 1894 3584 2278 3584 
Q 2916 3584 3314 3078 
Q 3713 2572 3713 1747 
Q 3713 922 3314 415 
Q 2916 -91 2278 -91 
Q 1894 -91 1617 61 
Q 1341 213 1159 525 
L 1159 0 
L 581 0 
L 581 4863 
L 1159 4863 
L 1159 2969 
z
" transform="scale(0.015625)"/>
       <path id="DejaVuSans-69" d="M 603 3500 
L 1178 3500 
L 1178 0 
L 603 0 
L 603 3500 
z
M 603 4863 
L 1178 4863 
L 1178 4134 
L 603 4134 
L 603 4863 
z
" transform="scale(0.015625)"/>
      </defs>
      <use xlink:href="#DejaVuSans-62"/>
      <use xlink:href="#DejaVuSans-61" x="63.476562"/>
      <use xlink:href="#DejaVuSans-73" x="124.755859"/>
      <use xlink:href="#DejaVuSans-65" x="176.855469"/>
      <use xlink:href="#DejaVuSans-6c" x="238.378906"/>
      <use xlink:href="#DejaVuSans-69" x="266.162109"/>
      <use xlink:href="#DejaVuSans-6e" x="293.945312"/>
      <use xlink:href="#DejaVuSans-65" x="357.324219"/>
     </g>
    </g>
    <g id="line2d_59">
     <path d="M 338.259375 215.246188 
L 348.259375 215.246188 
L 358.259375 215.246188 
" style="fill: none; stroke: #ff7f0e; stroke-width: 2; stroke-linecap: square"/>
    </g>
    <g id="text_19">
     <!-- CoT -->
     <g transform="translate(366.259375 218.746188) scale(0.1 -0.1)">
      <defs>
       <path id="DejaVuSans-54" d="M -19 4666 
L 3928 4666 
L 3928 4134 
L 2272 4134 
L 2272 0 
L 1638 0 
L 1638 4134 
L -19 4134 
L -19 4666 
z
" transform="scale(0.015625)"/>
      </defs>
      <use xlink:href="#DejaVuSans-43"/>
      <use xlink:href="#DejaVuSans-6f" x="69.824219"/>
      <use xlink:href="#DejaVuSans-54" x="131.005859"/>
     </g>
    </g>
    <g id="line2d_60">
     <path d="M 338.259375 229.924313 
L 348.259375 229.924313 
L 358.259375 229.924313 
" style="fill: none; stroke: #2ca02c; stroke-width: 2; stroke-linecap: square"/>
    </g>
    <g id="text_20">
     <!-- feedback -->
     <g transform="translate(366.259375 233.424313) scale(0.1 -0.1)">
      <defs>
       <path id="DejaVuSans-66" d="M 2375 4863 
L 2375 4384 
L 1825 4384 
Q 1516 4384 1395 4259 
Q 1275 4134 1275 3809 
L 1275 3500 
L 2222 3500 
L 2222 3053 
L 1275 3053 
L 1275 0 
L 697 0 
L 697 3053 
L 147 3053 
L 147 3500 
L 697 3500 
L 697 3744 
Q 697 4328 969 4595 
Q 1241 4863 1831 4863 
L 2375 4863 
z
" transform="scale(0.015625)"/>
       <path id="DejaVuSans-64" d="M 2906 2969 
L 2906 4863 
L 3481 4863 
L 3481 0 
L 2906 0 
L 2906 525 
Q 2725 213 2448 61 
Q 2172 -91 1784 -91 
Q 1150 -91 751 415 
Q 353 922 353 1747 
Q 353 2572 751 3078 
Q 1150 3584 1784 3584 
Q 2172 3584 2448 3432 
Q 2725 3281 2906 2969 
z
M 947 1747 
Q 947 1113 1208 752 
Q 1469 391 1925 391 
Q 2381 391 2643 752 
Q 2906 1113 2906 1747 
Q 2906 2381 2643 2742 
Q 2381 3103 1925 3103 
Q 1469 3103 1208 2742 
Q 947 2381 947 1747 
z
" transform="scale(0.015625)"/>
      </defs>
      <use xlink:href="#DejaVuSans-66"/>
      <use xlink:href="#DejaVuSans-65" x="35.205078"/>
      <use xlink:href="#DejaVuSans-65" x="96.728516"/>
      <use xlink:href="#DejaVuSans-64" x="158.251953"/>
      <use xlink:href="#DejaVuSans-62" x="221.728516"/>
      <use xlink:href="#DejaVuSans-61" x="285.205078"/>
      <use xlink:href="#DejaVuSans-63" x="346.484375"/>
      <use xlink:href="#DejaVuSans-6b" x="401.464844"/>
     </g>
    </g>
   </g>
  </g>
 </g>
 <defs>
  <clipPath id="pd51db1a0e0">
   <rect x="53.72" y="25.92" width="367.48" height="218.584"/>
  </clipPath>
 </defs>
</svg>
