<?xml version="1.0" encoding="utf-8" standalone="no"?>
<!DOCTYPE svg PUBLIC "-//W3C//DTD SVG 1.1//EN"
  "http://www.w3.org/Graphics/SVG/1.1/DTD/svg11.dtd">
<svg xmlns:xlink="http://www.w3.org/1999/xlink" width="460.8pt" height="345.6pt" viewBox="0 0 460.8 345.6" xmlns="http://www.w3.org/2000/svg" version="1.1">
 <metadata>
  <rdf:RDF xmlns:dc="http://purl.org/dc/elements/1.1/" xmlns:cc="http://creativecommons.org/ns#" xmlns:rdf="http://www.w3.org/1999/02/22-rdf-syntax-ns#">
   <cc:Work>
    <dc:type rdf:resource="http://purl.org/dc/dcmitype/StillImage"/>
    <dc:date>2025-10-04T13:39:35.022740</dc:date>
    <dc:format>image/svg+xml</dc:format>
    <dc:creator>
     <cc:Agent>
      <dc:title>Matplotlib v3.9.0, https://matplotlib.org/</dc:title>
     </cc:Agent>
    </dc:creator>
   </cc:Work>
  </rdf:RDF>
 </metadata>
 <defs>
  <style type="text/css">*{stroke-linejoin: round; stroke-linecap: butt}</style>
 </defs>
 <g id="figure_1">
  <g id="patch_1">
   <path d="M 0 345.6 
L 460.8 345.6 
L 460.8 0 
L 0 0 
z
" style="fill: #ffffff"/>
  </g>
  <g id="axes_1">
   <g id="patch_2">
    <path d="M 365.32 180.84 
C 365.32 163.122468 361.830033 145.577217 355.049827 129.208351 
C 348.269621 112.839486 338.331034 97.96534 325.802847 85.437153 
C 313.27466 72.908966 298.400514 62.970379 282.031649 56.190173 
C 265.662783 49.409967 248.117532 45.92 230.4 45.92 
C 212.682468 45.92 195.137217 49.409967 178.768351 56.190173 
C 162.399486 62.970379 147.52534 72.908966 134.997153 85.437153 
C 122.468966 97.96534 112.530379 112.839486 105.750173 129.208351 
C 98.969967 145.577217 95.48 163.122468 95.48 180.84 
C 95.48 198.557532 98.969967 216.102783 105.750173 232.471649 
C 112.530379 248.840514 122.468966 263.71466 134.997153 276.242847 
C 147.52534 288.771034 162.399486 298.709621 178.768351 305.489827 
C 195.137217 312.270033 212.682468 315.76 230.4 315.76 
C 248.117532 315.76 265.662783 312.270033 282.031649 305.489827 
C 298.400514 298.709621 313.27466 288.771034 325.802847 276.242847 
C 338.331034 263.71466 348.269621 248.840514 355.049827 232.471649 
C 361.830033 216.102783 365.32 198.557532 365.32 180.84 
M 230.4 180.84 
C 230.4 180.84 230.4 180.84 230.4 180.84 
C 230.4 180.84 230.4 180.84 230.4 180.84 
C 230.4 180.84 230.4 180.84 230.4 180.84 
C 230.4 180.84 230.4 180.84 230.4 180.84 
C 230.4 180.84 230.4 180.84 230.4 180.84 
C 230.4 180.84 230.4 180.84 230.4 180.84 
C 230.4 180.84 230.4 180.84 230.4 180.84 
C 230.4 180.84 230.4 180.84 230.4 180.84 
C 230.4 180.84 230.4 180.84 230.4 180.84 
C 230.4 180.84 230.4 180.84 230.4 180.84 
C 230.4 180.84 230.4 180.84 230.4 180.84 
C 230.4 180.84 230.4 180.84 230.4 180.84 
C 230.4 180.84 230.4 180.84 230.4 180.84 
C 230.4 180.84 230.4 180.84 230.4 180.84 
C 230.4 180.84 230.4 180.84 230.4 180.84 
C 230.4 180.84 230.4 180.84 230.4 180.84 
z
" style="fill: #ffffff"/>
   </g>
   <g id="patch_3">
    <path d="M 358.895238 180.84 
L 230.4 180.696269 
L 223.069735 180.84 
L 230.4 180.84 
z
" clip-path="url(#p3c926757bf)" style="fill: #1f77b4; opacity: 0.15"/>
   </g>
   <g id="matplotlib.axis_1">
    <g id="xtick_1">
     <g id="line2d_1">
      <path d="M 230.4 180.84 
L 365.32 180.84 
" clip-path="url(#p3c926757bf)" style="fill: none; stroke: #b0b0b0; stroke-width: 0.8; stroke-linecap: square"/>
     </g>
     <g id="text_1">
      <!-- rate_WA -->
      <g transform="translate(358.574687 183.32125) scale(0.1 -0.1)">
       <defs>
        <path id="DejaVuSans-72" d="M 2631 2963 
Q 2534 3019 2420 3045 
Q 2306 3072 2169 3072 
Q 1681 3072 1420 2755 
Q 1159 2438 1159 1844 
L 1159 0 
L 581 0 
L 581 3500 
L 1159 3500 
L 1159 2956 
Q 1341 3275 1631 3429 
Q 1922 3584 2338 3584 
Q 2397 3584 2469 3576 
Q 2541 3569 2628 3553 
L 2631 2963 
z
" transform="scale(0.015625)"/>
        <path id="DejaVuSans-61" d="M 2194 1759 
Q 1497 1759 1228 1600 
Q 959 1441 959 1056 
Q 959 750 1161 570 
Q 1363 391 1709 391 
Q 2188 391 2477 730 
Q 2766 1069 2766 1631 
L 2766 1759 
L 2194 1759 
z
M 3341 1997 
L 3341 0 
L 2766 0 
L 2766 531 
Q 2569 213 2275 61 
Q 1981 -91 1556 -91 
Q 1019 -91 701 211 
Q 384 513 384 1019 
Q 384 1609 779 1909 
Q 1175 2209 1959 2209 
L 2766 2209 
L 2766 2266 
Q 2766 2663 2505 2880 
Q 2244 3097 1772 3097 
Q 1472 3097 1187 3025 
Q 903 2953 641 2809 
L 641 3341 
Q 956 3463 1253 3523 
Q 1550 3584 1831 3584 
Q 2591 3584 2966 3190 
Q 3341 2797 3341 1997 
z
" transform="scale(0.015625)"/>
        <path id="DejaVuSans-74" d="M 1172 4494 
L 1172 3500 
L 2356 3500 
L 2356 3053 
L 1172 3053 
L 1172 1153 
Q 1172 725 1289 603 
Q 1406 481 1766 481 
L 2356 481 
L 2356 0 
L 1766 0 
Q 1100 0 847 248 
Q 594 497 594 1153 
L 594 3053 
L 172 3053 
L 172 3500 
L 594 3500 
L 594 4494 
L 1172 4494 
z
" transform="scale(0.015625)"/>
        <path id="DejaVuSans-65" d="M 3597 1894 
L 3597 1613 
L 953 1613 
Q 991 1019 1311 708 
Q 1631 397 2203 397 
Q 2534 397 2845 478 
Q 3156 559 3463 722 
L 3463 178 
Q 3153 47 2828 -22 
Q 2503 -91 2169 -91 
Q 1331 -91 842 396 
Q 353 884 353 1716 
Q 353 2575 817 3079 
Q 1281 3584 2069 3584 
Q 2775 3584 3186 3129 
Q 3597 2675 3597 1894 
z
M 3022 2063 
Q 3016 2534 2758 2815 
Q 2500 3097 2075 3097 
Q 1594 3097 1305 2825 
Q 1016 2553 972 2059 
L 3022 2063 
z
" transform="scale(0.015625)"/>
        <path id="DejaVuSans-5f" d="M 3263 -1063 
L 3263 -1509 
L -63 -1509 
L -63 -1063 
L 3263 -1063 
z
" transform="scale(0.015625)"/>
        <path id="DejaVuSans-57" d="M 213 4666 
L 850 4666 
L 1831 722 
L 2809 4666 
L 3519 4666 
L 4500 722 
L 5478 4666 
L 6119 4666 
L 4947 0 
L 4153 0 
L 3169 4050 
L 2175 0 
L 1381 0 
L 213 4666 
z
" transform="scale(0.015625)"/>
        <path id="DejaVuSans-41" d="M 2188 4044 
L 1331 1722 
L 3047 1722 
L 2188 4044 
z
M 1831 4666 
L 2547 4666 
L 4325 0 
L 3669 0 
L 3244 1197 
L 1141 1197 
L 716 0 
L 50 0 
L 1831 4666 
z
" transform="scale(0.015625)"/>
       </defs>
       <use xlink:href="#DejaVuSans-72"/>
       <use xlink:href="#DejaVuSans-61" x="41.113281"/>
       <use xlink:href="#DejaVuSans-74" x="102.392578"/>
       <use xlink:href="#DejaVuSans-65" x="141.601562"/>
       <use xlink:href="#DejaVuSans-5f" x="203.125"/>
       <use xlink:href="#DejaVuSans-57" x="253.125"/>
       <use xlink:href="#DejaVuSans-41" x="346.501953"/>
      </g>
     </g>
    </g>
    <g id="xtick_2">
     <g id="line2d_2">
      <path d="M 230.4 180.84 
L 230.4 45.92 
" clip-path="url(#p3c926757bf)" style="fill: none; stroke: #b0b0b0; stroke-width: 0.8; stroke-linecap: square"/>
     </g>
     <g id="text_2">
      <!-- rate_TLE -->
      <g transform="translate(208.744531 34.40125) scale(0.1 -0.1)">
       <defs>
        <path id="DejaVuSans-54" d="M -19 4666 
L 3928 4666 
L 3928 4134 
L 2272 4134 
L 2272 0 
L 1638 0 
L 1638 4134 
L -19 4134 
L -19 4666 
z
" transform="scale(0.015625)"/>
        <path id="DejaVuSans-4c" d="M 628 4666 
L 1259 4666 
L 1259 531 
L 3531 531 
L 3531 0 
L 628 0 
L 628 4666 
z
" transform="scale(0.015625)"/>
        <path id="DejaVuSans-45" d="M 628 4666 
L 3578 4666 
L 3578 4134 
L 1259 4134 
L 1259 2753 
L 3481 2753 
L 3481 2222 
L 1259 2222 
L 1259 531 
L 3634 531 
L 3634 0 
L 628 0 
L 628 4666 
z
" transform="scale(0.015625)"/>
       </defs>
       <use xlink:href="#DejaVuSans-72"/>
       <use xlink:href="#DejaVuSans-61" x="41.113281"/>
       <use xlink:href="#DejaVuSans-74" x="102.392578"/>
       <use xlink:href="#DejaVuSans-65" x="141.601562"/>
       <use xlink:href="#DejaVuSans-5f" x="203.125"/>
       <use xlink:href="#DejaVuSans-54" x="253.125"/>
       <use xlink:href="#DejaVuSans-4c" x="314.208984"/>
       <use xlink:href="#DejaVuSans-45" x="369.921875"/>
      </g>
     </g>
    </g>
    <g id="xtick_3">
     <g id="line2d_3">
      <path d="M 230.4 180.84 
L 95.48 180.84 
" clip-path="url(#p3c926757bf)" style="fill: none; stroke: #b0b0b0; stroke-width: 0.8; stroke-linecap: square"/>
     </g>
     <g id="text_3">
      <!-- rate_RE -->
      <g transform="translate(62.190156 183.32125) scale(0.1 -0.1)">
       <defs>
        <path id="DejaVuSans-52" d="M 2841 2188 
Q 3044 2119 3236 1894 
Q 3428 1669 3622 1275 
L 4263 0 
L 3584 0 
L 2988 1197 
Q 2756 1666 2539 1819 
Q 2322 1972 1947 1972 
L 1259 1972 
L 1259 0 
L 628 0 
L 628 4666 
L 2053 4666 
Q 2853 4666 3247 4331 
Q 3641 3997 3641 3322 
Q 3641 2881 3436 2590 
Q 3231 2300 2841 2188 
z
M 1259 4147 
L 1259 2491 
L 2053 2491 
Q 2509 2491 2742 2702 
Q 2975 2913 2975 3322 
Q 2975 3731 2742 3939 
Q 2509 4147 2053 4147 
L 1259 4147 
z
" transform="scale(0.015625)"/>
       </defs>
       <use xlink:href="#DejaVuSans-72"/>
       <use xlink:href="#DejaVuSans-61" x="41.113281"/>
       <use xlink:href="#DejaVuSans-74" x="102.392578"/>
       <use xlink:href="#DejaVuSans-65" x="141.601562"/>
       <use xlink:href="#DejaVuSans-5f" x="203.125"/>
       <use xlink:href="#DejaVuSans-52" x="253.125"/>
       <use xlink:href="#DejaVuSans-45" x="322.607422"/>
      </g>
     </g>
    </g>
    <g id="xtick_4">
     <g id="line2d_4">
      <path d="M 230.4 180.84 
L 230.4 315.76 
" clip-path="url(#p3c926757bf)" style="fill: none; stroke: #b0b0b0; stroke-width: 0.8; stroke-linecap: square"/>
     </g>
     <g id="text_4">
      <!-- rate_CE -->
      <g transform="translate(211.092969 332.292031) scale(0.1 -0.1)">
       <defs>
        <path id="DejaVuSans-43" d="M 4122 4306 
L 4122 3641 
Q 3803 3938 3442 4084 
Q 3081 4231 2675 4231 
Q 1875 4231 1450 3742 
Q 1025 3253 1025 2328 
Q 1025 1406 1450 917 
Q 1875 428 2675 428 
Q 3081 428 3442 575 
Q 3803 722 4122 1019 
L 4122 359 
Q 3791 134 3420 21 
Q 3050 -91 2638 -91 
Q 1578 -91 968 557 
Q 359 1206 359 2328 
Q 359 3453 968 4101 
Q 1578 4750 2638 4750 
Q 3056 4750 3426 4639 
Q 3797 4528 4122 4306 
z
" transform="scale(0.015625)"/>
       </defs>
       <use xlink:href="#DejaVuSans-72"/>
       <use xlink:href="#DejaVuSans-61" x="41.113281"/>
       <use xlink:href="#DejaVuSans-74" x="102.392578"/>
       <use xlink:href="#DejaVuSans-65" x="141.601562"/>
       <use xlink:href="#DejaVuSans-5f" x="203.125"/>
       <use xlink:href="#DejaVuSans-43" x="253.125"/>
       <use xlink:href="#DejaVuSans-45" x="322.949219"/>
      </g>
     </g>
    </g>
   </g>
   <g id="matplotlib.axis_2">
    <g id="ytick_1">
     <g id="line2d_5">
      <path d="M 251.959604 180.84 
C 251.959604 178.008819 251.401923 175.205167 250.318477 172.589497 
C 249.23503 169.973826 247.646889 167.597005 245.644942 165.595058 
C 243.642995 163.593111 241.266174 162.00497 238.650503 160.921523 
C 236.034833 159.838077 233.231181 159.280396 230.4 159.280396 
C 227.568819 159.280396 224.765167 159.838077 222.149497 160.921523 
C 219.533826 162.00497 217.157005 163.593111 215.155058 165.595058 
C 213.153111 167.597005 211.56497 169.973826 210.481523 172.589497 
C 209.398077 175.205167 208.840396 178.008819 208.840396 180.84 
C 208.840396 183.671181 209.398077 186.474833 210.481523 189.090503 
C 211.56497 191.706174 213.153111 194.082995 215.155058 196.084942 
C 217.157005 198.086889 219.533826 199.67503 222.149497 200.758477 
C 224.765167 201.841923 227.568819 202.399604 230.4 202.399604 
C 233.231181 202.399604 236.034833 201.841923 238.650503 200.758477 
C 241.266174 199.67503 243.642995 198.086889 245.644942 196.084942 
C 247.646889 194.082995 249.23503 191.706174 250.318477 189.090503 
C 251.401923 186.474833 251.959604 183.671181 251.959604 180.84 
" clip-path="url(#p3c926757bf)" style="fill: none; stroke: #b0b0b0; stroke-width: 0.8; stroke-linecap: square"/>
     </g>
     <g id="text_5">
      <!-- 0.05 -->
      <g transform="translate(230.4 157.200709) scale(0.1 -0.1)">
       <defs>
        <path id="DejaVuSans-30" d="M 2034 4250 
Q 1547 4250 1301 3770 
Q 1056 3291 1056 2328 
Q 1056 1369 1301 889 
Q 1547 409 2034 409 
Q 2525 409 2770 889 
Q 3016 1369 3016 2328 
Q 3016 3291 2770 3770 
Q 2525 4250 2034 4250 
z
M 2034 4750 
Q 2819 4750 3233 4129 
Q 3647 3509 3647 2328 
Q 3647 1150 3233 529 
Q 2819 -91 2034 -91 
Q 1250 -91 836 529 
Q 422 1150 422 2328 
Q 422 3509 836 4129 
Q 1250 4750 2034 4750 
z
" transform="scale(0.015625)"/>
        <path id="DejaVuSans-2e" d="M 684 794 
L 1344 794 
L 1344 0 
L 684 0 
L 684 794 
z
" transform="scale(0.015625)"/>
        <path id="DejaVuSans-35" d="M 691 4666 
L 3169 4666 
L 3169 4134 
L 1269 4134 
L 1269 2991 
Q 1406 3038 1543 3061 
Q 1681 3084 1819 3084 
Q 2600 3084 3056 2656 
Q 3513 2228 3513 1497 
Q 3513 744 3044 326 
Q 2575 -91 1722 -91 
Q 1428 -91 1123 -41 
Q 819 9 494 109 
L 494 744 
Q 775 591 1075 516 
Q 1375 441 1709 441 
Q 2250 441 2565 725 
Q 2881 1009 2881 1497 
Q 2881 1984 2565 2268 
Q 2250 2553 1709 2553 
Q 1456 2553 1204 2497 
Q 953 2441 691 2322 
L 691 4666 
z
" transform="scale(0.015625)"/>
       </defs>
       <use xlink:href="#DejaVuSans-30"/>
       <use xlink:href="#DejaVuSans-2e" x="63.623047"/>
       <use xlink:href="#DejaVuSans-30" x="95.410156"/>
       <use xlink:href="#DejaVuSans-35" x="159.033203"/>
      </g>
     </g>
    </g>
    <g id="ytick_2">
     <g id="line2d_6">
      <path d="M 273.519207 180.84 
C 273.519207 175.177638 272.403845 169.570334 270.236953 164.338994 
C 268.070061 159.107653 264.893779 154.354011 260.889884 150.350116 
C 256.885989 146.346221 252.132347 143.169939 246.901006 141.003047 
C 241.669666 138.836155 236.062362 137.720793 230.4 137.720793 
C 224.737638 137.720793 219.130334 138.836155 213.898994 141.003047 
C 208.667653 143.169939 203.914011 146.346221 199.910116 150.350116 
C 195.906221 154.354011 192.729939 159.107653 190.563047 164.338994 
C 188.396155 169.570334 187.280793 175.177638 187.280793 180.84 
C 187.280793 186.502362 188.396155 192.109666 190.563047 197.341006 
C 192.729939 202.572347 195.906221 207.325989 199.910116 211.329884 
C 203.914011 215.333779 208.667653 218.510061 213.898994 220.676953 
C 219.130334 222.843845 224.737638 223.959207 230.4 223.959207 
C 236.062362 223.959207 241.669666 222.843845 246.901006 220.676953 
C 252.132347 218.510061 256.885989 215.333779 260.889884 211.329884 
C 264.893779 207.325989 268.070061 202.572347 270.236953 197.341006 
C 272.403845 192.109666 273.519207 186.502362 273.519207 180.84 
" clip-path="url(#p3c926757bf)" style="fill: none; stroke: #b0b0b0; stroke-width: 0.8; stroke-linecap: square"/>
     </g>
     <g id="text_6">
      <!-- 0.10 -->
      <g transform="translate(230.4 135.641105) scale(0.1 -0.1)">
       <defs>
        <path id="DejaVuSans-31" d="M 794 531 
L 1825 531 
L 1825 4091 
L 703 3866 
L 703 4441 
L 1819 4666 
L 2450 4666 
L 2450 531 
L 3481 531 
L 3481 0 
L 794 0 
L 794 531 
z
" transform="scale(0.015625)"/>
       </defs>
       <use xlink:href="#DejaVuSans-30"/>
       <use xlink:href="#DejaVuSans-2e" x="63.623047"/>
       <use xlink:href="#DejaVuSans-31" x="95.410156"/>
       <use xlink:href="#DejaVuSans-30" x="159.033203"/>
      </g>
     </g>
    </g>
    <g id="ytick_3">
     <g id="line2d_7">
      <path d="M 295.078811 180.84 
C 295.078811 172.346456 293.405768 163.935502 290.15543 156.088491 
C 286.905091 148.241479 282.140668 141.111016 276.134826 135.105174 
C 270.128984 129.099332 262.998521 124.334909 255.151509 121.08457 
C 247.304498 117.834232 238.893544 116.161189 230.4 116.161189 
C 221.906456 116.161189 213.495502 117.834232 205.648491 121.08457 
C 197.801479 124.334909 190.671016 129.099332 184.665174 135.105174 
C 178.659332 141.111016 173.894909 148.241479 170.64457 156.088491 
C 167.394232 163.935502 165.721189 172.346456 165.721189 180.84 
C 165.721189 189.333544 167.394232 197.744498 170.64457 205.591509 
C 173.894909 213.438521 178.659332 220.568984 184.665174 226.574826 
C 190.671016 232.580668 197.801479 237.345091 205.648491 240.59543 
C 213.495502 243.845768 221.906456 245.518811 230.4 245.518811 
C 238.893544 245.518811 247.304498 243.845768 255.151509 240.59543 
C 262.998521 237.345091 270.128984 232.580668 276.134826 226.574826 
C 282.140668 220.568984 286.905091 213.438521 290.15543 205.591509 
C 293.405768 197.744498 295.078811 189.333544 295.078811 180.84 
" clip-path="url(#p3c926757bf)" style="fill: none; stroke: #b0b0b0; stroke-width: 0.8; stroke-linecap: square"/>
     </g>
     <g id="text_7">
      <!-- 0.15 -->
      <g transform="translate(230.4 114.081501) scale(0.1 -0.1)">
       <use xlink:href="#DejaVuSans-30"/>
       <use xlink:href="#DejaVuSans-2e" x="63.623047"/>
       <use xlink:href="#DejaVuSans-31" x="95.410156"/>
       <use xlink:href="#DejaVuSans-35" x="159.033203"/>
      </g>
     </g>
    </g>
    <g id="ytick_4">
     <g id="line2d_8">
      <path d="M 316.638415 180.84 
C 316.638415 169.515275 314.407691 158.300669 310.073906 147.837987 
C 305.740122 137.375306 299.387558 127.868022 291.379768 119.860232 
C 283.371978 111.852442 273.864694 105.499878 263.402013 101.166094 
C 252.939331 96.832309 241.724725 94.601585 230.4 94.601585 
C 219.075275 94.601585 207.860669 96.832309 197.397987 101.166094 
C 186.935306 105.499878 177.428022 111.852442 169.420232 119.860232 
C 161.412442 127.868022 155.059878 137.375306 150.726094 147.837987 
C 146.392309 158.300669 144.161585 169.515275 144.161585 180.84 
C 144.161585 192.164725 146.392309 203.379331 150.726094 213.842013 
C 155.059878 224.304694 161.412442 233.811978 169.420232 241.819768 
C 177.428022 249.827558 186.935306 256.180122 197.397987 260.513906 
C 207.860669 264.847691 219.075275 267.078415 230.4 267.078415 
C 241.724725 267.078415 252.939331 264.847691 263.402013 260.513906 
C 273.864694 256.180122 283.371978 249.827558 291.379768 241.819768 
C 299.387558 233.811978 305.740122 224.304694 310.073906 213.842013 
C 314.407691 203.379331 316.638415 192.164725 316.638415 180.84 
" clip-path="url(#p3c926757bf)" style="fill: none; stroke: #b0b0b0; stroke-width: 0.8; stroke-linecap: square"/>
     </g>
     <g id="text_8">
      <!-- 0.20 -->
      <g transform="translate(230.4 92.521898) scale(0.1 -0.1)">
       <defs>
        <path id="DejaVuSans-32" d="M 1228 531 
L 3431 531 
L 3431 0 
L 469 0 
L 469 531 
Q 828 903 1448 1529 
Q 2069 2156 2228 2338 
Q 2531 2678 2651 2914 
Q 2772 3150 2772 3378 
Q 2772 3750 2511 3984 
Q 2250 4219 1831 4219 
Q 1534 4219 1204 4116 
Q 875 4013 500 3803 
L 500 4441 
Q 881 4594 1212 4672 
Q 1544 4750 1819 4750 
Q 2544 4750 2975 4387 
Q 3406 4025 3406 3419 
Q 3406 3131 3298 2873 
Q 3191 2616 2906 2266 
Q 2828 2175 2409 1742 
Q 1991 1309 1228 531 
z
" transform="scale(0.015625)"/>
       </defs>
       <use xlink:href="#DejaVuSans-30"/>
       <use xlink:href="#DejaVuSans-2e" x="63.623047"/>
       <use xlink:href="#DejaVuSans-32" x="95.410156"/>
       <use xlink:href="#DejaVuSans-30" x="159.033203"/>
      </g>
     </g>
    </g>
    <g id="ytick_5">
     <g id="line2d_9">
      <path d="M 338.198019 180.84 
C 338.198019 166.684094 335.409614 152.665836 329.992383 139.587484 
C 324.575152 126.509132 316.634447 114.625027 306.62471 104.61529 
C 296.614973 94.605553 284.730868 86.664848 271.652516 81.247617 
C 258.574164 75.830386 244.555906 73.041981 230.4 73.041981 
C 216.244094 73.041981 202.225836 75.830386 189.147484 81.247617 
C 176.069132 86.664848 164.185027 94.605553 154.17529 104.61529 
C 144.165553 114.625027 136.224848 126.509132 130.807617 139.587484 
C 125.390386 152.665836 122.601981 166.684094 122.601981 180.84 
C 122.601981 194.995906 125.390386 209.014164 130.807617 222.092516 
C 136.224848 235.170868 144.165553 247.054973 154.17529 257.06471 
C 164.185027 267.074447 176.069132 275.015152 189.147484 280.432383 
C 202.225836 285.849614 216.244094 288.638019 230.4 288.638019 
C 244.555906 288.638019 258.574164 285.849614 271.652516 280.432383 
C 284.730868 275.015152 296.614973 267.074447 306.62471 257.06471 
C 316.634447 247.054973 324.575152 235.170868 329.992383 222.092516 
C 335.409614 209.014164 338.198019 194.995906 338.198019 180.84 
" clip-path="url(#p3c926757bf)" style="fill: none; stroke: #b0b0b0; stroke-width: 0.8; stroke-linecap: square"/>
     </g>
     <g id="text_9">
      <!-- 0.25 -->
      <g transform="translate(230.4 70.962294) scale(0.1 -0.1)">
       <use xlink:href="#DejaVuSans-30"/>
       <use xlink:href="#DejaVuSans-2e" x="63.623047"/>
       <use xlink:href="#DejaVuSans-32" x="95.410156"/>
       <use xlink:href="#DejaVuSans-35" x="159.033203"/>
      </g>
     </g>
    </g>
    <g id="ytick_6">
     <g id="line2d_10">
      <path d="M 359.757622 180.84 
C 359.757622 163.852913 356.411536 147.031003 349.91086 131.336981 
C 343.410183 115.642959 333.881337 101.382033 321.869652 89.370348 
C 309.857967 77.358663 295.597041 67.829817 279.903019 61.32914 
C 264.208997 54.828464 247.387087 51.482378 230.4 51.482378 
C 213.412913 51.482378 196.591003 54.828464 180.896981 61.32914 
C 165.202959 67.829817 150.942033 77.358663 138.930348 89.370348 
C 126.918663 101.382033 117.389817 115.642959 110.88914 131.336981 
C 104.388464 147.031003 101.042378 163.852913 101.042378 180.84 
C 101.042378 197.827087 104.388464 214.648997 110.88914 230.343019 
C 117.389817 246.037041 126.918663 260.297967 138.930348 272.309652 
C 150.942033 284.321337 165.202959 293.850183 180.896981 300.35086 
C 196.591003 306.851536 213.412913 310.197622 230.4 310.197622 
C 247.387087 310.197622 264.208997 306.851536 279.903019 300.35086 
C 295.597041 293.850183 309.857967 284.321337 321.869652 272.309652 
C 333.881337 260.297967 343.410183 246.037041 349.91086 230.343019 
C 356.411536 214.648997 359.757622 197.827087 359.757622 180.84 
" clip-path="url(#p3c926757bf)" style="fill: none; stroke: #b0b0b0; stroke-width: 0.8; stroke-linecap: square"/>
     </g>
     <g id="text_10">
      <!-- 0.30 -->
      <g transform="translate(230.4 49.40269) scale(0.1 -0.1)">
       <defs>
        <path id="DejaVuSans-33" d="M 2597 2516 
Q 3050 2419 3304 2112 
Q 3559 1806 3559 1356 
Q 3559 666 3084 287 
Q 2609 -91 1734 -91 
Q 1441 -91 1130 -33 
Q 819 25 488 141 
L 488 750 
Q 750 597 1062 519 
Q 1375 441 1716 441 
Q 2309 441 2620 675 
Q 2931 909 2931 1356 
Q 2931 1769 2642 2001 
Q 2353 2234 1838 2234 
L 1294 2234 
L 1294 2753 
L 1863 2753 
Q 2328 2753 2575 2939 
Q 2822 3125 2822 3475 
Q 2822 3834 2567 4026 
Q 2313 4219 1838 4219 
Q 1578 4219 1281 4162 
Q 984 4106 628 3988 
L 628 4550 
Q 988 4650 1302 4700 
Q 1616 4750 1894 4750 
Q 2613 4750 3031 4423 
Q 3450 4097 3450 3541 
Q 3450 3153 3228 2886 
Q 3006 2619 2597 2516 
z
" transform="scale(0.015625)"/>
       </defs>
       <use xlink:href="#DejaVuSans-30"/>
       <use xlink:href="#DejaVuSans-2e" x="63.623047"/>
       <use xlink:href="#DejaVuSans-33" x="95.410156"/>
       <use xlink:href="#DejaVuSans-30" x="159.033203"/>
      </g>
     </g>
    </g>
   </g>
   <g id="line2d_11">
    <path d="M 358.895238 180.84 
L 230.4 180.696269 
L 223.069735 180.84 
L 230.4 180.84 
L 358.895238 180.84 
" clip-path="url(#p3c926757bf)" style="fill: none; stroke: #1f77b4; stroke-width: 2; stroke-linecap: square"/>
   </g>
   <g id="patch_4">
    <path d="M 365.32 180.84 
C 365.32 163.122468 361.830033 145.577217 355.049827 129.208351 
C 348.269621 112.839486 338.331034 97.96534 325.802847 85.437153 
C 313.27466 72.908966 298.400514 62.970379 282.031649 56.190173 
C 265.662783 49.409967 248.117532 45.92 230.4 45.92 
C 212.682468 45.92 195.137217 49.409967 178.768351 56.190173 
C 162.399486 62.970379 147.52534 72.908966 134.997153 85.437153 
C 122.468966 97.96534 112.530379 112.839486 105.750173 129.208351 
C 98.969967 145.577217 95.48 163.122468 95.48 180.84 
C 95.48 198.557532 98.969967 216.102783 105.750173 232.471649 
C 112.530379 248.840514 122.468966 263.71466 134.997153 276.242847 
C 147.52534 288.771034 162.399486 298.709621 178.768351 305.489827 
C 195.137217 312.270033 212.682468 315.76 230.4 315.76 
C 248.117532 315.76 265.662783 312.270033 282.031649 305.489827 
C 298.400514 298.709621 313.27466 288.771034 325.802847 276.242847 
C 338.331034 263.71466 348.269621 248.840514 355.049827 232.471649 
C 361.830033 216.102783 365.32 198.557532 365.32 180.84 
" style="fill: none; stroke: #000000; stroke-width: 0.8; stroke-linejoin: miter; stroke-linecap: square"/>
   </g>
   <g id="text_11">
    <!-- Failure composition radar – deepseek-coder-7b-instruct-v1.5 [baseline] (absolute) -->
    <g transform="translate(-14.378437 21.080938) scale(0.12 -0.12)">
     <defs>
      <path id="DejaVuSans-46" d="M 628 4666 
L 3309 4666 
L 3309 4134 
L 1259 4134 
L 1259 2759 
L 3109 2759 
L 3109 2228 
L 1259 2228 
L 1259 0 
L 628 0 
L 628 4666 
z
" transform="scale(0.015625)"/>
      <path id="DejaVuSans-69" d="M 603 3500 
L 1178 3500 
L 1178 0 
L 603 0 
L 603 3500 
z
M 603 4863 
L 1178 4863 
L 1178 4134 
L 603 4134 
L 603 4863 
z
" transform="scale(0.015625)"/>
      <path id="DejaVuSans-6c" d="M 603 4863 
L 1178 4863 
L 1178 0 
L 603 0 
L 603 4863 
z
" transform="scale(0.015625)"/>
      <path id="DejaVuSans-75" d="M 544 1381 
L 544 3500 
L 1119 3500 
L 1119 1403 
Q 1119 906 1312 657 
Q 1506 409 1894 409 
Q 2359 409 2629 706 
Q 2900 1003 2900 1516 
L 2900 3500 
L 3475 3500 
L 3475 0 
L 2900 0 
L 2900 538 
Q 2691 219 2414 64 
Q 2138 -91 1772 -91 
Q 1169 -91 856 284 
Q 544 659 544 1381 
z
M 1991 3584 
L 1991 3584 
z
" transform="scale(0.015625)"/>
      <path id="DejaVuSans-20" transform="scale(0.015625)"/>
      <path id="DejaVuSans-63" d="M 3122 3366 
L 3122 2828 
Q 2878 2963 2633 3030 
Q 2388 3097 2138 3097 
Q 1578 3097 1268 2742 
Q 959 2388 959 1747 
Q 959 1106 1268 751 
Q 1578 397 2138 397 
Q 2388 397 2633 464 
Q 2878 531 3122 666 
L 3122 134 
Q 2881 22 2623 -34 
Q 2366 -91 2075 -91 
Q 1284 -91 818 406 
Q 353 903 353 1747 
Q 353 2603 823 3093 
Q 1294 3584 2113 3584 
Q 2378 3584 2631 3529 
Q 2884 3475 3122 3366 
z
" transform="scale(0.015625)"/>
      <path id="DejaVuSans-6f" d="M 1959 3097 
Q 1497 3097 1228 2736 
Q 959 2375 959 1747 
Q 959 1119 1226 758 
Q 1494 397 1959 397 
Q 2419 397 2687 759 
Q 2956 1122 2956 1747 
Q 2956 2369 2687 2733 
Q 2419 3097 1959 3097 
z
M 1959 3584 
Q 2709 3584 3137 3096 
Q 3566 2609 3566 1747 
Q 3566 888 3137 398 
Q 2709 -91 1959 -91 
Q 1206 -91 779 398 
Q 353 888 353 1747 
Q 353 2609 779 3096 
Q 1206 3584 1959 3584 
z
" transform="scale(0.015625)"/>
      <path id="DejaVuSans-6d" d="M 3328 2828 
Q 3544 3216 3844 3400 
Q 4144 3584 4550 3584 
Q 5097 3584 5394 3201 
Q 5691 2819 5691 2113 
L 5691 0 
L 5113 0 
L 5113 2094 
Q 5113 2597 4934 2840 
Q 4756 3084 4391 3084 
Q 3944 3084 3684 2787 
Q 3425 2491 3425 1978 
L 3425 0 
L 2847 0 
L 2847 2094 
Q 2847 2600 2669 2842 
Q 2491 3084 2119 3084 
Q 1678 3084 1418 2786 
Q 1159 2488 1159 1978 
L 1159 0 
L 581 0 
L 581 3500 
L 1159 3500 
L 1159 2956 
Q 1356 3278 1631 3431 
Q 1906 3584 2284 3584 
Q 2666 3584 2933 3390 
Q 3200 3197 3328 2828 
z
" transform="scale(0.015625)"/>
      <path id="DejaVuSans-70" d="M 1159 525 
L 1159 -1331 
L 581 -1331 
L 581 3500 
L 1159 3500 
L 1159 2969 
Q 1341 3281 1617 3432 
Q 1894 3584 2278 3584 
Q 2916 3584 3314 3078 
Q 3713 2572 3713 1747 
Q 3713 922 3314 415 
Q 2916 -91 2278 -91 
Q 1894 -91 1617 61 
Q 1341 213 1159 525 
z
M 3116 1747 
Q 3116 2381 2855 2742 
Q 2594 3103 2138 3103 
Q 1681 3103 1420 2742 
Q 1159 2381 1159 1747 
Q 1159 1113 1420 752 
Q 1681 391 2138 391 
Q 2594 391 2855 752 
Q 3116 1113 3116 1747 
z
" transform="scale(0.015625)"/>
      <path id="DejaVuSans-73" d="M 2834 3397 
L 2834 2853 
Q 2591 2978 2328 3040 
Q 2066 3103 1784 3103 
Q 1356 3103 1142 2972 
Q 928 2841 928 2578 
Q 928 2378 1081 2264 
Q 1234 2150 1697 2047 
L 1894 2003 
Q 2506 1872 2764 1633 
Q 3022 1394 3022 966 
Q 3022 478 2636 193 
Q 2250 -91 1575 -91 
Q 1294 -91 989 -36 
Q 684 19 347 128 
L 347 722 
Q 666 556 975 473 
Q 1284 391 1588 391 
Q 1994 391 2212 530 
Q 2431 669 2431 922 
Q 2431 1156 2273 1281 
Q 2116 1406 1581 1522 
L 1381 1569 
Q 847 1681 609 1914 
Q 372 2147 372 2553 
Q 372 3047 722 3315 
Q 1072 3584 1716 3584 
Q 2034 3584 2315 3537 
Q 2597 3491 2834 3397 
z
" transform="scale(0.015625)"/>
      <path id="DejaVuSans-6e" d="M 3513 2113 
L 3513 0 
L 2938 0 
L 2938 2094 
Q 2938 2591 2744 2837 
Q 2550 3084 2163 3084 
Q 1697 3084 1428 2787 
Q 1159 2491 1159 1978 
L 1159 0 
L 581 0 
L 581 3500 
L 1159 3500 
L 1159 2956 
Q 1366 3272 1645 3428 
Q 1925 3584 2291 3584 
Q 2894 3584 3203 3211 
Q 3513 2838 3513 2113 
z
" transform="scale(0.015625)"/>
      <path id="DejaVuSans-64" d="M 2906 2969 
L 2906 4863 
L 3481 4863 
L 3481 0 
L 2906 0 
L 2906 525 
Q 2725 213 2448 61 
Q 2172 -91 1784 -91 
Q 1150 -91 751 415 
Q 353 922 353 1747 
Q 353 2572 751 3078 
Q 1150 3584 1784 3584 
Q 2172 3584 2448 3432 
Q 2725 3281 2906 2969 
z
M 947 1747 
Q 947 1113 1208 752 
Q 1469 391 1925 391 
Q 2381 391 2643 752 
Q 2906 1113 2906 1747 
Q 2906 2381 2643 2742 
Q 2381 3103 1925 3103 
Q 1469 3103 1208 2742 
Q 947 2381 947 1747 
z
" transform="scale(0.015625)"/>
      <path id="DejaVuSans-2013" d="M 313 1978 
L 2888 1978 
L 2888 1528 
L 313 1528 
L 313 1978 
z
" transform="scale(0.015625)"/>
      <path id="DejaVuSans-6b" d="M 581 4863 
L 1159 4863 
L 1159 1991 
L 2875 3500 
L 3609 3500 
L 1753 1863 
L 3688 0 
L 2938 0 
L 1159 1709 
L 1159 0 
L 581 0 
L 581 4863 
z
" transform="scale(0.015625)"/>
      <path id="DejaVuSans-2d" d="M 313 2009 
L 1997 2009 
L 1997 1497 
L 313 1497 
L 313 2009 
z
" transform="scale(0.015625)"/>
      <path id="DejaVuSans-37" d="M 525 4666 
L 3525 4666 
L 3525 4397 
L 1831 0 
L 1172 0 
L 2766 4134 
L 525 4134 
L 525 4666 
z
" transform="scale(0.015625)"/>
      <path id="DejaVuSans-62" d="M 3116 1747 
Q 3116 2381 2855 2742 
Q 2594 3103 2138 3103 
Q 1681 3103 1420 2742 
Q 1159 2381 1159 1747 
Q 1159 1113 1420 752 
Q 1681 391 2138 391 
Q 2594 391 2855 752 
Q 3116 1113 3116 1747 
z
M 1159 2969 
Q 1341 3281 1617 3432 
Q 1894 3584 2278 3584 
Q 2916 3584 3314 3078 
Q 3713 2572 3713 1747 
Q 3713 922 3314 415 
Q 2916 -91 2278 -91 
Q 1894 -91 1617 61 
Q 1341 213 1159 525 
L 1159 0 
L 581 0 
L 581 4863 
L 1159 4863 
L 1159 2969 
z
" transform="scale(0.015625)"/>
      <path id="DejaVuSans-76" d="M 191 3500 
L 800 3500 
L 1894 563 
L 2988 3500 
L 3597 3500 
L 2284 0 
L 1503 0 
L 191 3500 
z
" transform="scale(0.015625)"/>
      <path id="DejaVuSans-5b" d="M 550 4863 
L 1875 4863 
L 1875 4416 
L 1125 4416 
L 1125 -397 
L 1875 -397 
L 1875 -844 
L 550 -844 
L 550 4863 
z
" transform="scale(0.015625)"/>
      <path id="DejaVuSans-5d" d="M 1947 4863 
L 1947 -844 
L 622 -844 
L 622 -397 
L 1369 -397 
L 1369 4416 
L 622 4416 
L 622 4863 
L 1947 4863 
z
" transform="scale(0.015625)"/>
      <path id="DejaVuSans-28" d="M 1984 4856 
Q 1566 4138 1362 3434 
Q 1159 2731 1159 2009 
Q 1159 1288 1364 580 
Q 1569 -128 1984 -844 
L 1484 -844 
Q 1016 -109 783 600 
Q 550 1309 550 2009 
Q 550 2706 781 3412 
Q 1013 4119 1484 4856 
L 1984 4856 
z
" transform="scale(0.015625)"/>
      <path id="DejaVuSans-29" d="M 513 4856 
L 1013 4856 
Q 1481 4119 1714 3412 
Q 1947 2706 1947 2009 
Q 1947 1309 1714 600 
Q 1481 -109 1013 -844 
L 513 -844 
Q 928 -128 1133 580 
Q 1338 1288 1338 2009 
Q 1338 2731 1133 3434 
Q 928 4138 513 4856 
z
" transform="scale(0.015625)"/>
     </defs>
     <use xlink:href="#DejaVuSans-46"/>
     <use xlink:href="#DejaVuSans-61" x="48.394531"/>
     <use xlink:href="#DejaVuSans-69" x="109.673828"/>
     <use xlink:href="#DejaVuSans-6c" x="137.457031"/>
     <use xlink:href="#DejaVuSans-75" x="165.240234"/>
     <use xlink:href="#DejaVuSans-72" x="228.619141"/>
     <use xlink:href="#DejaVuSans-65" x="267.482422"/>
     <use xlink:href="#DejaVuSans-20" x="329.005859"/>
     <use xlink:href="#DejaVuSans-63" x="360.792969"/>
     <use xlink:href="#DejaVuSans-6f" x="415.773438"/>
     <use xlink:href="#DejaVuSans-6d" x="476.955078"/>
     <use xlink:href="#DejaVuSans-70" x="574.367188"/>
     <use xlink:href="#DejaVuSans-6f" x="637.84375"/>
     <use xlink:href="#DejaVuSans-73" x="699.025391"/>
     <use xlink:href="#DejaVuSans-69" x="751.125"/>
     <use xlink:href="#DejaVuSans-74" x="778.908203"/>
     <use xlink:href="#DejaVuSans-69" x="818.117188"/>
     <use xlink:href="#DejaVuSans-6f" x="845.900391"/>
     <use xlink:href="#DejaVuSans-6e" x="907.082031"/>
     <use xlink:href="#DejaVuSans-20" x="970.460938"/>
     <use xlink:href="#DejaVuSans-72" x="1002.248047"/>
     <use xlink:href="#DejaVuSans-61" x="1043.361328"/>
     <use xlink:href="#DejaVuSans-64" x="1104.640625"/>
     <use xlink:href="#DejaVuSans-61" x="1168.117188"/>
     <use xlink:href="#DejaVuSans-72" x="1229.396484"/>
     <use xlink:href="#DejaVuSans-20" x="1270.509766"/>
     <use xlink:href="#DejaVuSans-2013" x="1302.296875"/>
     <use xlink:href="#DejaVuSans-20" x="1352.296875"/>
     <use xlink:href="#DejaVuSans-64" x="1384.083984"/>
     <use xlink:href="#DejaVuSans-65" x="1447.560547"/>
     <use xlink:href="#DejaVuSans-65" x="1509.083984"/>
     <use xlink:href="#DejaVuSans-70" x="1570.607422"/>
     <use xlink:href="#DejaVuSans-73" x="1634.083984"/>
     <use xlink:href="#DejaVuSans-65" x="1686.183594"/>
     <use xlink:href="#DejaVuSans-65" x="1747.707031"/>
     <use xlink:href="#DejaVuSans-6b" x="1809.230469"/>
     <use xlink:href="#DejaVuSans-2d" x="1867.140625"/>
     <use xlink:href="#DejaVuSans-63" x="1903.224609"/>
     <use xlink:href="#DejaVuSans-6f" x="1958.205078"/>
     <use xlink:href="#DejaVuSans-64" x="2019.386719"/>
     <use xlink:href="#DejaVuSans-65" x="2082.863281"/>
     <use xlink:href="#DejaVuSans-72" x="2144.386719"/>
     <use xlink:href="#DejaVuSans-2d" x="2179.125"/>
     <use xlink:href="#DejaVuSans-37" x="2215.208984"/>
     <use xlink:href="#DejaVuSans-62" x="2278.832031"/>
     <use xlink:href="#DejaVuSans-2d" x="2342.308594"/>
     <use xlink:href="#DejaVuSans-69" x="2378.392578"/>
     <use xlink:href="#DejaVuSans-6e" x="2406.175781"/>
     <use xlink:href="#DejaVuSans-73" x="2469.554688"/>
     <use xlink:href="#DejaVuSans-74" x="2521.654297"/>
     <use xlink:href="#DejaVuSans-72" x="2560.863281"/>
     <use xlink:href="#DejaVuSans-75" x="2601.976562"/>
     <use xlink:href="#DejaVuSans-63" x="2665.355469"/>
     <use xlink:href="#DejaVuSans-74" x="2720.335938"/>
     <use xlink:href="#DejaVuSans-2d" x="2759.544922"/>
     <use xlink:href="#DejaVuSans-76" x="2793.003906"/>
     <use xlink:href="#DejaVuSans-31" x="2852.183594"/>
     <use xlink:href="#DejaVuSans-2e" x="2915.806641"/>
     <use xlink:href="#DejaVuSans-35" x="2947.59375"/>
     <use xlink:href="#DejaVuSans-20" x="3011.216797"/>
     <use xlink:href="#DejaVuSans-5b" x="3043.003906"/>
     <use xlink:href="#DejaVuSans-62" x="3082.017578"/>
     <use xlink:href="#DejaVuSans-61" x="3145.494141"/>
     <use xlink:href="#DejaVuSans-73" x="3206.773438"/>
     <use xlink:href="#DejaVuSans-65" x="3258.873047"/>
     <use xlink:href="#DejaVuSans-6c" x="3320.396484"/>
     <use xlink:href="#DejaVuSans-69" x="3348.179688"/>
     <use xlink:href="#DejaVuSans-6e" x="3375.962891"/>
     <use xlink:href="#DejaVuSans-65" x="3439.341797"/>
     <use xlink:href="#DejaVuSans-5d" x="3500.865234"/>
     <use xlink:href="#DejaVuSans-20" x="3539.878906"/>
     <use xlink:href="#DejaVuSans-28" x="3571.666016"/>
     <use xlink:href="#DejaVuSans-61" x="3610.679688"/>
     <use xlink:href="#DejaVuSans-62" x="3671.958984"/>
     <use xlink:href="#DejaVuSans-73" x="3735.435547"/>
     <use xlink:href="#DejaVuSans-6f" x="3787.535156"/>
     <use xlink:href="#DejaVuSans-6c" x="3848.716797"/>
     <use xlink:href="#DejaVuSans-75" x="3876.5"/>
     <use xlink:href="#DejaVuSans-74" x="3939.878906"/>
     <use xlink:href="#DejaVuSans-65" x="3979.087891"/>
     <use xlink:href="#DejaVuSans-29" x="4040.611328"/>
    </g>
   </g>
  </g>
 </g>
 <defs>
  <clipPath id="p3c926757bf">
   <path d="M 365.32 180.84 
C 365.32 163.122468 361.830033 145.577217 355.049827 129.208351 
C 348.269621 112.839486 338.331034 97.96534 325.802847 85.437153 
C 313.27466 72.908966 298.400514 62.970379 282.031649 56.190173 
C 265.662783 49.409967 248.117532 45.92 230.4 45.92 
C 212.682468 45.92 195.137217 49.409967 178.768351 56.190173 
C 162.399486 62.970379 147.52534 72.908966 134.997153 85.437153 
C 122.468966 97.96534 112.530379 112.839486 105.750173 129.208351 
C 98.969967 145.577217 95.48 163.122468 95.48 180.84 
C 95.48 198.557532 98.969967 216.102783 105.750173 232.471649 
C 112.530379 248.840514 122.468966 263.71466 134.997153 276.242847 
C 147.52534 288.771034 162.399486 298.709621 178.768351 305.489827 
C 195.137217 312.270033 212.682468 315.76 230.4 315.76 
C 248.117532 315.76 265.662783 312.270033 282.031649 305.489827 
C 298.400514 298.709621 313.27466 288.771034 325.802847 276.242847 
C 338.331034 263.71466 348.269621 248.840514 355.049827 232.471649 
C 361.830033 216.102783 365.32 198.557532 365.32 180.84 
M 230.4 180.84 
C 230.4 180.84 230.4 180.84 230.4 180.84 
C 230.4 180.84 230.4 180.84 230.4 180.84 
C 230.4 180.84 230.4 180.84 230.4 180.84 
C 230.4 180.84 230.4 180.84 230.4 180.84 
C 230.4 180.84 230.4 180.84 230.4 180.84 
C 230.4 180.84 230.4 180.84 230.4 180.84 
C 230.4 180.84 230.4 180.84 230.4 180.84 
C 230.4 180.84 230.4 180.84 230.4 180.84 
C 230.4 180.84 230.4 180.84 230.4 180.84 
C 230.4 180.84 230.4 180.84 230.4 180.84 
C 230.4 180.84 230.4 180.84 230.4 180.84 
C 230.4 180.84 230.4 180.84 230.4 180.84 
C 230.4 180.84 230.4 180.84 230.4 180.84 
C 230.4 180.84 230.4 180.84 230.4 180.84 
C 230.4 180.84 230.4 180.84 230.4 180.84 
C 230.4 180.84 230.4 180.84 230.4 180.84 
z
"/>
  </clipPath>
 </defs>
</svg>
