<?xml version="1.0" encoding="utf-8" standalone="no"?>
<!DOCTYPE svg PUBLIC "-//W3C//DTD SVG 1.1//EN"
  "http://www.w3.org/Graphics/SVG/1.1/DTD/svg11.dtd">
<svg xmlns:xlink="http://www.w3.org/1999/xlink" width="460.8pt" height="345.6pt" viewBox="0 0 460.8 345.6" xmlns="http://www.w3.org/2000/svg" version="1.1">
 <metadata>
  <rdf:RDF xmlns:dc="http://purl.org/dc/elements/1.1/" xmlns:cc="http://creativecommons.org/ns#" xmlns:rdf="http://www.w3.org/1999/02/22-rdf-syntax-ns#">
   <cc:Work>
    <dc:type rdf:resource="http://purl.org/dc/dcmitype/StillImage"/>
    <dc:date>2025-10-04T13:39:35.911246</dc:date>
    <dc:format>image/svg+xml</dc:format>
    <dc:creator>
     <cc:Agent>
      <dc:title>Matplotlib v3.9.0, https://matplotlib.org/</dc:title>
     </cc:Agent>
    </dc:creator>
   </cc:Work>
  </rdf:RDF>
 </metadata>
 <defs>
  <style type="text/css">*{stroke-linejoin: round; stroke-linecap: butt}</style>
 </defs>
 <g id="figure_1">
  <g id="patch_1">
   <path d="M 0 345.6 
L 460.8 345.6 
L 460.8 0 
L 0 0 
z
" style="fill: #ffffff"/>
  </g>
  <g id="axes_1">
   <g id="patch_2">
    <path d="M 365.32 180.84 
C 365.32 163.122468 361.830033 145.577217 355.049827 129.208351 
C 348.269621 112.839486 338.331034 97.96534 325.802847 85.437153 
C 313.27466 72.908966 298.400514 62.970379 282.031649 56.190173 
C 265.662783 49.409967 248.117532 45.92 230.4 45.92 
C 212.682468 45.92 195.137217 49.409967 178.768351 56.190173 
C 162.399486 62.970379 147.52534 72.908966 134.997153 85.437153 
C 122.468966 97.96534 112.530379 112.839486 105.750173 129.208351 
C 98.969967 145.577217 95.48 163.122468 95.48 180.84 
C 95.48 198.557532 98.969967 216.102783 105.750173 232.471649 
C 112.530379 248.840514 122.468966 263.71466 134.997153 276.242847 
C 147.52534 288.771034 162.399486 298.709621 178.768351 305.489827 
C 195.137217 312.270033 212.682468 315.76 230.4 315.76 
C 248.117532 315.76 265.662783 312.270033 282.031649 305.489827 
C 298.400514 298.709621 313.27466 288.771034 325.802847 276.242847 
C 338.331034 263.71466 348.269621 248.840514 355.049827 232.471649 
C 361.830033 216.102783 365.32 198.557532 365.32 180.84 
M 230.4 180.84 
C 230.4 180.84 230.4 180.84 230.4 180.84 
C 230.4 180.84 230.4 180.84 230.4 180.84 
C 230.4 180.84 230.4 180.84 230.4 180.84 
C 230.4 180.84 230.4 180.84 230.4 180.84 
C 230.4 180.84 230.4 180.84 230.4 180.84 
C 230.4 180.84 230.4 180.84 230.4 180.84 
C 230.4 180.84 230.4 180.84 230.4 180.84 
C 230.4 180.84 230.4 180.84 230.4 180.84 
C 230.4 180.84 230.4 180.84 230.4 180.84 
C 230.4 180.84 230.4 180.84 230.4 180.84 
C 230.4 180.84 230.4 180.84 230.4 180.84 
C 230.4 180.84 230.4 180.84 230.4 180.84 
C 230.4 180.84 230.4 180.84 230.4 180.84 
C 230.4 180.84 230.4 180.84 230.4 180.84 
C 230.4 180.84 230.4 180.84 230.4 180.84 
C 230.4 180.84 230.4 180.84 230.4 180.84 
z
" style="fill: #ffffff"/>
   </g>
   <g id="patch_3">
    <path d="M 358.895238 180.84 
L 230.4 180.84 
L 222.492601 180.84 
L 230.4 180.84 
z
" clip-path="url(#pefe4905aff)" style="fill: #1f77b4; opacity: 0.15"/>
   </g>
   <g id="matplotlib.axis_1">
    <g id="xtick_1">
     <g id="line2d_1">
      <path d="M 230.4 180.84 
L 365.32 180.84 
" clip-path="url(#pefe4905aff)" style="fill: none; stroke: #b0b0b0; stroke-width: 0.8; stroke-linecap: square"/>
     </g>
     <g id="text_1">
      <!-- rate_WA -->
      <g transform="translate(358.574687 183.32125) scale(0.1 -0.1)">
       <defs>
        <path id="DejaVuSans-72" d="M 2631 2963 
Q 2534 3019 2420 3045 
Q 2306 3072 2169 3072 
Q 1681 3072 1420 2755 
Q 1159 2438 1159 1844 
L 1159 0 
L 581 0 
L 581 3500 
L 1159 3500 
L 1159 2956 
Q 1341 3275 1631 3429 
Q 1922 3584 2338 3584 
Q 2397 3584 2469 3576 
Q 2541 3569 2628 3553 
L 2631 2963 
z
" transform="scale(0.015625)"/>
        <path id="DejaVuSans-61" d="M 2194 1759 
Q 1497 1759 1228 1600 
Q 959 1441 959 1056 
Q 959 750 1161 570 
Q 1363 391 1709 391 
Q 2188 391 2477 730 
Q 2766 1069 2766 1631 
L 2766 1759 
L 2194 1759 
z
M 3341 1997 
L 3341 0 
L 2766 0 
L 2766 531 
Q 2569 213 2275 61 
Q 1981 -91 1556 -91 
Q 1019 -91 701 211 
Q 384 513 384 1019 
Q 384 1609 779 1909 
Q 1175 2209 1959 2209 
L 2766 2209 
L 2766 2266 
Q 2766 2663 2505 2880 
Q 2244 3097 1772 3097 
Q 1472 3097 1187 3025 
Q 903 2953 641 2809 
L 641 3341 
Q 956 3463 1253 3523 
Q 1550 3584 1831 3584 
Q 2591 3584 2966 3190 
Q 3341 2797 3341 1997 
z
" transform="scale(0.015625)"/>
        <path id="DejaVuSans-74" d="M 1172 4494 
L 1172 3500 
L 2356 3500 
L 2356 3053 
L 1172 3053 
L 1172 1153 
Q 1172 725 1289 603 
Q 1406 481 1766 481 
L 2356 481 
L 2356 0 
L 1766 0 
Q 1100 0 847 248 
Q 594 497 594 1153 
L 594 3053 
L 172 3053 
L 172 3500 
L 594 3500 
L 594 4494 
L 1172 4494 
z
" transform="scale(0.015625)"/>
        <path id="DejaVuSans-65" d="M 3597 1894 
L 3597 1613 
L 953 1613 
Q 991 1019 1311 708 
Q 1631 397 2203 397 
Q 2534 397 2845 478 
Q 3156 559 3463 722 
L 3463 178 
Q 3153 47 2828 -22 
Q 2503 -91 2169 -91 
Q 1331 -91 842 396 
Q 353 884 353 1716 
Q 353 2575 817 3079 
Q 1281 3584 2069 3584 
Q 2775 3584 3186 3129 
Q 3597 2675 3597 1894 
z
M 3022 2063 
Q 3016 2534 2758 2815 
Q 2500 3097 2075 3097 
Q 1594 3097 1305 2825 
Q 1016 2553 972 2059 
L 3022 2063 
z
" transform="scale(0.015625)"/>
        <path id="DejaVuSans-5f" d="M 3263 -1063 
L 3263 -1509 
L -63 -1509 
L -63 -1063 
L 3263 -1063 
z
" transform="scale(0.015625)"/>
        <path id="DejaVuSans-57" d="M 213 4666 
L 850 4666 
L 1831 722 
L 2809 4666 
L 3519 4666 
L 4500 722 
L 5478 4666 
L 6119 4666 
L 4947 0 
L 4153 0 
L 3169 4050 
L 2175 0 
L 1381 0 
L 213 4666 
z
" transform="scale(0.015625)"/>
        <path id="DejaVuSans-41" d="M 2188 4044 
L 1331 1722 
L 3047 1722 
L 2188 4044 
z
M 1831 4666 
L 2547 4666 
L 4325 0 
L 3669 0 
L 3244 1197 
L 1141 1197 
L 716 0 
L 50 0 
L 1831 4666 
z
" transform="scale(0.015625)"/>
       </defs>
       <use xlink:href="#DejaVuSans-72"/>
       <use xlink:href="#DejaVuSans-61" x="41.113281"/>
       <use xlink:href="#DejaVuSans-74" x="102.392578"/>
       <use xlink:href="#DejaVuSans-65" x="141.601562"/>
       <use xlink:href="#DejaVuSans-5f" x="203.125"/>
       <use xlink:href="#DejaVuSans-57" x="253.125"/>
       <use xlink:href="#DejaVuSans-41" x="346.501953"/>
      </g>
     </g>
    </g>
    <g id="xtick_2">
     <g id="line2d_2">
      <path d="M 230.4 180.84 
L 230.4 45.92 
" clip-path="url(#pefe4905aff)" style="fill: none; stroke: #b0b0b0; stroke-width: 0.8; stroke-linecap: square"/>
     </g>
     <g id="text_2">
      <!-- rate_TLE -->
      <g transform="translate(208.744531 34.40125) scale(0.1 -0.1)">
       <defs>
        <path id="DejaVuSans-54" d="M -19 4666 
L 3928 4666 
L 3928 4134 
L 2272 4134 
L 2272 0 
L 1638 0 
L 1638 4134 
L -19 4134 
L -19 4666 
z
" transform="scale(0.015625)"/>
        <path id="DejaVuSans-4c" d="M 628 4666 
L 1259 4666 
L 1259 531 
L 3531 531 
L 3531 0 
L 628 0 
L 628 4666 
z
" transform="scale(0.015625)"/>
        <path id="DejaVuSans-45" d="M 628 4666 
L 3578 4666 
L 3578 4134 
L 1259 4134 
L 1259 2753 
L 3481 2753 
L 3481 2222 
L 1259 2222 
L 1259 531 
L 3634 531 
L 3634 0 
L 628 0 
L 628 4666 
z
" transform="scale(0.015625)"/>
       </defs>
       <use xlink:href="#DejaVuSans-72"/>
       <use xlink:href="#DejaVuSans-61" x="41.113281"/>
       <use xlink:href="#DejaVuSans-74" x="102.392578"/>
       <use xlink:href="#DejaVuSans-65" x="141.601562"/>
       <use xlink:href="#DejaVuSans-5f" x="203.125"/>
       <use xlink:href="#DejaVuSans-54" x="253.125"/>
       <use xlink:href="#DejaVuSans-4c" x="314.208984"/>
       <use xlink:href="#DejaVuSans-45" x="369.921875"/>
      </g>
     </g>
    </g>
    <g id="xtick_3">
     <g id="line2d_3">
      <path d="M 230.4 180.84 
L 95.48 180.84 
" clip-path="url(#pefe4905aff)" style="fill: none; stroke: #b0b0b0; stroke-width: 0.8; stroke-linecap: square"/>
     </g>
     <g id="text_3">
      <!-- rate_RE -->
      <g transform="translate(62.190156 183.32125) scale(0.1 -0.1)">
       <defs>
        <path id="DejaVuSans-52" d="M 2841 2188 
Q 3044 2119 3236 1894 
Q 3428 1669 3622 1275 
L 4263 0 
L 3584 0 
L 2988 1197 
Q 2756 1666 2539 1819 
Q 2322 1972 1947 1972 
L 1259 1972 
L 1259 0 
L 628 0 
L 628 4666 
L 2053 4666 
Q 2853 4666 3247 4331 
Q 3641 3997 3641 3322 
Q 3641 2881 3436 2590 
Q 3231 2300 2841 2188 
z
M 1259 4147 
L 1259 2491 
L 2053 2491 
Q 2509 2491 2742 2702 
Q 2975 2913 2975 3322 
Q 2975 3731 2742 3939 
Q 2509 4147 2053 4147 
L 1259 4147 
z
" transform="scale(0.015625)"/>
       </defs>
       <use xlink:href="#DejaVuSans-72"/>
       <use xlink:href="#DejaVuSans-61" x="41.113281"/>
       <use xlink:href="#DejaVuSans-74" x="102.392578"/>
       <use xlink:href="#DejaVuSans-65" x="141.601562"/>
       <use xlink:href="#DejaVuSans-5f" x="203.125"/>
       <use xlink:href="#DejaVuSans-52" x="253.125"/>
       <use xlink:href="#DejaVuSans-45" x="322.607422"/>
      </g>
     </g>
    </g>
    <g id="xtick_4">
     <g id="line2d_4">
      <path d="M 230.4 180.84 
L 230.4 315.76 
" clip-path="url(#pefe4905aff)" style="fill: none; stroke: #b0b0b0; stroke-width: 0.8; stroke-linecap: square"/>
     </g>
     <g id="text_4">
      <!-- rate_CE -->
      <g transform="translate(211.092969 332.292031) scale(0.1 -0.1)">
       <defs>
        <path id="DejaVuSans-43" d="M 4122 4306 
L 4122 3641 
Q 3803 3938 3442 4084 
Q 3081 4231 2675 4231 
Q 1875 4231 1450 3742 
Q 1025 3253 1025 2328 
Q 1025 1406 1450 917 
Q 1875 428 2675 428 
Q 3081 428 3442 575 
Q 3803 722 4122 1019 
L 4122 359 
Q 3791 134 3420 21 
Q 3050 -91 2638 -91 
Q 1578 -91 968 557 
Q 359 1206 359 2328 
Q 359 3453 968 4101 
Q 1578 4750 2638 4750 
Q 3056 4750 3426 4639 
Q 3797 4528 4122 4306 
z
" transform="scale(0.015625)"/>
       </defs>
       <use xlink:href="#DejaVuSans-72"/>
       <use xlink:href="#DejaVuSans-61" x="41.113281"/>
       <use xlink:href="#DejaVuSans-74" x="102.392578"/>
       <use xlink:href="#DejaVuSans-65" x="141.601562"/>
       <use xlink:href="#DejaVuSans-5f" x="203.125"/>
       <use xlink:href="#DejaVuSans-43" x="253.125"/>
       <use xlink:href="#DejaVuSans-45" x="322.949219"/>
      </g>
     </g>
    </g>
   </g>
   <g id="matplotlib.axis_2">
    <g id="ytick_1">
     <g id="line2d_5">
      <path d="M 246.873748 180.84 
C 246.873748 178.676687 246.447623 176.53441 245.619759 174.535769 
C 244.791895 172.537129 243.578392 170.720994 242.048699 169.191301 
C 240.519006 167.661608 238.702871 166.448105 236.704231 165.620241 
C 234.70559 164.792377 232.563313 164.366252 230.4 164.366252 
C 228.236687 164.366252 226.09441 164.792377 224.095769 165.620241 
C 222.097129 166.448105 220.280994 167.661608 218.751301 169.191301 
C 217.221608 170.720994 216.008105 172.537129 215.180241 174.535769 
C 214.352377 176.53441 213.926252 178.676687 213.926252 180.84 
C 213.926252 183.003313 214.352377 185.14559 215.180241 187.144231 
C 216.008105 189.142871 217.221608 190.959006 218.751301 192.488699 
C 220.280994 194.018392 222.097129 195.231895 224.095769 196.059759 
C 226.09441 196.887623 228.236687 197.313748 230.4 197.313748 
C 232.563313 197.313748 234.70559 196.887623 236.704231 196.059759 
C 238.702871 195.231895 240.519006 194.018392 242.048699 192.488699 
C 243.578392 190.959006 244.791895 189.142871 245.619759 187.144231 
C 246.447623 185.14559 246.873748 183.003313 246.873748 180.84 
" clip-path="url(#pefe4905aff)" style="fill: none; stroke: #b0b0b0; stroke-width: 0.8; stroke-linecap: square"/>
     </g>
     <g id="text_5">
      <!-- 0.025 -->
      <g transform="translate(230.4 162.286564) scale(0.1 -0.1)">
       <defs>
        <path id="DejaVuSans-30" d="M 2034 4250 
Q 1547 4250 1301 3770 
Q 1056 3291 1056 2328 
Q 1056 1369 1301 889 
Q 1547 409 2034 409 
Q 2525 409 2770 889 
Q 3016 1369 3016 2328 
Q 3016 3291 2770 3770 
Q 2525 4250 2034 4250 
z
M 2034 4750 
Q 2819 4750 3233 4129 
Q 3647 3509 3647 2328 
Q 3647 1150 3233 529 
Q 2819 -91 2034 -91 
Q 1250 -91 836 529 
Q 422 1150 422 2328 
Q 422 3509 836 4129 
Q 1250 4750 2034 4750 
z
" transform="scale(0.015625)"/>
        <path id="DejaVuSans-2e" d="M 684 794 
L 1344 794 
L 1344 0 
L 684 0 
L 684 794 
z
" transform="scale(0.015625)"/>
        <path id="DejaVuSans-32" d="M 1228 531 
L 3431 531 
L 3431 0 
L 469 0 
L 469 531 
Q 828 903 1448 1529 
Q 2069 2156 2228 2338 
Q 2531 2678 2651 2914 
Q 2772 3150 2772 3378 
Q 2772 3750 2511 3984 
Q 2250 4219 1831 4219 
Q 1534 4219 1204 4116 
Q 875 4013 500 3803 
L 500 4441 
Q 881 4594 1212 4672 
Q 1544 4750 1819 4750 
Q 2544 4750 2975 4387 
Q 3406 4025 3406 3419 
Q 3406 3131 3298 2873 
Q 3191 2616 2906 2266 
Q 2828 2175 2409 1742 
Q 1991 1309 1228 531 
z
" transform="scale(0.015625)"/>
        <path id="DejaVuSans-35" d="M 691 4666 
L 3169 4666 
L 3169 4134 
L 1269 4134 
L 1269 2991 
Q 1406 3038 1543 3061 
Q 1681 3084 1819 3084 
Q 2600 3084 3056 2656 
Q 3513 2228 3513 1497 
Q 3513 744 3044 326 
Q 2575 -91 1722 -91 
Q 1428 -91 1123 -41 
Q 819 9 494 109 
L 494 744 
Q 775 591 1075 516 
Q 1375 441 1709 441 
Q 2250 441 2565 725 
Q 2881 1009 2881 1497 
Q 2881 1984 2565 2268 
Q 2250 2553 1709 2553 
Q 1456 2553 1204 2497 
Q 953 2441 691 2322 
L 691 4666 
z
" transform="scale(0.015625)"/>
       </defs>
       <use xlink:href="#DejaVuSans-30"/>
       <use xlink:href="#DejaVuSans-2e" x="63.623047"/>
       <use xlink:href="#DejaVuSans-30" x="95.410156"/>
       <use xlink:href="#DejaVuSans-32" x="159.033203"/>
       <use xlink:href="#DejaVuSans-35" x="222.65625"/>
      </g>
     </g>
    </g>
    <g id="ytick_2">
     <g id="line2d_6">
      <path d="M 263.347497 180.84 
C 263.347497 176.513374 262.495246 172.22882 260.839518 168.231539 
C 259.18379 164.234258 256.756785 160.601988 253.697399 157.542601 
C 250.638012 154.483215 247.005742 152.05621 243.008461 150.400482 
C 239.01118 148.744754 234.726626 147.892503 230.4 147.892503 
C 226.073374 147.892503 221.78882 148.744754 217.791539 150.400482 
C 213.794258 152.05621 210.161988 154.483215 207.102601 157.542601 
C 204.043215 160.601988 201.61621 164.234258 199.960482 168.231539 
C 198.304754 172.22882 197.452503 176.513374 197.452503 180.84 
C 197.452503 185.166626 198.304754 189.45118 199.960482 193.448461 
C 201.61621 197.445742 204.043215 201.078012 207.102601 204.137399 
C 210.161988 207.196785 213.794258 209.62379 217.791539 211.279518 
C 221.78882 212.935246 226.073374 213.787497 230.4 213.787497 
C 234.726626 213.787497 239.01118 212.935246 243.008461 211.279518 
C 247.005742 209.62379 250.638012 207.196785 253.697399 204.137399 
C 256.756785 201.078012 259.18379 197.445742 260.839518 193.448461 
C 262.495246 189.45118 263.347497 185.166626 263.347497 180.84 
" clip-path="url(#pefe4905aff)" style="fill: none; stroke: #b0b0b0; stroke-width: 0.8; stroke-linecap: square"/>
     </g>
     <g id="text_6">
      <!-- 0.050 -->
      <g transform="translate(230.4 145.812816) scale(0.1 -0.1)">
       <use xlink:href="#DejaVuSans-30"/>
       <use xlink:href="#DejaVuSans-2e" x="63.623047"/>
       <use xlink:href="#DejaVuSans-30" x="95.410156"/>
       <use xlink:href="#DejaVuSans-35" x="159.033203"/>
       <use xlink:href="#DejaVuSans-30" x="222.65625"/>
      </g>
     </g>
    </g>
    <g id="ytick_3">
     <g id="line2d_7">
      <path d="M 279.821245 180.84 
C 279.821245 174.350062 278.542869 167.92323 276.059277 161.927308 
C 273.575685 155.931387 269.935177 150.482982 265.346098 145.893902 
C 260.757018 141.304823 255.308613 137.664315 249.312692 135.180723 
C 243.31677 132.697131 236.889938 131.418755 230.4 131.418755 
C 223.910062 131.418755 217.48323 132.697131 211.487308 135.180723 
C 205.491387 137.664315 200.042982 141.304823 195.453902 145.893902 
C 190.864823 150.482982 187.224315 155.931387 184.740723 161.927308 
C 182.257131 167.92323 180.978755 174.350062 180.978755 180.84 
C 180.978755 187.329938 182.257131 193.75677 184.740723 199.752692 
C 187.224315 205.748613 190.864823 211.197018 195.453902 215.786098 
C 200.042982 220.375177 205.491387 224.015685 211.487308 226.499277 
C 217.48323 228.982869 223.910062 230.261245 230.4 230.261245 
C 236.889938 230.261245 243.31677 228.982869 249.312692 226.499277 
C 255.308613 224.015685 260.757018 220.375177 265.346098 215.786098 
C 269.935177 211.197018 273.575685 205.748613 276.059277 199.752692 
C 278.542869 193.75677 279.821245 187.329938 279.821245 180.84 
" clip-path="url(#pefe4905aff)" style="fill: none; stroke: #b0b0b0; stroke-width: 0.8; stroke-linecap: square"/>
     </g>
     <g id="text_7">
      <!-- 0.075 -->
      <g transform="translate(230.4 129.339067) scale(0.1 -0.1)">
       <defs>
        <path id="DejaVuSans-37" d="M 525 4666 
L 3525 4666 
L 3525 4397 
L 1831 0 
L 1172 0 
L 2766 4134 
L 525 4134 
L 525 4666 
z
" transform="scale(0.015625)"/>
       </defs>
       <use xlink:href="#DejaVuSans-30"/>
       <use xlink:href="#DejaVuSans-2e" x="63.623047"/>
       <use xlink:href="#DejaVuSans-30" x="95.410156"/>
       <use xlink:href="#DejaVuSans-37" x="159.033203"/>
       <use xlink:href="#DejaVuSans-35" x="222.65625"/>
      </g>
     </g>
    </g>
    <g id="ytick_4">
     <g id="line2d_8">
      <path d="M 296.294994 180.84 
C 296.294994 172.186749 294.590492 163.617639 291.279036 155.623078 
C 287.96758 147.628516 283.11357 140.363976 276.994797 134.245203 
C 270.876024 128.12643 263.611484 123.27242 255.616922 119.960964 
C 247.622361 116.649508 239.053251 114.945006 230.4 114.945006 
C 221.746749 114.945006 213.177639 116.649508 205.183078 119.960964 
C 197.188516 123.27242 189.923976 128.12643 183.805203 134.245203 
C 177.68643 140.363976 172.83242 147.628516 169.520964 155.623078 
C 166.209508 163.617639 164.505006 172.186749 164.505006 180.84 
C 164.505006 189.493251 166.209508 198.062361 169.520964 206.056922 
C 172.83242 214.051484 177.68643 221.316024 183.805203 227.434797 
C 189.923976 233.55357 197.188516 238.40758 205.183078 241.719036 
C 213.177639 245.030492 221.746749 246.734994 230.4 246.734994 
C 239.053251 246.734994 247.622361 245.030492 255.616922 241.719036 
C 263.611484 238.40758 270.876024 233.55357 276.994797 227.434797 
C 283.11357 221.316024 287.96758 214.051484 291.279036 206.056922 
C 294.590492 198.062361 296.294994 189.493251 296.294994 180.84 
" clip-path="url(#pefe4905aff)" style="fill: none; stroke: #b0b0b0; stroke-width: 0.8; stroke-linecap: square"/>
     </g>
     <g id="text_8">
      <!-- 0.100 -->
      <g transform="translate(230.4 112.865319) scale(0.1 -0.1)">
       <defs>
        <path id="DejaVuSans-31" d="M 794 531 
L 1825 531 
L 1825 4091 
L 703 3866 
L 703 4441 
L 1819 4666 
L 2450 4666 
L 2450 531 
L 3481 531 
L 3481 0 
L 794 0 
L 794 531 
z
" transform="scale(0.015625)"/>
       </defs>
       <use xlink:href="#DejaVuSans-30"/>
       <use xlink:href="#DejaVuSans-2e" x="63.623047"/>
       <use xlink:href="#DejaVuSans-31" x="95.410156"/>
       <use xlink:href="#DejaVuSans-30" x="159.033203"/>
       <use xlink:href="#DejaVuSans-30" x="222.65625"/>
      </g>
     </g>
    </g>
    <g id="ytick_5">
     <g id="line2d_9">
      <path d="M 312.768742 180.84 
C 312.768742 170.023436 310.638115 159.312049 306.498795 149.318847 
C 302.359475 139.325645 296.291962 130.24497 288.643496 122.596504 
C 280.99503 114.948038 271.914355 108.880525 261.921153 104.741205 
C 251.927951 100.601885 241.216564 98.471258 230.4 98.471258 
C 219.583436 98.471258 208.872049 100.601885 198.878847 104.741205 
C 188.885645 108.880525 179.80497 114.948038 172.156504 122.596504 
C 164.508038 130.24497 158.440525 139.325645 154.301205 149.318847 
C 150.161885 159.312049 148.031258 170.023436 148.031258 180.84 
C 148.031258 191.656564 150.161885 202.367951 154.301205 212.361153 
C 158.440525 222.354355 164.508038 231.43503 172.156504 239.083496 
C 179.80497 246.731962 188.885645 252.799475 198.878847 256.938795 
C 208.872049 261.078115 219.583436 263.208742 230.4 263.208742 
C 241.216564 263.208742 251.927951 261.078115 261.921153 256.938795 
C 271.914355 252.799475 280.99503 246.731962 288.643496 239.083496 
C 296.291962 231.43503 302.359475 222.354355 306.498795 212.361153 
C 310.638115 202.367951 312.768742 191.656564 312.768742 180.84 
" clip-path="url(#pefe4905aff)" style="fill: none; stroke: #b0b0b0; stroke-width: 0.8; stroke-linecap: square"/>
     </g>
     <g id="text_9">
      <!-- 0.125 -->
      <g transform="translate(230.4 96.39157) scale(0.1 -0.1)">
       <use xlink:href="#DejaVuSans-30"/>
       <use xlink:href="#DejaVuSans-2e" x="63.623047"/>
       <use xlink:href="#DejaVuSans-31" x="95.410156"/>
       <use xlink:href="#DejaVuSans-32" x="159.033203"/>
       <use xlink:href="#DejaVuSans-35" x="222.65625"/>
      </g>
     </g>
    </g>
    <g id="ytick_6">
     <g id="line2d_10">
      <path d="M 329.242491 180.84 
C 329.242491 167.860123 326.685738 155.006459 321.718554 143.014616 
C 316.75137 131.022774 309.470355 120.125963 300.292196 110.947804 
C 291.114037 101.769645 280.217226 94.48863 268.225384 89.521446 
C 256.233541 84.554262 243.379877 81.997509 230.4 81.997509 
C 217.420123 81.997509 204.566459 84.554262 192.574616 89.521446 
C 180.582774 94.48863 169.685963 101.769645 160.507804 110.947804 
C 151.329645 120.125963 144.04863 131.022774 139.081446 143.014616 
C 134.114262 155.006459 131.557509 167.860123 131.557509 180.84 
C 131.557509 193.819877 134.114262 206.673541 139.081446 218.665384 
C 144.04863 230.657226 151.329645 241.554037 160.507804 250.732196 
C 169.685963 259.910355 180.582774 267.19137 192.574616 272.158554 
C 204.566459 277.125738 217.420123 279.682491 230.4 279.682491 
C 243.379877 279.682491 256.233541 277.125738 268.225384 272.158554 
C 280.217226 267.19137 291.114037 259.910355 300.292196 250.732196 
C 309.470355 241.554037 316.75137 230.657226 321.718554 218.665384 
C 326.685738 206.673541 329.242491 193.819877 329.242491 180.84 
" clip-path="url(#pefe4905aff)" style="fill: none; stroke: #b0b0b0; stroke-width: 0.8; stroke-linecap: square"/>
     </g>
     <g id="text_10">
      <!-- 0.150 -->
      <g transform="translate(230.4 79.917822) scale(0.1 -0.1)">
       <use xlink:href="#DejaVuSans-30"/>
       <use xlink:href="#DejaVuSans-2e" x="63.623047"/>
       <use xlink:href="#DejaVuSans-31" x="95.410156"/>
       <use xlink:href="#DejaVuSans-35" x="159.033203"/>
       <use xlink:href="#DejaVuSans-30" x="222.65625"/>
      </g>
     </g>
    </g>
    <g id="ytick_7">
     <g id="line2d_11">
      <path d="M 345.716239 180.84 
C 345.716239 165.69681 342.733361 150.700869 336.938313 136.710386 
C 331.143265 122.719903 322.648747 110.006957 311.940895 99.299105 
C 301.233043 88.591253 288.520097 80.096735 274.529614 74.301687 
C 260.539131 68.506639 245.54319 65.523761 230.4 65.523761 
C 215.25681 65.523761 200.260869 68.506639 186.270386 74.301687 
C 172.279903 80.096735 159.566957 88.591253 148.859105 99.299105 
C 138.151253 110.006957 129.656735 122.719903 123.861687 136.710386 
C 118.066639 150.700869 115.083761 165.69681 115.083761 180.84 
C 115.083761 195.98319 118.066639 210.979131 123.861687 224.969614 
C 129.656735 238.960097 138.151253 251.673043 148.859105 262.380895 
C 159.566957 273.088747 172.279903 281.583265 186.270386 287.378313 
C 200.260869 293.173361 215.25681 296.156239 230.4 296.156239 
C 245.54319 296.156239 260.539131 293.173361 274.529614 287.378313 
C 288.520097 281.583265 301.233043 273.088747 311.940895 262.380895 
C 322.648747 251.673043 331.143265 238.960097 336.938313 224.969614 
C 342.733361 210.979131 345.716239 195.98319 345.716239 180.84 
" clip-path="url(#pefe4905aff)" style="fill: none; stroke: #b0b0b0; stroke-width: 0.8; stroke-linecap: square"/>
     </g>
     <g id="text_11">
      <!-- 0.175 -->
      <g transform="translate(230.4 63.444073) scale(0.1 -0.1)">
       <use xlink:href="#DejaVuSans-30"/>
       <use xlink:href="#DejaVuSans-2e" x="63.623047"/>
       <use xlink:href="#DejaVuSans-31" x="95.410156"/>
       <use xlink:href="#DejaVuSans-37" x="159.033203"/>
       <use xlink:href="#DejaVuSans-35" x="222.65625"/>
      </g>
     </g>
    </g>
    <g id="ytick_8">
     <g id="line2d_12">
      <path d="M 362.189988 180.84 
C 362.189988 163.533497 358.780984 146.395279 352.158072 130.406155 
C 345.53516 114.417032 335.827139 99.887951 323.589594 87.650406 
C 311.352049 75.412861 296.822968 65.70484 280.833845 59.081928 
C 264.844721 52.459016 247.706503 49.050012 230.4 49.050012 
C 213.093497 49.050012 195.955279 52.459016 179.966155 59.081928 
C 163.977032 65.70484 149.447951 75.412861 137.210406 87.650406 
C 124.972861 99.887951 115.26484 114.417032 108.641928 130.406155 
C 102.019016 146.395279 98.610012 163.533497 98.610012 180.84 
C 98.610012 198.146503 102.019016 215.284721 108.641928 231.273845 
C 115.26484 247.262968 124.972861 261.792049 137.210406 274.029594 
C 149.447951 286.267139 163.977032 295.97516 179.966155 302.598072 
C 195.955279 309.220984 213.093497 312.629988 230.4 312.629988 
C 247.706503 312.629988 264.844721 309.220984 280.833845 302.598072 
C 296.822968 295.97516 311.352049 286.267139 323.589594 274.029594 
C 335.827139 261.792049 345.53516 247.262968 352.158072 231.273845 
C 358.780984 215.284721 362.189988 198.146503 362.189988 180.84 
" clip-path="url(#pefe4905aff)" style="fill: none; stroke: #b0b0b0; stroke-width: 0.8; stroke-linecap: square"/>
     </g>
     <g id="text_12">
      <!-- 0.200 -->
      <g transform="translate(230.4 46.970325) scale(0.1 -0.1)">
       <use xlink:href="#DejaVuSans-30"/>
       <use xlink:href="#DejaVuSans-2e" x="63.623047"/>
       <use xlink:href="#DejaVuSans-32" x="95.410156"/>
       <use xlink:href="#DejaVuSans-30" x="159.033203"/>
       <use xlink:href="#DejaVuSans-30" x="222.65625"/>
      </g>
     </g>
    </g>
   </g>
   <g id="line2d_13">
    <path d="M 358.895238 180.84 
L 230.4 180.84 
L 222.492601 180.84 
L 230.4 180.84 
L 358.895238 180.84 
" clip-path="url(#pefe4905aff)" style="fill: none; stroke: #1f77b4; stroke-width: 2; stroke-linecap: square"/>
   </g>
   <g id="patch_4">
    <path d="M 365.32 180.84 
C 365.32 163.122468 361.830033 145.577217 355.049827 129.208351 
C 348.269621 112.839486 338.331034 97.96534 325.802847 85.437153 
C 313.27466 72.908966 298.400514 62.970379 282.031649 56.190173 
C 265.662783 49.409967 248.117532 45.92 230.4 45.92 
C 212.682468 45.92 195.137217 49.409967 178.768351 56.190173 
C 162.399486 62.970379 147.52534 72.908966 134.997153 85.437153 
C 122.468966 97.96534 112.530379 112.839486 105.750173 129.208351 
C 98.969967 145.577217 95.48 163.122468 95.48 180.84 
C 95.48 198.557532 98.969967 216.102783 105.750173 232.471649 
C 112.530379 248.840514 122.468966 263.71466 134.997153 276.242847 
C 147.52534 288.771034 162.399486 298.709621 178.768351 305.489827 
C 195.137217 312.270033 212.682468 315.76 230.4 315.76 
C 248.117532 315.76 265.662783 312.270033 282.031649 305.489827 
C 298.400514 298.709621 313.27466 288.771034 325.802847 276.242847 
C 338.331034 263.71466 348.269621 248.840514 355.049827 232.471649 
C 361.830033 216.102783 365.32 198.557532 365.32 180.84 
" style="fill: none; stroke: #000000; stroke-width: 0.8; stroke-linejoin: miter; stroke-linecap: square"/>
   </g>
   <g id="text_13">
    <!-- Failure composition radar – deepseek-coder-7b-instruct-v1.5 [feedback] (absolute) -->
    <g transform="translate(-16.81125 21.080938) scale(0.12 -0.12)">
     <defs>
      <path id="DejaVuSans-46" d="M 628 4666 
L 3309 4666 
L 3309 4134 
L 1259 4134 
L 1259 2759 
L 3109 2759 
L 3109 2228 
L 1259 2228 
L 1259 0 
L 628 0 
L 628 4666 
z
" transform="scale(0.015625)"/>
      <path id="DejaVuSans-69" d="M 603 3500 
L 1178 3500 
L 1178 0 
L 603 0 
L 603 3500 
z
M 603 4863 
L 1178 4863 
L 1178 4134 
L 603 4134 
L 603 4863 
z
" transform="scale(0.015625)"/>
      <path id="DejaVuSans-6c" d="M 603 4863 
L 1178 4863 
L 1178 0 
L 603 0 
L 603 4863 
z
" transform="scale(0.015625)"/>
      <path id="DejaVuSans-75" d="M 544 1381 
L 544 3500 
L 1119 3500 
L 1119 1403 
Q 1119 906 1312 657 
Q 1506 409 1894 409 
Q 2359 409 2629 706 
Q 2900 1003 2900 1516 
L 2900 3500 
L 3475 3500 
L 3475 0 
L 2900 0 
L 2900 538 
Q 2691 219 2414 64 
Q 2138 -91 1772 -91 
Q 1169 -91 856 284 
Q 544 659 544 1381 
z
M 1991 3584 
L 1991 3584 
z
" transform="scale(0.015625)"/>
      <path id="DejaVuSans-20" transform="scale(0.015625)"/>
      <path id="DejaVuSans-63" d="M 3122 3366 
L 3122 2828 
Q 2878 2963 2633 3030 
Q 2388 3097 2138 3097 
Q 1578 3097 1268 2742 
Q 959 2388 959 1747 
Q 959 1106 1268 751 
Q 1578 397 2138 397 
Q 2388 397 2633 464 
Q 2878 531 3122 666 
L 3122 134 
Q 2881 22 2623 -34 
Q 2366 -91 2075 -91 
Q 1284 -91 818 406 
Q 353 903 353 1747 
Q 353 2603 823 3093 
Q 1294 3584 2113 3584 
Q 2378 3584 2631 3529 
Q 2884 3475 3122 3366 
z
" transform="scale(0.015625)"/>
      <path id="DejaVuSans-6f" d="M 1959 3097 
Q 1497 3097 1228 2736 
Q 959 2375 959 1747 
Q 959 1119 1226 758 
Q 1494 397 1959 397 
Q 2419 397 2687 759 
Q 2956 1122 2956 1747 
Q 2956 2369 2687 2733 
Q 2419 3097 1959 3097 
z
M 1959 3584 
Q 2709 3584 3137 3096 
Q 3566 2609 3566 1747 
Q 3566 888 3137 398 
Q 2709 -91 1959 -91 
Q 1206 -91 779 398 
Q 353 888 353 1747 
Q 353 2609 779 3096 
Q 1206 3584 1959 3584 
z
" transform="scale(0.015625)"/>
      <path id="DejaVuSans-6d" d="M 3328 2828 
Q 3544 3216 3844 3400 
Q 4144 3584 4550 3584 
Q 5097 3584 5394 3201 
Q 5691 2819 5691 2113 
L 5691 0 
L 5113 0 
L 5113 2094 
Q 5113 2597 4934 2840 
Q 4756 3084 4391 3084 
Q 3944 3084 3684 2787 
Q 3425 2491 3425 1978 
L 3425 0 
L 2847 0 
L 2847 2094 
Q 2847 2600 2669 2842 
Q 2491 3084 2119 3084 
Q 1678 3084 1418 2786 
Q 1159 2488 1159 1978 
L 1159 0 
L 581 0 
L 581 3500 
L 1159 3500 
L 1159 2956 
Q 1356 3278 1631 3431 
Q 1906 3584 2284 3584 
Q 2666 3584 2933 3390 
Q 3200 3197 3328 2828 
z
" transform="scale(0.015625)"/>
      <path id="DejaVuSans-70" d="M 1159 525 
L 1159 -1331 
L 581 -1331 
L 581 3500 
L 1159 3500 
L 1159 2969 
Q 1341 3281 1617 3432 
Q 1894 3584 2278 3584 
Q 2916 3584 3314 3078 
Q 3713 2572 3713 1747 
Q 3713 922 3314 415 
Q 2916 -91 2278 -91 
Q 1894 -91 1617 61 
Q 1341 213 1159 525 
z
M 3116 1747 
Q 3116 2381 2855 2742 
Q 2594 3103 2138 3103 
Q 1681 3103 1420 2742 
Q 1159 2381 1159 1747 
Q 1159 1113 1420 752 
Q 1681 391 2138 391 
Q 2594 391 2855 752 
Q 3116 1113 3116 1747 
z
" transform="scale(0.015625)"/>
      <path id="DejaVuSans-73" d="M 2834 3397 
L 2834 2853 
Q 2591 2978 2328 3040 
Q 2066 3103 1784 3103 
Q 1356 3103 1142 2972 
Q 928 2841 928 2578 
Q 928 2378 1081 2264 
Q 1234 2150 1697 2047 
L 1894 2003 
Q 2506 1872 2764 1633 
Q 3022 1394 3022 966 
Q 3022 478 2636 193 
Q 2250 -91 1575 -91 
Q 1294 -91 989 -36 
Q 684 19 347 128 
L 347 722 
Q 666 556 975 473 
Q 1284 391 1588 391 
Q 1994 391 2212 530 
Q 2431 669 2431 922 
Q 2431 1156 2273 1281 
Q 2116 1406 1581 1522 
L 1381 1569 
Q 847 1681 609 1914 
Q 372 2147 372 2553 
Q 372 3047 722 3315 
Q 1072 3584 1716 3584 
Q 2034 3584 2315 3537 
Q 2597 3491 2834 3397 
z
" transform="scale(0.015625)"/>
      <path id="DejaVuSans-6e" d="M 3513 2113 
L 3513 0 
L 2938 0 
L 2938 2094 
Q 2938 2591 2744 2837 
Q 2550 3084 2163 3084 
Q 1697 3084 1428 2787 
Q 1159 2491 1159 1978 
L 1159 0 
L 581 0 
L 581 3500 
L 1159 3500 
L 1159 2956 
Q 1366 3272 1645 3428 
Q 1925 3584 2291 3584 
Q 2894 3584 3203 3211 
Q 3513 2838 3513 2113 
z
" transform="scale(0.015625)"/>
      <path id="DejaVuSans-64" d="M 2906 2969 
L 2906 4863 
L 3481 4863 
L 3481 0 
L 2906 0 
L 2906 525 
Q 2725 213 2448 61 
Q 2172 -91 1784 -91 
Q 1150 -91 751 415 
Q 353 922 353 1747 
Q 353 2572 751 3078 
Q 1150 3584 1784 3584 
Q 2172 3584 2448 3432 
Q 2725 3281 2906 2969 
z
M 947 1747 
Q 947 1113 1208 752 
Q 1469 391 1925 391 
Q 2381 391 2643 752 
Q 2906 1113 2906 1747 
Q 2906 2381 2643 2742 
Q 2381 3103 1925 3103 
Q 1469 3103 1208 2742 
Q 947 2381 947 1747 
z
" transform="scale(0.015625)"/>
      <path id="DejaVuSans-2013" d="M 313 1978 
L 2888 1978 
L 2888 1528 
L 313 1528 
L 313 1978 
z
" transform="scale(0.015625)"/>
      <path id="DejaVuSans-6b" d="M 581 4863 
L 1159 4863 
L 1159 1991 
L 2875 3500 
L 3609 3500 
L 1753 1863 
L 3688 0 
L 2938 0 
L 1159 1709 
L 1159 0 
L 581 0 
L 581 4863 
z
" transform="scale(0.015625)"/>
      <path id="DejaVuSans-2d" d="M 313 2009 
L 1997 2009 
L 1997 1497 
L 313 1497 
L 313 2009 
z
" transform="scale(0.015625)"/>
      <path id="DejaVuSans-62" d="M 3116 1747 
Q 3116 2381 2855 2742 
Q 2594 3103 2138 3103 
Q 1681 3103 1420 2742 
Q 1159 2381 1159 1747 
Q 1159 1113 1420 752 
Q 1681 391 2138 391 
Q 2594 391 2855 752 
Q 3116 1113 3116 1747 
z
M 1159 2969 
Q 1341 3281 1617 3432 
Q 1894 3584 2278 3584 
Q 2916 3584 3314 3078 
Q 3713 2572 3713 1747 
Q 3713 922 3314 415 
Q 2916 -91 2278 -91 
Q 1894 -91 1617 61 
Q 1341 213 1159 525 
L 1159 0 
L 581 0 
L 581 4863 
L 1159 4863 
L 1159 2969 
z
" transform="scale(0.015625)"/>
      <path id="DejaVuSans-76" d="M 191 3500 
L 800 3500 
L 1894 563 
L 2988 3500 
L 3597 3500 
L 2284 0 
L 1503 0 
L 191 3500 
z
" transform="scale(0.015625)"/>
      <path id="DejaVuSans-5b" d="M 550 4863 
L 1875 4863 
L 1875 4416 
L 1125 4416 
L 1125 -397 
L 1875 -397 
L 1875 -844 
L 550 -844 
L 550 4863 
z
" transform="scale(0.015625)"/>
      <path id="DejaVuSans-66" d="M 2375 4863 
L 2375 4384 
L 1825 4384 
Q 1516 4384 1395 4259 
Q 1275 4134 1275 3809 
L 1275 3500 
L 2222 3500 
L 2222 3053 
L 1275 3053 
L 1275 0 
L 697 0 
L 697 3053 
L 147 3053 
L 147 3500 
L 697 3500 
L 697 3744 
Q 697 4328 969 4595 
Q 1241 4863 1831 4863 
L 2375 4863 
z
" transform="scale(0.015625)"/>
      <path id="DejaVuSans-5d" d="M 1947 4863 
L 1947 -844 
L 622 -844 
L 622 -397 
L 1369 -397 
L 1369 4416 
L 622 4416 
L 622 4863 
L 1947 4863 
z
" transform="scale(0.015625)"/>
      <path id="DejaVuSans-28" d="M 1984 4856 
Q 1566 4138 1362 3434 
Q 1159 2731 1159 2009 
Q 1159 1288 1364 580 
Q 1569 -128 1984 -844 
L 1484 -844 
Q 1016 -109 783 600 
Q 550 1309 550 2009 
Q 550 2706 781 3412 
Q 1013 4119 1484 4856 
L 1984 4856 
z
" transform="scale(0.015625)"/>
      <path id="DejaVuSans-29" d="M 513 4856 
L 1013 4856 
Q 1481 4119 1714 3412 
Q 1947 2706 1947 2009 
Q 1947 1309 1714 600 
Q 1481 -109 1013 -844 
L 513 -844 
Q 928 -128 1133 580 
Q 1338 1288 1338 2009 
Q 1338 2731 1133 3434 
Q 928 4138 513 4856 
z
" transform="scale(0.015625)"/>
     </defs>
     <use xlink:href="#DejaVuSans-46"/>
     <use xlink:href="#DejaVuSans-61" x="48.394531"/>
     <use xlink:href="#DejaVuSans-69" x="109.673828"/>
     <use xlink:href="#DejaVuSans-6c" x="137.457031"/>
     <use xlink:href="#DejaVuSans-75" x="165.240234"/>
     <use xlink:href="#DejaVuSans-72" x="228.619141"/>
     <use xlink:href="#DejaVuSans-65" x="267.482422"/>
     <use xlink:href="#DejaVuSans-20" x="329.005859"/>
     <use xlink:href="#DejaVuSans-63" x="360.792969"/>
     <use xlink:href="#DejaVuSans-6f" x="415.773438"/>
     <use xlink:href="#DejaVuSans-6d" x="476.955078"/>
     <use xlink:href="#DejaVuSans-70" x="574.367188"/>
     <use xlink:href="#DejaVuSans-6f" x="637.84375"/>
     <use xlink:href="#DejaVuSans-73" x="699.025391"/>
     <use xlink:href="#DejaVuSans-69" x="751.125"/>
     <use xlink:href="#DejaVuSans-74" x="778.908203"/>
     <use xlink:href="#DejaVuSans-69" x="818.117188"/>
     <use xlink:href="#DejaVuSans-6f" x="845.900391"/>
     <use xlink:href="#DejaVuSans-6e" x="907.082031"/>
     <use xlink:href="#DejaVuSans-20" x="970.460938"/>
     <use xlink:href="#DejaVuSans-72" x="1002.248047"/>
     <use xlink:href="#DejaVuSans-61" x="1043.361328"/>
     <use xlink:href="#DejaVuSans-64" x="1104.640625"/>
     <use xlink:href="#DejaVuSans-61" x="1168.117188"/>
     <use xlink:href="#DejaVuSans-72" x="1229.396484"/>
     <use xlink:href="#DejaVuSans-20" x="1270.509766"/>
     <use xlink:href="#DejaVuSans-2013" x="1302.296875"/>
     <use xlink:href="#DejaVuSans-20" x="1352.296875"/>
     <use xlink:href="#DejaVuSans-64" x="1384.083984"/>
     <use xlink:href="#DejaVuSans-65" x="1447.560547"/>
     <use xlink:href="#DejaVuSans-65" x="1509.083984"/>
     <use xlink:href="#DejaVuSans-70" x="1570.607422"/>
     <use xlink:href="#DejaVuSans-73" x="1634.083984"/>
     <use xlink:href="#DejaVuSans-65" x="1686.183594"/>
     <use xlink:href="#DejaVuSans-65" x="1747.707031"/>
     <use xlink:href="#DejaVuSans-6b" x="1809.230469"/>
     <use xlink:href="#DejaVuSans-2d" x="1867.140625"/>
     <use xlink:href="#DejaVuSans-63" x="1903.224609"/>
     <use xlink:href="#DejaVuSans-6f" x="1958.205078"/>
     <use xlink:href="#DejaVuSans-64" x="2019.386719"/>
     <use xlink:href="#DejaVuSans-65" x="2082.863281"/>
     <use xlink:href="#DejaVuSans-72" x="2144.386719"/>
     <use xlink:href="#DejaVuSans-2d" x="2179.125"/>
     <use xlink:href="#DejaVuSans-37" x="2215.208984"/>
     <use xlink:href="#DejaVuSans-62" x="2278.832031"/>
     <use xlink:href="#DejaVuSans-2d" x="2342.308594"/>
     <use xlink:href="#DejaVuSans-69" x="2378.392578"/>
     <use xlink:href="#DejaVuSans-6e" x="2406.175781"/>
     <use xlink:href="#DejaVuSans-73" x="2469.554688"/>
     <use xlink:href="#DejaVuSans-74" x="2521.654297"/>
     <use xlink:href="#DejaVuSans-72" x="2560.863281"/>
     <use xlink:href="#DejaVuSans-75" x="2601.976562"/>
     <use xlink:href="#DejaVuSans-63" x="2665.355469"/>
     <use xlink:href="#DejaVuSans-74" x="2720.335938"/>
     <use xlink:href="#DejaVuSans-2d" x="2759.544922"/>
     <use xlink:href="#DejaVuSans-76" x="2793.003906"/>
     <use xlink:href="#DejaVuSans-31" x="2852.183594"/>
     <use xlink:href="#DejaVuSans-2e" x="2915.806641"/>
     <use xlink:href="#DejaVuSans-35" x="2947.59375"/>
     <use xlink:href="#DejaVuSans-20" x="3011.216797"/>
     <use xlink:href="#DejaVuSans-5b" x="3043.003906"/>
     <use xlink:href="#DejaVuSans-66" x="3082.017578"/>
     <use xlink:href="#DejaVuSans-65" x="3117.222656"/>
     <use xlink:href="#DejaVuSans-65" x="3178.746094"/>
     <use xlink:href="#DejaVuSans-64" x="3240.269531"/>
     <use xlink:href="#DejaVuSans-62" x="3303.746094"/>
     <use xlink:href="#DejaVuSans-61" x="3367.222656"/>
     <use xlink:href="#DejaVuSans-63" x="3428.501953"/>
     <use xlink:href="#DejaVuSans-6b" x="3483.482422"/>
     <use xlink:href="#DejaVuSans-5d" x="3541.392578"/>
     <use xlink:href="#DejaVuSans-20" x="3580.40625"/>
     <use xlink:href="#DejaVuSans-28" x="3612.193359"/>
     <use xlink:href="#DejaVuSans-61" x="3651.207031"/>
     <use xlink:href="#DejaVuSans-62" x="3712.486328"/>
     <use xlink:href="#DejaVuSans-73" x="3775.962891"/>
     <use xlink:href="#DejaVuSans-6f" x="3828.0625"/>
     <use xlink:href="#DejaVuSans-6c" x="3889.244141"/>
     <use xlink:href="#DejaVuSans-75" x="3917.027344"/>
     <use xlink:href="#DejaVuSans-74" x="3980.40625"/>
     <use xlink:href="#DejaVuSans-65" x="4019.615234"/>
     <use xlink:href="#DejaVuSans-29" x="4081.138672"/>
    </g>
   </g>
  </g>
 </g>
 <defs>
  <clipPath id="pefe4905aff">
   <path d="M 365.32 180.84 
C 365.32 163.122468 361.830033 145.577217 355.049827 129.208351 
C 348.269621 112.839486 338.331034 97.96534 325.802847 85.437153 
C 313.27466 72.908966 298.400514 62.970379 282.031649 56.190173 
C 265.662783 49.409967 248.117532 45.92 230.4 45.92 
C 212.682468 45.92 195.137217 49.409967 178.768351 56.190173 
C 162.399486 62.970379 147.52534 72.908966 134.997153 85.437153 
C 122.468966 97.96534 112.530379 112.839486 105.750173 129.208351 
C 98.969967 145.577217 95.48 163.122468 95.48 180.84 
C 95.48 198.557532 98.969967 216.102783 105.750173 232.471649 
C 112.530379 248.840514 122.468966 263.71466 134.997153 276.242847 
C 147.52534 288.771034 162.399486 298.709621 178.768351 305.489827 
C 195.137217 312.270033 212.682468 315.76 230.4 315.76 
C 248.117532 315.76 265.662783 312.270033 282.031649 305.489827 
C 298.400514 298.709621 313.27466 288.771034 325.802847 276.242847 
C 338.331034 263.71466 348.269621 248.840514 355.049827 232.471649 
C 361.830033 216.102783 365.32 198.557532 365.32 180.84 
M 230.4 180.84 
C 230.4 180.84 230.4 180.84 230.4 180.84 
C 230.4 180.84 230.4 180.84 230.4 180.84 
C 230.4 180.84 230.4 180.84 230.4 180.84 
C 230.4 180.84 230.4 180.84 230.4 180.84 
C 230.4 180.84 230.4 180.84 230.4 180.84 
C 230.4 180.84 230.4 180.84 230.4 180.84 
C 230.4 180.84 230.4 180.84 230.4 180.84 
C 230.4 180.84 230.4 180.84 230.4 180.84 
C 230.4 180.84 230.4 180.84 230.4 180.84 
C 230.4 180.84 230.4 180.84 230.4 180.84 
C 230.4 180.84 230.4 180.84 230.4 180.84 
C 230.4 180.84 230.4 180.84 230.4 180.84 
C 230.4 180.84 230.4 180.84 230.4 180.84 
C 230.4 180.84 230.4 180.84 230.4 180.84 
C 230.4 180.84 230.4 180.84 230.4 180.84 
C 230.4 180.84 230.4 180.84 230.4 180.84 
z
"/>
  </clipPath>
 </defs>
</svg>
