<?xml version="1.0" encoding="utf-8" standalone="no"?>
<!DOCTYPE svg PUBLIC "-//W3C//DTD SVG 1.1//EN"
  "http://www.w3.org/Graphics/SVG/1.1/DTD/svg11.dtd">
<svg xmlns:xlink="http://www.w3.org/1999/xlink" width="576pt" height="360pt" viewBox="0 0 576 360" xmlns="http://www.w3.org/2000/svg" version="1.1">
 <metadata>
  <rdf:RDF xmlns:dc="http://purl.org/dc/elements/1.1/" xmlns:cc="http://creativecommons.org/ns#" xmlns:rdf="http://www.w3.org/1999/02/22-rdf-syntax-ns#">
   <cc:Work>
    <dc:type rdf:resource="http://purl.org/dc/dcmitype/StillImage"/>
    <dc:date>2025-12-26T06:07:47.164583</dc:date>
    <dc:format>image/svg+xml</dc:format>
    <dc:creator>
     <cc:Agent>
      <dc:title>Matplotlib v3.9.0, https://matplotlib.org/</dc:title>
     </cc:Agent>
    </dc:creator>
   </cc:Work>
  </rdf:RDF>
 </metadata>
 <defs>
  <style type="text/css">*{stroke-linejoin: round; stroke-linecap: butt}</style>
 </defs>
 <g id="figure_1">
  <g id="patch_1">
   <path d="M 0 360 
L 576 360 
L 576 0 
L 0 0 
z
" style="fill: #ffffff"/>
  </g>
  <g id="axes_1">
   <g id="patch_2">
    <path d="M 54.17 317.92 
L 565.2 317.92 
L 565.2 25.92 
L 54.17 25.92 
z
" style="fill: #ffffff"/>
   </g>
   <g id="matplotlib.axis_1">
    <g id="xtick_1">
     <g id="line2d_1">
      <path d="M 77.398636 317.92 
L 77.398636 25.92 
" clip-path="url(#pd300f6cbde)" style="fill: none; stroke-dasharray: 0.5,0.825; stroke-dashoffset: 0; stroke: #b0b0b0; stroke-opacity: 0.7; stroke-width: 0.5"/>
     </g>
     <g id="line2d_2">
      <defs>
       <path id="mf9db80d6a5" d="M 0 0 
L 0 3.5 
" style="stroke: #000000; stroke-width: 0.8"/>
      </defs>
      <g>
       <use xlink:href="#mf9db80d6a5" x="77.398636" y="317.92" style="stroke: #000000; stroke-width: 0.8"/>
      </g>
     </g>
     <g id="text_1">
      <!-- $\mathdefault{10^{0}}$ -->
      <g transform="translate(68.598636 332.518438) scale(0.1 -0.1)">
       <defs>
        <path id="DejaVuSans-31" d="M 794 531 
L 1825 531 
L 1825 4091 
L 703 3866 
L 703 4441 
L 1819 4666 
L 2450 4666 
L 2450 531 
L 3481 531 
L 3481 0 
L 794 0 
L 794 531 
z
" transform="scale(0.015625)"/>
        <path id="DejaVuSans-30" d="M 2034 4250 
Q 1547 4250 1301 3770 
Q 1056 3291 1056 2328 
Q 1056 1369 1301 889 
Q 1547 409 2034 409 
Q 2525 409 2770 889 
Q 3016 1369 3016 2328 
Q 3016 3291 2770 3770 
Q 2525 4250 2034 4250 
z
M 2034 4750 
Q 2819 4750 3233 4129 
Q 3647 3509 3647 2328 
Q 3647 1150 3233 529 
Q 2819 -91 2034 -91 
Q 1250 -91 836 529 
Q 422 1150 422 2328 
Q 422 3509 836 4129 
Q 1250 4750 2034 4750 
z
" transform="scale(0.015625)"/>
       </defs>
       <use xlink:href="#DejaVuSans-31" transform="translate(0 0.765625)"/>
       <use xlink:href="#DejaVuSans-30" transform="translate(63.623047 0.765625)"/>
       <use xlink:href="#DejaVuSans-30" transform="translate(128.203125 39.046875) scale(0.7)"/>
      </g>
     </g>
    </g>
    <g id="xtick_2">
     <g id="line2d_3">
      <path d="M 147.323799 317.92 
L 147.323799 25.92 
" clip-path="url(#pd300f6cbde)" style="fill: none; stroke-dasharray: 0.5,0.825; stroke-dashoffset: 0; stroke: #b0b0b0; stroke-opacity: 0.7; stroke-width: 0.5"/>
     </g>
     <g id="line2d_4">
      <g>
       <use xlink:href="#mf9db80d6a5" x="147.323799" y="317.92" style="stroke: #000000; stroke-width: 0.8"/>
      </g>
     </g>
    </g>
    <g id="xtick_3">
     <g id="line2d_5">
      <path d="M 239.759837 317.92 
L 239.759837 25.92 
" clip-path="url(#pd300f6cbde)" style="fill: none; stroke-dasharray: 0.5,0.825; stroke-dashoffset: 0; stroke: #b0b0b0; stroke-opacity: 0.7; stroke-width: 0.5"/>
     </g>
     <g id="line2d_6">
      <g>
       <use xlink:href="#mf9db80d6a5" x="239.759837" y="317.92" style="stroke: #000000; stroke-width: 0.8"/>
      </g>
     </g>
    </g>
    <g id="xtick_4">
     <g id="line2d_7">
      <path d="M 309.685 317.92 
L 309.685 25.92 
" clip-path="url(#pd300f6cbde)" style="fill: none; stroke-dasharray: 0.5,0.825; stroke-dashoffset: 0; stroke: #b0b0b0; stroke-opacity: 0.7; stroke-width: 0.5"/>
     </g>
     <g id="line2d_8">
      <g>
       <use xlink:href="#mf9db80d6a5" x="309.685" y="317.92" style="stroke: #000000; stroke-width: 0.8"/>
      </g>
     </g>
     <g id="text_2">
      <!-- $\mathdefault{10^{1}}$ -->
      <g transform="translate(300.885 332.518438) scale(0.1 -0.1)">
       <use xlink:href="#DejaVuSans-31" transform="translate(0 0.684375)"/>
       <use xlink:href="#DejaVuSans-30" transform="translate(63.623047 0.684375)"/>
       <use xlink:href="#DejaVuSans-31" transform="translate(128.203125 38.965625) scale(0.7)"/>
      </g>
     </g>
    </g>
    <g id="xtick_5">
     <g id="line2d_9">
      <path d="M 379.610163 317.92 
L 379.610163 25.92 
" clip-path="url(#pd300f6cbde)" style="fill: none; stroke-dasharray: 0.5,0.825; stroke-dashoffset: 0; stroke: #b0b0b0; stroke-opacity: 0.7; stroke-width: 0.5"/>
     </g>
     <g id="line2d_10">
      <g>
       <use xlink:href="#mf9db80d6a5" x="379.610163" y="317.92" style="stroke: #000000; stroke-width: 0.8"/>
      </g>
     </g>
    </g>
    <g id="xtick_6">
     <g id="line2d_11">
      <path d="M 472.046201 317.92 
L 472.046201 25.92 
" clip-path="url(#pd300f6cbde)" style="fill: none; stroke-dasharray: 0.5,0.825; stroke-dashoffset: 0; stroke: #b0b0b0; stroke-opacity: 0.7; stroke-width: 0.5"/>
     </g>
     <g id="line2d_12">
      <g>
       <use xlink:href="#mf9db80d6a5" x="472.046201" y="317.92" style="stroke: #000000; stroke-width: 0.8"/>
      </g>
     </g>
    </g>
    <g id="xtick_7">
     <g id="line2d_13">
      <path d="M 541.971364 317.92 
L 541.971364 25.92 
" clip-path="url(#pd300f6cbde)" style="fill: none; stroke-dasharray: 0.5,0.825; stroke-dashoffset: 0; stroke: #b0b0b0; stroke-opacity: 0.7; stroke-width: 0.5"/>
     </g>
     <g id="line2d_14">
      <g>
       <use xlink:href="#mf9db80d6a5" x="541.971364" y="317.92" style="stroke: #000000; stroke-width: 0.8"/>
      </g>
     </g>
     <g id="text_3">
      <!-- $\mathdefault{10^{2}}$ -->
      <g transform="translate(533.171364 332.518438) scale(0.1 -0.1)">
       <defs>
        <path id="DejaVuSans-32" d="M 1228 531 
L 3431 531 
L 3431 0 
L 469 0 
L 469 531 
Q 828 903 1448 1529 
Q 2069 2156 2228 2338 
Q 2531 2678 2651 2914 
Q 2772 3150 2772 3378 
Q 2772 3750 2511 3984 
Q 2250 4219 1831 4219 
Q 1534 4219 1204 4116 
Q 875 4013 500 3803 
L 500 4441 
Q 881 4594 1212 4672 
Q 1544 4750 1819 4750 
Q 2544 4750 2975 4387 
Q 3406 4025 3406 3419 
Q 3406 3131 3298 2873 
Q 3191 2616 2906 2266 
Q 2828 2175 2409 1742 
Q 1991 1309 1228 531 
z
" transform="scale(0.015625)"/>
       </defs>
       <use xlink:href="#DejaVuSans-31" transform="translate(0 0.765625)"/>
       <use xlink:href="#DejaVuSans-30" transform="translate(63.623047 0.765625)"/>
       <use xlink:href="#DejaVuSans-32" transform="translate(128.203125 39.046875) scale(0.7)"/>
      </g>
     </g>
    </g>
    <g id="xtick_8">
     <g id="line2d_15">
      <defs>
       <path id="m19d3d2716a" d="M 0 0 
L 0 2 
" style="stroke: #000000; stroke-width: 0.6"/>
      </defs>
      <g>
       <use xlink:href="#m19d3d2716a" x="54.887762" y="317.92" style="stroke: #000000; stroke-width: 0.6"/>
      </g>
     </g>
    </g>
    <g id="xtick_9">
     <g id="line2d_16">
      <g>
       <use xlink:href="#m19d3d2716a" x="66.769795" y="317.92" style="stroke: #000000; stroke-width: 0.6"/>
      </g>
     </g>
    </g>
    <g id="xtick_10">
     <g id="line2d_17">
      <g>
       <use xlink:href="#m19d3d2716a" x="188.227398" y="317.92" style="stroke: #000000; stroke-width: 0.6"/>
      </g>
     </g>
    </g>
    <g id="xtick_11">
     <g id="line2d_18">
      <g>
       <use xlink:href="#m19d3d2716a" x="217.248962" y="317.92" style="stroke: #000000; stroke-width: 0.6"/>
      </g>
     </g>
    </g>
    <g id="xtick_12">
     <g id="line2d_19">
      <g>
       <use xlink:href="#m19d3d2716a" x="258.152561" y="317.92" style="stroke: #000000; stroke-width: 0.6"/>
      </g>
     </g>
    </g>
    <g id="xtick_13">
     <g id="line2d_20">
      <g>
       <use xlink:href="#m19d3d2716a" x="273.703387" y="317.92" style="stroke: #000000; stroke-width: 0.6"/>
      </g>
     </g>
    </g>
    <g id="xtick_14">
     <g id="line2d_21">
      <g>
       <use xlink:href="#m19d3d2716a" x="287.174125" y="317.92" style="stroke: #000000; stroke-width: 0.6"/>
      </g>
     </g>
    </g>
    <g id="xtick_15">
     <g id="line2d_22">
      <g>
       <use xlink:href="#m19d3d2716a" x="299.056159" y="317.92" style="stroke: #000000; stroke-width: 0.6"/>
      </g>
     </g>
    </g>
    <g id="xtick_16">
     <g id="line2d_23">
      <g>
       <use xlink:href="#m19d3d2716a" x="420.513761" y="317.92" style="stroke: #000000; stroke-width: 0.6"/>
      </g>
     </g>
    </g>
    <g id="xtick_17">
     <g id="line2d_24">
      <g>
       <use xlink:href="#m19d3d2716a" x="449.535326" y="317.92" style="stroke: #000000; stroke-width: 0.6"/>
      </g>
     </g>
    </g>
    <g id="xtick_18">
     <g id="line2d_25">
      <g>
       <use xlink:href="#m19d3d2716a" x="490.438924" y="317.92" style="stroke: #000000; stroke-width: 0.6"/>
      </g>
     </g>
    </g>
    <g id="xtick_19">
     <g id="line2d_26">
      <g>
       <use xlink:href="#m19d3d2716a" x="505.989751" y="317.92" style="stroke: #000000; stroke-width: 0.6"/>
      </g>
     </g>
    </g>
    <g id="xtick_20">
     <g id="line2d_27">
      <g>
       <use xlink:href="#m19d3d2716a" x="519.460489" y="317.92" style="stroke: #000000; stroke-width: 0.6"/>
      </g>
     </g>
    </g>
    <g id="xtick_21">
     <g id="line2d_28">
      <g>
       <use xlink:href="#m19d3d2716a" x="531.342523" y="317.92" style="stroke: #000000; stroke-width: 0.6"/>
      </g>
     </g>
    </g>
    <g id="text_4">
     <!-- k -->
     <g transform="translate(306.789687 346.196562) scale(0.1 -0.1)">
      <defs>
       <path id="DejaVuSans-6b" d="M 581 4863 
L 1159 4863 
L 1159 1991 
L 2875 3500 
L 3609 3500 
L 1753 1863 
L 3688 0 
L 2938 0 
L 1159 1709 
L 1159 0 
L 581 0 
L 581 4863 
z
" transform="scale(0.015625)"/>
      </defs>
      <use xlink:href="#DejaVuSans-6b"/>
     </g>
    </g>
   </g>
   <g id="matplotlib.axis_2">
    <g id="ytick_1">
     <g id="line2d_29">
      <path d="M 54.17 317.92 
L 565.2 317.92 
" clip-path="url(#pd300f6cbde)" style="fill: none; stroke-dasharray: 0.5,0.825; stroke-dashoffset: 0; stroke: #b0b0b0; stroke-opacity: 0.7; stroke-width: 0.5"/>
     </g>
     <g id="line2d_30">
      <defs>
       <path id="m77edea6017" d="M 0 0 
L -3.5 0 
" style="stroke: #000000; stroke-width: 0.8"/>
      </defs>
      <g>
       <use xlink:href="#m77edea6017" x="54.17" y="317.92" style="stroke: #000000; stroke-width: 0.8"/>
      </g>
     </g>
     <g id="text_5">
      <!-- 0.60 -->
      <g transform="translate(24.904375 321.719219) scale(0.1 -0.1)">
       <defs>
        <path id="DejaVuSans-2e" d="M 684 794 
L 1344 794 
L 1344 0 
L 684 0 
L 684 794 
z
" transform="scale(0.015625)"/>
        <path id="DejaVuSans-36" d="M 2113 2584 
Q 1688 2584 1439 2293 
Q 1191 2003 1191 1497 
Q 1191 994 1439 701 
Q 1688 409 2113 409 
Q 2538 409 2786 701 
Q 3034 994 3034 1497 
Q 3034 2003 2786 2293 
Q 2538 2584 2113 2584 
z
M 3366 4563 
L 3366 3988 
Q 3128 4100 2886 4159 
Q 2644 4219 2406 4219 
Q 1781 4219 1451 3797 
Q 1122 3375 1075 2522 
Q 1259 2794 1537 2939 
Q 1816 3084 2150 3084 
Q 2853 3084 3261 2657 
Q 3669 2231 3669 1497 
Q 3669 778 3244 343 
Q 2819 -91 2113 -91 
Q 1303 -91 875 529 
Q 447 1150 447 2328 
Q 447 3434 972 4092 
Q 1497 4750 2381 4750 
Q 2619 4750 2861 4703 
Q 3103 4656 3366 4563 
z
" transform="scale(0.015625)"/>
       </defs>
       <use xlink:href="#DejaVuSans-30"/>
       <use xlink:href="#DejaVuSans-2e" x="63.623047"/>
       <use xlink:href="#DejaVuSans-36" x="95.410156"/>
       <use xlink:href="#DejaVuSans-30" x="159.033203"/>
      </g>
     </g>
    </g>
    <g id="ytick_2">
     <g id="line2d_31">
      <path d="M 54.17 281.42 
L 565.2 281.42 
" clip-path="url(#pd300f6cbde)" style="fill: none; stroke-dasharray: 0.5,0.825; stroke-dashoffset: 0; stroke: #b0b0b0; stroke-opacity: 0.7; stroke-width: 0.5"/>
     </g>
     <g id="line2d_32">
      <g>
       <use xlink:href="#m77edea6017" x="54.17" y="281.42" style="stroke: #000000; stroke-width: 0.8"/>
      </g>
     </g>
     <g id="text_6">
      <!-- 0.65 -->
      <g transform="translate(24.904375 285.219219) scale(0.1 -0.1)">
       <defs>
        <path id="DejaVuSans-35" d="M 691 4666 
L 3169 4666 
L 3169 4134 
L 1269 4134 
L 1269 2991 
Q 1406 3038 1543 3061 
Q 1681 3084 1819 3084 
Q 2600 3084 3056 2656 
Q 3513 2228 3513 1497 
Q 3513 744 3044 326 
Q 2575 -91 1722 -91 
Q 1428 -91 1123 -41 
Q 819 9 494 109 
L 494 744 
Q 775 591 1075 516 
Q 1375 441 1709 441 
Q 2250 441 2565 725 
Q 2881 1009 2881 1497 
Q 2881 1984 2565 2268 
Q 2250 2553 1709 2553 
Q 1456 2553 1204 2497 
Q 953 2441 691 2322 
L 691 4666 
z
" transform="scale(0.015625)"/>
       </defs>
       <use xlink:href="#DejaVuSans-30"/>
       <use xlink:href="#DejaVuSans-2e" x="63.623047"/>
       <use xlink:href="#DejaVuSans-36" x="95.410156"/>
       <use xlink:href="#DejaVuSans-35" x="159.033203"/>
      </g>
     </g>
    </g>
    <g id="ytick_3">
     <g id="line2d_33">
      <path d="M 54.17 244.92 
L 565.2 244.92 
" clip-path="url(#pd300f6cbde)" style="fill: none; stroke-dasharray: 0.5,0.825; stroke-dashoffset: 0; stroke: #b0b0b0; stroke-opacity: 0.7; stroke-width: 0.5"/>
     </g>
     <g id="line2d_34">
      <g>
       <use xlink:href="#m77edea6017" x="54.17" y="244.92" style="stroke: #000000; stroke-width: 0.8"/>
      </g>
     </g>
     <g id="text_7">
      <!-- 0.70 -->
      <g transform="translate(24.904375 248.719219) scale(0.1 -0.1)">
       <defs>
        <path id="DejaVuSans-37" d="M 525 4666 
L 3525 4666 
L 3525 4397 
L 1831 0 
L 1172 0 
L 2766 4134 
L 525 4134 
L 525 4666 
z
" transform="scale(0.015625)"/>
       </defs>
       <use xlink:href="#DejaVuSans-30"/>
       <use xlink:href="#DejaVuSans-2e" x="63.623047"/>
       <use xlink:href="#DejaVuSans-37" x="95.410156"/>
       <use xlink:href="#DejaVuSans-30" x="159.033203"/>
      </g>
     </g>
    </g>
    <g id="ytick_4">
     <g id="line2d_35">
      <path d="M 54.17 208.42 
L 565.2 208.42 
" clip-path="url(#pd300f6cbde)" style="fill: none; stroke-dasharray: 0.5,0.825; stroke-dashoffset: 0; stroke: #b0b0b0; stroke-opacity: 0.7; stroke-width: 0.5"/>
     </g>
     <g id="line2d_36">
      <g>
       <use xlink:href="#m77edea6017" x="54.17" y="208.42" style="stroke: #000000; stroke-width: 0.8"/>
      </g>
     </g>
     <g id="text_8">
      <!-- 0.75 -->
      <g transform="translate(24.904375 212.219219) scale(0.1 -0.1)">
       <use xlink:href="#DejaVuSans-30"/>
       <use xlink:href="#DejaVuSans-2e" x="63.623047"/>
       <use xlink:href="#DejaVuSans-37" x="95.410156"/>
       <use xlink:href="#DejaVuSans-35" x="159.033203"/>
      </g>
     </g>
    </g>
    <g id="ytick_5">
     <g id="line2d_37">
      <path d="M 54.17 171.92 
L 565.2 171.92 
" clip-path="url(#pd300f6cbde)" style="fill: none; stroke-dasharray: 0.5,0.825; stroke-dashoffset: 0; stroke: #b0b0b0; stroke-opacity: 0.7; stroke-width: 0.5"/>
     </g>
     <g id="line2d_38">
      <g>
       <use xlink:href="#m77edea6017" x="54.17" y="171.92" style="stroke: #000000; stroke-width: 0.8"/>
      </g>
     </g>
     <g id="text_9">
      <!-- 0.80 -->
      <g transform="translate(24.904375 175.719219) scale(0.1 -0.1)">
       <defs>
        <path id="DejaVuSans-38" d="M 2034 2216 
Q 1584 2216 1326 1975 
Q 1069 1734 1069 1313 
Q 1069 891 1326 650 
Q 1584 409 2034 409 
Q 2484 409 2743 651 
Q 3003 894 3003 1313 
Q 3003 1734 2745 1975 
Q 2488 2216 2034 2216 
z
M 1403 2484 
Q 997 2584 770 2862 
Q 544 3141 544 3541 
Q 544 4100 942 4425 
Q 1341 4750 2034 4750 
Q 2731 4750 3128 4425 
Q 3525 4100 3525 3541 
Q 3525 3141 3298 2862 
Q 3072 2584 2669 2484 
Q 3125 2378 3379 2068 
Q 3634 1759 3634 1313 
Q 3634 634 3220 271 
Q 2806 -91 2034 -91 
Q 1263 -91 848 271 
Q 434 634 434 1313 
Q 434 1759 690 2068 
Q 947 2378 1403 2484 
z
M 1172 3481 
Q 1172 3119 1398 2916 
Q 1625 2713 2034 2713 
Q 2441 2713 2670 2916 
Q 2900 3119 2900 3481 
Q 2900 3844 2670 4047 
Q 2441 4250 2034 4250 
Q 1625 4250 1398 4047 
Q 1172 3844 1172 3481 
z
" transform="scale(0.015625)"/>
       </defs>
       <use xlink:href="#DejaVuSans-30"/>
       <use xlink:href="#DejaVuSans-2e" x="63.623047"/>
       <use xlink:href="#DejaVuSans-38" x="95.410156"/>
       <use xlink:href="#DejaVuSans-30" x="159.033203"/>
      </g>
     </g>
    </g>
    <g id="ytick_6">
     <g id="line2d_39">
      <path d="M 54.17 135.42 
L 565.2 135.42 
" clip-path="url(#pd300f6cbde)" style="fill: none; stroke-dasharray: 0.5,0.825; stroke-dashoffset: 0; stroke: #b0b0b0; stroke-opacity: 0.7; stroke-width: 0.5"/>
     </g>
     <g id="line2d_40">
      <g>
       <use xlink:href="#m77edea6017" x="54.17" y="135.42" style="stroke: #000000; stroke-width: 0.8"/>
      </g>
     </g>
     <g id="text_10">
      <!-- 0.85 -->
      <g transform="translate(24.904375 139.219219) scale(0.1 -0.1)">
       <use xlink:href="#DejaVuSans-30"/>
       <use xlink:href="#DejaVuSans-2e" x="63.623047"/>
       <use xlink:href="#DejaVuSans-38" x="95.410156"/>
       <use xlink:href="#DejaVuSans-35" x="159.033203"/>
      </g>
     </g>
    </g>
    <g id="ytick_7">
     <g id="line2d_41">
      <path d="M 54.17 98.92 
L 565.2 98.92 
" clip-path="url(#pd300f6cbde)" style="fill: none; stroke-dasharray: 0.5,0.825; stroke-dashoffset: 0; stroke: #b0b0b0; stroke-opacity: 0.7; stroke-width: 0.5"/>
     </g>
     <g id="line2d_42">
      <g>
       <use xlink:href="#m77edea6017" x="54.17" y="98.92" style="stroke: #000000; stroke-width: 0.8"/>
      </g>
     </g>
     <g id="text_11">
      <!-- 0.90 -->
      <g transform="translate(24.904375 102.719219) scale(0.1 -0.1)">
       <defs>
        <path id="DejaVuSans-39" d="M 703 97 
L 703 672 
Q 941 559 1184 500 
Q 1428 441 1663 441 
Q 2288 441 2617 861 
Q 2947 1281 2994 2138 
Q 2813 1869 2534 1725 
Q 2256 1581 1919 1581 
Q 1219 1581 811 2004 
Q 403 2428 403 3163 
Q 403 3881 828 4315 
Q 1253 4750 1959 4750 
Q 2769 4750 3195 4129 
Q 3622 3509 3622 2328 
Q 3622 1225 3098 567 
Q 2575 -91 1691 -91 
Q 1453 -91 1209 -44 
Q 966 3 703 97 
z
M 1959 2075 
Q 2384 2075 2632 2365 
Q 2881 2656 2881 3163 
Q 2881 3666 2632 3958 
Q 2384 4250 1959 4250 
Q 1534 4250 1286 3958 
Q 1038 3666 1038 3163 
Q 1038 2656 1286 2365 
Q 1534 2075 1959 2075 
z
" transform="scale(0.015625)"/>
       </defs>
       <use xlink:href="#DejaVuSans-30"/>
       <use xlink:href="#DejaVuSans-2e" x="63.623047"/>
       <use xlink:href="#DejaVuSans-39" x="95.410156"/>
       <use xlink:href="#DejaVuSans-30" x="159.033203"/>
      </g>
     </g>
    </g>
    <g id="ytick_8">
     <g id="line2d_43">
      <path d="M 54.17 62.42 
L 565.2 62.42 
" clip-path="url(#pd300f6cbde)" style="fill: none; stroke-dasharray: 0.5,0.825; stroke-dashoffset: 0; stroke: #b0b0b0; stroke-opacity: 0.7; stroke-width: 0.5"/>
     </g>
     <g id="line2d_44">
      <g>
       <use xlink:href="#m77edea6017" x="54.17" y="62.42" style="stroke: #000000; stroke-width: 0.8"/>
      </g>
     </g>
     <g id="text_12">
      <!-- 0.95 -->
      <g transform="translate(24.904375 66.219219) scale(0.1 -0.1)">
       <use xlink:href="#DejaVuSans-30"/>
       <use xlink:href="#DejaVuSans-2e" x="63.623047"/>
       <use xlink:href="#DejaVuSans-39" x="95.410156"/>
       <use xlink:href="#DejaVuSans-35" x="159.033203"/>
      </g>
     </g>
    </g>
    <g id="ytick_9">
     <g id="line2d_45">
      <path d="M 54.17 25.92 
L 565.2 25.92 
" clip-path="url(#pd300f6cbde)" style="fill: none; stroke-dasharray: 0.5,0.825; stroke-dashoffset: 0; stroke: #b0b0b0; stroke-opacity: 0.7; stroke-width: 0.5"/>
     </g>
     <g id="line2d_46">
      <g>
       <use xlink:href="#m77edea6017" x="54.17" y="25.92" style="stroke: #000000; stroke-width: 0.8"/>
      </g>
     </g>
     <g id="text_13">
      <!-- 1.00 -->
      <g transform="translate(24.904375 29.719219) scale(0.1 -0.1)">
       <use xlink:href="#DejaVuSans-31"/>
       <use xlink:href="#DejaVuSans-2e" x="63.623047"/>
       <use xlink:href="#DejaVuSans-30" x="95.410156"/>
       <use xlink:href="#DejaVuSans-30" x="159.033203"/>
      </g>
     </g>
    </g>
    <g id="text_14">
     <!-- D-pass@k -->
     <g transform="translate(18.824687 196.916875) rotate(-90) scale(0.1 -0.1)">
      <defs>
       <path id="DejaVuSans-44" d="M 1259 4147 
L 1259 519 
L 2022 519 
Q 2988 519 3436 956 
Q 3884 1394 3884 2338 
Q 3884 3275 3436 3711 
Q 2988 4147 2022 4147 
L 1259 4147 
z
M 628 4666 
L 1925 4666 
Q 3281 4666 3915 4102 
Q 4550 3538 4550 2338 
Q 4550 1131 3912 565 
Q 3275 0 1925 0 
L 628 0 
L 628 4666 
z
" transform="scale(0.015625)"/>
       <path id="DejaVuSans-2d" d="M 313 2009 
L 1997 2009 
L 1997 1497 
L 313 1497 
L 313 2009 
z
" transform="scale(0.015625)"/>
       <path id="DejaVuSans-70" d="M 1159 525 
L 1159 -1331 
L 581 -1331 
L 581 3500 
L 1159 3500 
L 1159 2969 
Q 1341 3281 1617 3432 
Q 1894 3584 2278 3584 
Q 2916 3584 3314 3078 
Q 3713 2572 3713 1747 
Q 3713 922 3314 415 
Q 2916 -91 2278 -91 
Q 1894 -91 1617 61 
Q 1341 213 1159 525 
z
M 3116 1747 
Q 3116 2381 2855 2742 
Q 2594 3103 2138 3103 
Q 1681 3103 1420 2742 
Q 1159 2381 1159 1747 
Q 1159 1113 1420 752 
Q 1681 391 2138 391 
Q 2594 391 2855 752 
Q 3116 1113 3116 1747 
z
" transform="scale(0.015625)"/>
       <path id="DejaVuSans-61" d="M 2194 1759 
Q 1497 1759 1228 1600 
Q 959 1441 959 1056 
Q 959 750 1161 570 
Q 1363 391 1709 391 
Q 2188 391 2477 730 
Q 2766 1069 2766 1631 
L 2766 1759 
L 2194 1759 
z
M 3341 1997 
L 3341 0 
L 2766 0 
L 2766 531 
Q 2569 213 2275 61 
Q 1981 -91 1556 -91 
Q 1019 -91 701 211 
Q 384 513 384 1019 
Q 384 1609 779 1909 
Q 1175 2209 1959 2209 
L 2766 2209 
L 2766 2266 
Q 2766 2663 2505 2880 
Q 2244 3097 1772 3097 
Q 1472 3097 1187 3025 
Q 903 2953 641 2809 
L 641 3341 
Q 956 3463 1253 3523 
Q 1550 3584 1831 3584 
Q 2591 3584 2966 3190 
Q 3341 2797 3341 1997 
z
" transform="scale(0.015625)"/>
       <path id="DejaVuSans-73" d="M 2834 3397 
L 2834 2853 
Q 2591 2978 2328 3040 
Q 2066 3103 1784 3103 
Q 1356 3103 1142 2972 
Q 928 2841 928 2578 
Q 928 2378 1081 2264 
Q 1234 2150 1697 2047 
L 1894 2003 
Q 2506 1872 2764 1633 
Q 3022 1394 3022 966 
Q 3022 478 2636 193 
Q 2250 -91 1575 -91 
Q 1294 -91 989 -36 
Q 684 19 347 128 
L 347 722 
Q 666 556 975 473 
Q 1284 391 1588 391 
Q 1994 391 2212 530 
Q 2431 669 2431 922 
Q 2431 1156 2273 1281 
Q 2116 1406 1581 1522 
L 1381 1569 
Q 847 1681 609 1914 
Q 372 2147 372 2553 
Q 372 3047 722 3315 
Q 1072 3584 1716 3584 
Q 2034 3584 2315 3537 
Q 2597 3491 2834 3397 
z
" transform="scale(0.015625)"/>
       <path id="DejaVuSans-40" d="M 2381 1678 
Q 2381 1231 2603 976 
Q 2825 722 3213 722 
Q 3597 722 3817 978 
Q 4038 1234 4038 1678 
Q 4038 2116 3813 2373 
Q 3588 2631 3206 2631 
Q 2828 2631 2604 2375 
Q 2381 2119 2381 1678 
z
M 4084 744 
Q 3897 503 3655 389 
Q 3413 275 3091 275 
Q 2553 275 2217 664 
Q 1881 1053 1881 1678 
Q 1881 2303 2218 2693 
Q 2556 3084 3091 3084 
Q 3413 3084 3656 2967 
Q 3900 2850 4084 2613 
L 4084 3022 
L 4531 3022 
L 4531 722 
Q 4988 791 5245 1139 
Q 5503 1488 5503 2041 
Q 5503 2375 5404 2669 
Q 5306 2963 5106 3213 
Q 4781 3622 4314 3839 
Q 3847 4056 3297 4056 
Q 2913 4056 2559 3954 
Q 2206 3853 1906 3653 
Q 1416 3334 1139 2817 
Q 863 2300 863 1697 
Q 863 1200 1042 765 
Q 1222 331 1563 0 
Q 1891 -325 2322 -495 
Q 2753 -666 3244 -666 
Q 3647 -666 4036 -530 
Q 4425 -394 4750 -141 
L 5031 -488 
Q 4641 -791 4180 -952 
Q 3719 -1113 3244 -1113 
Q 2666 -1113 2153 -908 
Q 1641 -703 1241 -313 
Q 841 78 631 592 
Q 422 1106 422 1697 
Q 422 2266 634 2781 
Q 847 3297 1241 3688 
Q 1644 4084 2172 4295 
Q 2700 4506 3291 4506 
Q 3953 4506 4520 4234 
Q 5088 3963 5472 3463 
Q 5706 3156 5829 2797 
Q 5953 2438 5953 2053 
Q 5953 1231 5456 756 
Q 4959 281 4084 263 
L 4084 744 
z
" transform="scale(0.015625)"/>
      </defs>
      <use xlink:href="#DejaVuSans-44"/>
      <use xlink:href="#DejaVuSans-2d" x="77.001953"/>
      <use xlink:href="#DejaVuSans-70" x="113.085938"/>
      <use xlink:href="#DejaVuSans-61" x="176.5625"/>
      <use xlink:href="#DejaVuSans-73" x="237.841797"/>
      <use xlink:href="#DejaVuSans-73" x="289.941406"/>
      <use xlink:href="#DejaVuSans-40" x="342.041016"/>
      <use xlink:href="#DejaVuSans-6b" x="442.041016"/>
     </g>
    </g>
   </g>
   <g id="line2d_47">
    <path d="M 77.398636 257.487451 
L 147.323799 192.63066 
L 188.227398 167.265924 
L 217.248962 153.296205 
L 239.759837 143.78875 
L 258.152561 136.57125 
L 273.703387 130.777703 
L 287.174125 125.982232 
L 299.056159 121.93891 
L 309.685 118.487689 
L 319.299956 115.514824 
L 328.077724 112.934341 
L 336.152487 110.678605 
L 343.62855 108.693108 
L 350.588598 106.933309 
L 357.099289 105.362544 
L 363.215142 103.950518 
L 368.981322 102.672152 
L 374.43566 101.506669 
L 379.610163 100.436853 
L 384.532148 99.448431 
L 389.225119 98.529574 
L 393.709444 97.670472 
L 398.002887 96.862988 
L 402.121038 96.100364 
L 406.07765 95.376985 
L 409.88492 94.688177 
L 413.553713 94.030042 
L 417.093749 93.399321 
L 420.513761 92.793282 
L 423.821621 92.209628 
L 427.024452 91.646415 
L 430.128718 91.101995 
L 433.140305 90.574957 
L 436.064588 90.06409 
L 438.906485 89.568347 
L 441.670512 89.08681 
L 444.360823 88.618677 
L 446.981248 88.163231 
L 449.535326 87.719833 
L 452.026334 87.287906 
L 454.457311 86.866923 
L 456.831084 86.456401 
L 459.150282 86.055894 
L 461.41736 85.664983 
L 463.634607 85.283279 
L 465.804167 84.910412 
L 467.92805 84.546034 
L 470.008138 84.18981 
L 472.046201 83.841424 
L 474.043903 83.50057 
L 476.002813 83.166956 
L 477.924408 82.840299 
L 479.810083 82.520328 
L 481.661157 82.206779 
L 483.478876 81.899401 
L 485.264422 81.597946 
L 487.018913 81.302177 
L 488.743411 81.011865 
L 490.438924 80.726785 
L 492.106412 80.446723 
L 493.746784 80.17147 
L 495.36091 79.900821 
L 496.949615 79.634581 
L 498.513688 79.37256 
L 500.053881 79.114572 
L 501.570912 78.86044 
L 503.065468 78.609988 
L 504.538205 78.36305 
L 505.989751 78.119463 
L 507.420706 77.879067 
L 508.831648 77.641711 
L 510.223128 77.407245 
L 511.595675 77.175526 
L 512.949799 76.946413 
L 514.285986 76.719771 
L 515.604707 76.495468 
L 516.906411 76.273376 
L 518.191533 76.053371 
L 519.460489 75.835331 
L 520.713681 75.619138 
L 521.951497 75.404679 
L 523.174308 75.191841 
L 524.382474 74.980515 
L 525.576343 74.770594 
L 526.756247 74.561976 
L 527.922511 74.354557 
L 529.075445 74.148237 
L 530.215352 73.94292 
L 531.342523 73.738509 
L 532.457238 73.534908 
L 533.55977 73.332026 
L 534.650382 73.129768 
L 535.72933 72.928046 
L 536.796861 72.726768 
L 537.853213 72.525844 
L 538.898618 72.325187 
L 539.933301 72.124706 
L 540.957479 71.924314 
L 541.971364 71.723922 
" clip-path="url(#pd300f6cbde)" style="fill: none; stroke: #ffa500; stroke-width: 2; stroke-linecap: square"/>
    <defs>
     <path id="m18a03a918a" d="M 0 1.25 
C 0.331504 1.25 0.649475 1.118292 0.883883 0.883883 
C 1.118292 0.649475 1.25 0.331504 1.25 0 
C 1.25 -0.331504 1.118292 -0.649475 0.883883 -0.883883 
C 0.649475 -1.118292 0.331504 -1.25 0 -1.25 
C -0.331504 -1.25 -0.649475 -1.118292 -0.883883 -0.883883 
C -1.118292 -0.649475 -1.25 -0.331504 -1.25 0 
C -1.25 0.331504 -1.118292 0.649475 -0.883883 0.883883 
C -0.649475 1.118292 -0.331504 1.25 0 1.25 
z
" style="stroke: #ffa500"/>
    </defs>
    <g clip-path="url(#pd300f6cbde)">
     <use xlink:href="#m18a03a918a" x="77.398636" y="257.487451" style="fill: #ffa500; stroke: #ffa500"/>
     <use xlink:href="#m18a03a918a" x="147.323799" y="192.63066" style="fill: #ffa500; stroke: #ffa500"/>
     <use xlink:href="#m18a03a918a" x="239.759837" y="143.78875" style="fill: #ffa500; stroke: #ffa500"/>
     <use xlink:href="#m18a03a918a" x="309.685" y="118.487689" style="fill: #ffa500; stroke: #ffa500"/>
     <use xlink:href="#m18a03a918a" x="379.610163" y="100.436853" style="fill: #ffa500; stroke: #ffa500"/>
     <use xlink:href="#m18a03a918a" x="472.046201" y="83.841424" style="fill: #ffa500; stroke: #ffa500"/>
     <use xlink:href="#m18a03a918a" x="541.971364" y="71.723922" style="fill: #ffa500; stroke: #ffa500"/>
    </g>
   </g>
   <g id="line2d_48">
    <path d="M 77.398636 356.106712 
L 147.323799 292.434358 
L 188.227398 264.926668 
L 217.248962 245.496472 
L 239.759837 233.868379 
L 258.152561 223.087601 
L 273.703387 216.251951 
L 287.174125 212.420053 
L 299.056159 208.898149 
L 309.685 204.594279 
L 319.299956 200.83345 
L 328.077724 198.470677 
L 336.152487 196.757572 
L 343.62855 195.193844 
L 350.588598 192.205238 
L 357.099289 191.343652 
L 363.215142 189.994061 
L 368.981322 188.041525 
L 374.43566 187.061645 
L 379.610163 186.369187 
L 384.532148 184.904403 
L 389.225119 183.497845 
L 393.709444 182.14306 
L 398.002887 180.811127 
L 402.121038 179.515287 
L 406.07765 178.273782 
L 409.88492 177.307807 
L 413.553713 176.361089 
L 417.093749 175.58607 
L 420.513761 174.854138 
L 423.821621 174.155363 
L 427.024452 173.485978 
L 430.128718 172.602936 
L 433.140305 171.523259 
L 436.064588 171.243706 
L 438.906485 170.542774 
L 441.670512 170.070636 
L 444.360823 169.206682 
L 446.981248 168.603138 
L 449.535326 168.041998 
L 452.026334 167.48755 
L 454.457311 166.927008 
L 456.831084 166.13962 
L 459.150282 164.946606 
L 461.41736 164.543437 
L 463.634607 164.140738 
L 465.804167 163.738417 
L 467.92805 163.336404 
L 470.008138 162.934643 
L 472.046201 162.533089 
L 474.043903 162.131708 
L 476.002813 161.685701 
L 477.924408 161.187204 
L 479.810083 160.919884 
L 481.661157 160.545051 
L 483.478876 160.155966 
L 485.264422 159.766943 
L 487.018913 159.377977 
L 488.743411 158.989062 
L 490.438924 158.600191 
L 492.106412 158.194774 
L 493.746784 157.770068 
L 495.36091 157.234073 
L 496.949615 156.562737 
L 498.513688 156.348257 
L 500.053881 156.134778 
L 501.570912 155.758993 
L 503.065468 155.36534 
L 504.538205 154.971706 
L 505.989751 154.578089 
L 507.420706 154.179987 
L 508.831648 153.773724 
L 510.223128 153.367527 
L 511.595675 152.801093 
L 512.949799 152.10511 
L 514.285986 151.411449 
L 515.604707 151.315799 
L 516.906411 151.264089 
L 518.191533 150.979639 
L 519.460489 150.589211 
L 520.713681 150.186171 
L 521.951497 149.783134 
L 523.174308 149.3801 
L 524.382474 148.81974 
L 525.576343 148.24232 
L 526.756247 147.664958 
L 527.922511 147.087642 
L 529.075445 146.662694 
L 530.215352 146.455806 
L 531.342523 146.248918 
L 532.457238 146.04203 
L 533.55977 145.884986 
L 534.650382 145.883086 
L 535.72933 145.881729 
L 536.796861 145.540613 
L 537.853213 145.148547 
L 538.898618 144.852666 
L 539.933301 144.655737 
L 540.957479 144.45881 
L 541.971364 144.261883 
" clip-path="url(#pd300f6cbde)" style="fill: none; stroke-dasharray: 3.7,1.6; stroke-dashoffset: 0; stroke: #ffa500"/>
    <g clip-path="url(#pd300f6cbde)">
     <use xlink:href="#m18a03a918a" x="77.398636" y="356.106712" style="fill: #ffa500; stroke: #ffa500"/>
     <use xlink:href="#m18a03a918a" x="147.323799" y="292.434358" style="fill: #ffa500; stroke: #ffa500"/>
     <use xlink:href="#m18a03a918a" x="239.759837" y="233.868379" style="fill: #ffa500; stroke: #ffa500"/>
     <use xlink:href="#m18a03a918a" x="309.685" y="204.594279" style="fill: #ffa500; stroke: #ffa500"/>
     <use xlink:href="#m18a03a918a" x="379.610163" y="186.369187" style="fill: #ffa500; stroke: #ffa500"/>
     <use xlink:href="#m18a03a918a" x="472.046201" y="162.533089" style="fill: #ffa500; stroke: #ffa500"/>
     <use xlink:href="#m18a03a918a" x="541.971364" y="144.261883" style="fill: #ffa500; stroke: #ffa500"/>
    </g>
   </g>
   <g id="line2d_49">
    <path d="M 77.398636 160.955358 
L 147.323799 102.889813 
L 188.227398 83.44908 
L 217.248962 73.832567 
L 239.759837 67.574705 
L 258.152561 64.13152 
L 273.703387 60.316008 
L 287.174125 57.853439 
L 299.056159 56.036608 
L 309.685 53.540706 
L 319.299956 51.219743 
L 328.077724 48.530834 
L 336.152487 47.101693 
L 343.62855 46.174352 
L 350.588598 45.212531 
L 357.099289 44.51549 
L 363.215142 43.848926 
L 368.981322 43.028981 
L 374.43566 42.116405 
L 379.610163 41.084497 
L 384.532148 40.098832 
L 389.225119 39.20098 
L 393.709444 38.547408 
L 398.002887 38.02542 
L 402.121038 37.325789 
L 406.07765 36.604043 
L 409.88492 35.929926 
L 413.553713 35.307247 
L 417.093749 34.729675 
L 420.513761 34.191961 
L 423.821621 33.68974 
L 427.024452 33.21937 
L 430.128718 32.777795 
L 433.140305 32.362439 
L 436.064588 31.971114 
L 438.906485 31.601951 
L 441.670512 31.253339 
L 444.360823 30.92388 
L 446.981248 30.612348 
L 449.535326 30.31766 
L 452.026334 30.038937 
L 454.457311 29.775653 
L 456.831084 29.546029 
L 459.150282 29.327144 
L 461.41736 29.118586 
L 463.634607 28.919984 
L 465.804167 28.730975 
L 467.92805 28.55121 
L 470.008138 28.380346 
L 472.046201 28.211696 
L 474.043903 28.047099 
L 476.002813 27.892001 
L 477.924408 27.745969 
L 479.810083 27.608583 
L 481.661157 27.479441 
L 483.478876 27.358156 
L 485.264422 27.244356 
L 487.018913 27.137682 
L 488.743411 27.037788 
L 490.438924 26.944344 
L 492.106412 26.857029 
L 493.746784 26.775538 
L 495.36091 26.699574 
L 496.949615 26.628854 
L 498.513688 26.563107 
L 500.053881 26.502071 
L 501.570912 26.445518 
L 503.065468 26.393269 
L 504.538205 26.344985 
L 505.989751 26.300447 
L 507.420706 26.259447 
L 508.831648 26.223639 
L 510.223128 26.19105 
L 511.595675 26.160886 
L 512.949799 26.133051 
L 514.285986 26.107451 
L 515.604707 26.083991 
L 516.906411 26.062096 
L 518.191533 26.041918 
L 519.460489 26.023853 
L 520.713681 26.007756 
L 521.951497 25.99349 
L 523.174308 25.980923 
L 524.382474 25.969929 
L 525.576343 25.960384 
L 526.756247 25.952173 
L 527.922511 25.945183 
L 529.075445 25.939306 
L 530.215352 25.934435 
L 531.342523 25.93047 
L 532.457238 25.927312 
L 533.55977 25.924865 
L 534.650382 25.923036 
L 535.72933 25.921733 
L 536.796861 25.920866 
L 537.853213 25.920346 
L 538.898618 25.920087 
L 539.933301 25.92 
L 540.957479 25.92 
L 541.971364 25.92 
" clip-path="url(#pd300f6cbde)" style="fill: none; stroke-dasharray: 1,1.65; stroke-dashoffset: 0; stroke: #ffa500"/>
    <g clip-path="url(#pd300f6cbde)">
     <use xlink:href="#m18a03a918a" x="77.398636" y="160.955358" style="fill: #ffa500; stroke: #ffa500"/>
     <use xlink:href="#m18a03a918a" x="147.323799" y="102.889813" style="fill: #ffa500; stroke: #ffa500"/>
     <use xlink:href="#m18a03a918a" x="239.759837" y="67.574705" style="fill: #ffa500; stroke: #ffa500"/>
     <use xlink:href="#m18a03a918a" x="309.685" y="53.540706" style="fill: #ffa500; stroke: #ffa500"/>
     <use xlink:href="#m18a03a918a" x="379.610163" y="41.084497" style="fill: #ffa500; stroke: #ffa500"/>
     <use xlink:href="#m18a03a918a" x="472.046201" y="28.211696" style="fill: #ffa500; stroke: #ffa500"/>
     <use xlink:href="#m18a03a918a" x="541.971364" y="25.92" style="fill: #ffa500; stroke: #ffa500"/>
    </g>
   </g>
   <g id="line2d_50">
    <path d="M 77.398636 250.416471 
L 147.323799 179.174023 
L 188.227398 151.483081 
L 217.248962 136.918007 
L 239.759837 127.565522 
L 258.152561 120.889814 
L 273.703387 115.870322 
L 287.174125 111.986839 
L 299.056159 108.923012 
L 309.685 106.466008 
L 319.299956 104.46507 
L 328.077724 102.810453 
L 336.152487 101.420959 
L 343.62855 100.235826 
L 350.588598 99.209197 
L 357.099289 98.306221 
L 363.215142 97.500267 
L 368.981322 96.770882 
L 374.43566 96.102299 
L 379.610163 95.482325 
L 384.532148 94.901501 
L 389.225119 94.352478 
L 393.709444 93.82953 
L 398.002887 93.328193 
L 402.121038 92.844981 
L 406.07765 92.377168 
L 409.88492 91.92262 
L 413.553713 91.479663 
L 417.093749 91.046984 
L 420.513761 90.623548 
L 423.821621 90.208537 
L 427.024452 89.801303 
L 430.128718 89.401328 
L 433.140305 89.008195 
L 436.064588 88.621567 
L 438.906485 88.241164 
L 441.670512 87.866755 
L 444.360823 87.498144 
L 446.981248 87.13516 
L 449.535326 86.777655 
L 452.026334 86.425496 
L 454.457311 86.078559 
L 456.831084 85.736732 
L 459.150282 85.399908 
L 461.41736 85.067986 
L 463.634607 84.740868 
L 465.804167 84.418458 
L 467.92805 84.100663 
L 470.008138 83.78739 
L 472.046201 83.478549 
L 474.043903 83.174049 
L 476.002813 82.873801 
L 477.924408 82.577715 
L 479.810083 82.285702 
L 481.661157 81.997673 
L 483.478876 81.71354 
L 485.264422 81.433214 
L 487.018913 81.156605 
L 488.743411 80.883626 
L 490.438924 80.614188 
L 492.106412 80.348202 
L 493.746784 80.08558 
L 495.36091 79.826234 
L 496.949615 79.570074 
L 498.513688 79.317012 
L 500.053881 79.06696 
L 501.570912 78.819829 
L 503.065468 78.575531 
L 504.538205 78.333977 
L 505.989751 78.095079 
L 507.420706 77.858747 
L 508.831648 77.624894 
L 510.223128 77.393432 
L 511.595675 77.16427 
L 512.949799 76.937322 
L 514.285986 76.712498 
L 515.604707 76.489711 
L 516.906411 76.26887 
L 518.191533 76.049889 
L 519.460489 75.832678 
L 520.713681 75.617149 
L 521.951497 75.403213 
L 523.174308 75.190782 
L 524.382474 74.979767 
L 525.576343 74.770081 
L 526.756247 74.561633 
L 527.922511 74.354336 
L 529.075445 74.148102 
L 530.215352 73.942841 
L 531.342523 73.738466 
L 532.457238 73.534887 
L 533.55977 73.332016 
L 534.650382 73.129765 
L 535.72933 72.928045 
L 536.796861 72.726768 
L 537.853213 72.525844 
L 538.898618 72.325187 
L 539.933301 72.124706 
L 540.957479 71.924314 
L 541.971364 71.723922 
" clip-path="url(#pd300f6cbde)" style="fill: none; stroke: #0000ff; stroke-width: 2; stroke-linecap: square"/>
    <defs>
     <path id="m66b434b3cf" d="M -1.25 1.25 
L 1.25 1.25 
L 1.25 -1.25 
L -1.25 -1.25 
z
" style="stroke: #0000ff; stroke-linejoin: miter"/>
    </defs>
    <g clip-path="url(#pd300f6cbde)">
     <use xlink:href="#m66b434b3cf" x="77.398636" y="250.416471" style="fill: #0000ff; stroke: #0000ff; stroke-linejoin: miter"/>
     <use xlink:href="#m66b434b3cf" x="147.323799" y="179.174023" style="fill: #0000ff; stroke: #0000ff; stroke-linejoin: miter"/>
     <use xlink:href="#m66b434b3cf" x="239.759837" y="127.565522" style="fill: #0000ff; stroke: #0000ff; stroke-linejoin: miter"/>
     <use xlink:href="#m66b434b3cf" x="309.685" y="106.466008" style="fill: #0000ff; stroke: #0000ff; stroke-linejoin: miter"/>
     <use xlink:href="#m66b434b3cf" x="379.610163" y="95.482325" style="fill: #0000ff; stroke: #0000ff; stroke-linejoin: miter"/>
     <use xlink:href="#m66b434b3cf" x="472.046201" y="83.478549" style="fill: #0000ff; stroke: #0000ff; stroke-linejoin: miter"/>
     <use xlink:href="#m66b434b3cf" x="541.971364" y="71.723922" style="fill: #0000ff; stroke: #0000ff; stroke-linejoin: miter"/>
    </g>
   </g>
   <g id="line2d_51">
    <path d="M 77.398636 347.272278 
L 147.323799 275.679321 
L 188.227398 242.674803 
L 217.248962 227.250704 
L 239.759837 216.74268 
L 258.152561 208.853974 
L 273.703387 204.249673 
L 287.174125 198.643017 
L 299.056159 195.764982 
L 309.685 194.189216 
L 319.299956 191.544932 
L 328.077724 189.174509 
L 336.152487 188.430813 
L 343.62855 187.820556 
L 350.588598 187.311035 
L 357.099289 186.877681 
L 363.215142 186.303403 
L 368.981322 185.330497 
L 374.43566 184.366261 
L 379.610163 183.78765 
L 384.532148 182.941696 
L 389.225119 182.116304 
L 393.709444 181.326848 
L 398.002887 180.259669 
L 402.121038 179.061788 
L 406.07765 177.895584 
L 409.88492 176.996486 
L 413.553713 176.104544 
L 417.093749 175.033131 
L 420.513761 173.970912 
L 423.821621 172.922281 
L 427.024452 171.886809 
L 430.128718 170.956965 
L 433.140305 170.71915 
L 436.064588 170.08216 
L 438.906485 169.578414 
L 441.670512 169.16874 
L 444.360823 168.755317 
L 446.981248 168.253794 
L 449.535326 167.366684 
L 452.026334 166.501923 
L 454.457311 166.014073 
L 456.831084 165.322795 
L 459.150282 164.922644 
L 461.41736 164.522503 
L 463.634607 164.12237 
L 465.804167 163.673535 
L 467.92805 163.209581 
L 470.008138 162.745637 
L 472.046201 162.281699 
L 474.043903 161.817766 
L 476.002813 161.353835 
L 477.924408 160.889907 
L 479.810083 160.695364 
L 481.661157 160.539816 
L 483.478876 160.151336 
L 485.264422 159.762857 
L 487.018913 159.374377 
L 488.743411 158.985897 
L 490.438924 158.591745 
L 492.106412 158.189233 
L 493.746784 157.765239 
L 495.36091 157.070689 
L 496.949615 156.499719 
L 498.513688 156.293992 
L 500.053881 156.088265 
L 501.570912 155.757976 
L 503.065468 155.364477 
L 504.538205 154.970977 
L 505.989751 154.577478 
L 507.420706 154.179987 
L 508.831648 153.773724 
L 510.223128 153.367527 
L 511.595675 152.801093 
L 512.949799 152.10511 
L 514.285986 151.411449 
L 515.604707 151.310096 
L 516.906411 151.259626 
L 518.191533 150.97955 
L 519.460489 150.589147 
L 520.713681 150.186123 
L 521.951497 149.783099 
L 523.174308 149.380074 
L 524.382474 148.819035 
L 525.576343 148.241835 
L 526.756247 147.664635 
L 527.922511 147.087435 
L 529.075445 146.662694 
L 530.215352 146.455806 
L 531.342523 146.248918 
L 532.457238 146.04203 
L 533.55977 145.884986 
L 534.650382 145.883086 
L 535.72933 145.881729 
L 536.796861 145.540612 
L 537.853213 145.148547 
L 538.898618 144.852666 
L 539.933301 144.655737 
L 540.957479 144.45881 
L 541.971364 144.261883 
" clip-path="url(#pd300f6cbde)" style="fill: none; stroke-dasharray: 3.7,1.6; stroke-dashoffset: 0; stroke: #0000ff"/>
    <g clip-path="url(#pd300f6cbde)">
     <use xlink:href="#m66b434b3cf" x="77.398636" y="347.272278" style="fill: #0000ff; stroke: #0000ff; stroke-linejoin: miter"/>
     <use xlink:href="#m66b434b3cf" x="147.323799" y="275.679321" style="fill: #0000ff; stroke: #0000ff; stroke-linejoin: miter"/>
     <use xlink:href="#m66b434b3cf" x="239.759837" y="216.74268" style="fill: #0000ff; stroke: #0000ff; stroke-linejoin: miter"/>
     <use xlink:href="#m66b434b3cf" x="309.685" y="194.189216" style="fill: #0000ff; stroke: #0000ff; stroke-linejoin: miter"/>
     <use xlink:href="#m66b434b3cf" x="379.610163" y="183.78765" style="fill: #0000ff; stroke: #0000ff; stroke-linejoin: miter"/>
     <use xlink:href="#m66b434b3cf" x="472.046201" y="162.281699" style="fill: #0000ff; stroke: #0000ff; stroke-linejoin: miter"/>
     <use xlink:href="#m66b434b3cf" x="541.971364" y="144.261883" style="fill: #0000ff; stroke: #0000ff; stroke-linejoin: miter"/>
    </g>
   </g>
   <g id="line2d_52">
    <path d="M 77.398636 164.320716 
L 147.323799 99.632109 
L 188.227398 75.135542 
L 217.248962 64.146575 
L 239.759837 56.941138 
L 258.152561 52.317315 
L 273.703387 47.9091 
L 287.174125 45.456146 
L 299.056159 44.661401 
L 309.685 43.278792 
L 319.299956 42.547371 
L 328.077724 40.653295 
L 336.152487 39.150654 
L 343.62855 37.885916 
L 350.588598 36.864002 
L 357.099289 36.013178 
L 363.215142 35.272484 
L 368.981322 34.684132 
L 374.43566 34.028131 
L 379.610163 33.559136 
L 384.532148 33.259089 
L 389.225119 32.884922 
L 393.709444 32.540645 
L 398.002887 32.224782 
L 402.121038 31.931868 
L 406.07765 31.657604 
L 409.88492 31.399135 
L 413.553713 31.154219 
L 417.093749 30.921094 
L 420.513761 30.698372 
L 423.821621 30.484954 
L 427.024452 30.279973 
L 430.128718 30.082736 
L 433.140305 29.892692 
L 436.064588 29.709393 
L 438.906485 29.53248 
L 441.670512 29.361654 
L 444.360823 29.196671 
L 446.981248 29.037322 
L 449.535326 28.883429 
L 452.026334 28.734837 
L 454.457311 28.591406 
L 456.831084 28.453014 
L 459.150282 28.319543 
L 461.41736 28.190888 
L 463.634607 28.066945 
L 465.804167 27.947617 
L 467.92805 27.83281 
L 470.008138 27.72243 
L 472.046201 27.616388 
L 474.043903 27.514593 
L 476.002813 27.416957 
L 477.924408 27.323392 
L 479.810083 27.233811 
L 481.661157 27.148125 
L 483.478876 27.066249 
L 485.264422 26.988095 
L 487.018913 26.913576 
L 488.743411 26.842606 
L 490.438924 26.775098 
L 492.106412 26.710965 
L 493.746784 26.650122 
L 495.36091 26.592481 
L 496.949615 26.537955 
L 498.513688 26.486459 
L 500.053881 26.437905 
L 501.570912 26.392208 
L 503.065468 26.34928 
L 504.538205 26.309035 
L 505.989751 26.271386 
L 507.420706 26.236248 
L 508.831648 26.203532 
L 510.223128 26.173154 
L 511.595675 26.145026 
L 512.949799 26.119061 
L 514.285986 26.095174 
L 515.604707 26.073277 
L 516.906411 26.053284 
L 518.191533 26.035109 
L 519.460489 26.018665 
L 520.713681 26.003865 
L 521.951497 25.990623 
L 523.174308 25.978853 
L 524.382474 25.968467 
L 525.576343 25.959379 
L 526.756247 25.951504 
L 527.922511 25.944753 
L 529.075445 25.939041 
L 530.215352 25.93428 
L 531.342523 25.930386 
L 532.457238 25.92727 
L 533.55977 25.924847 
L 534.650382 25.923029 
L 535.72933 25.921731 
L 536.796861 25.920865 
L 537.853213 25.920346 
L 538.898618 25.920087 
L 539.933301 25.92 
L 540.957479 25.92 
L 541.971364 25.92 
" clip-path="url(#pd300f6cbde)" style="fill: none; stroke-dasharray: 1,1.65; stroke-dashoffset: 0; stroke: #0000ff"/>
    <g clip-path="url(#pd300f6cbde)">
     <use xlink:href="#m66b434b3cf" x="77.398636" y="164.320716" style="fill: #0000ff; stroke: #0000ff; stroke-linejoin: miter"/>
     <use xlink:href="#m66b434b3cf" x="147.323799" y="99.632109" style="fill: #0000ff; stroke: #0000ff; stroke-linejoin: miter"/>
     <use xlink:href="#m66b434b3cf" x="239.759837" y="56.941138" style="fill: #0000ff; stroke: #0000ff; stroke-linejoin: miter"/>
     <use xlink:href="#m66b434b3cf" x="309.685" y="43.278792" style="fill: #0000ff; stroke: #0000ff; stroke-linejoin: miter"/>
     <use xlink:href="#m66b434b3cf" x="379.610163" y="33.559136" style="fill: #0000ff; stroke: #0000ff; stroke-linejoin: miter"/>
     <use xlink:href="#m66b434b3cf" x="472.046201" y="27.616388" style="fill: #0000ff; stroke: #0000ff; stroke-linejoin: miter"/>
     <use xlink:href="#m66b434b3cf" x="541.971364" y="25.92" style="fill: #0000ff; stroke: #0000ff; stroke-linejoin: miter"/>
    </g>
   </g>
   <g id="line2d_53">
    <path d="M 77.398636 165.765098 
L 147.323799 118.566239 
L 188.227398 101.799015 
L 217.248962 92.731535 
L 239.759837 86.646794 
L 258.152561 82.087957 
L 273.703387 78.447822 
L 287.174125 75.418702 
L 299.056159 72.826731 
L 309.685 70.567043 
L 319.299956 68.572958 
L 328.077724 66.799715 
L 336.152487 65.215454 
L 343.62855 63.79613 
L 350.588598 62.522617 
L 357.099289 61.379052 
L 363.215142 60.351861 
L 368.981322 59.429186 
L 374.43566 58.600529 
L 379.610163 57.856517 
L 384.532148 57.18874 
L 389.225119 56.589631 
L 393.709444 56.052371 
L 398.002887 55.570811 
L 402.121038 55.139402 
L 406.07765 54.753136 
L 409.88492 54.407496 
L 413.553713 54.098403 
L 417.093749 53.822179 
L 420.513761 53.575504 
L 423.821621 53.355384 
L 427.024452 53.159118 
L 430.128718 52.984271 
L 433.140305 52.828646 
L 436.064588 52.690264 
L 438.906485 52.56734 
L 441.670512 52.458264 
L 444.360823 52.361588 
L 446.981248 52.276006 
L 449.535326 52.200342 
L 452.026334 52.133537 
L 454.457311 52.074639 
L 456.831084 52.02279 
L 459.150282 51.977219 
L 461.41736 51.937234 
L 463.634607 51.902212 
L 465.804167 51.871595 
L 467.92805 51.844881 
L 470.008138 51.821622 
L 472.046201 51.801415 
L 474.043903 51.7839 
L 476.002813 51.768755 
L 477.924408 51.755694 
L 479.810083 51.74446 
L 481.661157 51.734825 
L 483.478876 51.726586 
L 485.264422 51.719564 
L 487.018913 51.713599 
L 488.743411 51.708549 
L 490.438924 51.704291 
L 492.106412 51.700715 
L 493.746784 51.697723 
L 495.36091 51.695233 
L 496.949615 51.693169 
L 498.513688 51.691467 
L 500.053881 51.690071 
L 501.570912 51.688934 
L 503.065468 51.688012 
L 504.538205 51.68727 
L 505.989751 51.686677 
L 507.420706 51.686207 
L 508.831648 51.685838 
L 510.223128 51.685549 
L 511.595675 51.685327 
L 512.949799 51.685157 
L 514.285986 51.685029 
L 515.604707 51.684934 
L 516.906411 51.684864 
L 518.191533 51.684813 
L 519.460489 51.684777 
L 520.713681 51.684752 
L 521.951497 51.684735 
L 523.174308 51.684724 
L 524.382474 51.684716 
L 525.576343 51.684712 
L 526.756247 51.684709 
L 527.922511 51.684707 
L 529.075445 51.684707 
L 530.215352 51.684706 
L 531.342523 51.684706 
L 532.457238 51.684706 
L 533.55977 51.684706 
L 534.650382 51.684706 
L 535.72933 51.684706 
L 536.796861 51.684706 
L 537.853213 51.684706 
L 538.898618 51.684706 
L 539.933301 51.684706 
L 540.957479 51.684706 
L 541.971364 51.684706 
" clip-path="url(#pd300f6cbde)" style="fill: none; stroke: #008000; stroke-width: 2; stroke-linecap: square"/>
    <defs>
     <path id="m85e63e117c" d="M 0 1.767767 
L 1.767767 0 
L 0 -1.767767 
L -1.767767 0 
z
" style="stroke: #008000; stroke-linejoin: miter"/>
    </defs>
    <g clip-path="url(#pd300f6cbde)">
     <use xlink:href="#m85e63e117c" x="77.398636" y="165.765098" style="fill: #008000; stroke: #008000; stroke-linejoin: miter"/>
     <use xlink:href="#m85e63e117c" x="147.323799" y="118.566239" style="fill: #008000; stroke: #008000; stroke-linejoin: miter"/>
     <use xlink:href="#m85e63e117c" x="239.759837" y="86.646794" style="fill: #008000; stroke: #008000; stroke-linejoin: miter"/>
     <use xlink:href="#m85e63e117c" x="309.685" y="70.567043" style="fill: #008000; stroke: #008000; stroke-linejoin: miter"/>
     <use xlink:href="#m85e63e117c" x="379.610163" y="57.856517" style="fill: #008000; stroke: #008000; stroke-linejoin: miter"/>
     <use xlink:href="#m85e63e117c" x="472.046201" y="51.801415" style="fill: #008000; stroke: #008000; stroke-linejoin: miter"/>
     <use xlink:href="#m85e63e117c" x="541.971364" y="51.684706" style="fill: #008000; stroke: #008000; stroke-linejoin: miter"/>
    </g>
   </g>
   <g id="line2d_54">
    <path d="M 77.398636 252.980909 
L 147.323799 200.778785 
L 188.227398 177.733822 
L 217.248962 167.333282 
L 239.759837 158.623708 
L 258.152561 151.084784 
L 273.703387 146.379566 
L 287.174125 142.385863 
L 299.056159 138.149765 
L 309.685 135.014043 
L 319.299956 131.467659 
L 328.077724 128.752391 
L 336.152487 126.824899 
L 343.62855 125.100462 
L 350.588598 123.558929 
L 357.099289 122.182043 
L 363.215142 120.953272 
L 368.981322 119.857651 
L 374.43566 118.840868 
L 379.610163 117.848476 
L 384.532148 116.962173 
L 389.225119 115.861598 
L 393.709444 114.882494 
L 398.002887 114.52743 
L 402.121038 113.963146 
L 406.07765 113.440442 
L 409.88492 113.217825 
L 413.553713 112.898762 
L 417.093749 112.306258 
L 420.513761 111.780921 
L 423.821621 111.563762 
L 427.024452 111.535719 
L 430.128718 111.512266 
L 433.140305 111.461006 
L 436.064588 111.301601 
L 438.906485 111.160903 
L 441.670512 111.102124 
L 444.360823 111.095417 
L 446.981248 111.090009 
L 449.535326 111.085664 
L 452.026334 111.082189 
L 454.457311 111.07942 
L 456.831084 111.077224 
L 459.150282 111.075491 
L 461.41736 111.074129 
L 463.634607 111.073064 
L 465.804167 111.072235 
L 467.92805 111.071595 
L 470.008138 111.071102 
L 472.046201 111.070725 
L 474.043903 111.070438 
L 476.002813 111.070222 
L 477.924408 111.07006 
L 479.810083 111.069939 
L 481.661157 111.06985 
L 483.478876 111.069784 
L 485.264422 111.069737 
L 487.018913 111.069702 
L 488.743411 111.069678 
L 490.438924 111.06966 
L 492.106412 111.069648 
L 493.746784 111.06964 
L 495.36091 111.069634 
L 496.949615 111.06963 
L 498.513688 111.069628 
L 500.053881 111.069626 
L 501.570912 111.069625 
L 503.065468 111.069624 
L 504.538205 111.069624 
L 505.989751 111.069623 
L 507.420706 111.069623 
L 508.831648 111.069623 
L 510.223128 111.069623 
L 511.595675 111.069623 
L 512.949799 111.069623 
L 514.285986 111.069623 
L 515.604707 111.069623 
L 516.906411 111.069623 
L 518.191533 111.069623 
L 519.460489 111.069623 
L 520.713681 111.069623 
L 521.951497 111.069623 
L 523.174308 111.069623 
L 524.382474 111.069623 
L 525.576343 111.069623 
L 526.756247 111.069623 
L 527.922511 111.069623 
L 529.075445 111.069623 
L 530.215352 111.069623 
L 531.342523 111.069623 
L 532.457238 111.069623 
L 533.55977 111.069623 
L 534.650382 111.069623 
L 535.72933 111.069623 
L 536.796861 111.069623 
L 537.853213 111.069623 
L 538.898618 111.069623 
L 539.933301 111.069623 
L 540.957479 111.069623 
L 541.971364 111.069623 
" clip-path="url(#pd300f6cbde)" style="fill: none; stroke-dasharray: 3.7,1.6; stroke-dashoffset: 0; stroke: #008000"/>
    <g clip-path="url(#pd300f6cbde)">
     <use xlink:href="#m85e63e117c" x="77.398636" y="252.980909" style="fill: #008000; stroke: #008000; stroke-linejoin: miter"/>
     <use xlink:href="#m85e63e117c" x="147.323799" y="200.778785" style="fill: #008000; stroke: #008000; stroke-linejoin: miter"/>
     <use xlink:href="#m85e63e117c" x="239.759837" y="158.623708" style="fill: #008000; stroke: #008000; stroke-linejoin: miter"/>
     <use xlink:href="#m85e63e117c" x="309.685" y="135.014043" style="fill: #008000; stroke: #008000; stroke-linejoin: miter"/>
     <use xlink:href="#m85e63e117c" x="379.610163" y="117.848476" style="fill: #008000; stroke: #008000; stroke-linejoin: miter"/>
     <use xlink:href="#m85e63e117c" x="472.046201" y="111.070725" style="fill: #008000; stroke: #008000; stroke-linejoin: miter"/>
     <use xlink:href="#m85e63e117c" x="541.971364" y="111.069623" style="fill: #008000; stroke: #008000; stroke-linejoin: miter"/>
    </g>
   </g>
   <g id="line2d_55">
    <path d="M 77.398636 93.02385 
L 147.323799 57.311443 
L 188.227398 44.421811 
L 217.248962 39.585778 
L 239.759837 36.790276 
L 258.152561 35.430974 
L 273.703387 33.889842 
L 287.174125 32.550304 
L 299.056159 31.436469 
L 309.685 30.569292 
L 319.299956 29.855409 
L 328.077724 29.258389 
L 336.152487 28.748101 
L 343.62855 28.314234 
L 350.588598 27.946448 
L 357.099289 27.633501 
L 363.215142 27.366778 
L 368.981322 27.1394 
L 374.43566 26.945694 
L 379.610163 26.780887 
L 384.532148 26.640901 
L 389.225119 26.522228 
L 393.709444 26.421835 
L 398.002887 26.3371 
L 402.121038 26.26575 
L 406.07765 26.205818 
L 409.88492 26.155606 
L 413.553713 26.113648 
L 417.093749 26.078684 
L 420.513761 26.049629 
L 423.821621 26.025555 
L 427.024452 26.005668 
L 430.128718 25.98929 
L 433.140305 25.975846 
L 436.064588 25.964846 
L 438.906485 25.955877 
L 441.670512 25.948589 
L 444.360823 25.94269 
L 446.981248 25.937932 
L 449.535326 25.934111 
L 452.026334 25.931053 
L 454.457311 25.928618 
L 456.831084 25.926686 
L 459.150282 25.925161 
L 461.41736 25.923963 
L 463.634607 25.923026 
L 465.804167 25.922298 
L 467.92805 25.921734 
L 470.008138 25.921301 
L 472.046201 25.920969 
L 474.043903 25.920717 
L 476.002813 25.920527 
L 477.924408 25.920384 
L 479.810083 25.920278 
L 481.661157 25.920199 
L 483.478876 25.920142 
L 485.264422 25.9201 
L 487.018913 25.92007 
L 488.743411 25.920048 
L 490.438924 25.920033 
L 492.106412 25.920022 
L 493.746784 25.920015 
L 495.36091 25.92001 
L 496.949615 25.920006 
L 498.513688 25.920004 
L 500.053881 25.920003 
L 501.570912 25.920002 
L 503.065468 25.920001 
L 504.538205 25.920001 
L 505.989751 25.92 
L 507.420706 25.92 
L 508.831648 25.92 
L 510.223128 25.92 
L 511.595675 25.92 
L 512.949799 25.92 
L 514.285986 25.92 
L 515.604707 25.92 
L 516.906411 25.92 
L 518.191533 25.92 
L 519.460489 25.92 
L 520.713681 25.92 
L 521.951497 25.92 
L 523.174308 25.92 
L 524.382474 25.92 
L 525.576343 25.92 
L 526.756247 25.92 
L 527.922511 25.92 
L 529.075445 25.92 
L 530.215352 25.92 
L 531.342523 25.92 
L 532.457238 25.92 
L 533.55977 25.92 
L 534.650382 25.92 
L 535.72933 25.92 
L 536.796861 25.92 
L 537.853213 25.92 
L 538.898618 25.92 
L 539.933301 25.92 
L 540.957479 25.92 
L 541.971364 25.92 
" clip-path="url(#pd300f6cbde)" style="fill: none; stroke-dasharray: 1,1.65; stroke-dashoffset: 0; stroke: #008000"/>
    <g clip-path="url(#pd300f6cbde)">
     <use xlink:href="#m85e63e117c" x="77.398636" y="93.02385" style="fill: #008000; stroke: #008000; stroke-linejoin: miter"/>
     <use xlink:href="#m85e63e117c" x="147.323799" y="57.311443" style="fill: #008000; stroke: #008000; stroke-linejoin: miter"/>
     <use xlink:href="#m85e63e117c" x="239.759837" y="36.790276" style="fill: #008000; stroke: #008000; stroke-linejoin: miter"/>
     <use xlink:href="#m85e63e117c" x="309.685" y="30.569292" style="fill: #008000; stroke: #008000; stroke-linejoin: miter"/>
     <use xlink:href="#m85e63e117c" x="379.610163" y="26.780887" style="fill: #008000; stroke: #008000; stroke-linejoin: miter"/>
     <use xlink:href="#m85e63e117c" x="472.046201" y="25.920969" style="fill: #008000; stroke: #008000; stroke-linejoin: miter"/>
     <use xlink:href="#m85e63e117c" x="541.971364" y="25.92" style="fill: #008000; stroke: #008000; stroke-linejoin: miter"/>
    </g>
   </g>
   <g id="patch_3">
    <path d="M 54.17 317.92 
L 54.17 25.92 
" style="fill: none; stroke: #000000; stroke-width: 0.8; stroke-linejoin: miter; stroke-linecap: square"/>
   </g>
   <g id="patch_4">
    <path d="M 565.2 317.92 
L 565.2 25.92 
" style="fill: none; stroke: #000000; stroke-width: 0.8; stroke-linejoin: miter; stroke-linecap: square"/>
   </g>
   <g id="patch_5">
    <path d="M 54.17 317.92 
L 565.2 317.92 
" style="fill: none; stroke: #000000; stroke-width: 0.8; stroke-linejoin: miter; stroke-linecap: square"/>
   </g>
   <g id="patch_6">
    <path d="M 54.17 25.92 
L 565.2 25.92 
" style="fill: none; stroke: #000000; stroke-width: 0.8; stroke-linejoin: miter; stroke-linecap: square"/>
   </g>
   <g id="text_15">
    <!-- deepseek-coder-7b-instruct-v1.5 - D-pass@k -->
    <g transform="translate(176.080937 19.92) scale(0.12 -0.12)">
     <defs>
      <path id="DejaVuSans-64" d="M 2906 2969 
L 2906 4863 
L 3481 4863 
L 3481 0 
L 2906 0 
L 2906 525 
Q 2725 213 2448 61 
Q 2172 -91 1784 -91 
Q 1150 -91 751 415 
Q 353 922 353 1747 
Q 353 2572 751 3078 
Q 1150 3584 1784 3584 
Q 2172 3584 2448 3432 
Q 2725 3281 2906 2969 
z
M 947 1747 
Q 947 1113 1208 752 
Q 1469 391 1925 391 
Q 2381 391 2643 752 
Q 2906 1113 2906 1747 
Q 2906 2381 2643 2742 
Q 2381 3103 1925 3103 
Q 1469 3103 1208 2742 
Q 947 2381 947 1747 
z
" transform="scale(0.015625)"/>
      <path id="DejaVuSans-65" d="M 3597 1894 
L 3597 1613 
L 953 1613 
Q 991 1019 1311 708 
Q 1631 397 2203 397 
Q 2534 397 2845 478 
Q 3156 559 3463 722 
L 3463 178 
Q 3153 47 2828 -22 
Q 2503 -91 2169 -91 
Q 1331 -91 842 396 
Q 353 884 353 1716 
Q 353 2575 817 3079 
Q 1281 3584 2069 3584 
Q 2775 3584 3186 3129 
Q 3597 2675 3597 1894 
z
M 3022 2063 
Q 3016 2534 2758 2815 
Q 2500 3097 2075 3097 
Q 1594 3097 1305 2825 
Q 1016 2553 972 2059 
L 3022 2063 
z
" transform="scale(0.015625)"/>
      <path id="DejaVuSans-63" d="M 3122 3366 
L 3122 2828 
Q 2878 2963 2633 3030 
Q 2388 3097 2138 3097 
Q 1578 3097 1268 2742 
Q 959 2388 959 1747 
Q 959 1106 1268 751 
Q 1578 397 2138 397 
Q 2388 397 2633 464 
Q 2878 531 3122 666 
L 3122 134 
Q 2881 22 2623 -34 
Q 2366 -91 2075 -91 
Q 1284 -91 818 406 
Q 353 903 353 1747 
Q 353 2603 823 3093 
Q 1294 3584 2113 3584 
Q 2378 3584 2631 3529 
Q 2884 3475 3122 3366 
z
" transform="scale(0.015625)"/>
      <path id="DejaVuSans-6f" d="M 1959 3097 
Q 1497 3097 1228 2736 
Q 959 2375 959 1747 
Q 959 1119 1226 758 
Q 1494 397 1959 397 
Q 2419 397 2687 759 
Q 2956 1122 2956 1747 
Q 2956 2369 2687 2733 
Q 2419 3097 1959 3097 
z
M 1959 3584 
Q 2709 3584 3137 3096 
Q 3566 2609 3566 1747 
Q 3566 888 3137 398 
Q 2709 -91 1959 -91 
Q 1206 -91 779 398 
Q 353 888 353 1747 
Q 353 2609 779 3096 
Q 1206 3584 1959 3584 
z
" transform="scale(0.015625)"/>
      <path id="DejaVuSans-72" d="M 2631 2963 
Q 2534 3019 2420 3045 
Q 2306 3072 2169 3072 
Q 1681 3072 1420 2755 
Q 1159 2438 1159 1844 
L 1159 0 
L 581 0 
L 581 3500 
L 1159 3500 
L 1159 2956 
Q 1341 3275 1631 3429 
Q 1922 3584 2338 3584 
Q 2397 3584 2469 3576 
Q 2541 3569 2628 3553 
L 2631 2963 
z
" transform="scale(0.015625)"/>
      <path id="DejaVuSans-62" d="M 3116 1747 
Q 3116 2381 2855 2742 
Q 2594 3103 2138 3103 
Q 1681 3103 1420 2742 
Q 1159 2381 1159 1747 
Q 1159 1113 1420 752 
Q 1681 391 2138 391 
Q 2594 391 2855 752 
Q 3116 1113 3116 1747 
z
M 1159 2969 
Q 1341 3281 1617 3432 
Q 1894 3584 2278 3584 
Q 2916 3584 3314 3078 
Q 3713 2572 3713 1747 
Q 3713 922 3314 415 
Q 2916 -91 2278 -91 
Q 1894 -91 1617 61 
Q 1341 213 1159 525 
L 1159 0 
L 581 0 
L 581 4863 
L 1159 4863 
L 1159 2969 
z
" transform="scale(0.015625)"/>
      <path id="DejaVuSans-69" d="M 603 3500 
L 1178 3500 
L 1178 0 
L 603 0 
L 603 3500 
z
M 603 4863 
L 1178 4863 
L 1178 4134 
L 603 4134 
L 603 4863 
z
" transform="scale(0.015625)"/>
      <path id="DejaVuSans-6e" d="M 3513 2113 
L 3513 0 
L 2938 0 
L 2938 2094 
Q 2938 2591 2744 2837 
Q 2550 3084 2163 3084 
Q 1697 3084 1428 2787 
Q 1159 2491 1159 1978 
L 1159 0 
L 581 0 
L 581 3500 
L 1159 3500 
L 1159 2956 
Q 1366 3272 1645 3428 
Q 1925 3584 2291 3584 
Q 2894 3584 3203 3211 
Q 3513 2838 3513 2113 
z
" transform="scale(0.015625)"/>
      <path id="DejaVuSans-74" d="M 1172 4494 
L 1172 3500 
L 2356 3500 
L 2356 3053 
L 1172 3053 
L 1172 1153 
Q 1172 725 1289 603 
Q 1406 481 1766 481 
L 2356 481 
L 2356 0 
L 1766 0 
Q 1100 0 847 248 
Q 594 497 594 1153 
L 594 3053 
L 172 3053 
L 172 3500 
L 594 3500 
L 594 4494 
L 1172 4494 
z
" transform="scale(0.015625)"/>
      <path id="DejaVuSans-75" d="M 544 1381 
L 544 3500 
L 1119 3500 
L 1119 1403 
Q 1119 906 1312 657 
Q 1506 409 1894 409 
Q 2359 409 2629 706 
Q 2900 1003 2900 1516 
L 2900 3500 
L 3475 3500 
L 3475 0 
L 2900 0 
L 2900 538 
Q 2691 219 2414 64 
Q 2138 -91 1772 -91 
Q 1169 -91 856 284 
Q 544 659 544 1381 
z
M 1991 3584 
L 1991 3584 
z
" transform="scale(0.015625)"/>
      <path id="DejaVuSans-76" d="M 191 3500 
L 800 3500 
L 1894 563 
L 2988 3500 
L 3597 3500 
L 2284 0 
L 1503 0 
L 191 3500 
z
" transform="scale(0.015625)"/>
      <path id="DejaVuSans-20" transform="scale(0.015625)"/>
     </defs>
     <use xlink:href="#DejaVuSans-64"/>
     <use xlink:href="#DejaVuSans-65" x="63.476562"/>
     <use xlink:href="#DejaVuSans-65" x="125"/>
     <use xlink:href="#DejaVuSans-70" x="186.523438"/>
     <use xlink:href="#DejaVuSans-73" x="250"/>
     <use xlink:href="#DejaVuSans-65" x="302.099609"/>
     <use xlink:href="#DejaVuSans-65" x="363.623047"/>
     <use xlink:href="#DejaVuSans-6b" x="425.146484"/>
     <use xlink:href="#DejaVuSans-2d" x="483.056641"/>
     <use xlink:href="#DejaVuSans-63" x="519.140625"/>
     <use xlink:href="#DejaVuSans-6f" x="574.121094"/>
     <use xlink:href="#DejaVuSans-64" x="635.302734"/>
     <use xlink:href="#DejaVuSans-65" x="698.779297"/>
     <use xlink:href="#DejaVuSans-72" x="760.302734"/>
     <use xlink:href="#DejaVuSans-2d" x="795.041016"/>
     <use xlink:href="#DejaVuSans-37" x="831.125"/>
     <use xlink:href="#DejaVuSans-62" x="894.748047"/>
     <use xlink:href="#DejaVuSans-2d" x="958.224609"/>
     <use xlink:href="#DejaVuSans-69" x="994.308594"/>
     <use xlink:href="#DejaVuSans-6e" x="1022.091797"/>
     <use xlink:href="#DejaVuSans-73" x="1085.470703"/>
     <use xlink:href="#DejaVuSans-74" x="1137.570312"/>
     <use xlink:href="#DejaVuSans-72" x="1176.779297"/>
     <use xlink:href="#DejaVuSans-75" x="1217.892578"/>
     <use xlink:href="#DejaVuSans-63" x="1281.271484"/>
     <use xlink:href="#DejaVuSans-74" x="1336.251953"/>
     <use xlink:href="#DejaVuSans-2d" x="1375.460938"/>
     <use xlink:href="#DejaVuSans-76" x="1408.919922"/>
     <use xlink:href="#DejaVuSans-31" x="1468.099609"/>
     <use xlink:href="#DejaVuSans-2e" x="1531.722656"/>
     <use xlink:href="#DejaVuSans-35" x="1563.509766"/>
     <use xlink:href="#DejaVuSans-20" x="1627.132812"/>
     <use xlink:href="#DejaVuSans-2d" x="1658.919922"/>
     <use xlink:href="#DejaVuSans-20" x="1695.003906"/>
     <use xlink:href="#DejaVuSans-44" x="1726.791016"/>
     <use xlink:href="#DejaVuSans-2d" x="1803.792969"/>
     <use xlink:href="#DejaVuSans-70" x="1839.876953"/>
     <use xlink:href="#DejaVuSans-61" x="1903.353516"/>
     <use xlink:href="#DejaVuSans-73" x="1964.632812"/>
     <use xlink:href="#DejaVuSans-73" x="2016.732422"/>
     <use xlink:href="#DejaVuSans-40" x="2068.832031"/>
     <use xlink:href="#DejaVuSans-6b" x="2168.832031"/>
    </g>
   </g>
   <g id="legend_1">
    <g id="patch_7">
     <path d="M 480.259375 312.92 
L 558.2 312.92 
Q 560.2 312.92 560.2 310.92 
L 560.2 238.529375 
Q 560.2 236.529375 558.2 236.529375 
L 480.259375 236.529375 
Q 478.259375 236.529375 478.259375 238.529375 
L 478.259375 310.92 
Q 478.259375 312.92 480.259375 312.92 
z
" style="fill: #ffffff; opacity: 0.8; stroke: #cccccc; stroke-linejoin: miter"/>
    </g>
    <g id="line2d_56">
     <path d="M 482.259375 244.627813 
L 492.259375 244.627813 
L 502.259375 244.627813 
" style="fill: none; stroke-dasharray: 3.7,1.6; stroke-dashoffset: 0; stroke: #000000"/>
    </g>
    <g id="text_16">
     <!-- CI lower -->
     <g transform="translate(510.259375 248.127813) scale(0.1 -0.1)">
      <defs>
       <path id="DejaVuSans-43" d="M 4122 4306 
L 4122 3641 
Q 3803 3938 3442 4084 
Q 3081 4231 2675 4231 
Q 1875 4231 1450 3742 
Q 1025 3253 1025 2328 
Q 1025 1406 1450 917 
Q 1875 428 2675 428 
Q 3081 428 3442 575 
Q 3803 722 4122 1019 
L 4122 359 
Q 3791 134 3420 21 
Q 3050 -91 2638 -91 
Q 1578 -91 968 557 
Q 359 1206 359 2328 
Q 359 3453 968 4101 
Q 1578 4750 2638 4750 
Q 3056 4750 3426 4639 
Q 3797 4528 4122 4306 
z
" transform="scale(0.015625)"/>
       <path id="DejaVuSans-49" d="M 628 4666 
L 1259 4666 
L 1259 0 
L 628 0 
L 628 4666 
z
" transform="scale(0.015625)"/>
       <path id="DejaVuSans-6c" d="M 603 4863 
L 1178 4863 
L 1178 0 
L 603 0 
L 603 4863 
z
" transform="scale(0.015625)"/>
       <path id="DejaVuSans-77" d="M 269 3500 
L 844 3500 
L 1563 769 
L 2278 3500 
L 2956 3500 
L 3675 769 
L 4391 3500 
L 4966 3500 
L 4050 0 
L 3372 0 
L 2619 2869 
L 1863 0 
L 1184 0 
L 269 3500 
z
" transform="scale(0.015625)"/>
      </defs>
      <use xlink:href="#DejaVuSans-43"/>
      <use xlink:href="#DejaVuSans-49" x="69.824219"/>
      <use xlink:href="#DejaVuSans-20" x="99.316406"/>
      <use xlink:href="#DejaVuSans-6c" x="131.103516"/>
      <use xlink:href="#DejaVuSans-6f" x="158.886719"/>
      <use xlink:href="#DejaVuSans-77" x="220.068359"/>
      <use xlink:href="#DejaVuSans-65" x="301.855469"/>
      <use xlink:href="#DejaVuSans-72" x="363.378906"/>
     </g>
    </g>
    <g id="line2d_57">
     <path d="M 482.259375 259.305938 
L 492.259375 259.305938 
L 502.259375 259.305938 
" style="fill: none; stroke-dasharray: 1,1.65; stroke-dashoffset: 0; stroke: #000000"/>
    </g>
    <g id="text_17">
     <!-- CI upper -->
     <g transform="translate(510.259375 262.805938) scale(0.1 -0.1)">
      <use xlink:href="#DejaVuSans-43"/>
      <use xlink:href="#DejaVuSans-49" x="69.824219"/>
      <use xlink:href="#DejaVuSans-20" x="99.316406"/>
      <use xlink:href="#DejaVuSans-75" x="131.103516"/>
      <use xlink:href="#DejaVuSans-70" x="194.482422"/>
      <use xlink:href="#DejaVuSans-70" x="257.958984"/>
      <use xlink:href="#DejaVuSans-65" x="321.435547"/>
      <use xlink:href="#DejaVuSans-72" x="382.958984"/>
     </g>
    </g>
    <g id="line2d_58">
     <path d="M 482.259375 273.984062 
L 492.259375 273.984062 
L 502.259375 273.984062 
" style="fill: none; stroke: #ffa500; stroke-width: 2; stroke-linecap: square"/>
     <g>
      <use xlink:href="#m18a03a918a" x="492.259375" y="273.984062" style="fill: #ffa500; stroke: #ffa500"/>
     </g>
    </g>
    <g id="text_18">
     <!-- baseline -->
     <g transform="translate(510.259375 277.484062) scale(0.1 -0.1)">
      <use xlink:href="#DejaVuSans-62"/>
      <use xlink:href="#DejaVuSans-61" x="63.476562"/>
      <use xlink:href="#DejaVuSans-73" x="124.755859"/>
      <use xlink:href="#DejaVuSans-65" x="176.855469"/>
      <use xlink:href="#DejaVuSans-6c" x="238.378906"/>
      <use xlink:href="#DejaVuSans-69" x="266.162109"/>
      <use xlink:href="#DejaVuSans-6e" x="293.945312"/>
      <use xlink:href="#DejaVuSans-65" x="357.324219"/>
     </g>
    </g>
    <g id="line2d_59">
     <path d="M 482.259375 288.662187 
L 492.259375 288.662187 
L 502.259375 288.662187 
" style="fill: none; stroke: #0000ff; stroke-width: 2; stroke-linecap: square"/>
     <g>
      <use xlink:href="#m66b434b3cf" x="492.259375" y="288.662187" style="fill: #0000ff; stroke: #0000ff; stroke-linejoin: miter"/>
     </g>
    </g>
    <g id="text_19">
     <!-- CoT -->
     <g transform="translate(510.259375 292.162187) scale(0.1 -0.1)">
      <defs>
       <path id="DejaVuSans-54" d="M -19 4666 
L 3928 4666 
L 3928 4134 
L 2272 4134 
L 2272 0 
L 1638 0 
L 1638 4134 
L -19 4134 
L -19 4666 
z
" transform="scale(0.015625)"/>
      </defs>
      <use xlink:href="#DejaVuSans-43"/>
      <use xlink:href="#DejaVuSans-6f" x="69.824219"/>
      <use xlink:href="#DejaVuSans-54" x="131.005859"/>
     </g>
    </g>
    <g id="line2d_60">
     <path d="M 482.259375 303.340312 
L 492.259375 303.340312 
L 502.259375 303.340312 
" style="fill: none; stroke: #008000; stroke-width: 2; stroke-linecap: square"/>
     <g>
      <use xlink:href="#m85e63e117c" x="492.259375" y="303.340312" style="fill: #008000; stroke: #008000; stroke-linejoin: miter"/>
     </g>
    </g>
    <g id="text_20">
     <!-- feedback -->
     <g transform="translate(510.259375 306.840312) scale(0.1 -0.1)">
      <defs>
       <path id="DejaVuSans-66" d="M 2375 4863 
L 2375 4384 
L 1825 4384 
Q 1516 4384 1395 4259 
Q 1275 4134 1275 3809 
L 1275 3500 
L 2222 3500 
L 2222 3053 
L 1275 3053 
L 1275 0 
L 697 0 
L 697 3053 
L 147 3053 
L 147 3500 
L 697 3500 
L 697 3744 
Q 697 4328 969 4595 
Q 1241 4863 1831 4863 
L 2375 4863 
z
" transform="scale(0.015625)"/>
      </defs>
      <use xlink:href="#DejaVuSans-66"/>
      <use xlink:href="#DejaVuSans-65" x="35.205078"/>
      <use xlink:href="#DejaVuSans-65" x="96.728516"/>
      <use xlink:href="#DejaVuSans-64" x="158.251953"/>
      <use xlink:href="#DejaVuSans-62" x="221.728516"/>
      <use xlink:href="#DejaVuSans-61" x="285.205078"/>
      <use xlink:href="#DejaVuSans-63" x="346.484375"/>
      <use xlink:href="#DejaVuSans-6b" x="401.464844"/>
     </g>
    </g>
   </g>
  </g>
 </g>
 <defs>
  <clipPath id="pd300f6cbde">
   <rect x="54.17" y="25.92" width="511.03" height="292"/>
  </clipPath>
 </defs>
</svg>
