<?xml version="1.0" encoding="utf-8" standalone="no"?>
<!DOCTYPE svg PUBLIC "-//W3C//DTD SVG 1.1//EN"
  "http://www.w3.org/Graphics/SVG/1.1/DTD/svg11.dtd">
<svg xmlns:xlink="http://www.w3.org/1999/xlink" width="576pt" height="360pt" viewBox="0 0 576 360" xmlns="http://www.w3.org/2000/svg" version="1.1">
 <metadata>
  <rdf:RDF xmlns:dc="http://purl.org/dc/elements/1.1/" xmlns:cc="http://creativecommons.org/ns#" xmlns:rdf="http://www.w3.org/1999/02/22-rdf-syntax-ns#">
   <cc:Work>
    <dc:type rdf:resource="http://purl.org/dc/dcmitype/StillImage"/>
    <dc:date>2025-12-26T06:07:43.378845</dc:date>
    <dc:format>image/svg+xml</dc:format>
    <dc:creator>
     <cc:Agent>
      <dc:title>Matplotlib v3.9.0, https://matplotlib.org/</dc:title>
     </cc:Agent>
    </dc:creator>
   </cc:Work>
  </rdf:RDF>
 </metadata>
 <defs>
  <style type="text/css">*{stroke-linejoin: round; stroke-linecap: butt}</style>
 </defs>
 <g id="figure_1">
  <g id="patch_1">
   <path d="M 0 360 
L 576 360 
L 576 0 
L 0 0 
z
" style="fill: #ffffff"/>
  </g>
  <g id="axes_1">
   <g id="patch_2">
    <path d="M 54.17 317.92 
L 565.2 317.92 
L 565.2 25.92 
L 54.17 25.92 
z
" style="fill: #ffffff"/>
   </g>
   <g id="matplotlib.axis_1">
    <g id="xtick_1">
     <g id="line2d_1">
      <path d="M 77.398636 317.92 
L 77.398636 25.92 
" clip-path="url(#pb53cf2ad2e)" style="fill: none; stroke-dasharray: 0.5,0.825; stroke-dashoffset: 0; stroke: #b0b0b0; stroke-opacity: 0.7; stroke-width: 0.5"/>
     </g>
     <g id="line2d_2">
      <defs>
       <path id="mb36f0963ce" d="M 0 0 
L 0 3.5 
" style="stroke: #000000; stroke-width: 0.8"/>
      </defs>
      <g>
       <use xlink:href="#mb36f0963ce" x="77.398636" y="317.92" style="stroke: #000000; stroke-width: 0.8"/>
      </g>
     </g>
     <g id="text_1">
      <!-- $\mathdefault{10^{0}}$ -->
      <g transform="translate(68.598636 332.518438) scale(0.1 -0.1)">
       <defs>
        <path id="DejaVuSans-31" d="M 794 531 
L 1825 531 
L 1825 4091 
L 703 3866 
L 703 4441 
L 1819 4666 
L 2450 4666 
L 2450 531 
L 3481 531 
L 3481 0 
L 794 0 
L 794 531 
z
" transform="scale(0.015625)"/>
        <path id="DejaVuSans-30" d="M 2034 4250 
Q 1547 4250 1301 3770 
Q 1056 3291 1056 2328 
Q 1056 1369 1301 889 
Q 1547 409 2034 409 
Q 2525 409 2770 889 
Q 3016 1369 3016 2328 
Q 3016 3291 2770 3770 
Q 2525 4250 2034 4250 
z
M 2034 4750 
Q 2819 4750 3233 4129 
Q 3647 3509 3647 2328 
Q 3647 1150 3233 529 
Q 2819 -91 2034 -91 
Q 1250 -91 836 529 
Q 422 1150 422 2328 
Q 422 3509 836 4129 
Q 1250 4750 2034 4750 
z
" transform="scale(0.015625)"/>
       </defs>
       <use xlink:href="#DejaVuSans-31" transform="translate(0 0.765625)"/>
       <use xlink:href="#DejaVuSans-30" transform="translate(63.623047 0.765625)"/>
       <use xlink:href="#DejaVuSans-30" transform="translate(128.203125 39.046875) scale(0.7)"/>
      </g>
     </g>
    </g>
    <g id="xtick_2">
     <g id="line2d_3">
      <path d="M 147.323799 317.92 
L 147.323799 25.92 
" clip-path="url(#pb53cf2ad2e)" style="fill: none; stroke-dasharray: 0.5,0.825; stroke-dashoffset: 0; stroke: #b0b0b0; stroke-opacity: 0.7; stroke-width: 0.5"/>
     </g>
     <g id="line2d_4">
      <g>
       <use xlink:href="#mb36f0963ce" x="147.323799" y="317.92" style="stroke: #000000; stroke-width: 0.8"/>
      </g>
     </g>
    </g>
    <g id="xtick_3">
     <g id="line2d_5">
      <path d="M 239.759837 317.92 
L 239.759837 25.92 
" clip-path="url(#pb53cf2ad2e)" style="fill: none; stroke-dasharray: 0.5,0.825; stroke-dashoffset: 0; stroke: #b0b0b0; stroke-opacity: 0.7; stroke-width: 0.5"/>
     </g>
     <g id="line2d_6">
      <g>
       <use xlink:href="#mb36f0963ce" x="239.759837" y="317.92" style="stroke: #000000; stroke-width: 0.8"/>
      </g>
     </g>
    </g>
    <g id="xtick_4">
     <g id="line2d_7">
      <path d="M 309.685 317.92 
L 309.685 25.92 
" clip-path="url(#pb53cf2ad2e)" style="fill: none; stroke-dasharray: 0.5,0.825; stroke-dashoffset: 0; stroke: #b0b0b0; stroke-opacity: 0.7; stroke-width: 0.5"/>
     </g>
     <g id="line2d_8">
      <g>
       <use xlink:href="#mb36f0963ce" x="309.685" y="317.92" style="stroke: #000000; stroke-width: 0.8"/>
      </g>
     </g>
     <g id="text_2">
      <!-- $\mathdefault{10^{1}}$ -->
      <g transform="translate(300.885 332.518438) scale(0.1 -0.1)">
       <use xlink:href="#DejaVuSans-31" transform="translate(0 0.684375)"/>
       <use xlink:href="#DejaVuSans-30" transform="translate(63.623047 0.684375)"/>
       <use xlink:href="#DejaVuSans-31" transform="translate(128.203125 38.965625) scale(0.7)"/>
      </g>
     </g>
    </g>
    <g id="xtick_5">
     <g id="line2d_9">
      <path d="M 379.610163 317.92 
L 379.610163 25.92 
" clip-path="url(#pb53cf2ad2e)" style="fill: none; stroke-dasharray: 0.5,0.825; stroke-dashoffset: 0; stroke: #b0b0b0; stroke-opacity: 0.7; stroke-width: 0.5"/>
     </g>
     <g id="line2d_10">
      <g>
       <use xlink:href="#mb36f0963ce" x="379.610163" y="317.92" style="stroke: #000000; stroke-width: 0.8"/>
      </g>
     </g>
    </g>
    <g id="xtick_6">
     <g id="line2d_11">
      <path d="M 472.046201 317.92 
L 472.046201 25.92 
" clip-path="url(#pb53cf2ad2e)" style="fill: none; stroke-dasharray: 0.5,0.825; stroke-dashoffset: 0; stroke: #b0b0b0; stroke-opacity: 0.7; stroke-width: 0.5"/>
     </g>
     <g id="line2d_12">
      <g>
       <use xlink:href="#mb36f0963ce" x="472.046201" y="317.92" style="stroke: #000000; stroke-width: 0.8"/>
      </g>
     </g>
    </g>
    <g id="xtick_7">
     <g id="line2d_13">
      <path d="M 541.971364 317.92 
L 541.971364 25.92 
" clip-path="url(#pb53cf2ad2e)" style="fill: none; stroke-dasharray: 0.5,0.825; stroke-dashoffset: 0; stroke: #b0b0b0; stroke-opacity: 0.7; stroke-width: 0.5"/>
     </g>
     <g id="line2d_14">
      <g>
       <use xlink:href="#mb36f0963ce" x="541.971364" y="317.92" style="stroke: #000000; stroke-width: 0.8"/>
      </g>
     </g>
     <g id="text_3">
      <!-- $\mathdefault{10^{2}}$ -->
      <g transform="translate(533.171364 332.518438) scale(0.1 -0.1)">
       <defs>
        <path id="DejaVuSans-32" d="M 1228 531 
L 3431 531 
L 3431 0 
L 469 0 
L 469 531 
Q 828 903 1448 1529 
Q 2069 2156 2228 2338 
Q 2531 2678 2651 2914 
Q 2772 3150 2772 3378 
Q 2772 3750 2511 3984 
Q 2250 4219 1831 4219 
Q 1534 4219 1204 4116 
Q 875 4013 500 3803 
L 500 4441 
Q 881 4594 1212 4672 
Q 1544 4750 1819 4750 
Q 2544 4750 2975 4387 
Q 3406 4025 3406 3419 
Q 3406 3131 3298 2873 
Q 3191 2616 2906 2266 
Q 2828 2175 2409 1742 
Q 1991 1309 1228 531 
z
" transform="scale(0.015625)"/>
       </defs>
       <use xlink:href="#DejaVuSans-31" transform="translate(0 0.765625)"/>
       <use xlink:href="#DejaVuSans-30" transform="translate(63.623047 0.765625)"/>
       <use xlink:href="#DejaVuSans-32" transform="translate(128.203125 39.046875) scale(0.7)"/>
      </g>
     </g>
    </g>
    <g id="xtick_8">
     <g id="line2d_15">
      <defs>
       <path id="m17149ae166" d="M 0 0 
L 0 2 
" style="stroke: #000000; stroke-width: 0.6"/>
      </defs>
      <g>
       <use xlink:href="#m17149ae166" x="54.887762" y="317.92" style="stroke: #000000; stroke-width: 0.6"/>
      </g>
     </g>
    </g>
    <g id="xtick_9">
     <g id="line2d_16">
      <g>
       <use xlink:href="#m17149ae166" x="66.769795" y="317.92" style="stroke: #000000; stroke-width: 0.6"/>
      </g>
     </g>
    </g>
    <g id="xtick_10">
     <g id="line2d_17">
      <g>
       <use xlink:href="#m17149ae166" x="188.227398" y="317.92" style="stroke: #000000; stroke-width: 0.6"/>
      </g>
     </g>
    </g>
    <g id="xtick_11">
     <g id="line2d_18">
      <g>
       <use xlink:href="#m17149ae166" x="217.248962" y="317.92" style="stroke: #000000; stroke-width: 0.6"/>
      </g>
     </g>
    </g>
    <g id="xtick_12">
     <g id="line2d_19">
      <g>
       <use xlink:href="#m17149ae166" x="258.152561" y="317.92" style="stroke: #000000; stroke-width: 0.6"/>
      </g>
     </g>
    </g>
    <g id="xtick_13">
     <g id="line2d_20">
      <g>
       <use xlink:href="#m17149ae166" x="273.703387" y="317.92" style="stroke: #000000; stroke-width: 0.6"/>
      </g>
     </g>
    </g>
    <g id="xtick_14">
     <g id="line2d_21">
      <g>
       <use xlink:href="#m17149ae166" x="287.174125" y="317.92" style="stroke: #000000; stroke-width: 0.6"/>
      </g>
     </g>
    </g>
    <g id="xtick_15">
     <g id="line2d_22">
      <g>
       <use xlink:href="#m17149ae166" x="299.056159" y="317.92" style="stroke: #000000; stroke-width: 0.6"/>
      </g>
     </g>
    </g>
    <g id="xtick_16">
     <g id="line2d_23">
      <g>
       <use xlink:href="#m17149ae166" x="420.513761" y="317.92" style="stroke: #000000; stroke-width: 0.6"/>
      </g>
     </g>
    </g>
    <g id="xtick_17">
     <g id="line2d_24">
      <g>
       <use xlink:href="#m17149ae166" x="449.535326" y="317.92" style="stroke: #000000; stroke-width: 0.6"/>
      </g>
     </g>
    </g>
    <g id="xtick_18">
     <g id="line2d_25">
      <g>
       <use xlink:href="#m17149ae166" x="490.438924" y="317.92" style="stroke: #000000; stroke-width: 0.6"/>
      </g>
     </g>
    </g>
    <g id="xtick_19">
     <g id="line2d_26">
      <g>
       <use xlink:href="#m17149ae166" x="505.989751" y="317.92" style="stroke: #000000; stroke-width: 0.6"/>
      </g>
     </g>
    </g>
    <g id="xtick_20">
     <g id="line2d_27">
      <g>
       <use xlink:href="#m17149ae166" x="519.460489" y="317.92" style="stroke: #000000; stroke-width: 0.6"/>
      </g>
     </g>
    </g>
    <g id="xtick_21">
     <g id="line2d_28">
      <g>
       <use xlink:href="#m17149ae166" x="531.342523" y="317.92" style="stroke: #000000; stroke-width: 0.6"/>
      </g>
     </g>
    </g>
    <g id="text_4">
     <!-- k -->
     <g transform="translate(306.789687 346.196562) scale(0.1 -0.1)">
      <defs>
       <path id="DejaVuSans-6b" d="M 581 4863 
L 1159 4863 
L 1159 1991 
L 2875 3500 
L 3609 3500 
L 1753 1863 
L 3688 0 
L 2938 0 
L 1159 1709 
L 1159 0 
L 581 0 
L 581 4863 
z
" transform="scale(0.015625)"/>
      </defs>
      <use xlink:href="#DejaVuSans-6b"/>
     </g>
    </g>
   </g>
   <g id="matplotlib.axis_2">
    <g id="ytick_1">
     <g id="line2d_29">
      <path d="M 54.17 317.92 
L 565.2 317.92 
" clip-path="url(#pb53cf2ad2e)" style="fill: none; stroke-dasharray: 0.5,0.825; stroke-dashoffset: 0; stroke: #b0b0b0; stroke-opacity: 0.7; stroke-width: 0.5"/>
     </g>
     <g id="line2d_30">
      <defs>
       <path id="m249b71d935" d="M 0 0 
L -3.5 0 
" style="stroke: #000000; stroke-width: 0.8"/>
      </defs>
      <g>
       <use xlink:href="#m249b71d935" x="54.17" y="317.92" style="stroke: #000000; stroke-width: 0.8"/>
      </g>
     </g>
     <g id="text_5">
      <!-- 0.60 -->
      <g transform="translate(24.904375 321.719219) scale(0.1 -0.1)">
       <defs>
        <path id="DejaVuSans-2e" d="M 684 794 
L 1344 794 
L 1344 0 
L 684 0 
L 684 794 
z
" transform="scale(0.015625)"/>
        <path id="DejaVuSans-36" d="M 2113 2584 
Q 1688 2584 1439 2293 
Q 1191 2003 1191 1497 
Q 1191 994 1439 701 
Q 1688 409 2113 409 
Q 2538 409 2786 701 
Q 3034 994 3034 1497 
Q 3034 2003 2786 2293 
Q 2538 2584 2113 2584 
z
M 3366 4563 
L 3366 3988 
Q 3128 4100 2886 4159 
Q 2644 4219 2406 4219 
Q 1781 4219 1451 3797 
Q 1122 3375 1075 2522 
Q 1259 2794 1537 2939 
Q 1816 3084 2150 3084 
Q 2853 3084 3261 2657 
Q 3669 2231 3669 1497 
Q 3669 778 3244 343 
Q 2819 -91 2113 -91 
Q 1303 -91 875 529 
Q 447 1150 447 2328 
Q 447 3434 972 4092 
Q 1497 4750 2381 4750 
Q 2619 4750 2861 4703 
Q 3103 4656 3366 4563 
z
" transform="scale(0.015625)"/>
       </defs>
       <use xlink:href="#DejaVuSans-30"/>
       <use xlink:href="#DejaVuSans-2e" x="63.623047"/>
       <use xlink:href="#DejaVuSans-36" x="95.410156"/>
       <use xlink:href="#DejaVuSans-30" x="159.033203"/>
      </g>
     </g>
    </g>
    <g id="ytick_2">
     <g id="line2d_31">
      <path d="M 54.17 281.42 
L 565.2 281.42 
" clip-path="url(#pb53cf2ad2e)" style="fill: none; stroke-dasharray: 0.5,0.825; stroke-dashoffset: 0; stroke: #b0b0b0; stroke-opacity: 0.7; stroke-width: 0.5"/>
     </g>
     <g id="line2d_32">
      <g>
       <use xlink:href="#m249b71d935" x="54.17" y="281.42" style="stroke: #000000; stroke-width: 0.8"/>
      </g>
     </g>
     <g id="text_6">
      <!-- 0.65 -->
      <g transform="translate(24.904375 285.219219) scale(0.1 -0.1)">
       <defs>
        <path id="DejaVuSans-35" d="M 691 4666 
L 3169 4666 
L 3169 4134 
L 1269 4134 
L 1269 2991 
Q 1406 3038 1543 3061 
Q 1681 3084 1819 3084 
Q 2600 3084 3056 2656 
Q 3513 2228 3513 1497 
Q 3513 744 3044 326 
Q 2575 -91 1722 -91 
Q 1428 -91 1123 -41 
Q 819 9 494 109 
L 494 744 
Q 775 591 1075 516 
Q 1375 441 1709 441 
Q 2250 441 2565 725 
Q 2881 1009 2881 1497 
Q 2881 1984 2565 2268 
Q 2250 2553 1709 2553 
Q 1456 2553 1204 2497 
Q 953 2441 691 2322 
L 691 4666 
z
" transform="scale(0.015625)"/>
       </defs>
       <use xlink:href="#DejaVuSans-30"/>
       <use xlink:href="#DejaVuSans-2e" x="63.623047"/>
       <use xlink:href="#DejaVuSans-36" x="95.410156"/>
       <use xlink:href="#DejaVuSans-35" x="159.033203"/>
      </g>
     </g>
    </g>
    <g id="ytick_3">
     <g id="line2d_33">
      <path d="M 54.17 244.92 
L 565.2 244.92 
" clip-path="url(#pb53cf2ad2e)" style="fill: none; stroke-dasharray: 0.5,0.825; stroke-dashoffset: 0; stroke: #b0b0b0; stroke-opacity: 0.7; stroke-width: 0.5"/>
     </g>
     <g id="line2d_34">
      <g>
       <use xlink:href="#m249b71d935" x="54.17" y="244.92" style="stroke: #000000; stroke-width: 0.8"/>
      </g>
     </g>
     <g id="text_7">
      <!-- 0.70 -->
      <g transform="translate(24.904375 248.719219) scale(0.1 -0.1)">
       <defs>
        <path id="DejaVuSans-37" d="M 525 4666 
L 3525 4666 
L 3525 4397 
L 1831 0 
L 1172 0 
L 2766 4134 
L 525 4134 
L 525 4666 
z
" transform="scale(0.015625)"/>
       </defs>
       <use xlink:href="#DejaVuSans-30"/>
       <use xlink:href="#DejaVuSans-2e" x="63.623047"/>
       <use xlink:href="#DejaVuSans-37" x="95.410156"/>
       <use xlink:href="#DejaVuSans-30" x="159.033203"/>
      </g>
     </g>
    </g>
    <g id="ytick_4">
     <g id="line2d_35">
      <path d="M 54.17 208.42 
L 565.2 208.42 
" clip-path="url(#pb53cf2ad2e)" style="fill: none; stroke-dasharray: 0.5,0.825; stroke-dashoffset: 0; stroke: #b0b0b0; stroke-opacity: 0.7; stroke-width: 0.5"/>
     </g>
     <g id="line2d_36">
      <g>
       <use xlink:href="#m249b71d935" x="54.17" y="208.42" style="stroke: #000000; stroke-width: 0.8"/>
      </g>
     </g>
     <g id="text_8">
      <!-- 0.75 -->
      <g transform="translate(24.904375 212.219219) scale(0.1 -0.1)">
       <use xlink:href="#DejaVuSans-30"/>
       <use xlink:href="#DejaVuSans-2e" x="63.623047"/>
       <use xlink:href="#DejaVuSans-37" x="95.410156"/>
       <use xlink:href="#DejaVuSans-35" x="159.033203"/>
      </g>
     </g>
    </g>
    <g id="ytick_5">
     <g id="line2d_37">
      <path d="M 54.17 171.92 
L 565.2 171.92 
" clip-path="url(#pb53cf2ad2e)" style="fill: none; stroke-dasharray: 0.5,0.825; stroke-dashoffset: 0; stroke: #b0b0b0; stroke-opacity: 0.7; stroke-width: 0.5"/>
     </g>
     <g id="line2d_38">
      <g>
       <use xlink:href="#m249b71d935" x="54.17" y="171.92" style="stroke: #000000; stroke-width: 0.8"/>
      </g>
     </g>
     <g id="text_9">
      <!-- 0.80 -->
      <g transform="translate(24.904375 175.719219) scale(0.1 -0.1)">
       <defs>
        <path id="DejaVuSans-38" d="M 2034 2216 
Q 1584 2216 1326 1975 
Q 1069 1734 1069 1313 
Q 1069 891 1326 650 
Q 1584 409 2034 409 
Q 2484 409 2743 651 
Q 3003 894 3003 1313 
Q 3003 1734 2745 1975 
Q 2488 2216 2034 2216 
z
M 1403 2484 
Q 997 2584 770 2862 
Q 544 3141 544 3541 
Q 544 4100 942 4425 
Q 1341 4750 2034 4750 
Q 2731 4750 3128 4425 
Q 3525 4100 3525 3541 
Q 3525 3141 3298 2862 
Q 3072 2584 2669 2484 
Q 3125 2378 3379 2068 
Q 3634 1759 3634 1313 
Q 3634 634 3220 271 
Q 2806 -91 2034 -91 
Q 1263 -91 848 271 
Q 434 634 434 1313 
Q 434 1759 690 2068 
Q 947 2378 1403 2484 
z
M 1172 3481 
Q 1172 3119 1398 2916 
Q 1625 2713 2034 2713 
Q 2441 2713 2670 2916 
Q 2900 3119 2900 3481 
Q 2900 3844 2670 4047 
Q 2441 4250 2034 4250 
Q 1625 4250 1398 4047 
Q 1172 3844 1172 3481 
z
" transform="scale(0.015625)"/>
       </defs>
       <use xlink:href="#DejaVuSans-30"/>
       <use xlink:href="#DejaVuSans-2e" x="63.623047"/>
       <use xlink:href="#DejaVuSans-38" x="95.410156"/>
       <use xlink:href="#DejaVuSans-30" x="159.033203"/>
      </g>
     </g>
    </g>
    <g id="ytick_6">
     <g id="line2d_39">
      <path d="M 54.17 135.42 
L 565.2 135.42 
" clip-path="url(#pb53cf2ad2e)" style="fill: none; stroke-dasharray: 0.5,0.825; stroke-dashoffset: 0; stroke: #b0b0b0; stroke-opacity: 0.7; stroke-width: 0.5"/>
     </g>
     <g id="line2d_40">
      <g>
       <use xlink:href="#m249b71d935" x="54.17" y="135.42" style="stroke: #000000; stroke-width: 0.8"/>
      </g>
     </g>
     <g id="text_10">
      <!-- 0.85 -->
      <g transform="translate(24.904375 139.219219) scale(0.1 -0.1)">
       <use xlink:href="#DejaVuSans-30"/>
       <use xlink:href="#DejaVuSans-2e" x="63.623047"/>
       <use xlink:href="#DejaVuSans-38" x="95.410156"/>
       <use xlink:href="#DejaVuSans-35" x="159.033203"/>
      </g>
     </g>
    </g>
    <g id="ytick_7">
     <g id="line2d_41">
      <path d="M 54.17 98.92 
L 565.2 98.92 
" clip-path="url(#pb53cf2ad2e)" style="fill: none; stroke-dasharray: 0.5,0.825; stroke-dashoffset: 0; stroke: #b0b0b0; stroke-opacity: 0.7; stroke-width: 0.5"/>
     </g>
     <g id="line2d_42">
      <g>
       <use xlink:href="#m249b71d935" x="54.17" y="98.92" style="stroke: #000000; stroke-width: 0.8"/>
      </g>
     </g>
     <g id="text_11">
      <!-- 0.90 -->
      <g transform="translate(24.904375 102.719219) scale(0.1 -0.1)">
       <defs>
        <path id="DejaVuSans-39" d="M 703 97 
L 703 672 
Q 941 559 1184 500 
Q 1428 441 1663 441 
Q 2288 441 2617 861 
Q 2947 1281 2994 2138 
Q 2813 1869 2534 1725 
Q 2256 1581 1919 1581 
Q 1219 1581 811 2004 
Q 403 2428 403 3163 
Q 403 3881 828 4315 
Q 1253 4750 1959 4750 
Q 2769 4750 3195 4129 
Q 3622 3509 3622 2328 
Q 3622 1225 3098 567 
Q 2575 -91 1691 -91 
Q 1453 -91 1209 -44 
Q 966 3 703 97 
z
M 1959 2075 
Q 2384 2075 2632 2365 
Q 2881 2656 2881 3163 
Q 2881 3666 2632 3958 
Q 2384 4250 1959 4250 
Q 1534 4250 1286 3958 
Q 1038 3666 1038 3163 
Q 1038 2656 1286 2365 
Q 1534 2075 1959 2075 
z
" transform="scale(0.015625)"/>
       </defs>
       <use xlink:href="#DejaVuSans-30"/>
       <use xlink:href="#DejaVuSans-2e" x="63.623047"/>
       <use xlink:href="#DejaVuSans-39" x="95.410156"/>
       <use xlink:href="#DejaVuSans-30" x="159.033203"/>
      </g>
     </g>
    </g>
    <g id="ytick_8">
     <g id="line2d_43">
      <path d="M 54.17 62.42 
L 565.2 62.42 
" clip-path="url(#pb53cf2ad2e)" style="fill: none; stroke-dasharray: 0.5,0.825; stroke-dashoffset: 0; stroke: #b0b0b0; stroke-opacity: 0.7; stroke-width: 0.5"/>
     </g>
     <g id="line2d_44">
      <g>
       <use xlink:href="#m249b71d935" x="54.17" y="62.42" style="stroke: #000000; stroke-width: 0.8"/>
      </g>
     </g>
     <g id="text_12">
      <!-- 0.95 -->
      <g transform="translate(24.904375 66.219219) scale(0.1 -0.1)">
       <use xlink:href="#DejaVuSans-30"/>
       <use xlink:href="#DejaVuSans-2e" x="63.623047"/>
       <use xlink:href="#DejaVuSans-39" x="95.410156"/>
       <use xlink:href="#DejaVuSans-35" x="159.033203"/>
      </g>
     </g>
    </g>
    <g id="ytick_9">
     <g id="line2d_45">
      <path d="M 54.17 25.92 
L 565.2 25.92 
" clip-path="url(#pb53cf2ad2e)" style="fill: none; stroke-dasharray: 0.5,0.825; stroke-dashoffset: 0; stroke: #b0b0b0; stroke-opacity: 0.7; stroke-width: 0.5"/>
     </g>
     <g id="line2d_46">
      <g>
       <use xlink:href="#m249b71d935" x="54.17" y="25.92" style="stroke: #000000; stroke-width: 0.8"/>
      </g>
     </g>
     <g id="text_13">
      <!-- 1.00 -->
      <g transform="translate(24.904375 29.719219) scale(0.1 -0.1)">
       <use xlink:href="#DejaVuSans-31"/>
       <use xlink:href="#DejaVuSans-2e" x="63.623047"/>
       <use xlink:href="#DejaVuSans-30" x="95.410156"/>
       <use xlink:href="#DejaVuSans-30" x="159.033203"/>
      </g>
     </g>
    </g>
    <g id="text_14">
     <!-- pass@k -->
     <g transform="translate(18.824687 191.262969) rotate(-90) scale(0.1 -0.1)">
      <defs>
       <path id="DejaVuSans-70" d="M 1159 525 
L 1159 -1331 
L 581 -1331 
L 581 3500 
L 1159 3500 
L 1159 2969 
Q 1341 3281 1617 3432 
Q 1894 3584 2278 3584 
Q 2916 3584 3314 3078 
Q 3713 2572 3713 1747 
Q 3713 922 3314 415 
Q 2916 -91 2278 -91 
Q 1894 -91 1617 61 
Q 1341 213 1159 525 
z
M 3116 1747 
Q 3116 2381 2855 2742 
Q 2594 3103 2138 3103 
Q 1681 3103 1420 2742 
Q 1159 2381 1159 1747 
Q 1159 1113 1420 752 
Q 1681 391 2138 391 
Q 2594 391 2855 752 
Q 3116 1113 3116 1747 
z
" transform="scale(0.015625)"/>
       <path id="DejaVuSans-61" d="M 2194 1759 
Q 1497 1759 1228 1600 
Q 959 1441 959 1056 
Q 959 750 1161 570 
Q 1363 391 1709 391 
Q 2188 391 2477 730 
Q 2766 1069 2766 1631 
L 2766 1759 
L 2194 1759 
z
M 3341 1997 
L 3341 0 
L 2766 0 
L 2766 531 
Q 2569 213 2275 61 
Q 1981 -91 1556 -91 
Q 1019 -91 701 211 
Q 384 513 384 1019 
Q 384 1609 779 1909 
Q 1175 2209 1959 2209 
L 2766 2209 
L 2766 2266 
Q 2766 2663 2505 2880 
Q 2244 3097 1772 3097 
Q 1472 3097 1187 3025 
Q 903 2953 641 2809 
L 641 3341 
Q 956 3463 1253 3523 
Q 1550 3584 1831 3584 
Q 2591 3584 2966 3190 
Q 3341 2797 3341 1997 
z
" transform="scale(0.015625)"/>
       <path id="DejaVuSans-73" d="M 2834 3397 
L 2834 2853 
Q 2591 2978 2328 3040 
Q 2066 3103 1784 3103 
Q 1356 3103 1142 2972 
Q 928 2841 928 2578 
Q 928 2378 1081 2264 
Q 1234 2150 1697 2047 
L 1894 2003 
Q 2506 1872 2764 1633 
Q 3022 1394 3022 966 
Q 3022 478 2636 193 
Q 2250 -91 1575 -91 
Q 1294 -91 989 -36 
Q 684 19 347 128 
L 347 722 
Q 666 556 975 473 
Q 1284 391 1588 391 
Q 1994 391 2212 530 
Q 2431 669 2431 922 
Q 2431 1156 2273 1281 
Q 2116 1406 1581 1522 
L 1381 1569 
Q 847 1681 609 1914 
Q 372 2147 372 2553 
Q 372 3047 722 3315 
Q 1072 3584 1716 3584 
Q 2034 3584 2315 3537 
Q 2597 3491 2834 3397 
z
" transform="scale(0.015625)"/>
       <path id="DejaVuSans-40" d="M 2381 1678 
Q 2381 1231 2603 976 
Q 2825 722 3213 722 
Q 3597 722 3817 978 
Q 4038 1234 4038 1678 
Q 4038 2116 3813 2373 
Q 3588 2631 3206 2631 
Q 2828 2631 2604 2375 
Q 2381 2119 2381 1678 
z
M 4084 744 
Q 3897 503 3655 389 
Q 3413 275 3091 275 
Q 2553 275 2217 664 
Q 1881 1053 1881 1678 
Q 1881 2303 2218 2693 
Q 2556 3084 3091 3084 
Q 3413 3084 3656 2967 
Q 3900 2850 4084 2613 
L 4084 3022 
L 4531 3022 
L 4531 722 
Q 4988 791 5245 1139 
Q 5503 1488 5503 2041 
Q 5503 2375 5404 2669 
Q 5306 2963 5106 3213 
Q 4781 3622 4314 3839 
Q 3847 4056 3297 4056 
Q 2913 4056 2559 3954 
Q 2206 3853 1906 3653 
Q 1416 3334 1139 2817 
Q 863 2300 863 1697 
Q 863 1200 1042 765 
Q 1222 331 1563 0 
Q 1891 -325 2322 -495 
Q 2753 -666 3244 -666 
Q 3647 -666 4036 -530 
Q 4425 -394 4750 -141 
L 5031 -488 
Q 4641 -791 4180 -952 
Q 3719 -1113 3244 -1113 
Q 2666 -1113 2153 -908 
Q 1641 -703 1241 -313 
Q 841 78 631 592 
Q 422 1106 422 1697 
Q 422 2266 634 2781 
Q 847 3297 1241 3688 
Q 1644 4084 2172 4295 
Q 2700 4506 3291 4506 
Q 3953 4506 4520 4234 
Q 5088 3963 5472 3463 
Q 5706 3156 5829 2797 
Q 5953 2438 5953 2053 
Q 5953 1231 5456 756 
Q 4959 281 4084 263 
L 4084 744 
z
" transform="scale(0.015625)"/>
      </defs>
      <use xlink:href="#DejaVuSans-70"/>
      <use xlink:href="#DejaVuSans-61" x="63.476562"/>
      <use xlink:href="#DejaVuSans-73" x="124.755859"/>
      <use xlink:href="#DejaVuSans-73" x="176.855469"/>
      <use xlink:href="#DejaVuSans-40" x="228.955078"/>
      <use xlink:href="#DejaVuSans-6b" x="328.955078"/>
     </g>
    </g>
   </g>
   <g id="line2d_47">
    <path d="M 77.398636 256.113333 
L 147.323799 199.605926 
L 188.227398 177.454216 
L 217.248962 165.398433 
L 239.759837 157.306889 
L 258.152561 151.179324 
L 273.703387 146.204588 
L 287.174125 141.994653 
L 299.056159 138.33907 
L 309.685 135.110881 
L 319.299956 132.225898 
L 328.077724 129.623724 
L 336.152487 127.258428 
L 343.62855 125.093693 
L 350.588598 123.100116 
L 357.099289 121.253554 
L 363.215142 119.534029 
L 368.981322 117.924931 
L 374.43566 116.412408 
L 379.610163 114.984882 
L 384.532148 113.632653 
L 389.225119 112.347582 
L 393.709444 111.122812 
L 398.002887 109.952558 
L 402.121038 108.831916 
L 406.07765 107.756713 
L 409.88492 106.72338 
L 413.553713 105.72885 
L 417.093749 104.770469 
L 420.513761 103.845926 
L 423.821621 102.953195 
L 427.024452 102.090486 
L 430.128718 101.256205 
L 433.140305 100.448921 
L 436.064588 99.667339 
L 438.906485 98.91028 
L 441.670512 98.176659 
L 444.360823 97.465473 
L 446.981248 96.77579 
L 449.535326 96.106734 
L 452.026334 95.457482 
L 454.457311 94.827254 
L 456.831084 94.21531 
L 459.150282 93.620944 
L 461.41736 93.043479 
L 463.634607 92.482269 
L 465.804167 91.936689 
L 467.92805 91.40614 
L 470.008138 90.890044 
L 472.046201 90.387841 
L 474.043903 89.898993 
L 476.002813 89.422977 
L 477.924408 88.959288 
L 479.810083 88.507438 
L 481.661157 88.066953 
L 483.478876 87.637375 
L 485.264422 87.21826 
L 487.018913 86.809178 
L 488.743411 86.409713 
L 490.438924 86.019462 
L 492.106412 85.638034 
L 493.746784 85.265052 
L 495.36091 84.900149 
L 496.949615 84.542972 
L 498.513688 84.193177 
L 500.053881 83.850433 
L 501.570912 83.514418 
L 503.065468 83.184822 
L 504.538205 82.861344 
L 505.989751 82.543692 
L 507.420706 82.231586 
L 508.831648 81.924752 
L 510.223128 81.622926 
L 511.595675 81.325853 
L 512.949799 81.033286 
L 514.285986 80.744985 
L 515.604707 80.460717 
L 516.906411 80.180257 
L 518.191533 79.903388 
L 519.460489 79.629897 
L 520.713681 79.359578 
L 521.951497 79.092231 
L 523.174308 78.827663 
L 524.382474 78.565683 
L 525.576343 78.306108 
L 526.756247 78.048757 
L 527.922511 77.793455 
L 529.075445 77.540029 
L 530.215352 77.288313 
L 531.342523 77.03814 
L 532.457238 76.789348 
L 533.55977 76.541779 
L 534.650382 76.295274 
L 535.72933 76.049678 
L 536.796861 75.804839 
L 537.853213 75.560602 
L 538.898618 75.316817 
L 539.933301 75.073333 
L 540.957479 74.83 
L 541.971364 74.586667 
" clip-path="url(#pb53cf2ad2e)" style="fill: none; stroke: #ffa500; stroke-width: 2; stroke-linecap: square"/>
    <defs>
     <path id="meb8e9d4dd4" d="M 0 1.25 
C 0.331504 1.25 0.649475 1.118292 0.883883 0.883883 
C 1.118292 0.649475 1.25 0.331504 1.25 0 
C 1.25 -0.331504 1.118292 -0.649475 0.883883 -0.883883 
C 0.649475 -1.118292 0.331504 -1.25 0 -1.25 
C -0.331504 -1.25 -0.649475 -1.118292 -0.883883 -0.883883 
C -1.118292 -0.649475 -1.25 -0.331504 -1.25 0 
C -1.25 0.331504 -1.118292 0.649475 -0.883883 0.883883 
C -0.649475 1.118292 -0.331504 1.25 0 1.25 
z
" style="stroke: #ffa500"/>
    </defs>
    <g clip-path="url(#pb53cf2ad2e)">
     <use xlink:href="#meb8e9d4dd4" x="77.398636" y="256.113333" style="fill: #ffa500; stroke: #ffa500"/>
     <use xlink:href="#meb8e9d4dd4" x="147.323799" y="199.605926" style="fill: #ffa500; stroke: #ffa500"/>
     <use xlink:href="#meb8e9d4dd4" x="239.759837" y="157.306889" style="fill: #ffa500; stroke: #ffa500"/>
     <use xlink:href="#meb8e9d4dd4" x="309.685" y="135.110881" style="fill: #ffa500; stroke: #ffa500"/>
     <use xlink:href="#meb8e9d4dd4" x="379.610163" y="114.984882" style="fill: #ffa500; stroke: #ffa500"/>
     <use xlink:href="#meb8e9d4dd4" x="472.046201" y="90.387841" style="fill: #ffa500; stroke: #ffa500"/>
     <use xlink:href="#meb8e9d4dd4" x="541.971364" y="74.586667" style="fill: #ffa500; stroke: #ffa500"/>
    </g>
   </g>
   <g id="line2d_48">
    <path d="M 77.398636 353.720417 
L 147.323799 298.016685 
L 188.227398 274.792285 
L 217.248962 260.580741 
L 239.759837 250.491418 
L 258.152561 245.343684 
L 273.703387 238.653438 
L 287.174125 235.96472 
L 299.056159 232.291855 
L 309.685 229.062936 
L 319.299956 223.958871 
L 328.077724 221.083729 
L 336.152487 216.867738 
L 343.62855 215.878953 
L 350.588598 213.016126 
L 357.099289 209.884378 
L 363.215142 206.889195 
L 368.981322 206.068236 
L 374.43566 204.857616 
L 379.610163 202.198916 
L 384.532148 199.600022 
L 389.225119 197.056676 
L 393.709444 194.572478 
L 398.002887 192.284098 
L 402.121038 190.481595 
L 406.07765 189.188104 
L 409.88492 187.994484 
L 413.553713 187.168525 
L 417.093749 186.105306 
L 420.513761 184.624454 
L 423.821621 183.476134 
L 427.024452 182.864999 
L 430.128718 182.279602 
L 433.140305 181.71899 
L 436.064588 181.182258 
L 438.906485 180.618459 
L 441.670512 178.705517 
L 444.360823 177.826416 
L 446.981248 177.320382 
L 449.535326 176.81097 
L 452.026334 176.300195 
L 454.457311 175.813478 
L 456.831084 175.032636 
L 459.150282 173.740528 
L 461.41736 173.080444 
L 463.634607 172.967699 
L 465.804167 172.862575 
L 467.92805 172.764596 
L 470.008138 172.406682 
L 472.046201 171.920015 
L 474.043903 171.436875 
L 476.002813 170.946672 
L 477.924408 170.460004 
L 479.810083 169.268545 
L 481.661157 167.593703 
L 483.478876 166.49525 
L 485.264422 165.554398 
L 487.018913 164.799665 
L 488.743411 164.068996 
L 490.438924 163.361803 
L 492.106412 162.6775 
L 493.746784 162.0155 
L 495.36091 161.375214 
L 496.949615 160.756057 
L 498.513688 160.157441 
L 500.053881 159.578779 
L 501.570912 159.019485 
L 503.065468 158.478971 
L 504.538205 157.956651 
L 505.989751 157.451937 
L 507.420706 156.964244 
L 508.831648 156.492983 
L 510.223128 156.037568 
L 511.595675 155.597412 
L 512.949799 155.171929 
L 514.285986 154.760531 
L 515.604707 154.362631 
L 516.906411 153.977643 
L 518.191533 153.604979 
L 519.460489 153.244054 
L 520.713681 152.894279 
L 521.951497 152.555068 
L 523.174308 152.225835 
L 524.382474 151.905991 
L 525.576343 151.594951 
L 526.756247 151.292128 
L 527.922511 150.996934 
L 529.075445 150.708782 
L 530.215352 150.427087 
L 531.342523 150.15126 
L 532.457238 149.880715 
L 533.55977 149.614866 
L 534.650382 149.353124 
L 535.72933 149.094904 
L 536.796861 148.839619 
L 537.853213 148.586681 
L 538.898618 148.335504 
L 539.933301 148.0855 
L 540.957479 147.836083 
L 541.971364 147.586667 
" clip-path="url(#pb53cf2ad2e)" style="fill: none; stroke-dasharray: 3.7,1.6; stroke-dashoffset: 0; stroke: #ffa500"/>
    <g clip-path="url(#pb53cf2ad2e)">
     <use xlink:href="#meb8e9d4dd4" x="77.398636" y="353.720417" style="fill: #ffa500; stroke: #ffa500"/>
     <use xlink:href="#meb8e9d4dd4" x="147.323799" y="298.016685" style="fill: #ffa500; stroke: #ffa500"/>
     <use xlink:href="#meb8e9d4dd4" x="239.759837" y="250.491418" style="fill: #ffa500; stroke: #ffa500"/>
     <use xlink:href="#meb8e9d4dd4" x="309.685" y="229.062936" style="fill: #ffa500; stroke: #ffa500"/>
     <use xlink:href="#meb8e9d4dd4" x="379.610163" y="202.198916" style="fill: #ffa500; stroke: #ffa500"/>
     <use xlink:href="#meb8e9d4dd4" x="472.046201" y="171.920015" style="fill: #ffa500; stroke: #ffa500"/>
     <use xlink:href="#meb8e9d4dd4" x="541.971364" y="147.586667" style="fill: #ffa500; stroke: #ffa500"/>
    </g>
   </g>
   <g id="line2d_49">
    <path d="M 77.398636 164.845083 
L 147.323799 107.809409 
L 188.227398 88.294693 
L 217.248962 79.611226 
L 239.759837 74.999162 
L 258.152561 72.685609 
L 273.703387 68.928379 
L 287.174125 66.192693 
L 299.056159 64.23399 
L 309.685 61.256873 
L 319.299956 58.507316 
L 328.077724 56.209471 
L 336.152487 54.292195 
L 343.62855 52.616882 
L 350.588598 51.525229 
L 357.099289 51.203656 
L 363.215142 50.271716 
L 368.981322 49.006256 
L 374.43566 47.817562 
L 379.610163 46.850806 
L 384.532148 46.299454 
L 389.225119 45.828984 
L 393.709444 45.394815 
L 398.002887 45.001695 
L 402.121038 44.638982 
L 406.07765 44.299421 
L 409.88492 43.978723 
L 413.553713 43.673357 
L 417.093749 43.055448 
L 420.513761 42.0722 
L 423.821621 41.139244 
L 427.024452 40.25365 
L 430.128718 39.412806 
L 433.140305 38.614363 
L 436.064588 37.856187 
L 438.906485 37.136322 
L 441.670512 36.452963 
L 444.360823 35.804428 
L 446.981248 35.189146 
L 449.535326 34.605633 
L 452.026334 34.05249 
L 454.457311 33.528384 
L 456.831084 33.032047 
L 459.150282 32.562266 
L 461.41736 32.117879 
L 463.634607 31.697771 
L 465.804167 31.300871 
L 467.92805 30.926149 
L 470.008138 30.572613 
L 472.046201 30.239307 
L 474.043903 29.925311 
L 476.002813 29.629738 
L 477.924408 29.351733 
L 479.810083 29.090474 
L 481.661157 28.845166 
L 483.478876 28.615046 
L 485.264422 28.399377 
L 487.018913 28.197452 
L 488.743411 28.008589 
L 490.438924 27.832134 
L 492.106412 27.667455 
L 493.746784 27.513949 
L 495.36091 27.371034 
L 496.949615 27.238151 
L 498.513688 27.114767 
L 500.053881 27.000367 
L 501.570912 26.89446 
L 503.065468 26.796574 
L 504.538205 26.70626 
L 505.989751 26.623084 
L 507.420706 26.546635 
L 508.831648 26.476516 
L 510.223128 26.412352 
L 511.595675 26.35378 
L 512.949799 26.300458 
L 514.285986 26.252056 
L 515.604707 26.208259 
L 516.906411 26.168769 
L 518.191533 26.133298 
L 519.460489 26.101574 
L 520.713681 26.073336 
L 521.951497 26.048334 
L 523.174308 26.026329 
L 524.382474 26.007095 
L 525.576343 25.990412 
L 526.756247 25.97607 
L 527.922511 25.96387 
L 529.075445 25.953619 
L 530.215352 25.945129 
L 531.342523 25.938221 
L 532.457238 25.932722 
L 533.55977 25.928463 
L 534.650382 25.925281 
L 535.72933 25.923014 
L 536.796861 25.921505 
L 537.853213 25.920602 
L 538.898618 25.92015 
L 539.933301 25.92 
L 540.957479 25.92 
L 541.971364 25.92 
" clip-path="url(#pb53cf2ad2e)" style="fill: none; stroke-dasharray: 1,1.65; stroke-dashoffset: 0; stroke: #ffa500"/>
    <g clip-path="url(#pb53cf2ad2e)">
     <use xlink:href="#meb8e9d4dd4" x="77.398636" y="164.845083" style="fill: #ffa500; stroke: #ffa500"/>
     <use xlink:href="#meb8e9d4dd4" x="147.323799" y="107.809409" style="fill: #ffa500; stroke: #ffa500"/>
     <use xlink:href="#meb8e9d4dd4" x="239.759837" y="74.999162" style="fill: #ffa500; stroke: #ffa500"/>
     <use xlink:href="#meb8e9d4dd4" x="309.685" y="61.256873" style="fill: #ffa500; stroke: #ffa500"/>
     <use xlink:href="#meb8e9d4dd4" x="379.610163" y="46.850806" style="fill: #ffa500; stroke: #ffa500"/>
     <use xlink:href="#meb8e9d4dd4" x="472.046201" y="30.239307" style="fill: #ffa500; stroke: #ffa500"/>
     <use xlink:href="#meb8e9d4dd4" x="541.971364" y="25.92" style="fill: #ffa500; stroke: #ffa500"/>
    </g>
   </g>
   <g id="line2d_50">
    <path d="M 77.398636 250.76 
L 147.323799 188.388013 
L 188.227398 163.385877 
L 217.248962 149.965618 
L 239.759837 141.250104 
L 258.152561 134.944499 
L 273.703387 130.104165 
L 287.174125 126.254485 
L 299.056159 123.116578 
L 309.685 120.508644 
L 319.299956 118.304353 
L 328.077724 116.412355 
L 336.152487 114.764837 
L 343.62855 113.31053 
L 350.588598 112.010144 
L 357.099289 110.83327 
L 363.215142 109.756184 
L 368.981322 108.760276 
L 374.43566 107.830875 
L 379.610163 106.95638 
L 384.532148 106.127589 
L 389.225119 105.337192 
L 393.709444 104.579367 
L 398.002887 103.849477 
L 402.121038 103.143818 
L 406.07765 102.459432 
L 409.88492 101.793951 
L 413.553713 101.145477 
L 417.093749 100.512483 
L 420.513761 99.893739 
L 423.821621 99.288249 
L 427.024452 98.695202 
L 430.128718 98.113933 
L 433.140305 97.543891 
L 436.064588 96.984617 
L 438.906485 96.435723 
L 441.670512 95.896874 
L 444.360823 95.367779 
L 446.981248 94.848182 
L 449.535326 94.337851 
L 452.026334 93.836574 
L 454.457311 93.344154 
L 456.831084 92.860407 
L 459.150282 92.385156 
L 461.41736 91.918232 
L 463.634607 91.45947 
L 465.804167 91.008709 
L 467.92805 90.565792 
L 470.008138 90.130563 
L 472.046201 89.702866 
L 474.043903 89.28255 
L 476.002813 88.869462 
L 477.924408 88.463449 
L 479.810083 88.06436 
L 481.661157 87.672045 
L 483.478876 87.286352 
L 485.264422 86.90713 
L 487.018913 86.534229 
L 488.743411 86.167498 
L 490.438924 85.806787 
L 492.106412 85.451944 
L 493.746784 85.10282 
L 495.36091 84.759264 
L 496.949615 84.421126 
L 498.513688 84.088254 
L 500.053881 83.760499 
L 501.570912 83.43771 
L 503.065468 83.119736 
L 504.538205 82.806428 
L 505.989751 82.497633 
L 507.420706 82.193203 
L 508.831648 81.892987 
L 510.223128 81.596834 
L 511.595675 81.304593 
L 512.949799 81.016114 
L 514.285986 80.731247 
L 515.604707 80.449841 
L 516.906411 80.171746 
L 518.191533 79.896811 
L 519.460489 79.624886 
L 520.713681 79.355819 
L 521.951497 79.089462 
L 523.174308 78.825663 
L 524.382474 78.564271 
L 525.576343 78.305137 
L 526.756247 78.04811 
L 527.922511 77.793039 
L 529.075445 77.539773 
L 530.215352 77.288163 
L 531.342523 77.038058 
L 532.457238 76.789307 
L 533.55977 76.54176 
L 534.650382 76.295267 
L 535.72933 76.049676 
L 536.796861 75.804838 
L 537.853213 75.560602 
L 538.898618 75.316817 
L 539.933301 75.073333 
L 540.957479 74.83 
L 541.971364 74.586667 
" clip-path="url(#pb53cf2ad2e)" style="fill: none; stroke: #0000ff; stroke-width: 2; stroke-linecap: square"/>
    <defs>
     <path id="m95cd2a37b3" d="M -1.25 1.25 
L 1.25 1.25 
L 1.25 -1.25 
L -1.25 -1.25 
z
" style="stroke: #0000ff; stroke-linejoin: miter"/>
    </defs>
    <g clip-path="url(#pb53cf2ad2e)">
     <use xlink:href="#m95cd2a37b3" x="77.398636" y="250.76" style="fill: #0000ff; stroke: #0000ff; stroke-linejoin: miter"/>
     <use xlink:href="#m95cd2a37b3" x="147.323799" y="188.388013" style="fill: #0000ff; stroke: #0000ff; stroke-linejoin: miter"/>
     <use xlink:href="#m95cd2a37b3" x="239.759837" y="141.250104" style="fill: #0000ff; stroke: #0000ff; stroke-linejoin: miter"/>
     <use xlink:href="#m95cd2a37b3" x="309.685" y="120.508644" style="fill: #0000ff; stroke: #0000ff; stroke-linejoin: miter"/>
     <use xlink:href="#m95cd2a37b3" x="379.610163" y="106.95638" style="fill: #0000ff; stroke: #0000ff; stroke-linejoin: miter"/>
     <use xlink:href="#m95cd2a37b3" x="472.046201" y="89.702866" style="fill: #0000ff; stroke: #0000ff; stroke-linejoin: miter"/>
     <use xlink:href="#m95cd2a37b3" x="541.971364" y="74.586667" style="fill: #0000ff; stroke: #0000ff; stroke-linejoin: miter"/>
    </g>
   </g>
   <g id="line2d_51">
    <path d="M 77.398636 341.292167 
L 147.323799 282.045293 
L 188.227398 257.66508 
L 217.248962 242.582234 
L 239.759837 235.788892 
L 258.152561 228.09304 
L 273.703387 222.033479 
L 287.174125 218.135438 
L 299.056159 213.977243 
L 309.685 211.352219 
L 319.299956 209.016656 
L 328.077724 206.913314 
L 336.152487 204.996758 
L 343.62855 203.21515 
L 350.588598 201.544412 
L 357.099289 199.971145 
L 363.215142 198.477143 
L 368.981322 197.047902 
L 374.43566 196.572174 
L 379.610163 194.420688 
L 384.532148 192.833989 
L 389.225119 191.64886 
L 393.709444 190.476322 
L 398.002887 189.315907 
L 402.121038 188.16725 
L 406.07765 187.030052 
L 409.88492 185.904064 
L 413.553713 184.789066 
L 417.093749 183.61143 
L 420.513761 182.034762 
L 423.821621 181.193743 
L 427.024452 180.680094 
L 430.128718 180.1934 
L 433.140305 179.706713 
L 436.064588 179.220032 
L 438.906485 178.733356 
L 441.670512 178.246682 
L 444.360823 177.76001 
L 446.981248 177.273666 
L 449.535326 176.786893 
L 452.026334 176.113332 
L 454.457311 174.904066 
L 456.831084 173.711605 
L 459.150282 172.535635 
L 461.41736 171.981099 
L 463.634607 171.968849 
L 465.804167 171.956624 
L 467.92805 171.944417 
L 470.008138 171.932223 
L 472.046201 171.92 
L 474.043903 171.433333 
L 476.002813 170.946667 
L 477.924408 169.992122 
L 479.810083 168.404591 
L 481.661157 167.138376 
L 483.478876 166.333762 
L 485.264422 165.554384 
L 487.018913 164.799656 
L 488.743411 164.06899 
L 490.438924 163.3618 
L 492.106412 162.677498 
L 493.746784 162.015498 
L 495.36091 161.375213 
L 496.949615 160.756056 
L 498.513688 160.15744 
L 500.053881 159.578779 
L 501.570912 159.019485 
L 503.065468 158.478971 
L 504.538205 157.956651 
L 505.989751 157.451937 
L 507.420706 156.964244 
L 508.831648 156.492983 
L 510.223128 156.037568 
L 511.595675 155.597412 
L 512.949799 155.171929 
L 514.285986 154.760531 
L 515.604707 154.362631 
L 516.906411 153.977643 
L 518.191533 153.604979 
L 519.460489 153.244054 
L 520.713681 152.894279 
L 521.951497 152.555068 
L 523.174308 152.225835 
L 524.382474 151.905991 
L 525.576343 151.594951 
L 526.756247 151.292128 
L 527.922511 150.996934 
L 529.075445 150.708782 
L 530.215352 150.427087 
L 531.342523 150.15126 
L 532.457238 149.880715 
L 533.55977 149.614866 
L 534.650382 149.353124 
L 535.72933 149.094904 
L 536.796861 148.839619 
L 537.853213 148.586681 
L 538.898618 148.335504 
L 539.933301 148.0855 
L 540.957479 147.836083 
L 541.971364 147.586667 
" clip-path="url(#pb53cf2ad2e)" style="fill: none; stroke-dasharray: 3.7,1.6; stroke-dashoffset: 0; stroke: #0000ff"/>
    <g clip-path="url(#pb53cf2ad2e)">
     <use xlink:href="#m95cd2a37b3" x="77.398636" y="341.292167" style="fill: #0000ff; stroke: #0000ff; stroke-linejoin: miter"/>
     <use xlink:href="#m95cd2a37b3" x="147.323799" y="282.045293" style="fill: #0000ff; stroke: #0000ff; stroke-linejoin: miter"/>
     <use xlink:href="#m95cd2a37b3" x="239.759837" y="235.788892" style="fill: #0000ff; stroke: #0000ff; stroke-linejoin: miter"/>
     <use xlink:href="#m95cd2a37b3" x="309.685" y="211.352219" style="fill: #0000ff; stroke: #0000ff; stroke-linejoin: miter"/>
     <use xlink:href="#m95cd2a37b3" x="379.610163" y="194.420688" style="fill: #0000ff; stroke: #0000ff; stroke-linejoin: miter"/>
     <use xlink:href="#m95cd2a37b3" x="472.046201" y="171.92" style="fill: #0000ff; stroke: #0000ff; stroke-linejoin: miter"/>
     <use xlink:href="#m95cd2a37b3" x="541.971364" y="147.586667" style="fill: #0000ff; stroke: #0000ff; stroke-linejoin: miter"/>
    </g>
   </g>
   <g id="line2d_52">
    <path d="M 77.398636 167.771167 
L 147.323799 103.730012 
L 188.227398 80.470412 
L 217.248962 68.504997 
L 239.759837 61.307151 
L 258.152561 57.187903 
L 273.703387 54.948382 
L 287.174125 53.31327 
L 299.056159 51.853159 
L 309.685 50.907369 
L 319.299956 49.728679 
L 328.077724 48.804082 
L 336.152487 46.907179 
L 343.62855 45.283252 
L 350.588598 43.899549 
L 357.099289 42.707035 
L 363.215142 41.667682 
L 368.981322 40.751775 
L 374.43566 39.93596 
L 379.610163 39.20179 
L 384.532148 38.534643 
L 389.225119 37.922895 
L 393.709444 37.357282 
L 398.002887 36.830412 
L 402.121038 36.336378 
L 406.07765 35.870455 
L 409.88492 35.42886 
L 413.553713 35.008562 
L 417.093749 34.60713 
L 420.513761 34.222611 
L 423.821621 33.853434 
L 427.024452 33.498332 
L 430.128718 33.156277 
L 433.140305 32.826435 
L 436.064588 32.508121 
L 438.906485 32.200771 
L 441.670512 31.903914 
L 444.360823 31.617153 
L 446.981248 31.340147 
L 449.535326 31.072602 
L 452.026334 30.814256 
L 454.457311 30.564877 
L 456.831084 30.324252 
L 459.150282 30.092181 
L 461.41736 29.868482 
L 463.634607 29.652976 
L 465.804167 29.445494 
L 467.92805 29.245872 
L 470.008138 29.05395 
L 472.046201 28.869569 
L 474.043903 28.692574 
L 476.002813 28.522811 
L 477.924408 28.360126 
L 479.810083 28.204367 
L 481.661157 28.055382 
L 483.478876 27.913021 
L 485.264422 27.777132 
L 487.018913 27.647563 
L 488.743411 27.524165 
L 490.438924 27.406787 
L 492.106412 27.295278 
L 493.746784 27.189487 
L 495.36091 27.089264 
L 496.949615 26.994459 
L 498.513688 26.904921 
L 500.053881 26.820499 
L 501.570912 26.741043 
L 503.065468 26.666403 
L 504.538205 26.596428 
L 505.989751 26.530967 
L 507.420706 26.46987 
L 508.831648 26.412987 
L 510.223128 26.360167 
L 511.595675 26.31126 
L 512.949799 26.266114 
L 514.285986 26.22458 
L 515.604707 26.186508 
L 516.906411 26.151746 
L 518.191533 26.120144 
L 519.460489 26.091552 
L 520.713681 26.065819 
L 521.951497 26.042795 
L 523.174308 26.022329 
L 524.382474 26.004271 
L 525.576343 25.98847 
L 526.756247 25.974776 
L 527.922511 25.963039 
L 529.075445 25.953107 
L 530.215352 25.94483 
L 531.342523 25.938058 
L 532.457238 25.932641 
L 533.55977 25.928427 
L 534.650382 25.925267 
L 535.72933 25.92301 
L 536.796861 25.921505 
L 537.853213 25.920602 
L 538.898618 25.92015 
L 539.933301 25.92 
L 540.957479 25.92 
L 541.971364 25.92 
" clip-path="url(#pb53cf2ad2e)" style="fill: none; stroke-dasharray: 1,1.65; stroke-dashoffset: 0; stroke: #0000ff"/>
    <g clip-path="url(#pb53cf2ad2e)">
     <use xlink:href="#m95cd2a37b3" x="77.398636" y="167.771167" style="fill: #0000ff; stroke: #0000ff; stroke-linejoin: miter"/>
     <use xlink:href="#m95cd2a37b3" x="147.323799" y="103.730012" style="fill: #0000ff; stroke: #0000ff; stroke-linejoin: miter"/>
     <use xlink:href="#m95cd2a37b3" x="239.759837" y="61.307151" style="fill: #0000ff; stroke: #0000ff; stroke-linejoin: miter"/>
     <use xlink:href="#m95cd2a37b3" x="309.685" y="50.907369" style="fill: #0000ff; stroke: #0000ff; stroke-linejoin: miter"/>
     <use xlink:href="#m95cd2a37b3" x="379.610163" y="39.20179" style="fill: #0000ff; stroke: #0000ff; stroke-linejoin: miter"/>
     <use xlink:href="#m95cd2a37b3" x="472.046201" y="28.869569" style="fill: #0000ff; stroke: #0000ff; stroke-linejoin: miter"/>
     <use xlink:href="#m95cd2a37b3" x="541.971364" y="25.92" style="fill: #0000ff; stroke: #0000ff; stroke-linejoin: miter"/>
    </g>
   </g>
   <g id="line2d_53">
    <path d="M 77.398636 177.03 
L 147.323799 131.21697 
L 188.227398 113.670635 
L 217.248962 103.637138 
L 239.759837 96.584918 
L 258.152561 91.093618 
L 273.703387 86.569599 
L 287.174125 82.711658 
L 299.056159 79.348669 
L 309.685 76.37598 
L 319.299956 73.725409 
L 328.077724 71.349604 
L 336.152487 69.213504 
L 343.62855 67.289594 
L 350.588598 65.555232 
L 357.099289 63.991124 
L 363.215142 62.580433 
L 368.981322 61.30824 
L 374.43566 60.161202 
L 379.610163 59.127316 
L 384.532148 58.195754 
L 389.225119 57.356725 
L 393.709444 56.601373 
L 398.002887 55.921675 
L 402.121038 55.310368 
L 406.07765 54.760875 
L 409.88492 54.267235 
L 413.553713 53.82405 
L 417.093749 53.426432 
L 420.513761 53.069952 
L 423.821621 52.750599 
L 427.024452 52.464738 
L 430.128718 52.209081 
L 433.140305 51.980646 
L 436.064588 51.776737 
L 438.906485 51.594909 
L 441.670512 51.43295 
L 444.360823 51.288858 
L 446.981248 51.160821 
L 449.535326 51.0472 
L 452.026334 50.94651 
L 454.457311 50.857412 
L 456.831084 50.778691 
L 459.150282 50.709254 
L 461.41736 50.64811 
L 463.634607 50.594366 
L 465.804167 50.547217 
L 467.92805 50.505937 
L 470.008138 50.469872 
L 472.046201 50.438433 
L 474.043903 50.411091 
L 476.002813 50.387372 
L 477.924408 50.366848 
L 479.810083 50.349138 
L 481.661157 50.333901 
L 483.478876 50.320831 
L 485.264422 50.309657 
L 487.018913 50.300135 
L 488.743411 50.29205 
L 490.438924 50.285213 
L 492.106412 50.279453 
L 493.746784 50.274621 
L 495.36091 50.270587 
L 496.949615 50.267235 
L 498.513688 50.264464 
L 500.053881 50.262185 
L 501.570912 50.260323 
L 503.065468 50.25881 
L 504.538205 50.257589 
L 505.989751 50.256611 
L 507.420706 50.255834 
L 508.831648 50.255222 
L 510.223128 50.254743 
L 511.595675 50.254373 
L 512.949799 50.25409 
L 514.285986 50.253876 
L 515.604707 50.253716 
L 516.906411 50.253599 
L 518.191533 50.253514 
L 519.460489 50.253453 
L 520.713681 50.253411 
L 521.951497 50.253382 
L 523.174308 50.253363 
L 524.382474 50.253351 
L 525.576343 50.253343 
L 526.756247 50.253339 
L 527.922511 50.253336 
L 529.075445 50.253335 
L 530.215352 50.253334 
L 531.342523 50.253334 
L 532.457238 50.253333 
L 533.55977 50.253333 
L 534.650382 50.253333 
L 535.72933 50.253333 
L 536.796861 50.253333 
L 537.853213 50.253333 
L 538.898618 50.253333 
L 539.933301 50.253333 
L 540.957479 50.253333 
L 541.971364 50.253333 
" clip-path="url(#pb53cf2ad2e)" style="fill: none; stroke: #008000; stroke-width: 2; stroke-linecap: square"/>
    <defs>
     <path id="m60e96346bb" d="M 0 1.767767 
L 1.767767 0 
L 0 -1.767767 
L -1.767767 0 
z
" style="stroke: #008000; stroke-linejoin: miter"/>
    </defs>
    <g clip-path="url(#pb53cf2ad2e)">
     <use xlink:href="#m60e96346bb" x="77.398636" y="177.03" style="fill: #008000; stroke: #008000; stroke-linejoin: miter"/>
     <use xlink:href="#m60e96346bb" x="147.323799" y="131.21697" style="fill: #008000; stroke: #008000; stroke-linejoin: miter"/>
     <use xlink:href="#m60e96346bb" x="239.759837" y="96.584918" style="fill: #008000; stroke: #008000; stroke-linejoin: miter"/>
     <use xlink:href="#m60e96346bb" x="309.685" y="76.37598" style="fill: #008000; stroke: #008000; stroke-linejoin: miter"/>
     <use xlink:href="#m60e96346bb" x="379.610163" y="59.127316" style="fill: #008000; stroke: #008000; stroke-linejoin: miter"/>
     <use xlink:href="#m60e96346bb" x="472.046201" y="50.438433" style="fill: #008000; stroke: #008000; stroke-linejoin: miter"/>
     <use xlink:href="#m60e96346bb" x="541.971364" y="50.253333" style="fill: #008000; stroke: #008000; stroke-linejoin: miter"/>
    </g>
   </g>
   <g id="line2d_54">
    <path d="M 77.398636 265.6155 
L 147.323799 217.478759 
L 188.227398 195.22595 
L 217.248962 180.405637 
L 239.759837 169.653736 
L 258.152561 160.376334 
L 273.703387 153.6051 
L 287.174125 146.513059 
L 299.056159 140.542386 
L 309.685 135.595268 
L 319.299956 131.440347 
L 328.077724 127.273821 
L 336.152487 123.264757 
L 343.62855 121.166649 
L 350.588598 119.199577 
L 357.099289 117.399572 
L 363.215142 115.73897 
L 368.981322 113.922756 
L 374.43566 112.283126 
L 379.610163 110.804845 
L 384.532148 109.473829 
L 389.225119 108.272719 
L 393.709444 107.194197 
L 398.002887 106.227823 
L 402.121038 105.403317 
L 406.07765 104.76054 
L 409.88492 104.17638 
L 413.553713 103.64577 
L 417.093749 103.164082 
L 420.513761 102.727085 
L 423.821621 102.27593 
L 427.024452 101.871782 
L 430.128718 101.566101 
L 433.140305 101.289449 
L 436.064588 101.037984 
L 438.906485 100.809764 
L 441.670512 100.602966 
L 444.360823 100.415884 
L 446.981248 100.246925 
L 449.535326 100.0946 
L 452.026334 99.957519 
L 454.457311 99.834388 
L 456.831084 99.724003 
L 459.150282 99.625244 
L 461.41736 99.537071 
L 463.634607 99.458521 
L 465.804167 99.388702 
L 467.92805 99.32679 
L 470.008138 99.272024 
L 472.046201 99.223702 
L 474.043903 99.18118 
L 476.002813 99.143866 
L 477.924408 99.111217 
L 479.810083 99.082736 
L 481.661157 99.057971 
L 483.478876 99.036508 
L 485.264422 99.017972 
L 487.018913 99.002023 
L 488.743411 98.988352 
L 490.438924 98.976682 
L 492.106412 98.966762 
L 493.746784 98.958369 
L 495.36091 98.951301 
L 496.949615 98.945379 
L 498.513688 98.940444 
L 500.053881 98.936355 
L 501.570912 98.932988 
L 503.065468 98.930233 
L 504.538205 98.927995 
L 505.989751 98.926189 
L 507.420706 98.924745 
L 508.831648 98.9236 
L 510.223128 98.9227 
L 511.595675 98.922 
L 512.949799 98.921461 
L 514.285986 98.921052 
L 515.604707 98.920745 
L 516.906411 98.920518 
L 518.191533 98.920354 
L 519.460489 98.920236 
L 520.713681 98.920153 
L 521.951497 98.920097 
L 523.174308 98.920059 
L 524.382474 98.920035 
L 525.576343 98.92002 
L 526.756247 98.92001 
L 527.922511 98.920005 
L 529.075445 98.920002 
L 530.215352 98.920001 
L 531.342523 98.92 
L 532.457238 98.92 
L 533.55977 98.92 
L 534.650382 98.92 
L 535.72933 98.92 
L 536.796861 98.92 
L 537.853213 98.92 
L 538.898618 98.92 
L 539.933301 98.92 
L 540.957479 98.92 
L 541.971364 98.92 
" clip-path="url(#pb53cf2ad2e)" style="fill: none; stroke-dasharray: 3.7,1.6; stroke-dashoffset: 0; stroke: #008000"/>
    <g clip-path="url(#pb53cf2ad2e)">
     <use xlink:href="#m60e96346bb" x="77.398636" y="265.6155" style="fill: #008000; stroke: #008000; stroke-linejoin: miter"/>
     <use xlink:href="#m60e96346bb" x="147.323799" y="217.478759" style="fill: #008000; stroke: #008000; stroke-linejoin: miter"/>
     <use xlink:href="#m60e96346bb" x="239.759837" y="169.653736" style="fill: #008000; stroke: #008000; stroke-linejoin: miter"/>
     <use xlink:href="#m60e96346bb" x="309.685" y="135.595268" style="fill: #008000; stroke: #008000; stroke-linejoin: miter"/>
     <use xlink:href="#m60e96346bb" x="379.610163" y="110.804845" style="fill: #008000; stroke: #008000; stroke-linejoin: miter"/>
     <use xlink:href="#m60e96346bb" x="472.046201" y="99.223702" style="fill: #008000; stroke: #008000; stroke-linejoin: miter"/>
     <use xlink:href="#m60e96346bb" x="541.971364" y="98.92" style="fill: #008000; stroke: #008000; stroke-linejoin: miter"/>
    </g>
   </g>
   <g id="line2d_55">
    <path d="M 77.398636 101.061333 
L 147.323799 60.696512 
L 188.227398 50.241802 
L 217.248962 44.507713 
L 239.759837 40.856839 
L 258.152561 37.881339 
L 273.703387 35.713472 
L 287.174125 34.059605 
L 299.056159 32.75181 
L 309.685 31.683698 
L 319.299956 30.803168 
L 328.077724 30.065105 
L 336.152487 29.440067 
L 343.62855 28.90764 
L 350.588598 28.452782 
L 357.099289 28.063803 
L 363.215142 27.731229 
L 368.981322 27.447154 
L 374.43566 27.204857 
L 379.610163 26.998556 
L 384.532148 26.823248 
L 389.225119 26.674593 
L 393.709444 26.548818 
L 398.002887 26.44265 
L 402.121038 26.353247 
L 406.07765 26.27815 
L 409.88492 26.215232 
L 413.553713 26.162656 
L 417.093749 26.118843 
L 420.513761 26.082435 
L 423.821621 26.052269 
L 427.024452 26.027348 
L 430.128718 26.006826 
L 433.140305 25.989979 
L 436.064588 25.976195 
L 438.906485 25.964956 
L 441.670512 25.955825 
L 444.360823 25.948432 
L 446.981248 25.942471 
L 449.535326 25.937682 
L 452.026334 25.933851 
L 454.457311 25.930799 
L 456.831084 25.928378 
L 459.150282 25.926468 
L 461.41736 25.924966 
L 463.634607 25.923792 
L 465.804167 25.922879 
L 467.92805 25.922173 
L 470.008138 25.92163 
L 472.046201 25.921214 
L 474.043903 25.920899 
L 476.002813 25.92066 
L 477.924408 25.920481 
L 479.810083 25.920348 
L 481.661157 25.92025 
L 483.478876 25.920178 
L 485.264422 25.920125 
L 487.018913 25.920087 
L 488.743411 25.92006 
L 490.438924 25.920041 
L 492.106412 25.920028 
L 493.746784 25.920019 
L 495.36091 25.920012 
L 496.949615 25.920008 
L 498.513688 25.920005 
L 500.053881 25.920003 
L 501.570912 25.920002 
L 503.065468 25.920001 
L 504.538205 25.920001 
L 505.989751 25.92 
L 507.420706 25.92 
L 508.831648 25.92 
L 510.223128 25.92 
L 511.595675 25.92 
L 512.949799 25.92 
L 514.285986 25.92 
L 515.604707 25.92 
L 516.906411 25.92 
L 518.191533 25.92 
L 519.460489 25.92 
L 520.713681 25.92 
L 521.951497 25.92 
L 523.174308 25.92 
L 524.382474 25.92 
L 525.576343 25.92 
L 526.756247 25.92 
L 527.922511 25.92 
L 529.075445 25.92 
L 530.215352 25.92 
L 531.342523 25.92 
L 532.457238 25.92 
L 533.55977 25.92 
L 534.650382 25.92 
L 535.72933 25.92 
L 536.796861 25.92 
L 537.853213 25.92 
L 538.898618 25.92 
L 539.933301 25.92 
L 540.957479 25.92 
L 541.971364 25.92 
" clip-path="url(#pb53cf2ad2e)" style="fill: none; stroke-dasharray: 1,1.65; stroke-dashoffset: 0; stroke: #008000"/>
    <g clip-path="url(#pb53cf2ad2e)">
     <use xlink:href="#m60e96346bb" x="77.398636" y="101.061333" style="fill: #008000; stroke: #008000; stroke-linejoin: miter"/>
     <use xlink:href="#m60e96346bb" x="147.323799" y="60.696512" style="fill: #008000; stroke: #008000; stroke-linejoin: miter"/>
     <use xlink:href="#m60e96346bb" x="239.759837" y="40.856839" style="fill: #008000; stroke: #008000; stroke-linejoin: miter"/>
     <use xlink:href="#m60e96346bb" x="309.685" y="31.683698" style="fill: #008000; stroke: #008000; stroke-linejoin: miter"/>
     <use xlink:href="#m60e96346bb" x="379.610163" y="26.998556" style="fill: #008000; stroke: #008000; stroke-linejoin: miter"/>
     <use xlink:href="#m60e96346bb" x="472.046201" y="25.921214" style="fill: #008000; stroke: #008000; stroke-linejoin: miter"/>
     <use xlink:href="#m60e96346bb" x="541.971364" y="25.92" style="fill: #008000; stroke: #008000; stroke-linejoin: miter"/>
    </g>
   </g>
   <g id="patch_3">
    <path d="M 54.17 317.92 
L 54.17 25.92 
" style="fill: none; stroke: #000000; stroke-width: 0.8; stroke-linejoin: miter; stroke-linecap: square"/>
   </g>
   <g id="patch_4">
    <path d="M 565.2 317.92 
L 565.2 25.92 
" style="fill: none; stroke: #000000; stroke-width: 0.8; stroke-linejoin: miter; stroke-linecap: square"/>
   </g>
   <g id="patch_5">
    <path d="M 54.17 317.92 
L 565.2 317.92 
" style="fill: none; stroke: #000000; stroke-width: 0.8; stroke-linejoin: miter; stroke-linecap: square"/>
   </g>
   <g id="patch_6">
    <path d="M 54.17 25.92 
L 565.2 25.92 
" style="fill: none; stroke: #000000; stroke-width: 0.8; stroke-linejoin: miter; stroke-linecap: square"/>
   </g>
   <g id="text_15">
    <!-- deepseek-coder-7b-instruct-v1.5 - pass@k -->
    <g transform="translate(182.865625 19.92) scale(0.12 -0.12)">
     <defs>
      <path id="DejaVuSans-64" d="M 2906 2969 
L 2906 4863 
L 3481 4863 
L 3481 0 
L 2906 0 
L 2906 525 
Q 2725 213 2448 61 
Q 2172 -91 1784 -91 
Q 1150 -91 751 415 
Q 353 922 353 1747 
Q 353 2572 751 3078 
Q 1150 3584 1784 3584 
Q 2172 3584 2448 3432 
Q 2725 3281 2906 2969 
z
M 947 1747 
Q 947 1113 1208 752 
Q 1469 391 1925 391 
Q 2381 391 2643 752 
Q 2906 1113 2906 1747 
Q 2906 2381 2643 2742 
Q 2381 3103 1925 3103 
Q 1469 3103 1208 2742 
Q 947 2381 947 1747 
z
" transform="scale(0.015625)"/>
      <path id="DejaVuSans-65" d="M 3597 1894 
L 3597 1613 
L 953 1613 
Q 991 1019 1311 708 
Q 1631 397 2203 397 
Q 2534 397 2845 478 
Q 3156 559 3463 722 
L 3463 178 
Q 3153 47 2828 -22 
Q 2503 -91 2169 -91 
Q 1331 -91 842 396 
Q 353 884 353 1716 
Q 353 2575 817 3079 
Q 1281 3584 2069 3584 
Q 2775 3584 3186 3129 
Q 3597 2675 3597 1894 
z
M 3022 2063 
Q 3016 2534 2758 2815 
Q 2500 3097 2075 3097 
Q 1594 3097 1305 2825 
Q 1016 2553 972 2059 
L 3022 2063 
z
" transform="scale(0.015625)"/>
      <path id="DejaVuSans-2d" d="M 313 2009 
L 1997 2009 
L 1997 1497 
L 313 1497 
L 313 2009 
z
" transform="scale(0.015625)"/>
      <path id="DejaVuSans-63" d="M 3122 3366 
L 3122 2828 
Q 2878 2963 2633 3030 
Q 2388 3097 2138 3097 
Q 1578 3097 1268 2742 
Q 959 2388 959 1747 
Q 959 1106 1268 751 
Q 1578 397 2138 397 
Q 2388 397 2633 464 
Q 2878 531 3122 666 
L 3122 134 
Q 2881 22 2623 -34 
Q 2366 -91 2075 -91 
Q 1284 -91 818 406 
Q 353 903 353 1747 
Q 353 2603 823 3093 
Q 1294 3584 2113 3584 
Q 2378 3584 2631 3529 
Q 2884 3475 3122 3366 
z
" transform="scale(0.015625)"/>
      <path id="DejaVuSans-6f" d="M 1959 3097 
Q 1497 3097 1228 2736 
Q 959 2375 959 1747 
Q 959 1119 1226 758 
Q 1494 397 1959 397 
Q 2419 397 2687 759 
Q 2956 1122 2956 1747 
Q 2956 2369 2687 2733 
Q 2419 3097 1959 3097 
z
M 1959 3584 
Q 2709 3584 3137 3096 
Q 3566 2609 3566 1747 
Q 3566 888 3137 398 
Q 2709 -91 1959 -91 
Q 1206 -91 779 398 
Q 353 888 353 1747 
Q 353 2609 779 3096 
Q 1206 3584 1959 3584 
z
" transform="scale(0.015625)"/>
      <path id="DejaVuSans-72" d="M 2631 2963 
Q 2534 3019 2420 3045 
Q 2306 3072 2169 3072 
Q 1681 3072 1420 2755 
Q 1159 2438 1159 1844 
L 1159 0 
L 581 0 
L 581 3500 
L 1159 3500 
L 1159 2956 
Q 1341 3275 1631 3429 
Q 1922 3584 2338 3584 
Q 2397 3584 2469 3576 
Q 2541 3569 2628 3553 
L 2631 2963 
z
" transform="scale(0.015625)"/>
      <path id="DejaVuSans-62" d="M 3116 1747 
Q 3116 2381 2855 2742 
Q 2594 3103 2138 3103 
Q 1681 3103 1420 2742 
Q 1159 2381 1159 1747 
Q 1159 1113 1420 752 
Q 1681 391 2138 391 
Q 2594 391 2855 752 
Q 3116 1113 3116 1747 
z
M 1159 2969 
Q 1341 3281 1617 3432 
Q 1894 3584 2278 3584 
Q 2916 3584 3314 3078 
Q 3713 2572 3713 1747 
Q 3713 922 3314 415 
Q 2916 -91 2278 -91 
Q 1894 -91 1617 61 
Q 1341 213 1159 525 
L 1159 0 
L 581 0 
L 581 4863 
L 1159 4863 
L 1159 2969 
z
" transform="scale(0.015625)"/>
      <path id="DejaVuSans-69" d="M 603 3500 
L 1178 3500 
L 1178 0 
L 603 0 
L 603 3500 
z
M 603 4863 
L 1178 4863 
L 1178 4134 
L 603 4134 
L 603 4863 
z
" transform="scale(0.015625)"/>
      <path id="DejaVuSans-6e" d="M 3513 2113 
L 3513 0 
L 2938 0 
L 2938 2094 
Q 2938 2591 2744 2837 
Q 2550 3084 2163 3084 
Q 1697 3084 1428 2787 
Q 1159 2491 1159 1978 
L 1159 0 
L 581 0 
L 581 3500 
L 1159 3500 
L 1159 2956 
Q 1366 3272 1645 3428 
Q 1925 3584 2291 3584 
Q 2894 3584 3203 3211 
Q 3513 2838 3513 2113 
z
" transform="scale(0.015625)"/>
      <path id="DejaVuSans-74" d="M 1172 4494 
L 1172 3500 
L 2356 3500 
L 2356 3053 
L 1172 3053 
L 1172 1153 
Q 1172 725 1289 603 
Q 1406 481 1766 481 
L 2356 481 
L 2356 0 
L 1766 0 
Q 1100 0 847 248 
Q 594 497 594 1153 
L 594 3053 
L 172 3053 
L 172 3500 
L 594 3500 
L 594 4494 
L 1172 4494 
z
" transform="scale(0.015625)"/>
      <path id="DejaVuSans-75" d="M 544 1381 
L 544 3500 
L 1119 3500 
L 1119 1403 
Q 1119 906 1312 657 
Q 1506 409 1894 409 
Q 2359 409 2629 706 
Q 2900 1003 2900 1516 
L 2900 3500 
L 3475 3500 
L 3475 0 
L 2900 0 
L 2900 538 
Q 2691 219 2414 64 
Q 2138 -91 1772 -91 
Q 1169 -91 856 284 
Q 544 659 544 1381 
z
M 1991 3584 
L 1991 3584 
z
" transform="scale(0.015625)"/>
      <path id="DejaVuSans-76" d="M 191 3500 
L 800 3500 
L 1894 563 
L 2988 3500 
L 3597 3500 
L 2284 0 
L 1503 0 
L 191 3500 
z
" transform="scale(0.015625)"/>
      <path id="DejaVuSans-20" transform="scale(0.015625)"/>
     </defs>
     <use xlink:href="#DejaVuSans-64"/>
     <use xlink:href="#DejaVuSans-65" x="63.476562"/>
     <use xlink:href="#DejaVuSans-65" x="125"/>
     <use xlink:href="#DejaVuSans-70" x="186.523438"/>
     <use xlink:href="#DejaVuSans-73" x="250"/>
     <use xlink:href="#DejaVuSans-65" x="302.099609"/>
     <use xlink:href="#DejaVuSans-65" x="363.623047"/>
     <use xlink:href="#DejaVuSans-6b" x="425.146484"/>
     <use xlink:href="#DejaVuSans-2d" x="483.056641"/>
     <use xlink:href="#DejaVuSans-63" x="519.140625"/>
     <use xlink:href="#DejaVuSans-6f" x="574.121094"/>
     <use xlink:href="#DejaVuSans-64" x="635.302734"/>
     <use xlink:href="#DejaVuSans-65" x="698.779297"/>
     <use xlink:href="#DejaVuSans-72" x="760.302734"/>
     <use xlink:href="#DejaVuSans-2d" x="795.041016"/>
     <use xlink:href="#DejaVuSans-37" x="831.125"/>
     <use xlink:href="#DejaVuSans-62" x="894.748047"/>
     <use xlink:href="#DejaVuSans-2d" x="958.224609"/>
     <use xlink:href="#DejaVuSans-69" x="994.308594"/>
     <use xlink:href="#DejaVuSans-6e" x="1022.091797"/>
     <use xlink:href="#DejaVuSans-73" x="1085.470703"/>
     <use xlink:href="#DejaVuSans-74" x="1137.570312"/>
     <use xlink:href="#DejaVuSans-72" x="1176.779297"/>
     <use xlink:href="#DejaVuSans-75" x="1217.892578"/>
     <use xlink:href="#DejaVuSans-63" x="1281.271484"/>
     <use xlink:href="#DejaVuSans-74" x="1336.251953"/>
     <use xlink:href="#DejaVuSans-2d" x="1375.460938"/>
     <use xlink:href="#DejaVuSans-76" x="1408.919922"/>
     <use xlink:href="#DejaVuSans-31" x="1468.099609"/>
     <use xlink:href="#DejaVuSans-2e" x="1531.722656"/>
     <use xlink:href="#DejaVuSans-35" x="1563.509766"/>
     <use xlink:href="#DejaVuSans-20" x="1627.132812"/>
     <use xlink:href="#DejaVuSans-2d" x="1658.919922"/>
     <use xlink:href="#DejaVuSans-20" x="1695.003906"/>
     <use xlink:href="#DejaVuSans-70" x="1726.791016"/>
     <use xlink:href="#DejaVuSans-61" x="1790.267578"/>
     <use xlink:href="#DejaVuSans-73" x="1851.546875"/>
     <use xlink:href="#DejaVuSans-73" x="1903.646484"/>
     <use xlink:href="#DejaVuSans-40" x="1955.746094"/>
     <use xlink:href="#DejaVuSans-6b" x="2055.746094"/>
    </g>
   </g>
   <g id="legend_1">
    <g id="patch_7">
     <path d="M 480.259375 312.92 
L 558.2 312.92 
Q 560.2 312.92 560.2 310.92 
L 560.2 238.529375 
Q 560.2 236.529375 558.2 236.529375 
L 480.259375 236.529375 
Q 478.259375 236.529375 478.259375 238.529375 
L 478.259375 310.92 
Q 478.259375 312.92 480.259375 312.92 
z
" style="fill: #ffffff; opacity: 0.8; stroke: #cccccc; stroke-linejoin: miter"/>
    </g>
    <g id="line2d_56">
     <path d="M 482.259375 244.627813 
L 492.259375 244.627813 
L 502.259375 244.627813 
" style="fill: none; stroke-dasharray: 3.7,1.6; stroke-dashoffset: 0; stroke: #000000"/>
    </g>
    <g id="text_16">
     <!-- CI lower -->
     <g transform="translate(510.259375 248.127813) scale(0.1 -0.1)">
      <defs>
       <path id="DejaVuSans-43" d="M 4122 4306 
L 4122 3641 
Q 3803 3938 3442 4084 
Q 3081 4231 2675 4231 
Q 1875 4231 1450 3742 
Q 1025 3253 1025 2328 
Q 1025 1406 1450 917 
Q 1875 428 2675 428 
Q 3081 428 3442 575 
Q 3803 722 4122 1019 
L 4122 359 
Q 3791 134 3420 21 
Q 3050 -91 2638 -91 
Q 1578 -91 968 557 
Q 359 1206 359 2328 
Q 359 3453 968 4101 
Q 1578 4750 2638 4750 
Q 3056 4750 3426 4639 
Q 3797 4528 4122 4306 
z
" transform="scale(0.015625)"/>
       <path id="DejaVuSans-49" d="M 628 4666 
L 1259 4666 
L 1259 0 
L 628 0 
L 628 4666 
z
" transform="scale(0.015625)"/>
       <path id="DejaVuSans-6c" d="M 603 4863 
L 1178 4863 
L 1178 0 
L 603 0 
L 603 4863 
z
" transform="scale(0.015625)"/>
       <path id="DejaVuSans-77" d="M 269 3500 
L 844 3500 
L 1563 769 
L 2278 3500 
L 2956 3500 
L 3675 769 
L 4391 3500 
L 4966 3500 
L 4050 0 
L 3372 0 
L 2619 2869 
L 1863 0 
L 1184 0 
L 269 3500 
z
" transform="scale(0.015625)"/>
      </defs>
      <use xlink:href="#DejaVuSans-43"/>
      <use xlink:href="#DejaVuSans-49" x="69.824219"/>
      <use xlink:href="#DejaVuSans-20" x="99.316406"/>
      <use xlink:href="#DejaVuSans-6c" x="131.103516"/>
      <use xlink:href="#DejaVuSans-6f" x="158.886719"/>
      <use xlink:href="#DejaVuSans-77" x="220.068359"/>
      <use xlink:href="#DejaVuSans-65" x="301.855469"/>
      <use xlink:href="#DejaVuSans-72" x="363.378906"/>
     </g>
    </g>
    <g id="line2d_57">
     <path d="M 482.259375 259.305938 
L 492.259375 259.305938 
L 502.259375 259.305938 
" style="fill: none; stroke-dasharray: 1,1.65; stroke-dashoffset: 0; stroke: #000000"/>
    </g>
    <g id="text_17">
     <!-- CI upper -->
     <g transform="translate(510.259375 262.805938) scale(0.1 -0.1)">
      <use xlink:href="#DejaVuSans-43"/>
      <use xlink:href="#DejaVuSans-49" x="69.824219"/>
      <use xlink:href="#DejaVuSans-20" x="99.316406"/>
      <use xlink:href="#DejaVuSans-75" x="131.103516"/>
      <use xlink:href="#DejaVuSans-70" x="194.482422"/>
      <use xlink:href="#DejaVuSans-70" x="257.958984"/>
      <use xlink:href="#DejaVuSans-65" x="321.435547"/>
      <use xlink:href="#DejaVuSans-72" x="382.958984"/>
     </g>
    </g>
    <g id="line2d_58">
     <path d="M 482.259375 273.984062 
L 492.259375 273.984062 
L 502.259375 273.984062 
" style="fill: none; stroke: #ffa500; stroke-width: 2; stroke-linecap: square"/>
     <g>
      <use xlink:href="#meb8e9d4dd4" x="492.259375" y="273.984062" style="fill: #ffa500; stroke: #ffa500"/>
     </g>
    </g>
    <g id="text_18">
     <!-- baseline -->
     <g transform="translate(510.259375 277.484062) scale(0.1 -0.1)">
      <use xlink:href="#DejaVuSans-62"/>
      <use xlink:href="#DejaVuSans-61" x="63.476562"/>
      <use xlink:href="#DejaVuSans-73" x="124.755859"/>
      <use xlink:href="#DejaVuSans-65" x="176.855469"/>
      <use xlink:href="#DejaVuSans-6c" x="238.378906"/>
      <use xlink:href="#DejaVuSans-69" x="266.162109"/>
      <use xlink:href="#DejaVuSans-6e" x="293.945312"/>
      <use xlink:href="#DejaVuSans-65" x="357.324219"/>
     </g>
    </g>
    <g id="line2d_59">
     <path d="M 482.259375 288.662187 
L 492.259375 288.662187 
L 502.259375 288.662187 
" style="fill: none; stroke: #0000ff; stroke-width: 2; stroke-linecap: square"/>
     <g>
      <use xlink:href="#m95cd2a37b3" x="492.259375" y="288.662187" style="fill: #0000ff; stroke: #0000ff; stroke-linejoin: miter"/>
     </g>
    </g>
    <g id="text_19">
     <!-- CoT -->
     <g transform="translate(510.259375 292.162187) scale(0.1 -0.1)">
      <defs>
       <path id="DejaVuSans-54" d="M -19 4666 
L 3928 4666 
L 3928 4134 
L 2272 4134 
L 2272 0 
L 1638 0 
L 1638 4134 
L -19 4134 
L -19 4666 
z
" transform="scale(0.015625)"/>
      </defs>
      <use xlink:href="#DejaVuSans-43"/>
      <use xlink:href="#DejaVuSans-6f" x="69.824219"/>
      <use xlink:href="#DejaVuSans-54" x="131.005859"/>
     </g>
    </g>
    <g id="line2d_60">
     <path d="M 482.259375 303.340312 
L 492.259375 303.340312 
L 502.259375 303.340312 
" style="fill: none; stroke: #008000; stroke-width: 2; stroke-linecap: square"/>
     <g>
      <use xlink:href="#m60e96346bb" x="492.259375" y="303.340312" style="fill: #008000; stroke: #008000; stroke-linejoin: miter"/>
     </g>
    </g>
    <g id="text_20">
     <!-- feedback -->
     <g transform="translate(510.259375 306.840312) scale(0.1 -0.1)">
      <defs>
       <path id="DejaVuSans-66" d="M 2375 4863 
L 2375 4384 
L 1825 4384 
Q 1516 4384 1395 4259 
Q 1275 4134 1275 3809 
L 1275 3500 
L 2222 3500 
L 2222 3053 
L 1275 3053 
L 1275 0 
L 697 0 
L 697 3053 
L 147 3053 
L 147 3500 
L 697 3500 
L 697 3744 
Q 697 4328 969 4595 
Q 1241 4863 1831 4863 
L 2375 4863 
z
" transform="scale(0.015625)"/>
      </defs>
      <use xlink:href="#DejaVuSans-66"/>
      <use xlink:href="#DejaVuSans-65" x="35.205078"/>
      <use xlink:href="#DejaVuSans-65" x="96.728516"/>
      <use xlink:href="#DejaVuSans-64" x="158.251953"/>
      <use xlink:href="#DejaVuSans-62" x="221.728516"/>
      <use xlink:href="#DejaVuSans-61" x="285.205078"/>
      <use xlink:href="#DejaVuSans-63" x="346.484375"/>
      <use xlink:href="#DejaVuSans-6b" x="401.464844"/>
     </g>
    </g>
   </g>
  </g>
 </g>
 <defs>
  <clipPath id="pb53cf2ad2e">
   <rect x="54.17" y="25.92" width="511.03" height="292"/>
  </clipPath>
 </defs>
</svg>
