<?xml version="1.0" encoding="utf-8" standalone="no"?>
<!DOCTYPE svg PUBLIC "-//W3C//DTD SVG 1.1//EN"
  "http://www.w3.org/Graphics/SVG/1.1/DTD/svg11.dtd">
<svg xmlns:xlink="http://www.w3.org/1999/xlink" width="576pt" height="360pt" viewBox="0 0 576 360" xmlns="http://www.w3.org/2000/svg" version="1.1">
 <metadata>
  <rdf:RDF xmlns:dc="http://purl.org/dc/elements/1.1/" xmlns:cc="http://creativecommons.org/ns#" xmlns:rdf="http://www.w3.org/1999/02/22-rdf-syntax-ns#">
   <cc:Work>
    <dc:type rdf:resource="http://purl.org/dc/dcmitype/StillImage"/>
    <dc:date>2025-12-26T06:07:36.658998</dc:date>
    <dc:format>image/svg+xml</dc:format>
    <dc:creator>
     <cc:Agent>
      <dc:title>Matplotlib v3.9.0, https://matplotlib.org/</dc:title>
     </cc:Agent>
    </dc:creator>
   </cc:Work>
  </rdf:RDF>
 </metadata>
 <defs>
  <style type="text/css">*{stroke-linejoin: round; stroke-linecap: butt}</style>
 </defs>
 <g id="figure_1">
  <g id="patch_1">
   <path d="M 0 360 
L 576 360 
L 576 0 
L 0 0 
z
" style="fill: #ffffff"/>
  </g>
  <g id="axes_1">
   <g id="patch_2">
    <path d="M 54.17 317.92 
L 565.2 317.92 
L 565.2 25.92 
L 54.17 25.92 
z
" style="fill: #ffffff"/>
   </g>
   <g id="matplotlib.axis_1">
    <g id="xtick_1">
     <g id="line2d_1">
      <path d="M 77.398636 317.92 
L 77.398636 25.92 
" clip-path="url(#p17fb5bdd7d)" style="fill: none; stroke-dasharray: 0.5,0.825; stroke-dashoffset: 0; stroke: #b0b0b0; stroke-opacity: 0.7; stroke-width: 0.5"/>
     </g>
     <g id="line2d_2">
      <defs>
       <path id="ma3b92086b4" d="M 0 0 
L 0 3.5 
" style="stroke: #000000; stroke-width: 0.8"/>
      </defs>
      <g>
       <use xlink:href="#ma3b92086b4" x="77.398636" y="317.92" style="stroke: #000000; stroke-width: 0.8"/>
      </g>
     </g>
     <g id="text_1">
      <!-- $\mathdefault{10^{0}}$ -->
      <g transform="translate(68.598636 332.518438) scale(0.1 -0.1)">
       <defs>
        <path id="DejaVuSans-31" d="M 794 531 
L 1825 531 
L 1825 4091 
L 703 3866 
L 703 4441 
L 1819 4666 
L 2450 4666 
L 2450 531 
L 3481 531 
L 3481 0 
L 794 0 
L 794 531 
z
" transform="scale(0.015625)"/>
        <path id="DejaVuSans-30" d="M 2034 4250 
Q 1547 4250 1301 3770 
Q 1056 3291 1056 2328 
Q 1056 1369 1301 889 
Q 1547 409 2034 409 
Q 2525 409 2770 889 
Q 3016 1369 3016 2328 
Q 3016 3291 2770 3770 
Q 2525 4250 2034 4250 
z
M 2034 4750 
Q 2819 4750 3233 4129 
Q 3647 3509 3647 2328 
Q 3647 1150 3233 529 
Q 2819 -91 2034 -91 
Q 1250 -91 836 529 
Q 422 1150 422 2328 
Q 422 3509 836 4129 
Q 1250 4750 2034 4750 
z
" transform="scale(0.015625)"/>
       </defs>
       <use xlink:href="#DejaVuSans-31" transform="translate(0 0.765625)"/>
       <use xlink:href="#DejaVuSans-30" transform="translate(63.623047 0.765625)"/>
       <use xlink:href="#DejaVuSans-30" transform="translate(128.203125 39.046875) scale(0.7)"/>
      </g>
     </g>
    </g>
    <g id="xtick_2">
     <g id="line2d_3">
      <path d="M 147.323799 317.92 
L 147.323799 25.92 
" clip-path="url(#p17fb5bdd7d)" style="fill: none; stroke-dasharray: 0.5,0.825; stroke-dashoffset: 0; stroke: #b0b0b0; stroke-opacity: 0.7; stroke-width: 0.5"/>
     </g>
     <g id="line2d_4">
      <g>
       <use xlink:href="#ma3b92086b4" x="147.323799" y="317.92" style="stroke: #000000; stroke-width: 0.8"/>
      </g>
     </g>
    </g>
    <g id="xtick_3">
     <g id="line2d_5">
      <path d="M 239.759837 317.92 
L 239.759837 25.92 
" clip-path="url(#p17fb5bdd7d)" style="fill: none; stroke-dasharray: 0.5,0.825; stroke-dashoffset: 0; stroke: #b0b0b0; stroke-opacity: 0.7; stroke-width: 0.5"/>
     </g>
     <g id="line2d_6">
      <g>
       <use xlink:href="#ma3b92086b4" x="239.759837" y="317.92" style="stroke: #000000; stroke-width: 0.8"/>
      </g>
     </g>
    </g>
    <g id="xtick_4">
     <g id="line2d_7">
      <path d="M 309.685 317.92 
L 309.685 25.92 
" clip-path="url(#p17fb5bdd7d)" style="fill: none; stroke-dasharray: 0.5,0.825; stroke-dashoffset: 0; stroke: #b0b0b0; stroke-opacity: 0.7; stroke-width: 0.5"/>
     </g>
     <g id="line2d_8">
      <g>
       <use xlink:href="#ma3b92086b4" x="309.685" y="317.92" style="stroke: #000000; stroke-width: 0.8"/>
      </g>
     </g>
     <g id="text_2">
      <!-- $\mathdefault{10^{1}}$ -->
      <g transform="translate(300.885 332.518438) scale(0.1 -0.1)">
       <use xlink:href="#DejaVuSans-31" transform="translate(0 0.684375)"/>
       <use xlink:href="#DejaVuSans-30" transform="translate(63.623047 0.684375)"/>
       <use xlink:href="#DejaVuSans-31" transform="translate(128.203125 38.965625) scale(0.7)"/>
      </g>
     </g>
    </g>
    <g id="xtick_5">
     <g id="line2d_9">
      <path d="M 379.610163 317.92 
L 379.610163 25.92 
" clip-path="url(#p17fb5bdd7d)" style="fill: none; stroke-dasharray: 0.5,0.825; stroke-dashoffset: 0; stroke: #b0b0b0; stroke-opacity: 0.7; stroke-width: 0.5"/>
     </g>
     <g id="line2d_10">
      <g>
       <use xlink:href="#ma3b92086b4" x="379.610163" y="317.92" style="stroke: #000000; stroke-width: 0.8"/>
      </g>
     </g>
    </g>
    <g id="xtick_6">
     <g id="line2d_11">
      <path d="M 472.046201 317.92 
L 472.046201 25.92 
" clip-path="url(#p17fb5bdd7d)" style="fill: none; stroke-dasharray: 0.5,0.825; stroke-dashoffset: 0; stroke: #b0b0b0; stroke-opacity: 0.7; stroke-width: 0.5"/>
     </g>
     <g id="line2d_12">
      <g>
       <use xlink:href="#ma3b92086b4" x="472.046201" y="317.92" style="stroke: #000000; stroke-width: 0.8"/>
      </g>
     </g>
    </g>
    <g id="xtick_7">
     <g id="line2d_13">
      <path d="M 541.971364 317.92 
L 541.971364 25.92 
" clip-path="url(#p17fb5bdd7d)" style="fill: none; stroke-dasharray: 0.5,0.825; stroke-dashoffset: 0; stroke: #b0b0b0; stroke-opacity: 0.7; stroke-width: 0.5"/>
     </g>
     <g id="line2d_14">
      <g>
       <use xlink:href="#ma3b92086b4" x="541.971364" y="317.92" style="stroke: #000000; stroke-width: 0.8"/>
      </g>
     </g>
     <g id="text_3">
      <!-- $\mathdefault{10^{2}}$ -->
      <g transform="translate(533.171364 332.518438) scale(0.1 -0.1)">
       <defs>
        <path id="DejaVuSans-32" d="M 1228 531 
L 3431 531 
L 3431 0 
L 469 0 
L 469 531 
Q 828 903 1448 1529 
Q 2069 2156 2228 2338 
Q 2531 2678 2651 2914 
Q 2772 3150 2772 3378 
Q 2772 3750 2511 3984 
Q 2250 4219 1831 4219 
Q 1534 4219 1204 4116 
Q 875 4013 500 3803 
L 500 4441 
Q 881 4594 1212 4672 
Q 1544 4750 1819 4750 
Q 2544 4750 2975 4387 
Q 3406 4025 3406 3419 
Q 3406 3131 3298 2873 
Q 3191 2616 2906 2266 
Q 2828 2175 2409 1742 
Q 1991 1309 1228 531 
z
" transform="scale(0.015625)"/>
       </defs>
       <use xlink:href="#DejaVuSans-31" transform="translate(0 0.765625)"/>
       <use xlink:href="#DejaVuSans-30" transform="translate(63.623047 0.765625)"/>
       <use xlink:href="#DejaVuSans-32" transform="translate(128.203125 39.046875) scale(0.7)"/>
      </g>
     </g>
    </g>
    <g id="xtick_8">
     <g id="line2d_15">
      <defs>
       <path id="m11cb933382" d="M 0 0 
L 0 2 
" style="stroke: #000000; stroke-width: 0.6"/>
      </defs>
      <g>
       <use xlink:href="#m11cb933382" x="54.887762" y="317.92" style="stroke: #000000; stroke-width: 0.6"/>
      </g>
     </g>
    </g>
    <g id="xtick_9">
     <g id="line2d_16">
      <g>
       <use xlink:href="#m11cb933382" x="66.769795" y="317.92" style="stroke: #000000; stroke-width: 0.6"/>
      </g>
     </g>
    </g>
    <g id="xtick_10">
     <g id="line2d_17">
      <g>
       <use xlink:href="#m11cb933382" x="188.227398" y="317.92" style="stroke: #000000; stroke-width: 0.6"/>
      </g>
     </g>
    </g>
    <g id="xtick_11">
     <g id="line2d_18">
      <g>
       <use xlink:href="#m11cb933382" x="217.248962" y="317.92" style="stroke: #000000; stroke-width: 0.6"/>
      </g>
     </g>
    </g>
    <g id="xtick_12">
     <g id="line2d_19">
      <g>
       <use xlink:href="#m11cb933382" x="258.152561" y="317.92" style="stroke: #000000; stroke-width: 0.6"/>
      </g>
     </g>
    </g>
    <g id="xtick_13">
     <g id="line2d_20">
      <g>
       <use xlink:href="#m11cb933382" x="273.703387" y="317.92" style="stroke: #000000; stroke-width: 0.6"/>
      </g>
     </g>
    </g>
    <g id="xtick_14">
     <g id="line2d_21">
      <g>
       <use xlink:href="#m11cb933382" x="287.174125" y="317.92" style="stroke: #000000; stroke-width: 0.6"/>
      </g>
     </g>
    </g>
    <g id="xtick_15">
     <g id="line2d_22">
      <g>
       <use xlink:href="#m11cb933382" x="299.056159" y="317.92" style="stroke: #000000; stroke-width: 0.6"/>
      </g>
     </g>
    </g>
    <g id="xtick_16">
     <g id="line2d_23">
      <g>
       <use xlink:href="#m11cb933382" x="420.513761" y="317.92" style="stroke: #000000; stroke-width: 0.6"/>
      </g>
     </g>
    </g>
    <g id="xtick_17">
     <g id="line2d_24">
      <g>
       <use xlink:href="#m11cb933382" x="449.535326" y="317.92" style="stroke: #000000; stroke-width: 0.6"/>
      </g>
     </g>
    </g>
    <g id="xtick_18">
     <g id="line2d_25">
      <g>
       <use xlink:href="#m11cb933382" x="490.438924" y="317.92" style="stroke: #000000; stroke-width: 0.6"/>
      </g>
     </g>
    </g>
    <g id="xtick_19">
     <g id="line2d_26">
      <g>
       <use xlink:href="#m11cb933382" x="505.989751" y="317.92" style="stroke: #000000; stroke-width: 0.6"/>
      </g>
     </g>
    </g>
    <g id="xtick_20">
     <g id="line2d_27">
      <g>
       <use xlink:href="#m11cb933382" x="519.460489" y="317.92" style="stroke: #000000; stroke-width: 0.6"/>
      </g>
     </g>
    </g>
    <g id="xtick_21">
     <g id="line2d_28">
      <g>
       <use xlink:href="#m11cb933382" x="531.342523" y="317.92" style="stroke: #000000; stroke-width: 0.6"/>
      </g>
     </g>
    </g>
    <g id="text_4">
     <!-- k -->
     <g transform="translate(306.789687 346.196562) scale(0.1 -0.1)">
      <defs>
       <path id="DejaVuSans-6b" d="M 581 4863 
L 1159 4863 
L 1159 1991 
L 2875 3500 
L 3609 3500 
L 1753 1863 
L 3688 0 
L 2938 0 
L 1159 1709 
L 1159 0 
L 581 0 
L 581 4863 
z
" transform="scale(0.015625)"/>
      </defs>
      <use xlink:href="#DejaVuSans-6b"/>
     </g>
    </g>
   </g>
   <g id="matplotlib.axis_2">
    <g id="ytick_1">
     <g id="line2d_29">
      <path d="M 54.17 317.92 
L 565.2 317.92 
" clip-path="url(#p17fb5bdd7d)" style="fill: none; stroke-dasharray: 0.5,0.825; stroke-dashoffset: 0; stroke: #b0b0b0; stroke-opacity: 0.7; stroke-width: 0.5"/>
     </g>
     <g id="line2d_30">
      <defs>
       <path id="m3a5c7670b2" d="M 0 0 
L -3.5 0 
" style="stroke: #000000; stroke-width: 0.8"/>
      </defs>
      <g>
       <use xlink:href="#m3a5c7670b2" x="54.17" y="317.92" style="stroke: #000000; stroke-width: 0.8"/>
      </g>
     </g>
     <g id="text_5">
      <!-- 0.60 -->
      <g transform="translate(24.904375 321.719219) scale(0.1 -0.1)">
       <defs>
        <path id="DejaVuSans-2e" d="M 684 794 
L 1344 794 
L 1344 0 
L 684 0 
L 684 794 
z
" transform="scale(0.015625)"/>
        <path id="DejaVuSans-36" d="M 2113 2584 
Q 1688 2584 1439 2293 
Q 1191 2003 1191 1497 
Q 1191 994 1439 701 
Q 1688 409 2113 409 
Q 2538 409 2786 701 
Q 3034 994 3034 1497 
Q 3034 2003 2786 2293 
Q 2538 2584 2113 2584 
z
M 3366 4563 
L 3366 3988 
Q 3128 4100 2886 4159 
Q 2644 4219 2406 4219 
Q 1781 4219 1451 3797 
Q 1122 3375 1075 2522 
Q 1259 2794 1537 2939 
Q 1816 3084 2150 3084 
Q 2853 3084 3261 2657 
Q 3669 2231 3669 1497 
Q 3669 778 3244 343 
Q 2819 -91 2113 -91 
Q 1303 -91 875 529 
Q 447 1150 447 2328 
Q 447 3434 972 4092 
Q 1497 4750 2381 4750 
Q 2619 4750 2861 4703 
Q 3103 4656 3366 4563 
z
" transform="scale(0.015625)"/>
       </defs>
       <use xlink:href="#DejaVuSans-30"/>
       <use xlink:href="#DejaVuSans-2e" x="63.623047"/>
       <use xlink:href="#DejaVuSans-36" x="95.410156"/>
       <use xlink:href="#DejaVuSans-30" x="159.033203"/>
      </g>
     </g>
    </g>
    <g id="ytick_2">
     <g id="line2d_31">
      <path d="M 54.17 281.42 
L 565.2 281.42 
" clip-path="url(#p17fb5bdd7d)" style="fill: none; stroke-dasharray: 0.5,0.825; stroke-dashoffset: 0; stroke: #b0b0b0; stroke-opacity: 0.7; stroke-width: 0.5"/>
     </g>
     <g id="line2d_32">
      <g>
       <use xlink:href="#m3a5c7670b2" x="54.17" y="281.42" style="stroke: #000000; stroke-width: 0.8"/>
      </g>
     </g>
     <g id="text_6">
      <!-- 0.65 -->
      <g transform="translate(24.904375 285.219219) scale(0.1 -0.1)">
       <defs>
        <path id="DejaVuSans-35" d="M 691 4666 
L 3169 4666 
L 3169 4134 
L 1269 4134 
L 1269 2991 
Q 1406 3038 1543 3061 
Q 1681 3084 1819 3084 
Q 2600 3084 3056 2656 
Q 3513 2228 3513 1497 
Q 3513 744 3044 326 
Q 2575 -91 1722 -91 
Q 1428 -91 1123 -41 
Q 819 9 494 109 
L 494 744 
Q 775 591 1075 516 
Q 1375 441 1709 441 
Q 2250 441 2565 725 
Q 2881 1009 2881 1497 
Q 2881 1984 2565 2268 
Q 2250 2553 1709 2553 
Q 1456 2553 1204 2497 
Q 953 2441 691 2322 
L 691 4666 
z
" transform="scale(0.015625)"/>
       </defs>
       <use xlink:href="#DejaVuSans-30"/>
       <use xlink:href="#DejaVuSans-2e" x="63.623047"/>
       <use xlink:href="#DejaVuSans-36" x="95.410156"/>
       <use xlink:href="#DejaVuSans-35" x="159.033203"/>
      </g>
     </g>
    </g>
    <g id="ytick_3">
     <g id="line2d_33">
      <path d="M 54.17 244.92 
L 565.2 244.92 
" clip-path="url(#p17fb5bdd7d)" style="fill: none; stroke-dasharray: 0.5,0.825; stroke-dashoffset: 0; stroke: #b0b0b0; stroke-opacity: 0.7; stroke-width: 0.5"/>
     </g>
     <g id="line2d_34">
      <g>
       <use xlink:href="#m3a5c7670b2" x="54.17" y="244.92" style="stroke: #000000; stroke-width: 0.8"/>
      </g>
     </g>
     <g id="text_7">
      <!-- 0.70 -->
      <g transform="translate(24.904375 248.719219) scale(0.1 -0.1)">
       <defs>
        <path id="DejaVuSans-37" d="M 525 4666 
L 3525 4666 
L 3525 4397 
L 1831 0 
L 1172 0 
L 2766 4134 
L 525 4134 
L 525 4666 
z
" transform="scale(0.015625)"/>
       </defs>
       <use xlink:href="#DejaVuSans-30"/>
       <use xlink:href="#DejaVuSans-2e" x="63.623047"/>
       <use xlink:href="#DejaVuSans-37" x="95.410156"/>
       <use xlink:href="#DejaVuSans-30" x="159.033203"/>
      </g>
     </g>
    </g>
    <g id="ytick_4">
     <g id="line2d_35">
      <path d="M 54.17 208.42 
L 565.2 208.42 
" clip-path="url(#p17fb5bdd7d)" style="fill: none; stroke-dasharray: 0.5,0.825; stroke-dashoffset: 0; stroke: #b0b0b0; stroke-opacity: 0.7; stroke-width: 0.5"/>
     </g>
     <g id="line2d_36">
      <g>
       <use xlink:href="#m3a5c7670b2" x="54.17" y="208.42" style="stroke: #000000; stroke-width: 0.8"/>
      </g>
     </g>
     <g id="text_8">
      <!-- 0.75 -->
      <g transform="translate(24.904375 212.219219) scale(0.1 -0.1)">
       <use xlink:href="#DejaVuSans-30"/>
       <use xlink:href="#DejaVuSans-2e" x="63.623047"/>
       <use xlink:href="#DejaVuSans-37" x="95.410156"/>
       <use xlink:href="#DejaVuSans-35" x="159.033203"/>
      </g>
     </g>
    </g>
    <g id="ytick_5">
     <g id="line2d_37">
      <path d="M 54.17 171.92 
L 565.2 171.92 
" clip-path="url(#p17fb5bdd7d)" style="fill: none; stroke-dasharray: 0.5,0.825; stroke-dashoffset: 0; stroke: #b0b0b0; stroke-opacity: 0.7; stroke-width: 0.5"/>
     </g>
     <g id="line2d_38">
      <g>
       <use xlink:href="#m3a5c7670b2" x="54.17" y="171.92" style="stroke: #000000; stroke-width: 0.8"/>
      </g>
     </g>
     <g id="text_9">
      <!-- 0.80 -->
      <g transform="translate(24.904375 175.719219) scale(0.1 -0.1)">
       <defs>
        <path id="DejaVuSans-38" d="M 2034 2216 
Q 1584 2216 1326 1975 
Q 1069 1734 1069 1313 
Q 1069 891 1326 650 
Q 1584 409 2034 409 
Q 2484 409 2743 651 
Q 3003 894 3003 1313 
Q 3003 1734 2745 1975 
Q 2488 2216 2034 2216 
z
M 1403 2484 
Q 997 2584 770 2862 
Q 544 3141 544 3541 
Q 544 4100 942 4425 
Q 1341 4750 2034 4750 
Q 2731 4750 3128 4425 
Q 3525 4100 3525 3541 
Q 3525 3141 3298 2862 
Q 3072 2584 2669 2484 
Q 3125 2378 3379 2068 
Q 3634 1759 3634 1313 
Q 3634 634 3220 271 
Q 2806 -91 2034 -91 
Q 1263 -91 848 271 
Q 434 634 434 1313 
Q 434 1759 690 2068 
Q 947 2378 1403 2484 
z
M 1172 3481 
Q 1172 3119 1398 2916 
Q 1625 2713 2034 2713 
Q 2441 2713 2670 2916 
Q 2900 3119 2900 3481 
Q 2900 3844 2670 4047 
Q 2441 4250 2034 4250 
Q 1625 4250 1398 4047 
Q 1172 3844 1172 3481 
z
" transform="scale(0.015625)"/>
       </defs>
       <use xlink:href="#DejaVuSans-30"/>
       <use xlink:href="#DejaVuSans-2e" x="63.623047"/>
       <use xlink:href="#DejaVuSans-38" x="95.410156"/>
       <use xlink:href="#DejaVuSans-30" x="159.033203"/>
      </g>
     </g>
    </g>
    <g id="ytick_6">
     <g id="line2d_39">
      <path d="M 54.17 135.42 
L 565.2 135.42 
" clip-path="url(#p17fb5bdd7d)" style="fill: none; stroke-dasharray: 0.5,0.825; stroke-dashoffset: 0; stroke: #b0b0b0; stroke-opacity: 0.7; stroke-width: 0.5"/>
     </g>
     <g id="line2d_40">
      <g>
       <use xlink:href="#m3a5c7670b2" x="54.17" y="135.42" style="stroke: #000000; stroke-width: 0.8"/>
      </g>
     </g>
     <g id="text_10">
      <!-- 0.85 -->
      <g transform="translate(24.904375 139.219219) scale(0.1 -0.1)">
       <use xlink:href="#DejaVuSans-30"/>
       <use xlink:href="#DejaVuSans-2e" x="63.623047"/>
       <use xlink:href="#DejaVuSans-38" x="95.410156"/>
       <use xlink:href="#DejaVuSans-35" x="159.033203"/>
      </g>
     </g>
    </g>
    <g id="ytick_7">
     <g id="line2d_41">
      <path d="M 54.17 98.92 
L 565.2 98.92 
" clip-path="url(#p17fb5bdd7d)" style="fill: none; stroke-dasharray: 0.5,0.825; stroke-dashoffset: 0; stroke: #b0b0b0; stroke-opacity: 0.7; stroke-width: 0.5"/>
     </g>
     <g id="line2d_42">
      <g>
       <use xlink:href="#m3a5c7670b2" x="54.17" y="98.92" style="stroke: #000000; stroke-width: 0.8"/>
      </g>
     </g>
     <g id="text_11">
      <!-- 0.90 -->
      <g transform="translate(24.904375 102.719219) scale(0.1 -0.1)">
       <defs>
        <path id="DejaVuSans-39" d="M 703 97 
L 703 672 
Q 941 559 1184 500 
Q 1428 441 1663 441 
Q 2288 441 2617 861 
Q 2947 1281 2994 2138 
Q 2813 1869 2534 1725 
Q 2256 1581 1919 1581 
Q 1219 1581 811 2004 
Q 403 2428 403 3163 
Q 403 3881 828 4315 
Q 1253 4750 1959 4750 
Q 2769 4750 3195 4129 
Q 3622 3509 3622 2328 
Q 3622 1225 3098 567 
Q 2575 -91 1691 -91 
Q 1453 -91 1209 -44 
Q 966 3 703 97 
z
M 1959 2075 
Q 2384 2075 2632 2365 
Q 2881 2656 2881 3163 
Q 2881 3666 2632 3958 
Q 2384 4250 1959 4250 
Q 1534 4250 1286 3958 
Q 1038 3666 1038 3163 
Q 1038 2656 1286 2365 
Q 1534 2075 1959 2075 
z
" transform="scale(0.015625)"/>
       </defs>
       <use xlink:href="#DejaVuSans-30"/>
       <use xlink:href="#DejaVuSans-2e" x="63.623047"/>
       <use xlink:href="#DejaVuSans-39" x="95.410156"/>
       <use xlink:href="#DejaVuSans-30" x="159.033203"/>
      </g>
     </g>
    </g>
    <g id="ytick_8">
     <g id="line2d_43">
      <path d="M 54.17 62.42 
L 565.2 62.42 
" clip-path="url(#p17fb5bdd7d)" style="fill: none; stroke-dasharray: 0.5,0.825; stroke-dashoffset: 0; stroke: #b0b0b0; stroke-opacity: 0.7; stroke-width: 0.5"/>
     </g>
     <g id="line2d_44">
      <g>
       <use xlink:href="#m3a5c7670b2" x="54.17" y="62.42" style="stroke: #000000; stroke-width: 0.8"/>
      </g>
     </g>
     <g id="text_12">
      <!-- 0.95 -->
      <g transform="translate(24.904375 66.219219) scale(0.1 -0.1)">
       <use xlink:href="#DejaVuSans-30"/>
       <use xlink:href="#DejaVuSans-2e" x="63.623047"/>
       <use xlink:href="#DejaVuSans-39" x="95.410156"/>
       <use xlink:href="#DejaVuSans-35" x="159.033203"/>
      </g>
     </g>
    </g>
    <g id="ytick_9">
     <g id="line2d_45">
      <path d="M 54.17 25.92 
L 565.2 25.92 
" clip-path="url(#p17fb5bdd7d)" style="fill: none; stroke-dasharray: 0.5,0.825; stroke-dashoffset: 0; stroke: #b0b0b0; stroke-opacity: 0.7; stroke-width: 0.5"/>
     </g>
     <g id="line2d_46">
      <g>
       <use xlink:href="#m3a5c7670b2" x="54.17" y="25.92" style="stroke: #000000; stroke-width: 0.8"/>
      </g>
     </g>
     <g id="text_13">
      <!-- 1.00 -->
      <g transform="translate(24.904375 29.719219) scale(0.1 -0.1)">
       <use xlink:href="#DejaVuSans-31"/>
       <use xlink:href="#DejaVuSans-2e" x="63.623047"/>
       <use xlink:href="#DejaVuSans-30" x="95.410156"/>
       <use xlink:href="#DejaVuSans-30" x="159.033203"/>
      </g>
     </g>
    </g>
    <g id="text_14">
     <!-- pass@k -->
     <g transform="translate(18.824687 191.262969) rotate(-90) scale(0.1 -0.1)">
      <defs>
       <path id="DejaVuSans-70" d="M 1159 525 
L 1159 -1331 
L 581 -1331 
L 581 3500 
L 1159 3500 
L 1159 2969 
Q 1341 3281 1617 3432 
Q 1894 3584 2278 3584 
Q 2916 3584 3314 3078 
Q 3713 2572 3713 1747 
Q 3713 922 3314 415 
Q 2916 -91 2278 -91 
Q 1894 -91 1617 61 
Q 1341 213 1159 525 
z
M 3116 1747 
Q 3116 2381 2855 2742 
Q 2594 3103 2138 3103 
Q 1681 3103 1420 2742 
Q 1159 2381 1159 1747 
Q 1159 1113 1420 752 
Q 1681 391 2138 391 
Q 2594 391 2855 752 
Q 3116 1113 3116 1747 
z
" transform="scale(0.015625)"/>
       <path id="DejaVuSans-61" d="M 2194 1759 
Q 1497 1759 1228 1600 
Q 959 1441 959 1056 
Q 959 750 1161 570 
Q 1363 391 1709 391 
Q 2188 391 2477 730 
Q 2766 1069 2766 1631 
L 2766 1759 
L 2194 1759 
z
M 3341 1997 
L 3341 0 
L 2766 0 
L 2766 531 
Q 2569 213 2275 61 
Q 1981 -91 1556 -91 
Q 1019 -91 701 211 
Q 384 513 384 1019 
Q 384 1609 779 1909 
Q 1175 2209 1959 2209 
L 2766 2209 
L 2766 2266 
Q 2766 2663 2505 2880 
Q 2244 3097 1772 3097 
Q 1472 3097 1187 3025 
Q 903 2953 641 2809 
L 641 3341 
Q 956 3463 1253 3523 
Q 1550 3584 1831 3584 
Q 2591 3584 2966 3190 
Q 3341 2797 3341 1997 
z
" transform="scale(0.015625)"/>
       <path id="DejaVuSans-73" d="M 2834 3397 
L 2834 2853 
Q 2591 2978 2328 3040 
Q 2066 3103 1784 3103 
Q 1356 3103 1142 2972 
Q 928 2841 928 2578 
Q 928 2378 1081 2264 
Q 1234 2150 1697 2047 
L 1894 2003 
Q 2506 1872 2764 1633 
Q 3022 1394 3022 966 
Q 3022 478 2636 193 
Q 2250 -91 1575 -91 
Q 1294 -91 989 -36 
Q 684 19 347 128 
L 347 722 
Q 666 556 975 473 
Q 1284 391 1588 391 
Q 1994 391 2212 530 
Q 2431 669 2431 922 
Q 2431 1156 2273 1281 
Q 2116 1406 1581 1522 
L 1381 1569 
Q 847 1681 609 1914 
Q 372 2147 372 2553 
Q 372 3047 722 3315 
Q 1072 3584 1716 3584 
Q 2034 3584 2315 3537 
Q 2597 3491 2834 3397 
z
" transform="scale(0.015625)"/>
       <path id="DejaVuSans-40" d="M 2381 1678 
Q 2381 1231 2603 976 
Q 2825 722 3213 722 
Q 3597 722 3817 978 
Q 4038 1234 4038 1678 
Q 4038 2116 3813 2373 
Q 3588 2631 3206 2631 
Q 2828 2631 2604 2375 
Q 2381 2119 2381 1678 
z
M 4084 744 
Q 3897 503 3655 389 
Q 3413 275 3091 275 
Q 2553 275 2217 664 
Q 1881 1053 1881 1678 
Q 1881 2303 2218 2693 
Q 2556 3084 3091 3084 
Q 3413 3084 3656 2967 
Q 3900 2850 4084 2613 
L 4084 3022 
L 4531 3022 
L 4531 722 
Q 4988 791 5245 1139 
Q 5503 1488 5503 2041 
Q 5503 2375 5404 2669 
Q 5306 2963 5106 3213 
Q 4781 3622 4314 3839 
Q 3847 4056 3297 4056 
Q 2913 4056 2559 3954 
Q 2206 3853 1906 3653 
Q 1416 3334 1139 2817 
Q 863 2300 863 1697 
Q 863 1200 1042 765 
Q 1222 331 1563 0 
Q 1891 -325 2322 -495 
Q 2753 -666 3244 -666 
Q 3647 -666 4036 -530 
Q 4425 -394 4750 -141 
L 5031 -488 
Q 4641 -791 4180 -952 
Q 3719 -1113 3244 -1113 
Q 2666 -1113 2153 -908 
Q 1641 -703 1241 -313 
Q 841 78 631 592 
Q 422 1106 422 1697 
Q 422 2266 634 2781 
Q 847 3297 1241 3688 
Q 1644 4084 2172 4295 
Q 2700 4506 3291 4506 
Q 3953 4506 4520 4234 
Q 5088 3963 5472 3463 
Q 5706 3156 5829 2797 
Q 5953 2438 5953 2053 
Q 5953 1231 5456 756 
Q 4959 281 4084 263 
L 4084 744 
z
" transform="scale(0.015625)"/>
      </defs>
      <use xlink:href="#DejaVuSans-70"/>
      <use xlink:href="#DejaVuSans-61" x="63.476562"/>
      <use xlink:href="#DejaVuSans-73" x="124.755859"/>
      <use xlink:href="#DejaVuSans-73" x="176.855469"/>
      <use xlink:href="#DejaVuSans-40" x="228.955078"/>
      <use xlink:href="#DejaVuSans-6b" x="328.955078"/>
     </g>
    </g>
   </g>
   <g id="line2d_47">
    <path d="M 77.398636 297.966667 
L 147.323799 220.562088 
L 188.227398 187.97067 
L 217.248962 170.6672 
L 239.759837 159.976719 
L 258.152561 152.709575 
L 273.703387 147.471998 
L 287.174125 143.551453 
L 299.056159 140.535399 
L 309.685 138.163243 
L 319.299956 136.260782 
L 328.077724 134.707303 
L 336.152487 133.4172 
L 343.62855 132.328802 
L 350.588598 131.397174 
L 357.099289 130.589274 
L 363.215142 129.880608 
L 368.981322 129.252863 
L 374.43566 128.692232 
L 379.610163 128.188191 
L 384.532148 127.732629 
L 389.225119 127.319204 
L 393.709444 126.94288 
L 398.002887 126.59959 
L 402.121038 126.285987 
L 406.07765 125.999263 
L 409.88492 125.737023 
L 413.553713 125.497184 
L 417.093749 125.27791 
L 420.513761 125.077558 
L 423.821621 124.894643 
L 427.024452 124.72781 
L 430.128718 124.575815 
L 433.140305 124.43751 
L 436.064588 124.311828 
L 438.906485 124.197781 
L 441.670512 124.094447 
L 444.360823 124.000968 
L 446.981248 123.916544 
L 449.535326 123.84043 
L 452.026334 123.77193 
L 454.457311 123.710399 
L 456.831084 123.655234 
L 459.150282 123.605876 
L 461.41736 123.561808 
L 463.634607 123.522547 
L 465.804167 123.487649 
L 467.92805 123.456701 
L 470.008138 123.429325 
L 472.046201 123.405169 
L 474.043903 123.383912 
L 476.002813 123.365258 
L 477.924408 123.348936 
L 479.810083 123.334697 
L 481.661157 123.322316 
L 483.478876 123.311585 
L 485.264422 123.302318 
L 487.018913 123.294343 
L 488.743411 123.287508 
L 490.438924 123.281674 
L 492.106412 123.276714 
L 493.746784 123.272518 
L 495.36091 123.268984 
L 496.949615 123.266023 
L 498.513688 123.263555 
L 500.053881 123.261511 
L 501.570912 123.259827 
L 503.065468 123.25845 
L 504.538205 123.257331 
L 505.989751 123.256428 
L 507.420706 123.255706 
L 508.831648 123.255133 
L 510.223128 123.254683 
L 511.595675 123.254333 
L 512.949799 123.254064 
L 514.285986 123.253859 
L 515.604707 123.253706 
L 516.906411 123.253593 
L 518.191533 123.25351 
L 519.460489 123.253451 
L 520.713681 123.25341 
L 521.951497 123.253382 
L 523.174308 123.253363 
L 524.382474 123.253351 
L 525.576343 123.253343 
L 526.756247 123.253339 
L 527.922511 123.253336 
L 529.075445 123.253335 
L 530.215352 123.253334 
L 531.342523 123.253334 
L 532.457238 123.253333 
L 533.55977 123.253333 
L 534.650382 123.253333 
L 535.72933 123.253333 
L 536.796861 123.253333 
L 537.853213 123.253333 
L 538.898618 123.253333 
L 539.933301 123.253333 
L 540.957479 123.253333 
L 541.971364 123.253333 
" clip-path="url(#p17fb5bdd7d)" style="fill: none; stroke: #ffa500; stroke-width: 2; stroke-linecap: square"/>
    <defs>
     <path id="m355d09bc4b" d="M 0 1.25 
C 0.331504 1.25 0.649475 1.118292 0.883883 0.883883 
C 1.118292 0.649475 1.25 0.331504 1.25 0 
C 1.25 -0.331504 1.118292 -0.649475 0.883883 -0.883883 
C 0.649475 -1.118292 0.331504 -1.25 0 -1.25 
C -0.331504 -1.25 -0.649475 -1.118292 -0.883883 -0.883883 
C -1.118292 -0.649475 -1.25 -0.331504 -1.25 0 
C -1.25 0.331504 -1.118292 0.649475 -0.883883 0.883883 
C -0.649475 1.118292 -0.331504 1.25 0 1.25 
z
" style="stroke: #ffa500"/>
    </defs>
    <g clip-path="url(#p17fb5bdd7d)">
     <use xlink:href="#m355d09bc4b" x="77.398636" y="297.966667" style="fill: #ffa500; stroke: #ffa500"/>
     <use xlink:href="#m355d09bc4b" x="147.323799" y="220.562088" style="fill: #ffa500; stroke: #ffa500"/>
     <use xlink:href="#m355d09bc4b" x="239.759837" y="159.976719" style="fill: #ffa500; stroke: #ffa500"/>
     <use xlink:href="#m355d09bc4b" x="309.685" y="138.163243" style="fill: #ffa500; stroke: #ffa500"/>
     <use xlink:href="#m355d09bc4b" x="379.610163" y="128.188191" style="fill: #ffa500; stroke: #ffa500"/>
     <use xlink:href="#m355d09bc4b" x="472.046201" y="123.405169" style="fill: #ffa500; stroke: #ffa500"/>
     <use xlink:href="#m355d09bc4b" x="541.971364" y="123.253333" style="fill: #ffa500; stroke: #ffa500"/>
    </g>
   </g>
   <g id="line2d_48">
    <path d="M 104.974781 361 
L 147.323799 312.40764 
L 188.227398 281.297261 
L 217.248962 262.096855 
L 239.759837 255.414908 
L 258.152561 246.615009 
L 273.703387 241.805737 
L 287.174125 238.916465 
L 299.056159 236.57847 
L 309.685 234.652455 
L 319.299956 233.043739 
L 328.077724 231.683598 
L 336.152487 230.520513 
L 343.62855 229.289393 
L 350.588598 228.457351 
L 357.099289 227.726669 
L 363.215142 227.074024 
L 368.981322 226.486754 
L 374.43566 225.955234 
L 379.610163 225.472035 
L 384.532148 225.031321 
L 389.225119 224.62842 
L 393.709444 224.259517 
L 398.002887 223.921432 
L 402.121038 223.611463 
L 406.07765 223.327258 
L 409.88492 223.066752 
L 413.553713 222.8281 
L 417.093749 222.609633 
L 420.513761 222.409826 
L 423.821621 222.227277 
L 427.024452 222.060688 
L 430.128718 221.908854 
L 433.140305 221.770654 
L 436.064588 221.645041 
L 438.906485 221.531038 
L 441.670512 221.427733 
L 444.360823 221.334272 
L 446.981248 221.249859 
L 449.535326 221.173752 
L 452.026334 221.105257 
L 454.457311 221.043728 
L 456.831084 220.988565 
L 459.150282 220.939208 
L 461.41736 220.895141 
L 463.634607 220.85588 
L 465.804167 220.820982 
L 467.92805 220.790035 
L 470.008138 220.762658 
L 472.046201 220.738502 
L 474.043903 220.717245 
L 476.002813 220.698591 
L 477.924408 220.682269 
L 479.810083 220.66803 
L 481.661157 220.655649 
L 483.478876 220.644918 
L 485.264422 220.635651 
L 487.018913 220.627677 
L 488.743411 220.620842 
L 490.438924 220.615007 
L 492.106412 220.610047 
L 493.746784 220.605851 
L 495.36091 220.602317 
L 496.949615 220.599356 
L 498.513688 220.596889 
L 500.053881 220.594844 
L 501.570912 220.593161 
L 503.065468 220.591783 
L 504.538205 220.590664 
L 505.989751 220.589761 
L 507.420706 220.589039 
L 508.831648 220.588467 
L 510.223128 220.588017 
L 511.595675 220.587667 
L 512.949799 220.587397 
L 514.285986 220.587193 
L 515.604707 220.587039 
L 516.906411 220.586926 
L 518.191533 220.586843 
L 519.460489 220.586785 
L 520.713681 220.586743 
L 521.951497 220.586715 
L 523.174308 220.586696 
L 524.382474 220.586684 
L 525.576343 220.586676 
L 526.756247 220.586672 
L 527.922511 220.586669 
L 529.075445 220.586668 
L 530.215352 220.586667 
L 531.342523 220.586667 
L 532.457238 220.586667 
L 533.55977 220.586667 
L 534.650382 220.586667 
L 535.72933 220.586667 
L 536.796861 220.586667 
L 537.853213 220.586667 
L 538.898618 220.586667 
L 539.933301 220.586667 
L 540.957479 220.586667 
L 541.971364 220.586667 
" clip-path="url(#p17fb5bdd7d)" style="fill: none; stroke-dasharray: 3.7,1.6; stroke-dashoffset: 0; stroke: #ffa500"/>
    <g clip-path="url(#p17fb5bdd7d)">
     <use xlink:href="#m355d09bc4b" x="77.398636" y="392.641583" style="fill: #ffa500; stroke: #ffa500"/>
     <use xlink:href="#m355d09bc4b" x="147.323799" y="312.40764" style="fill: #ffa500; stroke: #ffa500"/>
     <use xlink:href="#m355d09bc4b" x="239.759837" y="255.414908" style="fill: #ffa500; stroke: #ffa500"/>
     <use xlink:href="#m355d09bc4b" x="309.685" y="234.652455" style="fill: #ffa500; stroke: #ffa500"/>
     <use xlink:href="#m355d09bc4b" x="379.610163" y="225.472035" style="fill: #ffa500; stroke: #ffa500"/>
     <use xlink:href="#m355d09bc4b" x="472.046201" y="220.738502" style="fill: #ffa500; stroke: #ffa500"/>
     <use xlink:href="#m355d09bc4b" x="541.971364" y="220.586667" style="fill: #ffa500; stroke: #ffa500"/>
    </g>
   </g>
   <g id="line2d_49">
    <path d="M 77.398636 200.359583 
L 147.323799 121.401911 
L 188.227398 91.733021 
L 217.248962 75.605532 
L 239.759837 65.692375 
L 258.152561 60.820293 
L 273.703387 57.346646 
L 287.174125 55.23727 
L 299.056159 53.740099 
L 309.685 52.607298 
L 319.299956 51.801633 
L 328.077724 51.338048 
L 336.152487 51.011835 
L 343.62855 50.782399 
L 350.588598 50.621251 
L 357.099289 50.508302 
L 363.215142 50.429348 
L 368.981322 50.374334 
L 374.43566 50.33614 
L 379.610163 50.309731 
L 384.532148 50.29155 
L 389.225119 50.279089 
L 393.709444 50.270586 
L 398.002887 50.264839 
L 402.121038 50.260968 
L 406.07765 50.258356 
L 409.88492 50.256616 
L 413.553713 50.255465 
L 417.093749 50.254708 
L 420.513761 50.254213 
L 423.821621 50.253892 
L 427.024452 50.253685 
L 430.128718 50.253553 
L 433.140305 50.25347 
L 436.064588 50.253417 
L 438.906485 50.253384 
L 441.670512 50.253364 
L 444.360823 50.253352 
L 446.981248 50.253344 
L 449.535326 50.25334 
L 452.026334 50.253337 
L 454.457311 50.253335 
L 456.831084 50.253335 
L 459.150282 50.253334 
L 461.41736 50.253334 
L 463.634607 50.253334 
L 465.804167 50.253333 
L 467.92805 50.253333 
L 470.008138 50.253333 
L 472.046201 50.253333 
L 474.043903 50.253333 
L 476.002813 50.253333 
L 477.924408 50.253333 
L 479.810083 50.253333 
L 481.661157 50.253333 
L 483.478876 50.253333 
L 485.264422 50.253333 
L 487.018913 50.253333 
L 488.743411 50.253333 
L 490.438924 50.253333 
L 492.106412 50.253333 
L 493.746784 50.253333 
L 495.36091 50.253333 
L 496.949615 50.253333 
L 498.513688 50.253333 
L 500.053881 50.253333 
L 501.570912 50.253333 
L 503.065468 50.253333 
L 504.538205 50.253333 
L 505.989751 50.253333 
L 507.420706 50.253333 
L 508.831648 50.253333 
L 510.223128 50.253333 
L 511.595675 50.253333 
L 512.949799 50.253333 
L 514.285986 50.253333 
L 515.604707 50.253333 
L 516.906411 50.253333 
L 518.191533 50.253333 
L 519.460489 50.253333 
L 520.713681 50.253333 
L 521.951497 50.253333 
L 523.174308 50.253333 
L 524.382474 50.253333 
L 525.576343 50.253333 
L 526.756247 50.253333 
L 527.922511 50.253333 
L 529.075445 50.253333 
L 530.215352 50.253333 
L 531.342523 50.253333 
L 532.457238 50.253333 
L 533.55977 50.253333 
L 534.650382 50.253333 
L 535.72933 50.253333 
L 536.796861 50.253333 
L 537.853213 50.253333 
L 538.898618 50.253333 
L 539.933301 50.253333 
L 540.957479 50.253333 
L 541.971364 50.253333 
" clip-path="url(#p17fb5bdd7d)" style="fill: none; stroke-dasharray: 1,1.65; stroke-dashoffset: 0; stroke: #ffa500"/>
    <g clip-path="url(#p17fb5bdd7d)">
     <use xlink:href="#m355d09bc4b" x="77.398636" y="200.359583" style="fill: #ffa500; stroke: #ffa500"/>
     <use xlink:href="#m355d09bc4b" x="147.323799" y="121.401911" style="fill: #ffa500; stroke: #ffa500"/>
     <use xlink:href="#m355d09bc4b" x="239.759837" y="65.692375" style="fill: #ffa500; stroke: #ffa500"/>
     <use xlink:href="#m355d09bc4b" x="309.685" y="52.607298" style="fill: #ffa500; stroke: #ffa500"/>
     <use xlink:href="#m355d09bc4b" x="379.610163" y="50.309731" style="fill: #ffa500; stroke: #ffa500"/>
     <use xlink:href="#m355d09bc4b" x="472.046201" y="50.253333" style="fill: #ffa500; stroke: #ffa500"/>
     <use xlink:href="#m355d09bc4b" x="541.971364" y="50.253333" style="fill: #ffa500; stroke: #ffa500"/>
    </g>
   </g>
   <g id="line2d_50">
    <path d="M 77.398636 296.02 
L 147.323799 214.500875 
L 188.227398 176.793137 
L 217.248962 156.262979 
L 239.759837 144.134169 
L 258.152561 136.550583 
L 273.703387 131.601438 
L 287.174125 128.257293 
L 299.056159 125.927586 
L 309.685 124.257093 
L 319.299956 123.02435 
L 328.077724 122.087422 
L 336.152487 121.353327 
L 343.62855 120.760044 
L 350.588598 120.265563 
L 357.099289 119.841049 
L 363.215142 119.466474 
L 368.981322 119.12778 
L 374.43566 118.81501 
L 379.610163 118.521053 
L 384.532148 118.240794 
L 389.225119 117.970533 
L 393.709444 117.707582 
L 398.002887 117.449977 
L 402.121038 117.196283 
L 406.07765 116.945447 
L 409.88492 116.696698 
L 413.553713 116.449468 
L 417.093749 116.203342 
L 420.513761 115.958016 
L 423.821621 115.713267 
L 427.024452 115.468933 
L 430.128718 115.224896 
L 433.140305 114.981071 
L 436.064588 114.737396 
L 438.906485 114.493826 
L 441.670512 114.250331 
L 444.360823 114.006887 
L 446.981248 113.763479 
L 449.535326 113.520095 
L 452.026334 113.276729 
L 454.457311 113.033373 
L 456.831084 112.790025 
L 459.150282 112.546683 
L 461.41736 112.303343 
L 463.634607 112.060006 
L 465.804167 111.81667 
L 467.92805 111.573336 
L 470.008138 111.330001 
L 472.046201 111.086667 
L 474.043903 110.843334 
L 476.002813 110.6 
L 477.924408 110.356667 
L 479.810083 110.113333 
L 481.661157 109.87 
L 483.478876 109.626667 
L 485.264422 109.383333 
L 487.018913 109.14 
L 488.743411 108.896667 
L 490.438924 108.653333 
L 492.106412 108.41 
L 493.746784 108.166667 
L 495.36091 107.923333 
L 496.949615 107.68 
L 498.513688 107.436667 
L 500.053881 107.193333 
L 501.570912 106.95 
L 503.065468 106.706667 
L 504.538205 106.463333 
L 505.989751 106.22 
L 507.420706 105.976667 
L 508.831648 105.733333 
L 510.223128 105.49 
L 511.595675 105.246667 
L 512.949799 105.003333 
L 514.285986 104.76 
L 515.604707 104.516667 
L 516.906411 104.273333 
L 518.191533 104.03 
L 519.460489 103.786667 
L 520.713681 103.543333 
L 521.951497 103.3 
L 523.174308 103.056667 
L 524.382474 102.813333 
L 525.576343 102.57 
L 526.756247 102.326667 
L 527.922511 102.083333 
L 529.075445 101.84 
L 530.215352 101.596667 
L 531.342523 101.353333 
L 532.457238 101.11 
L 533.55977 100.866667 
L 534.650382 100.623333 
L 535.72933 100.38 
L 536.796861 100.136667 
L 537.853213 99.893333 
L 538.898618 99.65 
L 539.933301 99.406667 
L 540.957479 99.163333 
L 541.971364 98.92 
" clip-path="url(#p17fb5bdd7d)" style="fill: none; stroke: #0000ff; stroke-width: 2; stroke-linecap: square"/>
    <defs>
     <path id="m4cb7df7f05" d="M -1.25 1.25 
L 1.25 1.25 
L 1.25 -1.25 
L -1.25 -1.25 
z
" style="stroke: #0000ff; stroke-linejoin: miter"/>
    </defs>
    <g clip-path="url(#p17fb5bdd7d)">
     <use xlink:href="#m4cb7df7f05" x="77.398636" y="296.02" style="fill: #0000ff; stroke: #0000ff; stroke-linejoin: miter"/>
     <use xlink:href="#m4cb7df7f05" x="147.323799" y="214.500875" style="fill: #0000ff; stroke: #0000ff; stroke-linejoin: miter"/>
     <use xlink:href="#m4cb7df7f05" x="239.759837" y="144.134169" style="fill: #0000ff; stroke: #0000ff; stroke-linejoin: miter"/>
     <use xlink:href="#m4cb7df7f05" x="309.685" y="124.257093" style="fill: #0000ff; stroke: #0000ff; stroke-linejoin: miter"/>
     <use xlink:href="#m4cb7df7f05" x="379.610163" y="118.521053" style="fill: #0000ff; stroke: #0000ff; stroke-linejoin: miter"/>
     <use xlink:href="#m4cb7df7f05" x="472.046201" y="111.086667" style="fill: #0000ff; stroke: #0000ff; stroke-linejoin: miter"/>
     <use xlink:href="#m4cb7df7f05" x="541.971364" y="98.92" style="fill: #0000ff; stroke: #0000ff; stroke-linejoin: miter"/>
    </g>
   </g>
   <g id="line2d_51">
    <path d="M 100.789677 361 
L 147.323799 303.389313 
L 188.227398 265.656767 
L 217.248962 246.620281 
L 239.759837 234.373892 
L 258.152561 228.535692 
L 273.703387 224.973868 
L 287.174125 222.165137 
L 299.056159 219.8997 
L 309.685 218.368267 
L 319.299956 217.172039 
L 328.077724 216.18201 
L 336.152487 215.313215 
L 343.62855 214.549306 
L 350.588598 213.859839 
L 357.099289 213.223896 
L 363.215142 212.626864 
L 368.981322 212.058369 
L 374.43566 211.510949 
L 379.610163 210.979166 
L 384.532148 210.459023 
L 389.225119 209.947559 
L 393.709444 209.442567 
L 398.002887 208.942398 
L 402.121038 208.445817 
L 406.07765 207.9519 
L 409.88492 207.459953 
L 413.553713 206.969458 
L 417.093749 206.480029 
L 420.513761 205.99138 
L 423.821621 205.503299 
L 427.024452 205.015628 
L 430.128718 204.528252 
L 433.140305 204.041088 
L 436.064588 203.554075 
L 438.906485 203.067169 
L 441.670512 202.580337 
L 444.360823 202.093558 
L 446.981248 201.606815 
L 449.535326 201.120098 
L 452.026334 200.633397 
L 454.457311 200.146707 
L 456.831084 199.660026 
L 459.150282 199.17335 
L 461.41736 198.686677 
L 463.634607 198.200006 
L 465.804167 197.713337 
L 467.92805 197.226669 
L 470.008138 196.740001 
L 472.046201 196.253335 
L 474.043903 196.253334 
L 476.002813 196.253334 
L 477.924408 196.253333 
L 479.810083 196.253333 
L 481.661157 196.253333 
L 483.478876 196.253333 
L 485.264422 196.253333 
L 487.018913 196.253333 
L 488.743411 196.253333 
L 490.438924 196.253333 
L 492.106412 196.253333 
L 493.746784 196.253333 
L 495.36091 196.253333 
L 496.949615 196.253333 
L 498.513688 196.253333 
L 500.053881 196.253333 
L 501.570912 196.253333 
L 503.065468 196.253333 
L 504.538205 196.253333 
L 505.989751 196.253333 
L 507.420706 196.253333 
L 508.831648 196.253333 
L 510.223128 196.253333 
L 511.595675 196.253333 
L 512.949799 196.253333 
L 514.285986 196.253333 
L 515.604707 196.253333 
L 516.906411 196.253333 
L 518.191533 196.253333 
L 519.460489 196.253333 
L 520.713681 195.067083 
L 521.951497 193.880833 
L 523.174308 192.694583 
L 524.382474 191.508333 
L 525.576343 190.322083 
L 526.756247 189.135833 
L 527.922511 187.949583 
L 529.075445 186.763333 
L 530.215352 185.577083 
L 531.342523 184.390833 
L 532.457238 183.204583 
L 533.55977 182.018333 
L 534.650382 180.832083 
L 535.72933 179.645833 
L 536.796861 178.459583 
L 537.853213 177.273333 
L 538.898618 176.087083 
L 539.933301 174.900833 
L 540.957479 173.714583 
L 541.971364 172.528333 
" clip-path="url(#p17fb5bdd7d)" style="fill: none; stroke-dasharray: 3.7,1.6; stroke-dashoffset: 0; stroke: #0000ff"/>
    <g clip-path="url(#p17fb5bdd7d)">
     <use xlink:href="#m4cb7df7f05" x="77.398636" y="389.958833" style="fill: #0000ff; stroke: #0000ff; stroke-linejoin: miter"/>
     <use xlink:href="#m4cb7df7f05" x="147.323799" y="303.389313" style="fill: #0000ff; stroke: #0000ff; stroke-linejoin: miter"/>
     <use xlink:href="#m4cb7df7f05" x="239.759837" y="234.373892" style="fill: #0000ff; stroke: #0000ff; stroke-linejoin: miter"/>
     <use xlink:href="#m4cb7df7f05" x="309.685" y="218.368267" style="fill: #0000ff; stroke: #0000ff; stroke-linejoin: miter"/>
     <use xlink:href="#m4cb7df7f05" x="379.610163" y="210.979166" style="fill: #0000ff; stroke: #0000ff; stroke-linejoin: miter"/>
     <use xlink:href="#m4cb7df7f05" x="472.046201" y="196.253335" style="fill: #0000ff; stroke: #0000ff; stroke-linejoin: miter"/>
     <use xlink:href="#m4cb7df7f05" x="541.971364" y="172.528333" style="fill: #0000ff; stroke: #0000ff; stroke-linejoin: miter"/>
    </g>
   </g>
   <g id="line2d_52">
    <path d="M 77.398636 203.7845 
L 147.323799 127.809197 
L 188.227398 92.202066 
L 217.248962 74.756812 
L 239.759837 64.571696 
L 258.152561 59.319612 
L 273.703387 55.340689 
L 287.174125 53.258794 
L 299.056159 51.716029 
L 309.685 50.583308 
L 319.299956 49.583483 
L 328.077724 48.800163 
L 336.152487 48.165646 
L 343.62855 47.633152 
L 350.588598 47.180533 
L 357.099289 46.784548 
L 363.215142 46.429231 
L 368.981322 46.103425 
L 374.43566 45.799206 
L 379.610163 45.510876 
L 384.532148 45.234291 
L 389.225119 44.966411 
L 393.709444 44.704989 
L 398.002887 44.448359 
L 402.121038 44.195281 
L 406.07765 43.944833 
L 409.88492 43.696324 
L 413.553713 43.449243 
L 417.093749 43.203207 
L 420.513761 42.957936 
L 423.821621 42.71322 
L 427.024452 42.468906 
L 430.128718 42.224881 
L 433.140305 41.981062 
L 436.064588 41.737391 
L 438.906485 41.493823 
L 441.670512 41.250329 
L 444.360823 41.006886 
L 446.981248 40.763478 
L 449.535326 40.520095 
L 452.026334 40.276729 
L 454.457311 40.033373 
L 456.831084 39.790025 
L 459.150282 39.546683 
L 461.41736 39.303343 
L 463.634607 39.060006 
L 465.804167 38.81667 
L 467.92805 38.573336 
L 470.008138 38.330001 
L 472.046201 38.086667 
L 474.043903 37.843334 
L 476.002813 37.6 
L 477.924408 37.356667 
L 479.810083 37.113333 
L 481.661157 36.87 
L 483.478876 36.626667 
L 485.264422 36.383333 
L 487.018913 36.14 
L 488.743411 35.896667 
L 490.438924 35.653333 
L 492.106412 35.41 
L 493.746784 35.166667 
L 495.36091 34.923333 
L 496.949615 34.68 
L 498.513688 34.436667 
L 500.053881 34.193333 
L 501.570912 33.95 
L 503.065468 33.706667 
L 504.538205 33.463333 
L 505.989751 33.22 
L 507.420706 32.976667 
L 508.831648 32.733333 
L 510.223128 32.49 
L 511.595675 32.246667 
L 512.949799 32.003333 
L 514.285986 31.76 
L 515.604707 31.516667 
L 516.906411 31.273333 
L 518.191533 31.03 
L 519.460489 30.786667 
L 520.713681 30.543333 
L 521.951497 30.3 
L 523.174308 30.056667 
L 524.382474 29.813333 
L 525.576343 29.57 
L 526.756247 29.326667 
L 527.922511 29.083333 
L 529.075445 28.84 
L 530.215352 28.596667 
L 531.342523 28.353333 
L 532.457238 28.11 
L 533.55977 27.866667 
L 534.650382 27.623333 
L 535.72933 27.38 
L 536.796861 27.136667 
L 537.853213 26.893333 
L 538.898618 26.65 
L 539.933301 26.406667 
L 540.957479 26.163333 
L 541.971364 25.92 
" clip-path="url(#p17fb5bdd7d)" style="fill: none; stroke-dasharray: 1,1.65; stroke-dashoffset: 0; stroke: #0000ff"/>
    <g clip-path="url(#p17fb5bdd7d)">
     <use xlink:href="#m4cb7df7f05" x="77.398636" y="203.7845" style="fill: #0000ff; stroke: #0000ff; stroke-linejoin: miter"/>
     <use xlink:href="#m4cb7df7f05" x="147.323799" y="127.809197" style="fill: #0000ff; stroke: #0000ff; stroke-linejoin: miter"/>
     <use xlink:href="#m4cb7df7f05" x="239.759837" y="64.571696" style="fill: #0000ff; stroke: #0000ff; stroke-linejoin: miter"/>
     <use xlink:href="#m4cb7df7f05" x="309.685" y="50.583308" style="fill: #0000ff; stroke: #0000ff; stroke-linejoin: miter"/>
     <use xlink:href="#m4cb7df7f05" x="379.610163" y="45.510876" style="fill: #0000ff; stroke: #0000ff; stroke-linejoin: miter"/>
     <use xlink:href="#m4cb7df7f05" x="472.046201" y="38.086667" style="fill: #0000ff; stroke: #0000ff; stroke-linejoin: miter"/>
     <use xlink:href="#m4cb7df7f05" x="541.971364" y="25.92" style="fill: #0000ff; stroke: #0000ff; stroke-linejoin: miter"/>
    </g>
   </g>
   <g id="line2d_53">
    <path d="M 77.398636 197.713333 
L 147.323799 138.831582 
L 188.227398 116.261224 
L 217.248962 104.520615 
L 239.759837 97.364785 
L 258.152561 92.481526 
L 273.703387 88.855598 
L 287.174125 86.000279 
L 299.056159 83.663275 
L 309.685 81.702089 
L 319.299956 80.02865 
L 328.077724 78.583775 
L 336.152487 77.324851 
L 343.62855 76.219582 
L 350.588598 75.242589 
L 357.099289 74.37344 
L 363.215142 73.595414 
L 368.981322 72.894675 
L 374.43566 72.25968 
L 379.610163 71.680749 
L 384.532148 71.149724 
L 389.225119 70.659704 
L 393.709444 70.204835 
L 398.002887 69.780137 
L 402.121038 69.38136 
L 406.07765 69.004873 
L 409.88492 68.647563 
L 413.553713 68.306757 
L 417.093749 67.980158 
L 420.513761 67.665785 
L 423.821621 67.361931 
L 427.024452 67.067122 
L 430.128718 66.780084 
L 433.140305 66.499717 
L 436.064588 66.225068 
L 438.906485 65.955314 
L 441.670512 65.689744 
L 444.360823 65.427744 
L 446.981248 65.168782 
L 449.535326 64.912403 
L 452.026334 64.658211 
L 454.457311 64.40587 
L 456.831084 64.155089 
L 459.150282 63.905618 
L 461.41736 63.657247 
L 463.634607 63.409794 
L 465.804167 63.163105 
L 467.92805 62.91705 
L 470.008138 62.671519 
L 472.046201 62.42642 
L 474.043903 62.181674 
L 476.002813 61.937216 
L 477.924408 61.692993 
L 479.810083 61.448959 
L 481.661157 61.205077 
L 483.478876 60.961318 
L 485.264422 60.717655 
L 487.018913 60.474069 
L 488.743411 60.230543 
L 490.438924 59.987064 
L 492.106412 59.743621 
L 493.746784 59.500207 
L 495.36091 59.256814 
L 496.949615 59.013437 
L 498.513688 58.770072 
L 500.053881 58.526716 
L 501.570912 58.283367 
L 503.065468 58.040022 
L 504.538205 57.796681 
L 505.989751 57.553343 
L 507.420706 57.310006 
L 508.831648 57.06667 
L 510.223128 56.823336 
L 511.595675 56.580001 
L 512.949799 56.336667 
L 514.285986 56.093334 
L 515.604707 55.85 
L 516.906411 55.606667 
L 518.191533 55.363333 
L 519.460489 55.12 
L 520.713681 54.876667 
L 521.951497 54.633333 
L 523.174308 54.39 
L 524.382474 54.146667 
L 525.576343 53.903333 
L 526.756247 53.66 
L 527.922511 53.416667 
L 529.075445 53.173333 
L 530.215352 52.93 
L 531.342523 52.686667 
L 532.457238 52.443333 
L 533.55977 52.2 
L 534.650382 51.956667 
L 535.72933 51.713333 
L 536.796861 51.47 
L 537.853213 51.226667 
L 538.898618 50.983333 
L 539.933301 50.74 
L 540.957479 50.496667 
L 541.971364 50.253333 
" clip-path="url(#p17fb5bdd7d)" style="fill: none; stroke: #008000; stroke-width: 2; stroke-linecap: square"/>
    <defs>
     <path id="mf4c5c62e97" d="M 0 1.767767 
L 1.767767 0 
L 0 -1.767767 
L -1.767767 0 
z
" style="stroke: #008000; stroke-linejoin: miter"/>
    </defs>
    <g clip-path="url(#p17fb5bdd7d)">
     <use xlink:href="#mf4c5c62e97" x="77.398636" y="197.713333" style="fill: #008000; stroke: #008000; stroke-linejoin: miter"/>
     <use xlink:href="#mf4c5c62e97" x="147.323799" y="138.831582" style="fill: #008000; stroke: #008000; stroke-linejoin: miter"/>
     <use xlink:href="#mf4c5c62e97" x="239.759837" y="97.364785" style="fill: #008000; stroke: #008000; stroke-linejoin: miter"/>
     <use xlink:href="#mf4c5c62e97" x="309.685" y="81.702089" style="fill: #008000; stroke: #008000; stroke-linejoin: miter"/>
     <use xlink:href="#mf4c5c62e97" x="379.610163" y="71.680749" style="fill: #008000; stroke: #008000; stroke-linejoin: miter"/>
     <use xlink:href="#mf4c5c62e97" x="472.046201" y="62.42642" style="fill: #008000; stroke: #008000; stroke-linejoin: miter"/>
     <use xlink:href="#mf4c5c62e97" x="541.971364" y="50.253333" style="fill: #008000; stroke: #008000; stroke-linejoin: miter"/>
    </g>
   </g>
   <g id="line2d_54">
    <path d="M 77.398636 283.616083 
L 147.323799 219.46463 
L 188.227398 193.477227 
L 217.248962 177.092592 
L 239.759837 168.642838 
L 258.152561 163.051164 
L 273.703387 159.584823 
L 287.174125 155.106876 
L 299.056159 152.316895 
L 309.685 150.076797 
L 319.299956 148.631761 
L 328.077724 147.3217 
L 336.152487 146.119894 
L 343.62855 145.03637 
L 350.588598 144.577402 
L 357.099289 143.000937 
L 363.215142 141.482988 
L 368.981322 139.857936 
L 374.43566 138.807678 
L 379.610163 138.211319 
L 384.532148 137.640218 
L 389.225119 137.088719 
L 393.709444 136.55239 
L 398.002887 136.027764 
L 402.121038 135.512143 
L 406.07765 135.003429 
L 409.88492 134.500001 
L 413.553713 134.000607 
L 417.093749 133.504283 
L 420.513761 133.010292 
L 423.821621 132.51807 
L 427.024452 132.027188 
L 430.128718 131.537318 
L 433.140305 131.041846 
L 436.064588 130.55462 
L 438.906485 130.067557 
L 441.670512 129.580612 
L 444.360823 129.093751 
L 446.981248 128.60695 
L 449.535326 128.12019 
L 452.026334 127.63346 
L 454.457311 127.146751 
L 456.831084 126.660055 
L 459.150282 126.173369 
L 461.41736 125.68669 
L 463.634607 125.200015 
L 465.804167 124.713343 
L 467.92805 124.226672 
L 470.008138 123.740004 
L 472.046201 123.2535 
L 474.043903 122.771674 
L 476.002813 122.283883 
L 477.924408 121.796326 
L 479.810083 121.308959 
L 481.661157 120.821744 
L 483.478876 120.334651 
L 485.264422 119.847655 
L 487.018913 119.360735 
L 488.743411 118.873876 
L 490.438924 118.387064 
L 492.106412 117.900288 
L 493.746784 117.41354 
L 495.36091 116.926814 
L 496.949615 116.440103 
L 498.513688 115.953405 
L 500.053881 115.466716 
L 501.570912 114.980033 
L 503.065468 114.493356 
L 504.538205 114.006681 
L 505.989751 113.520009 
L 507.420706 113.033339 
L 508.831648 112.54667 
L 510.223128 112.060002 
L 511.595675 111.573335 
L 512.949799 111.086667 
L 514.285986 110.6 
L 515.604707 110.113334 
L 516.906411 109.626667 
L 518.191533 109.14 
L 519.460489 108.653333 
L 520.713681 108.166667 
L 521.951497 107.68 
L 523.174308 107.193333 
L 524.382474 106.706667 
L 525.576343 106.22 
L 526.756247 105.733333 
L 527.922511 105.246667 
L 529.075445 104.76 
L 530.215352 104.273333 
L 531.342523 103.786667 
L 532.457238 103.3 
L 533.55977 102.813333 
L 534.650382 102.326667 
L 535.72933 101.84 
L 536.796861 101.353333 
L 537.853213 100.866667 
L 538.898618 100.38 
L 539.933301 99.893333 
L 540.957479 99.406667 
L 541.971364 98.92 
" clip-path="url(#p17fb5bdd7d)" style="fill: none; stroke-dasharray: 3.7,1.6; stroke-dashoffset: 0; stroke: #008000"/>
    <g clip-path="url(#p17fb5bdd7d)">
     <use xlink:href="#mf4c5c62e97" x="77.398636" y="283.616083" style="fill: #008000; stroke: #008000; stroke-linejoin: miter"/>
     <use xlink:href="#mf4c5c62e97" x="147.323799" y="219.46463" style="fill: #008000; stroke: #008000; stroke-linejoin: miter"/>
     <use xlink:href="#mf4c5c62e97" x="239.759837" y="168.642838" style="fill: #008000; stroke: #008000; stroke-linejoin: miter"/>
     <use xlink:href="#mf4c5c62e97" x="309.685" y="150.076797" style="fill: #008000; stroke: #008000; stroke-linejoin: miter"/>
     <use xlink:href="#mf4c5c62e97" x="379.610163" y="138.211319" style="fill: #008000; stroke: #008000; stroke-linejoin: miter"/>
     <use xlink:href="#mf4c5c62e97" x="472.046201" y="123.2535" style="fill: #008000; stroke: #008000; stroke-linejoin: miter"/>
     <use xlink:href="#mf4c5c62e97" x="541.971364" y="98.92" style="fill: #008000; stroke: #008000; stroke-linejoin: miter"/>
    </g>
   </g>
   <g id="line2d_55">
    <path d="M 77.398636 111.56725 
L 147.323799 65.703648 
L 188.227398 49.130926 
L 217.248962 40.526581 
L 239.759837 35.934374 
L 258.152561 33.173212 
L 273.703387 31.316694 
L 287.174125 30.002272 
L 299.056159 29.037727 
L 309.685 28.313248 
L 319.299956 27.761188 
L 328.077724 27.33695 
L 336.152487 27.009466 
L 343.62855 26.756185 
L 350.588598 26.560262 
L 357.099289 26.408861 
L 363.215142 26.292084 
L 368.981322 26.202232 
L 374.43566 26.133299 
L 379.610163 26.080585 
L 384.532148 26.040416 
L 389.225119 26.00992 
L 393.709444 25.986858 
L 398.002887 25.96949 
L 402.121038 25.956465 
L 406.07765 25.946741 
L 409.88492 25.939513 
L 413.553713 25.934167 
L 417.093749 25.930232 
L 420.513761 25.927349 
L 423.821621 25.92525 
L 427.024452 25.923728 
L 430.128718 25.922632 
L 433.140305 25.921846 
L 436.064588 25.921287 
L 438.906485 25.920891 
L 441.670512 25.920612 
L 444.360823 25.920418 
L 446.981248 25.920283 
L 449.535326 25.92019 
L 452.026334 25.920127 
L 454.457311 25.920084 
L 456.831084 25.920055 
L 459.150282 25.920036 
L 461.41736 25.920023 
L 463.634607 25.920015 
L 465.804167 25.920009 
L 467.92805 25.920006 
L 470.008138 25.920004 
L 472.046201 25.920002 
L 474.043903 25.920001 
L 476.002813 25.920001 
L 477.924408 25.92 
L 479.810083 25.92 
L 481.661157 25.92 
L 483.478876 25.92 
L 485.264422 25.92 
L 487.018913 25.92 
L 488.743411 25.92 
L 490.438924 25.92 
L 492.106412 25.92 
L 493.746784 25.92 
L 495.36091 25.92 
L 496.949615 25.92 
L 498.513688 25.92 
L 500.053881 25.92 
L 501.570912 25.92 
L 503.065468 25.92 
L 504.538205 25.92 
L 505.989751 25.92 
L 507.420706 25.92 
L 508.831648 25.92 
L 510.223128 25.92 
L 511.595675 25.92 
L 512.949799 25.92 
L 514.285986 25.92 
L 515.604707 25.92 
L 516.906411 25.92 
L 518.191533 25.92 
L 519.460489 25.92 
L 520.713681 25.92 
L 521.951497 25.92 
L 523.174308 25.92 
L 524.382474 25.92 
L 525.576343 25.92 
L 526.756247 25.92 
L 527.922511 25.92 
L 529.075445 25.92 
L 530.215352 25.92 
L 531.342523 25.92 
L 532.457238 25.92 
L 533.55977 25.92 
L 534.650382 25.92 
L 535.72933 25.92 
L 536.796861 25.92 
L 537.853213 25.92 
L 538.898618 25.92 
L 539.933301 25.92 
L 540.957479 25.92 
L 541.971364 25.92 
" clip-path="url(#p17fb5bdd7d)" style="fill: none; stroke-dasharray: 1,1.65; stroke-dashoffset: 0; stroke: #008000"/>
    <g clip-path="url(#p17fb5bdd7d)">
     <use xlink:href="#mf4c5c62e97" x="77.398636" y="111.56725" style="fill: #008000; stroke: #008000; stroke-linejoin: miter"/>
     <use xlink:href="#mf4c5c62e97" x="147.323799" y="65.703648" style="fill: #008000; stroke: #008000; stroke-linejoin: miter"/>
     <use xlink:href="#mf4c5c62e97" x="239.759837" y="35.934374" style="fill: #008000; stroke: #008000; stroke-linejoin: miter"/>
     <use xlink:href="#mf4c5c62e97" x="309.685" y="28.313248" style="fill: #008000; stroke: #008000; stroke-linejoin: miter"/>
     <use xlink:href="#mf4c5c62e97" x="379.610163" y="26.080585" style="fill: #008000; stroke: #008000; stroke-linejoin: miter"/>
     <use xlink:href="#mf4c5c62e97" x="472.046201" y="25.920002" style="fill: #008000; stroke: #008000; stroke-linejoin: miter"/>
     <use xlink:href="#mf4c5c62e97" x="541.971364" y="25.92" style="fill: #008000; stroke: #008000; stroke-linejoin: miter"/>
    </g>
   </g>
   <g id="patch_3">
    <path d="M 54.17 317.92 
L 54.17 25.92 
" style="fill: none; stroke: #000000; stroke-width: 0.8; stroke-linejoin: miter; stroke-linecap: square"/>
   </g>
   <g id="patch_4">
    <path d="M 565.2 317.92 
L 565.2 25.92 
" style="fill: none; stroke: #000000; stroke-width: 0.8; stroke-linejoin: miter; stroke-linecap: square"/>
   </g>
   <g id="patch_5">
    <path d="M 54.17 317.92 
L 565.2 317.92 
" style="fill: none; stroke: #000000; stroke-width: 0.8; stroke-linejoin: miter; stroke-linecap: square"/>
   </g>
   <g id="patch_6">
    <path d="M 54.17 25.92 
L 565.2 25.92 
" style="fill: none; stroke: #000000; stroke-width: 0.8; stroke-linejoin: miter; stroke-linecap: square"/>
   </g>
   <g id="text_15">
    <!-- Llama-3.1-8B-Instruct - pass@k -->
    <g transform="translate(215.34625 19.92) scale(0.12 -0.12)">
     <defs>
      <path id="DejaVuSans-4c" d="M 628 4666 
L 1259 4666 
L 1259 531 
L 3531 531 
L 3531 0 
L 628 0 
L 628 4666 
z
" transform="scale(0.015625)"/>
      <path id="DejaVuSans-6c" d="M 603 4863 
L 1178 4863 
L 1178 0 
L 603 0 
L 603 4863 
z
" transform="scale(0.015625)"/>
      <path id="DejaVuSans-6d" d="M 3328 2828 
Q 3544 3216 3844 3400 
Q 4144 3584 4550 3584 
Q 5097 3584 5394 3201 
Q 5691 2819 5691 2113 
L 5691 0 
L 5113 0 
L 5113 2094 
Q 5113 2597 4934 2840 
Q 4756 3084 4391 3084 
Q 3944 3084 3684 2787 
Q 3425 2491 3425 1978 
L 3425 0 
L 2847 0 
L 2847 2094 
Q 2847 2600 2669 2842 
Q 2491 3084 2119 3084 
Q 1678 3084 1418 2786 
Q 1159 2488 1159 1978 
L 1159 0 
L 581 0 
L 581 3500 
L 1159 3500 
L 1159 2956 
Q 1356 3278 1631 3431 
Q 1906 3584 2284 3584 
Q 2666 3584 2933 3390 
Q 3200 3197 3328 2828 
z
" transform="scale(0.015625)"/>
      <path id="DejaVuSans-2d" d="M 313 2009 
L 1997 2009 
L 1997 1497 
L 313 1497 
L 313 2009 
z
" transform="scale(0.015625)"/>
      <path id="DejaVuSans-33" d="M 2597 2516 
Q 3050 2419 3304 2112 
Q 3559 1806 3559 1356 
Q 3559 666 3084 287 
Q 2609 -91 1734 -91 
Q 1441 -91 1130 -33 
Q 819 25 488 141 
L 488 750 
Q 750 597 1062 519 
Q 1375 441 1716 441 
Q 2309 441 2620 675 
Q 2931 909 2931 1356 
Q 2931 1769 2642 2001 
Q 2353 2234 1838 2234 
L 1294 2234 
L 1294 2753 
L 1863 2753 
Q 2328 2753 2575 2939 
Q 2822 3125 2822 3475 
Q 2822 3834 2567 4026 
Q 2313 4219 1838 4219 
Q 1578 4219 1281 4162 
Q 984 4106 628 3988 
L 628 4550 
Q 988 4650 1302 4700 
Q 1616 4750 1894 4750 
Q 2613 4750 3031 4423 
Q 3450 4097 3450 3541 
Q 3450 3153 3228 2886 
Q 3006 2619 2597 2516 
z
" transform="scale(0.015625)"/>
      <path id="DejaVuSans-42" d="M 1259 2228 
L 1259 519 
L 2272 519 
Q 2781 519 3026 730 
Q 3272 941 3272 1375 
Q 3272 1813 3026 2020 
Q 2781 2228 2272 2228 
L 1259 2228 
z
M 1259 4147 
L 1259 2741 
L 2194 2741 
Q 2656 2741 2882 2914 
Q 3109 3088 3109 3444 
Q 3109 3797 2882 3972 
Q 2656 4147 2194 4147 
L 1259 4147 
z
M 628 4666 
L 2241 4666 
Q 2963 4666 3353 4366 
Q 3744 4066 3744 3513 
Q 3744 3084 3544 2831 
Q 3344 2578 2956 2516 
Q 3422 2416 3680 2098 
Q 3938 1781 3938 1306 
Q 3938 681 3513 340 
Q 3088 0 2303 0 
L 628 0 
L 628 4666 
z
" transform="scale(0.015625)"/>
      <path id="DejaVuSans-49" d="M 628 4666 
L 1259 4666 
L 1259 0 
L 628 0 
L 628 4666 
z
" transform="scale(0.015625)"/>
      <path id="DejaVuSans-6e" d="M 3513 2113 
L 3513 0 
L 2938 0 
L 2938 2094 
Q 2938 2591 2744 2837 
Q 2550 3084 2163 3084 
Q 1697 3084 1428 2787 
Q 1159 2491 1159 1978 
L 1159 0 
L 581 0 
L 581 3500 
L 1159 3500 
L 1159 2956 
Q 1366 3272 1645 3428 
Q 1925 3584 2291 3584 
Q 2894 3584 3203 3211 
Q 3513 2838 3513 2113 
z
" transform="scale(0.015625)"/>
      <path id="DejaVuSans-74" d="M 1172 4494 
L 1172 3500 
L 2356 3500 
L 2356 3053 
L 1172 3053 
L 1172 1153 
Q 1172 725 1289 603 
Q 1406 481 1766 481 
L 2356 481 
L 2356 0 
L 1766 0 
Q 1100 0 847 248 
Q 594 497 594 1153 
L 594 3053 
L 172 3053 
L 172 3500 
L 594 3500 
L 594 4494 
L 1172 4494 
z
" transform="scale(0.015625)"/>
      <path id="DejaVuSans-72" d="M 2631 2963 
Q 2534 3019 2420 3045 
Q 2306 3072 2169 3072 
Q 1681 3072 1420 2755 
Q 1159 2438 1159 1844 
L 1159 0 
L 581 0 
L 581 3500 
L 1159 3500 
L 1159 2956 
Q 1341 3275 1631 3429 
Q 1922 3584 2338 3584 
Q 2397 3584 2469 3576 
Q 2541 3569 2628 3553 
L 2631 2963 
z
" transform="scale(0.015625)"/>
      <path id="DejaVuSans-75" d="M 544 1381 
L 544 3500 
L 1119 3500 
L 1119 1403 
Q 1119 906 1312 657 
Q 1506 409 1894 409 
Q 2359 409 2629 706 
Q 2900 1003 2900 1516 
L 2900 3500 
L 3475 3500 
L 3475 0 
L 2900 0 
L 2900 538 
Q 2691 219 2414 64 
Q 2138 -91 1772 -91 
Q 1169 -91 856 284 
Q 544 659 544 1381 
z
M 1991 3584 
L 1991 3584 
z
" transform="scale(0.015625)"/>
      <path id="DejaVuSans-63" d="M 3122 3366 
L 3122 2828 
Q 2878 2963 2633 3030 
Q 2388 3097 2138 3097 
Q 1578 3097 1268 2742 
Q 959 2388 959 1747 
Q 959 1106 1268 751 
Q 1578 397 2138 397 
Q 2388 397 2633 464 
Q 2878 531 3122 666 
L 3122 134 
Q 2881 22 2623 -34 
Q 2366 -91 2075 -91 
Q 1284 -91 818 406 
Q 353 903 353 1747 
Q 353 2603 823 3093 
Q 1294 3584 2113 3584 
Q 2378 3584 2631 3529 
Q 2884 3475 3122 3366 
z
" transform="scale(0.015625)"/>
      <path id="DejaVuSans-20" transform="scale(0.015625)"/>
     </defs>
     <use xlink:href="#DejaVuSans-4c"/>
     <use xlink:href="#DejaVuSans-6c" x="55.712891"/>
     <use xlink:href="#DejaVuSans-61" x="83.496094"/>
     <use xlink:href="#DejaVuSans-6d" x="144.775391"/>
     <use xlink:href="#DejaVuSans-61" x="242.1875"/>
     <use xlink:href="#DejaVuSans-2d" x="303.466797"/>
     <use xlink:href="#DejaVuSans-33" x="339.550781"/>
     <use xlink:href="#DejaVuSans-2e" x="403.173828"/>
     <use xlink:href="#DejaVuSans-31" x="434.960938"/>
     <use xlink:href="#DejaVuSans-2d" x="498.583984"/>
     <use xlink:href="#DejaVuSans-38" x="534.667969"/>
     <use xlink:href="#DejaVuSans-42" x="598.291016"/>
     <use xlink:href="#DejaVuSans-2d" x="666.894531"/>
     <use xlink:href="#DejaVuSans-49" x="702.978516"/>
     <use xlink:href="#DejaVuSans-6e" x="732.470703"/>
     <use xlink:href="#DejaVuSans-73" x="795.849609"/>
     <use xlink:href="#DejaVuSans-74" x="847.949219"/>
     <use xlink:href="#DejaVuSans-72" x="887.158203"/>
     <use xlink:href="#DejaVuSans-75" x="928.271484"/>
     <use xlink:href="#DejaVuSans-63" x="991.650391"/>
     <use xlink:href="#DejaVuSans-74" x="1046.630859"/>
     <use xlink:href="#DejaVuSans-20" x="1085.839844"/>
     <use xlink:href="#DejaVuSans-2d" x="1117.626953"/>
     <use xlink:href="#DejaVuSans-20" x="1153.710938"/>
     <use xlink:href="#DejaVuSans-70" x="1185.498047"/>
     <use xlink:href="#DejaVuSans-61" x="1248.974609"/>
     <use xlink:href="#DejaVuSans-73" x="1310.253906"/>
     <use xlink:href="#DejaVuSans-73" x="1362.353516"/>
     <use xlink:href="#DejaVuSans-40" x="1414.453125"/>
     <use xlink:href="#DejaVuSans-6b" x="1514.453125"/>
    </g>
   </g>
   <g id="legend_1">
    <g id="patch_7">
     <path d="M 480.259375 312.92 
L 558.2 312.92 
Q 560.2 312.92 560.2 310.92 
L 560.2 238.529375 
Q 560.2 236.529375 558.2 236.529375 
L 480.259375 236.529375 
Q 478.259375 236.529375 478.259375 238.529375 
L 478.259375 310.92 
Q 478.259375 312.92 480.259375 312.92 
z
" style="fill: #ffffff; opacity: 0.8; stroke: #cccccc; stroke-linejoin: miter"/>
    </g>
    <g id="line2d_56">
     <path d="M 482.259375 244.627813 
L 492.259375 244.627813 
L 502.259375 244.627813 
" style="fill: none; stroke-dasharray: 3.7,1.6; stroke-dashoffset: 0; stroke: #000000"/>
    </g>
    <g id="text_16">
     <!-- CI lower -->
     <g transform="translate(510.259375 248.127813) scale(0.1 -0.1)">
      <defs>
       <path id="DejaVuSans-43" d="M 4122 4306 
L 4122 3641 
Q 3803 3938 3442 4084 
Q 3081 4231 2675 4231 
Q 1875 4231 1450 3742 
Q 1025 3253 1025 2328 
Q 1025 1406 1450 917 
Q 1875 428 2675 428 
Q 3081 428 3442 575 
Q 3803 722 4122 1019 
L 4122 359 
Q 3791 134 3420 21 
Q 3050 -91 2638 -91 
Q 1578 -91 968 557 
Q 359 1206 359 2328 
Q 359 3453 968 4101 
Q 1578 4750 2638 4750 
Q 3056 4750 3426 4639 
Q 3797 4528 4122 4306 
z
" transform="scale(0.015625)"/>
       <path id="DejaVuSans-6f" d="M 1959 3097 
Q 1497 3097 1228 2736 
Q 959 2375 959 1747 
Q 959 1119 1226 758 
Q 1494 397 1959 397 
Q 2419 397 2687 759 
Q 2956 1122 2956 1747 
Q 2956 2369 2687 2733 
Q 2419 3097 1959 3097 
z
M 1959 3584 
Q 2709 3584 3137 3096 
Q 3566 2609 3566 1747 
Q 3566 888 3137 398 
Q 2709 -91 1959 -91 
Q 1206 -91 779 398 
Q 353 888 353 1747 
Q 353 2609 779 3096 
Q 1206 3584 1959 3584 
z
" transform="scale(0.015625)"/>
       <path id="DejaVuSans-77" d="M 269 3500 
L 844 3500 
L 1563 769 
L 2278 3500 
L 2956 3500 
L 3675 769 
L 4391 3500 
L 4966 3500 
L 4050 0 
L 3372 0 
L 2619 2869 
L 1863 0 
L 1184 0 
L 269 3500 
z
" transform="scale(0.015625)"/>
       <path id="DejaVuSans-65" d="M 3597 1894 
L 3597 1613 
L 953 1613 
Q 991 1019 1311 708 
Q 1631 397 2203 397 
Q 2534 397 2845 478 
Q 3156 559 3463 722 
L 3463 178 
Q 3153 47 2828 -22 
Q 2503 -91 2169 -91 
Q 1331 -91 842 396 
Q 353 884 353 1716 
Q 353 2575 817 3079 
Q 1281 3584 2069 3584 
Q 2775 3584 3186 3129 
Q 3597 2675 3597 1894 
z
M 3022 2063 
Q 3016 2534 2758 2815 
Q 2500 3097 2075 3097 
Q 1594 3097 1305 2825 
Q 1016 2553 972 2059 
L 3022 2063 
z
" transform="scale(0.015625)"/>
      </defs>
      <use xlink:href="#DejaVuSans-43"/>
      <use xlink:href="#DejaVuSans-49" x="69.824219"/>
      <use xlink:href="#DejaVuSans-20" x="99.316406"/>
      <use xlink:href="#DejaVuSans-6c" x="131.103516"/>
      <use xlink:href="#DejaVuSans-6f" x="158.886719"/>
      <use xlink:href="#DejaVuSans-77" x="220.068359"/>
      <use xlink:href="#DejaVuSans-65" x="301.855469"/>
      <use xlink:href="#DejaVuSans-72" x="363.378906"/>
     </g>
    </g>
    <g id="line2d_57">
     <path d="M 482.259375 259.305938 
L 492.259375 259.305938 
L 502.259375 259.305938 
" style="fill: none; stroke-dasharray: 1,1.65; stroke-dashoffset: 0; stroke: #000000"/>
    </g>
    <g id="text_17">
     <!-- CI upper -->
     <g transform="translate(510.259375 262.805938) scale(0.1 -0.1)">
      <use xlink:href="#DejaVuSans-43"/>
      <use xlink:href="#DejaVuSans-49" x="69.824219"/>
      <use xlink:href="#DejaVuSans-20" x="99.316406"/>
      <use xlink:href="#DejaVuSans-75" x="131.103516"/>
      <use xlink:href="#DejaVuSans-70" x="194.482422"/>
      <use xlink:href="#DejaVuSans-70" x="257.958984"/>
      <use xlink:href="#DejaVuSans-65" x="321.435547"/>
      <use xlink:href="#DejaVuSans-72" x="382.958984"/>
     </g>
    </g>
    <g id="line2d_58">
     <path d="M 482.259375 273.984062 
L 492.259375 273.984062 
L 502.259375 273.984062 
" style="fill: none; stroke: #ffa500; stroke-width: 2; stroke-linecap: square"/>
     <g>
      <use xlink:href="#m355d09bc4b" x="492.259375" y="273.984062" style="fill: #ffa500; stroke: #ffa500"/>
     </g>
    </g>
    <g id="text_18">
     <!-- baseline -->
     <g transform="translate(510.259375 277.484062) scale(0.1 -0.1)">
      <defs>
       <path id="DejaVuSans-62" d="M 3116 1747 
Q 3116 2381 2855 2742 
Q 2594 3103 2138 3103 
Q 1681 3103 1420 2742 
Q 1159 2381 1159 1747 
Q 1159 1113 1420 752 
Q 1681 391 2138 391 
Q 2594 391 2855 752 
Q 3116 1113 3116 1747 
z
M 1159 2969 
Q 1341 3281 1617 3432 
Q 1894 3584 2278 3584 
Q 2916 3584 3314 3078 
Q 3713 2572 3713 1747 
Q 3713 922 3314 415 
Q 2916 -91 2278 -91 
Q 1894 -91 1617 61 
Q 1341 213 1159 525 
L 1159 0 
L 581 0 
L 581 4863 
L 1159 4863 
L 1159 2969 
z
" transform="scale(0.015625)"/>
       <path id="DejaVuSans-69" d="M 603 3500 
L 1178 3500 
L 1178 0 
L 603 0 
L 603 3500 
z
M 603 4863 
L 1178 4863 
L 1178 4134 
L 603 4134 
L 603 4863 
z
" transform="scale(0.015625)"/>
      </defs>
      <use xlink:href="#DejaVuSans-62"/>
      <use xlink:href="#DejaVuSans-61" x="63.476562"/>
      <use xlink:href="#DejaVuSans-73" x="124.755859"/>
      <use xlink:href="#DejaVuSans-65" x="176.855469"/>
      <use xlink:href="#DejaVuSans-6c" x="238.378906"/>
      <use xlink:href="#DejaVuSans-69" x="266.162109"/>
      <use xlink:href="#DejaVuSans-6e" x="293.945312"/>
      <use xlink:href="#DejaVuSans-65" x="357.324219"/>
     </g>
    </g>
    <g id="line2d_59">
     <path d="M 482.259375 288.662187 
L 492.259375 288.662187 
L 502.259375 288.662187 
" style="fill: none; stroke: #0000ff; stroke-width: 2; stroke-linecap: square"/>
     <g>
      <use xlink:href="#m4cb7df7f05" x="492.259375" y="288.662187" style="fill: #0000ff; stroke: #0000ff; stroke-linejoin: miter"/>
     </g>
    </g>
    <g id="text_19">
     <!-- CoT -->
     <g transform="translate(510.259375 292.162187) scale(0.1 -0.1)">
      <defs>
       <path id="DejaVuSans-54" d="M -19 4666 
L 3928 4666 
L 3928 4134 
L 2272 4134 
L 2272 0 
L 1638 0 
L 1638 4134 
L -19 4134 
L -19 4666 
z
" transform="scale(0.015625)"/>
      </defs>
      <use xlink:href="#DejaVuSans-43"/>
      <use xlink:href="#DejaVuSans-6f" x="69.824219"/>
      <use xlink:href="#DejaVuSans-54" x="131.005859"/>
     </g>
    </g>
    <g id="line2d_60">
     <path d="M 482.259375 303.340312 
L 492.259375 303.340312 
L 502.259375 303.340312 
" style="fill: none; stroke: #008000; stroke-width: 2; stroke-linecap: square"/>
     <g>
      <use xlink:href="#mf4c5c62e97" x="492.259375" y="303.340312" style="fill: #008000; stroke: #008000; stroke-linejoin: miter"/>
     </g>
    </g>
    <g id="text_20">
     <!-- feedback -->
     <g transform="translate(510.259375 306.840312) scale(0.1 -0.1)">
      <defs>
       <path id="DejaVuSans-66" d="M 2375 4863 
L 2375 4384 
L 1825 4384 
Q 1516 4384 1395 4259 
Q 1275 4134 1275 3809 
L 1275 3500 
L 2222 3500 
L 2222 3053 
L 1275 3053 
L 1275 0 
L 697 0 
L 697 3053 
L 147 3053 
L 147 3500 
L 697 3500 
L 697 3744 
Q 697 4328 969 4595 
Q 1241 4863 1831 4863 
L 2375 4863 
z
" transform="scale(0.015625)"/>
       <path id="DejaVuSans-64" d="M 2906 2969 
L 2906 4863 
L 3481 4863 
L 3481 0 
L 2906 0 
L 2906 525 
Q 2725 213 2448 61 
Q 2172 -91 1784 -91 
Q 1150 -91 751 415 
Q 353 922 353 1747 
Q 353 2572 751 3078 
Q 1150 3584 1784 3584 
Q 2172 3584 2448 3432 
Q 2725 3281 2906 2969 
z
M 947 1747 
Q 947 1113 1208 752 
Q 1469 391 1925 391 
Q 2381 391 2643 752 
Q 2906 1113 2906 1747 
Q 2906 2381 2643 2742 
Q 2381 3103 1925 3103 
Q 1469 3103 1208 2742 
Q 947 2381 947 1747 
z
" transform="scale(0.015625)"/>
      </defs>
      <use xlink:href="#DejaVuSans-66"/>
      <use xlink:href="#DejaVuSans-65" x="35.205078"/>
      <use xlink:href="#DejaVuSans-65" x="96.728516"/>
      <use xlink:href="#DejaVuSans-64" x="158.251953"/>
      <use xlink:href="#DejaVuSans-62" x="221.728516"/>
      <use xlink:href="#DejaVuSans-61" x="285.205078"/>
      <use xlink:href="#DejaVuSans-63" x="346.484375"/>
      <use xlink:href="#DejaVuSans-6b" x="401.464844"/>
     </g>
    </g>
   </g>
  </g>
 </g>
 <defs>
  <clipPath id="p17fb5bdd7d">
   <rect x="54.17" y="25.92" width="511.03" height="292"/>
  </clipPath>
 </defs>
</svg>
