<?xml version="1.0" encoding="utf-8" standalone="no"?>
<!DOCTYPE svg PUBLIC "-//W3C//DTD SVG 1.1//EN"
  "http://www.w3.org/Graphics/SVG/1.1/DTD/svg11.dtd">
<svg xmlns:xlink="http://www.w3.org/1999/xlink" width="460.8pt" height="345.6pt" viewBox="0 0 460.8 345.6" xmlns="http://www.w3.org/2000/svg" version="1.1">
 <metadata>
  <rdf:RDF xmlns:dc="http://purl.org/dc/elements/1.1/" xmlns:cc="http://creativecommons.org/ns#" xmlns:rdf="http://www.w3.org/1999/02/22-rdf-syntax-ns#">
   <cc:Work>
    <dc:type rdf:resource="http://purl.org/dc/dcmitype/StillImage"/>
    <dc:date>2025-10-01T16:20:28.786033</dc:date>
    <dc:format>image/svg+xml</dc:format>
    <dc:creator>
     <cc:Agent>
      <dc:title>Matplotlib v3.9.0, https://matplotlib.org/</dc:title>
     </cc:Agent>
    </dc:creator>
   </cc:Work>
  </rdf:RDF>
 </metadata>
 <defs>
  <style type="text/css">*{stroke-linejoin: round; stroke-linecap: butt}</style>
 </defs>
 <g id="figure_1">
  <g id="patch_1">
   <path d="M 0 345.6 
L 460.8 345.6 
L 460.8 0 
L 0 0 
z
" style="fill: #ffffff"/>
  </g>
  <g id="axes_1">
   <g id="patch_2">
    <path d="M 384.36 180.84 
C 384.36 160.622158 380.377526 140.600909 372.640493 121.922059 
C 364.90346 103.243208 353.562333 86.270013 339.26616 71.97384 
C 324.969987 57.677667 307.996792 46.33654 289.317941 38.599507 
C 270.639091 30.862474 250.617842 26.88 230.4 26.88 
C 210.182158 26.88 190.160909 30.862474 171.482059 38.599507 
C 152.803208 46.33654 135.830013 57.677667 121.53384 71.97384 
C 107.237667 86.270013 95.89654 103.243208 88.159507 121.922059 
C 80.422474 140.600909 76.44 160.622158 76.44 180.84 
C 76.44 201.057842 80.422474 221.079091 88.159507 239.757941 
C 95.89654 258.436792 107.237667 275.409987 121.53384 289.70616 
C 135.830013 304.002333 152.803208 315.34346 171.482059 323.080493 
C 190.160909 330.817526 210.182158 334.8 230.4 334.8 
C 250.617842 334.8 270.639091 330.817526 289.317941 323.080493 
C 307.996792 315.34346 324.969987 304.002333 339.26616 289.70616 
C 353.562333 275.409987 364.90346 258.436792 372.640493 239.757941 
C 380.377526 221.079091 384.36 201.057842 384.36 180.84 
M 230.4 180.84 
C 230.4 180.84 230.4 180.84 230.4 180.84 
C 230.4 180.84 230.4 180.84 230.4 180.84 
C 230.4 180.84 230.4 180.84 230.4 180.84 
C 230.4 180.84 230.4 180.84 230.4 180.84 
C 230.4 180.84 230.4 180.84 230.4 180.84 
C 230.4 180.84 230.4 180.84 230.4 180.84 
C 230.4 180.84 230.4 180.84 230.4 180.84 
C 230.4 180.84 230.4 180.84 230.4 180.84 
C 230.4 180.84 230.4 180.84 230.4 180.84 
C 230.4 180.84 230.4 180.84 230.4 180.84 
C 230.4 180.84 230.4 180.84 230.4 180.84 
C 230.4 180.84 230.4 180.84 230.4 180.84 
C 230.4 180.84 230.4 180.84 230.4 180.84 
C 230.4 180.84 230.4 180.84 230.4 180.84 
C 230.4 180.84 230.4 180.84 230.4 180.84 
C 230.4 180.84 230.4 180.84 230.4 180.84 
z
" style="fill: #ffffff"/>
   </g>
   <g id="patch_3">
    <path d="M 325.217474 180.84 
L 294.352079 70.07175 
L 164.904401 67.398295 
L 107.405047 180.84 
L 154.828155 311.734275 
L 305.216126 310.425332 
z
" clip-path="url(#p5193ee75ff)" style="fill: #1f77b4; opacity: 0.15"/>
   </g>
   <g id="matplotlib.axis_1">
    <g id="xtick_1">
     <g id="line2d_1">
      <path d="M 230.4 180.84 
L 384.36 180.84 
" clip-path="url(#p5193ee75ff)" style="fill: none; stroke: #b0b0b0; stroke-width: 0.8; stroke-linecap: square"/>
     </g>
     <g id="text_1">
      <!-- pass_at_1 -->
      <g transform="translate(373.706875 183.32125) scale(0.1 -0.1)">
       <defs>
        <path id="DejaVuSans-70" d="M 1159 525 
L 1159 -1331 
L 581 -1331 
L 581 3500 
L 1159 3500 
L 1159 2969 
Q 1341 3281 1617 3432 
Q 1894 3584 2278 3584 
Q 2916 3584 3314 3078 
Q 3713 2572 3713 1747 
Q 3713 922 3314 415 
Q 2916 -91 2278 -91 
Q 1894 -91 1617 61 
Q 1341 213 1159 525 
z
M 3116 1747 
Q 3116 2381 2855 2742 
Q 2594 3103 2138 3103 
Q 1681 3103 1420 2742 
Q 1159 2381 1159 1747 
Q 1159 1113 1420 752 
Q 1681 391 2138 391 
Q 2594 391 2855 752 
Q 3116 1113 3116 1747 
z
" transform="scale(0.015625)"/>
        <path id="DejaVuSans-61" d="M 2194 1759 
Q 1497 1759 1228 1600 
Q 959 1441 959 1056 
Q 959 750 1161 570 
Q 1363 391 1709 391 
Q 2188 391 2477 730 
Q 2766 1069 2766 1631 
L 2766 1759 
L 2194 1759 
z
M 3341 1997 
L 3341 0 
L 2766 0 
L 2766 531 
Q 2569 213 2275 61 
Q 1981 -91 1556 -91 
Q 1019 -91 701 211 
Q 384 513 384 1019 
Q 384 1609 779 1909 
Q 1175 2209 1959 2209 
L 2766 2209 
L 2766 2266 
Q 2766 2663 2505 2880 
Q 2244 3097 1772 3097 
Q 1472 3097 1187 3025 
Q 903 2953 641 2809 
L 641 3341 
Q 956 3463 1253 3523 
Q 1550 3584 1831 3584 
Q 2591 3584 2966 3190 
Q 3341 2797 3341 1997 
z
" transform="scale(0.015625)"/>
        <path id="DejaVuSans-73" d="M 2834 3397 
L 2834 2853 
Q 2591 2978 2328 3040 
Q 2066 3103 1784 3103 
Q 1356 3103 1142 2972 
Q 928 2841 928 2578 
Q 928 2378 1081 2264 
Q 1234 2150 1697 2047 
L 1894 2003 
Q 2506 1872 2764 1633 
Q 3022 1394 3022 966 
Q 3022 478 2636 193 
Q 2250 -91 1575 -91 
Q 1294 -91 989 -36 
Q 684 19 347 128 
L 347 722 
Q 666 556 975 473 
Q 1284 391 1588 391 
Q 1994 391 2212 530 
Q 2431 669 2431 922 
Q 2431 1156 2273 1281 
Q 2116 1406 1581 1522 
L 1381 1569 
Q 847 1681 609 1914 
Q 372 2147 372 2553 
Q 372 3047 722 3315 
Q 1072 3584 1716 3584 
Q 2034 3584 2315 3537 
Q 2597 3491 2834 3397 
z
" transform="scale(0.015625)"/>
        <path id="DejaVuSans-5f" d="M 3263 -1063 
L 3263 -1509 
L -63 -1509 
L -63 -1063 
L 3263 -1063 
z
" transform="scale(0.015625)"/>
        <path id="DejaVuSans-74" d="M 1172 4494 
L 1172 3500 
L 2356 3500 
L 2356 3053 
L 1172 3053 
L 1172 1153 
Q 1172 725 1289 603 
Q 1406 481 1766 481 
L 2356 481 
L 2356 0 
L 1766 0 
Q 1100 0 847 248 
Q 594 497 594 1153 
L 594 3053 
L 172 3053 
L 172 3500 
L 594 3500 
L 594 4494 
L 1172 4494 
z
" transform="scale(0.015625)"/>
        <path id="DejaVuSans-31" d="M 794 531 
L 1825 531 
L 1825 4091 
L 703 3866 
L 703 4441 
L 1819 4666 
L 2450 4666 
L 2450 531 
L 3481 531 
L 3481 0 
L 794 0 
L 794 531 
z
" transform="scale(0.015625)"/>
       </defs>
       <use xlink:href="#DejaVuSans-70"/>
       <use xlink:href="#DejaVuSans-61" x="63.476562"/>
       <use xlink:href="#DejaVuSans-73" x="124.755859"/>
       <use xlink:href="#DejaVuSans-73" x="176.855469"/>
       <use xlink:href="#DejaVuSans-5f" x="228.955078"/>
       <use xlink:href="#DejaVuSans-61" x="278.955078"/>
       <use xlink:href="#DejaVuSans-74" x="340.234375"/>
       <use xlink:href="#DejaVuSans-5f" x="379.443359"/>
       <use xlink:href="#DejaVuSans-31" x="429.443359"/>
      </g>
     </g>
    </g>
    <g id="xtick_2">
     <g id="line2d_2">
      <path d="M 230.4 180.84 
L 307.38 47.506729 
" clip-path="url(#p5193ee75ff)" style="fill: none; stroke: #b0b0b0; stroke-width: 0.8; stroke-linecap: square"/>
     </g>
     <g id="text_2">
      <!-- pass_at_10 -->
      <g transform="translate(286.545625 37.914404) scale(0.1 -0.1)">
       <defs>
        <path id="DejaVuSans-30" d="M 2034 4250 
Q 1547 4250 1301 3770 
Q 1056 3291 1056 2328 
Q 1056 1369 1301 889 
Q 1547 409 2034 409 
Q 2525 409 2770 889 
Q 3016 1369 3016 2328 
Q 3016 3291 2770 3770 
Q 2525 4250 2034 4250 
z
M 2034 4750 
Q 2819 4750 3233 4129 
Q 3647 3509 3647 2328 
Q 3647 1150 3233 529 
Q 2819 -91 2034 -91 
Q 1250 -91 836 529 
Q 422 1150 422 2328 
Q 422 3509 836 4129 
Q 1250 4750 2034 4750 
z
" transform="scale(0.015625)"/>
       </defs>
       <use xlink:href="#DejaVuSans-70"/>
       <use xlink:href="#DejaVuSans-61" x="63.476562"/>
       <use xlink:href="#DejaVuSans-73" x="124.755859"/>
       <use xlink:href="#DejaVuSans-73" x="176.855469"/>
       <use xlink:href="#DejaVuSans-5f" x="228.955078"/>
       <use xlink:href="#DejaVuSans-61" x="278.955078"/>
       <use xlink:href="#DejaVuSans-74" x="340.234375"/>
       <use xlink:href="#DejaVuSans-5f" x="379.443359"/>
       <use xlink:href="#DejaVuSans-31" x="429.443359"/>
       <use xlink:href="#DejaVuSans-30" x="493.066406"/>
      </g>
     </g>
    </g>
    <g id="xtick_3">
     <g id="line2d_3">
      <path d="M 230.4 180.84 
L 153.42 47.506729 
" clip-path="url(#p5193ee75ff)" style="fill: none; stroke: #b0b0b0; stroke-width: 0.8; stroke-linecap: square"/>
     </g>
     <g id="text_3">
      <!-- pass_at_100 -->
      <g transform="translate(115.404375 37.914404) scale(0.1 -0.1)">
       <use xlink:href="#DejaVuSans-70"/>
       <use xlink:href="#DejaVuSans-61" x="63.476562"/>
       <use xlink:href="#DejaVuSans-73" x="124.755859"/>
       <use xlink:href="#DejaVuSans-73" x="176.855469"/>
       <use xlink:href="#DejaVuSans-5f" x="228.955078"/>
       <use xlink:href="#DejaVuSans-61" x="278.955078"/>
       <use xlink:href="#DejaVuSans-74" x="340.234375"/>
       <use xlink:href="#DejaVuSans-5f" x="379.443359"/>
       <use xlink:href="#DejaVuSans-31" x="429.443359"/>
       <use xlink:href="#DejaVuSans-30" x="493.066406"/>
       <use xlink:href="#DejaVuSans-30" x="556.689453"/>
      </g>
     </g>
    </g>
    <g id="xtick_4">
     <g id="line2d_4">
      <path d="M 230.4 180.84 
L 76.44 180.84 
" clip-path="url(#p5193ee75ff)" style="fill: none; stroke: #b0b0b0; stroke-width: 0.8; stroke-linecap: square"/>
     </g>
     <g id="text_4">
      <!-- auc_logk -->
      <g transform="translate(40.44 183.460312) scale(0.1 -0.1)">
       <defs>
        <path id="DejaVuSans-75" d="M 544 1381 
L 544 3500 
L 1119 3500 
L 1119 1403 
Q 1119 906 1312 657 
Q 1506 409 1894 409 
Q 2359 409 2629 706 
Q 2900 1003 2900 1516 
L 2900 3500 
L 3475 3500 
L 3475 0 
L 2900 0 
L 2900 538 
Q 2691 219 2414 64 
Q 2138 -91 1772 -91 
Q 1169 -91 856 284 
Q 544 659 544 1381 
z
M 1991 3584 
L 1991 3584 
z
" transform="scale(0.015625)"/>
        <path id="DejaVuSans-63" d="M 3122 3366 
L 3122 2828 
Q 2878 2963 2633 3030 
Q 2388 3097 2138 3097 
Q 1578 3097 1268 2742 
Q 959 2388 959 1747 
Q 959 1106 1268 751 
Q 1578 397 2138 397 
Q 2388 397 2633 464 
Q 2878 531 3122 666 
L 3122 134 
Q 2881 22 2623 -34 
Q 2366 -91 2075 -91 
Q 1284 -91 818 406 
Q 353 903 353 1747 
Q 353 2603 823 3093 
Q 1294 3584 2113 3584 
Q 2378 3584 2631 3529 
Q 2884 3475 3122 3366 
z
" transform="scale(0.015625)"/>
        <path id="DejaVuSans-6c" d="M 603 4863 
L 1178 4863 
L 1178 0 
L 603 0 
L 603 4863 
z
" transform="scale(0.015625)"/>
        <path id="DejaVuSans-6f" d="M 1959 3097 
Q 1497 3097 1228 2736 
Q 959 2375 959 1747 
Q 959 1119 1226 758 
Q 1494 397 1959 397 
Q 2419 397 2687 759 
Q 2956 1122 2956 1747 
Q 2956 2369 2687 2733 
Q 2419 3097 1959 3097 
z
M 1959 3584 
Q 2709 3584 3137 3096 
Q 3566 2609 3566 1747 
Q 3566 888 3137 398 
Q 2709 -91 1959 -91 
Q 1206 -91 779 398 
Q 353 888 353 1747 
Q 353 2609 779 3096 
Q 1206 3584 1959 3584 
z
" transform="scale(0.015625)"/>
        <path id="DejaVuSans-67" d="M 2906 1791 
Q 2906 2416 2648 2759 
Q 2391 3103 1925 3103 
Q 1463 3103 1205 2759 
Q 947 2416 947 1791 
Q 947 1169 1205 825 
Q 1463 481 1925 481 
Q 2391 481 2648 825 
Q 2906 1169 2906 1791 
z
M 3481 434 
Q 3481 -459 3084 -895 
Q 2688 -1331 1869 -1331 
Q 1566 -1331 1297 -1286 
Q 1028 -1241 775 -1147 
L 775 -588 
Q 1028 -725 1275 -790 
Q 1522 -856 1778 -856 
Q 2344 -856 2625 -561 
Q 2906 -266 2906 331 
L 2906 616 
Q 2728 306 2450 153 
Q 2172 0 1784 0 
Q 1141 0 747 490 
Q 353 981 353 1791 
Q 353 2603 747 3093 
Q 1141 3584 1784 3584 
Q 2172 3584 2450 3431 
Q 2728 3278 2906 2969 
L 2906 3500 
L 3481 3500 
L 3481 434 
z
" transform="scale(0.015625)"/>
        <path id="DejaVuSans-6b" d="M 581 4863 
L 1159 4863 
L 1159 1991 
L 2875 3500 
L 3609 3500 
L 1753 1863 
L 3688 0 
L 2938 0 
L 1159 1709 
L 1159 0 
L 581 0 
L 581 4863 
z
" transform="scale(0.015625)"/>
       </defs>
       <use xlink:href="#DejaVuSans-61"/>
       <use xlink:href="#DejaVuSans-75" x="61.279297"/>
       <use xlink:href="#DejaVuSans-63" x="124.658203"/>
       <use xlink:href="#DejaVuSans-5f" x="179.638672"/>
       <use xlink:href="#DejaVuSans-6c" x="229.638672"/>
       <use xlink:href="#DejaVuSans-6f" x="257.421875"/>
       <use xlink:href="#DejaVuSans-67" x="318.603516"/>
       <use xlink:href="#DejaVuSans-6b" x="382.080078"/>
      </g>
     </g>
    </g>
    <g id="xtick_5">
     <g id="line2d_5">
      <path d="M 230.4 180.84 
L 153.42 314.173271 
" clip-path="url(#p5193ee75ff)" style="fill: none; stroke: #b0b0b0; stroke-width: 0.8; stroke-linecap: square"/>
     </g>
     <g id="text_5">
      <!-- k50 -->
      <g transform="translate(137.162187 329.057002) scale(0.1 -0.1)">
       <defs>
        <path id="DejaVuSans-35" d="M 691 4666 
L 3169 4666 
L 3169 4134 
L 1269 4134 
L 1269 2991 
Q 1406 3038 1543 3061 
Q 1681 3084 1819 3084 
Q 2600 3084 3056 2656 
Q 3513 2228 3513 1497 
Q 3513 744 3044 326 
Q 2575 -91 1722 -91 
Q 1428 -91 1123 -41 
Q 819 9 494 109 
L 494 744 
Q 775 591 1075 516 
Q 1375 441 1709 441 
Q 2250 441 2565 725 
Q 2881 1009 2881 1497 
Q 2881 1984 2565 2268 
Q 2250 2553 1709 2553 
Q 1456 2553 1204 2497 
Q 953 2441 691 2322 
L 691 4666 
z
" transform="scale(0.015625)"/>
       </defs>
       <use xlink:href="#DejaVuSans-6b"/>
       <use xlink:href="#DejaVuSans-35" x="57.910156"/>
       <use xlink:href="#DejaVuSans-30" x="121.533203"/>
      </g>
     </g>
    </g>
    <g id="xtick_6">
     <g id="line2d_6">
      <path d="M 230.4 180.84 
L 307.38 314.173271 
" clip-path="url(#p5193ee75ff)" style="fill: none; stroke: #b0b0b0; stroke-width: 0.8; stroke-linecap: square"/>
     </g>
     <g id="text_6">
      <!-- k90 -->
      <g transform="translate(305.122187 329.057002) scale(0.1 -0.1)">
       <defs>
        <path id="DejaVuSans-39" d="M 703 97 
L 703 672 
Q 941 559 1184 500 
Q 1428 441 1663 441 
Q 2288 441 2617 861 
Q 2947 1281 2994 2138 
Q 2813 1869 2534 1725 
Q 2256 1581 1919 1581 
Q 1219 1581 811 2004 
Q 403 2428 403 3163 
Q 403 3881 828 4315 
Q 1253 4750 1959 4750 
Q 2769 4750 3195 4129 
Q 3622 3509 3622 2328 
Q 3622 1225 3098 567 
Q 2575 -91 1691 -91 
Q 1453 -91 1209 -44 
Q 966 3 703 97 
z
M 1959 2075 
Q 2384 2075 2632 2365 
Q 2881 2656 2881 3163 
Q 2881 3666 2632 3958 
Q 2384 4250 1959 4250 
Q 1534 4250 1286 3958 
Q 1038 3666 1038 3163 
Q 1038 2656 1286 2365 
Q 1534 2075 1959 2075 
z
" transform="scale(0.015625)"/>
       </defs>
       <use xlink:href="#DejaVuSans-6b"/>
       <use xlink:href="#DejaVuSans-39" x="57.910156"/>
       <use xlink:href="#DejaVuSans-30" x="121.533203"/>
      </g>
     </g>
    </g>
   </g>
   <g id="matplotlib.axis_2">
    <g id="ytick_1">
     <g id="line2d_7">
      <path d="M 260.628738 180.84 
C 260.628738 176.870399 259.846813 172.939396 258.327712 169.271963 
C 256.808611 165.604529 254.581878 162.271987 251.774946 159.465054 
C 248.968013 156.658122 245.635471 154.431389 241.968037 152.912288 
C 238.300604 151.393187 234.369601 150.611262 230.4 150.611262 
C 226.430399 150.611262 222.499396 151.393187 218.831963 152.912288 
C 215.164529 154.431389 211.831987 156.658122 209.025054 159.465054 
C 206.218122 162.271987 203.991389 165.604529 202.472288 169.271963 
C 200.953187 172.939396 200.171262 176.870399 200.171262 180.84 
C 200.171262 184.809601 200.953187 188.740604 202.472288 192.408037 
C 203.991389 196.075471 206.218122 199.408013 209.025054 202.214946 
C 211.831987 205.021878 215.164529 207.248611 218.831963 208.767712 
C 222.499396 210.286813 226.430399 211.068738 230.4 211.068738 
C 234.369601 211.068738 238.300604 210.286813 241.968037 208.767712 
C 245.635471 207.248611 248.968013 205.021878 251.774946 202.214946 
C 254.581878 199.408013 256.808611 196.075471 258.327712 192.408037 
C 259.846813 188.740604 260.628738 184.809601 260.628738 180.84 
" clip-path="url(#p5193ee75ff)" style="fill: none; stroke: #b0b0b0; stroke-width: 0.8; stroke-linecap: square"/>
     </g>
     <g id="text_7">
      <!-- 0.2 -->
      <g transform="translate(230.4 148.531575) scale(0.1 -0.1)">
       <defs>
        <path id="DejaVuSans-2e" d="M 684 794 
L 1344 794 
L 1344 0 
L 684 0 
L 684 794 
z
" transform="scale(0.015625)"/>
        <path id="DejaVuSans-32" d="M 1228 531 
L 3431 531 
L 3431 0 
L 469 0 
L 469 531 
Q 828 903 1448 1529 
Q 2069 2156 2228 2338 
Q 2531 2678 2651 2914 
Q 2772 3150 2772 3378 
Q 2772 3750 2511 3984 
Q 2250 4219 1831 4219 
Q 1534 4219 1204 4116 
Q 875 4013 500 3803 
L 500 4441 
Q 881 4594 1212 4672 
Q 1544 4750 1819 4750 
Q 2544 4750 2975 4387 
Q 3406 4025 3406 3419 
Q 3406 3131 3298 2873 
Q 3191 2616 2906 2266 
Q 2828 2175 2409 1742 
Q 1991 1309 1228 531 
z
" transform="scale(0.015625)"/>
       </defs>
       <use xlink:href="#DejaVuSans-30"/>
       <use xlink:href="#DejaVuSans-2e" x="63.623047"/>
       <use xlink:href="#DejaVuSans-32" x="95.410156"/>
      </g>
     </g>
    </g>
    <g id="ytick_2">
     <g id="line2d_8">
      <path d="M 290.857476 180.84 
C 290.857476 172.900797 289.293626 165.038793 286.255424 157.703926 
C 283.217223 150.369059 278.763755 143.703973 273.149891 138.090109 
C 267.536027 132.476245 260.870941 128.022777 253.536074 124.984576 
C 246.201207 121.946374 238.339203 120.382524 230.4 120.382524 
C 222.460797 120.382524 214.598793 121.946374 207.263926 124.984576 
C 199.929059 128.022777 193.263973 132.476245 187.650109 138.090109 
C 182.036245 143.703973 177.582777 150.369059 174.544576 157.703926 
C 171.506374 165.038793 169.942524 172.900797 169.942524 180.84 
C 169.942524 188.779203 171.506374 196.641207 174.544576 203.976074 
C 177.582777 211.310941 182.036245 217.976027 187.650109 223.589891 
C 193.263973 229.203755 199.929059 233.657223 207.263926 236.695424 
C 214.598793 239.733626 222.460797 241.297476 230.4 241.297476 
C 238.339203 241.297476 246.201207 239.733626 253.536074 236.695424 
C 260.870941 233.657223 267.536027 229.203755 273.149891 223.589891 
C 278.763755 217.976027 283.217223 211.310941 286.255424 203.976074 
C 289.293626 196.641207 290.857476 188.779203 290.857476 180.84 
" clip-path="url(#p5193ee75ff)" style="fill: none; stroke: #b0b0b0; stroke-width: 0.8; stroke-linecap: square"/>
     </g>
     <g id="text_8">
      <!-- 0.4 -->
      <g transform="translate(230.4 118.302837) scale(0.1 -0.1)">
       <defs>
        <path id="DejaVuSans-34" d="M 2419 4116 
L 825 1625 
L 2419 1625 
L 2419 4116 
z
M 2253 4666 
L 3047 4666 
L 3047 1625 
L 3713 1625 
L 3713 1100 
L 3047 1100 
L 3047 0 
L 2419 0 
L 2419 1100 
L 313 1100 
L 313 1709 
L 2253 4666 
z
" transform="scale(0.015625)"/>
       </defs>
       <use xlink:href="#DejaVuSans-30"/>
       <use xlink:href="#DejaVuSans-2e" x="63.623047"/>
       <use xlink:href="#DejaVuSans-34" x="95.410156"/>
      </g>
     </g>
    </g>
    <g id="ytick_3">
     <g id="line2d_9">
      <path d="M 321.086214 180.84 
C 321.086214 168.931196 318.740439 157.138189 314.183137 146.135889 
C 309.625834 135.133588 302.945633 125.13596 294.524837 116.715163 
C 286.10404 108.294367 276.106412 101.614166 265.104111 97.056863 
C 254.101811 92.499561 242.308804 90.153786 230.4 90.153786 
C 218.491196 90.153786 206.698189 92.499561 195.695889 97.056863 
C 184.693588 101.614166 174.69596 108.294367 166.275163 116.715163 
C 157.854367 125.13596 151.174166 135.133588 146.616863 146.135889 
C 142.059561 157.138189 139.713786 168.931196 139.713786 180.84 
C 139.713786 192.748804 142.059561 204.541811 146.616863 215.544111 
C 151.174166 226.546412 157.854367 236.54404 166.275163 244.964837 
C 174.69596 253.385633 184.693588 260.065834 195.695889 264.623137 
C 206.698189 269.180439 218.491196 271.526214 230.4 271.526214 
C 242.308804 271.526214 254.101811 269.180439 265.104111 264.623137 
C 276.106412 260.065834 286.10404 253.385633 294.524837 244.964837 
C 302.945633 236.54404 309.625834 226.546412 314.183137 215.544111 
C 318.740439 204.541811 321.086214 192.748804 321.086214 180.84 
" clip-path="url(#p5193ee75ff)" style="fill: none; stroke: #b0b0b0; stroke-width: 0.8; stroke-linecap: square"/>
     </g>
     <g id="text_9">
      <!-- 0.6 -->
      <g transform="translate(230.4 88.074099) scale(0.1 -0.1)">
       <defs>
        <path id="DejaVuSans-36" d="M 2113 2584 
Q 1688 2584 1439 2293 
Q 1191 2003 1191 1497 
Q 1191 994 1439 701 
Q 1688 409 2113 409 
Q 2538 409 2786 701 
Q 3034 994 3034 1497 
Q 3034 2003 2786 2293 
Q 2538 2584 2113 2584 
z
M 3366 4563 
L 3366 3988 
Q 3128 4100 2886 4159 
Q 2644 4219 2406 4219 
Q 1781 4219 1451 3797 
Q 1122 3375 1075 2522 
Q 1259 2794 1537 2939 
Q 1816 3084 2150 3084 
Q 2853 3084 3261 2657 
Q 3669 2231 3669 1497 
Q 3669 778 3244 343 
Q 2819 -91 2113 -91 
Q 1303 -91 875 529 
Q 447 1150 447 2328 
Q 447 3434 972 4092 
Q 1497 4750 2381 4750 
Q 2619 4750 2861 4703 
Q 3103 4656 3366 4563 
z
" transform="scale(0.015625)"/>
       </defs>
       <use xlink:href="#DejaVuSans-30"/>
       <use xlink:href="#DejaVuSans-2e" x="63.623047"/>
       <use xlink:href="#DejaVuSans-36" x="95.410156"/>
      </g>
     </g>
    </g>
    <g id="ytick_4">
     <g id="line2d_10">
      <path d="M 351.314951 180.84 
C 351.314951 164.961594 348.187252 149.237586 342.110849 134.567851 
C 336.034446 119.898117 327.127511 106.567946 315.899782 95.340218 
C 304.672054 84.112489 291.341883 75.205554 276.672149 69.129151 
C 262.002414 63.052748 246.278406 59.925049 230.4 59.925049 
C 214.521594 59.925049 198.797586 63.052748 184.127851 69.129151 
C 169.458117 75.205554 156.127946 84.112489 144.900218 95.340218 
C 133.672489 106.567946 124.765554 119.898117 118.689151 134.567851 
C 112.612748 149.237586 109.485049 164.961594 109.485049 180.84 
C 109.485049 196.718406 112.612748 212.442414 118.689151 227.112149 
C 124.765554 241.781883 133.672489 255.112054 144.900218 266.339782 
C 156.127946 277.567511 169.458117 286.474446 184.127851 292.550849 
C 198.797586 298.627252 214.521594 301.754951 230.4 301.754951 
C 246.278406 301.754951 262.002414 298.627252 276.672149 292.550849 
C 291.341883 286.474446 304.672054 277.567511 315.899782 266.339782 
C 327.127511 255.112054 336.034446 241.781883 342.110849 227.112149 
C 348.187252 212.442414 351.314951 196.718406 351.314951 180.84 
" clip-path="url(#p5193ee75ff)" style="fill: none; stroke: #b0b0b0; stroke-width: 0.8; stroke-linecap: square"/>
     </g>
     <g id="text_10">
      <!-- 0.8 -->
      <g transform="translate(230.4 57.845361) scale(0.1 -0.1)">
       <defs>
        <path id="DejaVuSans-38" d="M 2034 2216 
Q 1584 2216 1326 1975 
Q 1069 1734 1069 1313 
Q 1069 891 1326 650 
Q 1584 409 2034 409 
Q 2484 409 2743 651 
Q 3003 894 3003 1313 
Q 3003 1734 2745 1975 
Q 2488 2216 2034 2216 
z
M 1403 2484 
Q 997 2584 770 2862 
Q 544 3141 544 3541 
Q 544 4100 942 4425 
Q 1341 4750 2034 4750 
Q 2731 4750 3128 4425 
Q 3525 4100 3525 3541 
Q 3525 3141 3298 2862 
Q 3072 2584 2669 2484 
Q 3125 2378 3379 2068 
Q 3634 1759 3634 1313 
Q 3634 634 3220 271 
Q 2806 -91 2034 -91 
Q 1263 -91 848 271 
Q 434 634 434 1313 
Q 434 1759 690 2068 
Q 947 2378 1403 2484 
z
M 1172 3481 
Q 1172 3119 1398 2916 
Q 1625 2713 2034 2713 
Q 2441 2713 2670 2916 
Q 2900 3119 2900 3481 
Q 2900 3844 2670 4047 
Q 2441 4250 2034 4250 
Q 1625 4250 1398 4047 
Q 1172 3844 1172 3481 
z
" transform="scale(0.015625)"/>
       </defs>
       <use xlink:href="#DejaVuSans-30"/>
       <use xlink:href="#DejaVuSans-2e" x="63.623047"/>
       <use xlink:href="#DejaVuSans-38" x="95.410156"/>
      </g>
     </g>
    </g>
    <g id="ytick_5">
     <g id="line2d_11">
      <path d="M 381.543689 180.84 
C 381.543689 160.991993 377.634065 141.336982 370.038561 122.999814 
C 362.443057 104.662646 351.309388 87.999933 337.274728 73.965272 
C 323.240067 59.930612 306.577354 48.796943 288.240186 41.201439 
C 269.903018 33.605935 250.248007 29.696311 230.4 29.696311 
C 210.551993 29.696311 190.896982 33.605935 172.559814 41.201439 
C 154.222646 48.796943 137.559933 59.930612 123.525272 73.965272 
C 109.490612 87.999933 98.356943 104.662646 90.761439 122.999814 
C 83.165935 141.336982 79.256311 160.991993 79.256311 180.84 
C 79.256311 200.688007 83.165935 220.343018 90.761439 238.680186 
C 98.356943 257.017354 109.490612 273.680067 123.525272 287.714728 
C 137.559933 301.749388 154.222646 312.883057 172.559814 320.478561 
C 190.896982 328.074065 210.551993 331.983689 230.4 331.983689 
C 250.248007 331.983689 269.903018 328.074065 288.240186 320.478561 
C 306.577354 312.883057 323.240067 301.749388 337.274728 287.714728 
C 351.309388 273.680067 362.443057 257.017354 370.038561 238.680186 
C 377.634065 220.343018 381.543689 200.688007 381.543689 180.84 
" clip-path="url(#p5193ee75ff)" style="fill: none; stroke: #b0b0b0; stroke-width: 0.8; stroke-linecap: square"/>
     </g>
     <g id="text_11">
      <!-- 1.0 -->
      <g transform="translate(230.4 27.616623) scale(0.1 -0.1)">
       <use xlink:href="#DejaVuSans-31"/>
       <use xlink:href="#DejaVuSans-2e" x="63.623047"/>
       <use xlink:href="#DejaVuSans-30" x="95.410156"/>
      </g>
     </g>
    </g>
   </g>
   <g id="line2d_12">
    <path d="M 325.217474 180.84 
L 294.352079 70.07175 
L 164.904401 67.398295 
L 107.405047 180.84 
L 154.828155 311.734275 
L 305.216126 310.425332 
L 325.217474 180.84 
" clip-path="url(#p5193ee75ff)" style="fill: none; stroke: #1f77b4; stroke-width: 2; stroke-linecap: square"/>
   </g>
   <g id="patch_4">
    <path d="M 384.36 180.84 
C 384.36 160.622158 380.377526 140.600909 372.640493 121.922059 
C 364.90346 103.243208 353.562333 86.270013 339.26616 71.97384 
C 324.969987 57.677667 307.996792 46.33654 289.317941 38.599507 
C 270.639091 30.862474 250.617842 26.88 230.4 26.88 
C 210.182158 26.88 190.160909 30.862474 171.482059 38.599507 
C 152.803208 46.33654 135.830013 57.677667 121.53384 71.97384 
C 107.237667 86.270013 95.89654 103.243208 88.159507 121.922059 
C 80.422474 140.600909 76.44 160.622158 76.44 180.84 
C 76.44 201.057842 80.422474 221.079091 88.159507 239.757941 
C 95.89654 258.436792 107.237667 275.409987 121.53384 289.70616 
C 135.830013 304.002333 152.803208 315.34346 171.482059 323.080493 
C 190.160909 330.817526 210.182158 334.8 230.4 334.8 
C 250.617842 334.8 270.639091 330.817526 289.317941 323.080493 
C 307.996792 315.34346 324.969987 304.002333 339.26616 289.70616 
C 353.562333 275.409987 364.90346 258.436792 372.640493 239.757941 
C 380.377526 221.079091 384.36 201.057842 384.36 180.84 
" style="fill: none; stroke: #000000; stroke-width: 0.8; stroke-linejoin: miter; stroke-linecap: square"/>
   </g>
   <g id="text_12">
    <!-- Performance radar – Llama-3.1-8B-Instruct [baseline] (absolute) -->
    <g transform="translate(38.310938 20.88) scale(0.12 -0.12)">
     <defs>
      <path id="DejaVuSans-50" d="M 1259 4147 
L 1259 2394 
L 2053 2394 
Q 2494 2394 2734 2622 
Q 2975 2850 2975 3272 
Q 2975 3691 2734 3919 
Q 2494 4147 2053 4147 
L 1259 4147 
z
M 628 4666 
L 2053 4666 
Q 2838 4666 3239 4311 
Q 3641 3956 3641 3272 
Q 3641 2581 3239 2228 
Q 2838 1875 2053 1875 
L 1259 1875 
L 1259 0 
L 628 0 
L 628 4666 
z
" transform="scale(0.015625)"/>
      <path id="DejaVuSans-65" d="M 3597 1894 
L 3597 1613 
L 953 1613 
Q 991 1019 1311 708 
Q 1631 397 2203 397 
Q 2534 397 2845 478 
Q 3156 559 3463 722 
L 3463 178 
Q 3153 47 2828 -22 
Q 2503 -91 2169 -91 
Q 1331 -91 842 396 
Q 353 884 353 1716 
Q 353 2575 817 3079 
Q 1281 3584 2069 3584 
Q 2775 3584 3186 3129 
Q 3597 2675 3597 1894 
z
M 3022 2063 
Q 3016 2534 2758 2815 
Q 2500 3097 2075 3097 
Q 1594 3097 1305 2825 
Q 1016 2553 972 2059 
L 3022 2063 
z
" transform="scale(0.015625)"/>
      <path id="DejaVuSans-72" d="M 2631 2963 
Q 2534 3019 2420 3045 
Q 2306 3072 2169 3072 
Q 1681 3072 1420 2755 
Q 1159 2438 1159 1844 
L 1159 0 
L 581 0 
L 581 3500 
L 1159 3500 
L 1159 2956 
Q 1341 3275 1631 3429 
Q 1922 3584 2338 3584 
Q 2397 3584 2469 3576 
Q 2541 3569 2628 3553 
L 2631 2963 
z
" transform="scale(0.015625)"/>
      <path id="DejaVuSans-66" d="M 2375 4863 
L 2375 4384 
L 1825 4384 
Q 1516 4384 1395 4259 
Q 1275 4134 1275 3809 
L 1275 3500 
L 2222 3500 
L 2222 3053 
L 1275 3053 
L 1275 0 
L 697 0 
L 697 3053 
L 147 3053 
L 147 3500 
L 697 3500 
L 697 3744 
Q 697 4328 969 4595 
Q 1241 4863 1831 4863 
L 2375 4863 
z
" transform="scale(0.015625)"/>
      <path id="DejaVuSans-6d" d="M 3328 2828 
Q 3544 3216 3844 3400 
Q 4144 3584 4550 3584 
Q 5097 3584 5394 3201 
Q 5691 2819 5691 2113 
L 5691 0 
L 5113 0 
L 5113 2094 
Q 5113 2597 4934 2840 
Q 4756 3084 4391 3084 
Q 3944 3084 3684 2787 
Q 3425 2491 3425 1978 
L 3425 0 
L 2847 0 
L 2847 2094 
Q 2847 2600 2669 2842 
Q 2491 3084 2119 3084 
Q 1678 3084 1418 2786 
Q 1159 2488 1159 1978 
L 1159 0 
L 581 0 
L 581 3500 
L 1159 3500 
L 1159 2956 
Q 1356 3278 1631 3431 
Q 1906 3584 2284 3584 
Q 2666 3584 2933 3390 
Q 3200 3197 3328 2828 
z
" transform="scale(0.015625)"/>
      <path id="DejaVuSans-6e" d="M 3513 2113 
L 3513 0 
L 2938 0 
L 2938 2094 
Q 2938 2591 2744 2837 
Q 2550 3084 2163 3084 
Q 1697 3084 1428 2787 
Q 1159 2491 1159 1978 
L 1159 0 
L 581 0 
L 581 3500 
L 1159 3500 
L 1159 2956 
Q 1366 3272 1645 3428 
Q 1925 3584 2291 3584 
Q 2894 3584 3203 3211 
Q 3513 2838 3513 2113 
z
" transform="scale(0.015625)"/>
      <path id="DejaVuSans-20" transform="scale(0.015625)"/>
      <path id="DejaVuSans-64" d="M 2906 2969 
L 2906 4863 
L 3481 4863 
L 3481 0 
L 2906 0 
L 2906 525 
Q 2725 213 2448 61 
Q 2172 -91 1784 -91 
Q 1150 -91 751 415 
Q 353 922 353 1747 
Q 353 2572 751 3078 
Q 1150 3584 1784 3584 
Q 2172 3584 2448 3432 
Q 2725 3281 2906 2969 
z
M 947 1747 
Q 947 1113 1208 752 
Q 1469 391 1925 391 
Q 2381 391 2643 752 
Q 2906 1113 2906 1747 
Q 2906 2381 2643 2742 
Q 2381 3103 1925 3103 
Q 1469 3103 1208 2742 
Q 947 2381 947 1747 
z
" transform="scale(0.015625)"/>
      <path id="DejaVuSans-2013" d="M 313 1978 
L 2888 1978 
L 2888 1528 
L 313 1528 
L 313 1978 
z
" transform="scale(0.015625)"/>
      <path id="DejaVuSans-4c" d="M 628 4666 
L 1259 4666 
L 1259 531 
L 3531 531 
L 3531 0 
L 628 0 
L 628 4666 
z
" transform="scale(0.015625)"/>
      <path id="DejaVuSans-2d" d="M 313 2009 
L 1997 2009 
L 1997 1497 
L 313 1497 
L 313 2009 
z
" transform="scale(0.015625)"/>
      <path id="DejaVuSans-33" d="M 2597 2516 
Q 3050 2419 3304 2112 
Q 3559 1806 3559 1356 
Q 3559 666 3084 287 
Q 2609 -91 1734 -91 
Q 1441 -91 1130 -33 
Q 819 25 488 141 
L 488 750 
Q 750 597 1062 519 
Q 1375 441 1716 441 
Q 2309 441 2620 675 
Q 2931 909 2931 1356 
Q 2931 1769 2642 2001 
Q 2353 2234 1838 2234 
L 1294 2234 
L 1294 2753 
L 1863 2753 
Q 2328 2753 2575 2939 
Q 2822 3125 2822 3475 
Q 2822 3834 2567 4026 
Q 2313 4219 1838 4219 
Q 1578 4219 1281 4162 
Q 984 4106 628 3988 
L 628 4550 
Q 988 4650 1302 4700 
Q 1616 4750 1894 4750 
Q 2613 4750 3031 4423 
Q 3450 4097 3450 3541 
Q 3450 3153 3228 2886 
Q 3006 2619 2597 2516 
z
" transform="scale(0.015625)"/>
      <path id="DejaVuSans-42" d="M 1259 2228 
L 1259 519 
L 2272 519 
Q 2781 519 3026 730 
Q 3272 941 3272 1375 
Q 3272 1813 3026 2020 
Q 2781 2228 2272 2228 
L 1259 2228 
z
M 1259 4147 
L 1259 2741 
L 2194 2741 
Q 2656 2741 2882 2914 
Q 3109 3088 3109 3444 
Q 3109 3797 2882 3972 
Q 2656 4147 2194 4147 
L 1259 4147 
z
M 628 4666 
L 2241 4666 
Q 2963 4666 3353 4366 
Q 3744 4066 3744 3513 
Q 3744 3084 3544 2831 
Q 3344 2578 2956 2516 
Q 3422 2416 3680 2098 
Q 3938 1781 3938 1306 
Q 3938 681 3513 340 
Q 3088 0 2303 0 
L 628 0 
L 628 4666 
z
" transform="scale(0.015625)"/>
      <path id="DejaVuSans-49" d="M 628 4666 
L 1259 4666 
L 1259 0 
L 628 0 
L 628 4666 
z
" transform="scale(0.015625)"/>
      <path id="DejaVuSans-5b" d="M 550 4863 
L 1875 4863 
L 1875 4416 
L 1125 4416 
L 1125 -397 
L 1875 -397 
L 1875 -844 
L 550 -844 
L 550 4863 
z
" transform="scale(0.015625)"/>
      <path id="DejaVuSans-62" d="M 3116 1747 
Q 3116 2381 2855 2742 
Q 2594 3103 2138 3103 
Q 1681 3103 1420 2742 
Q 1159 2381 1159 1747 
Q 1159 1113 1420 752 
Q 1681 391 2138 391 
Q 2594 391 2855 752 
Q 3116 1113 3116 1747 
z
M 1159 2969 
Q 1341 3281 1617 3432 
Q 1894 3584 2278 3584 
Q 2916 3584 3314 3078 
Q 3713 2572 3713 1747 
Q 3713 922 3314 415 
Q 2916 -91 2278 -91 
Q 1894 -91 1617 61 
Q 1341 213 1159 525 
L 1159 0 
L 581 0 
L 581 4863 
L 1159 4863 
L 1159 2969 
z
" transform="scale(0.015625)"/>
      <path id="DejaVuSans-69" d="M 603 3500 
L 1178 3500 
L 1178 0 
L 603 0 
L 603 3500 
z
M 603 4863 
L 1178 4863 
L 1178 4134 
L 603 4134 
L 603 4863 
z
" transform="scale(0.015625)"/>
      <path id="DejaVuSans-5d" d="M 1947 4863 
L 1947 -844 
L 622 -844 
L 622 -397 
L 1369 -397 
L 1369 4416 
L 622 4416 
L 622 4863 
L 1947 4863 
z
" transform="scale(0.015625)"/>
      <path id="DejaVuSans-28" d="M 1984 4856 
Q 1566 4138 1362 3434 
Q 1159 2731 1159 2009 
Q 1159 1288 1364 580 
Q 1569 -128 1984 -844 
L 1484 -844 
Q 1016 -109 783 600 
Q 550 1309 550 2009 
Q 550 2706 781 3412 
Q 1013 4119 1484 4856 
L 1984 4856 
z
" transform="scale(0.015625)"/>
      <path id="DejaVuSans-29" d="M 513 4856 
L 1013 4856 
Q 1481 4119 1714 3412 
Q 1947 2706 1947 2009 
Q 1947 1309 1714 600 
Q 1481 -109 1013 -844 
L 513 -844 
Q 928 -128 1133 580 
Q 1338 1288 1338 2009 
Q 1338 2731 1133 3434 
Q 928 4138 513 4856 
z
" transform="scale(0.015625)"/>
     </defs>
     <use xlink:href="#DejaVuSans-50"/>
     <use xlink:href="#DejaVuSans-65" x="56.677734"/>
     <use xlink:href="#DejaVuSans-72" x="118.201172"/>
     <use xlink:href="#DejaVuSans-66" x="159.314453"/>
     <use xlink:href="#DejaVuSans-6f" x="194.519531"/>
     <use xlink:href="#DejaVuSans-72" x="255.701172"/>
     <use xlink:href="#DejaVuSans-6d" x="295.064453"/>
     <use xlink:href="#DejaVuSans-61" x="392.476562"/>
     <use xlink:href="#DejaVuSans-6e" x="453.755859"/>
     <use xlink:href="#DejaVuSans-63" x="517.134766"/>
     <use xlink:href="#DejaVuSans-65" x="572.115234"/>
     <use xlink:href="#DejaVuSans-20" x="633.638672"/>
     <use xlink:href="#DejaVuSans-72" x="665.425781"/>
     <use xlink:href="#DejaVuSans-61" x="706.539062"/>
     <use xlink:href="#DejaVuSans-64" x="767.818359"/>
     <use xlink:href="#DejaVuSans-61" x="831.294922"/>
     <use xlink:href="#DejaVuSans-72" x="892.574219"/>
     <use xlink:href="#DejaVuSans-20" x="933.6875"/>
     <use xlink:href="#DejaVuSans-2013" x="965.474609"/>
     <use xlink:href="#DejaVuSans-20" x="1015.474609"/>
     <use xlink:href="#DejaVuSans-4c" x="1047.261719"/>
     <use xlink:href="#DejaVuSans-6c" x="1102.974609"/>
     <use xlink:href="#DejaVuSans-61" x="1130.757812"/>
     <use xlink:href="#DejaVuSans-6d" x="1192.037109"/>
     <use xlink:href="#DejaVuSans-61" x="1289.449219"/>
     <use xlink:href="#DejaVuSans-2d" x="1350.728516"/>
     <use xlink:href="#DejaVuSans-33" x="1386.8125"/>
     <use xlink:href="#DejaVuSans-2e" x="1450.435547"/>
     <use xlink:href="#DejaVuSans-31" x="1482.222656"/>
     <use xlink:href="#DejaVuSans-2d" x="1545.845703"/>
     <use xlink:href="#DejaVuSans-38" x="1581.929688"/>
     <use xlink:href="#DejaVuSans-42" x="1645.552734"/>
     <use xlink:href="#DejaVuSans-2d" x="1714.15625"/>
     <use xlink:href="#DejaVuSans-49" x="1750.240234"/>
     <use xlink:href="#DejaVuSans-6e" x="1779.732422"/>
     <use xlink:href="#DejaVuSans-73" x="1843.111328"/>
     <use xlink:href="#DejaVuSans-74" x="1895.210938"/>
     <use xlink:href="#DejaVuSans-72" x="1934.419922"/>
     <use xlink:href="#DejaVuSans-75" x="1975.533203"/>
     <use xlink:href="#DejaVuSans-63" x="2038.912109"/>
     <use xlink:href="#DejaVuSans-74" x="2093.892578"/>
     <use xlink:href="#DejaVuSans-20" x="2133.101562"/>
     <use xlink:href="#DejaVuSans-5b" x="2164.888672"/>
     <use xlink:href="#DejaVuSans-62" x="2203.902344"/>
     <use xlink:href="#DejaVuSans-61" x="2267.378906"/>
     <use xlink:href="#DejaVuSans-73" x="2328.658203"/>
     <use xlink:href="#DejaVuSans-65" x="2380.757812"/>
     <use xlink:href="#DejaVuSans-6c" x="2442.28125"/>
     <use xlink:href="#DejaVuSans-69" x="2470.064453"/>
     <use xlink:href="#DejaVuSans-6e" x="2497.847656"/>
     <use xlink:href="#DejaVuSans-65" x="2561.226562"/>
     <use xlink:href="#DejaVuSans-5d" x="2622.75"/>
     <use xlink:href="#DejaVuSans-20" x="2661.763672"/>
     <use xlink:href="#DejaVuSans-28" x="2693.550781"/>
     <use xlink:href="#DejaVuSans-61" x="2732.564453"/>
     <use xlink:href="#DejaVuSans-62" x="2793.84375"/>
     <use xlink:href="#DejaVuSans-73" x="2857.320312"/>
     <use xlink:href="#DejaVuSans-6f" x="2909.419922"/>
     <use xlink:href="#DejaVuSans-6c" x="2970.601562"/>
     <use xlink:href="#DejaVuSans-75" x="2998.384766"/>
     <use xlink:href="#DejaVuSans-74" x="3061.763672"/>
     <use xlink:href="#DejaVuSans-65" x="3100.972656"/>
     <use xlink:href="#DejaVuSans-29" x="3162.496094"/>
    </g>
   </g>
  </g>
 </g>
 <defs>
  <clipPath id="p5193ee75ff">
   <path d="M 384.36 180.84 
C 384.36 160.622158 380.377526 140.600909 372.640493 121.922059 
C 364.90346 103.243208 353.562333 86.270013 339.26616 71.97384 
C 324.969987 57.677667 307.996792 46.33654 289.317941 38.599507 
C 270.639091 30.862474 250.617842 26.88 230.4 26.88 
C 210.182158 26.88 190.160909 30.862474 171.482059 38.599507 
C 152.803208 46.33654 135.830013 57.677667 121.53384 71.97384 
C 107.237667 86.270013 95.89654 103.243208 88.159507 121.922059 
C 80.422474 140.600909 76.44 160.622158 76.44 180.84 
C 76.44 201.057842 80.422474 221.079091 88.159507 239.757941 
C 95.89654 258.436792 107.237667 275.409987 121.53384 289.70616 
C 135.830013 304.002333 152.803208 315.34346 171.482059 323.080493 
C 190.160909 330.817526 210.182158 334.8 230.4 334.8 
C 250.617842 334.8 270.639091 330.817526 289.317941 323.080493 
C 307.996792 315.34346 324.969987 304.002333 339.26616 289.70616 
C 353.562333 275.409987 364.90346 258.436792 372.640493 239.757941 
C 380.377526 221.079091 384.36 201.057842 384.36 180.84 
M 230.4 180.84 
C 230.4 180.84 230.4 180.84 230.4 180.84 
C 230.4 180.84 230.4 180.84 230.4 180.84 
C 230.4 180.84 230.4 180.84 230.4 180.84 
C 230.4 180.84 230.4 180.84 230.4 180.84 
C 230.4 180.84 230.4 180.84 230.4 180.84 
C 230.4 180.84 230.4 180.84 230.4 180.84 
C 230.4 180.84 230.4 180.84 230.4 180.84 
C 230.4 180.84 230.4 180.84 230.4 180.84 
C 230.4 180.84 230.4 180.84 230.4 180.84 
C 230.4 180.84 230.4 180.84 230.4 180.84 
C 230.4 180.84 230.4 180.84 230.4 180.84 
C 230.4 180.84 230.4 180.84 230.4 180.84 
C 230.4 180.84 230.4 180.84 230.4 180.84 
C 230.4 180.84 230.4 180.84 230.4 180.84 
C 230.4 180.84 230.4 180.84 230.4 180.84 
C 230.4 180.84 230.4 180.84 230.4 180.84 
z
"/>
  </clipPath>
 </defs>
</svg>
