<?xml version="1.0" encoding="utf-8" standalone="no"?>
<!DOCTYPE svg PUBLIC "-//W3C//DTD SVG 1.1//EN"
  "http://www.w3.org/Graphics/SVG/1.1/DTD/svg11.dtd">
<svg xmlns:xlink="http://www.w3.org/1999/xlink" width="460.8pt" height="345.6pt" viewBox="0 0 460.8 345.6" xmlns="http://www.w3.org/2000/svg" version="1.1">
 <metadata>
  <rdf:RDF xmlns:dc="http://purl.org/dc/elements/1.1/" xmlns:cc="http://creativecommons.org/ns#" xmlns:rdf="http://www.w3.org/1999/02/22-rdf-syntax-ns#">
   <cc:Work>
    <dc:type rdf:resource="http://purl.org/dc/dcmitype/StillImage"/>
    <dc:date>2025-10-01T16:20:31.567773</dc:date>
    <dc:format>image/svg+xml</dc:format>
    <dc:creator>
     <cc:Agent>
      <dc:title>Matplotlib v3.9.0, https://matplotlib.org/</dc:title>
     </cc:Agent>
    </dc:creator>
   </cc:Work>
  </rdf:RDF>
 </metadata>
 <defs>
  <style type="text/css">*{stroke-linejoin: round; stroke-linecap: butt}</style>
 </defs>
 <g id="figure_1">
  <g id="patch_1">
   <path d="M 0 345.6 
L 460.8 345.6 
L 460.8 0 
L 0 0 
z
" style="fill: #ffffff"/>
  </g>
  <g id="axes_1">
   <g id="patch_2">
    <path d="M 365.32 180.84 
C 365.32 163.122468 361.830033 145.577217 355.049827 129.208351 
C 348.269621 112.839486 338.331034 97.96534 325.802847 85.437153 
C 313.27466 72.908966 298.400514 62.970379 282.031649 56.190173 
C 265.662783 49.409967 248.117532 45.92 230.4 45.92 
C 212.682468 45.92 195.137217 49.409967 178.768351 56.190173 
C 162.399486 62.970379 147.52534 72.908966 134.997153 85.437153 
C 122.468966 97.96534 112.530379 112.839486 105.750173 129.208351 
C 98.969967 145.577217 95.48 163.122468 95.48 180.84 
C 95.48 198.557532 98.969967 216.102783 105.750173 232.471649 
C 112.530379 248.840514 122.468966 263.71466 134.997153 276.242847 
C 147.52534 288.771034 162.399486 298.709621 178.768351 305.489827 
C 195.137217 312.270033 212.682468 315.76 230.4 315.76 
C 248.117532 315.76 265.662783 312.270033 282.031649 305.489827 
C 298.400514 298.709621 313.27466 288.771034 325.802847 276.242847 
C 338.331034 263.71466 348.269621 248.840514 355.049827 232.471649 
C 361.830033 216.102783 365.32 198.557532 365.32 180.84 
M 230.4 180.84 
C 230.4 180.84 230.4 180.84 230.4 180.84 
C 230.4 180.84 230.4 180.84 230.4 180.84 
C 230.4 180.84 230.4 180.84 230.4 180.84 
C 230.4 180.84 230.4 180.84 230.4 180.84 
C 230.4 180.84 230.4 180.84 230.4 180.84 
C 230.4 180.84 230.4 180.84 230.4 180.84 
C 230.4 180.84 230.4 180.84 230.4 180.84 
C 230.4 180.84 230.4 180.84 230.4 180.84 
C 230.4 180.84 230.4 180.84 230.4 180.84 
C 230.4 180.84 230.4 180.84 230.4 180.84 
C 230.4 180.84 230.4 180.84 230.4 180.84 
C 230.4 180.84 230.4 180.84 230.4 180.84 
C 230.4 180.84 230.4 180.84 230.4 180.84 
C 230.4 180.84 230.4 180.84 230.4 180.84 
C 230.4 180.84 230.4 180.84 230.4 180.84 
C 230.4 180.84 230.4 180.84 230.4 180.84 
z
" style="fill: #ffffff"/>
   </g>
   <g id="patch_3">
    <path d="M 358.895238 180.84 
L 230.4 180.584288 
L 217.230836 180.84 
L 230.4 180.84 
z
" clip-path="url(#p03886c93a3)" style="fill: #1f77b4; opacity: 0.15"/>
   </g>
   <g id="matplotlib.axis_1">
    <g id="xtick_1">
     <g id="line2d_1">
      <path d="M 230.4 180.84 
L 365.32 180.84 
" clip-path="url(#p03886c93a3)" style="fill: none; stroke: #b0b0b0; stroke-width: 0.8; stroke-linecap: square"/>
     </g>
     <g id="text_1">
      <!-- rate_WA -->
      <g transform="translate(358.574687 183.32125) scale(0.1 -0.1)">
       <defs>
        <path id="DejaVuSans-72" d="M 2631 2963 
Q 2534 3019 2420 3045 
Q 2306 3072 2169 3072 
Q 1681 3072 1420 2755 
Q 1159 2438 1159 1844 
L 1159 0 
L 581 0 
L 581 3500 
L 1159 3500 
L 1159 2956 
Q 1341 3275 1631 3429 
Q 1922 3584 2338 3584 
Q 2397 3584 2469 3576 
Q 2541 3569 2628 3553 
L 2631 2963 
z
" transform="scale(0.015625)"/>
        <path id="DejaVuSans-61" d="M 2194 1759 
Q 1497 1759 1228 1600 
Q 959 1441 959 1056 
Q 959 750 1161 570 
Q 1363 391 1709 391 
Q 2188 391 2477 730 
Q 2766 1069 2766 1631 
L 2766 1759 
L 2194 1759 
z
M 3341 1997 
L 3341 0 
L 2766 0 
L 2766 531 
Q 2569 213 2275 61 
Q 1981 -91 1556 -91 
Q 1019 -91 701 211 
Q 384 513 384 1019 
Q 384 1609 779 1909 
Q 1175 2209 1959 2209 
L 2766 2209 
L 2766 2266 
Q 2766 2663 2505 2880 
Q 2244 3097 1772 3097 
Q 1472 3097 1187 3025 
Q 903 2953 641 2809 
L 641 3341 
Q 956 3463 1253 3523 
Q 1550 3584 1831 3584 
Q 2591 3584 2966 3190 
Q 3341 2797 3341 1997 
z
" transform="scale(0.015625)"/>
        <path id="DejaVuSans-74" d="M 1172 4494 
L 1172 3500 
L 2356 3500 
L 2356 3053 
L 1172 3053 
L 1172 1153 
Q 1172 725 1289 603 
Q 1406 481 1766 481 
L 2356 481 
L 2356 0 
L 1766 0 
Q 1100 0 847 248 
Q 594 497 594 1153 
L 594 3053 
L 172 3053 
L 172 3500 
L 594 3500 
L 594 4494 
L 1172 4494 
z
" transform="scale(0.015625)"/>
        <path id="DejaVuSans-65" d="M 3597 1894 
L 3597 1613 
L 953 1613 
Q 991 1019 1311 708 
Q 1631 397 2203 397 
Q 2534 397 2845 478 
Q 3156 559 3463 722 
L 3463 178 
Q 3153 47 2828 -22 
Q 2503 -91 2169 -91 
Q 1331 -91 842 396 
Q 353 884 353 1716 
Q 353 2575 817 3079 
Q 1281 3584 2069 3584 
Q 2775 3584 3186 3129 
Q 3597 2675 3597 1894 
z
M 3022 2063 
Q 3016 2534 2758 2815 
Q 2500 3097 2075 3097 
Q 1594 3097 1305 2825 
Q 1016 2553 972 2059 
L 3022 2063 
z
" transform="scale(0.015625)"/>
        <path id="DejaVuSans-5f" d="M 3263 -1063 
L 3263 -1509 
L -63 -1509 
L -63 -1063 
L 3263 -1063 
z
" transform="scale(0.015625)"/>
        <path id="DejaVuSans-57" d="M 213 4666 
L 850 4666 
L 1831 722 
L 2809 4666 
L 3519 4666 
L 4500 722 
L 5478 4666 
L 6119 4666 
L 4947 0 
L 4153 0 
L 3169 4050 
L 2175 0 
L 1381 0 
L 213 4666 
z
" transform="scale(0.015625)"/>
        <path id="DejaVuSans-41" d="M 2188 4044 
L 1331 1722 
L 3047 1722 
L 2188 4044 
z
M 1831 4666 
L 2547 4666 
L 4325 0 
L 3669 0 
L 3244 1197 
L 1141 1197 
L 716 0 
L 50 0 
L 1831 4666 
z
" transform="scale(0.015625)"/>
       </defs>
       <use xlink:href="#DejaVuSans-72"/>
       <use xlink:href="#DejaVuSans-61" x="41.113281"/>
       <use xlink:href="#DejaVuSans-74" x="102.392578"/>
       <use xlink:href="#DejaVuSans-65" x="141.601562"/>
       <use xlink:href="#DejaVuSans-5f" x="203.125"/>
       <use xlink:href="#DejaVuSans-57" x="253.125"/>
       <use xlink:href="#DejaVuSans-41" x="346.501953"/>
      </g>
     </g>
    </g>
    <g id="xtick_2">
     <g id="line2d_2">
      <path d="M 230.4 180.84 
L 230.4 45.92 
" clip-path="url(#p03886c93a3)" style="fill: none; stroke: #b0b0b0; stroke-width: 0.8; stroke-linecap: square"/>
     </g>
     <g id="text_2">
      <!-- rate_TLE -->
      <g transform="translate(208.744531 34.40125) scale(0.1 -0.1)">
       <defs>
        <path id="DejaVuSans-54" d="M -19 4666 
L 3928 4666 
L 3928 4134 
L 2272 4134 
L 2272 0 
L 1638 0 
L 1638 4134 
L -19 4134 
L -19 4666 
z
" transform="scale(0.015625)"/>
        <path id="DejaVuSans-4c" d="M 628 4666 
L 1259 4666 
L 1259 531 
L 3531 531 
L 3531 0 
L 628 0 
L 628 4666 
z
" transform="scale(0.015625)"/>
        <path id="DejaVuSans-45" d="M 628 4666 
L 3578 4666 
L 3578 4134 
L 1259 4134 
L 1259 2753 
L 3481 2753 
L 3481 2222 
L 1259 2222 
L 1259 531 
L 3634 531 
L 3634 0 
L 628 0 
L 628 4666 
z
" transform="scale(0.015625)"/>
       </defs>
       <use xlink:href="#DejaVuSans-72"/>
       <use xlink:href="#DejaVuSans-61" x="41.113281"/>
       <use xlink:href="#DejaVuSans-74" x="102.392578"/>
       <use xlink:href="#DejaVuSans-65" x="141.601562"/>
       <use xlink:href="#DejaVuSans-5f" x="203.125"/>
       <use xlink:href="#DejaVuSans-54" x="253.125"/>
       <use xlink:href="#DejaVuSans-4c" x="314.208984"/>
       <use xlink:href="#DejaVuSans-45" x="369.921875"/>
      </g>
     </g>
    </g>
    <g id="xtick_3">
     <g id="line2d_3">
      <path d="M 230.4 180.84 
L 95.48 180.84 
" clip-path="url(#p03886c93a3)" style="fill: none; stroke: #b0b0b0; stroke-width: 0.8; stroke-linecap: square"/>
     </g>
     <g id="text_3">
      <!-- rate_RE -->
      <g transform="translate(62.190156 183.32125) scale(0.1 -0.1)">
       <defs>
        <path id="DejaVuSans-52" d="M 2841 2188 
Q 3044 2119 3236 1894 
Q 3428 1669 3622 1275 
L 4263 0 
L 3584 0 
L 2988 1197 
Q 2756 1666 2539 1819 
Q 2322 1972 1947 1972 
L 1259 1972 
L 1259 0 
L 628 0 
L 628 4666 
L 2053 4666 
Q 2853 4666 3247 4331 
Q 3641 3997 3641 3322 
Q 3641 2881 3436 2590 
Q 3231 2300 2841 2188 
z
M 1259 4147 
L 1259 2491 
L 2053 2491 
Q 2509 2491 2742 2702 
Q 2975 2913 2975 3322 
Q 2975 3731 2742 3939 
Q 2509 4147 2053 4147 
L 1259 4147 
z
" transform="scale(0.015625)"/>
       </defs>
       <use xlink:href="#DejaVuSans-72"/>
       <use xlink:href="#DejaVuSans-61" x="41.113281"/>
       <use xlink:href="#DejaVuSans-74" x="102.392578"/>
       <use xlink:href="#DejaVuSans-65" x="141.601562"/>
       <use xlink:href="#DejaVuSans-5f" x="203.125"/>
       <use xlink:href="#DejaVuSans-52" x="253.125"/>
       <use xlink:href="#DejaVuSans-45" x="322.607422"/>
      </g>
     </g>
    </g>
    <g id="xtick_4">
     <g id="line2d_4">
      <path d="M 230.4 180.84 
L 230.4 315.76 
" clip-path="url(#p03886c93a3)" style="fill: none; stroke: #b0b0b0; stroke-width: 0.8; stroke-linecap: square"/>
     </g>
     <g id="text_4">
      <!-- rate_CE -->
      <g transform="translate(211.092969 332.292031) scale(0.1 -0.1)">
       <defs>
        <path id="DejaVuSans-43" d="M 4122 4306 
L 4122 3641 
Q 3803 3938 3442 4084 
Q 3081 4231 2675 4231 
Q 1875 4231 1450 3742 
Q 1025 3253 1025 2328 
Q 1025 1406 1450 917 
Q 1875 428 2675 428 
Q 3081 428 3442 575 
Q 3803 722 4122 1019 
L 4122 359 
Q 3791 134 3420 21 
Q 3050 -91 2638 -91 
Q 1578 -91 968 557 
Q 359 1206 359 2328 
Q 359 3453 968 4101 
Q 1578 4750 2638 4750 
Q 3056 4750 3426 4639 
Q 3797 4528 4122 4306 
z
" transform="scale(0.015625)"/>
       </defs>
       <use xlink:href="#DejaVuSans-72"/>
       <use xlink:href="#DejaVuSans-61" x="41.113281"/>
       <use xlink:href="#DejaVuSans-74" x="102.392578"/>
       <use xlink:href="#DejaVuSans-65" x="141.601562"/>
       <use xlink:href="#DejaVuSans-5f" x="203.125"/>
       <use xlink:href="#DejaVuSans-43" x="253.125"/>
       <use xlink:href="#DejaVuSans-45" x="322.949219"/>
      </g>
     </g>
    </g>
   </g>
   <g id="matplotlib.axis_2">
    <g id="ytick_1">
     <g id="line2d_5">
      <path d="M 249.578394 180.84 
C 249.578394 178.321516 249.082307 175.827522 248.118525 173.500746 
C 247.154744 171.173971 245.742009 169.059665 243.961172 167.278828 
C 242.180335 165.497991 240.066029 164.085256 237.739254 163.121475 
C 235.412478 162.157693 232.918484 161.661606 230.4 161.661606 
C 227.881516 161.661606 225.387522 162.157693 223.060746 163.121475 
C 220.733971 164.085256 218.619665 165.497991 216.838828 167.278828 
C 215.057991 169.059665 213.645256 171.173971 212.681475 173.500746 
C 211.717693 175.827522 211.221606 178.321516 211.221606 180.84 
C 211.221606 183.358484 211.717693 185.852478 212.681475 188.179254 
C 213.645256 190.506029 215.057991 192.620335 216.838828 194.401172 
C 218.619665 196.182009 220.733971 197.594744 223.060746 198.558525 
C 225.387522 199.522307 227.881516 200.018394 230.4 200.018394 
C 232.918484 200.018394 235.412478 199.522307 237.739254 198.558525 
C 240.066029 197.594744 242.180335 196.182009 243.961172 194.401172 
C 245.742009 192.620335 247.154744 190.506029 248.118525 188.179254 
C 249.082307 185.852478 249.578394 183.358484 249.578394 180.84 
" clip-path="url(#p03886c93a3)" style="fill: none; stroke: #b0b0b0; stroke-width: 0.8; stroke-linecap: square"/>
     </g>
     <g id="text_5">
      <!-- 0.05 -->
      <g transform="translate(230.4 159.581919) scale(0.1 -0.1)">
       <defs>
        <path id="DejaVuSans-30" d="M 2034 4250 
Q 1547 4250 1301 3770 
Q 1056 3291 1056 2328 
Q 1056 1369 1301 889 
Q 1547 409 2034 409 
Q 2525 409 2770 889 
Q 3016 1369 3016 2328 
Q 3016 3291 2770 3770 
Q 2525 4250 2034 4250 
z
M 2034 4750 
Q 2819 4750 3233 4129 
Q 3647 3509 3647 2328 
Q 3647 1150 3233 529 
Q 2819 -91 2034 -91 
Q 1250 -91 836 529 
Q 422 1150 422 2328 
Q 422 3509 836 4129 
Q 1250 4750 2034 4750 
z
" transform="scale(0.015625)"/>
        <path id="DejaVuSans-2e" d="M 684 794 
L 1344 794 
L 1344 0 
L 684 0 
L 684 794 
z
" transform="scale(0.015625)"/>
        <path id="DejaVuSans-35" d="M 691 4666 
L 3169 4666 
L 3169 4134 
L 1269 4134 
L 1269 2991 
Q 1406 3038 1543 3061 
Q 1681 3084 1819 3084 
Q 2600 3084 3056 2656 
Q 3513 2228 3513 1497 
Q 3513 744 3044 326 
Q 2575 -91 1722 -91 
Q 1428 -91 1123 -41 
Q 819 9 494 109 
L 494 744 
Q 775 591 1075 516 
Q 1375 441 1709 441 
Q 2250 441 2565 725 
Q 2881 1009 2881 1497 
Q 2881 1984 2565 2268 
Q 2250 2553 1709 2553 
Q 1456 2553 1204 2497 
Q 953 2441 691 2322 
L 691 4666 
z
" transform="scale(0.015625)"/>
       </defs>
       <use xlink:href="#DejaVuSans-30"/>
       <use xlink:href="#DejaVuSans-2e" x="63.623047"/>
       <use xlink:href="#DejaVuSans-30" x="95.410156"/>
       <use xlink:href="#DejaVuSans-35" x="159.033203"/>
      </g>
     </g>
    </g>
    <g id="ytick_2">
     <g id="line2d_6">
      <path d="M 268.756787 180.84 
C 268.756787 175.803033 267.764615 170.815044 265.837051 166.161493 
C 263.909487 161.507942 261.084018 157.279329 257.522345 153.717655 
C 253.960671 150.155982 249.732058 147.330513 245.078507 145.402949 
C 240.424956 143.475385 235.436967 142.483213 230.4 142.483213 
C 225.363033 142.483213 220.375044 143.475385 215.721493 145.402949 
C 211.067942 147.330513 206.839329 150.155982 203.277655 153.717655 
C 199.715982 157.279329 196.890513 161.507942 194.962949 166.161493 
C 193.035385 170.815044 192.043213 175.803033 192.043213 180.84 
C 192.043213 185.876967 193.035385 190.864956 194.962949 195.518507 
C 196.890513 200.172058 199.715982 204.400671 203.277655 207.962345 
C 206.839329 211.524018 211.067942 214.349487 215.721493 216.277051 
C 220.375044 218.204615 225.363033 219.196787 230.4 219.196787 
C 235.436967 219.196787 240.424956 218.204615 245.078507 216.277051 
C 249.732058 214.349487 253.960671 211.524018 257.522345 207.962345 
C 261.084018 204.400671 263.909487 200.172058 265.837051 195.518507 
C 267.764615 190.864956 268.756787 185.876967 268.756787 180.84 
" clip-path="url(#p03886c93a3)" style="fill: none; stroke: #b0b0b0; stroke-width: 0.8; stroke-linecap: square"/>
     </g>
     <g id="text_6">
      <!-- 0.10 -->
      <g transform="translate(230.4 140.403525) scale(0.1 -0.1)">
       <defs>
        <path id="DejaVuSans-31" d="M 794 531 
L 1825 531 
L 1825 4091 
L 703 3866 
L 703 4441 
L 1819 4666 
L 2450 4666 
L 2450 531 
L 3481 531 
L 3481 0 
L 794 0 
L 794 531 
z
" transform="scale(0.015625)"/>
       </defs>
       <use xlink:href="#DejaVuSans-30"/>
       <use xlink:href="#DejaVuSans-2e" x="63.623047"/>
       <use xlink:href="#DejaVuSans-31" x="95.410156"/>
       <use xlink:href="#DejaVuSans-30" x="159.033203"/>
      </g>
     </g>
    </g>
    <g id="ytick_3">
     <g id="line2d_7">
      <path d="M 287.935181 180.84 
C 287.935181 173.284549 286.446922 165.802566 283.555576 158.822239 
C 280.664231 151.841913 276.426027 145.498994 271.083517 140.156483 
C 265.741006 134.813973 259.398087 130.575769 252.417761 127.684424 
C 245.437434 124.793078 237.955451 123.304819 230.4 123.304819 
C 222.844549 123.304819 215.362566 124.793078 208.382239 127.684424 
C 201.401913 130.575769 195.058994 134.813973 189.716483 140.156483 
C 184.373973 145.498994 180.135769 151.841913 177.244424 158.822239 
C 174.353078 165.802566 172.864819 173.284549 172.864819 180.84 
C 172.864819 188.395451 174.353078 195.877434 177.244424 202.857761 
C 180.135769 209.838087 184.373973 216.181006 189.716483 221.523517 
C 195.058994 226.866027 201.401913 231.104231 208.382239 233.995576 
C 215.362566 236.886922 222.844549 238.375181 230.4 238.375181 
C 237.955451 238.375181 245.437434 236.886922 252.417761 233.995576 
C 259.398087 231.104231 265.741006 226.866027 271.083517 221.523517 
C 276.426027 216.181006 280.664231 209.838087 283.555576 202.857761 
C 286.446922 195.877434 287.935181 188.395451 287.935181 180.84 
" clip-path="url(#p03886c93a3)" style="fill: none; stroke: #b0b0b0; stroke-width: 0.8; stroke-linecap: square"/>
     </g>
     <g id="text_7">
      <!-- 0.15 -->
      <g transform="translate(230.4 121.225131) scale(0.1 -0.1)">
       <use xlink:href="#DejaVuSans-30"/>
       <use xlink:href="#DejaVuSans-2e" x="63.623047"/>
       <use xlink:href="#DejaVuSans-31" x="95.410156"/>
       <use xlink:href="#DejaVuSans-35" x="159.033203"/>
      </g>
     </g>
    </g>
    <g id="ytick_4">
     <g id="line2d_8">
      <path d="M 307.113575 180.84 
C 307.113575 170.766066 305.12923 160.790088 301.274102 151.482986 
C 297.418974 142.175884 291.768036 133.718658 284.644689 126.595311 
C 277.521342 119.471964 269.064116 113.821026 259.757014 109.965898 
C 250.449912 106.11077 240.473934 104.126425 230.4 104.126425 
C 220.326066 104.126425 210.350088 106.11077 201.042986 109.965898 
C 191.735884 113.821026 183.278658 119.471964 176.155311 126.595311 
C 169.031964 133.718658 163.381026 142.175884 159.525898 151.482986 
C 155.67077 160.790088 153.686425 170.766066 153.686425 180.84 
C 153.686425 190.913934 155.67077 200.889912 159.525898 210.197014 
C 163.381026 219.504116 169.031964 227.961342 176.155311 235.084689 
C 183.278658 242.208036 191.735884 247.858974 201.042986 251.714102 
C 210.350088 255.56923 220.326066 257.553575 230.4 257.553575 
C 240.473934 257.553575 250.449912 255.56923 259.757014 251.714102 
C 269.064116 247.858974 277.521342 242.208036 284.644689 235.084689 
C 291.768036 227.961342 297.418974 219.504116 301.274102 210.197014 
C 305.12923 200.889912 307.113575 190.913934 307.113575 180.84 
" clip-path="url(#p03886c93a3)" style="fill: none; stroke: #b0b0b0; stroke-width: 0.8; stroke-linecap: square"/>
     </g>
     <g id="text_8">
      <!-- 0.20 -->
      <g transform="translate(230.4 102.046738) scale(0.1 -0.1)">
       <defs>
        <path id="DejaVuSans-32" d="M 1228 531 
L 3431 531 
L 3431 0 
L 469 0 
L 469 531 
Q 828 903 1448 1529 
Q 2069 2156 2228 2338 
Q 2531 2678 2651 2914 
Q 2772 3150 2772 3378 
Q 2772 3750 2511 3984 
Q 2250 4219 1831 4219 
Q 1534 4219 1204 4116 
Q 875 4013 500 3803 
L 500 4441 
Q 881 4594 1212 4672 
Q 1544 4750 1819 4750 
Q 2544 4750 2975 4387 
Q 3406 4025 3406 3419 
Q 3406 3131 3298 2873 
Q 3191 2616 2906 2266 
Q 2828 2175 2409 1742 
Q 1991 1309 1228 531 
z
" transform="scale(0.015625)"/>
       </defs>
       <use xlink:href="#DejaVuSans-30"/>
       <use xlink:href="#DejaVuSans-2e" x="63.623047"/>
       <use xlink:href="#DejaVuSans-32" x="95.410156"/>
       <use xlink:href="#DejaVuSans-30" x="159.033203"/>
      </g>
     </g>
    </g>
    <g id="ytick_5">
     <g id="line2d_9">
      <path d="M 326.291969 180.84 
C 326.291969 168.247582 323.811537 155.777609 318.992627 144.143732 
C 314.173718 132.509855 307.110045 121.938323 298.205861 113.034139 
C 289.301677 104.129955 278.730145 97.066282 267.096268 92.247373 
C 255.462391 87.428463 242.992418 84.948031 230.4 84.948031 
C 217.807582 84.948031 205.337609 87.428463 193.703732 92.247373 
C 182.069855 97.066282 171.498323 104.129955 162.594139 113.034139 
C 153.689955 121.938323 146.626282 132.509855 141.807373 144.143732 
C 136.988463 155.777609 134.508031 168.247582 134.508031 180.84 
C 134.508031 193.432418 136.988463 205.902391 141.807373 217.536268 
C 146.626282 229.170145 153.689955 239.741677 162.594139 248.645861 
C 171.498323 257.550045 182.069855 264.613718 193.703732 269.432627 
C 205.337609 274.251537 217.807582 276.731969 230.4 276.731969 
C 242.992418 276.731969 255.462391 274.251537 267.096268 269.432627 
C 278.730145 264.613718 289.301677 257.550045 298.205861 248.645861 
C 307.110045 239.741677 314.173718 229.170145 318.992627 217.536268 
C 323.811537 205.902391 326.291969 193.432418 326.291969 180.84 
" clip-path="url(#p03886c93a3)" style="fill: none; stroke: #b0b0b0; stroke-width: 0.8; stroke-linecap: square"/>
     </g>
     <g id="text_9">
      <!-- 0.25 -->
      <g transform="translate(230.4 82.868344) scale(0.1 -0.1)">
       <use xlink:href="#DejaVuSans-30"/>
       <use xlink:href="#DejaVuSans-2e" x="63.623047"/>
       <use xlink:href="#DejaVuSans-32" x="95.410156"/>
       <use xlink:href="#DejaVuSans-35" x="159.033203"/>
      </g>
     </g>
    </g>
    <g id="ytick_6">
     <g id="line2d_10">
      <path d="M 345.470362 180.84 
C 345.470362 165.729098 342.493844 150.765131 336.711153 136.804479 
C 330.928461 122.843826 322.452055 110.157987 311.767034 99.472966 
C 301.082013 88.787945 288.396174 80.311539 274.435521 74.528847 
C 260.474869 68.746156 245.510902 65.769638 230.4 65.769638 
C 215.289098 65.769638 200.325131 68.746156 186.364479 74.528847 
C 172.403826 80.311539 159.717987 88.787945 149.032966 99.472966 
C 138.347945 110.157987 129.871539 122.843826 124.088847 136.804479 
C 118.306156 150.765131 115.329638 165.729098 115.329638 180.84 
C 115.329638 195.950902 118.306156 210.914869 124.088847 224.875521 
C 129.871539 238.836174 138.347945 251.522013 149.032966 262.207034 
C 159.717987 272.892055 172.403826 281.368461 186.364479 287.151153 
C 200.325131 292.933844 215.289098 295.910362 230.4 295.910362 
C 245.510902 295.910362 260.474869 292.933844 274.435521 287.151153 
C 288.396174 281.368461 301.082013 272.892055 311.767034 262.207034 
C 322.452055 251.522013 330.928461 238.836174 336.711153 224.875521 
C 342.493844 210.914869 345.470362 195.950902 345.470362 180.84 
" clip-path="url(#p03886c93a3)" style="fill: none; stroke: #b0b0b0; stroke-width: 0.8; stroke-linecap: square"/>
     </g>
     <g id="text_10">
      <!-- 0.30 -->
      <g transform="translate(230.4 63.68995) scale(0.1 -0.1)">
       <defs>
        <path id="DejaVuSans-33" d="M 2597 2516 
Q 3050 2419 3304 2112 
Q 3559 1806 3559 1356 
Q 3559 666 3084 287 
Q 2609 -91 1734 -91 
Q 1441 -91 1130 -33 
Q 819 25 488 141 
L 488 750 
Q 750 597 1062 519 
Q 1375 441 1716 441 
Q 2309 441 2620 675 
Q 2931 909 2931 1356 
Q 2931 1769 2642 2001 
Q 2353 2234 1838 2234 
L 1294 2234 
L 1294 2753 
L 1863 2753 
Q 2328 2753 2575 2939 
Q 2822 3125 2822 3475 
Q 2822 3834 2567 4026 
Q 2313 4219 1838 4219 
Q 1578 4219 1281 4162 
Q 984 4106 628 3988 
L 628 4550 
Q 988 4650 1302 4700 
Q 1616 4750 1894 4750 
Q 2613 4750 3031 4423 
Q 3450 4097 3450 3541 
Q 3450 3153 3228 2886 
Q 3006 2619 2597 2516 
z
" transform="scale(0.015625)"/>
       </defs>
       <use xlink:href="#DejaVuSans-30"/>
       <use xlink:href="#DejaVuSans-2e" x="63.623047"/>
       <use xlink:href="#DejaVuSans-33" x="95.410156"/>
       <use xlink:href="#DejaVuSans-30" x="159.033203"/>
      </g>
     </g>
    </g>
    <g id="ytick_7">
     <g id="line2d_11">
      <path d="M 364.648756 180.84 
C 364.648756 163.210615 361.176152 145.752653 354.429678 129.465225 
C 347.683205 113.177797 337.794064 98.377652 325.328206 85.911794 
C 312.862348 73.445936 298.062203 63.556795 281.774775 56.810322 
C 265.487347 50.063848 248.029385 46.591244 230.4 46.591244 
C 212.770615 46.591244 195.312653 50.063848 179.025225 56.810322 
C 162.737797 63.556795 147.937652 73.445936 135.471794 85.911794 
C 123.005936 98.377652 113.116795 113.177797 106.370322 129.465225 
C 99.623848 145.752653 96.151244 163.210615 96.151244 180.84 
C 96.151244 198.469385 99.623848 215.927347 106.370322 232.214775 
C 113.116795 248.502203 123.005936 263.302348 135.471794 275.768206 
C 147.937652 288.234064 162.737797 298.123205 179.025225 304.869678 
C 195.312653 311.616152 212.770615 315.088756 230.4 315.088756 
C 248.029385 315.088756 265.487347 311.616152 281.774775 304.869678 
C 298.062203 298.123205 312.862348 288.234064 325.328206 275.768206 
C 337.794064 263.302348 347.683205 248.502203 354.429678 232.214775 
C 361.176152 215.927347 364.648756 198.469385 364.648756 180.84 
" clip-path="url(#p03886c93a3)" style="fill: none; stroke: #b0b0b0; stroke-width: 0.8; stroke-linecap: square"/>
     </g>
     <g id="text_11">
      <!-- 0.35 -->
      <g transform="translate(230.4 44.511556) scale(0.1 -0.1)">
       <use xlink:href="#DejaVuSans-30"/>
       <use xlink:href="#DejaVuSans-2e" x="63.623047"/>
       <use xlink:href="#DejaVuSans-33" x="95.410156"/>
       <use xlink:href="#DejaVuSans-35" x="159.033203"/>
      </g>
     </g>
    </g>
   </g>
   <g id="line2d_12">
    <path d="M 358.895238 180.84 
L 230.4 180.584288 
L 217.230836 180.84 
L 230.4 180.84 
L 358.895238 180.84 
" clip-path="url(#p03886c93a3)" style="fill: none; stroke: #1f77b4; stroke-width: 2; stroke-linecap: square"/>
   </g>
   <g id="patch_4">
    <path d="M 365.32 180.84 
C 365.32 163.122468 361.830033 145.577217 355.049827 129.208351 
C 348.269621 112.839486 338.331034 97.96534 325.802847 85.437153 
C 313.27466 72.908966 298.400514 62.970379 282.031649 56.190173 
C 265.662783 49.409967 248.117532 45.92 230.4 45.92 
C 212.682468 45.92 195.137217 49.409967 178.768351 56.190173 
C 162.399486 62.970379 147.52534 72.908966 134.997153 85.437153 
C 122.468966 97.96534 112.530379 112.839486 105.750173 129.208351 
C 98.969967 145.577217 95.48 163.122468 95.48 180.84 
C 95.48 198.557532 98.969967 216.102783 105.750173 232.471649 
C 112.530379 248.840514 122.468966 263.71466 134.997153 276.242847 
C 147.52534 288.771034 162.399486 298.709621 178.768351 305.489827 
C 195.137217 312.270033 212.682468 315.76 230.4 315.76 
C 248.117532 315.76 265.662783 312.270033 282.031649 305.489827 
C 298.400514 298.709621 313.27466 288.771034 325.802847 276.242847 
C 338.331034 263.71466 348.269621 248.840514 355.049827 232.471649 
C 361.830033 216.102783 365.32 198.557532 365.32 180.84 
" style="fill: none; stroke: #000000; stroke-width: 0.8; stroke-linejoin: miter; stroke-linecap: square"/>
   </g>
   <g id="text_12">
    <!-- Failure composition radar – Llama-3.1-8B-Instruct [CoT] (absolute) -->
    <g transform="translate(31.708125 21.080937) scale(0.12 -0.12)">
     <defs>
      <path id="DejaVuSans-46" d="M 628 4666 
L 3309 4666 
L 3309 4134 
L 1259 4134 
L 1259 2759 
L 3109 2759 
L 3109 2228 
L 1259 2228 
L 1259 0 
L 628 0 
L 628 4666 
z
" transform="scale(0.015625)"/>
      <path id="DejaVuSans-69" d="M 603 3500 
L 1178 3500 
L 1178 0 
L 603 0 
L 603 3500 
z
M 603 4863 
L 1178 4863 
L 1178 4134 
L 603 4134 
L 603 4863 
z
" transform="scale(0.015625)"/>
      <path id="DejaVuSans-6c" d="M 603 4863 
L 1178 4863 
L 1178 0 
L 603 0 
L 603 4863 
z
" transform="scale(0.015625)"/>
      <path id="DejaVuSans-75" d="M 544 1381 
L 544 3500 
L 1119 3500 
L 1119 1403 
Q 1119 906 1312 657 
Q 1506 409 1894 409 
Q 2359 409 2629 706 
Q 2900 1003 2900 1516 
L 2900 3500 
L 3475 3500 
L 3475 0 
L 2900 0 
L 2900 538 
Q 2691 219 2414 64 
Q 2138 -91 1772 -91 
Q 1169 -91 856 284 
Q 544 659 544 1381 
z
M 1991 3584 
L 1991 3584 
z
" transform="scale(0.015625)"/>
      <path id="DejaVuSans-20" transform="scale(0.015625)"/>
      <path id="DejaVuSans-63" d="M 3122 3366 
L 3122 2828 
Q 2878 2963 2633 3030 
Q 2388 3097 2138 3097 
Q 1578 3097 1268 2742 
Q 959 2388 959 1747 
Q 959 1106 1268 751 
Q 1578 397 2138 397 
Q 2388 397 2633 464 
Q 2878 531 3122 666 
L 3122 134 
Q 2881 22 2623 -34 
Q 2366 -91 2075 -91 
Q 1284 -91 818 406 
Q 353 903 353 1747 
Q 353 2603 823 3093 
Q 1294 3584 2113 3584 
Q 2378 3584 2631 3529 
Q 2884 3475 3122 3366 
z
" transform="scale(0.015625)"/>
      <path id="DejaVuSans-6f" d="M 1959 3097 
Q 1497 3097 1228 2736 
Q 959 2375 959 1747 
Q 959 1119 1226 758 
Q 1494 397 1959 397 
Q 2419 397 2687 759 
Q 2956 1122 2956 1747 
Q 2956 2369 2687 2733 
Q 2419 3097 1959 3097 
z
M 1959 3584 
Q 2709 3584 3137 3096 
Q 3566 2609 3566 1747 
Q 3566 888 3137 398 
Q 2709 -91 1959 -91 
Q 1206 -91 779 398 
Q 353 888 353 1747 
Q 353 2609 779 3096 
Q 1206 3584 1959 3584 
z
" transform="scale(0.015625)"/>
      <path id="DejaVuSans-6d" d="M 3328 2828 
Q 3544 3216 3844 3400 
Q 4144 3584 4550 3584 
Q 5097 3584 5394 3201 
Q 5691 2819 5691 2113 
L 5691 0 
L 5113 0 
L 5113 2094 
Q 5113 2597 4934 2840 
Q 4756 3084 4391 3084 
Q 3944 3084 3684 2787 
Q 3425 2491 3425 1978 
L 3425 0 
L 2847 0 
L 2847 2094 
Q 2847 2600 2669 2842 
Q 2491 3084 2119 3084 
Q 1678 3084 1418 2786 
Q 1159 2488 1159 1978 
L 1159 0 
L 581 0 
L 581 3500 
L 1159 3500 
L 1159 2956 
Q 1356 3278 1631 3431 
Q 1906 3584 2284 3584 
Q 2666 3584 2933 3390 
Q 3200 3197 3328 2828 
z
" transform="scale(0.015625)"/>
      <path id="DejaVuSans-70" d="M 1159 525 
L 1159 -1331 
L 581 -1331 
L 581 3500 
L 1159 3500 
L 1159 2969 
Q 1341 3281 1617 3432 
Q 1894 3584 2278 3584 
Q 2916 3584 3314 3078 
Q 3713 2572 3713 1747 
Q 3713 922 3314 415 
Q 2916 -91 2278 -91 
Q 1894 -91 1617 61 
Q 1341 213 1159 525 
z
M 3116 1747 
Q 3116 2381 2855 2742 
Q 2594 3103 2138 3103 
Q 1681 3103 1420 2742 
Q 1159 2381 1159 1747 
Q 1159 1113 1420 752 
Q 1681 391 2138 391 
Q 2594 391 2855 752 
Q 3116 1113 3116 1747 
z
" transform="scale(0.015625)"/>
      <path id="DejaVuSans-73" d="M 2834 3397 
L 2834 2853 
Q 2591 2978 2328 3040 
Q 2066 3103 1784 3103 
Q 1356 3103 1142 2972 
Q 928 2841 928 2578 
Q 928 2378 1081 2264 
Q 1234 2150 1697 2047 
L 1894 2003 
Q 2506 1872 2764 1633 
Q 3022 1394 3022 966 
Q 3022 478 2636 193 
Q 2250 -91 1575 -91 
Q 1294 -91 989 -36 
Q 684 19 347 128 
L 347 722 
Q 666 556 975 473 
Q 1284 391 1588 391 
Q 1994 391 2212 530 
Q 2431 669 2431 922 
Q 2431 1156 2273 1281 
Q 2116 1406 1581 1522 
L 1381 1569 
Q 847 1681 609 1914 
Q 372 2147 372 2553 
Q 372 3047 722 3315 
Q 1072 3584 1716 3584 
Q 2034 3584 2315 3537 
Q 2597 3491 2834 3397 
z
" transform="scale(0.015625)"/>
      <path id="DejaVuSans-6e" d="M 3513 2113 
L 3513 0 
L 2938 0 
L 2938 2094 
Q 2938 2591 2744 2837 
Q 2550 3084 2163 3084 
Q 1697 3084 1428 2787 
Q 1159 2491 1159 1978 
L 1159 0 
L 581 0 
L 581 3500 
L 1159 3500 
L 1159 2956 
Q 1366 3272 1645 3428 
Q 1925 3584 2291 3584 
Q 2894 3584 3203 3211 
Q 3513 2838 3513 2113 
z
" transform="scale(0.015625)"/>
      <path id="DejaVuSans-64" d="M 2906 2969 
L 2906 4863 
L 3481 4863 
L 3481 0 
L 2906 0 
L 2906 525 
Q 2725 213 2448 61 
Q 2172 -91 1784 -91 
Q 1150 -91 751 415 
Q 353 922 353 1747 
Q 353 2572 751 3078 
Q 1150 3584 1784 3584 
Q 2172 3584 2448 3432 
Q 2725 3281 2906 2969 
z
M 947 1747 
Q 947 1113 1208 752 
Q 1469 391 1925 391 
Q 2381 391 2643 752 
Q 2906 1113 2906 1747 
Q 2906 2381 2643 2742 
Q 2381 3103 1925 3103 
Q 1469 3103 1208 2742 
Q 947 2381 947 1747 
z
" transform="scale(0.015625)"/>
      <path id="DejaVuSans-2013" d="M 313 1978 
L 2888 1978 
L 2888 1528 
L 313 1528 
L 313 1978 
z
" transform="scale(0.015625)"/>
      <path id="DejaVuSans-2d" d="M 313 2009 
L 1997 2009 
L 1997 1497 
L 313 1497 
L 313 2009 
z
" transform="scale(0.015625)"/>
      <path id="DejaVuSans-38" d="M 2034 2216 
Q 1584 2216 1326 1975 
Q 1069 1734 1069 1313 
Q 1069 891 1326 650 
Q 1584 409 2034 409 
Q 2484 409 2743 651 
Q 3003 894 3003 1313 
Q 3003 1734 2745 1975 
Q 2488 2216 2034 2216 
z
M 1403 2484 
Q 997 2584 770 2862 
Q 544 3141 544 3541 
Q 544 4100 942 4425 
Q 1341 4750 2034 4750 
Q 2731 4750 3128 4425 
Q 3525 4100 3525 3541 
Q 3525 3141 3298 2862 
Q 3072 2584 2669 2484 
Q 3125 2378 3379 2068 
Q 3634 1759 3634 1313 
Q 3634 634 3220 271 
Q 2806 -91 2034 -91 
Q 1263 -91 848 271 
Q 434 634 434 1313 
Q 434 1759 690 2068 
Q 947 2378 1403 2484 
z
M 1172 3481 
Q 1172 3119 1398 2916 
Q 1625 2713 2034 2713 
Q 2441 2713 2670 2916 
Q 2900 3119 2900 3481 
Q 2900 3844 2670 4047 
Q 2441 4250 2034 4250 
Q 1625 4250 1398 4047 
Q 1172 3844 1172 3481 
z
" transform="scale(0.015625)"/>
      <path id="DejaVuSans-42" d="M 1259 2228 
L 1259 519 
L 2272 519 
Q 2781 519 3026 730 
Q 3272 941 3272 1375 
Q 3272 1813 3026 2020 
Q 2781 2228 2272 2228 
L 1259 2228 
z
M 1259 4147 
L 1259 2741 
L 2194 2741 
Q 2656 2741 2882 2914 
Q 3109 3088 3109 3444 
Q 3109 3797 2882 3972 
Q 2656 4147 2194 4147 
L 1259 4147 
z
M 628 4666 
L 2241 4666 
Q 2963 4666 3353 4366 
Q 3744 4066 3744 3513 
Q 3744 3084 3544 2831 
Q 3344 2578 2956 2516 
Q 3422 2416 3680 2098 
Q 3938 1781 3938 1306 
Q 3938 681 3513 340 
Q 3088 0 2303 0 
L 628 0 
L 628 4666 
z
" transform="scale(0.015625)"/>
      <path id="DejaVuSans-49" d="M 628 4666 
L 1259 4666 
L 1259 0 
L 628 0 
L 628 4666 
z
" transform="scale(0.015625)"/>
      <path id="DejaVuSans-5b" d="M 550 4863 
L 1875 4863 
L 1875 4416 
L 1125 4416 
L 1125 -397 
L 1875 -397 
L 1875 -844 
L 550 -844 
L 550 4863 
z
" transform="scale(0.015625)"/>
      <path id="DejaVuSans-5d" d="M 1947 4863 
L 1947 -844 
L 622 -844 
L 622 -397 
L 1369 -397 
L 1369 4416 
L 622 4416 
L 622 4863 
L 1947 4863 
z
" transform="scale(0.015625)"/>
      <path id="DejaVuSans-28" d="M 1984 4856 
Q 1566 4138 1362 3434 
Q 1159 2731 1159 2009 
Q 1159 1288 1364 580 
Q 1569 -128 1984 -844 
L 1484 -844 
Q 1016 -109 783 600 
Q 550 1309 550 2009 
Q 550 2706 781 3412 
Q 1013 4119 1484 4856 
L 1984 4856 
z
" transform="scale(0.015625)"/>
      <path id="DejaVuSans-62" d="M 3116 1747 
Q 3116 2381 2855 2742 
Q 2594 3103 2138 3103 
Q 1681 3103 1420 2742 
Q 1159 2381 1159 1747 
Q 1159 1113 1420 752 
Q 1681 391 2138 391 
Q 2594 391 2855 752 
Q 3116 1113 3116 1747 
z
M 1159 2969 
Q 1341 3281 1617 3432 
Q 1894 3584 2278 3584 
Q 2916 3584 3314 3078 
Q 3713 2572 3713 1747 
Q 3713 922 3314 415 
Q 2916 -91 2278 -91 
Q 1894 -91 1617 61 
Q 1341 213 1159 525 
L 1159 0 
L 581 0 
L 581 4863 
L 1159 4863 
L 1159 2969 
z
" transform="scale(0.015625)"/>
      <path id="DejaVuSans-29" d="M 513 4856 
L 1013 4856 
Q 1481 4119 1714 3412 
Q 1947 2706 1947 2009 
Q 1947 1309 1714 600 
Q 1481 -109 1013 -844 
L 513 -844 
Q 928 -128 1133 580 
Q 1338 1288 1338 2009 
Q 1338 2731 1133 3434 
Q 928 4138 513 4856 
z
" transform="scale(0.015625)"/>
     </defs>
     <use xlink:href="#DejaVuSans-46"/>
     <use xlink:href="#DejaVuSans-61" x="48.394531"/>
     <use xlink:href="#DejaVuSans-69" x="109.673828"/>
     <use xlink:href="#DejaVuSans-6c" x="137.457031"/>
     <use xlink:href="#DejaVuSans-75" x="165.240234"/>
     <use xlink:href="#DejaVuSans-72" x="228.619141"/>
     <use xlink:href="#DejaVuSans-65" x="267.482422"/>
     <use xlink:href="#DejaVuSans-20" x="329.005859"/>
     <use xlink:href="#DejaVuSans-63" x="360.792969"/>
     <use xlink:href="#DejaVuSans-6f" x="415.773438"/>
     <use xlink:href="#DejaVuSans-6d" x="476.955078"/>
     <use xlink:href="#DejaVuSans-70" x="574.367188"/>
     <use xlink:href="#DejaVuSans-6f" x="637.84375"/>
     <use xlink:href="#DejaVuSans-73" x="699.025391"/>
     <use xlink:href="#DejaVuSans-69" x="751.125"/>
     <use xlink:href="#DejaVuSans-74" x="778.908203"/>
     <use xlink:href="#DejaVuSans-69" x="818.117188"/>
     <use xlink:href="#DejaVuSans-6f" x="845.900391"/>
     <use xlink:href="#DejaVuSans-6e" x="907.082031"/>
     <use xlink:href="#DejaVuSans-20" x="970.460938"/>
     <use xlink:href="#DejaVuSans-72" x="1002.248047"/>
     <use xlink:href="#DejaVuSans-61" x="1043.361328"/>
     <use xlink:href="#DejaVuSans-64" x="1104.640625"/>
     <use xlink:href="#DejaVuSans-61" x="1168.117188"/>
     <use xlink:href="#DejaVuSans-72" x="1229.396484"/>
     <use xlink:href="#DejaVuSans-20" x="1270.509766"/>
     <use xlink:href="#DejaVuSans-2013" x="1302.296875"/>
     <use xlink:href="#DejaVuSans-20" x="1352.296875"/>
     <use xlink:href="#DejaVuSans-4c" x="1384.083984"/>
     <use xlink:href="#DejaVuSans-6c" x="1439.796875"/>
     <use xlink:href="#DejaVuSans-61" x="1467.580078"/>
     <use xlink:href="#DejaVuSans-6d" x="1528.859375"/>
     <use xlink:href="#DejaVuSans-61" x="1626.271484"/>
     <use xlink:href="#DejaVuSans-2d" x="1687.550781"/>
     <use xlink:href="#DejaVuSans-33" x="1723.634766"/>
     <use xlink:href="#DejaVuSans-2e" x="1787.257812"/>
     <use xlink:href="#DejaVuSans-31" x="1819.044922"/>
     <use xlink:href="#DejaVuSans-2d" x="1882.667969"/>
     <use xlink:href="#DejaVuSans-38" x="1918.751953"/>
     <use xlink:href="#DejaVuSans-42" x="1982.375"/>
     <use xlink:href="#DejaVuSans-2d" x="2050.978516"/>
     <use xlink:href="#DejaVuSans-49" x="2087.0625"/>
     <use xlink:href="#DejaVuSans-6e" x="2116.554688"/>
     <use xlink:href="#DejaVuSans-73" x="2179.933594"/>
     <use xlink:href="#DejaVuSans-74" x="2232.033203"/>
     <use xlink:href="#DejaVuSans-72" x="2271.242188"/>
     <use xlink:href="#DejaVuSans-75" x="2312.355469"/>
     <use xlink:href="#DejaVuSans-63" x="2375.734375"/>
     <use xlink:href="#DejaVuSans-74" x="2430.714844"/>
     <use xlink:href="#DejaVuSans-20" x="2469.923828"/>
     <use xlink:href="#DejaVuSans-5b" x="2501.710938"/>
     <use xlink:href="#DejaVuSans-43" x="2540.724609"/>
     <use xlink:href="#DejaVuSans-6f" x="2610.548828"/>
     <use xlink:href="#DejaVuSans-54" x="2671.730469"/>
     <use xlink:href="#DejaVuSans-5d" x="2732.814453"/>
     <use xlink:href="#DejaVuSans-20" x="2771.828125"/>
     <use xlink:href="#DejaVuSans-28" x="2803.615234"/>
     <use xlink:href="#DejaVuSans-61" x="2842.628906"/>
     <use xlink:href="#DejaVuSans-62" x="2903.908203"/>
     <use xlink:href="#DejaVuSans-73" x="2967.384766"/>
     <use xlink:href="#DejaVuSans-6f" x="3019.484375"/>
     <use xlink:href="#DejaVuSans-6c" x="3080.666016"/>
     <use xlink:href="#DejaVuSans-75" x="3108.449219"/>
     <use xlink:href="#DejaVuSans-74" x="3171.828125"/>
     <use xlink:href="#DejaVuSans-65" x="3211.037109"/>
     <use xlink:href="#DejaVuSans-29" x="3272.560547"/>
    </g>
   </g>
  </g>
 </g>
 <defs>
  <clipPath id="p03886c93a3">
   <path d="M 365.32 180.84 
C 365.32 163.122468 361.830033 145.577217 355.049827 129.208351 
C 348.269621 112.839486 338.331034 97.96534 325.802847 85.437153 
C 313.27466 72.908966 298.400514 62.970379 282.031649 56.190173 
C 265.662783 49.409967 248.117532 45.92 230.4 45.92 
C 212.682468 45.92 195.137217 49.409967 178.768351 56.190173 
C 162.399486 62.970379 147.52534 72.908966 134.997153 85.437153 
C 122.468966 97.96534 112.530379 112.839486 105.750173 129.208351 
C 98.969967 145.577217 95.48 163.122468 95.48 180.84 
C 95.48 198.557532 98.969967 216.102783 105.750173 232.471649 
C 112.530379 248.840514 122.468966 263.71466 134.997153 276.242847 
C 147.52534 288.771034 162.399486 298.709621 178.768351 305.489827 
C 195.137217 312.270033 212.682468 315.76 230.4 315.76 
C 248.117532 315.76 265.662783 312.270033 282.031649 305.489827 
C 298.400514 298.709621 313.27466 288.771034 325.802847 276.242847 
C 338.331034 263.71466 348.269621 248.840514 355.049827 232.471649 
C 361.830033 216.102783 365.32 198.557532 365.32 180.84 
M 230.4 180.84 
C 230.4 180.84 230.4 180.84 230.4 180.84 
C 230.4 180.84 230.4 180.84 230.4 180.84 
C 230.4 180.84 230.4 180.84 230.4 180.84 
C 230.4 180.84 230.4 180.84 230.4 180.84 
C 230.4 180.84 230.4 180.84 230.4 180.84 
C 230.4 180.84 230.4 180.84 230.4 180.84 
C 230.4 180.84 230.4 180.84 230.4 180.84 
C 230.4 180.84 230.4 180.84 230.4 180.84 
C 230.4 180.84 230.4 180.84 230.4 180.84 
C 230.4 180.84 230.4 180.84 230.4 180.84 
C 230.4 180.84 230.4 180.84 230.4 180.84 
C 230.4 180.84 230.4 180.84 230.4 180.84 
C 230.4 180.84 230.4 180.84 230.4 180.84 
C 230.4 180.84 230.4 180.84 230.4 180.84 
C 230.4 180.84 230.4 180.84 230.4 180.84 
C 230.4 180.84 230.4 180.84 230.4 180.84 
z
"/>
  </clipPath>
 </defs>
</svg>
