<?xml version="1.0" encoding="utf-8" standalone="no"?>
<!DOCTYPE svg PUBLIC "-//W3C//DTD SVG 1.1//EN"
  "http://www.w3.org/Graphics/SVG/1.1/DTD/svg11.dtd">
<svg xmlns:xlink="http://www.w3.org/1999/xlink" width="460.8pt" height="345.6pt" viewBox="0 0 460.8 345.6" xmlns="http://www.w3.org/2000/svg" version="1.1">
 <metadata>
  <rdf:RDF xmlns:dc="http://purl.org/dc/elements/1.1/" xmlns:cc="http://creativecommons.org/ns#" xmlns:rdf="http://www.w3.org/1999/02/22-rdf-syntax-ns#">
   <cc:Work>
    <dc:type rdf:resource="http://purl.org/dc/dcmitype/StillImage"/>
    <dc:date>2025-10-01T16:20:34.331277</dc:date>
    <dc:format>image/svg+xml</dc:format>
    <dc:creator>
     <cc:Agent>
      <dc:title>Matplotlib v3.9.0, https://matplotlib.org/</dc:title>
     </cc:Agent>
    </dc:creator>
   </cc:Work>
  </rdf:RDF>
 </metadata>
 <defs>
  <style type="text/css">*{stroke-linejoin: round; stroke-linecap: butt}</style>
 </defs>
 <g id="figure_1">
  <g id="patch_1">
   <path d="M 0 345.6 
L 460.8 345.6 
L 460.8 0 
L 0 0 
z
" style="fill: #ffffff"/>
  </g>
  <g id="axes_1">
   <g id="patch_2">
    <path d="M 365.32 180.84 
C 365.32 163.122468 361.830033 145.577217 355.049827 129.208351 
C 348.269621 112.839486 338.331034 97.96534 325.802847 85.437153 
C 313.27466 72.908966 298.400514 62.970379 282.031649 56.190173 
C 265.662783 49.409967 248.117532 45.92 230.4 45.92 
C 212.682468 45.92 195.137217 49.409967 178.768351 56.190173 
C 162.399486 62.970379 147.52534 72.908966 134.997153 85.437153 
C 122.468966 97.96534 112.530379 112.839486 105.750173 129.208351 
C 98.969967 145.577217 95.48 163.122468 95.48 180.84 
C 95.48 198.557532 98.969967 216.102783 105.750173 232.471649 
C 112.530379 248.840514 122.468966 263.71466 134.997153 276.242847 
C 147.52534 288.771034 162.399486 298.709621 178.768351 305.489827 
C 195.137217 312.270033 212.682468 315.76 230.4 315.76 
C 248.117532 315.76 265.662783 312.270033 282.031649 305.489827 
C 298.400514 298.709621 313.27466 288.771034 325.802847 276.242847 
C 338.331034 263.71466 348.269621 248.840514 355.049827 232.471649 
C 361.830033 216.102783 365.32 198.557532 365.32 180.84 
M 230.4 180.84 
C 230.4 180.84 230.4 180.84 230.4 180.84 
C 230.4 180.84 230.4 180.84 230.4 180.84 
C 230.4 180.84 230.4 180.84 230.4 180.84 
C 230.4 180.84 230.4 180.84 230.4 180.84 
C 230.4 180.84 230.4 180.84 230.4 180.84 
C 230.4 180.84 230.4 180.84 230.4 180.84 
C 230.4 180.84 230.4 180.84 230.4 180.84 
C 230.4 180.84 230.4 180.84 230.4 180.84 
C 230.4 180.84 230.4 180.84 230.4 180.84 
C 230.4 180.84 230.4 180.84 230.4 180.84 
C 230.4 180.84 230.4 180.84 230.4 180.84 
C 230.4 180.84 230.4 180.84 230.4 180.84 
C 230.4 180.84 230.4 180.84 230.4 180.84 
C 230.4 180.84 230.4 180.84 230.4 180.84 
C 230.4 180.84 230.4 180.84 230.4 180.84 
C 230.4 180.84 230.4 180.84 230.4 180.84 
z
" style="fill: #ffffff"/>
   </g>
   <g id="patch_3">
    <path d="M 358.895238 180.84 
L 230.4 180.84 
L 215.354671 180.84 
L 230.4 180.84 
z
" clip-path="url(#p0bfd6bb270)" style="fill: #1f77b4; opacity: 0.15"/>
   </g>
   <g id="matplotlib.axis_1">
    <g id="xtick_1">
     <g id="line2d_1">
      <path d="M 230.4 180.84 
L 365.32 180.84 
" clip-path="url(#p0bfd6bb270)" style="fill: none; stroke: #b0b0b0; stroke-width: 0.8; stroke-linecap: square"/>
     </g>
     <g id="text_1">
      <!-- rate_WA -->
      <g transform="translate(358.574687 183.32125) scale(0.1 -0.1)">
       <defs>
        <path id="DejaVuSans-72" d="M 2631 2963 
Q 2534 3019 2420 3045 
Q 2306 3072 2169 3072 
Q 1681 3072 1420 2755 
Q 1159 2438 1159 1844 
L 1159 0 
L 581 0 
L 581 3500 
L 1159 3500 
L 1159 2956 
Q 1341 3275 1631 3429 
Q 1922 3584 2338 3584 
Q 2397 3584 2469 3576 
Q 2541 3569 2628 3553 
L 2631 2963 
z
" transform="scale(0.015625)"/>
        <path id="DejaVuSans-61" d="M 2194 1759 
Q 1497 1759 1228 1600 
Q 959 1441 959 1056 
Q 959 750 1161 570 
Q 1363 391 1709 391 
Q 2188 391 2477 730 
Q 2766 1069 2766 1631 
L 2766 1759 
L 2194 1759 
z
M 3341 1997 
L 3341 0 
L 2766 0 
L 2766 531 
Q 2569 213 2275 61 
Q 1981 -91 1556 -91 
Q 1019 -91 701 211 
Q 384 513 384 1019 
Q 384 1609 779 1909 
Q 1175 2209 1959 2209 
L 2766 2209 
L 2766 2266 
Q 2766 2663 2505 2880 
Q 2244 3097 1772 3097 
Q 1472 3097 1187 3025 
Q 903 2953 641 2809 
L 641 3341 
Q 956 3463 1253 3523 
Q 1550 3584 1831 3584 
Q 2591 3584 2966 3190 
Q 3341 2797 3341 1997 
z
" transform="scale(0.015625)"/>
        <path id="DejaVuSans-74" d="M 1172 4494 
L 1172 3500 
L 2356 3500 
L 2356 3053 
L 1172 3053 
L 1172 1153 
Q 1172 725 1289 603 
Q 1406 481 1766 481 
L 2356 481 
L 2356 0 
L 1766 0 
Q 1100 0 847 248 
Q 594 497 594 1153 
L 594 3053 
L 172 3053 
L 172 3500 
L 594 3500 
L 594 4494 
L 1172 4494 
z
" transform="scale(0.015625)"/>
        <path id="DejaVuSans-65" d="M 3597 1894 
L 3597 1613 
L 953 1613 
Q 991 1019 1311 708 
Q 1631 397 2203 397 
Q 2534 397 2845 478 
Q 3156 559 3463 722 
L 3463 178 
Q 3153 47 2828 -22 
Q 2503 -91 2169 -91 
Q 1331 -91 842 396 
Q 353 884 353 1716 
Q 353 2575 817 3079 
Q 1281 3584 2069 3584 
Q 2775 3584 3186 3129 
Q 3597 2675 3597 1894 
z
M 3022 2063 
Q 3016 2534 2758 2815 
Q 2500 3097 2075 3097 
Q 1594 3097 1305 2825 
Q 1016 2553 972 2059 
L 3022 2063 
z
" transform="scale(0.015625)"/>
        <path id="DejaVuSans-5f" d="M 3263 -1063 
L 3263 -1509 
L -63 -1509 
L -63 -1063 
L 3263 -1063 
z
" transform="scale(0.015625)"/>
        <path id="DejaVuSans-57" d="M 213 4666 
L 850 4666 
L 1831 722 
L 2809 4666 
L 3519 4666 
L 4500 722 
L 5478 4666 
L 6119 4666 
L 4947 0 
L 4153 0 
L 3169 4050 
L 2175 0 
L 1381 0 
L 213 4666 
z
" transform="scale(0.015625)"/>
        <path id="DejaVuSans-41" d="M 2188 4044 
L 1331 1722 
L 3047 1722 
L 2188 4044 
z
M 1831 4666 
L 2547 4666 
L 4325 0 
L 3669 0 
L 3244 1197 
L 1141 1197 
L 716 0 
L 50 0 
L 1831 4666 
z
" transform="scale(0.015625)"/>
       </defs>
       <use xlink:href="#DejaVuSans-72"/>
       <use xlink:href="#DejaVuSans-61" x="41.113281"/>
       <use xlink:href="#DejaVuSans-74" x="102.392578"/>
       <use xlink:href="#DejaVuSans-65" x="141.601562"/>
       <use xlink:href="#DejaVuSans-5f" x="203.125"/>
       <use xlink:href="#DejaVuSans-57" x="253.125"/>
       <use xlink:href="#DejaVuSans-41" x="346.501953"/>
      </g>
     </g>
    </g>
    <g id="xtick_2">
     <g id="line2d_2">
      <path d="M 230.4 180.84 
L 230.4 45.92 
" clip-path="url(#p0bfd6bb270)" style="fill: none; stroke: #b0b0b0; stroke-width: 0.8; stroke-linecap: square"/>
     </g>
     <g id="text_2">
      <!-- rate_TLE -->
      <g transform="translate(208.744531 34.40125) scale(0.1 -0.1)">
       <defs>
        <path id="DejaVuSans-54" d="M -19 4666 
L 3928 4666 
L 3928 4134 
L 2272 4134 
L 2272 0 
L 1638 0 
L 1638 4134 
L -19 4134 
L -19 4666 
z
" transform="scale(0.015625)"/>
        <path id="DejaVuSans-4c" d="M 628 4666 
L 1259 4666 
L 1259 531 
L 3531 531 
L 3531 0 
L 628 0 
L 628 4666 
z
" transform="scale(0.015625)"/>
        <path id="DejaVuSans-45" d="M 628 4666 
L 3578 4666 
L 3578 4134 
L 1259 4134 
L 1259 2753 
L 3481 2753 
L 3481 2222 
L 1259 2222 
L 1259 531 
L 3634 531 
L 3634 0 
L 628 0 
L 628 4666 
z
" transform="scale(0.015625)"/>
       </defs>
       <use xlink:href="#DejaVuSans-72"/>
       <use xlink:href="#DejaVuSans-61" x="41.113281"/>
       <use xlink:href="#DejaVuSans-74" x="102.392578"/>
       <use xlink:href="#DejaVuSans-65" x="141.601562"/>
       <use xlink:href="#DejaVuSans-5f" x="203.125"/>
       <use xlink:href="#DejaVuSans-54" x="253.125"/>
       <use xlink:href="#DejaVuSans-4c" x="314.208984"/>
       <use xlink:href="#DejaVuSans-45" x="369.921875"/>
      </g>
     </g>
    </g>
    <g id="xtick_3">
     <g id="line2d_3">
      <path d="M 230.4 180.84 
L 95.48 180.84 
" clip-path="url(#p0bfd6bb270)" style="fill: none; stroke: #b0b0b0; stroke-width: 0.8; stroke-linecap: square"/>
     </g>
     <g id="text_3">
      <!-- rate_RE -->
      <g transform="translate(62.190156 183.32125) scale(0.1 -0.1)">
       <defs>
        <path id="DejaVuSans-52" d="M 2841 2188 
Q 3044 2119 3236 1894 
Q 3428 1669 3622 1275 
L 4263 0 
L 3584 0 
L 2988 1197 
Q 2756 1666 2539 1819 
Q 2322 1972 1947 1972 
L 1259 1972 
L 1259 0 
L 628 0 
L 628 4666 
L 2053 4666 
Q 2853 4666 3247 4331 
Q 3641 3997 3641 3322 
Q 3641 2881 3436 2590 
Q 3231 2300 2841 2188 
z
M 1259 4147 
L 1259 2491 
L 2053 2491 
Q 2509 2491 2742 2702 
Q 2975 2913 2975 3322 
Q 2975 3731 2742 3939 
Q 2509 4147 2053 4147 
L 1259 4147 
z
" transform="scale(0.015625)"/>
       </defs>
       <use xlink:href="#DejaVuSans-72"/>
       <use xlink:href="#DejaVuSans-61" x="41.113281"/>
       <use xlink:href="#DejaVuSans-74" x="102.392578"/>
       <use xlink:href="#DejaVuSans-65" x="141.601562"/>
       <use xlink:href="#DejaVuSans-5f" x="203.125"/>
       <use xlink:href="#DejaVuSans-52" x="253.125"/>
       <use xlink:href="#DejaVuSans-45" x="322.607422"/>
      </g>
     </g>
    </g>
    <g id="xtick_4">
     <g id="line2d_4">
      <path d="M 230.4 180.84 
L 230.4 315.76 
" clip-path="url(#p0bfd6bb270)" style="fill: none; stroke: #b0b0b0; stroke-width: 0.8; stroke-linecap: square"/>
     </g>
     <g id="text_4">
      <!-- rate_CE -->
      <g transform="translate(211.092969 332.292031) scale(0.1 -0.1)">
       <defs>
        <path id="DejaVuSans-43" d="M 4122 4306 
L 4122 3641 
Q 3803 3938 3442 4084 
Q 3081 4231 2675 4231 
Q 1875 4231 1450 3742 
Q 1025 3253 1025 2328 
Q 1025 1406 1450 917 
Q 1875 428 2675 428 
Q 3081 428 3442 575 
Q 3803 722 4122 1019 
L 4122 359 
Q 3791 134 3420 21 
Q 3050 -91 2638 -91 
Q 1578 -91 968 557 
Q 359 1206 359 2328 
Q 359 3453 968 4101 
Q 1578 4750 2638 4750 
Q 3056 4750 3426 4639 
Q 3797 4528 4122 4306 
z
" transform="scale(0.015625)"/>
       </defs>
       <use xlink:href="#DejaVuSans-72"/>
       <use xlink:href="#DejaVuSans-61" x="41.113281"/>
       <use xlink:href="#DejaVuSans-74" x="102.392578"/>
       <use xlink:href="#DejaVuSans-65" x="141.601562"/>
       <use xlink:href="#DejaVuSans-5f" x="203.125"/>
       <use xlink:href="#DejaVuSans-43" x="253.125"/>
       <use xlink:href="#DejaVuSans-45" x="322.949219"/>
      </g>
     </g>
    </g>
   </g>
   <g id="matplotlib.axis_2">
    <g id="ytick_1">
     <g id="line2d_5">
      <path d="M 245.648644 180.84 
C 245.648644 178.837566 245.254208 176.854604 244.48791 175.004597 
C 243.721612 173.154589 242.598354 171.473515 241.182419 170.057581 
C 239.766485 168.641646 238.085411 167.518388 236.235403 166.75209 
C 234.385396 165.985792 232.402434 165.591356 230.4 165.591356 
C 228.397566 165.591356 226.414604 165.985792 224.564597 166.75209 
C 222.714589 167.518388 221.033515 168.641646 219.617581 170.057581 
C 218.201646 171.473515 217.078388 173.154589 216.31209 175.004597 
C 215.545792 176.854604 215.151356 178.837566 215.151356 180.84 
C 215.151356 182.842434 215.545792 184.825396 216.31209 186.675403 
C 217.078388 188.525411 218.201646 190.206485 219.617581 191.622419 
C 221.033515 193.038354 222.714589 194.161612 224.564597 194.92791 
C 226.414604 195.694208 228.397566 196.088644 230.4 196.088644 
C 232.402434 196.088644 234.385396 195.694208 236.235403 194.92791 
C 238.085411 194.161612 239.766485 193.038354 241.182419 191.622419 
C 242.598354 190.206485 243.721612 188.525411 244.48791 186.675403 
C 245.254208 184.825396 245.648644 182.842434 245.648644 180.84 
" clip-path="url(#p0bfd6bb270)" style="fill: none; stroke: #b0b0b0; stroke-width: 0.8; stroke-linecap: square"/>
     </g>
     <g id="text_5">
      <!-- 0.025 -->
      <g transform="translate(230.4 163.511669) scale(0.1 -0.1)">
       <defs>
        <path id="DejaVuSans-30" d="M 2034 4250 
Q 1547 4250 1301 3770 
Q 1056 3291 1056 2328 
Q 1056 1369 1301 889 
Q 1547 409 2034 409 
Q 2525 409 2770 889 
Q 3016 1369 3016 2328 
Q 3016 3291 2770 3770 
Q 2525 4250 2034 4250 
z
M 2034 4750 
Q 2819 4750 3233 4129 
Q 3647 3509 3647 2328 
Q 3647 1150 3233 529 
Q 2819 -91 2034 -91 
Q 1250 -91 836 529 
Q 422 1150 422 2328 
Q 422 3509 836 4129 
Q 1250 4750 2034 4750 
z
" transform="scale(0.015625)"/>
        <path id="DejaVuSans-2e" d="M 684 794 
L 1344 794 
L 1344 0 
L 684 0 
L 684 794 
z
" transform="scale(0.015625)"/>
        <path id="DejaVuSans-32" d="M 1228 531 
L 3431 531 
L 3431 0 
L 469 0 
L 469 531 
Q 828 903 1448 1529 
Q 2069 2156 2228 2338 
Q 2531 2678 2651 2914 
Q 2772 3150 2772 3378 
Q 2772 3750 2511 3984 
Q 2250 4219 1831 4219 
Q 1534 4219 1204 4116 
Q 875 4013 500 3803 
L 500 4441 
Q 881 4594 1212 4672 
Q 1544 4750 1819 4750 
Q 2544 4750 2975 4387 
Q 3406 4025 3406 3419 
Q 3406 3131 3298 2873 
Q 3191 2616 2906 2266 
Q 2828 2175 2409 1742 
Q 1991 1309 1228 531 
z
" transform="scale(0.015625)"/>
        <path id="DejaVuSans-35" d="M 691 4666 
L 3169 4666 
L 3169 4134 
L 1269 4134 
L 1269 2991 
Q 1406 3038 1543 3061 
Q 1681 3084 1819 3084 
Q 2600 3084 3056 2656 
Q 3513 2228 3513 1497 
Q 3513 744 3044 326 
Q 2575 -91 1722 -91 
Q 1428 -91 1123 -41 
Q 819 9 494 109 
L 494 744 
Q 775 591 1075 516 
Q 1375 441 1709 441 
Q 2250 441 2565 725 
Q 2881 1009 2881 1497 
Q 2881 1984 2565 2268 
Q 2250 2553 1709 2553 
Q 1456 2553 1204 2497 
Q 953 2441 691 2322 
L 691 4666 
z
" transform="scale(0.015625)"/>
       </defs>
       <use xlink:href="#DejaVuSans-30"/>
       <use xlink:href="#DejaVuSans-2e" x="63.623047"/>
       <use xlink:href="#DejaVuSans-30" x="95.410156"/>
       <use xlink:href="#DejaVuSans-32" x="159.033203"/>
       <use xlink:href="#DejaVuSans-35" x="222.65625"/>
      </g>
     </g>
    </g>
    <g id="ytick_2">
     <g id="line2d_6">
      <path d="M 260.897288 180.84 
C 260.897288 176.835133 260.108416 172.869208 258.57582 169.169193 
C 257.043223 165.469179 254.796708 162.10703 251.964839 159.275161 
C 249.13297 156.443292 245.770821 154.196777 242.070807 152.66418 
C 238.370792 151.131584 234.404867 150.342712 230.4 150.342712 
C 226.395133 150.342712 222.429208 151.131584 218.729193 152.66418 
C 215.029179 154.196777 211.66703 156.443292 208.835161 159.275161 
C 206.003292 162.10703 203.756777 165.469179 202.22418 169.169193 
C 200.691584 172.869208 199.902712 176.835133 199.902712 180.84 
C 199.902712 184.844867 200.691584 188.810792 202.22418 192.510807 
C 203.756777 196.210821 206.003292 199.57297 208.835161 202.404839 
C 211.66703 205.236708 215.029179 207.483223 218.729193 209.01582 
C 222.429208 210.548416 226.395133 211.337288 230.4 211.337288 
C 234.404867 211.337288 238.370792 210.548416 242.070807 209.01582 
C 245.770821 207.483223 249.13297 205.236708 251.964839 202.404839 
C 254.796708 199.57297 257.043223 196.210821 258.57582 192.510807 
C 260.108416 188.810792 260.897288 184.844867 260.897288 180.84 
" clip-path="url(#p0bfd6bb270)" style="fill: none; stroke: #b0b0b0; stroke-width: 0.8; stroke-linecap: square"/>
     </g>
     <g id="text_6">
      <!-- 0.050 -->
      <g transform="translate(230.4 148.263025) scale(0.1 -0.1)">
       <use xlink:href="#DejaVuSans-30"/>
       <use xlink:href="#DejaVuSans-2e" x="63.623047"/>
       <use xlink:href="#DejaVuSans-30" x="95.410156"/>
       <use xlink:href="#DejaVuSans-35" x="159.033203"/>
       <use xlink:href="#DejaVuSans-30" x="222.65625"/>
      </g>
     </g>
    </g>
    <g id="ytick_3">
     <g id="line2d_7">
      <path d="M 276.145931 180.84 
C 276.145931 174.832699 274.962624 168.883812 272.66373 163.33379 
C 270.364835 157.783768 266.995061 152.740545 262.747258 148.492742 
C 258.499455 144.244939 253.456232 140.875165 247.90621 138.57627 
C 242.356188 136.277376 236.407301 135.094069 230.4 135.094069 
C 224.392699 135.094069 218.443812 136.277376 212.89379 138.57627 
C 207.343768 140.875165 202.300545 144.244939 198.052742 148.492742 
C 193.804939 152.740545 190.435165 157.783768 188.13627 163.33379 
C 185.837376 168.883812 184.654069 174.832699 184.654069 180.84 
C 184.654069 186.847301 185.837376 192.796188 188.13627 198.34621 
C 190.435165 203.896232 193.804939 208.939455 198.052742 213.187258 
C 202.300545 217.435061 207.343768 220.804835 212.89379 223.10373 
C 218.443812 225.402624 224.392699 226.585931 230.4 226.585931 
C 236.407301 226.585931 242.356188 225.402624 247.90621 223.10373 
C 253.456232 220.804835 258.499455 217.435061 262.747258 213.187258 
C 266.995061 208.939455 270.364835 203.896232 272.66373 198.34621 
C 274.962624 192.796188 276.145931 186.847301 276.145931 180.84 
" clip-path="url(#p0bfd6bb270)" style="fill: none; stroke: #b0b0b0; stroke-width: 0.8; stroke-linecap: square"/>
     </g>
     <g id="text_7">
      <!-- 0.075 -->
      <g transform="translate(230.4 133.014381) scale(0.1 -0.1)">
       <defs>
        <path id="DejaVuSans-37" d="M 525 4666 
L 3525 4666 
L 3525 4397 
L 1831 0 
L 1172 0 
L 2766 4134 
L 525 4134 
L 525 4666 
z
" transform="scale(0.015625)"/>
       </defs>
       <use xlink:href="#DejaVuSans-30"/>
       <use xlink:href="#DejaVuSans-2e" x="63.623047"/>
       <use xlink:href="#DejaVuSans-30" x="95.410156"/>
       <use xlink:href="#DejaVuSans-37" x="159.033203"/>
       <use xlink:href="#DejaVuSans-35" x="222.65625"/>
      </g>
     </g>
    </g>
    <g id="ytick_4">
     <g id="line2d_8">
      <path d="M 291.394575 180.84 
C 291.394575 172.830266 289.816832 164.898416 286.751639 157.498387 
C 283.686447 150.098357 279.193415 143.37406 273.529678 137.710322 
C 267.86594 132.046585 261.141643 127.553553 253.741613 124.488361 
C 246.341584 121.423168 238.409734 119.845425 230.4 119.845425 
C 222.390266 119.845425 214.458416 121.423168 207.058387 124.488361 
C 199.658357 127.553553 192.93406 132.046585 187.270322 137.710322 
C 181.606585 143.37406 177.113553 150.098357 174.048361 157.498387 
C 170.983168 164.898416 169.405425 172.830266 169.405425 180.84 
C 169.405425 188.849734 170.983168 196.781584 174.048361 204.181613 
C 177.113553 211.581643 181.606585 218.30594 187.270322 223.969678 
C 192.93406 229.633415 199.658357 234.126447 207.058387 237.191639 
C 214.458416 240.256832 222.390266 241.834575 230.4 241.834575 
C 238.409734 241.834575 246.341584 240.256832 253.741613 237.191639 
C 261.141643 234.126447 267.86594 229.633415 273.529678 223.969678 
C 279.193415 218.30594 283.686447 211.581643 286.751639 204.181613 
C 289.816832 196.781584 291.394575 188.849734 291.394575 180.84 
" clip-path="url(#p0bfd6bb270)" style="fill: none; stroke: #b0b0b0; stroke-width: 0.8; stroke-linecap: square"/>
     </g>
     <g id="text_8">
      <!-- 0.100 -->
      <g transform="translate(230.4 117.765737) scale(0.1 -0.1)">
       <defs>
        <path id="DejaVuSans-31" d="M 794 531 
L 1825 531 
L 1825 4091 
L 703 3866 
L 703 4441 
L 1819 4666 
L 2450 4666 
L 2450 531 
L 3481 531 
L 3481 0 
L 794 0 
L 794 531 
z
" transform="scale(0.015625)"/>
       </defs>
       <use xlink:href="#DejaVuSans-30"/>
       <use xlink:href="#DejaVuSans-2e" x="63.623047"/>
       <use xlink:href="#DejaVuSans-31" x="95.410156"/>
       <use xlink:href="#DejaVuSans-30" x="159.033203"/>
       <use xlink:href="#DejaVuSans-30" x="222.65625"/>
      </g>
     </g>
    </g>
    <g id="ytick_5">
     <g id="line2d_9">
      <path d="M 306.643219 180.84 
C 306.643219 170.827832 304.67104 160.91302 300.839549 151.662983 
C 297.008059 142.412946 291.391769 134.007575 284.312097 126.927903 
C 277.232425 119.848231 268.827054 114.231941 259.577017 110.400451 
C 250.32698 106.56896 240.412168 104.596781 230.4 104.596781 
C 220.387832 104.596781 210.47302 106.56896 201.222983 110.400451 
C 191.972946 114.231941 183.567575 119.848231 176.487903 126.927903 
C 169.408231 134.007575 163.791941 142.412946 159.960451 151.662983 
C 156.12896 160.91302 154.156781 170.827832 154.156781 180.84 
C 154.156781 190.852168 156.12896 200.76698 159.960451 210.017017 
C 163.791941 219.267054 169.408231 227.672425 176.487903 234.752097 
C 183.567575 241.831769 191.972946 247.448059 201.222983 251.279549 
C 210.47302 255.11104 220.387832 257.083219 230.4 257.083219 
C 240.412168 257.083219 250.32698 255.11104 259.577017 251.279549 
C 268.827054 247.448059 277.232425 241.831769 284.312097 234.752097 
C 291.391769 227.672425 297.008059 219.267054 300.839549 210.017017 
C 304.67104 200.76698 306.643219 190.852168 306.643219 180.84 
" clip-path="url(#p0bfd6bb270)" style="fill: none; stroke: #b0b0b0; stroke-width: 0.8; stroke-linecap: square"/>
     </g>
     <g id="text_9">
      <!-- 0.125 -->
      <g transform="translate(230.4 102.517094) scale(0.1 -0.1)">
       <use xlink:href="#DejaVuSans-30"/>
       <use xlink:href="#DejaVuSans-2e" x="63.623047"/>
       <use xlink:href="#DejaVuSans-31" x="95.410156"/>
       <use xlink:href="#DejaVuSans-32" x="159.033203"/>
       <use xlink:href="#DejaVuSans-35" x="222.65625"/>
      </g>
     </g>
    </g>
    <g id="ytick_6">
     <g id="line2d_10">
      <path d="M 321.891863 180.84 
C 321.891863 168.825399 319.525248 156.927624 314.927459 145.82758 
C 310.32967 134.727536 303.590123 124.64109 295.094516 116.145484 
C 286.59891 107.649877 276.512464 100.91033 265.41242 96.312541 
C 254.312376 91.714752 242.414601 89.348137 230.4 89.348137 
C 218.385399 89.348137 206.487624 91.714752 195.38758 96.312541 
C 184.287536 100.91033 174.20109 107.649877 165.705484 116.145484 
C 157.209877 124.64109 150.47033 134.727536 145.872541 145.82758 
C 141.274752 156.927624 138.908137 168.825399 138.908137 180.84 
C 138.908137 192.854601 141.274752 204.752376 145.872541 215.85242 
C 150.47033 226.952464 157.209877 237.03891 165.705484 245.534516 
C 174.20109 254.030123 184.287536 260.76967 195.38758 265.367459 
C 206.487624 269.965248 218.385399 272.331863 230.4 272.331863 
C 242.414601 272.331863 254.312376 269.965248 265.41242 265.367459 
C 276.512464 260.76967 286.59891 254.030123 295.094516 245.534516 
C 303.590123 237.03891 310.32967 226.952464 314.927459 215.85242 
C 319.525248 204.752376 321.891863 192.854601 321.891863 180.84 
" clip-path="url(#p0bfd6bb270)" style="fill: none; stroke: #b0b0b0; stroke-width: 0.8; stroke-linecap: square"/>
     </g>
     <g id="text_10">
      <!-- 0.150 -->
      <g transform="translate(230.4 87.26845) scale(0.1 -0.1)">
       <use xlink:href="#DejaVuSans-30"/>
       <use xlink:href="#DejaVuSans-2e" x="63.623047"/>
       <use xlink:href="#DejaVuSans-31" x="95.410156"/>
       <use xlink:href="#DejaVuSans-35" x="159.033203"/>
       <use xlink:href="#DejaVuSans-30" x="222.65625"/>
      </g>
     </g>
    </g>
    <g id="ytick_7">
     <g id="line2d_11">
      <path d="M 337.140506 180.84 
C 337.140506 166.822965 334.379456 152.942228 329.015369 139.992177 
C 323.651282 127.042125 315.788476 115.274605 305.876936 105.363064 
C 295.965395 95.451524 284.197875 87.588718 271.247823 82.224631 
C 258.297772 76.860544 244.417035 74.099494 230.4 74.099494 
C 216.382965 74.099494 202.502228 76.860544 189.552177 82.224631 
C 176.602125 87.588718 164.834605 95.451524 154.923064 105.363064 
C 145.011524 115.274605 137.148718 127.042125 131.784631 139.992177 
C 126.420544 152.942228 123.659494 166.822965 123.659494 180.84 
C 123.659494 194.857035 126.420544 208.737772 131.784631 221.687823 
C 137.148718 234.637875 145.011524 246.405395 154.923064 256.316936 
C 164.834605 266.228476 176.602125 274.091282 189.552177 279.455369 
C 202.502228 284.819456 216.382965 287.580506 230.4 287.580506 
C 244.417035 287.580506 258.297772 284.819456 271.247823 279.455369 
C 284.197875 274.091282 295.965395 266.228476 305.876936 256.316936 
C 315.788476 246.405395 323.651282 234.637875 329.015369 221.687823 
C 334.379456 208.737772 337.140506 194.857035 337.140506 180.84 
" clip-path="url(#p0bfd6bb270)" style="fill: none; stroke: #b0b0b0; stroke-width: 0.8; stroke-linecap: square"/>
     </g>
     <g id="text_11">
      <!-- 0.175 -->
      <g transform="translate(230.4 72.019806) scale(0.1 -0.1)">
       <use xlink:href="#DejaVuSans-30"/>
       <use xlink:href="#DejaVuSans-2e" x="63.623047"/>
       <use xlink:href="#DejaVuSans-31" x="95.410156"/>
       <use xlink:href="#DejaVuSans-37" x="159.033203"/>
       <use xlink:href="#DejaVuSans-35" x="222.65625"/>
      </g>
     </g>
    </g>
    <g id="ytick_8">
     <g id="line2d_12">
      <path d="M 352.38915 180.84 
C 352.38915 164.820532 349.233664 148.956832 343.103279 134.156773 
C 336.972894 119.356714 327.98683 105.908119 316.659355 94.580645 
C 305.331881 83.25317 291.883286 74.267106 277.083227 68.136721 
C 262.283168 62.006336 246.419468 58.85085 230.4 58.85085 
C 214.380532 58.85085 198.516832 62.006336 183.716773 68.136721 
C 168.916714 74.267106 155.468119 83.25317 144.140645 94.580645 
C 132.81317 105.908119 123.827106 119.356714 117.696721 134.156773 
C 111.566336 148.956832 108.41085 164.820532 108.41085 180.84 
C 108.41085 196.859468 111.566336 212.723168 117.696721 227.523227 
C 123.827106 242.323286 132.81317 255.771881 144.140645 267.099355 
C 155.468119 278.42683 168.916714 287.412894 183.716773 293.543279 
C 198.516832 299.673664 214.380532 302.82915 230.4 302.82915 
C 246.419468 302.82915 262.283168 299.673664 277.083227 293.543279 
C 291.883286 287.412894 305.331881 278.42683 316.659355 267.099355 
C 327.98683 255.771881 336.972894 242.323286 343.103279 227.523227 
C 349.233664 212.723168 352.38915 196.859468 352.38915 180.84 
" clip-path="url(#p0bfd6bb270)" style="fill: none; stroke: #b0b0b0; stroke-width: 0.8; stroke-linecap: square"/>
     </g>
     <g id="text_12">
      <!-- 0.200 -->
      <g transform="translate(230.4 56.771162) scale(0.1 -0.1)">
       <use xlink:href="#DejaVuSans-30"/>
       <use xlink:href="#DejaVuSans-2e" x="63.623047"/>
       <use xlink:href="#DejaVuSans-32" x="95.410156"/>
       <use xlink:href="#DejaVuSans-30" x="159.033203"/>
       <use xlink:href="#DejaVuSans-30" x="222.65625"/>
      </g>
     </g>
    </g>
   </g>
   <g id="line2d_13">
    <path d="M 358.895238 180.84 
L 230.4 180.84 
L 215.354671 180.84 
L 230.4 180.84 
L 358.895238 180.84 
" clip-path="url(#p0bfd6bb270)" style="fill: none; stroke: #1f77b4; stroke-width: 2; stroke-linecap: square"/>
   </g>
   <g id="patch_4">
    <path d="M 365.32 180.84 
C 365.32 163.122468 361.830033 145.577217 355.049827 129.208351 
C 348.269621 112.839486 338.331034 97.96534 325.802847 85.437153 
C 313.27466 72.908966 298.400514 62.970379 282.031649 56.190173 
C 265.662783 49.409967 248.117532 45.92 230.4 45.92 
C 212.682468 45.92 195.137217 49.409967 178.768351 56.190173 
C 162.399486 62.970379 147.52534 72.908966 134.997153 85.437153 
C 122.468966 97.96534 112.530379 112.839486 105.750173 129.208351 
C 98.969967 145.577217 95.48 163.122468 95.48 180.84 
C 95.48 198.557532 98.969967 216.102783 105.750173 232.471649 
C 112.530379 248.840514 122.468966 263.71466 134.997153 276.242847 
C 147.52534 288.771034 162.399486 298.709621 178.768351 305.489827 
C 195.137217 312.270033 212.682468 315.76 230.4 315.76 
C 248.117532 315.76 265.662783 312.270033 282.031649 305.489827 
C 298.400514 298.709621 313.27466 288.771034 325.802847 276.242847 
C 338.331034 263.71466 348.269621 248.840514 355.049827 232.471649 
C 361.830033 216.102783 365.32 198.557532 365.32 180.84 
" style="fill: none; stroke: #000000; stroke-width: 0.8; stroke-linejoin: miter; stroke-linecap: square"/>
   </g>
   <g id="text_13">
    <!-- Failure composition radar – Llama-3.1-8B-Instruct [feedback] (absolute) -->
    <g transform="translate(15.669375 21.080938) scale(0.12 -0.12)">
     <defs>
      <path id="DejaVuSans-46" d="M 628 4666 
L 3309 4666 
L 3309 4134 
L 1259 4134 
L 1259 2759 
L 3109 2759 
L 3109 2228 
L 1259 2228 
L 1259 0 
L 628 0 
L 628 4666 
z
" transform="scale(0.015625)"/>
      <path id="DejaVuSans-69" d="M 603 3500 
L 1178 3500 
L 1178 0 
L 603 0 
L 603 3500 
z
M 603 4863 
L 1178 4863 
L 1178 4134 
L 603 4134 
L 603 4863 
z
" transform="scale(0.015625)"/>
      <path id="DejaVuSans-6c" d="M 603 4863 
L 1178 4863 
L 1178 0 
L 603 0 
L 603 4863 
z
" transform="scale(0.015625)"/>
      <path id="DejaVuSans-75" d="M 544 1381 
L 544 3500 
L 1119 3500 
L 1119 1403 
Q 1119 906 1312 657 
Q 1506 409 1894 409 
Q 2359 409 2629 706 
Q 2900 1003 2900 1516 
L 2900 3500 
L 3475 3500 
L 3475 0 
L 2900 0 
L 2900 538 
Q 2691 219 2414 64 
Q 2138 -91 1772 -91 
Q 1169 -91 856 284 
Q 544 659 544 1381 
z
M 1991 3584 
L 1991 3584 
z
" transform="scale(0.015625)"/>
      <path id="DejaVuSans-20" transform="scale(0.015625)"/>
      <path id="DejaVuSans-63" d="M 3122 3366 
L 3122 2828 
Q 2878 2963 2633 3030 
Q 2388 3097 2138 3097 
Q 1578 3097 1268 2742 
Q 959 2388 959 1747 
Q 959 1106 1268 751 
Q 1578 397 2138 397 
Q 2388 397 2633 464 
Q 2878 531 3122 666 
L 3122 134 
Q 2881 22 2623 -34 
Q 2366 -91 2075 -91 
Q 1284 -91 818 406 
Q 353 903 353 1747 
Q 353 2603 823 3093 
Q 1294 3584 2113 3584 
Q 2378 3584 2631 3529 
Q 2884 3475 3122 3366 
z
" transform="scale(0.015625)"/>
      <path id="DejaVuSans-6f" d="M 1959 3097 
Q 1497 3097 1228 2736 
Q 959 2375 959 1747 
Q 959 1119 1226 758 
Q 1494 397 1959 397 
Q 2419 397 2687 759 
Q 2956 1122 2956 1747 
Q 2956 2369 2687 2733 
Q 2419 3097 1959 3097 
z
M 1959 3584 
Q 2709 3584 3137 3096 
Q 3566 2609 3566 1747 
Q 3566 888 3137 398 
Q 2709 -91 1959 -91 
Q 1206 -91 779 398 
Q 353 888 353 1747 
Q 353 2609 779 3096 
Q 1206 3584 1959 3584 
z
" transform="scale(0.015625)"/>
      <path id="DejaVuSans-6d" d="M 3328 2828 
Q 3544 3216 3844 3400 
Q 4144 3584 4550 3584 
Q 5097 3584 5394 3201 
Q 5691 2819 5691 2113 
L 5691 0 
L 5113 0 
L 5113 2094 
Q 5113 2597 4934 2840 
Q 4756 3084 4391 3084 
Q 3944 3084 3684 2787 
Q 3425 2491 3425 1978 
L 3425 0 
L 2847 0 
L 2847 2094 
Q 2847 2600 2669 2842 
Q 2491 3084 2119 3084 
Q 1678 3084 1418 2786 
Q 1159 2488 1159 1978 
L 1159 0 
L 581 0 
L 581 3500 
L 1159 3500 
L 1159 2956 
Q 1356 3278 1631 3431 
Q 1906 3584 2284 3584 
Q 2666 3584 2933 3390 
Q 3200 3197 3328 2828 
z
" transform="scale(0.015625)"/>
      <path id="DejaVuSans-70" d="M 1159 525 
L 1159 -1331 
L 581 -1331 
L 581 3500 
L 1159 3500 
L 1159 2969 
Q 1341 3281 1617 3432 
Q 1894 3584 2278 3584 
Q 2916 3584 3314 3078 
Q 3713 2572 3713 1747 
Q 3713 922 3314 415 
Q 2916 -91 2278 -91 
Q 1894 -91 1617 61 
Q 1341 213 1159 525 
z
M 3116 1747 
Q 3116 2381 2855 2742 
Q 2594 3103 2138 3103 
Q 1681 3103 1420 2742 
Q 1159 2381 1159 1747 
Q 1159 1113 1420 752 
Q 1681 391 2138 391 
Q 2594 391 2855 752 
Q 3116 1113 3116 1747 
z
" transform="scale(0.015625)"/>
      <path id="DejaVuSans-73" d="M 2834 3397 
L 2834 2853 
Q 2591 2978 2328 3040 
Q 2066 3103 1784 3103 
Q 1356 3103 1142 2972 
Q 928 2841 928 2578 
Q 928 2378 1081 2264 
Q 1234 2150 1697 2047 
L 1894 2003 
Q 2506 1872 2764 1633 
Q 3022 1394 3022 966 
Q 3022 478 2636 193 
Q 2250 -91 1575 -91 
Q 1294 -91 989 -36 
Q 684 19 347 128 
L 347 722 
Q 666 556 975 473 
Q 1284 391 1588 391 
Q 1994 391 2212 530 
Q 2431 669 2431 922 
Q 2431 1156 2273 1281 
Q 2116 1406 1581 1522 
L 1381 1569 
Q 847 1681 609 1914 
Q 372 2147 372 2553 
Q 372 3047 722 3315 
Q 1072 3584 1716 3584 
Q 2034 3584 2315 3537 
Q 2597 3491 2834 3397 
z
" transform="scale(0.015625)"/>
      <path id="DejaVuSans-6e" d="M 3513 2113 
L 3513 0 
L 2938 0 
L 2938 2094 
Q 2938 2591 2744 2837 
Q 2550 3084 2163 3084 
Q 1697 3084 1428 2787 
Q 1159 2491 1159 1978 
L 1159 0 
L 581 0 
L 581 3500 
L 1159 3500 
L 1159 2956 
Q 1366 3272 1645 3428 
Q 1925 3584 2291 3584 
Q 2894 3584 3203 3211 
Q 3513 2838 3513 2113 
z
" transform="scale(0.015625)"/>
      <path id="DejaVuSans-64" d="M 2906 2969 
L 2906 4863 
L 3481 4863 
L 3481 0 
L 2906 0 
L 2906 525 
Q 2725 213 2448 61 
Q 2172 -91 1784 -91 
Q 1150 -91 751 415 
Q 353 922 353 1747 
Q 353 2572 751 3078 
Q 1150 3584 1784 3584 
Q 2172 3584 2448 3432 
Q 2725 3281 2906 2969 
z
M 947 1747 
Q 947 1113 1208 752 
Q 1469 391 1925 391 
Q 2381 391 2643 752 
Q 2906 1113 2906 1747 
Q 2906 2381 2643 2742 
Q 2381 3103 1925 3103 
Q 1469 3103 1208 2742 
Q 947 2381 947 1747 
z
" transform="scale(0.015625)"/>
      <path id="DejaVuSans-2013" d="M 313 1978 
L 2888 1978 
L 2888 1528 
L 313 1528 
L 313 1978 
z
" transform="scale(0.015625)"/>
      <path id="DejaVuSans-2d" d="M 313 2009 
L 1997 2009 
L 1997 1497 
L 313 1497 
L 313 2009 
z
" transform="scale(0.015625)"/>
      <path id="DejaVuSans-33" d="M 2597 2516 
Q 3050 2419 3304 2112 
Q 3559 1806 3559 1356 
Q 3559 666 3084 287 
Q 2609 -91 1734 -91 
Q 1441 -91 1130 -33 
Q 819 25 488 141 
L 488 750 
Q 750 597 1062 519 
Q 1375 441 1716 441 
Q 2309 441 2620 675 
Q 2931 909 2931 1356 
Q 2931 1769 2642 2001 
Q 2353 2234 1838 2234 
L 1294 2234 
L 1294 2753 
L 1863 2753 
Q 2328 2753 2575 2939 
Q 2822 3125 2822 3475 
Q 2822 3834 2567 4026 
Q 2313 4219 1838 4219 
Q 1578 4219 1281 4162 
Q 984 4106 628 3988 
L 628 4550 
Q 988 4650 1302 4700 
Q 1616 4750 1894 4750 
Q 2613 4750 3031 4423 
Q 3450 4097 3450 3541 
Q 3450 3153 3228 2886 
Q 3006 2619 2597 2516 
z
" transform="scale(0.015625)"/>
      <path id="DejaVuSans-38" d="M 2034 2216 
Q 1584 2216 1326 1975 
Q 1069 1734 1069 1313 
Q 1069 891 1326 650 
Q 1584 409 2034 409 
Q 2484 409 2743 651 
Q 3003 894 3003 1313 
Q 3003 1734 2745 1975 
Q 2488 2216 2034 2216 
z
M 1403 2484 
Q 997 2584 770 2862 
Q 544 3141 544 3541 
Q 544 4100 942 4425 
Q 1341 4750 2034 4750 
Q 2731 4750 3128 4425 
Q 3525 4100 3525 3541 
Q 3525 3141 3298 2862 
Q 3072 2584 2669 2484 
Q 3125 2378 3379 2068 
Q 3634 1759 3634 1313 
Q 3634 634 3220 271 
Q 2806 -91 2034 -91 
Q 1263 -91 848 271 
Q 434 634 434 1313 
Q 434 1759 690 2068 
Q 947 2378 1403 2484 
z
M 1172 3481 
Q 1172 3119 1398 2916 
Q 1625 2713 2034 2713 
Q 2441 2713 2670 2916 
Q 2900 3119 2900 3481 
Q 2900 3844 2670 4047 
Q 2441 4250 2034 4250 
Q 1625 4250 1398 4047 
Q 1172 3844 1172 3481 
z
" transform="scale(0.015625)"/>
      <path id="DejaVuSans-42" d="M 1259 2228 
L 1259 519 
L 2272 519 
Q 2781 519 3026 730 
Q 3272 941 3272 1375 
Q 3272 1813 3026 2020 
Q 2781 2228 2272 2228 
L 1259 2228 
z
M 1259 4147 
L 1259 2741 
L 2194 2741 
Q 2656 2741 2882 2914 
Q 3109 3088 3109 3444 
Q 3109 3797 2882 3972 
Q 2656 4147 2194 4147 
L 1259 4147 
z
M 628 4666 
L 2241 4666 
Q 2963 4666 3353 4366 
Q 3744 4066 3744 3513 
Q 3744 3084 3544 2831 
Q 3344 2578 2956 2516 
Q 3422 2416 3680 2098 
Q 3938 1781 3938 1306 
Q 3938 681 3513 340 
Q 3088 0 2303 0 
L 628 0 
L 628 4666 
z
" transform="scale(0.015625)"/>
      <path id="DejaVuSans-49" d="M 628 4666 
L 1259 4666 
L 1259 0 
L 628 0 
L 628 4666 
z
" transform="scale(0.015625)"/>
      <path id="DejaVuSans-5b" d="M 550 4863 
L 1875 4863 
L 1875 4416 
L 1125 4416 
L 1125 -397 
L 1875 -397 
L 1875 -844 
L 550 -844 
L 550 4863 
z
" transform="scale(0.015625)"/>
      <path id="DejaVuSans-66" d="M 2375 4863 
L 2375 4384 
L 1825 4384 
Q 1516 4384 1395 4259 
Q 1275 4134 1275 3809 
L 1275 3500 
L 2222 3500 
L 2222 3053 
L 1275 3053 
L 1275 0 
L 697 0 
L 697 3053 
L 147 3053 
L 147 3500 
L 697 3500 
L 697 3744 
Q 697 4328 969 4595 
Q 1241 4863 1831 4863 
L 2375 4863 
z
" transform="scale(0.015625)"/>
      <path id="DejaVuSans-62" d="M 3116 1747 
Q 3116 2381 2855 2742 
Q 2594 3103 2138 3103 
Q 1681 3103 1420 2742 
Q 1159 2381 1159 1747 
Q 1159 1113 1420 752 
Q 1681 391 2138 391 
Q 2594 391 2855 752 
Q 3116 1113 3116 1747 
z
M 1159 2969 
Q 1341 3281 1617 3432 
Q 1894 3584 2278 3584 
Q 2916 3584 3314 3078 
Q 3713 2572 3713 1747 
Q 3713 922 3314 415 
Q 2916 -91 2278 -91 
Q 1894 -91 1617 61 
Q 1341 213 1159 525 
L 1159 0 
L 581 0 
L 581 4863 
L 1159 4863 
L 1159 2969 
z
" transform="scale(0.015625)"/>
      <path id="DejaVuSans-6b" d="M 581 4863 
L 1159 4863 
L 1159 1991 
L 2875 3500 
L 3609 3500 
L 1753 1863 
L 3688 0 
L 2938 0 
L 1159 1709 
L 1159 0 
L 581 0 
L 581 4863 
z
" transform="scale(0.015625)"/>
      <path id="DejaVuSans-5d" d="M 1947 4863 
L 1947 -844 
L 622 -844 
L 622 -397 
L 1369 -397 
L 1369 4416 
L 622 4416 
L 622 4863 
L 1947 4863 
z
" transform="scale(0.015625)"/>
      <path id="DejaVuSans-28" d="M 1984 4856 
Q 1566 4138 1362 3434 
Q 1159 2731 1159 2009 
Q 1159 1288 1364 580 
Q 1569 -128 1984 -844 
L 1484 -844 
Q 1016 -109 783 600 
Q 550 1309 550 2009 
Q 550 2706 781 3412 
Q 1013 4119 1484 4856 
L 1984 4856 
z
" transform="scale(0.015625)"/>
      <path id="DejaVuSans-29" d="M 513 4856 
L 1013 4856 
Q 1481 4119 1714 3412 
Q 1947 2706 1947 2009 
Q 1947 1309 1714 600 
Q 1481 -109 1013 -844 
L 513 -844 
Q 928 -128 1133 580 
Q 1338 1288 1338 2009 
Q 1338 2731 1133 3434 
Q 928 4138 513 4856 
z
" transform="scale(0.015625)"/>
     </defs>
     <use xlink:href="#DejaVuSans-46"/>
     <use xlink:href="#DejaVuSans-61" x="48.394531"/>
     <use xlink:href="#DejaVuSans-69" x="109.673828"/>
     <use xlink:href="#DejaVuSans-6c" x="137.457031"/>
     <use xlink:href="#DejaVuSans-75" x="165.240234"/>
     <use xlink:href="#DejaVuSans-72" x="228.619141"/>
     <use xlink:href="#DejaVuSans-65" x="267.482422"/>
     <use xlink:href="#DejaVuSans-20" x="329.005859"/>
     <use xlink:href="#DejaVuSans-63" x="360.792969"/>
     <use xlink:href="#DejaVuSans-6f" x="415.773438"/>
     <use xlink:href="#DejaVuSans-6d" x="476.955078"/>
     <use xlink:href="#DejaVuSans-70" x="574.367188"/>
     <use xlink:href="#DejaVuSans-6f" x="637.84375"/>
     <use xlink:href="#DejaVuSans-73" x="699.025391"/>
     <use xlink:href="#DejaVuSans-69" x="751.125"/>
     <use xlink:href="#DejaVuSans-74" x="778.908203"/>
     <use xlink:href="#DejaVuSans-69" x="818.117188"/>
     <use xlink:href="#DejaVuSans-6f" x="845.900391"/>
     <use xlink:href="#DejaVuSans-6e" x="907.082031"/>
     <use xlink:href="#DejaVuSans-20" x="970.460938"/>
     <use xlink:href="#DejaVuSans-72" x="1002.248047"/>
     <use xlink:href="#DejaVuSans-61" x="1043.361328"/>
     <use xlink:href="#DejaVuSans-64" x="1104.640625"/>
     <use xlink:href="#DejaVuSans-61" x="1168.117188"/>
     <use xlink:href="#DejaVuSans-72" x="1229.396484"/>
     <use xlink:href="#DejaVuSans-20" x="1270.509766"/>
     <use xlink:href="#DejaVuSans-2013" x="1302.296875"/>
     <use xlink:href="#DejaVuSans-20" x="1352.296875"/>
     <use xlink:href="#DejaVuSans-4c" x="1384.083984"/>
     <use xlink:href="#DejaVuSans-6c" x="1439.796875"/>
     <use xlink:href="#DejaVuSans-61" x="1467.580078"/>
     <use xlink:href="#DejaVuSans-6d" x="1528.859375"/>
     <use xlink:href="#DejaVuSans-61" x="1626.271484"/>
     <use xlink:href="#DejaVuSans-2d" x="1687.550781"/>
     <use xlink:href="#DejaVuSans-33" x="1723.634766"/>
     <use xlink:href="#DejaVuSans-2e" x="1787.257812"/>
     <use xlink:href="#DejaVuSans-31" x="1819.044922"/>
     <use xlink:href="#DejaVuSans-2d" x="1882.667969"/>
     <use xlink:href="#DejaVuSans-38" x="1918.751953"/>
     <use xlink:href="#DejaVuSans-42" x="1982.375"/>
     <use xlink:href="#DejaVuSans-2d" x="2050.978516"/>
     <use xlink:href="#DejaVuSans-49" x="2087.0625"/>
     <use xlink:href="#DejaVuSans-6e" x="2116.554688"/>
     <use xlink:href="#DejaVuSans-73" x="2179.933594"/>
     <use xlink:href="#DejaVuSans-74" x="2232.033203"/>
     <use xlink:href="#DejaVuSans-72" x="2271.242188"/>
     <use xlink:href="#DejaVuSans-75" x="2312.355469"/>
     <use xlink:href="#DejaVuSans-63" x="2375.734375"/>
     <use xlink:href="#DejaVuSans-74" x="2430.714844"/>
     <use xlink:href="#DejaVuSans-20" x="2469.923828"/>
     <use xlink:href="#DejaVuSans-5b" x="2501.710938"/>
     <use xlink:href="#DejaVuSans-66" x="2540.724609"/>
     <use xlink:href="#DejaVuSans-65" x="2575.929688"/>
     <use xlink:href="#DejaVuSans-65" x="2637.453125"/>
     <use xlink:href="#DejaVuSans-64" x="2698.976562"/>
     <use xlink:href="#DejaVuSans-62" x="2762.453125"/>
     <use xlink:href="#DejaVuSans-61" x="2825.929688"/>
     <use xlink:href="#DejaVuSans-63" x="2887.208984"/>
     <use xlink:href="#DejaVuSans-6b" x="2942.189453"/>
     <use xlink:href="#DejaVuSans-5d" x="3000.099609"/>
     <use xlink:href="#DejaVuSans-20" x="3039.113281"/>
     <use xlink:href="#DejaVuSans-28" x="3070.900391"/>
     <use xlink:href="#DejaVuSans-61" x="3109.914062"/>
     <use xlink:href="#DejaVuSans-62" x="3171.193359"/>
     <use xlink:href="#DejaVuSans-73" x="3234.669922"/>
     <use xlink:href="#DejaVuSans-6f" x="3286.769531"/>
     <use xlink:href="#DejaVuSans-6c" x="3347.951172"/>
     <use xlink:href="#DejaVuSans-75" x="3375.734375"/>
     <use xlink:href="#DejaVuSans-74" x="3439.113281"/>
     <use xlink:href="#DejaVuSans-65" x="3478.322266"/>
     <use xlink:href="#DejaVuSans-29" x="3539.845703"/>
    </g>
   </g>
  </g>
 </g>
 <defs>
  <clipPath id="p0bfd6bb270">
   <path d="M 365.32 180.84 
C 365.32 163.122468 361.830033 145.577217 355.049827 129.208351 
C 348.269621 112.839486 338.331034 97.96534 325.802847 85.437153 
C 313.27466 72.908966 298.400514 62.970379 282.031649 56.190173 
C 265.662783 49.409967 248.117532 45.92 230.4 45.92 
C 212.682468 45.92 195.137217 49.409967 178.768351 56.190173 
C 162.399486 62.970379 147.52534 72.908966 134.997153 85.437153 
C 122.468966 97.96534 112.530379 112.839486 105.750173 129.208351 
C 98.969967 145.577217 95.48 163.122468 95.48 180.84 
C 95.48 198.557532 98.969967 216.102783 105.750173 232.471649 
C 112.530379 248.840514 122.468966 263.71466 134.997153 276.242847 
C 147.52534 288.771034 162.399486 298.709621 178.768351 305.489827 
C 195.137217 312.270033 212.682468 315.76 230.4 315.76 
C 248.117532 315.76 265.662783 312.270033 282.031649 305.489827 
C 298.400514 298.709621 313.27466 288.771034 325.802847 276.242847 
C 338.331034 263.71466 348.269621 248.840514 355.049827 232.471649 
C 361.830033 216.102783 365.32 198.557532 365.32 180.84 
M 230.4 180.84 
C 230.4 180.84 230.4 180.84 230.4 180.84 
C 230.4 180.84 230.4 180.84 230.4 180.84 
C 230.4 180.84 230.4 180.84 230.4 180.84 
C 230.4 180.84 230.4 180.84 230.4 180.84 
C 230.4 180.84 230.4 180.84 230.4 180.84 
C 230.4 180.84 230.4 180.84 230.4 180.84 
C 230.4 180.84 230.4 180.84 230.4 180.84 
C 230.4 180.84 230.4 180.84 230.4 180.84 
C 230.4 180.84 230.4 180.84 230.4 180.84 
C 230.4 180.84 230.4 180.84 230.4 180.84 
C 230.4 180.84 230.4 180.84 230.4 180.84 
C 230.4 180.84 230.4 180.84 230.4 180.84 
C 230.4 180.84 230.4 180.84 230.4 180.84 
C 230.4 180.84 230.4 180.84 230.4 180.84 
C 230.4 180.84 230.4 180.84 230.4 180.84 
C 230.4 180.84 230.4 180.84 230.4 180.84 
z
"/>
  </clipPath>
 </defs>
</svg>
