<?xml version="1.0" encoding="utf-8" standalone="no"?>
<!DOCTYPE svg PUBLIC "-//W3C//DTD SVG 1.1//EN"
  "http://www.w3.org/Graphics/SVG/1.1/DTD/svg11.dtd">
<svg xmlns:xlink="http://www.w3.org/1999/xlink" width="460.8pt" height="345.6pt" viewBox="0 0 460.8 345.6" xmlns="http://www.w3.org/2000/svg" version="1.1">
 <metadata>
  <rdf:RDF xmlns:dc="http://purl.org/dc/elements/1.1/" xmlns:cc="http://creativecommons.org/ns#" xmlns:rdf="http://www.w3.org/1999/02/22-rdf-syntax-ns#">
   <cc:Work>
    <dc:type rdf:resource="http://purl.org/dc/dcmitype/StillImage"/>
    <dc:date>2025-10-01T16:20:27.906082</dc:date>
    <dc:format>image/svg+xml</dc:format>
    <dc:creator>
     <cc:Agent>
      <dc:title>Matplotlib v3.9.0, https://matplotlib.org/</dc:title>
     </cc:Agent>
    </dc:creator>
   </cc:Work>
  </rdf:RDF>
 </metadata>
 <defs>
  <style type="text/css">*{stroke-linejoin: round; stroke-linecap: butt}</style>
 </defs>
 <g id="figure_1">
  <g id="patch_1">
   <path d="M 0 345.6 
L 460.8 345.6 
L 460.8 0 
L 0 0 
z
" style="fill: #ffffff"/>
  </g>
  <g id="axes_1">
   <g id="patch_2">
    <path d="M 384.36 180.84 
C 384.36 160.622158 380.377526 140.600909 372.640493 121.922059 
C 364.90346 103.243208 353.562333 86.270013 339.26616 71.97384 
C 324.969987 57.677667 307.996792 46.33654 289.317941 38.599507 
C 270.639091 30.862474 250.617842 26.88 230.4 26.88 
C 210.182158 26.88 190.160909 30.862474 171.482059 38.599507 
C 152.803208 46.33654 135.830013 57.677667 121.53384 71.97384 
C 107.237667 86.270013 95.89654 103.243208 88.159507 121.922059 
C 80.422474 140.600909 76.44 160.622158 76.44 180.84 
C 76.44 201.057842 80.422474 221.079091 88.159507 239.757941 
C 95.89654 258.436792 107.237667 275.409987 121.53384 289.70616 
C 135.830013 304.002333 152.803208 315.34346 171.482059 323.080493 
C 190.160909 330.817526 210.182158 334.8 230.4 334.8 
C 250.617842 334.8 270.639091 330.817526 289.317941 323.080493 
C 307.996792 315.34346 324.969987 304.002333 339.26616 289.70616 
C 353.562333 275.409987 364.90346 258.436792 372.640493 239.757941 
C 380.377526 221.079091 384.36 201.057842 384.36 180.84 
M 230.4 180.84 
C 230.4 180.84 230.4 180.84 230.4 180.84 
C 230.4 180.84 230.4 180.84 230.4 180.84 
C 230.4 180.84 230.4 180.84 230.4 180.84 
C 230.4 180.84 230.4 180.84 230.4 180.84 
C 230.4 180.84 230.4 180.84 230.4 180.84 
C 230.4 180.84 230.4 180.84 230.4 180.84 
C 230.4 180.84 230.4 180.84 230.4 180.84 
C 230.4 180.84 230.4 180.84 230.4 180.84 
C 230.4 180.84 230.4 180.84 230.4 180.84 
C 230.4 180.84 230.4 180.84 230.4 180.84 
C 230.4 180.84 230.4 180.84 230.4 180.84 
C 230.4 180.84 230.4 180.84 230.4 180.84 
C 230.4 180.84 230.4 180.84 230.4 180.84 
C 230.4 180.84 230.4 180.84 230.4 180.84 
C 230.4 180.84 230.4 180.84 230.4 180.84 
C 230.4 180.84 230.4 180.84 230.4 180.84 
z
" style="fill: #ffffff"/>
   </g>
   <g id="patch_3">
    <path d="M 325.63299 180.84 
L 295.800247 67.563449 
L 162.376436 63.019731 
L 104.993069 180.84 
L 154.818262 311.75141 
L 305.22592 310.442296 
z
" clip-path="url(#p419cc9566d)" style="fill: #1f77b4; opacity: 0.15"/>
   </g>
   <g id="matplotlib.axis_1">
    <g id="xtick_1">
     <g id="line2d_1">
      <path d="M 230.4 180.84 
L 384.36 180.84 
" clip-path="url(#p419cc9566d)" style="fill: none; stroke: #b0b0b0; stroke-width: 0.8; stroke-linecap: square"/>
     </g>
     <g id="text_1">
      <!-- pass_at_1 -->
      <g transform="translate(373.706875 183.32125) scale(0.1 -0.1)">
       <defs>
        <path id="DejaVuSans-70" d="M 1159 525 
L 1159 -1331 
L 581 -1331 
L 581 3500 
L 1159 3500 
L 1159 2969 
Q 1341 3281 1617 3432 
Q 1894 3584 2278 3584 
Q 2916 3584 3314 3078 
Q 3713 2572 3713 1747 
Q 3713 922 3314 415 
Q 2916 -91 2278 -91 
Q 1894 -91 1617 61 
Q 1341 213 1159 525 
z
M 3116 1747 
Q 3116 2381 2855 2742 
Q 2594 3103 2138 3103 
Q 1681 3103 1420 2742 
Q 1159 2381 1159 1747 
Q 1159 1113 1420 752 
Q 1681 391 2138 391 
Q 2594 391 2855 752 
Q 3116 1113 3116 1747 
z
" transform="scale(0.015625)"/>
        <path id="DejaVuSans-61" d="M 2194 1759 
Q 1497 1759 1228 1600 
Q 959 1441 959 1056 
Q 959 750 1161 570 
Q 1363 391 1709 391 
Q 2188 391 2477 730 
Q 2766 1069 2766 1631 
L 2766 1759 
L 2194 1759 
z
M 3341 1997 
L 3341 0 
L 2766 0 
L 2766 531 
Q 2569 213 2275 61 
Q 1981 -91 1556 -91 
Q 1019 -91 701 211 
Q 384 513 384 1019 
Q 384 1609 779 1909 
Q 1175 2209 1959 2209 
L 2766 2209 
L 2766 2266 
Q 2766 2663 2505 2880 
Q 2244 3097 1772 3097 
Q 1472 3097 1187 3025 
Q 903 2953 641 2809 
L 641 3341 
Q 956 3463 1253 3523 
Q 1550 3584 1831 3584 
Q 2591 3584 2966 3190 
Q 3341 2797 3341 1997 
z
" transform="scale(0.015625)"/>
        <path id="DejaVuSans-73" d="M 2834 3397 
L 2834 2853 
Q 2591 2978 2328 3040 
Q 2066 3103 1784 3103 
Q 1356 3103 1142 2972 
Q 928 2841 928 2578 
Q 928 2378 1081 2264 
Q 1234 2150 1697 2047 
L 1894 2003 
Q 2506 1872 2764 1633 
Q 3022 1394 3022 966 
Q 3022 478 2636 193 
Q 2250 -91 1575 -91 
Q 1294 -91 989 -36 
Q 684 19 347 128 
L 347 722 
Q 666 556 975 473 
Q 1284 391 1588 391 
Q 1994 391 2212 530 
Q 2431 669 2431 922 
Q 2431 1156 2273 1281 
Q 2116 1406 1581 1522 
L 1381 1569 
Q 847 1681 609 1914 
Q 372 2147 372 2553 
Q 372 3047 722 3315 
Q 1072 3584 1716 3584 
Q 2034 3584 2315 3537 
Q 2597 3491 2834 3397 
z
" transform="scale(0.015625)"/>
        <path id="DejaVuSans-5f" d="M 3263 -1063 
L 3263 -1509 
L -63 -1509 
L -63 -1063 
L 3263 -1063 
z
" transform="scale(0.015625)"/>
        <path id="DejaVuSans-74" d="M 1172 4494 
L 1172 3500 
L 2356 3500 
L 2356 3053 
L 1172 3053 
L 1172 1153 
Q 1172 725 1289 603 
Q 1406 481 1766 481 
L 2356 481 
L 2356 0 
L 1766 0 
Q 1100 0 847 248 
Q 594 497 594 1153 
L 594 3053 
L 172 3053 
L 172 3500 
L 594 3500 
L 594 4494 
L 1172 4494 
z
" transform="scale(0.015625)"/>
        <path id="DejaVuSans-31" d="M 794 531 
L 1825 531 
L 1825 4091 
L 703 3866 
L 703 4441 
L 1819 4666 
L 2450 4666 
L 2450 531 
L 3481 531 
L 3481 0 
L 794 0 
L 794 531 
z
" transform="scale(0.015625)"/>
       </defs>
       <use xlink:href="#DejaVuSans-70"/>
       <use xlink:href="#DejaVuSans-61" x="63.476562"/>
       <use xlink:href="#DejaVuSans-73" x="124.755859"/>
       <use xlink:href="#DejaVuSans-73" x="176.855469"/>
       <use xlink:href="#DejaVuSans-5f" x="228.955078"/>
       <use xlink:href="#DejaVuSans-61" x="278.955078"/>
       <use xlink:href="#DejaVuSans-74" x="340.234375"/>
       <use xlink:href="#DejaVuSans-5f" x="379.443359"/>
       <use xlink:href="#DejaVuSans-31" x="429.443359"/>
      </g>
     </g>
    </g>
    <g id="xtick_2">
     <g id="line2d_2">
      <path d="M 230.4 180.84 
L 307.38 47.506729 
" clip-path="url(#p419cc9566d)" style="fill: none; stroke: #b0b0b0; stroke-width: 0.8; stroke-linecap: square"/>
     </g>
     <g id="text_2">
      <!-- pass_at_10 -->
      <g transform="translate(286.545625 37.914404) scale(0.1 -0.1)">
       <defs>
        <path id="DejaVuSans-30" d="M 2034 4250 
Q 1547 4250 1301 3770 
Q 1056 3291 1056 2328 
Q 1056 1369 1301 889 
Q 1547 409 2034 409 
Q 2525 409 2770 889 
Q 3016 1369 3016 2328 
Q 3016 3291 2770 3770 
Q 2525 4250 2034 4250 
z
M 2034 4750 
Q 2819 4750 3233 4129 
Q 3647 3509 3647 2328 
Q 3647 1150 3233 529 
Q 2819 -91 2034 -91 
Q 1250 -91 836 529 
Q 422 1150 422 2328 
Q 422 3509 836 4129 
Q 1250 4750 2034 4750 
z
" transform="scale(0.015625)"/>
       </defs>
       <use xlink:href="#DejaVuSans-70"/>
       <use xlink:href="#DejaVuSans-61" x="63.476562"/>
       <use xlink:href="#DejaVuSans-73" x="124.755859"/>
       <use xlink:href="#DejaVuSans-73" x="176.855469"/>
       <use xlink:href="#DejaVuSans-5f" x="228.955078"/>
       <use xlink:href="#DejaVuSans-61" x="278.955078"/>
       <use xlink:href="#DejaVuSans-74" x="340.234375"/>
       <use xlink:href="#DejaVuSans-5f" x="379.443359"/>
       <use xlink:href="#DejaVuSans-31" x="429.443359"/>
       <use xlink:href="#DejaVuSans-30" x="493.066406"/>
      </g>
     </g>
    </g>
    <g id="xtick_3">
     <g id="line2d_3">
      <path d="M 230.4 180.84 
L 153.42 47.506729 
" clip-path="url(#p419cc9566d)" style="fill: none; stroke: #b0b0b0; stroke-width: 0.8; stroke-linecap: square"/>
     </g>
     <g id="text_3">
      <!-- pass_at_100 -->
      <g transform="translate(115.404375 37.914404) scale(0.1 -0.1)">
       <use xlink:href="#DejaVuSans-70"/>
       <use xlink:href="#DejaVuSans-61" x="63.476562"/>
       <use xlink:href="#DejaVuSans-73" x="124.755859"/>
       <use xlink:href="#DejaVuSans-73" x="176.855469"/>
       <use xlink:href="#DejaVuSans-5f" x="228.955078"/>
       <use xlink:href="#DejaVuSans-61" x="278.955078"/>
       <use xlink:href="#DejaVuSans-74" x="340.234375"/>
       <use xlink:href="#DejaVuSans-5f" x="379.443359"/>
       <use xlink:href="#DejaVuSans-31" x="429.443359"/>
       <use xlink:href="#DejaVuSans-30" x="493.066406"/>
       <use xlink:href="#DejaVuSans-30" x="556.689453"/>
      </g>
     </g>
    </g>
    <g id="xtick_4">
     <g id="line2d_4">
      <path d="M 230.4 180.84 
L 76.44 180.84 
" clip-path="url(#p419cc9566d)" style="fill: none; stroke: #b0b0b0; stroke-width: 0.8; stroke-linecap: square"/>
     </g>
     <g id="text_4">
      <!-- auc_logk -->
      <g transform="translate(40.44 183.460312) scale(0.1 -0.1)">
       <defs>
        <path id="DejaVuSans-75" d="M 544 1381 
L 544 3500 
L 1119 3500 
L 1119 1403 
Q 1119 906 1312 657 
Q 1506 409 1894 409 
Q 2359 409 2629 706 
Q 2900 1003 2900 1516 
L 2900 3500 
L 3475 3500 
L 3475 0 
L 2900 0 
L 2900 538 
Q 2691 219 2414 64 
Q 2138 -91 1772 -91 
Q 1169 -91 856 284 
Q 544 659 544 1381 
z
M 1991 3584 
L 1991 3584 
z
" transform="scale(0.015625)"/>
        <path id="DejaVuSans-63" d="M 3122 3366 
L 3122 2828 
Q 2878 2963 2633 3030 
Q 2388 3097 2138 3097 
Q 1578 3097 1268 2742 
Q 959 2388 959 1747 
Q 959 1106 1268 751 
Q 1578 397 2138 397 
Q 2388 397 2633 464 
Q 2878 531 3122 666 
L 3122 134 
Q 2881 22 2623 -34 
Q 2366 -91 2075 -91 
Q 1284 -91 818 406 
Q 353 903 353 1747 
Q 353 2603 823 3093 
Q 1294 3584 2113 3584 
Q 2378 3584 2631 3529 
Q 2884 3475 3122 3366 
z
" transform="scale(0.015625)"/>
        <path id="DejaVuSans-6c" d="M 603 4863 
L 1178 4863 
L 1178 0 
L 603 0 
L 603 4863 
z
" transform="scale(0.015625)"/>
        <path id="DejaVuSans-6f" d="M 1959 3097 
Q 1497 3097 1228 2736 
Q 959 2375 959 1747 
Q 959 1119 1226 758 
Q 1494 397 1959 397 
Q 2419 397 2687 759 
Q 2956 1122 2956 1747 
Q 2956 2369 2687 2733 
Q 2419 3097 1959 3097 
z
M 1959 3584 
Q 2709 3584 3137 3096 
Q 3566 2609 3566 1747 
Q 3566 888 3137 398 
Q 2709 -91 1959 -91 
Q 1206 -91 779 398 
Q 353 888 353 1747 
Q 353 2609 779 3096 
Q 1206 3584 1959 3584 
z
" transform="scale(0.015625)"/>
        <path id="DejaVuSans-67" d="M 2906 1791 
Q 2906 2416 2648 2759 
Q 2391 3103 1925 3103 
Q 1463 3103 1205 2759 
Q 947 2416 947 1791 
Q 947 1169 1205 825 
Q 1463 481 1925 481 
Q 2391 481 2648 825 
Q 2906 1169 2906 1791 
z
M 3481 434 
Q 3481 -459 3084 -895 
Q 2688 -1331 1869 -1331 
Q 1566 -1331 1297 -1286 
Q 1028 -1241 775 -1147 
L 775 -588 
Q 1028 -725 1275 -790 
Q 1522 -856 1778 -856 
Q 2344 -856 2625 -561 
Q 2906 -266 2906 331 
L 2906 616 
Q 2728 306 2450 153 
Q 2172 0 1784 0 
Q 1141 0 747 490 
Q 353 981 353 1791 
Q 353 2603 747 3093 
Q 1141 3584 1784 3584 
Q 2172 3584 2450 3431 
Q 2728 3278 2906 2969 
L 2906 3500 
L 3481 3500 
L 3481 434 
z
" transform="scale(0.015625)"/>
        <path id="DejaVuSans-6b" d="M 581 4863 
L 1159 4863 
L 1159 1991 
L 2875 3500 
L 3609 3500 
L 1753 1863 
L 3688 0 
L 2938 0 
L 1159 1709 
L 1159 0 
L 581 0 
L 581 4863 
z
" transform="scale(0.015625)"/>
       </defs>
       <use xlink:href="#DejaVuSans-61"/>
       <use xlink:href="#DejaVuSans-75" x="61.279297"/>
       <use xlink:href="#DejaVuSans-63" x="124.658203"/>
       <use xlink:href="#DejaVuSans-5f" x="179.638672"/>
       <use xlink:href="#DejaVuSans-6c" x="229.638672"/>
       <use xlink:href="#DejaVuSans-6f" x="257.421875"/>
       <use xlink:href="#DejaVuSans-67" x="318.603516"/>
       <use xlink:href="#DejaVuSans-6b" x="382.080078"/>
      </g>
     </g>
    </g>
    <g id="xtick_5">
     <g id="line2d_5">
      <path d="M 230.4 180.84 
L 153.42 314.173271 
" clip-path="url(#p419cc9566d)" style="fill: none; stroke: #b0b0b0; stroke-width: 0.8; stroke-linecap: square"/>
     </g>
     <g id="text_5">
      <!-- k50 -->
      <g transform="translate(137.162187 329.057002) scale(0.1 -0.1)">
       <defs>
        <path id="DejaVuSans-35" d="M 691 4666 
L 3169 4666 
L 3169 4134 
L 1269 4134 
L 1269 2991 
Q 1406 3038 1543 3061 
Q 1681 3084 1819 3084 
Q 2600 3084 3056 2656 
Q 3513 2228 3513 1497 
Q 3513 744 3044 326 
Q 2575 -91 1722 -91 
Q 1428 -91 1123 -41 
Q 819 9 494 109 
L 494 744 
Q 775 591 1075 516 
Q 1375 441 1709 441 
Q 2250 441 2565 725 
Q 2881 1009 2881 1497 
Q 2881 1984 2565 2268 
Q 2250 2553 1709 2553 
Q 1456 2553 1204 2497 
Q 953 2441 691 2322 
L 691 4666 
z
" transform="scale(0.015625)"/>
       </defs>
       <use xlink:href="#DejaVuSans-6b"/>
       <use xlink:href="#DejaVuSans-35" x="57.910156"/>
       <use xlink:href="#DejaVuSans-30" x="121.533203"/>
      </g>
     </g>
    </g>
    <g id="xtick_6">
     <g id="line2d_6">
      <path d="M 230.4 180.84 
L 307.38 314.173271 
" clip-path="url(#p419cc9566d)" style="fill: none; stroke: #b0b0b0; stroke-width: 0.8; stroke-linecap: square"/>
     </g>
     <g id="text_6">
      <!-- k90 -->
      <g transform="translate(305.122187 329.057002) scale(0.1 -0.1)">
       <defs>
        <path id="DejaVuSans-39" d="M 703 97 
L 703 672 
Q 941 559 1184 500 
Q 1428 441 1663 441 
Q 2288 441 2617 861 
Q 2947 1281 2994 2138 
Q 2813 1869 2534 1725 
Q 2256 1581 1919 1581 
Q 1219 1581 811 2004 
Q 403 2428 403 3163 
Q 403 3881 828 4315 
Q 1253 4750 1959 4750 
Q 2769 4750 3195 4129 
Q 3622 3509 3622 2328 
Q 3622 1225 3098 567 
Q 2575 -91 1691 -91 
Q 1453 -91 1209 -44 
Q 966 3 703 97 
z
M 1959 2075 
Q 2384 2075 2632 2365 
Q 2881 2656 2881 3163 
Q 2881 3666 2632 3958 
Q 2384 4250 1959 4250 
Q 1534 4250 1286 3958 
Q 1038 3666 1038 3163 
Q 1038 2656 1286 2365 
Q 1534 2075 1959 2075 
z
" transform="scale(0.015625)"/>
       </defs>
       <use xlink:href="#DejaVuSans-6b"/>
       <use xlink:href="#DejaVuSans-39" x="57.910156"/>
       <use xlink:href="#DejaVuSans-30" x="121.533203"/>
      </g>
     </g>
    </g>
   </g>
   <g id="matplotlib.axis_2">
    <g id="ytick_1">
     <g id="line2d_7">
      <path d="M 260.632695 180.84 
C 260.632695 176.869879 259.850668 172.938362 258.331368 169.270448 
C 256.812069 165.602535 254.585043 162.269556 251.777744 159.462256 
C 248.970444 156.654957 245.637465 154.427931 241.969552 152.908632 
C 238.301638 151.389332 234.370121 150.607305 230.4 150.607305 
C 226.429879 150.607305 222.498362 151.389332 218.830448 152.908632 
C 215.162535 154.427931 211.829556 156.654957 209.022256 159.462256 
C 206.214957 162.269556 203.987931 165.602535 202.468632 169.270448 
C 200.949332 172.938362 200.167305 176.869879 200.167305 180.84 
C 200.167305 184.810121 200.949332 188.741638 202.468632 192.409552 
C 203.987931 196.077465 206.214957 199.410444 209.022256 202.217744 
C 211.829556 205.025043 215.162535 207.252069 218.830448 208.771368 
C 222.498362 210.290668 226.429879 211.072695 230.4 211.072695 
C 234.370121 211.072695 238.301638 210.290668 241.969552 208.771368 
C 245.637465 207.252069 248.970444 205.025043 251.777744 202.217744 
C 254.585043 199.410444 256.812069 196.077465 258.331368 192.409552 
C 259.850668 188.741638 260.632695 184.810121 260.632695 180.84 
" clip-path="url(#p419cc9566d)" style="fill: none; stroke: #b0b0b0; stroke-width: 0.8; stroke-linecap: square"/>
     </g>
     <g id="text_7">
      <!-- 0.2 -->
      <g transform="translate(230.4 148.527617) scale(0.1 -0.1)">
       <defs>
        <path id="DejaVuSans-2e" d="M 684 794 
L 1344 794 
L 1344 0 
L 684 0 
L 684 794 
z
" transform="scale(0.015625)"/>
        <path id="DejaVuSans-32" d="M 1228 531 
L 3431 531 
L 3431 0 
L 469 0 
L 469 531 
Q 828 903 1448 1529 
Q 2069 2156 2228 2338 
Q 2531 2678 2651 2914 
Q 2772 3150 2772 3378 
Q 2772 3750 2511 3984 
Q 2250 4219 1831 4219 
Q 1534 4219 1204 4116 
Q 875 4013 500 3803 
L 500 4441 
Q 881 4594 1212 4672 
Q 1544 4750 1819 4750 
Q 2544 4750 2975 4387 
Q 3406 4025 3406 3419 
Q 3406 3131 3298 2873 
Q 3191 2616 2906 2266 
Q 2828 2175 2409 1742 
Q 1991 1309 1228 531 
z
" transform="scale(0.015625)"/>
       </defs>
       <use xlink:href="#DejaVuSans-30"/>
       <use xlink:href="#DejaVuSans-2e" x="63.623047"/>
       <use xlink:href="#DejaVuSans-32" x="95.410156"/>
      </g>
     </g>
    </g>
    <g id="ytick_2">
     <g id="line2d_8">
      <path d="M 290.86539 180.84 
C 290.86539 172.899758 289.301336 165.036724 286.262737 157.700897 
C 283.224137 150.36507 278.770087 143.699112 273.155487 138.084513 
C 267.540888 132.469913 260.87493 128.015863 253.539103 124.977263 
C 246.203276 121.938664 238.340242 120.37461 230.4 120.37461 
C 222.459758 120.37461 214.596724 121.938664 207.260897 124.977263 
C 199.92507 128.015863 193.259112 132.469913 187.644513 138.084513 
C 182.029913 143.699112 177.575863 150.36507 174.537263 157.700897 
C 171.498664 165.036724 169.93461 172.899758 169.93461 180.84 
C 169.93461 188.780242 171.498664 196.643276 174.537263 203.979103 
C 177.575863 211.31493 182.029913 217.980888 187.644513 223.595487 
C 193.259112 229.210087 199.92507 233.664137 207.260897 236.702737 
C 214.596724 239.741336 222.459758 241.30539 230.4 241.30539 
C 238.340242 241.30539 246.203276 239.741336 253.539103 236.702737 
C 260.87493 233.664137 267.540888 229.210087 273.155487 223.595487 
C 278.770087 217.980888 283.224137 211.31493 286.262737 203.979103 
C 289.301336 196.643276 290.86539 188.780242 290.86539 180.84 
" clip-path="url(#p419cc9566d)" style="fill: none; stroke: #b0b0b0; stroke-width: 0.8; stroke-linecap: square"/>
     </g>
     <g id="text_8">
      <!-- 0.4 -->
      <g transform="translate(230.4 118.294922) scale(0.1 -0.1)">
       <defs>
        <path id="DejaVuSans-34" d="M 2419 4116 
L 825 1625 
L 2419 1625 
L 2419 4116 
z
M 2253 4666 
L 3047 4666 
L 3047 1625 
L 3713 1625 
L 3713 1100 
L 3047 1100 
L 3047 0 
L 2419 0 
L 2419 1100 
L 313 1100 
L 313 1709 
L 2253 4666 
z
" transform="scale(0.015625)"/>
       </defs>
       <use xlink:href="#DejaVuSans-30"/>
       <use xlink:href="#DejaVuSans-2e" x="63.623047"/>
       <use xlink:href="#DejaVuSans-34" x="95.410156"/>
      </g>
     </g>
    </g>
    <g id="ytick_3">
     <g id="line2d_9">
      <path d="M 321.098085 180.84 
C 321.098085 168.929637 318.752004 157.135086 314.194105 146.131345 
C 309.636206 135.127604 302.95513 125.128668 294.533231 116.706769 
C 286.111332 108.28487 276.112396 101.603794 265.108655 97.045895 
C 254.104914 92.487996 242.310363 90.141915 230.4 90.141915 
C 218.489637 90.141915 206.695086 92.487996 195.691345 97.045895 
C 184.687604 101.603794 174.688668 108.28487 166.266769 116.706769 
C 157.84487 125.128668 151.163794 135.127604 146.605895 146.131345 
C 142.047996 157.135086 139.701915 168.929637 139.701915 180.84 
C 139.701915 192.750363 142.047996 204.544914 146.605895 215.548655 
C 151.163794 226.552396 157.84487 236.551332 166.266769 244.973231 
C 174.688668 253.39513 184.687604 260.076206 195.691345 264.634105 
C 206.695086 269.192004 218.489637 271.538085 230.4 271.538085 
C 242.310363 271.538085 254.104914 269.192004 265.108655 264.634105 
C 276.112396 260.076206 286.111332 253.39513 294.533231 244.973231 
C 302.95513 236.551332 309.636206 226.552396 314.194105 215.548655 
C 318.752004 204.544914 321.098085 192.750363 321.098085 180.84 
" clip-path="url(#p419cc9566d)" style="fill: none; stroke: #b0b0b0; stroke-width: 0.8; stroke-linecap: square"/>
     </g>
     <g id="text_9">
      <!-- 0.6 -->
      <g transform="translate(230.4 88.062227) scale(0.1 -0.1)">
       <defs>
        <path id="DejaVuSans-36" d="M 2113 2584 
Q 1688 2584 1439 2293 
Q 1191 2003 1191 1497 
Q 1191 994 1439 701 
Q 1688 409 2113 409 
Q 2538 409 2786 701 
Q 3034 994 3034 1497 
Q 3034 2003 2786 2293 
Q 2538 2584 2113 2584 
z
M 3366 4563 
L 3366 3988 
Q 3128 4100 2886 4159 
Q 2644 4219 2406 4219 
Q 1781 4219 1451 3797 
Q 1122 3375 1075 2522 
Q 1259 2794 1537 2939 
Q 1816 3084 2150 3084 
Q 2853 3084 3261 2657 
Q 3669 2231 3669 1497 
Q 3669 778 3244 343 
Q 2819 -91 2113 -91 
Q 1303 -91 875 529 
Q 447 1150 447 2328 
Q 447 3434 972 4092 
Q 1497 4750 2381 4750 
Q 2619 4750 2861 4703 
Q 3103 4656 3366 4563 
z
" transform="scale(0.015625)"/>
       </defs>
       <use xlink:href="#DejaVuSans-30"/>
       <use xlink:href="#DejaVuSans-2e" x="63.623047"/>
       <use xlink:href="#DejaVuSans-36" x="95.410156"/>
      </g>
     </g>
    </g>
    <g id="ytick_4">
     <g id="line2d_10">
      <path d="M 351.330781 180.84 
C 351.330781 164.959515 348.202671 149.233449 342.125473 134.561794 
C 336.048275 119.890139 327.140173 106.558223 315.910975 95.329025 
C 304.681777 84.099827 291.349861 75.191725 276.678206 69.114527 
C 262.006551 63.037329 246.280485 59.909219 230.4 59.909219 
C 214.519515 59.909219 198.793449 63.037329 184.121794 69.114527 
C 169.450139 75.191725 156.118223 84.099827 144.889025 95.329025 
C 133.659827 106.558223 124.751725 119.890139 118.674527 134.561794 
C 112.597329 149.233449 109.469219 164.959515 109.469219 180.84 
C 109.469219 196.720485 112.597329 212.446551 118.674527 227.118206 
C 124.751725 241.789861 133.659827 255.121777 144.889025 266.350975 
C 156.118223 277.580173 169.450139 286.488275 184.121794 292.565473 
C 198.793449 298.642671 214.519515 301.770781 230.4 301.770781 
C 246.280485 301.770781 262.006551 298.642671 276.678206 292.565473 
C 291.349861 286.488275 304.681777 277.580173 315.910975 266.350975 
C 327.140173 255.121777 336.048275 241.789861 342.125473 227.118206 
C 348.202671 212.446551 351.330781 196.720485 351.330781 180.84 
" clip-path="url(#p419cc9566d)" style="fill: none; stroke: #b0b0b0; stroke-width: 0.8; stroke-linecap: square"/>
     </g>
     <g id="text_10">
      <!-- 0.8 -->
      <g transform="translate(230.4 57.829532) scale(0.1 -0.1)">
       <defs>
        <path id="DejaVuSans-38" d="M 2034 2216 
Q 1584 2216 1326 1975 
Q 1069 1734 1069 1313 
Q 1069 891 1326 650 
Q 1584 409 2034 409 
Q 2484 409 2743 651 
Q 3003 894 3003 1313 
Q 3003 1734 2745 1975 
Q 2488 2216 2034 2216 
z
M 1403 2484 
Q 997 2584 770 2862 
Q 544 3141 544 3541 
Q 544 4100 942 4425 
Q 1341 4750 2034 4750 
Q 2731 4750 3128 4425 
Q 3525 4100 3525 3541 
Q 3525 3141 3298 2862 
Q 3072 2584 2669 2484 
Q 3125 2378 3379 2068 
Q 3634 1759 3634 1313 
Q 3634 634 3220 271 
Q 2806 -91 2034 -91 
Q 1263 -91 848 271 
Q 434 634 434 1313 
Q 434 1759 690 2068 
Q 947 2378 1403 2484 
z
M 1172 3481 
Q 1172 3119 1398 2916 
Q 1625 2713 2034 2713 
Q 2441 2713 2670 2916 
Q 2900 3119 2900 3481 
Q 2900 3844 2670 4047 
Q 2441 4250 2034 4250 
Q 1625 4250 1398 4047 
Q 1172 3844 1172 3481 
z
" transform="scale(0.015625)"/>
       </defs>
       <use xlink:href="#DejaVuSans-30"/>
       <use xlink:href="#DejaVuSans-2e" x="63.623047"/>
       <use xlink:href="#DejaVuSans-38" x="95.410156"/>
      </g>
     </g>
    </g>
    <g id="ytick_5">
     <g id="line2d_11">
      <path d="M 381.563476 180.84 
C 381.563476 160.989394 377.653339 141.331811 370.056841 122.992242 
C 362.460343 104.652674 351.325217 87.987779 337.288719 73.951281 
C 323.252221 59.914783 306.587326 48.779657 288.247758 41.183159 
C 269.908189 33.586661 250.250606 29.676524 230.4 29.676524 
C 210.549394 29.676524 190.891811 33.586661 172.552242 41.183159 
C 154.212674 48.779657 137.547779 59.914783 123.511281 73.951281 
C 109.474783 87.987779 98.339657 104.652674 90.743159 122.992242 
C 83.146661 141.331811 79.236524 160.989394 79.236524 180.84 
C 79.236524 200.690606 83.146661 220.348189 90.743159 238.687758 
C 98.339657 257.027326 109.474783 273.692221 123.511281 287.728719 
C 137.547779 301.765217 154.212674 312.900343 172.552242 320.496841 
C 190.891811 328.093339 210.549394 332.003476 230.4 332.003476 
C 250.250606 332.003476 269.908189 328.093339 288.247758 320.496841 
C 306.587326 312.900343 323.252221 301.765217 337.288719 287.728719 
C 351.325217 273.692221 362.460343 257.027326 370.056841 238.687758 
C 377.653339 220.348189 381.563476 200.690606 381.563476 180.84 
" clip-path="url(#p419cc9566d)" style="fill: none; stroke: #b0b0b0; stroke-width: 0.8; stroke-linecap: square"/>
     </g>
     <g id="text_11">
      <!-- 1.0 -->
      <g transform="translate(230.4 27.596837) scale(0.1 -0.1)">
       <use xlink:href="#DejaVuSans-31"/>
       <use xlink:href="#DejaVuSans-2e" x="63.623047"/>
       <use xlink:href="#DejaVuSans-30" x="95.410156"/>
      </g>
     </g>
    </g>
   </g>
   <g id="line2d_12">
    <path d="M 325.63299 180.84 
L 295.800247 67.563449 
L 162.376436 63.019731 
L 104.993069 180.84 
L 154.818262 311.75141 
L 305.22592 310.442296 
L 325.63299 180.84 
" clip-path="url(#p419cc9566d)" style="fill: none; stroke: #1f77b4; stroke-width: 2; stroke-linecap: square"/>
   </g>
   <g id="patch_4">
    <path d="M 384.36 180.84 
C 384.36 160.622158 380.377526 140.600909 372.640493 121.922059 
C 364.90346 103.243208 353.562333 86.270013 339.26616 71.97384 
C 324.969987 57.677667 307.996792 46.33654 289.317941 38.599507 
C 270.639091 30.862474 250.617842 26.88 230.4 26.88 
C 210.182158 26.88 190.160909 30.862474 171.482059 38.599507 
C 152.803208 46.33654 135.830013 57.677667 121.53384 71.97384 
C 107.237667 86.270013 95.89654 103.243208 88.159507 121.922059 
C 80.422474 140.600909 76.44 160.622158 76.44 180.84 
C 76.44 201.057842 80.422474 221.079091 88.159507 239.757941 
C 95.89654 258.436792 107.237667 275.409987 121.53384 289.70616 
C 135.830013 304.002333 152.803208 315.34346 171.482059 323.080493 
C 190.160909 330.817526 210.182158 334.8 230.4 334.8 
C 250.617842 334.8 270.639091 330.817526 289.317941 323.080493 
C 307.996792 315.34346 324.969987 304.002333 339.26616 289.70616 
C 353.562333 275.409987 364.90346 258.436792 372.640493 239.757941 
C 380.377526 221.079091 384.36 201.057842 384.36 180.84 
" style="fill: none; stroke: #000000; stroke-width: 0.8; stroke-linejoin: miter; stroke-linecap: square"/>
   </g>
   <g id="text_12">
    <!-- Performance radar – Llama-3.1-8B-Instruct [CoT] (absolute) -->
    <g transform="translate(51.916875 20.88) scale(0.12 -0.12)">
     <defs>
      <path id="DejaVuSans-50" d="M 1259 4147 
L 1259 2394 
L 2053 2394 
Q 2494 2394 2734 2622 
Q 2975 2850 2975 3272 
Q 2975 3691 2734 3919 
Q 2494 4147 2053 4147 
L 1259 4147 
z
M 628 4666 
L 2053 4666 
Q 2838 4666 3239 4311 
Q 3641 3956 3641 3272 
Q 3641 2581 3239 2228 
Q 2838 1875 2053 1875 
L 1259 1875 
L 1259 0 
L 628 0 
L 628 4666 
z
" transform="scale(0.015625)"/>
      <path id="DejaVuSans-65" d="M 3597 1894 
L 3597 1613 
L 953 1613 
Q 991 1019 1311 708 
Q 1631 397 2203 397 
Q 2534 397 2845 478 
Q 3156 559 3463 722 
L 3463 178 
Q 3153 47 2828 -22 
Q 2503 -91 2169 -91 
Q 1331 -91 842 396 
Q 353 884 353 1716 
Q 353 2575 817 3079 
Q 1281 3584 2069 3584 
Q 2775 3584 3186 3129 
Q 3597 2675 3597 1894 
z
M 3022 2063 
Q 3016 2534 2758 2815 
Q 2500 3097 2075 3097 
Q 1594 3097 1305 2825 
Q 1016 2553 972 2059 
L 3022 2063 
z
" transform="scale(0.015625)"/>
      <path id="DejaVuSans-72" d="M 2631 2963 
Q 2534 3019 2420 3045 
Q 2306 3072 2169 3072 
Q 1681 3072 1420 2755 
Q 1159 2438 1159 1844 
L 1159 0 
L 581 0 
L 581 3500 
L 1159 3500 
L 1159 2956 
Q 1341 3275 1631 3429 
Q 1922 3584 2338 3584 
Q 2397 3584 2469 3576 
Q 2541 3569 2628 3553 
L 2631 2963 
z
" transform="scale(0.015625)"/>
      <path id="DejaVuSans-66" d="M 2375 4863 
L 2375 4384 
L 1825 4384 
Q 1516 4384 1395 4259 
Q 1275 4134 1275 3809 
L 1275 3500 
L 2222 3500 
L 2222 3053 
L 1275 3053 
L 1275 0 
L 697 0 
L 697 3053 
L 147 3053 
L 147 3500 
L 697 3500 
L 697 3744 
Q 697 4328 969 4595 
Q 1241 4863 1831 4863 
L 2375 4863 
z
" transform="scale(0.015625)"/>
      <path id="DejaVuSans-6d" d="M 3328 2828 
Q 3544 3216 3844 3400 
Q 4144 3584 4550 3584 
Q 5097 3584 5394 3201 
Q 5691 2819 5691 2113 
L 5691 0 
L 5113 0 
L 5113 2094 
Q 5113 2597 4934 2840 
Q 4756 3084 4391 3084 
Q 3944 3084 3684 2787 
Q 3425 2491 3425 1978 
L 3425 0 
L 2847 0 
L 2847 2094 
Q 2847 2600 2669 2842 
Q 2491 3084 2119 3084 
Q 1678 3084 1418 2786 
Q 1159 2488 1159 1978 
L 1159 0 
L 581 0 
L 581 3500 
L 1159 3500 
L 1159 2956 
Q 1356 3278 1631 3431 
Q 1906 3584 2284 3584 
Q 2666 3584 2933 3390 
Q 3200 3197 3328 2828 
z
" transform="scale(0.015625)"/>
      <path id="DejaVuSans-6e" d="M 3513 2113 
L 3513 0 
L 2938 0 
L 2938 2094 
Q 2938 2591 2744 2837 
Q 2550 3084 2163 3084 
Q 1697 3084 1428 2787 
Q 1159 2491 1159 1978 
L 1159 0 
L 581 0 
L 581 3500 
L 1159 3500 
L 1159 2956 
Q 1366 3272 1645 3428 
Q 1925 3584 2291 3584 
Q 2894 3584 3203 3211 
Q 3513 2838 3513 2113 
z
" transform="scale(0.015625)"/>
      <path id="DejaVuSans-20" transform="scale(0.015625)"/>
      <path id="DejaVuSans-64" d="M 2906 2969 
L 2906 4863 
L 3481 4863 
L 3481 0 
L 2906 0 
L 2906 525 
Q 2725 213 2448 61 
Q 2172 -91 1784 -91 
Q 1150 -91 751 415 
Q 353 922 353 1747 
Q 353 2572 751 3078 
Q 1150 3584 1784 3584 
Q 2172 3584 2448 3432 
Q 2725 3281 2906 2969 
z
M 947 1747 
Q 947 1113 1208 752 
Q 1469 391 1925 391 
Q 2381 391 2643 752 
Q 2906 1113 2906 1747 
Q 2906 2381 2643 2742 
Q 2381 3103 1925 3103 
Q 1469 3103 1208 2742 
Q 947 2381 947 1747 
z
" transform="scale(0.015625)"/>
      <path id="DejaVuSans-2013" d="M 313 1978 
L 2888 1978 
L 2888 1528 
L 313 1528 
L 313 1978 
z
" transform="scale(0.015625)"/>
      <path id="DejaVuSans-4c" d="M 628 4666 
L 1259 4666 
L 1259 531 
L 3531 531 
L 3531 0 
L 628 0 
L 628 4666 
z
" transform="scale(0.015625)"/>
      <path id="DejaVuSans-2d" d="M 313 2009 
L 1997 2009 
L 1997 1497 
L 313 1497 
L 313 2009 
z
" transform="scale(0.015625)"/>
      <path id="DejaVuSans-33" d="M 2597 2516 
Q 3050 2419 3304 2112 
Q 3559 1806 3559 1356 
Q 3559 666 3084 287 
Q 2609 -91 1734 -91 
Q 1441 -91 1130 -33 
Q 819 25 488 141 
L 488 750 
Q 750 597 1062 519 
Q 1375 441 1716 441 
Q 2309 441 2620 675 
Q 2931 909 2931 1356 
Q 2931 1769 2642 2001 
Q 2353 2234 1838 2234 
L 1294 2234 
L 1294 2753 
L 1863 2753 
Q 2328 2753 2575 2939 
Q 2822 3125 2822 3475 
Q 2822 3834 2567 4026 
Q 2313 4219 1838 4219 
Q 1578 4219 1281 4162 
Q 984 4106 628 3988 
L 628 4550 
Q 988 4650 1302 4700 
Q 1616 4750 1894 4750 
Q 2613 4750 3031 4423 
Q 3450 4097 3450 3541 
Q 3450 3153 3228 2886 
Q 3006 2619 2597 2516 
z
" transform="scale(0.015625)"/>
      <path id="DejaVuSans-42" d="M 1259 2228 
L 1259 519 
L 2272 519 
Q 2781 519 3026 730 
Q 3272 941 3272 1375 
Q 3272 1813 3026 2020 
Q 2781 2228 2272 2228 
L 1259 2228 
z
M 1259 4147 
L 1259 2741 
L 2194 2741 
Q 2656 2741 2882 2914 
Q 3109 3088 3109 3444 
Q 3109 3797 2882 3972 
Q 2656 4147 2194 4147 
L 1259 4147 
z
M 628 4666 
L 2241 4666 
Q 2963 4666 3353 4366 
Q 3744 4066 3744 3513 
Q 3744 3084 3544 2831 
Q 3344 2578 2956 2516 
Q 3422 2416 3680 2098 
Q 3938 1781 3938 1306 
Q 3938 681 3513 340 
Q 3088 0 2303 0 
L 628 0 
L 628 4666 
z
" transform="scale(0.015625)"/>
      <path id="DejaVuSans-49" d="M 628 4666 
L 1259 4666 
L 1259 0 
L 628 0 
L 628 4666 
z
" transform="scale(0.015625)"/>
      <path id="DejaVuSans-5b" d="M 550 4863 
L 1875 4863 
L 1875 4416 
L 1125 4416 
L 1125 -397 
L 1875 -397 
L 1875 -844 
L 550 -844 
L 550 4863 
z
" transform="scale(0.015625)"/>
      <path id="DejaVuSans-43" d="M 4122 4306 
L 4122 3641 
Q 3803 3938 3442 4084 
Q 3081 4231 2675 4231 
Q 1875 4231 1450 3742 
Q 1025 3253 1025 2328 
Q 1025 1406 1450 917 
Q 1875 428 2675 428 
Q 3081 428 3442 575 
Q 3803 722 4122 1019 
L 4122 359 
Q 3791 134 3420 21 
Q 3050 -91 2638 -91 
Q 1578 -91 968 557 
Q 359 1206 359 2328 
Q 359 3453 968 4101 
Q 1578 4750 2638 4750 
Q 3056 4750 3426 4639 
Q 3797 4528 4122 4306 
z
" transform="scale(0.015625)"/>
      <path id="DejaVuSans-54" d="M -19 4666 
L 3928 4666 
L 3928 4134 
L 2272 4134 
L 2272 0 
L 1638 0 
L 1638 4134 
L -19 4134 
L -19 4666 
z
" transform="scale(0.015625)"/>
      <path id="DejaVuSans-5d" d="M 1947 4863 
L 1947 -844 
L 622 -844 
L 622 -397 
L 1369 -397 
L 1369 4416 
L 622 4416 
L 622 4863 
L 1947 4863 
z
" transform="scale(0.015625)"/>
      <path id="DejaVuSans-28" d="M 1984 4856 
Q 1566 4138 1362 3434 
Q 1159 2731 1159 2009 
Q 1159 1288 1364 580 
Q 1569 -128 1984 -844 
L 1484 -844 
Q 1016 -109 783 600 
Q 550 1309 550 2009 
Q 550 2706 781 3412 
Q 1013 4119 1484 4856 
L 1984 4856 
z
" transform="scale(0.015625)"/>
      <path id="DejaVuSans-62" d="M 3116 1747 
Q 3116 2381 2855 2742 
Q 2594 3103 2138 3103 
Q 1681 3103 1420 2742 
Q 1159 2381 1159 1747 
Q 1159 1113 1420 752 
Q 1681 391 2138 391 
Q 2594 391 2855 752 
Q 3116 1113 3116 1747 
z
M 1159 2969 
Q 1341 3281 1617 3432 
Q 1894 3584 2278 3584 
Q 2916 3584 3314 3078 
Q 3713 2572 3713 1747 
Q 3713 922 3314 415 
Q 2916 -91 2278 -91 
Q 1894 -91 1617 61 
Q 1341 213 1159 525 
L 1159 0 
L 581 0 
L 581 4863 
L 1159 4863 
L 1159 2969 
z
" transform="scale(0.015625)"/>
      <path id="DejaVuSans-29" d="M 513 4856 
L 1013 4856 
Q 1481 4119 1714 3412 
Q 1947 2706 1947 2009 
Q 1947 1309 1714 600 
Q 1481 -109 1013 -844 
L 513 -844 
Q 928 -128 1133 580 
Q 1338 1288 1338 2009 
Q 1338 2731 1133 3434 
Q 928 4138 513 4856 
z
" transform="scale(0.015625)"/>
     </defs>
     <use xlink:href="#DejaVuSans-50"/>
     <use xlink:href="#DejaVuSans-65" x="56.677734"/>
     <use xlink:href="#DejaVuSans-72" x="118.201172"/>
     <use xlink:href="#DejaVuSans-66" x="159.314453"/>
     <use xlink:href="#DejaVuSans-6f" x="194.519531"/>
     <use xlink:href="#DejaVuSans-72" x="255.701172"/>
     <use xlink:href="#DejaVuSans-6d" x="295.064453"/>
     <use xlink:href="#DejaVuSans-61" x="392.476562"/>
     <use xlink:href="#DejaVuSans-6e" x="453.755859"/>
     <use xlink:href="#DejaVuSans-63" x="517.134766"/>
     <use xlink:href="#DejaVuSans-65" x="572.115234"/>
     <use xlink:href="#DejaVuSans-20" x="633.638672"/>
     <use xlink:href="#DejaVuSans-72" x="665.425781"/>
     <use xlink:href="#DejaVuSans-61" x="706.539062"/>
     <use xlink:href="#DejaVuSans-64" x="767.818359"/>
     <use xlink:href="#DejaVuSans-61" x="831.294922"/>
     <use xlink:href="#DejaVuSans-72" x="892.574219"/>
     <use xlink:href="#DejaVuSans-20" x="933.6875"/>
     <use xlink:href="#DejaVuSans-2013" x="965.474609"/>
     <use xlink:href="#DejaVuSans-20" x="1015.474609"/>
     <use xlink:href="#DejaVuSans-4c" x="1047.261719"/>
     <use xlink:href="#DejaVuSans-6c" x="1102.974609"/>
     <use xlink:href="#DejaVuSans-61" x="1130.757812"/>
     <use xlink:href="#DejaVuSans-6d" x="1192.037109"/>
     <use xlink:href="#DejaVuSans-61" x="1289.449219"/>
     <use xlink:href="#DejaVuSans-2d" x="1350.728516"/>
     <use xlink:href="#DejaVuSans-33" x="1386.8125"/>
     <use xlink:href="#DejaVuSans-2e" x="1450.435547"/>
     <use xlink:href="#DejaVuSans-31" x="1482.222656"/>
     <use xlink:href="#DejaVuSans-2d" x="1545.845703"/>
     <use xlink:href="#DejaVuSans-38" x="1581.929688"/>
     <use xlink:href="#DejaVuSans-42" x="1645.552734"/>
     <use xlink:href="#DejaVuSans-2d" x="1714.15625"/>
     <use xlink:href="#DejaVuSans-49" x="1750.240234"/>
     <use xlink:href="#DejaVuSans-6e" x="1779.732422"/>
     <use xlink:href="#DejaVuSans-73" x="1843.111328"/>
     <use xlink:href="#DejaVuSans-74" x="1895.210938"/>
     <use xlink:href="#DejaVuSans-72" x="1934.419922"/>
     <use xlink:href="#DejaVuSans-75" x="1975.533203"/>
     <use xlink:href="#DejaVuSans-63" x="2038.912109"/>
     <use xlink:href="#DejaVuSans-74" x="2093.892578"/>
     <use xlink:href="#DejaVuSans-20" x="2133.101562"/>
     <use xlink:href="#DejaVuSans-5b" x="2164.888672"/>
     <use xlink:href="#DejaVuSans-43" x="2203.902344"/>
     <use xlink:href="#DejaVuSans-6f" x="2273.726562"/>
     <use xlink:href="#DejaVuSans-54" x="2334.908203"/>
     <use xlink:href="#DejaVuSans-5d" x="2395.992188"/>
     <use xlink:href="#DejaVuSans-20" x="2435.005859"/>
     <use xlink:href="#DejaVuSans-28" x="2466.792969"/>
     <use xlink:href="#DejaVuSans-61" x="2505.806641"/>
     <use xlink:href="#DejaVuSans-62" x="2567.085938"/>
     <use xlink:href="#DejaVuSans-73" x="2630.5625"/>
     <use xlink:href="#DejaVuSans-6f" x="2682.662109"/>
     <use xlink:href="#DejaVuSans-6c" x="2743.84375"/>
     <use xlink:href="#DejaVuSans-75" x="2771.626953"/>
     <use xlink:href="#DejaVuSans-74" x="2835.005859"/>
     <use xlink:href="#DejaVuSans-65" x="2874.214844"/>
     <use xlink:href="#DejaVuSans-29" x="2935.738281"/>
    </g>
   </g>
  </g>
 </g>
 <defs>
  <clipPath id="p419cc9566d">
   <path d="M 384.36 180.84 
C 384.36 160.622158 380.377526 140.600909 372.640493 121.922059 
C 364.90346 103.243208 353.562333 86.270013 339.26616 71.97384 
C 324.969987 57.677667 307.996792 46.33654 289.317941 38.599507 
C 270.639091 30.862474 250.617842 26.88 230.4 26.88 
C 210.182158 26.88 190.160909 30.862474 171.482059 38.599507 
C 152.803208 46.33654 135.830013 57.677667 121.53384 71.97384 
C 107.237667 86.270013 95.89654 103.243208 88.159507 121.922059 
C 80.422474 140.600909 76.44 160.622158 76.44 180.84 
C 76.44 201.057842 80.422474 221.079091 88.159507 239.757941 
C 95.89654 258.436792 107.237667 275.409987 121.53384 289.70616 
C 135.830013 304.002333 152.803208 315.34346 171.482059 323.080493 
C 190.160909 330.817526 210.182158 334.8 230.4 334.8 
C 250.617842 334.8 270.639091 330.817526 289.317941 323.080493 
C 307.996792 315.34346 324.969987 304.002333 339.26616 289.70616 
C 353.562333 275.409987 364.90346 258.436792 372.640493 239.757941 
C 380.377526 221.079091 384.36 201.057842 384.36 180.84 
M 230.4 180.84 
C 230.4 180.84 230.4 180.84 230.4 180.84 
C 230.4 180.84 230.4 180.84 230.4 180.84 
C 230.4 180.84 230.4 180.84 230.4 180.84 
C 230.4 180.84 230.4 180.84 230.4 180.84 
C 230.4 180.84 230.4 180.84 230.4 180.84 
C 230.4 180.84 230.4 180.84 230.4 180.84 
C 230.4 180.84 230.4 180.84 230.4 180.84 
C 230.4 180.84 230.4 180.84 230.4 180.84 
C 230.4 180.84 230.4 180.84 230.4 180.84 
C 230.4 180.84 230.4 180.84 230.4 180.84 
C 230.4 180.84 230.4 180.84 230.4 180.84 
C 230.4 180.84 230.4 180.84 230.4 180.84 
C 230.4 180.84 230.4 180.84 230.4 180.84 
C 230.4 180.84 230.4 180.84 230.4 180.84 
C 230.4 180.84 230.4 180.84 230.4 180.84 
C 230.4 180.84 230.4 180.84 230.4 180.84 
z
"/>
  </clipPath>
 </defs>
</svg>
