<?xml version="1.0" encoding="utf-8" standalone="no"?>
<!DOCTYPE svg PUBLIC "-//W3C//DTD SVG 1.1//EN"
  "http://www.w3.org/Graphics/SVG/1.1/DTD/svg11.dtd">
<svg xmlns:xlink="http://www.w3.org/1999/xlink" width="460.8pt" height="345.6pt" viewBox="0 0 460.8 345.6" xmlns="http://www.w3.org/2000/svg" version="1.1">
 <metadata>
  <rdf:RDF xmlns:dc="http://purl.org/dc/elements/1.1/" xmlns:cc="http://creativecommons.org/ns#" xmlns:rdf="http://www.w3.org/1999/02/22-rdf-syntax-ns#">
   <cc:Work>
    <dc:type rdf:resource="http://purl.org/dc/dcmitype/StillImage"/>
    <dc:date>2025-10-01T15:22:24.032723</dc:date>
    <dc:format>image/svg+xml</dc:format>
    <dc:creator>
     <cc:Agent>
      <dc:title>Matplotlib v3.9.0, https://matplotlib.org/</dc:title>
     </cc:Agent>
    </dc:creator>
   </cc:Work>
  </rdf:RDF>
 </metadata>
 <defs>
  <style type="text/css">*{stroke-linejoin: round; stroke-linecap: butt}</style>
 </defs>
 <g id="figure_1">
  <g id="patch_1">
   <path d="M 0 345.6 
L 460.8 345.6 
L 460.8 0 
L 0 0 
z
" style="fill: #ffffff"/>
  </g>
  <g id="axes_1">
   <g id="patch_2">
    <path d="M 384.36 180.84 
C 384.36 160.622158 380.377526 140.600909 372.640493 121.922059 
C 364.90346 103.243208 353.562333 86.270013 339.26616 71.97384 
C 324.969987 57.677667 307.996792 46.33654 289.317941 38.599507 
C 270.639091 30.862474 250.617842 26.88 230.4 26.88 
C 210.182158 26.88 190.160909 30.862474 171.482059 38.599507 
C 152.803208 46.33654 135.830013 57.677667 121.53384 71.97384 
C 107.237667 86.270013 95.89654 103.243208 88.159507 121.922059 
C 80.422474 140.600909 76.44 160.622158 76.44 180.84 
C 76.44 201.057842 80.422474 221.079091 88.159507 239.757941 
C 95.89654 258.436792 107.237667 275.409987 121.53384 289.70616 
C 135.830013 304.002333 152.803208 315.34346 171.482059 323.080493 
C 190.160909 330.817526 210.182158 334.8 230.4 334.8 
C 250.617842 334.8 270.639091 330.817526 289.317941 323.080493 
C 307.996792 315.34346 324.969987 304.002333 339.26616 289.70616 
C 353.562333 275.409987 364.90346 258.436792 372.640493 239.757941 
C 380.377526 221.079091 384.36 201.057842 384.36 180.84 
M 230.4 180.84 
C 230.4 180.84 230.4 180.84 230.4 180.84 
C 230.4 180.84 230.4 180.84 230.4 180.84 
C 230.4 180.84 230.4 180.84 230.4 180.84 
C 230.4 180.84 230.4 180.84 230.4 180.84 
C 230.4 180.84 230.4 180.84 230.4 180.84 
C 230.4 180.84 230.4 180.84 230.4 180.84 
C 230.4 180.84 230.4 180.84 230.4 180.84 
C 230.4 180.84 230.4 180.84 230.4 180.84 
C 230.4 180.84 230.4 180.84 230.4 180.84 
C 230.4 180.84 230.4 180.84 230.4 180.84 
C 230.4 180.84 230.4 180.84 230.4 180.84 
C 230.4 180.84 230.4 180.84 230.4 180.84 
C 230.4 180.84 230.4 180.84 230.4 180.84 
C 230.4 180.84 230.4 180.84 230.4 180.84 
C 230.4 180.84 230.4 180.84 230.4 180.84 
C 230.4 180.84 230.4 180.84 230.4 180.84 
z
" style="fill: #ffffff"/>
   </g>
   <g id="patch_3">
    <path d="M 380.604878 180.84 
L 305.502439 50.75876 
L 155.297561 50.75876 
L 80.195122 180.84 
L 192.84878 245.88062 
L 305.502439 310.92124 
z
" clip-path="url(#pe46d7f745e)" style="fill: #1f77b4; opacity: 0.15"/>
   </g>
   <g id="matplotlib.axis_1">
    <g id="xtick_1">
     <g id="line2d_1">
      <path d="M 230.4 180.84 
L 384.36 180.84 
" clip-path="url(#pe46d7f745e)" style="fill: none; stroke: #b0b0b0; stroke-width: 0.8; stroke-linecap: square"/>
     </g>
     <g id="text_1">
      <!-- pass_at_1 -->
      <g transform="translate(373.706875 183.32125) scale(0.1 -0.1)">
       <defs>
        <path id="DejaVuSans-70" d="M 1159 525 
L 1159 -1331 
L 581 -1331 
L 581 3500 
L 1159 3500 
L 1159 2969 
Q 1341 3281 1617 3432 
Q 1894 3584 2278 3584 
Q 2916 3584 3314 3078 
Q 3713 2572 3713 1747 
Q 3713 922 3314 415 
Q 2916 -91 2278 -91 
Q 1894 -91 1617 61 
Q 1341 213 1159 525 
z
M 3116 1747 
Q 3116 2381 2855 2742 
Q 2594 3103 2138 3103 
Q 1681 3103 1420 2742 
Q 1159 2381 1159 1747 
Q 1159 1113 1420 752 
Q 1681 391 2138 391 
Q 2594 391 2855 752 
Q 3116 1113 3116 1747 
z
" transform="scale(0.015625)"/>
        <path id="DejaVuSans-61" d="M 2194 1759 
Q 1497 1759 1228 1600 
Q 959 1441 959 1056 
Q 959 750 1161 570 
Q 1363 391 1709 391 
Q 2188 391 2477 730 
Q 2766 1069 2766 1631 
L 2766 1759 
L 2194 1759 
z
M 3341 1997 
L 3341 0 
L 2766 0 
L 2766 531 
Q 2569 213 2275 61 
Q 1981 -91 1556 -91 
Q 1019 -91 701 211 
Q 384 513 384 1019 
Q 384 1609 779 1909 
Q 1175 2209 1959 2209 
L 2766 2209 
L 2766 2266 
Q 2766 2663 2505 2880 
Q 2244 3097 1772 3097 
Q 1472 3097 1187 3025 
Q 903 2953 641 2809 
L 641 3341 
Q 956 3463 1253 3523 
Q 1550 3584 1831 3584 
Q 2591 3584 2966 3190 
Q 3341 2797 3341 1997 
z
" transform="scale(0.015625)"/>
        <path id="DejaVuSans-73" d="M 2834 3397 
L 2834 2853 
Q 2591 2978 2328 3040 
Q 2066 3103 1784 3103 
Q 1356 3103 1142 2972 
Q 928 2841 928 2578 
Q 928 2378 1081 2264 
Q 1234 2150 1697 2047 
L 1894 2003 
Q 2506 1872 2764 1633 
Q 3022 1394 3022 966 
Q 3022 478 2636 193 
Q 2250 -91 1575 -91 
Q 1294 -91 989 -36 
Q 684 19 347 128 
L 347 722 
Q 666 556 975 473 
Q 1284 391 1588 391 
Q 1994 391 2212 530 
Q 2431 669 2431 922 
Q 2431 1156 2273 1281 
Q 2116 1406 1581 1522 
L 1381 1569 
Q 847 1681 609 1914 
Q 372 2147 372 2553 
Q 372 3047 722 3315 
Q 1072 3584 1716 3584 
Q 2034 3584 2315 3537 
Q 2597 3491 2834 3397 
z
" transform="scale(0.015625)"/>
        <path id="DejaVuSans-5f" d="M 3263 -1063 
L 3263 -1509 
L -63 -1509 
L -63 -1063 
L 3263 -1063 
z
" transform="scale(0.015625)"/>
        <path id="DejaVuSans-74" d="M 1172 4494 
L 1172 3500 
L 2356 3500 
L 2356 3053 
L 1172 3053 
L 1172 1153 
Q 1172 725 1289 603 
Q 1406 481 1766 481 
L 2356 481 
L 2356 0 
L 1766 0 
Q 1100 0 847 248 
Q 594 497 594 1153 
L 594 3053 
L 172 3053 
L 172 3500 
L 594 3500 
L 594 4494 
L 1172 4494 
z
" transform="scale(0.015625)"/>
        <path id="DejaVuSans-31" d="M 794 531 
L 1825 531 
L 1825 4091 
L 703 3866 
L 703 4441 
L 1819 4666 
L 2450 4666 
L 2450 531 
L 3481 531 
L 3481 0 
L 794 0 
L 794 531 
z
" transform="scale(0.015625)"/>
       </defs>
       <use xlink:href="#DejaVuSans-70"/>
       <use xlink:href="#DejaVuSans-61" x="63.476562"/>
       <use xlink:href="#DejaVuSans-73" x="124.755859"/>
       <use xlink:href="#DejaVuSans-73" x="176.855469"/>
       <use xlink:href="#DejaVuSans-5f" x="228.955078"/>
       <use xlink:href="#DejaVuSans-61" x="278.955078"/>
       <use xlink:href="#DejaVuSans-74" x="340.234375"/>
       <use xlink:href="#DejaVuSans-5f" x="379.443359"/>
       <use xlink:href="#DejaVuSans-31" x="429.443359"/>
      </g>
     </g>
    </g>
    <g id="xtick_2">
     <g id="line2d_2">
      <path d="M 230.4 180.84 
L 307.38 47.506729 
" clip-path="url(#pe46d7f745e)" style="fill: none; stroke: #b0b0b0; stroke-width: 0.8; stroke-linecap: square"/>
     </g>
     <g id="text_2">
      <!-- pass_at_10 -->
      <g transform="translate(286.545625 37.914404) scale(0.1 -0.1)">
       <defs>
        <path id="DejaVuSans-30" d="M 2034 4250 
Q 1547 4250 1301 3770 
Q 1056 3291 1056 2328 
Q 1056 1369 1301 889 
Q 1547 409 2034 409 
Q 2525 409 2770 889 
Q 3016 1369 3016 2328 
Q 3016 3291 2770 3770 
Q 2525 4250 2034 4250 
z
M 2034 4750 
Q 2819 4750 3233 4129 
Q 3647 3509 3647 2328 
Q 3647 1150 3233 529 
Q 2819 -91 2034 -91 
Q 1250 -91 836 529 
Q 422 1150 422 2328 
Q 422 3509 836 4129 
Q 1250 4750 2034 4750 
z
" transform="scale(0.015625)"/>
       </defs>
       <use xlink:href="#DejaVuSans-70"/>
       <use xlink:href="#DejaVuSans-61" x="63.476562"/>
       <use xlink:href="#DejaVuSans-73" x="124.755859"/>
       <use xlink:href="#DejaVuSans-73" x="176.855469"/>
       <use xlink:href="#DejaVuSans-5f" x="228.955078"/>
       <use xlink:href="#DejaVuSans-61" x="278.955078"/>
       <use xlink:href="#DejaVuSans-74" x="340.234375"/>
       <use xlink:href="#DejaVuSans-5f" x="379.443359"/>
       <use xlink:href="#DejaVuSans-31" x="429.443359"/>
       <use xlink:href="#DejaVuSans-30" x="493.066406"/>
      </g>
     </g>
    </g>
    <g id="xtick_3">
     <g id="line2d_3">
      <path d="M 230.4 180.84 
L 153.42 47.506729 
" clip-path="url(#pe46d7f745e)" style="fill: none; stroke: #b0b0b0; stroke-width: 0.8; stroke-linecap: square"/>
     </g>
     <g id="text_3">
      <!-- pass_at_100 -->
      <g transform="translate(115.404375 37.914404) scale(0.1 -0.1)">
       <use xlink:href="#DejaVuSans-70"/>
       <use xlink:href="#DejaVuSans-61" x="63.476562"/>
       <use xlink:href="#DejaVuSans-73" x="124.755859"/>
       <use xlink:href="#DejaVuSans-73" x="176.855469"/>
       <use xlink:href="#DejaVuSans-5f" x="228.955078"/>
       <use xlink:href="#DejaVuSans-61" x="278.955078"/>
       <use xlink:href="#DejaVuSans-74" x="340.234375"/>
       <use xlink:href="#DejaVuSans-5f" x="379.443359"/>
       <use xlink:href="#DejaVuSans-31" x="429.443359"/>
       <use xlink:href="#DejaVuSans-30" x="493.066406"/>
       <use xlink:href="#DejaVuSans-30" x="556.689453"/>
      </g>
     </g>
    </g>
    <g id="xtick_4">
     <g id="line2d_4">
      <path d="M 230.4 180.84 
L 76.44 180.84 
" clip-path="url(#pe46d7f745e)" style="fill: none; stroke: #b0b0b0; stroke-width: 0.8; stroke-linecap: square"/>
     </g>
     <g id="text_4">
      <!-- auc_logk -->
      <g transform="translate(40.44 183.460312) scale(0.1 -0.1)">
       <defs>
        <path id="DejaVuSans-75" d="M 544 1381 
L 544 3500 
L 1119 3500 
L 1119 1403 
Q 1119 906 1312 657 
Q 1506 409 1894 409 
Q 2359 409 2629 706 
Q 2900 1003 2900 1516 
L 2900 3500 
L 3475 3500 
L 3475 0 
L 2900 0 
L 2900 538 
Q 2691 219 2414 64 
Q 2138 -91 1772 -91 
Q 1169 -91 856 284 
Q 544 659 544 1381 
z
M 1991 3584 
L 1991 3584 
z
" transform="scale(0.015625)"/>
        <path id="DejaVuSans-63" d="M 3122 3366 
L 3122 2828 
Q 2878 2963 2633 3030 
Q 2388 3097 2138 3097 
Q 1578 3097 1268 2742 
Q 959 2388 959 1747 
Q 959 1106 1268 751 
Q 1578 397 2138 397 
Q 2388 397 2633 464 
Q 2878 531 3122 666 
L 3122 134 
Q 2881 22 2623 -34 
Q 2366 -91 2075 -91 
Q 1284 -91 818 406 
Q 353 903 353 1747 
Q 353 2603 823 3093 
Q 1294 3584 2113 3584 
Q 2378 3584 2631 3529 
Q 2884 3475 3122 3366 
z
" transform="scale(0.015625)"/>
        <path id="DejaVuSans-6c" d="M 603 4863 
L 1178 4863 
L 1178 0 
L 603 0 
L 603 4863 
z
" transform="scale(0.015625)"/>
        <path id="DejaVuSans-6f" d="M 1959 3097 
Q 1497 3097 1228 2736 
Q 959 2375 959 1747 
Q 959 1119 1226 758 
Q 1494 397 1959 397 
Q 2419 397 2687 759 
Q 2956 1122 2956 1747 
Q 2956 2369 2687 2733 
Q 2419 3097 1959 3097 
z
M 1959 3584 
Q 2709 3584 3137 3096 
Q 3566 2609 3566 1747 
Q 3566 888 3137 398 
Q 2709 -91 1959 -91 
Q 1206 -91 779 398 
Q 353 888 353 1747 
Q 353 2609 779 3096 
Q 1206 3584 1959 3584 
z
" transform="scale(0.015625)"/>
        <path id="DejaVuSans-67" d="M 2906 1791 
Q 2906 2416 2648 2759 
Q 2391 3103 1925 3103 
Q 1463 3103 1205 2759 
Q 947 2416 947 1791 
Q 947 1169 1205 825 
Q 1463 481 1925 481 
Q 2391 481 2648 825 
Q 2906 1169 2906 1791 
z
M 3481 434 
Q 3481 -459 3084 -895 
Q 2688 -1331 1869 -1331 
Q 1566 -1331 1297 -1286 
Q 1028 -1241 775 -1147 
L 775 -588 
Q 1028 -725 1275 -790 
Q 1522 -856 1778 -856 
Q 2344 -856 2625 -561 
Q 2906 -266 2906 331 
L 2906 616 
Q 2728 306 2450 153 
Q 2172 0 1784 0 
Q 1141 0 747 490 
Q 353 981 353 1791 
Q 353 2603 747 3093 
Q 1141 3584 1784 3584 
Q 2172 3584 2450 3431 
Q 2728 3278 2906 2969 
L 2906 3500 
L 3481 3500 
L 3481 434 
z
" transform="scale(0.015625)"/>
        <path id="DejaVuSans-6b" d="M 581 4863 
L 1159 4863 
L 1159 1991 
L 2875 3500 
L 3609 3500 
L 1753 1863 
L 3688 0 
L 2938 0 
L 1159 1709 
L 1159 0 
L 581 0 
L 581 4863 
z
" transform="scale(0.015625)"/>
       </defs>
       <use xlink:href="#DejaVuSans-61"/>
       <use xlink:href="#DejaVuSans-75" x="61.279297"/>
       <use xlink:href="#DejaVuSans-63" x="124.658203"/>
       <use xlink:href="#DejaVuSans-5f" x="179.638672"/>
       <use xlink:href="#DejaVuSans-6c" x="229.638672"/>
       <use xlink:href="#DejaVuSans-6f" x="257.421875"/>
       <use xlink:href="#DejaVuSans-67" x="318.603516"/>
       <use xlink:href="#DejaVuSans-6b" x="382.080078"/>
      </g>
     </g>
    </g>
    <g id="xtick_5">
     <g id="line2d_5">
      <path d="M 230.4 180.84 
L 153.42 314.173271 
" clip-path="url(#pe46d7f745e)" style="fill: none; stroke: #b0b0b0; stroke-width: 0.8; stroke-linecap: square"/>
     </g>
     <g id="text_5">
      <!-- k50 -->
      <g transform="translate(137.162187 329.057002) scale(0.1 -0.1)">
       <defs>
        <path id="DejaVuSans-35" d="M 691 4666 
L 3169 4666 
L 3169 4134 
L 1269 4134 
L 1269 2991 
Q 1406 3038 1543 3061 
Q 1681 3084 1819 3084 
Q 2600 3084 3056 2656 
Q 3513 2228 3513 1497 
Q 3513 744 3044 326 
Q 2575 -91 1722 -91 
Q 1428 -91 1123 -41 
Q 819 9 494 109 
L 494 744 
Q 775 591 1075 516 
Q 1375 441 1709 441 
Q 2250 441 2565 725 
Q 2881 1009 2881 1497 
Q 2881 1984 2565 2268 
Q 2250 2553 1709 2553 
Q 1456 2553 1204 2497 
Q 953 2441 691 2322 
L 691 4666 
z
" transform="scale(0.015625)"/>
       </defs>
       <use xlink:href="#DejaVuSans-6b"/>
       <use xlink:href="#DejaVuSans-35" x="57.910156"/>
       <use xlink:href="#DejaVuSans-30" x="121.533203"/>
      </g>
     </g>
    </g>
    <g id="xtick_6">
     <g id="line2d_6">
      <path d="M 230.4 180.84 
L 307.38 314.173271 
" clip-path="url(#pe46d7f745e)" style="fill: none; stroke: #b0b0b0; stroke-width: 0.8; stroke-linecap: square"/>
     </g>
     <g id="text_6">
      <!-- k90 -->
      <g transform="translate(305.122187 329.057002) scale(0.1 -0.1)">
       <defs>
        <path id="DejaVuSans-39" d="M 703 97 
L 703 672 
Q 941 559 1184 500 
Q 1428 441 1663 441 
Q 2288 441 2617 861 
Q 2947 1281 2994 2138 
Q 2813 1869 2534 1725 
Q 2256 1581 1919 1581 
Q 1219 1581 811 2004 
Q 403 2428 403 3163 
Q 403 3881 828 4315 
Q 1253 4750 1959 4750 
Q 2769 4750 3195 4129 
Q 3622 3509 3622 2328 
Q 3622 1225 3098 567 
Q 2575 -91 1691 -91 
Q 1453 -91 1209 -44 
Q 966 3 703 97 
z
M 1959 2075 
Q 2384 2075 2632 2365 
Q 2881 2656 2881 3163 
Q 2881 3666 2632 3958 
Q 2384 4250 1959 4250 
Q 1534 4250 1286 3958 
Q 1038 3666 1038 3163 
Q 1038 2656 1286 2365 
Q 1534 2075 1959 2075 
z
" transform="scale(0.015625)"/>
       </defs>
       <use xlink:href="#DejaVuSans-6b"/>
       <use xlink:href="#DejaVuSans-39" x="57.910156"/>
       <use xlink:href="#DejaVuSans-30" x="121.533203"/>
      </g>
     </g>
    </g>
   </g>
   <g id="matplotlib.axis_2">
    <g id="ytick_1">
     <g id="line2d_7">
      <path d="M 260.440976 180.84 
C 260.440976 176.895055 259.663908 172.98847 258.154243 169.343816 
C 256.644577 165.699163 254.431675 162.38732 251.642178 159.597822 
C 248.85268 156.808325 245.540837 154.595423 241.896184 153.085757 
C 238.25153 151.576092 234.344945 150.799024 230.4 150.799024 
C 226.455055 150.799024 222.54847 151.576092 218.903816 153.085757 
C 215.259163 154.595423 211.94732 156.808325 209.157822 159.597822 
C 206.368325 162.38732 204.155423 165.699163 202.645757 169.343816 
C 201.136092 172.98847 200.359024 176.895055 200.359024 180.84 
C 200.359024 184.784945 201.136092 188.69153 202.645757 192.336184 
C 204.155423 195.980837 206.368325 199.29268 209.157822 202.082178 
C 211.94732 204.871675 215.259163 207.084577 218.903816 208.594243 
C 222.54847 210.103908 226.455055 210.880976 230.4 210.880976 
C 234.344945 210.880976 238.25153 210.103908 241.896184 208.594243 
C 245.540837 207.084577 248.85268 204.871675 251.642178 202.082178 
C 254.431675 199.29268 256.644577 195.980837 258.154243 192.336184 
C 259.663908 188.69153 260.440976 184.784945 260.440976 180.84 
" clip-path="url(#pe46d7f745e)" style="fill: none; stroke: #b0b0b0; stroke-width: 0.8; stroke-linecap: square"/>
     </g>
     <g id="text_7">
      <!-- 0.2 -->
      <g transform="translate(258.154243 167.264129) scale(0.1 -0.1)">
       <defs>
        <path id="DejaVuSans-2e" d="M 684 794 
L 1344 794 
L 1344 0 
L 684 0 
L 684 794 
z
" transform="scale(0.015625)"/>
        <path id="DejaVuSans-32" d="M 1228 531 
L 3431 531 
L 3431 0 
L 469 0 
L 469 531 
Q 828 903 1448 1529 
Q 2069 2156 2228 2338 
Q 2531 2678 2651 2914 
Q 2772 3150 2772 3378 
Q 2772 3750 2511 3984 
Q 2250 4219 1831 4219 
Q 1534 4219 1204 4116 
Q 875 4013 500 3803 
L 500 4441 
Q 881 4594 1212 4672 
Q 1544 4750 1819 4750 
Q 2544 4750 2975 4387 
Q 3406 4025 3406 3419 
Q 3406 3131 3298 2873 
Q 3191 2616 2906 2266 
Q 2828 2175 2409 1742 
Q 1991 1309 1228 531 
z
" transform="scale(0.015625)"/>
       </defs>
       <use xlink:href="#DejaVuSans-30"/>
       <use xlink:href="#DejaVuSans-2e" x="63.623047"/>
       <use xlink:href="#DejaVuSans-32" x="95.410156"/>
      </g>
     </g>
    </g>
    <g id="ytick_2">
     <g id="line2d_8">
      <path d="M 290.481951 180.84 
C 290.481951 172.95011 288.927815 165.13694 285.908485 157.847633 
C 282.889155 150.558325 278.46335 143.934639 272.884355 138.355645 
C 267.305361 132.77665 260.681675 128.350845 253.392367 125.331515 
C 246.10306 122.312185 238.28989 120.758049 230.4 120.758049 
C 222.51011 120.758049 214.69694 122.312185 207.407633 125.331515 
C 200.118325 128.350845 193.494639 132.77665 187.915645 138.355645 
C 182.33665 143.934639 177.910845 150.558325 174.891515 157.847633 
C 171.872185 165.13694 170.318049 172.95011 170.318049 180.84 
C 170.318049 188.72989 171.872185 196.54306 174.891515 203.832367 
C 177.910845 211.121675 182.33665 217.745361 187.915645 223.324355 
C 193.494639 228.90335 200.118325 233.329155 207.407633 236.348485 
C 214.69694 239.367815 222.51011 240.921951 230.4 240.921951 
C 238.28989 240.921951 246.10306 239.367815 253.392367 236.348485 
C 260.681675 233.329155 267.305361 228.90335 272.884355 223.324355 
C 278.46335 217.745361 282.889155 211.121675 285.908485 203.832367 
C 288.927815 196.54306 290.481951 188.72989 290.481951 180.84 
" clip-path="url(#pe46d7f745e)" style="fill: none; stroke: #b0b0b0; stroke-width: 0.8; stroke-linecap: square"/>
     </g>
     <g id="text_8">
      <!-- 0.4 -->
      <g transform="translate(285.908485 155.767945) scale(0.1 -0.1)">
       <defs>
        <path id="DejaVuSans-34" d="M 2419 4116 
L 825 1625 
L 2419 1625 
L 2419 4116 
z
M 2253 4666 
L 3047 4666 
L 3047 1625 
L 3713 1625 
L 3713 1100 
L 3047 1100 
L 3047 0 
L 2419 0 
L 2419 1100 
L 313 1100 
L 313 1709 
L 2253 4666 
z
" transform="scale(0.015625)"/>
       </defs>
       <use xlink:href="#DejaVuSans-30"/>
       <use xlink:href="#DejaVuSans-2e" x="63.623047"/>
       <use xlink:href="#DejaVuSans-34" x="95.410156"/>
      </g>
     </g>
    </g>
    <g id="ytick_3">
     <g id="line2d_9">
      <path d="M 320.522927 180.84 
C 320.522927 169.005166 318.191723 157.28541 313.662728 146.351449 
C 309.133732 135.417488 302.495024 125.481959 294.126533 117.113467 
C 285.758041 108.744976 275.822512 102.106268 264.888551 97.577272 
C 253.95459 93.048277 242.234834 90.717073 230.4 90.717073 
C 218.565166 90.717073 206.84541 93.048277 195.911449 97.577272 
C 184.977488 102.106268 175.041959 108.744976 166.673467 117.113467 
C 158.304976 125.481959 151.666268 135.417488 147.137272 146.351449 
C 142.608277 157.28541 140.277073 169.005166 140.277073 180.84 
C 140.277073 192.674834 142.608277 204.39459 147.137272 215.328551 
C 151.666268 226.262512 158.304976 236.198041 166.673467 244.566533 
C 175.041959 252.935024 184.977488 259.573732 195.911449 264.102728 
C 206.84541 268.631723 218.565166 270.962927 230.4 270.962927 
C 242.234834 270.962927 253.95459 268.631723 264.888551 264.102728 
C 275.822512 259.573732 285.758041 252.935024 294.126533 244.566533 
C 302.495024 236.198041 309.133732 226.262512 313.662728 215.328551 
C 318.191723 204.39459 320.522927 192.674834 320.522927 180.84 
" clip-path="url(#pe46d7f745e)" style="fill: none; stroke: #b0b0b0; stroke-width: 0.8; stroke-linecap: square"/>
     </g>
     <g id="text_9">
      <!-- 0.6 -->
      <g transform="translate(313.662728 144.271762) scale(0.1 -0.1)">
       <defs>
        <path id="DejaVuSans-36" d="M 2113 2584 
Q 1688 2584 1439 2293 
Q 1191 2003 1191 1497 
Q 1191 994 1439 701 
Q 1688 409 2113 409 
Q 2538 409 2786 701 
Q 3034 994 3034 1497 
Q 3034 2003 2786 2293 
Q 2538 2584 2113 2584 
z
M 3366 4563 
L 3366 3988 
Q 3128 4100 2886 4159 
Q 2644 4219 2406 4219 
Q 1781 4219 1451 3797 
Q 1122 3375 1075 2522 
Q 1259 2794 1537 2939 
Q 1816 3084 2150 3084 
Q 2853 3084 3261 2657 
Q 3669 2231 3669 1497 
Q 3669 778 3244 343 
Q 2819 -91 2113 -91 
Q 1303 -91 875 529 
Q 447 1150 447 2328 
Q 447 3434 972 4092 
Q 1497 4750 2381 4750 
Q 2619 4750 2861 4703 
Q 3103 4656 3366 4563 
z
" transform="scale(0.015625)"/>
       </defs>
       <use xlink:href="#DejaVuSans-30"/>
       <use xlink:href="#DejaVuSans-2e" x="63.623047"/>
       <use xlink:href="#DejaVuSans-36" x="95.410156"/>
      </g>
     </g>
    </g>
    <g id="ytick_4">
     <g id="line2d_10">
      <path d="M 350.563902 180.84 
C 350.563902 165.060221 347.45563 149.43388 341.41697 134.855265 
C 335.37831 120.27665 326.526699 107.029279 315.36871 95.87129 
C 304.210721 84.713301 290.96335 75.86169 276.384735 69.82303 
C 261.80612 63.78437 246.179779 60.676098 230.4 60.676098 
C 214.620221 60.676098 198.99388 63.78437 184.415265 69.82303 
C 169.83665 75.86169 156.589279 84.713301 145.43129 95.87129 
C 134.273301 107.029279 125.42169 120.27665 119.38303 134.855265 
C 113.34437 149.43388 110.236098 165.060221 110.236098 180.84 
C 110.236098 196.619779 113.34437 212.24612 119.38303 226.824735 
C 125.42169 241.40335 134.273301 254.650721 145.43129 265.80871 
C 156.589279 276.966699 169.83665 285.81831 184.415265 291.85697 
C 198.99388 297.89563 214.620221 301.003902 230.4 301.003902 
C 246.179779 301.003902 261.80612 297.89563 276.384735 291.85697 
C 290.96335 285.81831 304.210721 276.966699 315.36871 265.80871 
C 326.526699 254.650721 335.37831 241.40335 341.41697 226.824735 
C 347.45563 212.24612 350.563902 196.619779 350.563902 180.84 
" clip-path="url(#pe46d7f745e)" style="fill: none; stroke: #b0b0b0; stroke-width: 0.8; stroke-linecap: square"/>
     </g>
     <g id="text_10">
      <!-- 0.8 -->
      <g transform="translate(341.41697 132.775578) scale(0.1 -0.1)">
       <defs>
        <path id="DejaVuSans-38" d="M 2034 2216 
Q 1584 2216 1326 1975 
Q 1069 1734 1069 1313 
Q 1069 891 1326 650 
Q 1584 409 2034 409 
Q 2484 409 2743 651 
Q 3003 894 3003 1313 
Q 3003 1734 2745 1975 
Q 2488 2216 2034 2216 
z
M 1403 2484 
Q 997 2584 770 2862 
Q 544 3141 544 3541 
Q 544 4100 942 4425 
Q 1341 4750 2034 4750 
Q 2731 4750 3128 4425 
Q 3525 4100 3525 3541 
Q 3525 3141 3298 2862 
Q 3072 2584 2669 2484 
Q 3125 2378 3379 2068 
Q 3634 1759 3634 1313 
Q 3634 634 3220 271 
Q 2806 -91 2034 -91 
Q 1263 -91 848 271 
Q 434 634 434 1313 
Q 434 1759 690 2068 
Q 947 2378 1403 2484 
z
M 1172 3481 
Q 1172 3119 1398 2916 
Q 1625 2713 2034 2713 
Q 2441 2713 2670 2916 
Q 2900 3119 2900 3481 
Q 2900 3844 2670 4047 
Q 2441 4250 2034 4250 
Q 1625 4250 1398 4047 
Q 1172 3844 1172 3481 
z
" transform="scale(0.015625)"/>
       </defs>
       <use xlink:href="#DejaVuSans-30"/>
       <use xlink:href="#DejaVuSans-2e" x="63.623047"/>
       <use xlink:href="#DejaVuSans-38" x="95.410156"/>
      </g>
     </g>
    </g>
    <g id="ytick_5">
     <g id="line2d_11">
      <path d="M 380.604878 180.84 
C 380.604878 161.115276 376.719538 141.58235 369.171213 123.359082 
C 361.622887 105.135813 350.558374 88.576598 336.610888 74.629112 
C 322.663402 60.681626 306.104187 49.617113 287.880918 42.068787 
C 269.65765 34.520462 250.124724 30.635122 230.4 30.635122 
C 210.675276 30.635122 191.14235 34.520462 172.919082 42.068787 
C 154.695813 49.617113 138.136598 60.681626 124.189112 74.629112 
C 110.241626 88.576598 99.177113 105.135813 91.628787 123.359082 
C 84.080462 141.58235 80.195122 161.115276 80.195122 180.84 
C 80.195122 200.564724 84.080462 220.09765 91.628787 238.320918 
C 99.177113 256.544187 110.241626 273.103402 124.189112 287.050888 
C 138.136598 300.998374 154.695813 312.062887 172.919082 319.611213 
C 191.14235 327.159538 210.675276 331.044878 230.4 331.044878 
C 250.124724 331.044878 269.65765 327.159538 287.880918 319.611213 
C 306.104187 312.062887 322.663402 300.998374 336.610888 287.050888 
C 350.558374 273.103402 361.622887 256.544187 369.171213 238.320918 
C 376.719538 220.09765 380.604878 200.564724 380.604878 180.84 
" clip-path="url(#pe46d7f745e)" style="fill: none; stroke: #b0b0b0; stroke-width: 0.8; stroke-linecap: square"/>
     </g>
     <g id="text_11">
      <!-- 1.0 -->
      <g transform="translate(369.171213 121.279394) scale(0.1 -0.1)">
       <use xlink:href="#DejaVuSans-31"/>
       <use xlink:href="#DejaVuSans-2e" x="63.623047"/>
       <use xlink:href="#DejaVuSans-30" x="95.410156"/>
      </g>
     </g>
    </g>
   </g>
   <g id="line2d_12">
    <path d="M 380.604878 180.84 
L 305.502439 50.75876 
L 155.297561 50.75876 
L 80.195122 180.84 
L 192.84878 245.88062 
L 305.502439 310.92124 
L 380.604878 180.84 
" clip-path="url(#pe46d7f745e)" style="fill: none; stroke: #1f77b4; stroke-width: 2; stroke-linecap: square"/>
   </g>
   <g id="patch_4">
    <path d="M 384.36 180.84 
C 384.36 160.622158 380.377526 140.600909 372.640493 121.922059 
C 364.90346 103.243208 353.562333 86.270013 339.26616 71.97384 
C 324.969987 57.677667 307.996792 46.33654 289.317941 38.599507 
C 270.639091 30.862474 250.617842 26.88 230.4 26.88 
C 210.182158 26.88 190.160909 30.862474 171.482059 38.599507 
C 152.803208 46.33654 135.830013 57.677667 121.53384 71.97384 
C 107.237667 86.270013 95.89654 103.243208 88.159507 121.922059 
C 80.422474 140.600909 76.44 160.622158 76.44 180.84 
C 76.44 201.057842 80.422474 221.079091 88.159507 239.757941 
C 95.89654 258.436792 107.237667 275.409987 121.53384 289.70616 
C 135.830013 304.002333 152.803208 315.34346 171.482059 323.080493 
C 190.160909 330.817526 210.182158 334.8 230.4 334.8 
C 250.617842 334.8 270.639091 330.817526 289.317941 323.080493 
C 307.996792 315.34346 324.969987 304.002333 339.26616 289.70616 
C 353.562333 275.409987 364.90346 258.436792 372.640493 239.757941 
C 380.377526 221.079091 384.36 201.057842 384.36 180.84 
" style="fill: none; stroke: #000000; stroke-width: 0.8; stroke-linejoin: miter; stroke-linecap: square"/>
   </g>
   <g id="text_12">
    <!-- Performance radar – Llama-3.1-8B-Instruct [feedback] -->
    <g transform="translate(68.263125 20.88) scale(0.12 -0.12)">
     <defs>
      <path id="DejaVuSans-50" d="M 1259 4147 
L 1259 2394 
L 2053 2394 
Q 2494 2394 2734 2622 
Q 2975 2850 2975 3272 
Q 2975 3691 2734 3919 
Q 2494 4147 2053 4147 
L 1259 4147 
z
M 628 4666 
L 2053 4666 
Q 2838 4666 3239 4311 
Q 3641 3956 3641 3272 
Q 3641 2581 3239 2228 
Q 2838 1875 2053 1875 
L 1259 1875 
L 1259 0 
L 628 0 
L 628 4666 
z
" transform="scale(0.015625)"/>
      <path id="DejaVuSans-65" d="M 3597 1894 
L 3597 1613 
L 953 1613 
Q 991 1019 1311 708 
Q 1631 397 2203 397 
Q 2534 397 2845 478 
Q 3156 559 3463 722 
L 3463 178 
Q 3153 47 2828 -22 
Q 2503 -91 2169 -91 
Q 1331 -91 842 396 
Q 353 884 353 1716 
Q 353 2575 817 3079 
Q 1281 3584 2069 3584 
Q 2775 3584 3186 3129 
Q 3597 2675 3597 1894 
z
M 3022 2063 
Q 3016 2534 2758 2815 
Q 2500 3097 2075 3097 
Q 1594 3097 1305 2825 
Q 1016 2553 972 2059 
L 3022 2063 
z
" transform="scale(0.015625)"/>
      <path id="DejaVuSans-72" d="M 2631 2963 
Q 2534 3019 2420 3045 
Q 2306 3072 2169 3072 
Q 1681 3072 1420 2755 
Q 1159 2438 1159 1844 
L 1159 0 
L 581 0 
L 581 3500 
L 1159 3500 
L 1159 2956 
Q 1341 3275 1631 3429 
Q 1922 3584 2338 3584 
Q 2397 3584 2469 3576 
Q 2541 3569 2628 3553 
L 2631 2963 
z
" transform="scale(0.015625)"/>
      <path id="DejaVuSans-66" d="M 2375 4863 
L 2375 4384 
L 1825 4384 
Q 1516 4384 1395 4259 
Q 1275 4134 1275 3809 
L 1275 3500 
L 2222 3500 
L 2222 3053 
L 1275 3053 
L 1275 0 
L 697 0 
L 697 3053 
L 147 3053 
L 147 3500 
L 697 3500 
L 697 3744 
Q 697 4328 969 4595 
Q 1241 4863 1831 4863 
L 2375 4863 
z
" transform="scale(0.015625)"/>
      <path id="DejaVuSans-6d" d="M 3328 2828 
Q 3544 3216 3844 3400 
Q 4144 3584 4550 3584 
Q 5097 3584 5394 3201 
Q 5691 2819 5691 2113 
L 5691 0 
L 5113 0 
L 5113 2094 
Q 5113 2597 4934 2840 
Q 4756 3084 4391 3084 
Q 3944 3084 3684 2787 
Q 3425 2491 3425 1978 
L 3425 0 
L 2847 0 
L 2847 2094 
Q 2847 2600 2669 2842 
Q 2491 3084 2119 3084 
Q 1678 3084 1418 2786 
Q 1159 2488 1159 1978 
L 1159 0 
L 581 0 
L 581 3500 
L 1159 3500 
L 1159 2956 
Q 1356 3278 1631 3431 
Q 1906 3584 2284 3584 
Q 2666 3584 2933 3390 
Q 3200 3197 3328 2828 
z
" transform="scale(0.015625)"/>
      <path id="DejaVuSans-6e" d="M 3513 2113 
L 3513 0 
L 2938 0 
L 2938 2094 
Q 2938 2591 2744 2837 
Q 2550 3084 2163 3084 
Q 1697 3084 1428 2787 
Q 1159 2491 1159 1978 
L 1159 0 
L 581 0 
L 581 3500 
L 1159 3500 
L 1159 2956 
Q 1366 3272 1645 3428 
Q 1925 3584 2291 3584 
Q 2894 3584 3203 3211 
Q 3513 2838 3513 2113 
z
" transform="scale(0.015625)"/>
      <path id="DejaVuSans-20" transform="scale(0.015625)"/>
      <path id="DejaVuSans-64" d="M 2906 2969 
L 2906 4863 
L 3481 4863 
L 3481 0 
L 2906 0 
L 2906 525 
Q 2725 213 2448 61 
Q 2172 -91 1784 -91 
Q 1150 -91 751 415 
Q 353 922 353 1747 
Q 353 2572 751 3078 
Q 1150 3584 1784 3584 
Q 2172 3584 2448 3432 
Q 2725 3281 2906 2969 
z
M 947 1747 
Q 947 1113 1208 752 
Q 1469 391 1925 391 
Q 2381 391 2643 752 
Q 2906 1113 2906 1747 
Q 2906 2381 2643 2742 
Q 2381 3103 1925 3103 
Q 1469 3103 1208 2742 
Q 947 2381 947 1747 
z
" transform="scale(0.015625)"/>
      <path id="DejaVuSans-2013" d="M 313 1978 
L 2888 1978 
L 2888 1528 
L 313 1528 
L 313 1978 
z
" transform="scale(0.015625)"/>
      <path id="DejaVuSans-4c" d="M 628 4666 
L 1259 4666 
L 1259 531 
L 3531 531 
L 3531 0 
L 628 0 
L 628 4666 
z
" transform="scale(0.015625)"/>
      <path id="DejaVuSans-2d" d="M 313 2009 
L 1997 2009 
L 1997 1497 
L 313 1497 
L 313 2009 
z
" transform="scale(0.015625)"/>
      <path id="DejaVuSans-33" d="M 2597 2516 
Q 3050 2419 3304 2112 
Q 3559 1806 3559 1356 
Q 3559 666 3084 287 
Q 2609 -91 1734 -91 
Q 1441 -91 1130 -33 
Q 819 25 488 141 
L 488 750 
Q 750 597 1062 519 
Q 1375 441 1716 441 
Q 2309 441 2620 675 
Q 2931 909 2931 1356 
Q 2931 1769 2642 2001 
Q 2353 2234 1838 2234 
L 1294 2234 
L 1294 2753 
L 1863 2753 
Q 2328 2753 2575 2939 
Q 2822 3125 2822 3475 
Q 2822 3834 2567 4026 
Q 2313 4219 1838 4219 
Q 1578 4219 1281 4162 
Q 984 4106 628 3988 
L 628 4550 
Q 988 4650 1302 4700 
Q 1616 4750 1894 4750 
Q 2613 4750 3031 4423 
Q 3450 4097 3450 3541 
Q 3450 3153 3228 2886 
Q 3006 2619 2597 2516 
z
" transform="scale(0.015625)"/>
      <path id="DejaVuSans-42" d="M 1259 2228 
L 1259 519 
L 2272 519 
Q 2781 519 3026 730 
Q 3272 941 3272 1375 
Q 3272 1813 3026 2020 
Q 2781 2228 2272 2228 
L 1259 2228 
z
M 1259 4147 
L 1259 2741 
L 2194 2741 
Q 2656 2741 2882 2914 
Q 3109 3088 3109 3444 
Q 3109 3797 2882 3972 
Q 2656 4147 2194 4147 
L 1259 4147 
z
M 628 4666 
L 2241 4666 
Q 2963 4666 3353 4366 
Q 3744 4066 3744 3513 
Q 3744 3084 3544 2831 
Q 3344 2578 2956 2516 
Q 3422 2416 3680 2098 
Q 3938 1781 3938 1306 
Q 3938 681 3513 340 
Q 3088 0 2303 0 
L 628 0 
L 628 4666 
z
" transform="scale(0.015625)"/>
      <path id="DejaVuSans-49" d="M 628 4666 
L 1259 4666 
L 1259 0 
L 628 0 
L 628 4666 
z
" transform="scale(0.015625)"/>
      <path id="DejaVuSans-5b" d="M 550 4863 
L 1875 4863 
L 1875 4416 
L 1125 4416 
L 1125 -397 
L 1875 -397 
L 1875 -844 
L 550 -844 
L 550 4863 
z
" transform="scale(0.015625)"/>
      <path id="DejaVuSans-62" d="M 3116 1747 
Q 3116 2381 2855 2742 
Q 2594 3103 2138 3103 
Q 1681 3103 1420 2742 
Q 1159 2381 1159 1747 
Q 1159 1113 1420 752 
Q 1681 391 2138 391 
Q 2594 391 2855 752 
Q 3116 1113 3116 1747 
z
M 1159 2969 
Q 1341 3281 1617 3432 
Q 1894 3584 2278 3584 
Q 2916 3584 3314 3078 
Q 3713 2572 3713 1747 
Q 3713 922 3314 415 
Q 2916 -91 2278 -91 
Q 1894 -91 1617 61 
Q 1341 213 1159 525 
L 1159 0 
L 581 0 
L 581 4863 
L 1159 4863 
L 1159 2969 
z
" transform="scale(0.015625)"/>
      <path id="DejaVuSans-5d" d="M 1947 4863 
L 1947 -844 
L 622 -844 
L 622 -397 
L 1369 -397 
L 1369 4416 
L 622 4416 
L 622 4863 
L 1947 4863 
z
" transform="scale(0.015625)"/>
     </defs>
     <use xlink:href="#DejaVuSans-50"/>
     <use xlink:href="#DejaVuSans-65" x="56.677734"/>
     <use xlink:href="#DejaVuSans-72" x="118.201172"/>
     <use xlink:href="#DejaVuSans-66" x="159.314453"/>
     <use xlink:href="#DejaVuSans-6f" x="194.519531"/>
     <use xlink:href="#DejaVuSans-72" x="255.701172"/>
     <use xlink:href="#DejaVuSans-6d" x="295.064453"/>
     <use xlink:href="#DejaVuSans-61" x="392.476562"/>
     <use xlink:href="#DejaVuSans-6e" x="453.755859"/>
     <use xlink:href="#DejaVuSans-63" x="517.134766"/>
     <use xlink:href="#DejaVuSans-65" x="572.115234"/>
     <use xlink:href="#DejaVuSans-20" x="633.638672"/>
     <use xlink:href="#DejaVuSans-72" x="665.425781"/>
     <use xlink:href="#DejaVuSans-61" x="706.539062"/>
     <use xlink:href="#DejaVuSans-64" x="767.818359"/>
     <use xlink:href="#DejaVuSans-61" x="831.294922"/>
     <use xlink:href="#DejaVuSans-72" x="892.574219"/>
     <use xlink:href="#DejaVuSans-20" x="933.6875"/>
     <use xlink:href="#DejaVuSans-2013" x="965.474609"/>
     <use xlink:href="#DejaVuSans-20" x="1015.474609"/>
     <use xlink:href="#DejaVuSans-4c" x="1047.261719"/>
     <use xlink:href="#DejaVuSans-6c" x="1102.974609"/>
     <use xlink:href="#DejaVuSans-61" x="1130.757812"/>
     <use xlink:href="#DejaVuSans-6d" x="1192.037109"/>
     <use xlink:href="#DejaVuSans-61" x="1289.449219"/>
     <use xlink:href="#DejaVuSans-2d" x="1350.728516"/>
     <use xlink:href="#DejaVuSans-33" x="1386.8125"/>
     <use xlink:href="#DejaVuSans-2e" x="1450.435547"/>
     <use xlink:href="#DejaVuSans-31" x="1482.222656"/>
     <use xlink:href="#DejaVuSans-2d" x="1545.845703"/>
     <use xlink:href="#DejaVuSans-38" x="1581.929688"/>
     <use xlink:href="#DejaVuSans-42" x="1645.552734"/>
     <use xlink:href="#DejaVuSans-2d" x="1714.15625"/>
     <use xlink:href="#DejaVuSans-49" x="1750.240234"/>
     <use xlink:href="#DejaVuSans-6e" x="1779.732422"/>
     <use xlink:href="#DejaVuSans-73" x="1843.111328"/>
     <use xlink:href="#DejaVuSans-74" x="1895.210938"/>
     <use xlink:href="#DejaVuSans-72" x="1934.419922"/>
     <use xlink:href="#DejaVuSans-75" x="1975.533203"/>
     <use xlink:href="#DejaVuSans-63" x="2038.912109"/>
     <use xlink:href="#DejaVuSans-74" x="2093.892578"/>
     <use xlink:href="#DejaVuSans-20" x="2133.101562"/>
     <use xlink:href="#DejaVuSans-5b" x="2164.888672"/>
     <use xlink:href="#DejaVuSans-66" x="2203.902344"/>
     <use xlink:href="#DejaVuSans-65" x="2239.107422"/>
     <use xlink:href="#DejaVuSans-65" x="2300.630859"/>
     <use xlink:href="#DejaVuSans-64" x="2362.154297"/>
     <use xlink:href="#DejaVuSans-62" x="2425.630859"/>
     <use xlink:href="#DejaVuSans-61" x="2489.107422"/>
     <use xlink:href="#DejaVuSans-63" x="2550.386719"/>
     <use xlink:href="#DejaVuSans-6b" x="2605.367188"/>
     <use xlink:href="#DejaVuSans-5d" x="2663.277344"/>
    </g>
   </g>
  </g>
 </g>
 <defs>
  <clipPath id="pe46d7f745e">
   <path d="M 384.36 180.84 
C 384.36 160.622158 380.377526 140.600909 372.640493 121.922059 
C 364.90346 103.243208 353.562333 86.270013 339.26616 71.97384 
C 324.969987 57.677667 307.996792 46.33654 289.317941 38.599507 
C 270.639091 30.862474 250.617842 26.88 230.4 26.88 
C 210.182158 26.88 190.160909 30.862474 171.482059 38.599507 
C 152.803208 46.33654 135.830013 57.677667 121.53384 71.97384 
C 107.237667 86.270013 95.89654 103.243208 88.159507 121.922059 
C 80.422474 140.600909 76.44 160.622158 76.44 180.84 
C 76.44 201.057842 80.422474 221.079091 88.159507 239.757941 
C 95.89654 258.436792 107.237667 275.409987 121.53384 289.70616 
C 135.830013 304.002333 152.803208 315.34346 171.482059 323.080493 
C 190.160909 330.817526 210.182158 334.8 230.4 334.8 
C 250.617842 334.8 270.639091 330.817526 289.317941 323.080493 
C 307.996792 315.34346 324.969987 304.002333 339.26616 289.70616 
C 353.562333 275.409987 364.90346 258.436792 372.640493 239.757941 
C 380.377526 221.079091 384.36 201.057842 384.36 180.84 
M 230.4 180.84 
C 230.4 180.84 230.4 180.84 230.4 180.84 
C 230.4 180.84 230.4 180.84 230.4 180.84 
C 230.4 180.84 230.4 180.84 230.4 180.84 
C 230.4 180.84 230.4 180.84 230.4 180.84 
C 230.4 180.84 230.4 180.84 230.4 180.84 
C 230.4 180.84 230.4 180.84 230.4 180.84 
C 230.4 180.84 230.4 180.84 230.4 180.84 
C 230.4 180.84 230.4 180.84 230.4 180.84 
C 230.4 180.84 230.4 180.84 230.4 180.84 
C 230.4 180.84 230.4 180.84 230.4 180.84 
C 230.4 180.84 230.4 180.84 230.4 180.84 
C 230.4 180.84 230.4 180.84 230.4 180.84 
C 230.4 180.84 230.4 180.84 230.4 180.84 
C 230.4 180.84 230.4 180.84 230.4 180.84 
C 230.4 180.84 230.4 180.84 230.4 180.84 
C 230.4 180.84 230.4 180.84 230.4 180.84 
z
"/>
  </clipPath>
 </defs>
</svg>
